<?xml version="1.0" standalone="no"?>
<!DOCTYPE svg PUBLIC "-//W3C//DTD SVG 1.1//EN" "http://www.w3.org/Graphics/SVG/1.1/DTD/svg11.dtd" >
<svg xmlns="http://www.w3.org/2000/svg" xmlns:xlink="http://www.w3.org/1999/xlink" version="1.1">
<metadata>
Created by FontForge 20150824 at Tue Jun  7 03:12:44 2016
 By Everything Fonts
Copyright (c) 2009 by Leftloft. All rights reserved.
</metadata>
<defs>
<font id="LFTEtica-BookItalic" horiz-adv-x="485" >
  <font-face 
    font-family="LFT Etica Bk"
    font-weight="350"
    font-style="italic"
    font-stretch="normal"
    units-per-em="1000"
    panose-1="2 0 5 3 3 0 0 9 0 4"
    ascent="730"
    descent="-270"
    x-height="525"
    cap-height="720"
    bbox="-234 -282 2267.75 931"
    underline-thickness="50"
    underline-position="-100"
    stemh="71"
    stemv="74"
    unicode-range="U+0020-FB04"
  />
<missing-glyph horiz-adv-x="176" 
 />
    <glyph glyph-name="ft" unicode="ft" horiz-adv-x="546" 
d="M537 464h-89l-62 -367c-6 -37 5 -48 34 -48c19 0 36 5 54 12l3 -54c-26 -11 -60 -19 -88 -19c-60 0 -86 30 -75 95l64 381h-194l-78 -464h-71l78 464h-58l7 46l60 11l13 75c13 76 54 137 138 137c20 0 40 -3 61 -9l-12 -56c-12 4 -27 6 -44 6c-31 0 -62 -17 -72 -74
l-12 -75h194l35 142h59l-24 -142h89z" />
    <glyph glyph-name="ff" unicode="ff" horiz-adv-x="524" 
d="M300 0l78 464h-194l-78 -464h-71l78 464h-58l7 46l60 11l11 63c12 76 55 136 138 136c20 0 43 -3 64 -9l-14 -55c-13 4 -27 7 -45 7c-31 0 -62 -18 -72 -75l-10 -63h194l12 72c13 76 54 136 138 136c21 0 42 -3 63 -9l-14 -56c-12 4 -27 7 -45 7c-31 0 -61 -17 -70 -74
l-13 -76h94l-10 -61h-94l-78 -464h-71z" />
    <glyph glyph-name="fi" unicode="fi" horiz-adv-x="499" 
d="M35 0l78 464h-58l7 46l60 11l13 75c13 76 54 137 138 137c20 0 40 -3 61 -9l-12 -56c-12 4 -27 6 -44 6c-31 0 -62 -17 -72 -74l-12 -75h265l-88 -525h-71l78 464h-194l-78 -464h-71zM398 660c0 34 27 55 58 55c24 0 40 -15 40 -39c0 -33 -25 -56 -56 -56
c-24 0 -42 16 -42 40z" />
    <glyph glyph-name="fl" unicode="fl" horiz-adv-x="494" 
d="M35 0l78 464h-58l7 46l60 11l13 75c13 76 54 137 138 137c20 0 40 -3 61 -9l-12 -56c-12 4 -27 6 -44 6c-31 0 -62 -17 -72 -74l-12 -75h194l32 195h71l-120 -720h-71l78 464h-194l-78 -464h-71z" />
    <glyph glyph-name="ffi" unicode="ffi" horiz-adv-x="763" 
d="M300 0l78 464h-194l-78 -464h-71l78 464h-58l7 46l60 11l11 64c13 76 55 136 138 136c21 0 43 -4 64 -10l-14 -55c-13 4 -27 7 -45 7c-31 0 -62 -17 -71 -74l-11 -64h194l12 71c12 76 54 137 138 137c19 0 40 -3 60 -9l-11 -56c-13 4 -27 6 -45 6c-31 0 -61 -17 -71 -74
l-12 -75h264l-88 -525h-72l78 464h-192l-78 -464h-71zM661 660c0 34 29 55 59 55c24 0 40 -15 40 -39c0 -33 -25 -56 -56 -56c-25 0 -43 16 -43 40z" />
    <glyph glyph-name="ffl" unicode="ffl" horiz-adv-x="759" 
d="M300 0l78 464h-194l-78 -464h-71l78 464h-58l7 46l60 11l11 63c12 76 54 136 137 136c21 0 44 -3 65 -9l-14 -55c-13 4 -27 7 -45 7c-31 0 -62 -18 -72 -75l-10 -63h194l12 71c12 76 54 137 138 137c19 0 40 -3 60 -9l-11 -56c-13 4 -27 6 -45 6c-31 0 -61 -17 -71 -74
l-12 -75h194l32 195h71l-120 -720h-71l78 464h-194l-78 -464h-71z" />
    <glyph glyph-name="tt" unicode="tt" horiz-adv-x="532" 
d="M523 464h-89l-62 -367c-6 -37 7 -48 34 -48c19 0 37 5 55 12l2 -54c-25 -11 -59 -19 -87 -19c-61 0 -87 30 -76 95l64 381h-183l-62 -367c-6 -37 6 -48 34 -48c18 0 37 5 54 12l3 -54c-25 -11 -59 -19 -88 -19c-60 0 -86 30 -75 95l64 381h-63l7 46l66 14l35 143h59
l-24 -142h183l35 142h59l-24 -142h89z" />
    <glyph glyph-name="fft" unicode="fft" horiz-adv-x="811" 
d="M802 464h-89l-62 -367c-6 -37 5 -48 33 -48c19 0 37 5 55 12l2 -54c-25 -11 -59 -19 -88 -19c-59 0 -85 30 -74 95l64 381h-194l-78 -464h-71l78 464h-194l-78 -464h-71l78 464h-58l7 46l60 11l11 64c13 76 55 136 138 136c21 0 43 -4 64 -10l-14 -55c-13 4 -27 7 -45 7
c-31 0 -62 -17 -71 -74l-11 -64h194l12 71c12 76 54 137 138 137c19 0 40 -3 60 -9l-11 -56c-13 4 -27 6 -45 6c-31 0 -61 -17 -71 -74l-12 -75h194l35 142h59l-24 -142h89z" />
    <glyph glyph-name=".notdef" horiz-adv-x="176" 
 />
    <glyph glyph-name=".notdef" horiz-adv-x="176" 
 />
    <glyph glyph-name="space" unicode=" " horiz-adv-x="203" 
 />
    <glyph glyph-name="exclam" unicode="!" horiz-adv-x="303" 
d="M106 198l38 281l40 241h76l-40 -241l-57 -281h-57zM54 31c0 39 27 62 64 62c26 0 46 -16 46 -44c0 -37 -30 -61 -64 -61c-28 0 -46 17 -46 43z" />
    <glyph glyph-name="quotedbl" unicode="&#x22;" horiz-adv-x="353" 
d="M308 720v-277h-68v277h68zM166 720v-277h-68v277h68z" />
    <glyph glyph-name="numbersign" unicode="#" horiz-adv-x="695" 
d="M289 388l-46 -141h157l50 141h-161zM646 388h-142l-49 -141h137v-52h-154l-67 -182l-49 12l62 170h-161l-66 -182l-48 12l60 170h-116v52h134l49 141h-128v53h146l69 198l50 -12l-64 -186h159l70 197l50 -11l-65 -186h123v-53z" />
    <glyph glyph-name="dollar" unicode="$" horiz-adv-x="503" 
d="M153 -87l15 87c-84 6 -143 48 -182 98l49 44c44 -51 99 -84 163 -84c88 0 166 49 166 140c0 53 -33 88 -132 121c-109 35 -156 80 -156 160c0 119 90 192 206 202l14 85h59l-14 -85c68 -8 123 -40 156 -92l-48 -40c-37 48 -90 75 -146 75c-84 0 -155 -43 -155 -127
c0 -62 49 -89 138 -119c106 -36 151 -87 151 -164c0 -119 -94 -199 -210 -214l-15 -87h-59z" />
    <glyph glyph-name="percent" unicode="%" horiz-adv-x="824" 
d="M506 137c0 -50 31 -87 81 -87c63 0 115 54 115 120c0 49 -31 88 -80 88c-64 0 -116 -55 -116 -121zM446 128c0 101 85 183 185 183c80 0 132 -57 132 -134c0 -100 -87 -181 -185 -181c-80 0 -132 55 -132 132zM143 541c0 -51 32 -86 81 -86c64 0 115 53 115 121
c0 51 -31 87 -80 87c-65 0 -116 -54 -116 -122zM83 532c0 102 84 184 185 184c79 0 131 -54 131 -132c0 -101 -87 -182 -184 -182c-80 0 -132 52 -132 130zM117 0l545 720h75l-546 -720h-74z" />
    <glyph glyph-name="ampersand" unicode="&#x26;" horiz-adv-x="694" 
d="M277 563c0 -32 15 -73 49 -118c91 40 133 89 133 145c0 42 -30 74 -78 74c-59 0 -104 -44 -104 -101zM258 47c66 0 124 35 183 94l-149 232c-105 -45 -164 -108 -164 -198c0 -71 47 -128 130 -128zM535 -9l-64 96c-72 -72 -143 -104 -231 -104c-112 0 -184 72 -184 178
c0 116 73 197 206 256c-30 40 -53 84 -53 135c0 96 78 172 183 172c79 0 132 -47 132 -122c0 -91 -65 -154 -167 -201l70 -106l138 102l32 -48l-140 -105l139 -211z" />
    <glyph glyph-name="quotesingle" unicode="'" horiz-adv-x="211" 
d="M166 720v-277h-68v277h68z" />
    <glyph glyph-name="parenleft" unicode="(" horiz-adv-x="337" 
d="M299 733l44 -29c-155 -172 -218 -316 -218 -501c0 -105 27 -201 85 -296l-46 -35c-71 81 -108 205 -108 333c0 207 92 377 243 528z" />
    <glyph glyph-name="parenright" unicode=")" horiz-adv-x="338" 
d="M41 -128l-44 29c155 172 218 316 218 501c0 105 -27 201 -85 296l46 35c71 -81 108 -205 108 -333c0 -207 -92 -377 -243 -528z" />
    <glyph glyph-name="asterisk" unicode="*" horiz-adv-x="428" 
d="M339 428l-85 97l-86 -97l-34 23l71 105l-104 40l13 37l112 -27l9 114h39l9 -113l113 27l13 -38l-107 -40l68 -105z" />
    <glyph glyph-name="plus" unicode="+" horiz-adv-x="600" 
d="M329 559v-233h232v-57h-232v-233h-59v233h-232v57h232v233h59z" />
    <glyph glyph-name="comma" unicode="," horiz-adv-x="234" 
d="M15 30c0 37 28 61 65 61s52 -28 52 -59c0 -62 -39 -127 -131 -164l-11 32c55 26 79 56 87 95c-8 -4 -17 -6 -25 -6c-24 0 -37 18 -37 41z" />
    <glyph glyph-name="hyphen" unicode="-" horiz-adv-x="325" 
d="M23 240l12 70h259l-12 -70h-259z" />
    <glyph glyph-name="period" unicode="." horiz-adv-x="243" 
d="M25 41c0 35 24 55 57 55s57 -20 57 -54c0 -33 -24 -54 -57 -54c-34 0 -57 21 -57 53z" />
    <glyph glyph-name="slash" unicode="/" horiz-adv-x="353" 
d="M-43 -92l376 831h68l-379 -831h-65z" />
    <glyph glyph-name="zero" unicode="0" horiz-adv-x="583" 
d="M135 353c-8 -49 -13 -97 -13 -133c0 -118 43 -169 125 -169c105 0 177 94 213 304c8 50 12 93 12 130c0 117 -38 169 -119 169c-107 0 -182 -89 -218 -301zM62 353c44 256 143 367 298 367c121 0 187 -70 187 -227c0 -40 -5 -85 -13 -136c-41 -260 -149 -369 -300 -369
c-120 0 -185 73 -185 229c0 40 4 85 13 136z" />
    <glyph glyph-name="one" unicode="1" horiz-adv-x="442" 
d="M175 61l91 542c-55 -33 -113 -58 -177 -69v56c69 17 156 63 215 119h50l-109 -648h135l-10 -61h-358l10 61h153z" />
    <glyph glyph-name="two" unicode="2" horiz-adv-x="491" 
d="M-14 0l9 51l311 335c69 74 90 114 90 167c0 59 -39 98 -105 98c-59 0 -121 -31 -180 -80l-32 49c66 60 148 100 233 100c89 0 160 -61 160 -155c0 -82 -41 -141 -105 -209l-275 -290h303l-11 -66h-398z" />
    <glyph glyph-name="three" unicode="3" horiz-adv-x="502" 
d="M-19 84l47 48c45 -50 90 -79 165 -79c90 0 172 60 172 164c0 68 -38 115 -138 116c-12 0 -45 -2 -50 -2l8 64c104 2 200 71 200 166c0 62 -45 93 -102 93c-56 0 -107 -18 -157 -51l-23 50c58 40 123 67 199 67c93 0 156 -52 156 -142c0 -92 -69 -174 -160 -204
c96 -9 138 -67 138 -147c0 -154 -122 -239 -251 -239c-85 0 -152 28 -204 96z" />
    <glyph glyph-name="four" unicode="4" horiz-adv-x="524" 
d="M97 234h241l67 401zM299 0l28 169h-317l10 58l373 482h94l-80 -475h82l-11 -65h-82l-28 -169h-69z" />
    <glyph glyph-name="five" unicode="5" horiz-adv-x="517" 
d="M64 288l100 421h329l-16 -70h-266l-59 -251c32 29 82 54 147 54c104 0 156 -64 156 -167c0 -183 -121 -287 -270 -287c-59 0 -131 19 -185 65l39 54c46 -34 98 -53 152 -53c109 0 190 69 190 204c0 71 -34 121 -110 121c-59 0 -106 -29 -135 -57l-8 -34h-64z" />
    <glyph glyph-name="six" unicode="6" horiz-adv-x="524" 
d="M44 214c0 294 129 506 329 506c50 0 104 -17 142 -58l-39 -49c-36 32 -70 44 -111 44c-150 0 -205 -163 -235 -290c52 45 116 73 186 73c103 0 151 -77 151 -174c0 -175 -101 -278 -245 -278c-122 0 -178 83 -178 226zM232 49c84 0 164 67 164 203c0 85 -45 123 -106 123
c-67 0 -136 -51 -169 -81c-3 -29 -5 -55 -5 -78c0 -120 41 -167 116 -167z" />
    <glyph glyph-name="seven" unicode="7" horiz-adv-x="432" 
d="M477 658l-367 -658h-74l2 10l355 634h-320l12 65h401z" />
    <glyph glyph-name="eight" unicode="8" horiz-adv-x="514" 
d="M90 158c0 -64 44 -107 123 -107c96 0 169 67 169 158c0 78 -62 119 -126 142c-86 -35 -166 -92 -166 -193zM181 536c0 -61 47 -100 101 -122c56 24 138 82 138 160c0 56 -39 86 -102 86c-80 0 -137 -49 -137 -124zM16 145c0 117 89 197 189 236c-63 27 -97 76 -97 141
c0 118 96 198 221 198c97 0 161 -51 161 -136c0 -88 -70 -160 -154 -199c79 -38 119 -91 119 -164c0 -140 -107 -233 -256 -233c-117 0 -183 59 -183 157z" />
    <glyph glyph-name="nine" unicode="9" horiz-adv-x="517" 
d="M481 409c-44 -305 -158 -421 -309 -421c-65 0 -116 21 -151 56l36 48c31 -25 61 -45 122 -45c117 0 187 130 222 295c-56 -46 -119 -74 -190 -74c-111 0 -149 77 -149 174c0 15 1 30 3 46c19 149 113 232 240 232c129 0 182 -88 182 -220c0 -27 -2 -61 -6 -91zM298 657
c-80 0 -146 -51 -161 -165c-2 -16 -3 -30 -3 -43c0 -81 32 -120 94 -120c71 0 145 49 183 84c5 29 7 59 7 83c0 106 -45 161 -120 161z" />
    <glyph glyph-name="colon" unicode=":" horiz-adv-x="243" 
d="M29 41c0 35 24 55 57 55s57 -20 57 -54c0 -33 -24 -54 -57 -54c-34 0 -57 21 -57 53zM92 443c0 35 24 55 57 55s57 -20 57 -54c0 -33 -24 -54 -57 -54c-34 0 -57 21 -57 53z" />
    <glyph glyph-name="semicolon" unicode=";" horiz-adv-x="241" 
d="M15 30c0 37 28 61 65 61s52 -28 52 -59c0 -62 -39 -127 -131 -164l-11 32c55 26 79 56 87 95c-8 -4 -17 -6 -25 -6c-24 0 -37 18 -37 41zM91 443c0 35 24 55 57 55s57 -20 57 -54c0 -33 -24 -54 -57 -54c-34 0 -57 21 -57 53z" />
    <glyph glyph-name="less" unicode="&#x3c;" horiz-adv-x="600" 
d="M562 53l-542 222v38l542 223l22 -56l-464 -186l465 -185z" />
    <glyph glyph-name="equal" unicode="=" horiz-adv-x="600" 
d="M560 391v-53h-520v53h520zM560 232v-53h-520v53h520z" />
    <glyph glyph-name="greater" unicode="&#x3e;" horiz-adv-x="600" 
d="M579 280l-542 -222l-21 55l463 186l-463 186l22 55l541 -222v-38z" />
    <glyph glyph-name="question" unicode="?" horiz-adv-x="507" 
d="M198 198l4 26c30 175 224 203 224 347c0 60 -36 96 -108 96c-86 0 -146 -54 -162 -148h-68c23 136 112 214 246 214c101 0 168 -53 168 -147c0 -178 -209 -215 -234 -365l-4 -23h-66zM150 31c0 39 27 62 64 62c26 0 46 -16 46 -44c0 -37 -30 -61 -64 -61
c-28 0 -46 17 -46 43z" />
    <glyph glyph-name="at" unicode="@" horiz-adv-x="984" 
d="M568 188l39 153c-18 13 -49 21 -86 21c-111 0 -181 -98 -181 -209c0 -61 24 -106 85 -106c71 0 124 69 143 141zM675 377l-56 -232c-4 -15 -6 -28 -6 -41c0 -38 16 -59 60 -59c117 0 186 132 186 260c0 191 -134 289 -328 289c-235 0 -405 -171 -405 -409
c0 -220 159 -343 368 -343c115 0 203 30 287 91l28 -42c-88 -69 -201 -103 -316 -103c-239 0 -429 140 -429 398c0 275 204 463 470 463c237 0 386 -134 386 -338c0 -175 -100 -317 -253 -317c-74 0 -110 37 -104 94c-33 -51 -80 -91 -149 -91c-93 0 -137 64 -137 155
c0 137 94 262 251 262c60 0 111 -15 147 -37z" />
    <glyph glyph-name="A" unicode="A" horiz-adv-x="623" 
d="M344 720h78l135 -720h-79l-40 206h-281l-106 -206h-81zM189 273h240l-60 360z" />
    <glyph glyph-name="B" unicode="B" horiz-adv-x="608" 
d="M364 653h-150l-42 -251h135c101 0 196 33 196 155c0 71 -52 96 -139 96zM161 338l-45 -271h176c125 0 191 69 191 166c0 78 -63 105 -156 105h-166zM31 0l120 720h237c136 0 193 -53 193 -144c0 -90 -50 -184 -159 -201l-1 -3c103 -12 137 -77 137 -140
c0 -170 -128 -232 -298 -232h-229z" />
    <glyph glyph-name="C" unicode="C" horiz-adv-x="633" 
d="M528 148l38 -52c-74 -68 -165 -108 -267 -108c-171 0 -243 127 -243 290c0 238 133 455 372 455c139 0 223 -79 203 -223h-74c9 90 -25 152 -142 152c-171 0 -277 -161 -277 -375c0 -150 66 -229 177 -229c91 0 155 41 213 90z" />
    <glyph glyph-name="D" unicode="D" horiz-adv-x="675" 
d="M342 653h-128l-98 -586h128c189 0 282 102 311 292c5 33 8 64 8 92c0 132 -65 202 -221 202zM151 720h196c195 0 294 -85 294 -264c0 -31 -2 -60 -7 -97c-35 -261 -175 -359 -414 -359h-190z" />
    <glyph glyph-name="E" unicode="E" horiz-adv-x="567" 
d="M31 0l120 720h436l-10 -66h-362l-43 -253h330l-10 -65h-330l-45 -270h370l-12 -66h-444z" />
    <glyph glyph-name="F" unicode="F" horiz-adv-x="528" 
d="M31 0l120 720h415l-10 -66h-341l-43 -255h301l-11 -65h-301l-56 -334h-74z" />
    <glyph glyph-name="G" unicode="G" horiz-adv-x="693" 
d="M402 302l11 66h228l-45 -270c-95 -95 -203 -110 -275 -110c-189 0 -264 123 -264 289c0 261 148 456 388 456c189 0 233 -105 218 -214h-77c10 87 -28 145 -156 145c-187 0 -291 -176 -291 -375c0 -147 66 -233 194 -233c77 0 145 28 203 80l28 166h-162z" />
    <glyph glyph-name="H" unicode="H" horiz-adv-x="676" 
d="M31 0l120 720h74l-52 -311h365l52 311h75l-120 -720h-75l57 340h-365l-57 -340h-74z" />
    <glyph glyph-name="I" unicode="I" horiz-adv-x="236" 
d="M31 0l120 720h74l-120 -720h-74z" />
    <glyph glyph-name="J" unicode="J" horiz-adv-x="380" 
d="M374 720l-93 -561c-20 -117 -78 -171 -181 -171c-42 0 -97 8 -131 27l28 63c31 -15 62 -23 102 -23c64 0 94 27 109 120l91 545h75z" />
    <glyph glyph-name="K" unicode="K" horiz-adv-x="605" 
d="M31 0l120 720h74l-52 -317h136l232 317h84l-255 -350l170 -370h-86l-155 340h-136l-58 -340h-74z" />
    <glyph glyph-name="L" unicode="L" horiz-adv-x="508" 
d="M151 720h74l-108 -653h326l-12 -67h-400z" />
    <glyph glyph-name="M" unicode="M" horiz-adv-x="838" 
d="M732 0h-71l40 591l-301 -591h-62l-101 591l-157 -591h-72l190 720h88l103 -608l307 608h85z" />
    <glyph glyph-name="N" unicode="N" horiz-adv-x="680" 
d="M31 0l120 720h69l278 -581l97 581h74l-120 -720h-67l-281 582l-97 -582h-73z" />
    <glyph glyph-name="O" unicode="O" horiz-adv-x="738" 
d="M147 368c-6 -34 -9 -65 -9 -93c0 -147 68 -218 191 -218c145 0 248 95 283 311c5 28 7 55 7 79c0 140 -66 215 -188 215c-149 0 -252 -105 -284 -294zM65 368c40 240 182 365 373 365c159 0 263 -94 263 -274c0 -28 -3 -62 -8 -95c-41 -273 -187 -376 -372 -376
c-160 0 -264 86 -264 275c0 32 1 67 8 105z" />
    <glyph glyph-name="P" unicode="P" horiz-adv-x="581" 
d="M356 654h-141l-51 -304h132c137 0 202 71 202 185c0 77 -45 119 -142 119zM31 0l120 720h220c138 0 202 -66 202 -173c0 -151 -91 -261 -286 -261h-134l-48 -286h-74z" />
    <glyph glyph-name="Q" unicode="Q" horiz-adv-x="738" 
d="M64 368c40 240 185 365 376 365c159 0 260 -94 260 -274c0 -28 -3 -62 -8 -95c-28 -187 -101 -283 -217 -338l-2 -7l141 -47l-34 -66l-217 85c-14 -2 -28 -3 -43 -3c-160 0 -264 86 -264 275c0 32 1 67 8 105zM146 368c-6 -34 -9 -65 -9 -93c0 -147 68 -218 191 -218
c145 0 248 95 283 311c5 28 7 55 7 79c0 140 -66 215 -188 215c-149 0 -252 -105 -284 -294z" />
    <glyph glyph-name="R" unicode="R" horiz-adv-x="609" 
d="M151 720h219c143 0 207 -65 207 -169c0 -102 -49 -191 -158 -240l108 -311h-81l-100 294c-22 -4 -49 -6 -76 -6h-117l-48 -288h-74zM357 654h-143l-50 -302h129c133 0 207 70 207 185c0 75 -46 117 -143 117z" />
    <glyph glyph-name="S" unicode="S" horiz-adv-x="558" 
d="M-1 96l51 50c50 -60 114 -94 187 -94c98 0 179 54 179 154c0 64 -36 98 -140 132c-126 42 -181 88 -181 188c0 125 107 207 250 207c98 0 167 -34 213 -103l-50 -47c-42 59 -104 86 -168 86c-89 0 -165 -43 -165 -137c0 -72 56 -97 157 -135c115 -43 164 -84 164 -182
c0 -142 -111 -227 -266 -227c-104 0 -184 44 -231 108z" />
    <glyph glyph-name="T" unicode="T" horiz-adv-x="550" 
d="M188 0l110 653h-221l10 67h516l-10 -67h-220l-110 -653h-75z" />
    <glyph glyph-name="U" unicode="U" horiz-adv-x="669" 
d="M146 720h74l-74 -444c-4 -22 -6 -43 -6 -62c0 -106 59 -159 158 -159c131 0 192 79 216 221l74 444h74l-75 -453c-31 -185 -135 -279 -304 -279c-135 0 -219 65 -219 206c0 22 3 47 7 73z" />
    <glyph glyph-name="V" unicode="V" horiz-adv-x="578" 
d="M193 0l-106 720h79l86 -634l302 634h77l-348 -720h-90z" />
    <glyph glyph-name="W" unicode="W" horiz-adv-x="895" 
d="M154 0l-67 720h76l56 -622l262 622h74l55 -623l260 623h77l-305 -720h-87l-55 607l-259 -607h-87z" />
    <glyph glyph-name="X" unicode="X" horiz-adv-x="562" 
d="M-33 0l282 368l-155 352h83l127 -294l222 294h84l-274 -358l157 -362h-86l-128 298l-225 -298h-87z" />
    <glyph glyph-name="Y" unicode="Y" horiz-adv-x="545" 
d="M181 0l51 305l-155 415h84l122 -338l236 338h83l-295 -415l-51 -305h-75z" />
    <glyph glyph-name="Z" unicode="Z" horiz-adv-x="566" 
d="M-11 0l9 51l487 602h-380l10 67h491l-5 -34l-502 -619h395l-12 -67h-493z" />
    <glyph glyph-name="bracketleft" unicode="[" horiz-adv-x="333" 
d="M194 -125h-177l141 845h177l-10 -60h-107l-121 -725h107z" />
    <glyph glyph-name="backslash" unicode="\" horiz-adv-x="383" 
d="M124 739l236 -831h-62l-239 831h65z" />
    <glyph glyph-name="bracketright" unicode="]" horiz-adv-x="332" 
d="M172 -125h-175l10 60h107l121 725h-107l10 60h175z" />
    <glyph glyph-name="asciicircum" unicode="^" horiz-adv-x="669" 
d="M429 693l187 -247l-47 -36l-177 230l-256 -230l-34 39l268 244h59z" />
    <glyph glyph-name="underscore" unicode="_" horiz-adv-x="479" 
d="M-90 -228l9 55h482l-9 -55h-482z" />
    <glyph glyph-name="grave" unicode="`" 
d="M170 758l131 -139l-32 -35l-149 123z" />
    <glyph glyph-name="a" unicode="a" horiz-adv-x="567" 
d="M380 0l8 70c-30 -32 -94 -82 -183 -82c-117 0 -170 87 -170 209c0 199 104 340 264 340c77 0 123 -40 152 -90l13 78h67l-88 -525h-63zM396 142l39 232c-19 33 -63 95 -139 95c-105 0 -184 -99 -184 -263c0 -91 28 -152 119 -152c72 0 132 54 165 88z" />
    <glyph glyph-name="b" unicode="b" horiz-adv-x="567" 
d="M156 375l-39 -234c17 -38 63 -86 135 -86c113 0 188 98 188 264c0 98 -39 151 -112 151c-72 0 -130 -49 -172 -95zM82 0h-60l120 720h71l-45 -271c51 54 113 88 184 88c111 0 165 -80 165 -206c0 -189 -86 -343 -269 -343c-88 0 -134 52 -149 84z" />
    <glyph glyph-name="c" unicode="c" horiz-adv-x="503" 
d="M402 111l29 -49c-65 -51 -139 -74 -211 -74c-118 0 -187 83 -187 223c0 208 127 326 278 326c119 0 178 -71 163 -191h-68c3 95 -31 128 -103 128c-112 0 -193 -104 -193 -253c0 -104 40 -169 129 -169c61 0 100 19 163 59z" />
    <glyph glyph-name="d" unicode="d" horiz-adv-x="569" 
d="M380 0l8 73c-30 -32 -94 -85 -183 -85c-117 0 -170 88 -170 210c0 199 104 339 264 339c77 0 120 -38 149 -84l44 267h71l-120 -720h-63zM396 142l39 232c-19 33 -63 95 -139 95c-105 0 -184 -99 -184 -258c0 -96 30 -157 121 -157c72 0 130 54 163 88z" />
    <glyph glyph-name="e" unicode="e" horiz-adv-x="491" 
d="M401 110l31 -50c-66 -50 -136 -72 -205 -72c-119 0 -192 72 -192 212c0 200 119 337 283 337c107 0 158 -62 158 -136c0 -90 -35 -182 -365 -189c0 -80 22 -160 133 -160c57 0 100 20 157 58zM116 270c248 14 289 57 289 123c0 39 -26 82 -100 82
c-130 0 -181 -131 -189 -205z" />
    <glyph glyph-name="f" unicode="f" horiz-adv-x="259" 
d="M35 0l78 464h-58l7 46l60 11l13 75c15 88 55 137 138 137c21 0 42 -3 63 -9l-13 -56c-13 4 -27 7 -45 7c-31 0 -62 -12 -72 -75l-12 -75h95l-10 -61h-95l-78 -464h-71z" />
    <glyph glyph-name="g" unicode="g" horiz-adv-x="567" 
d="M531 525l-87 -518c-29 -172 -106 -217 -243 -217c-75 0 -136 16 -176 34l24 61c39 -15 91 -31 152 -31c121 0 159 52 177 167l8 51c-43 -45 -106 -81 -182 -81c-118 0 -169 90 -169 208c0 174 87 338 267 338c81 0 128 -52 150 -89l13 77h66zM395 138l40 237
c-16 35 -64 94 -138 94c-117 0 -185 -112 -185 -260c0 -99 36 -153 119 -153c74 0 131 51 164 82z" />
    <glyph glyph-name="h" unicode="h" horiz-adv-x="541" 
d="M143 720h71l-44 -270c49 49 112 87 182 87c89 0 128 -49 128 -134c0 -19 -2 -40 -6 -62l-57 -341h-72l54 325c3 20 6 40 6 70c0 36 -13 77 -78 77c-67 0 -135 -59 -169 -91l-64 -381h-71z" />
    <glyph glyph-name="i" unicode="i" horiz-adv-x="226" 
d="M126 661c0 31 26 52 56 52c26 0 42 -15 42 -39c0 -30 -24 -51 -57 -51c-24 0 -41 15 -41 38zM186 525l-88 -525h-70l88 525h70z" />
    <glyph glyph-name="j" unicode="j" horiz-adv-x="226" 
d="M186 525l-100 -598c-14 -81 -46 -130 -130 -130c-24 0 -47 2 -66 10l17 56c10 -4 27 -6 43 -6c34 0 56 13 66 74l100 594h70zM126 660c0 32 26 54 57 54c25 0 41 -15 41 -39c0 -32 -25 -53 -56 -53c-25 0 -42 15 -42 38z" />
    <glyph glyph-name="k" unicode="k" 
d="M213 720l-65 -397h58l196 202h88l-229 -236l165 -289h-85l-146 260h-58l-44 -260h-71l120 720h71z" />
    <glyph glyph-name="l" unicode="l" horiz-adv-x="217" 
d="M94 0h-71l120 720h71z" />
    <glyph glyph-name="m" unicode="m" horiz-adv-x="798" 
d="M110 525h67l-13 -78c46 49 101 90 174 90c74 0 101 -39 109 -91c49 49 106 91 179 91c85 0 111 -50 111 -116c0 -18 -2 -38 -5 -58l-61 -363h-71l59 352c3 16 4 36 4 53c0 42 -16 66 -67 66c-62 0 -123 -61 -148 -87l-64 -384h-73l59 350c3 17 4 38 4 54
c0 43 -15 67 -65 67c-63 0 -123 -60 -152 -89l-64 -382h-71z" />
    <glyph glyph-name="n" unicode="n" horiz-adv-x="540" 
d="M110 525h67l-13 -79c49 52 114 91 184 91c96 0 131 -53 131 -134c0 -20 -2 -41 -6 -63l-57 -340h-72l54 325c3 20 5 38 5 67c0 48 -22 80 -78 80c-71 0 -142 -63 -168 -91l-64 -381h-71z" />
    <glyph glyph-name="o" unicode="o" horiz-adv-x="559" 
d="M112 262c-3 -22 -4 -43 -4 -61c0 -107 49 -149 127 -149c91 0 168 67 192 210c4 21 5 41 5 59c0 102 -49 153 -127 153c-92 0 -172 -73 -193 -212zM37 263c30 174 132 274 283 274c122 0 188 -73 188 -204c0 -22 -2 -50 -6 -75c-27 -176 -132 -270 -279 -270
c-125 0 -191 74 -191 202c0 22 1 48 5 73z" />
    <glyph glyph-name="p" unicode="p" horiz-adv-x="566" 
d="M156 376l-40 -239c18 -34 64 -83 135 -83c115 0 189 99 189 265c0 97 -38 151 -110 151c-69 0 -131 -48 -174 -94zM60 -200h-71l121 725h68l-14 -81c55 59 118 93 189 93c111 0 165 -80 165 -205c0 -191 -91 -344 -265 -344c-89 0 -135 49 -149 76z" />
    <glyph glyph-name="q" unicode="q" horiz-adv-x="567" 
d="M338 -200l44 263c-26 -26 -88 -75 -175 -75c-119 0 -172 88 -172 211c0 198 104 338 267 338c76 0 120 -38 150 -87l13 75h66l-121 -725h-72zM395 136l40 241c-17 33 -60 92 -137 92c-104 0 -186 -98 -186 -257c0 -92 28 -158 115 -158c77 0 138 51 168 82z" />
    <glyph glyph-name="r" unicode="r" horiz-adv-x="311" 
d="M175 525l-15 -83c31 53 81 95 132 95c16 0 32 -4 45 -9l-21 -72c-12 5 -25 6 -42 6c-47 0 -94 -52 -119 -93l-62 -369h-71l88 525h65z" />
    <glyph glyph-name="s" unicode="s" horiz-adv-x="464" 
d="M-12 71l44 47c39 -40 94 -70 154 -70c73 0 129 36 129 105c0 46 -28 65 -111 87c-101 27 -141 65 -141 138c0 92 80 159 204 159c77 0 132 -27 172 -78l-44 -44c-37 42 -86 62 -133 62c-79 0 -122 -35 -122 -91c0 -48 37 -67 113 -89c97 -27 140 -62 140 -136
c0 -111 -90 -173 -211 -173c-91 0 -157 37 -194 83z" />
    <glyph glyph-name="t" unicode="t" horiz-adv-x="279" 
d="M270 464h-89l-62 -370c-1 -6 -2 -12 -2 -17c0 -24 13 -31 36 -31c18 0 36 6 53 13l6 -52c-25 -11 -56 -19 -85 -19c-51 0 -82 22 -82 68c0 8 0 17 2 27l64 381h-63l7 46l66 14l35 143h59l-24 -142h89z" />
    <glyph glyph-name="u" unicode="u" horiz-adv-x="533" 
d="M409 0h-66l13 78c-40 -42 -104 -90 -184 -90c-99 0 -131 53 -131 126c0 18 3 39 6 60l59 351h72l-56 -334c-3 -19 -5 -46 -5 -61c0 -55 17 -77 78 -77c65 0 127 47 167 89l64 383h71z" />
    <glyph glyph-name="v" unicode="v" horiz-adv-x="464" 
d="M50 525h72l69 -449l223 449h73l-266 -525h-84z" />
    <glyph glyph-name="w" unicode="w" horiz-adv-x="700" 
d="M641 525h71l-212 -525h-79l-55 419l-189 -419h-80l-37 525h70l23 -437l194 432h71l56 -432z" />
    <glyph glyph-name="x" unicode="x" horiz-adv-x="469" 
d="M-33 0l219 266l-126 259h76l99 -208l166 208h80l-210 -259l130 -266h-75l-103 217l-175 -217h-81z" />
    <glyph glyph-name="y" unicode="y" horiz-adv-x="459" 
d="M403 525h76l-274 -545c-64 -128 -94 -182 -187 -182c-34 0 -58 4 -84 12l18 55c14 -3 38 -8 67 -8c41 0 64 20 106 105l18 38l-93 525h75l68 -433z" />
    <glyph glyph-name="z" unicode="z" horiz-adv-x="424" 
d="M-14 0l8 49l329 414h-257l11 62h353l-7 -38l-341 -427h268l-10 -60h-354z" />
    <glyph glyph-name="braceleft" unicode="{" horiz-adv-x="352" 
d="M390 662h-41c-62 0 -83 -42 -96 -121l-23 -133c-11 -63 -28 -107 -101 -125c50 -8 64 -37 64 -77c0 -19 -3 -40 -7 -63l-16 -95c-3 -19 -5 -36 -5 -50c0 -43 17 -65 70 -65h33l-10 -58h-35c-95 0 -131 27 -131 98c0 16 2 34 5 55l19 118c3 16 4 30 4 42
c0 42 -17 64 -66 64h-28l10 61h26c67 0 89 38 104 127l17 103c20 123 61 177 179 177h37z" />
    <glyph glyph-name="bar" unicode="|" horiz-adv-x="500" 
d="M282 720v-920h-64v920h64z" />
    <glyph glyph-name="braceright" unicode="}" horiz-adv-x="352" 
d="M-26 -67h41c62 0 83 42 96 121l23 133c11 63 28 107 101 125c-50 8 -64 37 -64 77c0 19 3 40 7 63l16 95c3 19 5 36 5 50c0 43 -17 65 -70 65h-33l10 58h35c95 0 131 -27 131 -98c0 -16 -2 -34 -5 -55l-19 -118c-3 -16 -4 -30 -4 -42c0 -42 17 -64 66 -64h28l-10 -61h-26
c-67 0 -89 -38 -104 -127l-17 -103c-20 -123 -61 -177 -179 -177h-37z" />
    <glyph glyph-name="asciitilde" unicode="~" horiz-adv-x="756" 
d="M677 345l29 -50c-74 -58 -142 -89 -208 -89c-99 0 -169 71 -255 71c-62 0 -110 -30 -167 -69l-28 53c73 53 141 86 213 86c94 0 172 -72 245 -72c56 0 105 25 171 70z" />
    <glyph glyph-name="uni00A0" unicode="&#xa0;" horiz-adv-x="203" 
 />
    <glyph glyph-name="exclamdown" unicode="&#xa1;" horiz-adv-x="303" 
d="M184 327l-38 -281l-40 -241h-76l40 241l57 281h57zM236 494c0 -39 -27 -62 -64 -62c-26 0 -46 16 -46 44c0 37 30 61 64 61c28 0 46 -17 46 -43z" />
    <glyph glyph-name="cent" unicode="&#xa2;" horiz-adv-x="510" 
d="M422 201l31 -50c-53 -41 -110 -64 -165 -70l-17 -99h-62l16 100c-103 15 -166 90 -166 215c0 196 111 312 258 326l16 97h61l-16 -100c89 -14 134 -82 124 -186h-68c5 88 -34 125 -103 125c-118 0 -194 -100 -194 -250c0 -93 40 -167 129 -167c61 0 99 20 156 59z" />
    <glyph glyph-name="sterling" unicode="&#xa3;" horiz-adv-x="496" 
d="M220 245c0 -77 -49 -133 -94 -179h284l-11 -66h-406l10 60l48 4c47 46 101 106 101 174c0 28 -7 66 -11 85h-92l9 56h72c-14 47 -26 91 -26 132c0 128 112 209 232 209c76 0 139 -27 175 -85l-48 -43c-29 40 -72 63 -130 63c-92 0 -155 -50 -155 -139
c0 -37 11 -82 26 -137h163l-9 -56h-145c4 -20 7 -54 7 -78z" />
    <glyph glyph-name="currency" unicode="&#xa4;" horiz-adv-x="572" 
d="M431 357c0 70 -47 121 -116 121c-85 0 -165 -72 -165 -163c0 -70 48 -123 117 -123c85 0 164 76 164 165zM86 550l39 36l77 -96c35 25 79 41 122 41s81 -15 108 -40l109 95l28 -36l-109 -97c15 -24 24 -58 24 -91c0 -54 -25 -104 -63 -145l77 -95l-41 -36l-77 96
c-36 -26 -77 -41 -121 -41s-82 16 -109 41c-36 -33 -70 -65 -109 -96l-28 36l109 96c-15 24 -23 59 -23 93c0 54 26 103 63 142z" />
    <glyph glyph-name="yen" unicode="&#xa5;" horiz-adv-x="554" 
d="M58 335l9 55h163l-125 319h77l112 -300l216 300h76l-235 -319h165l-9 -55h-192l-14 -82h192l-9 -56h-192l-33 -197h-67l33 197h-190l9 56h190l14 82h-190z" />
    <glyph glyph-name="brokenbar" unicode="&#xa6;" horiz-adv-x="500" 
d="M282 206v-406h-64v406h64zM282 720v-406h-64v406h64z" />
    <glyph glyph-name="section" unicode="&#xa7;" horiz-adv-x="509" 
d="M39 67l42 41c32 -33 76 -64 135 -64c53 0 114 24 114 87c0 98 -239 58 -239 202c0 60 41 125 138 141c-69 21 -94 62 -94 106c0 79 68 153 191 153c67 0 122 -28 151 -72l-41 -38c-32 31 -65 56 -116 56c-71 0 -115 -30 -115 -85c0 -46 43 -65 99 -84
c90 -30 141 -59 141 -126c0 -85 -70 -128 -132 -140c61 -25 88 -56 88 -102c0 -87 -84 -154 -192 -154c-66 0 -134 27 -170 79zM279 445c-68 0 -122 -40 -122 -97c0 -44 43 -76 107 -76c59 0 112 40 112 96c0 50 -49 77 -97 77z" />
    <glyph glyph-name="dieresis" unicode="&#xa8;" 
d="M286 646c0 28 22 52 55 52c25 0 38 -16 38 -38c0 -28 -23 -51 -53 -51c-26 0 -40 16 -40 37zM103 646c0 28 24 52 54 52c26 0 40 -17 40 -38c0 -29 -25 -51 -54 -51c-26 0 -40 16 -40 37z" />
    <glyph glyph-name="copyright" unicode="&#xa9;" horiz-adv-x="810" 
d="M527 256l25 -29c-36 -38 -81 -62 -142 -62c-112 0 -163 88 -163 197s57 197 168 197c77 0 134 -44 135 -127h-44c-5 49 -28 85 -93 85c-76 0 -117 -62 -117 -153c0 -107 46 -156 119 -156c50 0 83 21 112 48zM411 680c-183 0 -316 -139 -316 -320
c0 -212 147 -319 316 -319c162 0 318 135 318 319c0 189 -136 320 -318 320zM411 720c212 0 360 -146 360 -356s-170 -364 -360 -364c-193 0 -360 121 -360 360c0 208 159 360 360 360z" />
    <glyph glyph-name="ordfeminine" unicode="&#xaa;" horiz-adv-x="469" 
d="M328 263l5 51c-23 -23 -66 -59 -133 -59c-84 0 -130 56 -130 145c0 111 51 254 192 254c51 0 92 -31 117 -66l10 57h55l-65 -382h-51zM339 375l29 157c-14 23 -47 70 -104 70c-92 0 -130 -100 -130 -195c0 -61 22 -103 84 -103c47 0 94 35 121 71z" />
    <glyph glyph-name="guillemotleft" unicode="&#xab;" horiz-adv-x="461" 
d="M313 262l91 -121l-44 -37l-125 145l5 27l172 143l33 -36zM112 262l91 -121l-44 -37l-125 145l5 27l172 143l33 -36z" />
    <glyph glyph-name="logicalnot" unicode="&#xac;" horiz-adv-x="600" 
d="M568 126h-55v205h-481v54h536v-259z" />
    <glyph glyph-name="uni00AD" unicode="&#xad;" horiz-adv-x="325" 
d="M19 240l12 70h259l-12 -70h-259z" />
    <glyph glyph-name="registered" unicode="&#xae;" horiz-adv-x="421" 
d="M188 637h68c45 0 64 -22 64 -53c0 -21 -12 -39 -32 -48l42 -74h-31l-38 67h-45v-67h-28v175zM250 614h-34v-63h32c29 0 43 9 43 33c0 20 -12 30 -41 30zM251 692c-80 0 -141 -61 -141 -144c0 -94 60 -143 141 -143c74 0 142 62 142 143c0 86 -57 144 -142 144zM251 725
c105 0 177 -72 177 -177c0 -100 -83 -176 -177 -176c-101 0 -175 64 -175 176c0 102 77 177 175 177z" />
    <glyph glyph-name="macron" unicode="&#xaf;" 
d="M94 621l10 58h265l-10 -58h-265z" />
    <glyph glyph-name="degree" unicode="&#xb0;" horiz-adv-x="311" 
d="M126 660c0 -45 32 -78 74 -78c43 0 73 34 73 78c0 42 -29 73 -73 73c-43 0 -74 -31 -74 -73zM84 659c0 63 52 114 116 114c63 0 115 -51 115 -114c0 -65 -51 -115 -115 -115c-65 0 -116 49 -116 115z" />
    <glyph glyph-name="plusminus" unicode="&#xb1;" horiz-adv-x="600" 
d="M329 559v-233h232v-57h-232v-213h231v-56h-520v56h230v213h-232v57h232v233h59z" />
    <glyph glyph-name="twosuperior" unicode="&#xb2;" horiz-adv-x="298" 
d="M35 400l7 43l158 143c41 38 62 55 62 94c0 27 -18 41 -49 41c-34 0 -76 -19 -114 -44l-18 39c40 32 96 59 149 59c60 0 97 -30 97 -81c0 -45 -24 -83 -72 -126l-132 -116h169l-9 -52h-248z" />
    <glyph glyph-name="threesuperior" unicode="&#xb3;" horiz-adv-x="310" 
d="M36 443l35 39c27 -24 51 -38 95 -38c57 0 88 26 88 71c0 31 -22 48 -78 48c-8 0 -28 -1 -30 -1l9 52c63 1 106 24 106 73c0 29 -22 37 -54 37s-63 -10 -91 -26l-14 41c33 20 76 36 126 36c59 0 96 -25 96 -75c0 -51 -36 -91 -90 -106c60 -4 81 -37 81 -76
c0 -80 -68 -125 -152 -125c-53 0 -98 16 -127 50z" />
    <glyph glyph-name="acute" unicode="&#xb4;" 
d="M157 625l159 133l40 -52l-167 -122z" />
    <glyph glyph-name="mu" unicode="&#xb5;" horiz-adv-x="571" 
d="M482 0h-67v78c-27 -55 -72 -88 -140 -88c-61 0 -95 21 -123 61v-251h-72v725h72v-325c0 -97 38 -153 125 -153c83 0 127 74 132 128v350h73v-525z" />
    <glyph glyph-name="paragraph" unicode="&#xb6;" horiz-adv-x="525" 
d="M514 720l-120 -720h-64l112 668h-93l-112 -668h-64l61 366c-99 4 -153 61 -153 147c0 121 95 207 228 207h205z" />
    <glyph glyph-name="periodcentered" unicode="&#xb7;" horiz-adv-x="274" 
d="M80 337c0 35 24 55 57 55s57 -20 57 -54c0 -33 -24 -54 -57 -54c-34 0 -57 21 -57 53z" />
    <glyph glyph-name="cedilla" unicode="&#xb8;" 
d="M105 -191l18 41c17 -7 37 -13 60 -13c26 0 51 7 51 41c0 23 -21 28 -60 28h-15l39 102h45l-23 -63c34 -1 71 -14 71 -59c0 -63 -46 -94 -111 -94c-33 0 -64 11 -75 17z" />
    <glyph glyph-name="onesuperior" unicode="&#xb9;" horiz-adv-x="243" 
d="M191 400h-59l48 287c-34 -12 -64 -20 -99 -21l1 43c43 8 95 31 129 61h42z" />
    <glyph glyph-name="ordmasculine" unicode="&#xba;" horiz-adv-x="462" 
d="M141 420c0 -76 39 -110 93 -110c75 0 140 57 140 179c0 77 -38 112 -91 112c-77 0 -142 -60 -142 -181zM80 413c0 149 90 242 212 242c89 0 144 -59 144 -159c0 -149 -94 -241 -211 -241c-92 0 -145 57 -145 158z" />
    <glyph glyph-name="guillemotright" unicode="&#xbb;" horiz-adv-x="463" 
d="M351 261l-91 121l44 37l125 -145l-5 -27l-172 -143l-33 36zM148 261l-91 121l44 37l125 -145l-5 -27l-172 -143l-33 36z" />
    <glyph glyph-name="onequarter" unicode="&#xbc;" horiz-adv-x="811" 
d="M100 -1l544 721h62l-544 -721h-62zM231 350h-59l48 287c-34 -12 -64 -20 -99 -21l1 43c43 8 95 31 129 61h42zM650 314l-156 -189h125zM598 0l12 75h-184l9 48l203 247h80l-41 -245h42l-9 -50h-42l-12 -75h-58z" />
    <glyph glyph-name="onehalf" unicode="&#xbd;" horiz-adv-x="811" 
d="M34 -1l544 721h62l-544 -721h-62zM185 350h-59l48 287c-34 -12 -64 -20 -99 -21l1 43c43 8 95 31 129 61h42zM412 0l7 43l158 143c41 38 62 55 62 94c0 27 -18 41 -49 41c-34 0 -76 -19 -114 -44l-18 39c40 32 96 59 149 59c60 0 97 -30 97 -81c0 -45 -24 -83 -72 -126
l-132 -116h169l-9 -52h-248z" />
    <glyph glyph-name="threequarters" unicode="&#xbe;" horiz-adv-x="811" 
d="M124 -1l544 721h62l-544 -721h-62zM650 314l-156 -189h125zM598 0l12 75h-184l9 48l203 247h80l-41 -245h42l-9 -50h-42l-12 -75h-58zM70 393l35 39c27 -24 51 -38 95 -38c57 0 88 26 88 71c0 31 -22 48 -78 48c-8 0 -28 -1 -30 -1l9 52c63 1 106 24 106 73
c0 29 -22 37 -54 37s-63 -10 -91 -26l-14 41c33 20 76 36 126 36c59 0 96 -25 96 -75c0 -51 -36 -91 -90 -106c60 -4 81 -37 81 -76c0 -80 -68 -125 -152 -125c-53 0 -98 16 -127 50z" />
    <glyph glyph-name="questiondown" unicode="&#xbf;" horiz-adv-x="507" 
d="M317 327l-4 -26c-30 -175 -224 -203 -224 -347c0 -60 36 -96 108 -96c86 0 146 54 162 148h68c-23 -136 -112 -214 -246 -214c-101 0 -168 53 -168 147c0 178 209 215 234 365l4 23h66zM365 494c0 -39 -27 -62 -64 -62c-26 0 -46 16 -46 44c0 37 30 61 64 61
c28 0 46 -17 46 -43z" />
    <glyph glyph-name="Agrave" unicode="&#xc0;" horiz-adv-x="623" 
d="M344 720h78l135 -720h-79l-40 206h-281l-106 -206h-81zM189 273h240l-60 360zM318 898l161 -100l-29 -43l-166 80z" />
    <glyph glyph-name="Aacute" unicode="&#xc1;" horiz-adv-x="623" 
d="M344 720h78l135 -720h-79l-40 206h-281l-106 -206h-81zM189 273h240l-60 360zM298 802l179 100l29 -63l-183 -84z" />
    <glyph glyph-name="Acircumflex" unicode="&#xc2;" horiz-adv-x="623" 
d="M344 720h78l135 -720h-79l-40 206h-281l-106 -206h-81zM189 273h240l-60 360zM391 889h52l75 -99l-35 -31l-77 72l-99 -72l-28 31z" />
    <glyph glyph-name="Atilde" unicode="&#xc3;" horiz-adv-x="623" 
d="M344 720h78l135 -720h-79l-40 206h-281l-106 -206h-81zM189 273h240l-60 360zM496 873l36 -16c-25 -55 -54 -75 -88 -75c-46 0 -89 33 -117 33c-16 0 -25 -7 -46 -36l-37 17c30 55 58 75 90 75c44 0 76 -33 115 -33c19 0 29 7 47 35z" />
    <glyph glyph-name="Adieresis" unicode="&#xc4;" horiz-adv-x="623" 
d="M344 720h78l135 -720h-79l-40 206h-281l-106 -206h-81zM189 273h240l-60 360zM443 815c0 28 23 52 55 52c25 0 38 -16 38 -38c0 -27 -23 -51 -53 -51c-26 0 -40 16 -40 37zM260 815c0 28 24 52 54 52c26 0 40 -17 40 -38c0 -28 -25 -51 -54 -51c-26 0 -40 16 -40 37z" />
    <glyph glyph-name="Aring" unicode="&#xc5;" horiz-adv-x="623" 
d="M304 780c0 60 50 105 107 105c47 0 79 -30 79 -74c0 -45 -28 -80 -67 -95l134 -716h-79l-40 206h-281l-106 -206h-81l372 716c-24 10 -38 34 -38 64zM190 276h239l-61 353zM352 786c0 -23 14 -36 37 -36c33 0 53 24 53 56c0 22 -13 35 -38 35c-32 0 -52 -23 -52 -55z" />
    <glyph glyph-name="AE" unicode="&#xc6;" horiz-adv-x="945" 
d="M409 0l36 217h-241l-151 -217h-87l503 720h496l-11 -69h-361l-42 -248h329l-11 -69h-329l-45 -266h369l-11 -68h-444zM247 284h210l61 369h-17z" />
    <glyph glyph-name="Ccedilla" unicode="&#xc7;" horiz-adv-x="633" 
d="M187 -193l17 41c17 -7 36 -13 59 -13c27 0 53 7 53 41c0 23 -22 28 -60 28h-15l31 85c-152 11 -217 134 -217 289c0 238 134 455 373 455c139 0 223 -79 203 -223h-74c9 80 -25 152 -142 152c-171 0 -277 -161 -277 -375c0 -150 66 -229 177 -229c91 0 155 41 213 90
l35 -51c-70 -64 -151 -103 -245 -108l-17 -46c35 -1 71 -14 71 -59c0 -63 -45 -94 -111 -94c-33 0 -64 11 -74 17z" />
    <glyph glyph-name="Egrave" unicode="&#xc8;" horiz-adv-x="567" 
d="M31 0l120 720h436l-10 -66h-362l-43 -253h330l-10 -65h-330l-45 -270h370l-12 -66h-444zM304 898l161 -100l-29 -43l-166 80z" />
    <glyph glyph-name="Eacute" unicode="&#xc9;" horiz-adv-x="567" 
d="M31 0l120 720h436l-10 -66h-362l-43 -253h330l-10 -65h-330l-45 -270h370l-12 -66h-444zM283 802l179 100l29 -63l-183 -84z" />
    <glyph glyph-name="Ecircumflex" unicode="&#xca;" horiz-adv-x="567" 
d="M31 0l120 720h436l-10 -66h-362l-43 -253h330l-10 -65h-330l-45 -270h370l-12 -66h-444zM379 889h52l75 -99l-35 -31l-77 72l-99 -72l-28 31z" />
    <glyph glyph-name="Edieresis" unicode="&#xcb;" horiz-adv-x="567" 
d="M31 0l120 720h436l-10 -66h-362l-43 -253h330l-10 -65h-330l-45 -270h370l-12 -66h-444zM440 815c0 28 23 52 55 52c25 0 38 -16 38 -38c0 -27 -23 -51 -53 -51c-26 0 -40 16 -40 37zM257 815c0 28 24 52 54 52c26 0 40 -17 40 -38c0 -28 -25 -51 -54 -51
c-26 0 -40 16 -40 37z" />
    <glyph glyph-name="Igrave" unicode="&#xcc;" horiz-adv-x="236" 
d="M31 0l120 720h74l-120 -720h-74zM111 898l161 -100l-29 -43l-166 80z" />
    <glyph glyph-name="Iacute" unicode="&#xcd;" horiz-adv-x="236" 
d="M31 0l120 720h74l-120 -720h-74zM96 802l179 100l29 -63l-183 -84z" />
    <glyph glyph-name="Icircumflex" unicode="&#xce;" horiz-adv-x="236" 
d="M31 0l120 720h74l-120 -720h-74zM195 889h52l75 -99l-35 -31l-77 72l-99 -72l-28 31z" />
    <glyph glyph-name="Idieresis" unicode="&#xcf;" horiz-adv-x="236" 
d="M31 0l120 720h74l-120 -720h-74zM248 815c0 28 23 52 55 52c25 0 38 -16 38 -38c0 -27 -23 -51 -53 -51c-26 0 -40 16 -40 37zM65 815c0 28 24 52 54 52c26 0 40 -17 40 -38c0 -28 -25 -51 -54 -51c-26 0 -40 16 -40 37z" />
    <glyph glyph-name="Eth" unicode="&#xd0;" horiz-adv-x="696" 
d="M175 720h196c195 0 294 -85 294 -264c0 -31 -2 -60 -7 -97c-35 -261 -175 -359 -414 -359h-190l56 335h-77l11 61h76zM366 653h-128l-43 -257h189l-11 -61h-188l-45 -268h128c189 0 282 102 311 292c5 33 8 64 8 92c0 132 -65 202 -221 202z" />
    <glyph glyph-name="Ntilde" unicode="&#xd1;" horiz-adv-x="680" 
d="M31 0l120 720h69l278 -581l97 581h74l-120 -720h-67l-281 582l-97 -582h-73zM535 873l36 -16c-25 -55 -54 -75 -88 -75c-46 0 -89 33 -117 33c-16 0 -25 -7 -46 -36l-37 17c30 55 58 75 90 75c44 0 76 -33 115 -33c19 0 29 7 47 35z" />
    <glyph glyph-name="Ograve" unicode="&#xd2;" horiz-adv-x="738" 
d="M147 368c-6 -34 -9 -65 -9 -93c0 -147 68 -218 191 -218c145 0 248 95 283 311c5 28 7 55 7 79c0 140 -66 215 -188 215c-149 0 -252 -105 -284 -294zM65 368c40 240 182 365 373 365c159 0 263 -94 263 -274c0 -28 -3 -62 -8 -95c-41 -273 -187 -376 -372 -376
c-160 0 -264 86 -264 275c0 32 1 67 8 105zM376 898l161 -100l-29 -43l-166 80z" />
    <glyph glyph-name="Oacute" unicode="&#xd3;" horiz-adv-x="738" 
d="M147 368c-6 -34 -9 -65 -9 -93c0 -147 68 -218 191 -218c145 0 248 95 283 311c5 28 7 55 7 79c0 140 -66 215 -188 215c-149 0 -252 -105 -284 -294zM65 368c40 240 182 365 373 365c159 0 263 -94 263 -274c0 -28 -3 -62 -8 -95c-41 -273 -187 -376 -372 -376
c-160 0 -264 86 -264 275c0 32 1 67 8 105zM346 802l179 100l29 -63l-183 -84z" />
    <glyph glyph-name="Ocircumflex" unicode="&#xd4;" horiz-adv-x="738" 
d="M147 368c-6 -34 -9 -65 -9 -93c0 -147 68 -218 191 -218c145 0 248 95 283 311c5 28 7 55 7 79c0 140 -66 215 -188 215c-149 0 -252 -105 -284 -294zM65 368c40 240 182 365 373 365c159 0 263 -94 263 -274c0 -28 -3 -62 -8 -95c-41 -273 -187 -376 -372 -376
c-160 0 -264 86 -264 275c0 32 1 67 8 105zM456 889h52l75 -99l-35 -31l-77 72l-99 -72l-28 31z" />
    <glyph glyph-name="Otilde" unicode="&#xd5;" horiz-adv-x="738" 
d="M147 368c-6 -34 -9 -65 -9 -93c0 -147 68 -218 191 -218c145 0 248 95 283 311c5 28 7 55 7 79c0 140 -66 215 -188 215c-149 0 -252 -105 -284 -294zM65 368c40 240 182 365 373 365c159 0 263 -94 263 -274c0 -28 -3 -62 -8 -95c-41 -273 -187 -376 -372 -376
c-160 0 -264 86 -264 275c0 32 1 67 8 105zM575 873l36 -16c-25 -55 -54 -75 -88 -75c-46 0 -89 33 -117 33c-16 0 -25 -7 -46 -36l-37 17c30 55 58 75 90 75c44 0 76 -33 115 -33c19 0 29 7 47 35z" />
    <glyph glyph-name="Odieresis" unicode="&#xd6;" horiz-adv-x="738" 
d="M147 368c-6 -34 -9 -65 -9 -93c0 -147 68 -218 191 -218c145 0 248 95 283 311c5 28 7 55 7 79c0 140 -66 215 -188 215c-149 0 -252 -105 -284 -294zM65 368c40 240 182 365 373 365c159 0 263 -94 263 -274c0 -28 -3 -62 -8 -95c-41 -273 -187 -376 -372 -376
c-160 0 -264 86 -264 275c0 32 1 67 8 105zM515 815c0 28 23 52 55 52c25 0 38 -16 38 -38c0 -27 -23 -51 -53 -51c-26 0 -40 16 -40 37zM332 815c0 28 24 52 54 52c26 0 40 -17 40 -38c0 -28 -25 -51 -54 -51c-26 0 -40 16 -40 37z" />
    <glyph glyph-name="multiply" unicode="&#xd7;" horiz-adv-x="600" 
d="M505 454l-165 -163l165 -165l-40 -41l-165 164l-165 -164l-41 43l166 164l-166 164l40 42l165 -164l165 164z" />
    <glyph glyph-name="Oslash" unicode="&#xd8;" horiz-adv-x="738" 
d="M65 368c40 240 182 365 373 365c26 0 51 -3 75 -8l26 57h63l-34 -76c83 -39 133 -123 133 -247c0 -28 -3 -62 -8 -95c-41 -273 -187 -376 -372 -376c-27 0 -52 3 -75 8l-31 -69h-63l39 86c-84 37 -134 119 -134 250c0 32 1 67 8 105zM147 368c-6 -34 -9 -65 -9 -93
c0 -97 29 -160 84 -193l260 575c-16 3 -33 5 -51 5c-149 0 -252 -105 -284 -294zM619 447c0 92 -29 156 -83 189l-260 -574c16 -4 34 -5 53 -5c145 0 248 95 283 311c5 28 7 55 7 79z" />
    <glyph glyph-name="Ugrave" unicode="&#xd9;" horiz-adv-x="669" 
d="M146 720h74l-74 -444c-4 -22 -6 -43 -6 -62c0 -106 59 -159 158 -159c131 0 192 79 216 221l74 444h74l-75 -453c-31 -185 -135 -279 -304 -279c-135 0 -219 65 -219 206c0 22 3 47 7 73zM347 898l161 -100l-29 -43l-166 80z" />
    <glyph glyph-name="Uacute" unicode="&#xda;" horiz-adv-x="669" 
d="M146 720h74l-74 -444c-4 -22 -6 -43 -6 -62c0 -106 59 -159 158 -159c131 0 192 79 216 221l74 444h74l-75 -453c-31 -185 -135 -279 -304 -279c-135 0 -219 65 -219 206c0 22 3 47 7 73zM313 802l179 100l29 -63l-183 -84z" />
    <glyph glyph-name="Ucircumflex" unicode="&#xdb;" horiz-adv-x="669" 
d="M146 720h74l-74 -444c-4 -22 -6 -43 -6 -62c0 -106 59 -159 158 -159c131 0 192 79 216 221l74 444h74l-75 -453c-31 -185 -135 -279 -304 -279c-135 0 -219 65 -219 206c0 22 3 47 7 73zM406 889h52l75 -99l-35 -31l-77 72l-99 -72l-28 31z" />
    <glyph glyph-name="Udieresis" unicode="&#xdc;" horiz-adv-x="669" 
d="M146 720h74l-74 -444c-4 -22 -6 -43 -6 -62c0 -106 59 -159 158 -159c131 0 192 79 216 221l74 444h74l-75 -453c-31 -185 -135 -279 -304 -279c-135 0 -219 65 -219 206c0 22 3 47 7 73zM468 815c0 28 23 52 55 52c25 0 38 -16 38 -38c0 -27 -23 -51 -53 -51
c-26 0 -40 16 -40 37zM285 815c0 28 24 52 54 52c26 0 40 -17 40 -38c0 -28 -25 -51 -54 -51c-26 0 -40 16 -40 37z" />
    <glyph glyph-name="Yacute" unicode="&#xdd;" horiz-adv-x="545" 
d="M181 0l51 305l-155 415h84l122 -338l236 338h83l-295 -415l-51 -305h-75zM251 802l179 100l29 -63l-183 -84z" />
    <glyph glyph-name="Thorn" unicode="&#xde;" horiz-adv-x="577" 
d="M23 0l120 720h74l-19 -119h145c109 0 201 -45 201 -173c0 -173 -115 -261 -285 -261h-134l-28 -167h-74zM327 532h-141l-51 -302h129c139 0 206 70 206 186c0 77 -44 116 -143 116z" />
    <glyph glyph-name="germandbls" unicode="&#xdf;" horiz-adv-x="536" 
d="M35 0l78 464h-59l7 46l61 12l3 17c22 130 116 188 219 188c104 0 156 -51 156 -139c0 -110 -72 -192 -179 -210c101 -14 156 -69 156 -161c0 -137 -90 -229 -218 -229c-36 0 -82 11 -105 32l29 50c15 -9 42 -22 82 -22c75 0 139 54 139 166c0 85 -60 118 -157 131l10 60
c91 10 171 61 171 169c0 60 -33 91 -99 91c-79 0 -120 -49 -135 -140l-88 -525h-71z" />
    <glyph glyph-name="agrave" unicode="&#xe0;" horiz-adv-x="567" 
d="M380 0l8 70c-30 -32 -94 -82 -183 -82c-117 0 -170 87 -170 209c0 199 104 340 264 340c77 0 123 -40 152 -90l13 78h67l-88 -525h-63zM396 142l39 232c-19 33 -63 95 -139 95c-105 0 -184 -99 -184 -263c0 -91 28 -152 119 -152c72 0 132 54 165 88zM305 758l131 -139
l-32 -35l-149 123z" />
    <glyph glyph-name="aacute" unicode="&#xe1;" horiz-adv-x="567" 
d="M380 0l8 70c-30 -32 -94 -82 -183 -82c-117 0 -170 87 -170 209c0 199 104 340 264 340c77 0 123 -40 152 -90l13 78h67l-88 -525h-63zM396 142l39 232c-19 33 -63 95 -139 95c-105 0 -184 -99 -184 -263c0 -91 28 -152 119 -152c72 0 132 54 165 88zM258 625l159 133
l40 -52l-167 -122z" />
    <glyph glyph-name="acircumflex" unicode="&#xe2;" horiz-adv-x="567" 
d="M380 0l8 70c-30 -32 -94 -82 -183 -82c-117 0 -170 87 -170 209c0 199 104 340 264 340c77 0 123 -40 152 -90l13 78h67l-88 -525h-63zM396 142l39 232c-19 33 -63 95 -139 95c-105 0 -184 -99 -184 -263c0 -91 28 -152 119 -152c72 0 132 54 165 88zM336 759h51l79 -148
l-41 -27l-73 113l-111 -112l-33 26z" />
    <glyph glyph-name="atilde" unicode="&#xe3;" horiz-adv-x="567" 
d="M380 0l8 70c-30 -32 -94 -82 -183 -82c-117 0 -170 87 -170 209c0 199 104 340 264 340c77 0 123 -40 152 -90l13 78h67l-88 -525h-63zM396 142l39 232c-19 33 -63 95 -139 95c-105 0 -184 -99 -184 -263c0 -91 28 -152 119 -152c72 0 132 54 165 88zM448 699l36 -16
c-25 -55 -54 -75 -88 -75c-46 0 -89 33 -117 33c-16 0 -25 -7 -46 -36l-37 17c30 55 58 75 90 75c44 0 76 -33 115 -33c19 0 29 7 47 35z" />
    <glyph glyph-name="adieresis" unicode="&#xe4;" horiz-adv-x="567" 
d="M380 0l8 70c-30 -32 -94 -82 -183 -82c-117 0 -170 87 -170 209c0 199 104 340 264 340c77 0 123 -40 152 -90l13 78h67l-88 -525h-63zM396 142l39 232c-19 33 -63 95 -139 95c-105 0 -184 -99 -184 -263c0 -91 28 -152 119 -152c72 0 132 54 165 88zM387 646
c0 28 22 52 55 52c25 0 38 -16 38 -38c0 -28 -23 -51 -53 -51c-26 0 -40 16 -40 37zM204 646c0 28 24 52 54 52c26 0 40 -17 40 -38c0 -29 -25 -51 -54 -51c-26 0 -40 16 -40 37z" />
    <glyph glyph-name="aring" unicode="&#xe5;" horiz-adv-x="567" 
d="M380 0l8 70c-30 -32 -94 -82 -183 -82c-117 0 -170 87 -170 209c0 199 104 340 264 340c77 0 123 -40 152 -90l13 78h67l-88 -525h-63zM396 142l39 232c-19 33 -63 95 -139 95c-105 0 -184 -99 -184 -263c0 -91 28 -152 119 -152c72 0 132 54 165 88zM303 655
c0 -23 14 -36 37 -36c31 0 51 24 51 55c0 21 -13 34 -37 34c-31 0 -51 -22 -51 -53zM254 648c0 60 50 104 108 104c45 0 77 -29 77 -73c0 -61 -49 -103 -107 -103c-47 0 -78 27 -78 72z" />
    <glyph glyph-name="ae" unicode="&#xe6;" horiz-adv-x="868" 
d="M778 109l27 -51c-66 -50 -132 -70 -192 -70c-90 0 -160 47 -182 111c-72 -79 -145 -111 -223 -111c-117 0 -173 83 -173 205c0 199 104 344 264 344c77 0 123 -40 152 -90l13 78h67l-14 -86c34 55 108 98 182 98c103 0 154 -62 154 -136c0 -90 -34 -183 -365 -189
c0 -71 22 -160 133 -160c57 0 100 19 157 57zM397 145l38 229c-19 33 -63 95 -139 95c-105 0 -184 -99 -184 -258c0 -81 27 -156 118 -156c68 0 124 46 167 90zM493 268c254 14 289 59 289 125c0 39 -25 82 -94 82c-129 0 -187 -130 -195 -207z" />
    <glyph glyph-name="ccedilla" unicode="&#xe7;" horiz-adv-x="503" 
d="M105 -191l18 41c17 -7 37 -13 60 -13c26 0 51 7 51 41c0 23 -21 28 -60 28h-15l32 84c-100 12 -158 93 -158 221c0 19 1 37 3 54c19 157 117 252 237 269c13 2 27 3 41 3c119 0 175 -71 160 -191h-68c3 95 -33 126 -105 126c-97 0 -171 -78 -187 -197
c-2 -17 -4 -35 -4 -54c0 -104 40 -169 129 -169c15 0 29 2 42 4c40 7 74 25 121 55l29 -49c-48 -38 -101 -61 -155 -70c-13 -2 -27 -3 -40 -4l-16 -43c34 -1 71 -14 71 -59c0 -47 -26 -76 -66 -88c-13 -4 -29 -6 -45 -6c-33 0 -64 11 -75 17z" />
    <glyph glyph-name="egrave" unicode="&#xe8;" horiz-adv-x="491" 
d="M401 110l31 -50c-66 -50 -136 -72 -205 -72c-119 0 -192 72 -192 212c0 200 119 337 283 337c107 0 158 -62 158 -136c0 -90 -35 -182 -365 -189c0 -80 22 -160 133 -160c57 0 100 20 157 58zM116 270c248 14 289 57 289 123c0 39 -26 82 -100 82
c-130 0 -181 -131 -189 -205zM253 758l131 -139l-32 -35l-149 123z" />
    <glyph glyph-name="eacute" unicode="&#xe9;" horiz-adv-x="491" 
d="M401 110l31 -50c-66 -50 -136 -72 -205 -72c-119 0 -192 72 -192 212c0 200 119 337 283 337c107 0 158 -62 158 -136c0 -90 -35 -182 -365 -189c0 -80 22 -160 133 -160c57 0 100 20 157 58zM116 270c248 14 289 57 289 123c0 39 -26 82 -100 82
c-130 0 -181 -131 -189 -205zM244 625l159 133l40 -52l-167 -122z" />
    <glyph glyph-name="ecircumflex" unicode="&#xea;" horiz-adv-x="491" 
d="M401 110l31 -50c-66 -50 -136 -72 -205 -72c-119 0 -192 72 -192 212c0 200 119 337 283 337c107 0 158 -62 158 -136c0 -90 -35 -182 -365 -189c0 -80 22 -160 133 -160c57 0 100 20 157 58zM116 270c248 14 289 57 289 123c0 39 -26 82 -100 82
c-130 0 -181 -131 -189 -205zM333 755h51l79 -148l-41 -27l-73 113l-111 -112l-33 26z" />
    <glyph glyph-name="edieresis" unicode="&#xeb;" horiz-adv-x="491" 
d="M401 110l31 -50c-66 -50 -136 -72 -205 -72c-119 0 -192 72 -192 212c0 200 119 337 283 337c107 0 158 -62 158 -136c0 -90 -35 -182 -365 -189c0 -80 22 -160 133 -160c57 0 100 20 157 58zM116 270c248 14 289 57 289 123c0 39 -26 82 -100 82
c-130 0 -181 -131 -189 -205zM385 646c0 28 22 52 55 52c25 0 38 -16 38 -38c0 -28 -23 -51 -53 -51c-26 0 -40 16 -40 37zM202 646c0 28 24 52 54 52c26 0 40 -17 40 -38c0 -29 -25 -51 -54 -51c-26 0 -40 16 -40 37z" />
    <glyph glyph-name="igrave" unicode="&#xec;" horiz-adv-x="226" 
d="M94 758l131 -139l-32 -35l-149 123zM186 525l-88 -525h-70l88 525h70z" />
    <glyph glyph-name="iacute" unicode="&#xed;" horiz-adv-x="226" 
d="M97 625l159 133l40 -52l-167 -122zM186 525l-88 -525h-70l88 525h70z" />
    <glyph glyph-name="icircumflex" unicode="&#xee;" horiz-adv-x="226" 
d="M186 525l-88 -525h-70l88 525h70zM166 755h51l79 -148l-41 -27l-73 113l-111 -112l-33 26z" />
    <glyph glyph-name="idieresis" unicode="&#xef;" horiz-adv-x="226" 
d="M220 646c0 28 22 52 55 52c25 0 38 -16 38 -38c0 -28 -23 -51 -53 -51c-26 0 -40 16 -40 37zM37 646c0 28 24 52 54 52c26 0 40 -17 40 -38c0 -29 -25 -51 -54 -51c-26 0 -40 16 -40 37zM186 525l-88 -525h-70l88 525h70z" />
    <glyph glyph-name="eth" unicode="&#xf0;" horiz-adv-x="515" 
d="M265 511l-24 46l81 50c-32 27 -75 47 -127 59l27 56c66 -13 119 -39 160 -77l94 58l24 -47l-83 -51c36 -51 55 -132 55 -222c0 -227 -100 -395 -279 -395c-109 0 -171 68 -171 179c0 142 88 270 233 270c69 0 117 -29 149 -76c5 83 -8 154 -46 207zM204 52
c90 0 163 75 189 241c-25 33 -66 81 -135 81c-83 0 -164 -63 -164 -196c0 -85 47 -126 110 -126z" />
    <glyph glyph-name="ntilde" unicode="&#xf1;" horiz-adv-x="540" 
d="M110 525h67l-13 -79c49 52 114 91 184 91c96 0 131 -53 131 -134c0 -20 -2 -41 -6 -63l-57 -340h-72l54 325c3 20 5 38 5 67c0 48 -22 80 -78 80c-71 0 -142 -63 -168 -91l-64 -381h-71zM428 699l36 -16c-25 -55 -54 -75 -88 -75c-46 0 -89 33 -117 33
c-16 0 -25 -7 -46 -36l-37 17c30 55 58 75 90 75c44 0 76 -33 115 -33c19 0 29 7 47 35z" />
    <glyph glyph-name="ograve" unicode="&#xf2;" horiz-adv-x="559" 
d="M112 262c-3 -22 -4 -43 -4 -61c0 -107 49 -149 127 -149c91 0 168 67 192 210c4 21 5 41 5 59c0 102 -49 153 -127 153c-92 0 -172 -73 -193 -212zM37 263c30 174 132 274 283 274c122 0 188 -73 188 -204c0 -22 -2 -50 -6 -75c-27 -176 -132 -270 -279 -270
c-125 0 -191 74 -191 202c0 22 1 48 5 73zM268 758l131 -139l-32 -35l-149 123z" />
    <glyph glyph-name="oacute" unicode="&#xf3;" horiz-adv-x="559" 
d="M112 262c-3 -22 -4 -43 -4 -61c0 -107 49 -149 127 -149c91 0 168 67 192 210c4 21 5 41 5 59c0 102 -49 153 -127 153c-92 0 -172 -73 -193 -212zM37 263c30 174 132 274 283 274c122 0 188 -73 188 -204c0 -22 -2 -50 -6 -75c-27 -176 -132 -270 -279 -270
c-125 0 -191 74 -191 202c0 22 1 48 5 73zM265 625l159 133l40 -52l-167 -122z" />
    <glyph glyph-name="ocircumflex" unicode="&#xf4;" horiz-adv-x="559" 
d="M112 262c-3 -22 -4 -43 -4 -61c0 -107 49 -149 127 -149c91 0 168 67 192 210c4 21 5 41 5 59c0 102 -49 153 -127 153c-92 0 -172 -73 -193 -212zM37 263c30 174 132 274 283 274c122 0 188 -73 188 -204c0 -22 -2 -50 -6 -75c-27 -176 -132 -270 -279 -270
c-125 0 -191 74 -191 202c0 22 1 48 5 73zM329 755h51l79 -148l-41 -27l-73 113l-111 -112l-33 26z" />
    <glyph glyph-name="otilde" unicode="&#xf5;" horiz-adv-x="559" 
d="M112 262c-3 -22 -4 -43 -4 -61c0 -107 49 -149 127 -149c91 0 168 67 192 210c4 21 5 41 5 59c0 102 -49 153 -127 153c-92 0 -172 -73 -193 -212zM37 263c30 174 132 274 283 274c122 0 188 -73 188 -204c0 -22 -2 -50 -6 -75c-27 -176 -132 -270 -279 -270
c-125 0 -191 74 -191 202c0 22 1 48 5 73zM448 699l36 -16c-25 -55 -54 -75 -88 -75c-46 0 -89 33 -117 33c-16 0 -25 -7 -46 -36l-37 17c30 55 58 75 90 75c44 0 76 -33 115 -33c19 0 29 7 47 35z" />
    <glyph glyph-name="odieresis" unicode="&#xf6;" horiz-adv-x="559" 
d="M112 262c-3 -22 -4 -43 -4 -61c0 -107 49 -149 127 -149c91 0 168 67 192 210c4 21 5 41 5 59c0 102 -49 153 -127 153c-92 0 -172 -73 -193 -212zM37 263c30 174 132 274 283 274c122 0 188 -73 188 -204c0 -22 -2 -50 -6 -75c-27 -176 -132 -270 -279 -270
c-125 0 -191 74 -191 202c0 22 1 48 5 73zM386 646c0 28 22 52 55 52c25 0 38 -16 38 -38c0 -28 -23 -51 -53 -51c-26 0 -40 16 -40 37zM203 646c0 28 24 52 54 52c26 0 40 -17 40 -38c0 -29 -25 -51 -54 -51c-26 0 -40 16 -40 37z" />
    <glyph glyph-name="divide" unicode="&#xf7;" horiz-adv-x="600" 
d="M299 174c25 0 45 -21 45 -47c0 -24 -20 -45 -45 -45c-23 0 -44 22 -44 45c0 25 20 47 44 47zM40 269v57h520v-57h-520zM299 519c25 0 45 -22 45 -47c0 -24 -20 -45 -45 -45c-23 0 -45 22 -45 45c0 25 21 47 45 47z" />
    <glyph glyph-name="oslash" unicode="&#xf8;" horiz-adv-x="559" 
d="M37 263c30 174 132 274 283 274c16 0 30 -1 44 -4l28 60h64l-37 -78c58 -31 89 -93 89 -182c0 -22 -2 -50 -6 -75c-27 -176 -132 -270 -279 -270c-17 0 -32 2 -47 4l-30 -66h-63l39 84c-60 30 -90 92 -90 180c0 22 1 48 5 73zM112 262c-3 -22 -4 -43 -4 -61
c0 -62 16 -102 45 -125l182 395c-9 2 -20 3 -30 3c-92 0 -172 -73 -193 -212zM432 321c0 58 -16 100 -45 125l-182 -392c10 -1 19 -2 30 -2c91 0 168 67 192 210c4 21 5 41 5 59z" />
    <glyph glyph-name="ugrave" unicode="&#xf9;" horiz-adv-x="533" 
d="M409 0h-66l13 78c-40 -42 -104 -90 -184 -90c-99 0 -131 53 -131 126c0 18 3 39 6 60l59 351h72l-56 -334c-3 -19 -5 -46 -5 -61c0 -55 17 -77 78 -77c65 0 127 47 167 89l64 383h71zM257 758l131 -139l-32 -35l-149 123z" />
    <glyph glyph-name="uacute" unicode="&#xfa;" horiz-adv-x="533" 
d="M409 0h-66l13 78c-40 -42 -104 -90 -184 -90c-99 0 -131 53 -131 126c0 18 3 39 6 60l59 351h72l-56 -334c-3 -19 -5 -46 -5 -61c0 -55 17 -77 78 -77c65 0 127 47 167 89l64 383h71zM265 625l159 133l40 -52l-167 -122z" />
    <glyph glyph-name="ucircumflex" unicode="&#xfb;" horiz-adv-x="533" 
d="M409 0h-66l13 78c-40 -42 -104 -90 -184 -90c-99 0 -131 53 -131 126c0 18 3 39 6 60l59 351h72l-56 -334c-3 -19 -5 -46 -5 -61c0 -55 17 -77 78 -77c65 0 127 47 167 89l64 383h71zM315 755h51l79 -148l-41 -27l-73 113l-111 -112l-33 26z" />
    <glyph glyph-name="udieresis" unicode="&#xfc;" horiz-adv-x="533" 
d="M409 0h-66l13 78c-40 -42 -104 -90 -184 -90c-99 0 -131 53 -131 126c0 18 3 39 6 60l59 351h72l-56 -334c-3 -19 -5 -46 -5 -61c0 -55 17 -77 78 -77c65 0 127 47 167 89l64 383h71zM376 646c0 28 22 52 55 52c25 0 38 -16 38 -38c0 -28 -23 -51 -53 -51
c-26 0 -40 16 -40 37zM193 646c0 28 24 52 54 52c26 0 40 -17 40 -38c0 -29 -25 -51 -54 -51c-26 0 -40 16 -40 37z" />
    <glyph glyph-name="yacute" unicode="&#xfd;" horiz-adv-x="459" 
d="M403 525h76l-274 -545c-64 -128 -94 -182 -187 -182c-34 0 -58 4 -84 12l18 55c14 -3 38 -8 67 -8c41 0 64 20 106 105l18 38l-93 525h75l68 -433zM206 625l159 133l40 -52l-167 -122z" />
    <glyph glyph-name="thorn" unicode="&#xfe;" horiz-adv-x="560" 
d="M152 378l-41 -244c19 -35 64 -83 137 -83c117 0 189 105 189 269c0 98 -38 153 -114 153c-69 0 -125 -45 -171 -95zM56 -200h-71l153 920h70l-46 -276c53 56 117 93 190 93c109 0 161 -79 161 -203c0 -191 -87 -346 -264 -346c-89 0 -133 51 -149 78z" />
    <glyph glyph-name="ydieresis" unicode="&#xff;" horiz-adv-x="459" 
d="M403 525h76l-274 -545c-64 -128 -94 -182 -187 -182c-34 0 -58 4 -84 12l18 55c14 -3 38 -8 67 -8c41 0 64 20 106 105l18 38l-93 525h75l68 -433zM338 646c0 28 22 52 55 52c25 0 38 -16 38 -38c0 -28 -23 -51 -53 -51c-26 0 -40 16 -40 37zM155 646c0 28 24 52 54 52
c26 0 40 -17 40 -38c0 -29 -25 -51 -54 -51c-26 0 -40 16 -40 37z" />
    <glyph glyph-name="Amacron" unicode="&#x100;" horiz-adv-x="623" 
d="M344 720h78l135 -720h-79l-40 206h-281l-106 -206h-81zM189 273h240l-60 360zM261 790l10 57h265l-10 -57h-265z" />
    <glyph glyph-name="amacron" unicode="&#x101;" horiz-adv-x="567" 
d="M380 0l8 70c-30 -32 -94 -82 -183 -82c-117 0 -170 87 -170 209c0 199 104 340 264 340c77 0 123 -40 152 -90l13 78h67l-88 -525h-63zM396 142l39 232c-19 33 -63 95 -139 95c-105 0 -184 -99 -184 -263c0 -91 28 -152 119 -152c72 0 132 54 165 88zM210 621l10 58h265
l-10 -58h-265z" />
    <glyph glyph-name="Abreve" unicode="&#x102;" horiz-adv-x="623" 
d="M344 720h78l135 -720h-79l-40 206h-281l-106 -206h-81zM189 273h240l-60 360zM391 821c63 0 89 35 104 85l51 -9c-20 -81 -73 -127 -157 -127c-86 0 -121 39 -124 115l53 10c3 -50 16 -74 73 -74z" />
    <glyph glyph-name="abreve" unicode="&#x103;" horiz-adv-x="567" 
d="M380 0l8 70c-30 -32 -94 -82 -183 -82c-117 0 -170 87 -170 209c0 199 104 340 264 340c77 0 123 -40 152 -90l13 78h67l-88 -525h-63zM396 142l39 232c-19 33 -63 95 -139 95c-105 0 -184 -99 -184 -263c0 -91 28 -152 119 -152c72 0 132 54 165 88zM352 646
c62 0 87 37 102 89l50 -9c-20 -86 -71 -131 -159 -131c-83 0 -119 44 -121 124l53 10c3 -52 15 -83 75 -83z" />
    <glyph glyph-name="Aogonek" unicode="&#x104;" horiz-adv-x="624" 
d="M344 720h78l135 -720c-69 -51 -110 -95 -110 -138c0 -19 11 -27 33 -27c20 0 38 8 57 17l11 -45c-24 -14 -61 -30 -98 -30c-49 0 -73 26 -73 63c0 60 51 115 108 160l-13 26l-34 180h-281l-106 -206h-81zM190 276h239l-61 353z" />
    <glyph glyph-name="aogonek" unicode="&#x105;" horiz-adv-x="567" 
d="M531 525l-88 -525c-64 -51 -105 -95 -105 -138c0 -19 11 -28 33 -28c20 0 37 6 57 15l12 -42c-25 -14 -61 -30 -98 -30c-50 0 -74 26 -74 63c0 61 54 117 112 162l8 68c-23 -24 -64 -58 -121 -74c-19 -5 -40 -8 -62 -8c-117 0 -170 87 -170 209c0 22 1 43 4 64
c18 144 95 247 209 271c16 3 33 5 51 5c77 0 123 -40 152 -90l13 78h67zM396 142l39 232c-19 33 -63 95 -139 95c-88 0 -157 -69 -178 -187c-4 -24 -6 -49 -6 -76c0 -91 28 -152 119 -152c72 0 132 54 165 88z" />
    <glyph glyph-name="Cacute" unicode="&#x106;" horiz-adv-x="633" 
d="M528 148l38 -52c-74 -68 -165 -108 -267 -108c-171 0 -243 127 -243 290c0 238 133 455 372 455c139 0 223 -79 203 -223h-74c9 90 -25 152 -142 152c-171 0 -277 -161 -277 -375c0 -150 66 -229 177 -229c91 0 155 41 213 90zM333 802l179 100l29 -63l-183 -84z" />
    <glyph glyph-name="cacute" unicode="&#x107;" horiz-adv-x="503" 
d="M402 111l29 -49c-65 -51 -139 -74 -211 -74c-118 0 -187 83 -187 223c0 208 127 326 278 326c119 0 178 -71 163 -191h-68c3 95 -31 128 -103 128c-112 0 -193 -104 -193 -253c0 -104 40 -169 129 -169c61 0 100 19 163 59zM265 625l159 133l40 -52l-167 -122z" />
    <glyph glyph-name="Ccircumflex" unicode="&#x108;" horiz-adv-x="633" 
d="M528 148l38 -52c-74 -68 -165 -108 -267 -108c-171 0 -243 127 -243 290c0 238 133 455 372 455c139 0 223 -79 203 -223h-74c9 90 -25 152 -142 152c-171 0 -277 -161 -277 -375c0 -150 66 -229 177 -229c91 0 155 41 213 90zM438 889h52l75 -99l-35 -31l-77 72l-99 -72
l-28 31z" />
    <glyph glyph-name="ccircumflex" unicode="&#x109;" horiz-adv-x="503" 
d="M402 111l29 -49c-65 -51 -139 -74 -211 -74c-118 0 -187 83 -187 223c0 208 127 326 278 326c119 0 178 -71 163 -191h-68c3 95 -31 128 -103 128c-112 0 -193 -104 -193 -253c0 -104 40 -169 129 -169c61 0 100 19 163 59zM329 755h51l79 -148l-41 -27l-73 113
l-111 -112l-33 26z" />
    <glyph glyph-name="Cdotaccent" unicode="&#x10a;" horiz-adv-x="633" 
d="M528 148l38 -52c-74 -68 -165 -108 -267 -108c-171 0 -243 127 -243 290c0 238 133 455 372 455c139 0 223 -79 203 -223h-74c9 90 -25 152 -142 152c-171 0 -277 -161 -277 -375c0 -150 66 -229 177 -229c91 0 155 41 213 90zM387 814c0 32 26 52 57 52
c25 0 41 -14 41 -38c0 -31 -25 -52 -56 -52c-25 0 -42 15 -42 38z" />
    <glyph glyph-name="cdotaccent" unicode="&#x10b;" horiz-adv-x="503" 
d="M402 111l29 -49c-65 -51 -139 -74 -211 -74c-118 0 -187 83 -187 223c0 208 127 326 278 326c119 0 178 -71 163 -191h-68c3 95 -31 128 -103 128c-112 0 -193 -104 -193 -253c0 -104 40 -169 129 -169c61 0 100 19 163 59zM285 661c0 31 26 52 57 52c25 0 41 -15 41 -39
c0 -30 -25 -51 -56 -51c-25 0 -42 15 -42 38z" />
    <glyph glyph-name="Ccaron" unicode="&#x10c;" horiz-adv-x="633" 
d="M528 148l38 -52c-74 -68 -165 -108 -267 -108c-171 0 -243 127 -243 290c0 238 133 455 372 455c139 0 223 -79 203 -223h-74c9 90 -25 152 -142 152c-171 0 -277 -161 -277 -375c0 -150 66 -229 177 -229c91 0 155 41 213 90zM458 766h-53l-77 99l38 32l75 -73l101 72
l24 -31z" />
    <glyph glyph-name="ccaron" unicode="&#x10d;" horiz-adv-x="503" 
d="M402 111l29 -49c-65 -51 -139 -74 -211 -74c-118 0 -187 83 -187 223c0 208 127 326 278 326c119 0 178 -71 163 -191h-68c3 95 -31 128 -103 128c-112 0 -193 -104 -193 -253c0 -104 40 -169 129 -169c61 0 100 19 163 59zM351 586h-51l-79 148l43 26l72 -112l112 114
l32 -28z" />
    <glyph glyph-name="Dcaron" unicode="&#x10e;" horiz-adv-x="675" 
d="M342 653h-128l-98 -586h128c189 0 282 102 311 292c5 33 8 64 8 92c0 132 -65 202 -221 202zM151 720h196c195 0 294 -85 294 -264c0 -31 -2 -60 -7 -97c-35 -261 -175 -359 -414 -359h-190zM386 766h-53l-77 99l38 32l75 -73l101 72l24 -31z" />
    <glyph glyph-name="dcaron" unicode="&#x10f;" horiz-adv-x="609" 
d="M380 0l8 73c-30 -32 -94 -85 -183 -85c-117 0 -170 88 -170 210c0 199 104 339 264 339c77 0 120 -38 149 -84l44 267h71l-120 -720h-63zM396 142l39 232c-19 33 -63 95 -139 95c-105 0 -184 -99 -184 -258c0 -96 30 -157 121 -157c72 0 130 54 163 88zM603 535l63 185
h73l-80 -185h-56z" />
    <glyph glyph-name="Dcroat" unicode="&#x110;" horiz-adv-x="696" 
d="M175 720h196c195 0 294 -85 294 -264c0 -31 -2 -60 -7 -97c-35 -261 -175 -359 -414 -359h-190l56 335h-77l11 61h76zM366 653h-128l-43 -257h189l-11 -61h-188l-45 -268h128c189 0 282 102 311 292c5 33 8 64 8 92c0 132 -65 202 -221 202z" />
    <glyph glyph-name="dcroat" unicode="&#x111;" horiz-adv-x="570" 
d="M303 585l9 56h168l13 79h71l-13 -79h64l-9 -56h-64l-98 -585h-65l10 71c-30 -32 -95 -83 -183 -83c-117 0 -172 75 -172 197c0 190 102 322 258 322c78 0 125 -44 152 -85l27 163h-168zM395 137l35 210c-18 34 -63 92 -138 92c-102 0 -181 -86 -181 -238
c0 -79 32 -146 121 -146c76 0 133 51 163 82z" />
    <glyph glyph-name="Emacron" unicode="&#x112;" horiz-adv-x="567" 
d="M31 0l120 720h436l-10 -66h-362l-43 -253h330l-10 -65h-330l-45 -270h370l-12 -66h-444zM252 790l10 57h265l-10 -57h-265z" />
    <glyph glyph-name="emacron" unicode="&#x113;" horiz-adv-x="491" 
d="M401 110l31 -50c-66 -50 -136 -72 -205 -72c-119 0 -192 72 -192 212c0 200 119 337 283 337c107 0 158 -62 158 -136c0 -90 -35 -182 -365 -189c0 -80 22 -160 133 -160c57 0 100 20 157 58zM116 270c248 14 289 57 289 123c0 39 -26 82 -100 82
c-130 0 -181 -131 -189 -205zM200 621l10 58h265l-10 -58h-265z" />
    <glyph glyph-name="Ebreve" unicode="&#x114;" horiz-adv-x="567" 
d="M31 0l120 720h436l-10 -66h-362l-43 -253h330l-10 -65h-330l-45 -270h370l-12 -66h-444zM384 821c63 0 89 35 104 85l51 -9c-20 -81 -73 -127 -157 -127c-86 0 -121 39 -124 115l53 10c3 -50 16 -74 73 -74z" />
    <glyph glyph-name="ebreve" unicode="&#x115;" horiz-adv-x="491" 
d="M401 110l31 -50c-66 -50 -136 -72 -205 -72c-119 0 -192 72 -192 212c0 200 119 337 283 337c107 0 158 -62 158 -136c0 -90 -35 -182 -365 -189c0 -80 22 -160 133 -160c57 0 100 20 157 58zM116 270c248 14 289 57 289 123c0 39 -26 82 -100 82
c-130 0 -181 -131 -189 -205zM329 646c62 0 87 37 102 89l50 -9c-20 -86 -71 -131 -159 -131c-83 0 -119 44 -121 124l53 10c3 -52 15 -83 75 -83z" />
    <glyph glyph-name="Edotaccent" unicode="&#x116;" horiz-adv-x="567" 
d="M31 0l120 720h436l-10 -66h-362l-43 -253h330l-10 -65h-330l-45 -270h370l-12 -66h-444zM342 814c0 32 26 52 57 52c25 0 41 -14 41 -38c0 -31 -25 -52 -56 -52c-25 0 -42 15 -42 38z" />
    <glyph glyph-name="edotaccent" unicode="&#x117;" horiz-adv-x="491" 
d="M401 110l31 -50c-66 -50 -136 -72 -205 -72c-119 0 -192 72 -192 212c0 200 119 337 283 337c107 0 158 -62 158 -136c0 -90 -35 -182 -365 -189c0 -80 22 -160 133 -160c57 0 100 20 157 58zM116 270c248 14 289 57 289 123c0 39 -26 82 -100 82
c-130 0 -181 -131 -189 -205zM284 661c0 31 26 52 57 52c25 0 41 -15 41 -39c0 -30 -25 -51 -56 -51c-25 0 -42 15 -42 38z" />
    <glyph glyph-name="Eogonek" unicode="&#x118;" horiz-adv-x="567" 
d="M31 0l120 720h436l-11 -69h-361l-42 -248h329l-11 -69h-329l-45 -266h369l-11 -68h-27c-63 -51 -104 -95 -104 -138c0 -19 11 -28 33 -28c21 0 37 6 57 15l11 -42c-23 -14 -60 -30 -97 -30c-50 0 -74 26 -74 63c0 60 51 115 109 160h-352z" />
    <glyph glyph-name="eogonek" unicode="&#x119;" horiz-adv-x="491" 
d="M401 110l31 -50c-26 -20 -56 -37 -81 -52c-73 -45 -124 -103 -124 -146c0 -19 11 -28 33 -28c20 0 37 6 57 15l12 -42c-25 -14 -61 -30 -98 -30c-50 0 -74 26 -74 63c0 56 44 106 95 149c-8 0 -17 -1 -25 -1c-119 0 -192 72 -192 212c0 200 119 337 283 337
c107 0 158 -62 158 -136c0 -90 -35 -182 -365 -189c0 -80 22 -160 133 -160c57 0 100 20 157 58zM116 270c248 14 289 57 289 123c0 39 -26 82 -100 82c-130 0 -181 -131 -189 -205z" />
    <glyph glyph-name="Ecaron" unicode="&#x11a;" horiz-adv-x="567" 
d="M31 0l120 720h436l-10 -66h-362l-43 -253h330l-10 -65h-330l-45 -270h370l-12 -66h-444zM399 766h-53l-77 99l38 32l75 -73l101 72l24 -31z" />
    <glyph glyph-name="ecaron" unicode="&#x11b;" horiz-adv-x="491" 
d="M401 110l31 -50c-66 -50 -136 -72 -205 -72c-119 0 -192 72 -192 212c0 200 119 337 283 337c107 0 158 -62 158 -136c0 -90 -35 -182 -365 -189c0 -80 22 -160 133 -160c57 0 100 20 157 58zM116 270c248 14 289 57 289 123c0 39 -26 82 -100 82
c-130 0 -181 -131 -189 -205zM346 586h-51l-79 148l43 26l72 -112l112 114l32 -28z" />
    <glyph glyph-name="Gcircumflex" unicode="&#x11c;" horiz-adv-x="693" 
d="M402 302l11 66h228l-45 -270c-95 -95 -203 -110 -275 -110c-189 0 -264 123 -264 289c0 261 148 456 388 456c189 0 233 -105 218 -214h-77c10 87 -28 145 -156 145c-187 0 -291 -176 -291 -375c0 -147 66 -233 194 -233c77 0 145 28 203 80l28 166h-162zM439 889h52
l75 -99l-35 -31l-77 72l-99 -72l-28 31z" />
    <glyph glyph-name="gcircumflex" unicode="&#x11d;" horiz-adv-x="567" 
d="M531 525l-87 -518c-29 -172 -106 -217 -243 -217c-75 0 -136 16 -176 34l24 61c39 -15 91 -31 152 -31c121 0 159 52 177 167l8 51c-43 -45 -106 -81 -182 -81c-118 0 -169 90 -169 208c0 174 87 338 267 338c81 0 128 -52 150 -89l13 77h66zM395 138l40 237
c-16 35 -64 94 -138 94c-117 0 -185 -112 -185 -260c0 -99 36 -153 119 -153c74 0 131 51 164 82zM326 755h51l79 -148l-41 -27l-73 113l-111 -112l-33 26z" />
    <glyph glyph-name="Gbreve" unicode="&#x11e;" horiz-adv-x="693" 
d="M402 302l11 66h228l-45 -270c-95 -95 -203 -110 -275 -110c-189 0 -264 123 -264 289c0 261 148 456 388 456c189 0 233 -105 218 -214h-77c10 87 -28 145 -156 145c-187 0 -291 -176 -291 -375c0 -147 66 -233 194 -233c77 0 145 28 203 80l28 166h-162zM447 821
c63 0 89 35 104 85l51 -9c-20 -81 -73 -127 -157 -127c-86 0 -121 39 -124 115l53 10c3 -50 16 -74 73 -74z" />
    <glyph glyph-name="gbreve" unicode="&#x11f;" horiz-adv-x="567" 
d="M531 525l-87 -518c-29 -172 -106 -217 -243 -217c-75 0 -136 16 -176 34l24 61c39 -15 91 -31 152 -31c121 0 159 52 177 167l8 51c-43 -45 -106 -81 -182 -81c-118 0 -169 90 -169 208c0 174 87 338 267 338c81 0 128 -52 150 -89l13 77h66zM395 138l40 237
c-16 35 -64 94 -138 94c-117 0 -185 -112 -185 -260c0 -99 36 -153 119 -153c74 0 131 51 164 82zM335 646c62 0 87 37 102 89l50 -9c-20 -86 -71 -131 -159 -131c-83 0 -119 44 -121 124l53 10c3 -52 15 -83 75 -83z" />
    <glyph glyph-name="Gdotaccent" unicode="&#x120;" horiz-adv-x="693" 
d="M402 302l11 66h228l-45 -270c-95 -95 -203 -110 -275 -110c-189 0 -264 123 -264 289c0 261 148 456 388 456c189 0 233 -105 218 -214h-77c10 87 -28 145 -156 145c-187 0 -291 -176 -291 -375c0 -147 66 -233 194 -233c77 0 145 28 203 80l28 166h-162zM410 814
c0 32 26 52 57 52c25 0 41 -14 41 -38c0 -31 -25 -52 -56 -52c-25 0 -42 15 -42 38z" />
    <glyph glyph-name="gdotaccent" unicode="&#x121;" horiz-adv-x="567" 
d="M531 525l-87 -518c-29 -172 -106 -217 -243 -217c-75 0 -136 16 -176 34l24 61c39 -15 91 -31 152 -31c121 0 159 52 177 167l8 51c-43 -45 -106 -81 -182 -81c-118 0 -169 90 -169 208c0 174 87 338 267 338c81 0 128 -52 150 -89l13 77h66zM395 138l40 237
c-16 35 -64 94 -138 94c-117 0 -185 -112 -185 -260c0 -99 36 -153 119 -153c74 0 131 51 164 82zM297 661c0 31 26 52 57 52c25 0 41 -15 41 -39c0 -30 -25 -51 -56 -51c-25 0 -42 15 -42 38z" />
    <glyph glyph-name="Gcommaaccent" unicode="&#x122;" horiz-adv-x="693" 
d="M402 302l11 66h228l-45 -270c-95 -95 -203 -110 -275 -110c-189 0 -264 123 -264 289c0 261 148 456 388 456c189 0 233 -105 218 -214h-77c10 87 -28 145 -156 145c-187 0 -291 -176 -291 -375c0 -147 66 -233 194 -233c77 0 145 28 203 80l28 166h-162zM250 -220
l67 160l64 -16l-81 -159z" />
    <glyph glyph-name="gcommaaccent" unicode="&#x123;" horiz-adv-x="567" 
d="M531 525l-87 -518c-29 -172 -106 -217 -243 -217c-75 0 -136 16 -176 34l24 61c39 -15 91 -31 152 -31c121 0 159 52 177 167l8 51c-43 -45 -106 -81 -182 -81c-118 0 -169 90 -169 208c0 174 87 338 267 338c81 0 128 -52 150 -89l13 77h66zM395 138l40 237
c-16 35 -64 94 -138 94c-117 0 -185 -112 -185 -260c0 -99 36 -153 119 -153c74 0 131 51 164 82zM419 751l-69 -164l-65 19l83 159z" />
    <glyph glyph-name="Hcircumflex" unicode="&#x124;" horiz-adv-x="676" 
d="M31 0l120 720h74l-52 -311h365l52 311h75l-120 -720h-75l57 340h-365l-57 -340h-74zM418 889h52l75 -99l-35 -31l-77 72l-99 -72l-28 31z" />
    <glyph glyph-name="hcircumflex" unicode="&#x125;" horiz-adv-x="541" 
d="M143 720h71l-44 -270c49 49 112 87 182 87c89 0 128 -49 128 -134c0 -19 -2 -40 -6 -62l-57 -341h-72l54 325c3 20 6 40 6 70c0 36 -13 77 -78 77c-67 0 -135 -59 -169 -91l-64 -381h-71zM174 865h52l75 -99l-35 -31l-77 72l-99 -72l-28 31z" />
    <glyph glyph-name="Hbar" unicode="&#x126;" horiz-adv-x="698" 
d="M71 545l10 58h62l19 117h75l-19 -117h365l19 117h74l-19 -117h60l-10 -58h-60l-91 -545h-74l57 340h-365l-57 -340h-75l91 545h-62zM186 411h365l22 134h-365z" />
    <glyph glyph-name="hbar" unicode="&#x127;" horiz-adv-x="540" 
d="M142 720h71l-13 -80h165l-9 -54h-165l-30 -180c48 50 113 91 183 91c109 0 143 -75 122 -197l-50 -300h-72l48 285c12 73 13 147 -79 147c-65 0 -124 -50 -163 -90l-57 -342h-71l98 586h-66l9 54h66z" />
    <glyph glyph-name="Itilde" unicode="&#x128;" horiz-adv-x="236" 
d="M31 0l120 720h74l-120 -720h-74zM309 873l36 -16c-25 -55 -54 -75 -88 -75c-46 0 -89 33 -117 33c-16 0 -25 -7 -46 -36l-37 17c30 55 58 75 90 75c44 0 76 -33 115 -33c19 0 29 7 47 35z" />
    <glyph glyph-name="itilde" unicode="&#x129;" horiz-adv-x="226" 
d="M275 699l36 -16c-25 -55 -54 -75 -88 -75c-46 0 -89 33 -117 33c-16 0 -25 -7 -46 -36l-37 17c30 55 58 75 90 75c44 0 76 -33 115 -33c19 0 29 7 47 35zM186 525l-88 -525h-70l88 525h70z" />
    <glyph glyph-name="Imacron" unicode="&#x12a;" horiz-adv-x="236" 
d="M31 0l120 720h74l-120 -720h-74zM60 790l10 57h265l-10 -57h-265z" />
    <glyph glyph-name="imacron" unicode="&#x12b;" horiz-adv-x="226" 
d="M33 621l10 58h265l-10 -58h-265zM186 525l-88 -525h-70l88 525h70z" />
    <glyph glyph-name="Ibreve" unicode="&#x12c;" horiz-adv-x="236" 
d="M31 0l120 720h74l-120 -720h-74zM204 821c63 0 89 35 104 85l51 -9c-20 -81 -73 -127 -157 -127c-86 0 -121 39 -124 115l53 10c3 -50 16 -74 73 -74z" />
    <glyph glyph-name="ibreve" unicode="&#x12d;" horiz-adv-x="226" 
d="M172 646c62 0 87 37 102 89l50 -9c-20 -86 -71 -131 -159 -131c-83 0 -119 44 -121 124l53 10c3 -52 15 -83 75 -83zM186 525l-88 -525h-70l88 525h70z" />
    <glyph glyph-name="Iogonek" unicode="&#x12e;" horiz-adv-x="236" 
d="M31 0l120 720h74l-120 -720c-61 -51 -103 -95 -103 -138c0 -19 10 -28 33 -28c20 0 36 6 57 15l11 -42c-24 -14 -61 -30 -98 -30c-49 0 -73 26 -73 63c0 60 51 115 99 160z" />
    <glyph glyph-name="iogonek" unicode="&#x12f;" horiz-adv-x="227" 
d="M186 525l-88 -525c-63 -51 -104 -95 -104 -138c0 -19 11 -28 33 -28c20 0 37 6 57 15l12 -42c-25 -14 -62 -30 -99 -30c-49 0 -73 26 -73 63c0 60 52 114 104 160l88 525h70zM126 661c0 31 26 52 56 52c26 0 42 -15 42 -39c0 -30 -24 -51 -57 -51c-24 0 -41 15 -41 38z
" />
    <glyph glyph-name="Idotaccent" unicode="&#x130;" horiz-adv-x="236" 
d="M31 0l120 720h74l-120 -720h-74zM158 814c0 32 26 52 57 52c25 0 41 -14 41 -38c0 -31 -25 -52 -56 -52c-25 0 -42 15 -42 38z" />
    <glyph glyph-name="dotlessi" unicode="&#x131;" horiz-adv-x="226" 
d="M186 525l-88 -525h-70l88 525h70z" />
    <glyph glyph-name="IJ" unicode="&#x132;" horiz-adv-x="617" 
d="M31 0l120 720h74l-120 -720h-74zM611 720l-93 -561c-20 -117 -78 -171 -181 -171c-42 0 -97 8 -131 27l28 63c31 -15 62 -23 102 -23c64 0 94 27 109 120l91 545h75z" />
    <glyph glyph-name="ij" unicode="&#x133;" horiz-adv-x="430" 
d="M126 661c0 31 26 52 56 52c26 0 42 -15 42 -39c0 -30 -24 -51 -57 -51c-24 0 -41 15 -41 38zM186 525l-88 -525h-70l88 525h70zM390 525l-100 -598c-14 -81 -46 -130 -130 -130c-24 0 -47 2 -66 10l17 56c10 -4 27 -6 43 -6c34 0 56 13 66 74l100 594h70zM330 660
c0 32 26 54 57 54c25 0 41 -15 41 -39c0 -32 -25 -53 -56 -53c-25 0 -42 15 -42 38z" />
    <glyph glyph-name="Jcircumflex" unicode="&#x134;" horiz-adv-x="380" 
d="M374 720l-93 -561c-20 -117 -78 -171 -181 -171c-42 0 -97 8 -131 27l28 63c31 -15 62 -23 102 -23c64 0 94 27 109 120l91 545h75zM342 889h52l75 -99l-35 -31l-77 72l-99 -72l-28 31z" />
    <glyph glyph-name="jcircumflex" unicode="&#x135;" horiz-adv-x="226" 
d="M186 525l-100 -598c-14 -81 -46 -130 -130 -130c-24 0 -47 2 -66 10l17 56c10 -4 27 -6 43 -6c34 0 56 13 66 74l100 594h70zM164 755h51l79 -148l-41 -27l-73 113l-111 -112l-33 26z" />
    <glyph glyph-name="Kcommaaccent" unicode="&#x136;" horiz-adv-x="605" 
d="M31 0l120 720h74l-52 -317h136l232 317h84l-255 -350l170 -370h-86l-155 340h-136l-58 -340h-74zM155 -220l67 160l64 -16l-81 -159z" />
    <glyph glyph-name="kcommaaccent" unicode="&#x137;" 
d="M213 720l-65 -397h58l196 202h88l-229 -236l165 -289h-85l-146 260h-58l-44 -260h-71l120 720h71zM112 -220l67 160l64 -16l-81 -159z" />
    <glyph glyph-name="kgreenlandic" unicode="&#x138;" horiz-adv-x="488" 
d="M172 525l-35 -207h57l207 207h81l-233 -235l170 -290h-80l-157 259h-55l-43 -259h-71l88 525h71z" />
    <glyph glyph-name="Lacute" unicode="&#x139;" horiz-adv-x="508" 
d="M151 720h74l-108 -653h326l-12 -67h-400zM111 802l179 100l29 -63l-183 -84z" />
    <glyph glyph-name="lacute" unicode="&#x13a;" horiz-adv-x="217" 
d="M94 0h-71l120 720h71zM70 802l179 100l29 -63l-183 -84z" />
    <glyph glyph-name="Lcommaaccent" unicode="&#x13b;" horiz-adv-x="508" 
d="M151 720h74l-108 -653h326l-12 -67h-400zM135 -220l67 160l64 -16l-81 -159z" />
    <glyph glyph-name="lcommaaccent" unicode="&#x13c;" horiz-adv-x="217" 
d="M94 0h-71l120 720h71zM-55 -220l67 160l64 -16l-81 -159z" />
    <glyph glyph-name="Lcaron" unicode="&#x13d;" horiz-adv-x="508" 
d="M151 720h74l-108 -653h326l-12 -67h-400zM312 535l63 185h73l-80 -185h-56z" />
    <glyph glyph-name="lcaron" unicode="&#x13e;" horiz-adv-x="254" 
d="M94 0h-71l120 720h71zM248 535l63 185h73l-80 -185h-56z" />
    <glyph glyph-name="Ldot" unicode="&#x13f;" horiz-adv-x="509" 
d="M151 720h74l-108 -651h326l-12 -69h-400zM332 364c0 38 30 58 62 58c27 0 47 -14 47 -42c0 -35 -30 -58 -64 -58c-26 0 -45 15 -45 42z" />
    <glyph glyph-name="ldot" unicode="&#x140;" horiz-adv-x="312" 
d="M94 0h-71l120 720h71zM216 348c0 38 31 58 62 58c27 0 46 -14 46 -42c0 -36 -28 -58 -63 -58c-26 0 -45 15 -45 42z" />
    <glyph glyph-name="Lslash" unicode="&#x141;" horiz-adv-x="508" 
d="M151 720h74l-55 -332l223 83l-10 -60l-223 -83l-43 -259h326l-12 -69h-400l51 303l-90 -35l10 60l90 34z" />
    <glyph glyph-name="lslash" unicode="&#x142;" horiz-adv-x="250" 
d="M12 293l10 59l77 33l56 335h71l-51 -309l85 37l-10 -58l-85 -38l-59 -352h-71l55 326z" />
    <glyph glyph-name="Nacute" unicode="&#x143;" horiz-adv-x="680" 
d="M31 0l120 720h69l278 -581l97 581h74l-120 -720h-67l-281 582l-97 -582h-73zM333 802l179 100l29 -63l-183 -84z" />
    <glyph glyph-name="nacute" unicode="&#x144;" horiz-adv-x="540" 
d="M110 525h67l-13 -79c49 52 114 91 184 91c96 0 131 -53 131 -134c0 -20 -2 -41 -6 -63l-57 -340h-72l54 325c3 20 5 38 5 67c0 48 -22 80 -78 80c-71 0 -142 -63 -168 -91l-64 -381h-71zM263 625l159 133l40 -52l-167 -122z" />
    <glyph glyph-name="Ncommaaccent" unicode="&#x145;" horiz-adv-x="680" 
d="M31 0l120 720h69l278 -581l97 581h74l-120 -720h-67l-281 582l-97 -582h-73zM210 -220l67 160l64 -16l-81 -159z" />
    <glyph glyph-name="ncommaaccent" unicode="&#x146;" horiz-adv-x="540" 
d="M110 525h67l-13 -79c49 52 114 91 184 91c96 0 131 -53 131 -134c0 -20 -2 -41 -6 -63l-57 -340h-72l54 325c3 20 5 38 5 67c0 48 -22 80 -78 80c-71 0 -142 -63 -168 -91l-64 -381h-71zM129 -220l67 160l64 -16l-81 -159z" />
    <glyph glyph-name="Ncaron" unicode="&#x147;" horiz-adv-x="680" 
d="M31 0l120 720h69l278 -581l97 581h74l-120 -720h-67l-281 582l-97 -582h-73zM447 766h-53l-77 99l38 32l75 -73l101 72l24 -31z" />
    <glyph glyph-name="ncaron" unicode="&#x148;" horiz-adv-x="540" 
d="M110 525h67l-13 -79c49 52 114 91 184 91c96 0 131 -53 131 -134c0 -20 -2 -41 -6 -63l-57 -340h-72l54 325c3 20 5 38 5 67c0 48 -22 80 -78 80c-71 0 -142 -63 -168 -91l-64 -381h-71zM340 586h-51l-79 148l43 26l72 -112l112 114l32 -28z" />
    <glyph glyph-name="napostrophe" unicode="&#x149;" horiz-adv-x="556" 
d="M126 525h67l-13 -79c49 52 114 91 184 91c96 0 131 -53 131 -134c0 -20 -2 -41 -6 -63l-57 -340h-72l54 325c3 20 5 38 5 67c0 48 -22 80 -78 80c-71 0 -142 -63 -168 -91l-64 -381h-71zM51 639c0 30 22 52 56 52c30 0 41 -23 41 -49c0 -41 -15 -96 -100 -136l-9 25
c41 23 59 46 65 79c-7 -3 -15 -5 -22 -5c-19 0 -31 14 -31 34z" />
    <glyph glyph-name="Eng" unicode="&#x14a;" horiz-adv-x="680" 
d="M31 0l120 720h69l278 -581l97 581h74l-129 -776c-14 -81 -58 -147 -164 -147c-38 0 -88 9 -106 17l20 58c10 -4 47 -14 83 -14c52 0 84 27 94 90l10 60l-276 574l-97 -582h-73z" />
    <glyph glyph-name="eng" unicode="&#x14b;" horiz-adv-x="539" 
d="M110 525h63l-9 -79c49 52 114 91 182 91c121 0 145 -83 126 -198l-69 -411c-13 -80 -46 -131 -131 -131c-23 0 -47 2 -66 10l17 55c10 -4 27 -7 43 -7c34 0 55 14 65 74l67 399c16 98 -6 145 -81 145c-70 0 -130 -60 -160 -91l-64 -382h-71z" />
    <glyph glyph-name="Omacron" unicode="&#x14c;" horiz-adv-x="738" 
d="M147 368c-6 -34 -9 -65 -9 -93c0 -147 68 -218 191 -218c145 0 248 95 283 311c5 28 7 55 7 79c0 140 -66 215 -188 215c-149 0 -252 -105 -284 -294zM65 368c40 240 182 365 373 365c159 0 263 -94 263 -274c0 -28 -3 -62 -8 -95c-41 -273 -187 -376 -372 -376
c-160 0 -264 86 -264 275c0 32 1 67 8 105zM319 790l10 57h265l-10 -57h-265z" />
    <glyph glyph-name="omacron" unicode="&#x14d;" horiz-adv-x="559" 
d="M112 262c-3 -22 -4 -43 -4 -61c0 -107 49 -149 127 -149c91 0 168 67 192 210c4 21 5 41 5 59c0 102 -49 153 -127 153c-92 0 -172 -73 -193 -212zM37 263c30 174 132 274 283 274c122 0 188 -73 188 -204c0 -22 -2 -50 -6 -75c-27 -176 -132 -270 -279 -270
c-125 0 -191 74 -191 202c0 22 1 48 5 73zM194 621l10 58h265l-10 -58h-265z" />
    <glyph glyph-name="Obreve" unicode="&#x14e;" horiz-adv-x="738" 
d="M147 368c-6 -34 -9 -65 -9 -93c0 -147 68 -218 191 -218c145 0 248 95 283 311c5 28 7 55 7 79c0 140 -66 215 -188 215c-149 0 -252 -105 -284 -294zM65 368c40 240 182 365 373 365c159 0 263 -94 263 -274c0 -28 -3 -62 -8 -95c-41 -273 -187 -376 -372 -376
c-160 0 -264 86 -264 275c0 32 1 67 8 105zM465 821c63 0 89 35 104 85l51 -9c-20 -81 -73 -127 -157 -127c-86 0 -121 39 -124 115l53 10c3 -50 16 -74 73 -74z" />
    <glyph glyph-name="obreve" unicode="&#x14f;" horiz-adv-x="559" 
d="M112 262c-3 -22 -4 -43 -4 -61c0 -107 49 -149 127 -149c91 0 168 67 192 210c4 21 5 41 5 59c0 102 -49 153 -127 153c-92 0 -172 -73 -193 -212zM37 263c30 174 132 274 283 274c122 0 188 -73 188 -204c0 -22 -2 -50 -6 -75c-27 -176 -132 -270 -279 -270
c-125 0 -191 74 -191 202c0 22 1 48 5 73zM344 646c62 0 87 37 102 89l50 -9c-20 -86 -71 -131 -159 -131c-83 0 -119 44 -121 124l53 10c3 -52 15 -83 75 -83z" />
    <glyph glyph-name="Ohungarumlaut" unicode="&#x150;" horiz-adv-x="738" 
d="M147 368c-6 -34 -9 -65 -9 -93c0 -147 68 -218 191 -218c145 0 248 95 283 311c5 28 7 55 7 79c0 140 -66 215 -188 215c-149 0 -252 -105 -284 -294zM65 368c40 240 182 365 373 365c159 0 263 -94 263 -274c0 -28 -3 -62 -8 -95c-41 -273 -187 -376 -372 -376
c-160 0 -264 86 -264 275c0 32 1 67 8 105zM489 931l44 -41l-150 -135l-34 32zM614 918l40 -44l-142 -120l-32 36z" />
    <glyph glyph-name="ohungarumlaut" unicode="&#x151;" horiz-adv-x="559" 
d="M112 262c-3 -22 -4 -43 -4 -61c0 -107 49 -149 127 -149c91 0 168 67 192 210c4 21 5 41 5 59c0 102 -49 153 -127 153c-92 0 -172 -73 -193 -212zM37 263c30 174 132 274 283 274c122 0 188 -73 188 -204c0 -22 -2 -50 -6 -75c-27 -176 -132 -270 -279 -270
c-125 0 -191 74 -191 202c0 22 1 48 5 73zM346 760l50 -36l-138 -141l-39 30zM470 747l48 -38l-132 -126l-38 30z" />
    <glyph glyph-name="OE" unicode="&#x152;" horiz-adv-x="1087" 
d="M555 0l26 154c-60 -112 -166 -166 -278 -166c-146 0 -247 94 -247 292c0 300 175 452 378 452c108 0 195 -56 217 -160l24 148h432l-11 -69h-362l-42 -248h329l-10 -65h-329l-45 -269h370l-12 -69h-440zM137 291c0 -155 73 -231 189 -231c156 0 294 110 294 376
c0 157 -83 224 -191 224c-168 0 -292 -135 -292 -369z" />
    <glyph glyph-name="oe" unicode="&#x153;" horiz-adv-x="874" 
d="M784 110l31 -50c-66 -50 -131 -72 -200 -72c-88 0 -152 43 -176 121c-47 -77 -120 -121 -216 -121c-125 0 -191 74 -191 202c0 22 1 48 5 73c30 174 132 274 278 274c95 0 151 -54 171 -121c48 72 123 121 215 121c107 0 158 -62 158 -136c0 -90 -31 -180 -365 -189
c0 -80 22 -160 133 -160c57 0 100 20 157 58zM112 262c-3 -22 -4 -43 -4 -61c0 -107 49 -149 127 -149c91 0 168 67 192 210c4 21 5 41 5 59c0 102 -49 153 -127 153c-92 0 -172 -73 -193 -212zM499 269c251 14 289 58 289 124c0 39 -25 82 -97 82
c-133 0 -184 -132 -192 -206z" />
    <glyph glyph-name="Racute" unicode="&#x154;" horiz-adv-x="609" 
d="M151 720h219c143 0 207 -65 207 -169c0 -102 -49 -191 -158 -240l108 -311h-81l-100 294c-22 -4 -49 -6 -76 -6h-117l-48 -288h-74zM357 654h-143l-50 -302h129c133 0 207 70 207 185c0 75 -46 117 -143 117zM263 802l179 100l29 -63l-183 -84z" />
    <glyph glyph-name="racute" unicode="&#x155;" horiz-adv-x="311" 
d="M175 525l-15 -83c31 53 81 95 132 95c16 0 32 -4 45 -9l-21 -72c-12 5 -25 6 -42 6c-47 0 -94 -52 -119 -93l-62 -369h-71l88 525h65zM166 625l159 133l40 -52l-167 -122z" />
    <glyph glyph-name="Rcommaaccent" unicode="&#x156;" horiz-adv-x="609" 
d="M151 720h219c143 0 207 -65 207 -169c0 -102 -49 -191 -158 -240l108 -311h-81l-100 294c-22 -4 -49 -6 -76 -6h-117l-48 -288h-74zM357 654h-143l-50 -302h129c133 0 207 70 207 185c0 75 -46 117 -143 117zM180 -220l67 160l64 -16l-81 -159z" />
    <glyph glyph-name="rcommaaccent" unicode="&#x157;" horiz-adv-x="311" 
d="M175 525l-15 -83c31 53 81 95 132 95c16 0 32 -4 45 -9l-21 -72c-12 5 -25 6 -42 6c-47 0 -94 -52 -119 -93l-62 -369h-71l88 525h65zM-50 -220l67 160l64 -16l-81 -159z" />
    <glyph glyph-name="Rcaron" unicode="&#x158;" horiz-adv-x="609" 
d="M151 720h219c143 0 207 -65 207 -169c0 -102 -49 -191 -158 -240l108 -311h-81l-100 294c-22 -4 -49 -6 -76 -6h-117l-48 -288h-74zM357 654h-143l-50 -302h129c133 0 207 70 207 185c0 75 -46 117 -143 117zM374 766h-53l-77 99l38 32l75 -73l101 72l24 -31z" />
    <glyph glyph-name="rcaron" unicode="&#x159;" horiz-adv-x="311" 
d="M175 525l-15 -83c31 53 81 95 132 95c16 0 32 -4 45 -9l-21 -72c-12 5 -25 6 -42 6c-47 0 -94 -52 -119 -93l-62 -369h-71l88 525h65zM235 586h-51l-79 148l43 26l72 -112l112 114l32 -28z" />
    <glyph glyph-name="Sacute" unicode="&#x15a;" horiz-adv-x="558" 
d="M-1 96l51 50c50 -60 114 -94 187 -94c98 0 179 54 179 154c0 64 -36 98 -140 132c-126 42 -181 88 -181 188c0 125 107 207 250 207c98 0 167 -34 213 -103l-50 -47c-42 59 -104 86 -168 86c-89 0 -165 -43 -165 -137c0 -72 56 -97 157 -135c115 -43 164 -84 164 -182
c0 -142 -111 -227 -266 -227c-104 0 -184 44 -231 108zM264 802l179 100l29 -63l-183 -84z" />
    <glyph glyph-name="sacute" unicode="&#x15b;" horiz-adv-x="464" 
d="M-12 71l44 47c39 -40 94 -70 154 -70c73 0 129 36 129 105c0 46 -28 65 -111 87c-101 27 -141 65 -141 138c0 92 80 159 204 159c77 0 132 -27 172 -78l-44 -44c-37 42 -86 62 -133 62c-79 0 -122 -35 -122 -91c0 -48 37 -67 113 -89c97 -27 140 -62 140 -136
c0 -111 -90 -173 -211 -173c-91 0 -157 37 -194 83zM224 640l159 133l40 -52l-167 -122z" />
    <glyph glyph-name="Scircumflex" unicode="&#x15c;" horiz-adv-x="558" 
d="M-1 96l51 50c50 -60 114 -94 187 -94c98 0 179 54 179 154c0 64 -36 98 -140 132c-126 42 -181 88 -181 188c0 125 107 207 250 207c98 0 167 -34 213 -103l-50 -47c-42 59 -104 86 -168 86c-89 0 -165 -43 -165 -137c0 -72 56 -97 157 -135c115 -43 164 -84 164 -182
c0 -142 -111 -227 -266 -227c-104 0 -184 44 -231 108zM344 889h52l75 -99l-35 -31l-77 72l-99 -72l-28 31z" />
    <glyph glyph-name="scircumflex" unicode="&#x15d;" horiz-adv-x="464" 
d="M-12 71l44 47c39 -40 94 -70 154 -70c73 0 129 36 129 105c0 46 -28 65 -111 87c-101 27 -141 65 -141 138c0 92 80 159 204 159c77 0 132 -27 172 -78l-44 -44c-37 42 -86 62 -133 62c-79 0 -122 -35 -122 -91c0 -48 37 -67 113 -89c97 -27 140 -62 140 -136
c0 -111 -90 -173 -211 -173c-91 0 -157 37 -194 83zM279 755h51l79 -148l-41 -27l-73 113l-111 -112l-33 26z" />
    <glyph glyph-name="Scedilla" unicode="&#x15e;" horiz-adv-x="558" 
d="M129 -191l18 41c17 -7 37 -13 60 -13c26 0 51 7 51 41c0 23 -21 28 -60 28h-15l31 83c-96 4 -171 46 -215 107l51 50c50 -60 114 -94 187 -94c98 0 179 54 179 154c0 64 -36 98 -140 132c-126 42 -181 88 -181 188c0 125 107 207 250 207c98 0 167 -34 213 -103l-50 -47
c-42 59 -104 86 -168 86c-89 0 -165 -43 -165 -137c0 -72 56 -97 157 -135c115 -43 164 -84 164 -182c0 -133 -97 -215 -236 -226l-16 -44c34 -1 71 -14 71 -59c0 -63 -46 -94 -111 -94c-33 0 -64 11 -75 17z" />
    <glyph glyph-name="scedilla" unicode="&#x15f;" horiz-adv-x="464" 
d="M72 -191l18 41c17 -7 37 -13 60 -13c26 0 51 7 51 41c0 23 -21 28 -60 28h-15l31 83c-78 6 -136 40 -169 82l44 47c39 -40 94 -70 154 -70c15 0 28 1 41 4c52 11 88 46 88 101c0 46 -28 65 -111 87c-101 27 -141 65 -141 138c0 79 59 139 154 155c16 3 32 4 50 4
c77 0 132 -27 172 -78l-44 -44c-37 42 -86 62 -133 62c-16 0 -30 -1 -43 -4c-51 -11 -79 -42 -79 -87c0 -48 37 -67 113 -89c97 -27 140 -62 140 -136c0 -105 -81 -165 -190 -172l-16 -44c34 -1 71 -14 71 -59c0 -47 -26 -76 -66 -88c-13 -4 -29 -6 -45 -6
c-33 0 -64 11 -75 17z" />
    <glyph glyph-name="Scaron" unicode="&#x160;" horiz-adv-x="558" 
d="M-1 96l51 50c50 -60 114 -94 187 -94c98 0 179 54 179 154c0 64 -36 98 -140 132c-126 42 -181 88 -181 188c0 125 107 207 250 207c98 0 167 -34 213 -103l-50 -47c-42 59 -104 86 -168 86c-89 0 -165 -43 -165 -137c0 -72 56 -97 157 -135c115 -43 164 -84 164 -182
c0 -142 -111 -227 -266 -227c-104 0 -184 44 -231 108zM380 766h-53l-77 99l38 32l75 -73l101 72l24 -31z" />
    <glyph glyph-name="scaron" unicode="&#x161;" horiz-adv-x="464" 
d="M-12 71l44 47c39 -40 94 -70 154 -70c73 0 129 36 129 105c0 46 -28 65 -111 87c-101 27 -141 65 -141 138c0 92 80 159 204 159c77 0 132 -27 172 -78l-44 -44c-37 42 -86 62 -133 62c-79 0 -122 -35 -122 -91c0 -48 37 -67 113 -89c97 -27 140 -62 140 -136
c0 -111 -90 -173 -211 -173c-91 0 -157 37 -194 83zM304 586h-51l-79 148l43 26l72 -112l112 114l32 -28z" />
    <glyph glyph-name="uni0162" unicode="&#x162;" horiz-adv-x="550" 
d="M188 0l109 651h-221l11 69h516l-11 -69h-220l-109 -651h-19l-20 -55c35 -1 72 -14 72 -59c0 -64 -47 -94 -111 -94c-33 0 -64 11 -75 17l18 41c17 -7 37 -13 60 -13c26 0 50 7 50 41c0 23 -21 28 -59 28h-15l35 94h-11z" />
    <glyph glyph-name="uni0163" unicode="&#x163;" horiz-adv-x="279" 
d="M-7 -191l18 41c18 -7 37 -13 60 -13c28 0 51 9 51 41c0 23 -21 28 -59 28h-16l34 89c-24 10 -36 29 -36 61c0 8 0 17 2 27l64 381h-63l7 46l66 14l35 143h59l-24 -142h83l-10 -61h-83l-62 -367c-1 -6 -2 -12 -2 -17c0 -24 13 -31 36 -31c18 0 36 5 54 12l3 -54
c-25 -11 -60 -19 -87 -19l-15 -43c34 -1 71 -14 71 -59c0 -63 -46 -94 -111 -94c-33 0 -64 11 -75 17z" />
    <glyph glyph-name="Tcaron" unicode="&#x164;" horiz-adv-x="550" 
d="M188 0l110 653h-221l10 67h516l-10 -67h-220l-110 -653h-75zM383 766h-53l-77 99l38 32l75 -73l101 72l24 -31z" />
    <glyph glyph-name="tcaron" unicode="&#x165;" horiz-adv-x="279" 
d="M270 464h-89l-62 -370c-1 -6 -2 -12 -2 -17c0 -24 13 -31 36 -31c18 0 36 6 53 13l6 -52c-25 -11 -56 -19 -85 -19c-51 0 -82 22 -82 68c0 8 0 17 2 27l64 381h-63l7 46l66 14l35 143h59l-24 -142h89zM264 579l63 185h73l-80 -185h-56z" />
    <glyph glyph-name="Tbar" unicode="&#x166;" horiz-adv-x="551" 
d="M122 341l10 62h123l42 248h-221l11 69h516l-11 -69h-220l-42 -248h126l-10 -62h-126l-57 -341h-75l57 341h-123z" />
    <glyph glyph-name="tbar" unicode="&#x167;" horiz-adv-x="279" 
d="M264 464h-83l-22 -130h83l-10 -58h-83l-30 -179c-1 -6 -2 -12 -2 -17c0 -24 13 -31 36 -31c18 0 37 5 54 12l3 -54c-25 -11 -59 -19 -88 -19c-51 0 -77 22 -77 68c0 8 0 17 2 27l32 193h-63l10 58h63l22 130h-63l7 46l66 14l35 143h59l-24 -142h83z" />
    <glyph glyph-name="Utilde" unicode="&#x168;" horiz-adv-x="669" 
d="M146 720h74l-74 -444c-4 -22 -6 -43 -6 -62c0 -106 59 -159 158 -159c131 0 192 79 216 221l74 444h74l-75 -453c-31 -185 -135 -279 -304 -279c-135 0 -219 65 -219 206c0 22 3 47 7 73zM523 873l36 -16c-25 -55 -54 -75 -88 -75c-46 0 -89 33 -117 33
c-16 0 -25 -7 -46 -36l-37 17c30 55 58 75 90 75c44 0 76 -33 115 -33c19 0 29 7 47 35z" />
    <glyph glyph-name="utilde" unicode="&#x169;" horiz-adv-x="533" 
d="M409 0h-66l13 78c-40 -42 -104 -90 -184 -90c-99 0 -131 53 -131 126c0 18 3 39 6 60l59 351h72l-56 -334c-3 -19 -5 -46 -5 -61c0 -55 17 -77 78 -77c65 0 127 47 167 89l64 383h71zM436 699l36 -16c-25 -55 -54 -75 -88 -75c-46 0 -89 33 -117 33c-16 0 -25 -7 -46 -36
l-37 17c30 55 58 75 90 75c44 0 76 -33 115 -33c19 0 29 7 47 35z" />
    <glyph glyph-name="Umacron" unicode="&#x16a;" horiz-adv-x="669" 
d="M146 720h74l-74 -444c-4 -22 -6 -43 -6 -62c0 -106 59 -159 158 -159c131 0 192 79 216 221l74 444h74l-75 -453c-31 -185 -135 -279 -304 -279c-135 0 -219 65 -219 206c0 22 3 47 7 73zM282 790l10 57h265l-10 -57h-265z" />
    <glyph glyph-name="umacron" unicode="&#x16b;" horiz-adv-x="533" 
d="M409 0h-66l13 78c-40 -42 -104 -90 -184 -90c-99 0 -131 53 -131 126c0 18 3 39 6 60l59 351h72l-56 -334c-3 -19 -5 -46 -5 -61c0 -55 17 -77 78 -77c65 0 127 47 167 89l64 383h71zM186 621l10 58h265l-10 -58h-265z" />
    <glyph glyph-name="Ubreve" unicode="&#x16c;" horiz-adv-x="669" 
d="M146 720h74l-74 -444c-4 -22 -6 -43 -6 -62c0 -106 59 -159 158 -159c131 0 192 79 216 221l74 444h74l-75 -453c-31 -185 -135 -279 -304 -279c-135 0 -219 65 -219 206c0 22 3 47 7 73zM412 821c63 0 89 35 104 85l51 -9c-20 -81 -73 -127 -157 -127
c-86 0 -121 39 -124 115l53 10c3 -50 16 -74 73 -74z" />
    <glyph glyph-name="ubreve" unicode="&#x16d;" horiz-adv-x="533" 
d="M409 0h-66l13 78c-40 -42 -104 -90 -184 -90c-99 0 -131 53 -131 126c0 18 3 39 6 60l59 351h72l-56 -334c-3 -19 -5 -46 -5 -61c0 -55 17 -77 78 -77c65 0 127 47 167 89l64 383h71zM335 646c62 0 87 37 102 89l50 -9c-20 -86 -71 -131 -159 -131
c-83 0 -119 44 -121 124l53 10c3 -52 15 -83 75 -83z" />
    <glyph glyph-name="Uring" unicode="&#x16e;" horiz-adv-x="669" 
d="M146 720h74l-74 -444c-25 -149 35 -219 152 -219c131 0 192 77 216 219l74 444h74l-75 -453c-31 -185 -135 -279 -304 -279c-156 0 -244 87 -212 279zM378 817c0 -25 16 -40 41 -40c34 0 58 27 58 61c0 24 -15 39 -41 39c-35 0 -58 -26 -58 -60zM338 812
c0 58 48 102 104 102c44 0 74 -29 74 -72c0 -59 -47 -100 -103 -100c-45 0 -75 27 -75 70z" />
    <glyph glyph-name="uring" unicode="&#x16f;" horiz-adv-x="533" 
d="M409 0h-66l13 78c-40 -42 -104 -90 -184 -90c-99 0 -131 53 -131 126c0 18 3 39 6 60l59 351h72l-56 -334c-3 -19 -5 -46 -5 -61c0 -55 17 -77 78 -77c65 0 127 47 167 89l64 383h71zM282 655c0 -23 14 -36 37 -36c31 0 51 24 51 55c0 21 -13 34 -37 34
c-31 0 -51 -22 -51 -53zM233 648c0 60 50 104 108 104c45 0 77 -29 77 -73c0 -61 -49 -103 -107 -103c-47 0 -78 27 -78 72z" />
    <glyph glyph-name="Uhungarumlaut" unicode="&#x170;" horiz-adv-x="669" 
d="M146 720h74l-74 -444c-4 -22 -6 -43 -6 -62c0 -106 59 -159 158 -159c131 0 192 79 216 221l74 444h74l-75 -453c-31 -185 -135 -279 -304 -279c-135 0 -219 65 -219 206c0 22 3 47 7 73zM437 931l44 -41l-150 -135l-34 32zM562 918l40 -44l-142 -120l-32 36z" />
    <glyph glyph-name="uhungarumlaut" unicode="&#x171;" horiz-adv-x="533" 
d="M409 0h-66l13 78c-40 -42 -104 -90 -184 -90c-99 0 -131 53 -131 126c0 18 3 39 6 60l59 351h72l-56 -334c-3 -19 -5 -46 -5 -61c0 -55 17 -77 78 -77c65 0 127 47 167 89l64 383h71zM334 760l50 -36l-138 -141l-39 30zM458 747l48 -38l-132 -126l-38 30z" />
    <glyph glyph-name="Uogonek" unicode="&#x172;" horiz-adv-x="669" 
d="M146 720h74l-74 -444c-4 -22 -6 -43 -6 -62c0 -106 59 -159 158 -159c22 0 42 3 60 7c90 22 136 96 156 214l74 444h74l-75 -453c-19 -116 -65 -196 -154 -257c-66 -45 -119 -102 -119 -148c0 -19 11 -28 33 -28c20 0 37 6 57 15l12 -42c-25 -14 -61 -30 -98 -30
c-50 0 -74 26 -74 63c0 57 46 109 93 152c-19 -3 -33 -4 -54 -4c-135 0 -219 65 -219 206c0 22 3 47 7 73z" />
    <glyph glyph-name="uogonek" unicode="&#x173;" horiz-adv-x="533" 
d="M409 0c-65 -51 -107 -95 -107 -138c0 -19 11 -28 33 -28c20 0 37 6 57 15l12 -42c-25 -14 -61 -30 -98 -30c-50 0 -74 26 -74 63c0 61 53 116 111 162l13 76c-40 -42 -104 -90 -184 -90c-99 0 -131 53 -131 126c0 18 3 39 6 60l59 351h72l-56 -334c-3 -19 -5 -46 -5 -61
c0 -55 17 -77 78 -77c65 0 127 47 167 89l64 383h71z" />
    <glyph glyph-name="Wcircumflex" unicode="&#x174;" horiz-adv-x="895" 
d="M154 0l-67 720h76l56 -622l262 622h74l55 -623l260 623h77l-305 -720h-87l-55 607l-259 -607h-87zM517 889h52l75 -99l-35 -31l-77 72l-99 -72l-28 31z" />
    <glyph glyph-name="wcircumflex" unicode="&#x175;" horiz-adv-x="700" 
d="M641 525h71l-212 -525h-79l-55 419l-189 -419h-80l-37 525h70l23 -437l194 432h71l56 -432zM392 755h51l79 -148l-41 -27l-73 113l-111 -112l-33 26z" />
    <glyph glyph-name="Ycircumflex" unicode="&#x176;" horiz-adv-x="545" 
d="M181 0l51 305l-155 415h84l122 -338l236 338h83l-295 -415l-51 -305h-75zM331 889h52l75 -99l-35 -31l-77 72l-99 -72l-28 31z" />
    <glyph glyph-name="ycircumflex" unicode="&#x177;" horiz-adv-x="459" 
d="M403 525h76l-274 -545c-64 -128 -94 -182 -187 -182c-34 0 -58 4 -84 12l18 55c14 -3 38 -8 67 -8c41 0 64 20 106 105l18 38l-93 525h75l68 -433zM281 755h51l79 -148l-41 -27l-73 113l-111 -112l-33 26z" />
    <glyph glyph-name="Ydieresis" unicode="&#x178;" horiz-adv-x="545" 
d="M181 0l51 305l-155 415h84l122 -338l236 338h83l-295 -415l-51 -305h-75zM396 815c0 28 23 52 55 52c25 0 38 -16 38 -38c0 -27 -23 -51 -53 -51c-26 0 -40 16 -40 37zM213 815c0 28 24 52 54 52c26 0 40 -17 40 -38c0 -28 -25 -51 -54 -51c-26 0 -40 16 -40 37z" />
    <glyph glyph-name="Zacute" unicode="&#x179;" horiz-adv-x="566" 
d="M-11 0l9 51l487 602h-380l10 67h491l-5 -34l-502 -619h395l-12 -67h-493zM280 802l179 100l29 -63l-183 -84z" />
    <glyph glyph-name="zacute" unicode="&#x17a;" horiz-adv-x="424" 
d="M-14 0l8 49l329 414h-257l11 62h353l-7 -38l-341 -427h268l-10 -60h-354zM214 625l159 133l40 -52l-167 -122z" />
    <glyph glyph-name="Zdotaccent" unicode="&#x17b;" horiz-adv-x="566" 
d="M-11 0l9 51l487 602h-380l10 67h491l-5 -34l-502 -619h395l-12 -67h-493zM322 814c0 32 26 52 57 52c25 0 41 -14 41 -38c0 -31 -25 -52 -56 -52c-25 0 -42 15 -42 38z" />
    <glyph glyph-name="zdotaccent" unicode="&#x17c;" horiz-adv-x="424" 
d="M-14 0l8 49l329 414h-257l11 62h353l-7 -38l-341 -427h268l-10 -60h-354zM220 661c0 31 26 52 57 52c25 0 41 -15 41 -39c0 -30 -25 -51 -56 -51c-25 0 -42 15 -42 38z" />
    <glyph glyph-name="Zcaron" unicode="&#x17d;" horiz-adv-x="566" 
d="M-11 0l9 51l487 602h-380l10 67h491l-5 -34l-502 -619h395l-12 -67h-493zM388 766h-53l-77 99l38 32l75 -73l101 72l24 -31z" />
    <glyph glyph-name="zcaron" unicode="&#x17e;" horiz-adv-x="424" 
d="M-14 0l8 49l329 414h-257l11 62h353l-7 -38l-341 -427h268l-10 -60h-354zM291 586h-51l-79 148l43 26l72 -112l112 114l32 -28z" />
    <glyph glyph-name="longs" unicode="&#x17f;" horiz-adv-x="255" 
d="M35 0l78 464h-58l7 46l60 11l13 75c13 76 55 137 139 137c20 0 41 -3 62 -9l-13 -56c-13 4 -27 7 -45 7c-31 0 -61 -18 -71 -75l-100 -600h-72z" />
    <glyph glyph-name="florin" unicode="&#x192;" horiz-adv-x="423" 
d="M-37 -144h40c45 0 65 30 80 99l81 390h-78v54h89l32 158c17 82 40 152 139 152h60v-57h-49c-59 0 -68 -43 -84 -119l-29 -134h94v-54h-104l-67 -329c-30 -142 -44 -216 -153 -216h-51v56z" />
    <glyph glyph-name="Scommaaccent" unicode="&#x218;" horiz-adv-x="558" 
d="M-1 96l51 50c50 -60 114 -94 187 -94c98 0 179 54 179 154c0 64 -36 98 -140 132c-126 42 -181 88 -181 188c0 125 107 207 250 207c98 0 167 -34 213 -103l-50 -47c-42 59 -104 86 -168 86c-89 0 -165 -43 -165 -137c0 -72 56 -97 157 -135c115 -43 164 -84 164 -182
c0 -142 -111 -227 -266 -227c-104 0 -184 44 -231 108zM151 -220l67 160l64 -16l-81 -159z" />
    <glyph glyph-name="scommaaccent" unicode="&#x219;" horiz-adv-x="464" 
d="M-12 71l44 47c39 -40 94 -70 154 -70c73 0 129 36 129 105c0 46 -28 65 -111 87c-101 27 -141 65 -141 138c0 92 80 159 204 159c77 0 132 -27 172 -78l-44 -44c-37 42 -86 62 -133 62c-79 0 -122 -35 -122 -91c0 -48 37 -67 113 -89c97 -27 140 -62 140 -136
c0 -111 -90 -173 -211 -173c-91 0 -157 37 -194 83zM102 -220l67 160l64 -16l-81 -159z" />
    <glyph glyph-name="uni021A" unicode="&#x21a;" horiz-adv-x="550" 
d="M188 0l110 653h-221l10 67h516l-10 -67h-220l-110 -653h-75zM114 -220l67 160l64 -16l-81 -159z" />
    <glyph glyph-name="uni021B" unicode="&#x21b;" horiz-adv-x="279" 
d="M270 464h-89l-62 -370c-1 -6 -2 -12 -2 -17c0 -24 13 -31 36 -31c18 0 36 6 53 13l6 -52c-25 -11 -56 -19 -85 -19c-51 0 -82 22 -82 68c0 8 0 17 2 27l64 381h-63l7 46l66 14l35 143h59l-24 -142h89zM17 -220l67 160l64 -16l-81 -159z" />
    <glyph glyph-name="dotlessj" unicode="&#x237;" horiz-adv-x="226" 
d="M186 525l-100 -598c-14 -81 -46 -130 -130 -130c-24 0 -47 2 -66 10l17 56c10 -4 27 -6 43 -6c34 0 56 13 66 74l100 594h70z" />
    <glyph glyph-name="apostrophe" unicode="&#x2bc;" 
d="M195 678c0 32 26 55 61 55c32 0 44 -24 44 -52c0 -52 -34 -108 -103 -141l-11 26c44 26 59 46 67 81c-9 -5 -18 -7 -28 -6c-19 3 -30 18 -30 37z" />
    <glyph glyph-name="circumflex" unicode="&#x2c6;" 
d="M224 755h51l79 -148l-41 -27l-73 113l-111 -112l-33 26z" />
    <glyph glyph-name="caron" unicode="&#x2c7;" 
d="M246 586h-51l-79 148l43 26l72 -112l112 114l32 -28z" />
    <glyph glyph-name="uni02C9" unicode="&#x2c9;" 
d="M83 621l10 58h265l-10 -58h-265z" />
    <glyph glyph-name="breve" unicode="&#x2d8;" 
d="M237 646c62 0 87 37 102 89l50 -9c-20 -86 -71 -131 -159 -131c-83 0 -119 44 -121 124l53 10c3 -52 15 -83 75 -83z" />
    <glyph glyph-name="dotaccent" unicode="&#x2d9;" 
d="M177 661c0 31 26 52 57 52c25 0 41 -15 41 -39c0 -30 -25 -51 -56 -51c-25 0 -42 15 -42 38z" />
    <glyph glyph-name="ring" unicode="&#x2da;" 
d="M190 655c0 -23 14 -36 37 -36c31 0 51 24 51 55c0 21 -13 34 -37 34c-31 0 -51 -22 -51 -53zM141 648c0 60 50 104 108 104c45 0 77 -29 77 -73c0 -61 -49 -103 -107 -103c-47 0 -78 27 -78 72z" />
    <glyph glyph-name="ogonek" unicode="&#x2db;" 
d="M202 13l51 -3l-2 -10c-64 -51 -105 -95 -105 -138c0 -19 11 -28 33 -28c20 0 37 6 57 15l12 -42c-25 -14 -61 -30 -98 -30c-50 0 -74 26 -74 63c0 66 63 125 126 173z" />
    <glyph glyph-name="tilde" unicode="&#x2dc;" 
d="M343 699l36 -16c-25 -55 -54 -75 -88 -75c-46 0 -89 33 -117 33c-16 0 -25 -7 -46 -36l-37 17c30 55 58 75 90 75c44 0 76 -33 115 -33c19 0 29 7 47 35z" />
    <glyph glyph-name="hungarumlaut" unicode="&#x2dd;" 
d="M183 760l50 -36l-138 -141l-39 30zM307 747l48 -38l-132 -126l-38 30z" />
    <glyph glyph-name="uni0394" unicode="&#x394;" horiz-adv-x="665" 
d="M287 720h90l260 -720h-609zM127 64h408l-204 575z" />
    <glyph glyph-name="uni03A9" unicode="&#x3a9;" horiz-adv-x="790" 
d="M459 0v87c89 44 184 140 184 298c0 190 -97 275 -242 275c-147 0 -245 -94 -245 -282c0 -145 88 -243 162 -290v-88h-252v67h179v14c-81 45 -171 153 -171 307c0 232 141 345 327 345c185 0 323 -103 323 -333c0 -173 -101 -283 -192 -321v-12h179v-67h-252z" />
    <glyph glyph-name="uni03BC" unicode="&#x3bc;" horiz-adv-x="571" 
d="M482 0h-67v78c-27 -55 -72 -88 -140 -88c-61 0 -95 21 -123 61v-251h-72v725h72v-325c0 -97 38 -153 125 -153c83 0 127 74 132 128v350h73v-525z" />
    <glyph glyph-name="pi" unicode="&#x3c0;" horiz-adv-x="662" 
d="M55 462v63h590v-63h-88v-462h-73v462h-263v-462h-73v462h-93z" />
    <glyph glyph-name="Wgrave" unicode="&#x1e80;" horiz-adv-x="895" 
d="M154 0l-67 720h76l56 -622l262 622h74l55 -623l260 623h77l-305 -720h-87l-55 607l-259 -607h-87zM438 898l161 -100l-29 -43l-166 80z" />
    <glyph glyph-name="wgrave" unicode="&#x1e81;" horiz-adv-x="700" 
d="M641 525h71l-212 -525h-79l-55 419l-189 -419h-80l-37 525h70l23 -437l194 432h71l56 -432zM339 758l131 -139l-32 -35l-149 123z" />
    <glyph glyph-name="Wacute" unicode="&#x1e82;" horiz-adv-x="895" 
d="M154 0l-67 720h76l56 -622l262 622h74l55 -623l260 623h77l-305 -720h-87l-55 607l-259 -607h-87zM414 802l179 100l29 -63l-183 -84z" />
    <glyph glyph-name="wacute" unicode="&#x1e83;" horiz-adv-x="700" 
d="M641 525h71l-212 -525h-79l-55 419l-189 -419h-80l-37 525h70l23 -437l194 432h71l56 -432zM320 625l159 133l40 -52l-167 -122z" />
    <glyph glyph-name="Wdieresis" unicode="&#x1e84;" horiz-adv-x="895" 
d="M154 0l-67 720h76l56 -622l262 622h74l55 -623l260 623h77l-305 -720h-87l-55 607l-259 -607h-87zM581 815c0 28 23 52 55 52c25 0 38 -16 38 -38c0 -27 -23 -51 -53 -51c-26 0 -40 16 -40 37zM398 815c0 28 24 52 54 52c26 0 40 -17 40 -38c0 -28 -25 -51 -54 -51
c-26 0 -40 16 -40 37z" />
    <glyph glyph-name="wdieresis" unicode="&#x1e85;" horiz-adv-x="700" 
d="M641 525h71l-212 -525h-79l-55 419l-189 -419h-80l-37 525h70l23 -437l194 432h71l56 -432zM451 646c0 28 22 52 55 52c25 0 38 -16 38 -38c0 -28 -23 -51 -53 -51c-26 0 -40 16 -40 37zM268 646c0 28 24 52 54 52c26 0 40 -17 40 -38c0 -29 -25 -51 -54 -51
c-26 0 -40 16 -40 37z" />
    <glyph glyph-name="Ygrave" unicode="&#x1ef2;" horiz-adv-x="545" 
d="M181 0l51 305l-155 415h84l122 -338l236 338h83l-295 -415l-51 -305h-75zM266 898l161 -100l-29 -43l-166 80z" />
    <glyph glyph-name="ygrave" unicode="&#x1ef3;" horiz-adv-x="459" 
d="M403 525h76l-274 -545c-64 -128 -94 -182 -187 -182c-34 0 -58 4 -84 12l18 55c14 -3 38 -8 67 -8c41 0 64 20 106 105l18 38l-93 525h75l68 -433zM240 758l131 -139l-32 -35l-149 123z" />
    <glyph glyph-name="endash" unicode="&#x2013;" 
d="M-10 237l9 56h485l-9 -56h-485z" />
    <glyph glyph-name="emdash" unicode="&#x2014;" horiz-adv-x="970" 
d="M-10 237l9 56h970l-9 -56h-970z" />
    <glyph glyph-name="quoteleft" unicode="&#x2018;" horiz-adv-x="200" 
d="M208 602c0 -34 -25 -59 -63 -59c-34 0 -47 26 -47 55c0 46 17 108 113 153l11 -28c-47 -26 -67 -52 -74 -89c8 4 17 6 25 6c22 0 35 -16 35 -38z" />
    <glyph glyph-name="quoteright" unicode="&#x2019;" horiz-adv-x="201" 
d="M111 662c0 34 25 59 63 59c34 0 47 -26 47 -55c0 -46 -17 -108 -113 -153l-11 28c47 26 67 52 74 89c-8 -4 -17 -6 -25 -6c-22 0 -35 16 -35 38z" />
    <glyph glyph-name="quotesinglbase" unicode="&#x201a;" horiz-adv-x="193" 
d="M-2 18c0 34 25 59 63 59c34 0 47 -26 47 -55c0 -46 -17 -108 -113 -153l-11 28c47 26 67 52 74 89c-8 -4 -17 -6 -25 -6c-22 0 -35 16 -35 38z" />
    <glyph glyph-name="quotedblleft" unicode="&#x201c;" horiz-adv-x="351" 
d="M208 602c0 -34 -25 -59 -63 -59c-34 0 -47 26 -47 55c0 46 17 108 113 153l11 -28c-47 -26 -67 -52 -74 -89c8 4 17 6 25 6c22 0 35 -16 35 -38zM359 602c0 -34 -25 -59 -63 -59c-34 0 -47 26 -47 55c0 46 17 108 113 153l11 -28c-47 -26 -67 -52 -74 -89c8 4 17 6 25 6
c22 0 35 -16 35 -38z" />
    <glyph glyph-name="quotedblright" unicode="&#x201d;" horiz-adv-x="352" 
d="M262 662c0 34 25 59 63 59c34 0 47 -26 47 -55c0 -46 -17 -108 -113 -153l-11 28c47 26 67 52 74 89c-8 -4 -17 -6 -25 -6c-22 0 -35 16 -35 38zM111 662c0 34 25 59 63 59c34 0 47 -26 47 -55c0 -46 -17 -108 -113 -153l-11 28c47 26 67 52 74 89c-8 -4 -17 -6 -25 -6
c-22 0 -35 16 -35 38z" />
    <glyph glyph-name="quotedblbase" unicode="&#x201e;" horiz-adv-x="343" 
d="M148 18c0 34 25 59 63 59c34 0 47 -26 47 -55c0 -46 -17 -108 -113 -153l-11 28c47 26 67 52 74 89c-8 -4 -17 -6 -25 -6c-22 0 -35 16 -35 38zM-2 18c0 34 25 59 63 59c34 0 47 -26 47 -55c0 -46 -17 -108 -113 -153l-11 28c47 26 67 52 74 89c-8 -4 -17 -6 -25 -6
c-22 0 -35 16 -35 38z" />
    <glyph glyph-name="dagger" unicode="&#x2020;" horiz-adv-x="487" 
d="M209 -105h-67l93 554h-166l11 63h166l34 207h67l-34 -207h167l-11 -63h-167z" />
    <glyph glyph-name="daggerdbl" unicode="&#x2021;" horiz-adv-x="486" 
d="M207 -105h-65l35 206h-166l10 62h166l48 286h-166l11 63h166l34 207h65l-34 -207h167l-11 -63h-167l-48 -286h167l-10 -62h-167z" />
    <glyph glyph-name="bullet" unicode="&#x2022;" horiz-adv-x="500" 
d="M139 312c0 66 51 114 114 114c60 0 114 -46 114 -114s-52 -115 -115 -115c-64 0 -113 49 -113 115z" />
    <glyph glyph-name="ellipsis" unicode="&#x2026;" horiz-adv-x="770" 
d="M552 41c0 35 24 55 57 55s57 -20 57 -54c0 -33 -24 -54 -57 -54c-34 0 -57 21 -57 53zM288 41c0 35 24 55 57 55s57 -20 57 -54c0 -33 -24 -54 -57 -54c-34 0 -57 21 -57 53zM25 41c0 35 24 55 57 55s57 -20 57 -54c0 -33 -24 -54 -57 -54c-34 0 -57 21 -57 53z" />
    <glyph glyph-name="perthousand" unicode="&#x2030;" horiz-adv-x="1076" 
d="M445 127c0 102 85 184 185 184c54 0 95 -27 113 -74c35 45 86 74 143 74c77 0 128 -57 128 -133c0 -101 -86 -182 -178 -182c-60 0 -104 28 -122 71c-37 -46 -87 -71 -139 -71c-80 0 -130 55 -130 131zM82 532c0 102 84 184 185 184c79 0 131 -54 131 -132
c0 -101 -87 -182 -184 -182c-80 0 -132 52 -132 130zM116 0l545 720h75l-546 -720h-74zM142 541c0 -51 32 -86 81 -86c64 0 115 53 115 121c0 51 -31 87 -80 87c-65 0 -116 -54 -116 -122zM504 136c0 -51 31 -86 82 -86c64 0 116 54 116 120c0 49 -31 88 -81 88
c-64 0 -117 -55 -117 -122zM758 136c0 -49 29 -86 80 -86c64 0 115 54 115 120c0 49 -30 88 -80 88c-62 0 -115 -55 -115 -122z" />
    <glyph glyph-name="guilsinglleft" unicode="&#x2039;" horiz-adv-x="260" 
d="M112 262l91 -121l-44 -37l-125 145l5 27l172 143l33 -36z" />
    <glyph glyph-name="guilsinglright" unicode="&#x203a;" horiz-adv-x="260" 
d="M148 261l-91 121l44 37l125 -145l-5 -27l-172 -143l-33 36z" />
    <glyph glyph-name="fraction" unicode="&#x2044;" horiz-adv-x="112" 
d="M-234 -1l544 721h62l-544 -721h-62z" />
    <glyph glyph-name="zerosuperior" unicode="&#x2070;" horiz-adv-x="349" 
d="M85 586c22 126 80 189 167 189c71 0 107 -44 107 -129c0 -19 -1 -42 -5 -65c-23 -132 -74 -188 -160 -188c-71 0 -114 41 -114 128c0 19 1 42 5 65zM147 589c-4 -23 -6 -45 -6 -62c0 -58 19 -81 57 -81c44 0 80 36 97 138c3 19 5 38 5 53c0 59 -22 84 -57 84
c-44 0 -80 -35 -96 -132z" />
    <glyph glyph-name="foursuperior" unicode="&#x2074;" horiz-adv-x="327" 
d="M276 714l-156 -189h125zM224 400l12 75h-184l9 48l203 247h80l-41 -245h42l-9 -50h-42l-12 -75h-58z" />
    <glyph glyph-name="fivesuperior" unicode="&#x2075;" horiz-adv-x="318" 
d="M83 531l57 239h200l-12 -52h-150l-27 -108c18 12 47 26 84 26c61 0 90 -37 90 -91c0 -94 -72 -152 -163 -152c-41 0 -87 13 -118 38l28 40c30 -17 61 -28 94 -28c57 0 99 31 99 91c0 31 -18 53 -55 53c-30 0 -54 -14 -71 -26l-8 -30h-48z" />
    <glyph glyph-name="sixsuperior" unicode="&#x2076;" horiz-adv-x="326" 
d="M75 520c0 143 69 255 196 255c32 0 66 -9 93 -29l-28 -41c-24 15 -44 21 -68 21c-79 0 -109 -61 -127 -136c27 23 66 45 107 45c64 0 91 -42 91 -92c0 -95 -69 -150 -154 -150c-77 0 -110 50 -110 127zM229 586c-36 0 -73 -25 -94 -43c-9 -66 11 -102 60 -102
c46 0 86 28 86 92c0 36 -20 53 -52 53z" />
    <glyph glyph-name="sevensuperior" unicode="&#x2077;" horiz-adv-x="281" 
d="M331 732l-203 -332h-60l1 6l195 312h-187l9 52h252z" />
    <glyph glyph-name="eightsuperior" unicode="&#x2078;" horiz-adv-x="323" 
d="M116 487c0 -29 24 -48 67 -48c51 0 89 28 89 70c0 34 -29 48 -73 64c-43 -20 -83 -40 -83 -86zM166 679c0 -29 27 -42 57 -56c31 14 69 38 69 71c0 25 -20 40 -54 40c-45 0 -72 -21 -72 -55zM60 478c0 63 44 96 104 119c-35 14 -56 37 -56 72c0 64 56 106 137 106
c65 0 101 -26 101 -72c0 -47 -35 -81 -84 -102c48 -21 70 -45 70 -83c0 -77 -65 -125 -155 -125c-75 0 -117 33 -117 85z" />
    <glyph glyph-name="ninesuperior" unicode="&#x2079;" horiz-adv-x="326" 
d="M342 650c0 -147 -67 -257 -192 -257c-35 0 -72 10 -94 27l25 43c20 -12 44 -21 77 -21c67 0 99 55 119 132c-31 -32 -67 -45 -108 -45c-63 0 -90 46 -90 96c0 94 68 150 155 150c76 0 108 -49 108 -125zM189 575c36 0 73 27 95 49c10 68 -10 103 -59 103s-90 -28 -90 -95
c0 -37 19 -57 54 -57z" />
    <glyph glyph-name="zeroinferior" unicode="&#x2080;" horiz-adv-x="349" 
d="M6 90c22 126 80 189 167 189c71 0 107 -44 107 -129c0 -19 -1 -42 -5 -65c-23 -132 -74 -188 -160 -188c-71 0 -114 41 -114 128c0 19 1 42 5 65zM68 93c-4 -23 -6 -45 -6 -62c0 -58 19 -81 57 -81c44 0 80 36 97 138c3 19 5 38 5 53c0 59 -22 84 -57 84
c-44 0 -80 -35 -96 -132z" />
    <glyph glyph-name="oneinferior" unicode="&#x2081;" horiz-adv-x="248" 
d="M124 -96h-59l48 287c-34 -12 -64 -20 -99 -21l1 43c43 8 95 31 129 61h42z" />
    <glyph glyph-name="twoinferior" unicode="&#x2082;" horiz-adv-x="298" 
d="M-46 -96l7 43l158 143c41 38 62 55 62 94c0 27 -18 41 -49 41c-34 0 -76 -19 -114 -44l-18 39c40 32 96 59 149 59c60 0 97 -30 97 -81c0 -45 -24 -83 -72 -126l-132 -116h169l-9 -52h-248z" />
    <glyph glyph-name="threeinferior" unicode="&#x2083;" horiz-adv-x="310" 
d="M-43 -53l35 39c27 -24 51 -38 95 -38c57 0 88 26 88 71c0 31 -22 48 -78 48c-8 0 -28 -1 -30 -1l9 52c63 1 106 24 106 73c0 29 -22 37 -54 37s-63 -10 -91 -26l-14 41c33 20 76 36 126 36c59 0 96 -25 96 -75c0 -51 -36 -91 -90 -106c60 -4 81 -37 81 -76
c0 -80 -68 -125 -152 -125c-53 0 -98 16 -127 50z" />
    <glyph glyph-name="fourinferior" unicode="&#x2084;" horiz-adv-x="327" 
d="M188 218l-156 -189h125zM136 -96l12 75h-184l9 48l203 247h80l-41 -245h42l-9 -50h-42l-12 -75h-58z" />
    <glyph glyph-name="fiveinferior" unicode="&#x2085;" horiz-adv-x="318" 
d="M5 35l57 239h200l-12 -52h-150l-27 -108c18 12 47 26 84 26c61 0 90 -37 90 -91c0 -94 -72 -152 -163 -152c-41 0 -87 13 -118 38l28 40c30 -17 61 -28 94 -28c57 0 99 31 99 91c0 31 -18 53 -55 53c-30 0 -54 -14 -71 -26l-8 -30h-48z" />
    <glyph glyph-name="sixinferior" unicode="&#x2086;" horiz-adv-x="326" 
d="M-3 24c0 143 69 255 196 255c32 0 66 -9 93 -29l-28 -41c-24 15 -44 21 -68 21c-79 0 -109 -61 -127 -136c27 23 66 45 107 45c64 0 91 -42 91 -92c0 -95 -69 -150 -154 -150c-77 0 -110 50 -110 127zM151 90c-36 0 -73 -25 -94 -43c-9 -66 11 -102 60 -102
c46 0 86 28 86 92c0 36 -20 53 -52 53z" />
    <glyph glyph-name="seveninferior" unicode="&#x2087;" horiz-adv-x="281" 
d="M255 236l-203 -332h-60l1 6l195 312h-187l9 52h252z" />
    <glyph glyph-name="eightinferior" unicode="&#x2088;" horiz-adv-x="323" 
d="M35 -9c0 -29 24 -48 67 -48c51 0 89 28 89 70c0 34 -29 48 -73 64c-43 -20 -83 -40 -83 -86zM85 183c0 -29 27 -42 57 -56c31 14 69 38 69 71c0 25 -20 40 -54 40c-45 0 -72 -21 -72 -55zM-21 -18c0 63 44 96 104 119c-35 14 -56 37 -56 72c0 64 56 106 137 106
c65 0 101 -26 101 -72c0 -47 -35 -81 -84 -102c48 -21 70 -45 70 -83c0 -77 -65 -125 -155 -125c-75 0 -117 33 -117 85z" />
    <glyph glyph-name="nineinferior" unicode="&#x2089;" horiz-adv-x="326" 
d="M265 154c0 -147 -67 -257 -192 -257c-35 0 -72 10 -94 27l25 43c20 -12 44 -21 77 -21c67 0 99 55 119 132c-31 -32 -67 -45 -108 -45c-63 0 -90 46 -90 96c0 94 68 150 155 150c76 0 108 -49 108 -125zM112 79c36 0 73 27 95 49c10 68 -10 103 -59 103s-90 -28 -90 -95
c0 -37 19 -57 54 -57z" />
    <glyph glyph-name="Euro" unicode="&#x20ac;" horiz-adv-x="586" 
d="M13 390l14 55h70c43 140 158 275 316 275c76 0 157 -30 199 -122l-50 -35c-33 63 -91 97 -160 97c-110 0 -193 -91 -235 -215h324l-13 -55h-326c-3 -12 -4 -21 -6 -33c-3 -18 -5 -32 -6 -48h318l-13 -55h-306c4 -124 62 -204 163 -204c81 0 138 34 193 79l29 -43
c-71 -65 -146 -98 -239 -98c-152 0 -216 123 -217 266h-87l13 55h76c0 16 3 29 6 47c2 12 3 21 6 34h-69z" />
    <glyph glyph-name="trademark" unicode="&#x2122;" horiz-adv-x="615" 
d="M613 461h-40l-21 195l-75 -195h-32l-72 195l-19 -195h-41l28 259h48l74 -199l75 199h45zM155 461v220h-85v39h212v-39h-85v-220h-42z" />
    <glyph glyph-name="Omega" unicode="&#x2126;" horiz-adv-x="790" 
d="M459 0v87c89 44 184 140 184 298c0 190 -97 275 -242 275c-147 0 -245 -94 -245 -282c0 -145 88 -243 162 -290v-88h-252v67h179v14c-81 45 -171 153 -171 307c0 232 141 345 327 345c185 0 323 -103 323 -333c0 -173 -101 -283 -192 -321v-12h179v-67h-252z" />
    <glyph glyph-name="onethird" unicode="&#x2153;" horiz-adv-x="811" 
d="M70 -1l544 721h62l-544 -721h-62zM208 350h-59l48 287c-34 -12 -64 -20 -99 -21l1 43c43 8 95 31 129 61h42zM445 43l35 39c27 -24 51 -38 95 -38c57 0 88 26 88 71c0 31 -22 48 -78 48c-8 0 -28 -1 -30 -1l9 52c63 1 106 24 106 73c0 29 -22 37 -54 37s-63 -10 -91 -26
l-14 41c33 20 76 36 126 36c59 0 96 -25 96 -75c0 -51 -36 -91 -90 -106c60 -4 81 -37 81 -76c0 -80 -68 -125 -152 -125c-53 0 -98 16 -127 50z" />
    <glyph glyph-name="twothirds" unicode="&#x2154;" horiz-adv-x="811" 
d="M128 -1l544 721h62l-544 -721h-62zM54 350l7 43l158 143c41 38 62 55 62 94c0 27 -18 41 -49 41c-34 0 -76 -19 -114 -44l-18 39c40 32 96 59 149 59c60 0 97 -30 97 -81c0 -45 -24 -83 -72 -126l-132 -116h169l-9 -52h-248zM474 43l35 39c27 -24 51 -38 95 -38
c57 0 88 26 88 71c0 31 -22 48 -78 48c-8 0 -28 -1 -30 -1l9 52c63 1 106 24 106 73c0 29 -22 37 -54 37s-63 -10 -91 -26l-14 41c33 20 76 36 126 36c59 0 96 -25 96 -75c0 -51 -36 -91 -90 -106c60 -4 81 -37 81 -76c0 -80 -68 -125 -152 -125c-53 0 -98 16 -127 50z" />
    <glyph glyph-name="oneeighth" unicode="&#x215b;" horiz-adv-x="811" 
d="M81 -1l544 721h62l-544 -721h-62zM231 350h-59l48 287c-34 -12 -64 -20 -99 -21l1 43c43 8 95 31 129 61h42zM504 87c0 -29 24 -48 67 -48c51 0 89 28 89 70c0 34 -29 48 -73 64c-43 -20 -83 -40 -83 -86zM554 279c0 -29 27 -42 57 -56c31 14 69 38 69 71
c0 25 -20 40 -54 40c-45 0 -72 -21 -72 -55zM448 78c0 63 44 96 104 119c-35 14 -56 37 -56 72c0 64 56 106 137 106c65 0 101 -26 101 -72c0 -47 -35 -81 -84 -102c48 -21 70 -45 70 -83c0 -77 -65 -125 -155 -125c-75 0 -117 33 -117 85z" />
    <glyph glyph-name="threeeighths" unicode="&#x215c;" horiz-adv-x="811" 
d="M124 -1l544 721h62l-544 -721h-62zM521 87c0 -29 24 -48 67 -48c51 0 89 28 89 70c0 34 -29 48 -73 64c-43 -20 -83 -40 -83 -86zM571 279c0 -29 27 -42 57 -56c31 14 69 38 69 71c0 25 -20 40 -54 40c-45 0 -72 -21 -72 -55zM465 78c0 63 44 96 104 119
c-35 14 -56 37 -56 72c0 64 56 106 137 106c65 0 101 -26 101 -72c0 -47 -35 -81 -84 -102c48 -21 70 -45 70 -83c0 -77 -65 -125 -155 -125c-75 0 -117 33 -117 85zM51 393l35 39c27 -24 51 -38 95 -38c57 0 88 26 88 71c0 31 -22 48 -78 48c-8 0 -28 -1 -30 -1l9 52
c63 1 106 24 106 73c0 29 -22 37 -54 37s-63 -10 -91 -26l-14 41c33 20 76 36 126 36c59 0 96 -25 96 -75c0 -51 -36 -91 -90 -106c60 -4 81 -37 81 -76c0 -80 -68 -125 -152 -125c-53 0 -98 16 -127 50z" />
    <glyph glyph-name="fiveeighths" unicode="&#x215d;" horiz-adv-x="811" 
d="M126 -1l544 721h62l-544 -721h-62zM95 481l57 239h200l-12 -52h-150l-27 -108c18 12 47 26 84 26c61 0 90 -37 90 -91c0 -94 -72 -152 -163 -152c-41 0 -87 13 -118 38l28 40c30 -17 61 -28 94 -28c57 0 99 31 99 91c0 31 -18 53 -55 53c-30 0 -54 -14 -71 -26l-8 -30
h-48zM532 87c0 -29 24 -48 67 -48c51 0 89 28 89 70c0 34 -29 48 -73 64c-43 -20 -83 -40 -83 -86zM582 279c0 -29 27 -42 57 -56c31 14 69 38 69 71c0 25 -20 40 -54 40c-45 0 -72 -21 -72 -55zM476 78c0 63 44 96 104 119c-35 14 -56 37 -56 72c0 64 56 106 137 106
c65 0 101 -26 101 -72c0 -47 -35 -81 -84 -102c48 -21 70 -45 70 -83c0 -77 -65 -125 -155 -125c-75 0 -117 33 -117 85z" />
    <glyph glyph-name="seveneighths" unicode="&#x215e;" horiz-adv-x="811" 
d="M81 -1l544 721h62l-544 -721h-62zM514 87c0 -29 24 -48 67 -48c51 0 89 28 89 70c0 34 -29 48 -73 64c-43 -20 -83 -40 -83 -86zM564 279c0 -29 27 -42 57 -56c31 14 69 38 69 71c0 25 -20 40 -54 40c-45 0 -72 -21 -72 -55zM458 78c0 63 44 96 104 119
c-35 14 -56 37 -56 72c0 64 56 106 137 106c65 0 101 -26 101 -72c0 -47 -35 -81 -84 -102c48 -21 70 -45 70 -83c0 -77 -65 -125 -155 -125c-75 0 -117 33 -117 85zM369 682l-203 -332h-60l1 6l195 312h-187l9 52h252z" />
    <glyph glyph-name="arrowleft" unicode="&#x2190;" horiz-adv-x="500" 
d="M488 291l-10 -57h-388l91 -112l-42 -35l-141 175l198 176l31 -35l-127 -112h388z" />
    <glyph glyph-name="arrowright" unicode="&#x2192;" horiz-adv-x="500" 
d="M4 234l10 57h388l-91 112l42 35l141 -175l-198 -176l-31 35l127 112h-388z" />
    <glyph glyph-name="arrowdown" unicode="&#x2193;" horiz-adv-x="500" 
d="M258 512h56l-67 -403l127 111l29 -34l-200 -174l-141 175l41 34l88 -112z" />
    <glyph glyph-name="partialdiff" unicode="&#x2202;" horiz-adv-x="594" 
d="M239 -12c-114 0 -180 74 -180 189c0 141 77 262 219 262c70 0 147 -44 159 -135c4 47 8 89 8 126c0 136 -38 210 -141 210c-48 0 -93 -14 -137 -41l-24 47c51 37 116 55 167 55c130 0 202 -82 202 -265c0 -188 -50 -448 -273 -448zM248 51c108 0 162 97 162 176
c0 94 -50 152 -125 152c-108 0 -154 -103 -154 -195s51 -133 117 -133z" />
    <glyph glyph-name="Delta" unicode="&#x2206;" horiz-adv-x="665" 
d="M262 720h90l260 -720h-609zM102 64h408l-204 575z" />
    <glyph glyph-name="product" unicode="&#x220f;" horiz-adv-x="696" 
d="M83 -140v860h530v-860h-77v795h-376v-795h-77z" />
    <glyph glyph-name="summation" unicode="&#x2211;" horiz-adv-x="577" 
d="M511 651h-366l223 -333l-229 -368h409v-69h-517v34l246 402l-246 369v34h480v-69z" />
    <glyph glyph-name="minus" unicode="&#x2212;" horiz-adv-x="600" 
d="M560 326v-57h-520v57h520z" />
    <glyph glyph-name="uni2215" unicode="&#x2215;" horiz-adv-x="112" 
d="M-234 -1l544 721h62l-544 -721h-62z" />
    <glyph glyph-name="uni2219" unicode="&#x2219;" horiz-adv-x="272" 
d="M85 338c0 33 22 52 53 52s53 -18 53 -52c0 -28 -22 -50 -53 -50c-33 0 -53 20 -53 50z" />
    <glyph glyph-name="radical" unicode="&#x221a;" horiz-adv-x="724" 
d="M36 251v56h188l129 -381l303 898h68l-336 -990h-72l-145 417h-135z" />
    <glyph glyph-name="infinity" unicode="&#x221e;" horiz-adv-x="764" 
d="M709 313c0 -98 -60 -161 -136 -161c-87 0 -143 66 -187 112c-52 -63 -111 -112 -180 -112c-90 0 -150 55 -150 150c0 91 59 157 153 157c78 0 128 -51 178 -118c55 63 105 119 184 119c92 0 138 -68 138 -147zM652 307c0 56 -27 101 -90 101c-53 0 -86 -34 -143 -104
c40 -50 95 -100 148 -100c58 0 85 53 85 103zM354 303c-51 72 -92 104 -143 104c-69 0 -98 -51 -98 -104c0 -58 34 -101 98 -101c45 0 97 37 143 101z" />
    <glyph glyph-name="integral" unicode="&#x222b;" horiz-adv-x="358" 
d="M11 -143h53c52 0 80 27 80 109v666c0 90 37 158 134 158h66v-57h-55c-59 0 -78 -44 -78 -121v-644c0 -99 -26 -168 -142 -168h-58v57z" />
    <glyph glyph-name="approxequal" unicode="&#x2248;" horiz-adv-x="744" 
d="M671 448l29 -50c-74 -58 -142 -89 -208 -89c-99 0 -169 71 -255 71c-62 0 -110 -30 -167 -69l-28 53c73 53 141 86 213 86c94 0 172 -72 245 -72c56 0 105 25 171 70zM668 249l29 -50c-74 -58 -142 -89 -208 -89c-99 0 -169 71 -255 71c-62 0 -110 -30 -167 -69l-28 53
c73 53 141 86 213 86c94 0 172 -72 245 -72c56 0 105 25 171 70z" />
    <glyph glyph-name="notequal" unicode="&#x2260;" horiz-adv-x="600" 
d="M560 232v-53h-288l-109 -179h-64l109 179h-168v53h199l64 106h-263v53h295l81 132h64l-80 -132h160v-53h-192l-65 -106h257z" />
    <glyph glyph-name="lessequal" unicode="&#x2264;" horiz-adv-x="600" 
d="M560 56v-56h-520v56h520zM537 107l-496 218v37l496 218l22 -54l-421 -182l421 -181z" />
    <glyph glyph-name="greaterequal" unicode="&#x2265;" horiz-adv-x="600" 
d="M39 0v56h520v-56h-520zM558 325l-496 -218l-22 56l421 181l-421 182l22 54l496 -218v-37z" />
    <glyph glyph-name="triangle" unicode="&#x25b3;" horiz-adv-x="412" 
d="M335 320l-185 -117v231z" />
    <glyph glyph-name="lozenge" unicode="&#x25ca;" horiz-adv-x="612" 
d="M291 0l-191 352l191 348h60l199 -346l-199 -354h-60zM321 634l-151 -282l151 -286l158 286z" />
    <glyph glyph-name="circle" unicode="&#x25cb;" horiz-adv-x="592" 
d="M295 119c-113 0 -205 92 -205 205s92 205 205 205s205 -92 205 -205s-92 -205 -205 -205z" />
    <glyph glyph-name="onefifth" unicode="&#xf500;" horiz-adv-x="811" 
d="M70 -1l544 721h62l-544 -721h-62zM233 350h-59l48 287c-34 -12 -64 -20 -99 -21l1 43c43 8 95 31 129 61h42zM475 131l57 239h200l-12 -52h-150l-27 -108c18 12 47 26 84 26c61 0 90 -37 90 -91c0 -94 -72 -152 -163 -152c-41 0 -87 13 -118 38l28 40
c30 -17 61 -28 94 -28c57 0 99 31 99 91c0 31 -18 53 -55 53c-30 0 -54 -14 -71 -26l-8 -30h-48z" />
    <glyph glyph-name="twofifths" unicode="&#xf501;" horiz-adv-x="811" 
d="M136 -1l544 721h62l-544 -721h-62zM62 350l7 43l158 143c41 38 62 55 62 94c0 27 -18 41 -49 41c-34 0 -76 -19 -114 -44l-18 39c40 32 96 59 149 59c60 0 97 -30 97 -81c0 -45 -24 -83 -72 -126l-132 -116h169l-9 -52h-248zM511 131l57 239h200l-12 -52h-150l-27 -108
c18 12 47 26 84 26c61 0 90 -37 90 -91c0 -94 -72 -152 -163 -152c-41 0 -87 13 -118 38l28 40c30 -17 61 -28 94 -28c57 0 99 31 99 91c0 31 -18 53 -55 53c-30 0 -54 -14 -71 -26l-8 -30h-48z" />
    <glyph glyph-name="threefifths" unicode="&#xf502;" horiz-adv-x="811" 
d="M130 -1l544 721h62l-544 -721h-62zM502 131l57 239h200l-12 -52h-150l-27 -108c18 12 47 26 84 26c61 0 90 -37 90 -91c0 -94 -72 -152 -163 -152c-41 0 -87 13 -118 38l28 40c30 -17 61 -28 94 -28c57 0 99 31 99 91c0 31 -18 53 -55 53c-30 0 -54 -14 -71 -26l-8 -30
h-48zM68 393l35 39c27 -24 51 -38 95 -38c57 0 88 26 88 71c0 31 -22 48 -78 48c-8 0 -28 -1 -30 -1l9 52c63 1 106 24 106 73c0 29 -22 37 -54 37s-63 -10 -91 -26l-14 41c33 20 76 36 126 36c59 0 96 -25 96 -75c0 -51 -36 -91 -90 -106c60 -4 81 -37 81 -76
c0 -80 -68 -125 -152 -125c-53 0 -98 16 -127 50z" />
    <glyph glyph-name="fourfifths" unicode="&#xf503;" horiz-adv-x="811" 
d="M129 -1l544 721h62l-544 -721h-62zM515 131l57 239h200l-12 -52h-150l-27 -108c18 12 47 26 84 26c61 0 90 -37 90 -91c0 -94 -72 -152 -163 -152c-41 0 -87 13 -118 38l28 40c30 -17 61 -28 94 -28c57 0 99 31 99 91c0 31 -18 53 -55 53c-30 0 -54 -14 -71 -26l-8 -30
h-48zM270 664l-156 -189h125zM218 350l12 75h-184l9 48l203 247h80l-41 -245h42l-9 -50h-42l-12 -75h-58z" />
    <glyph glyph-name="onesixth" unicode="&#xf504;" horiz-adv-x="811" 
d="M74 -1l544 721h62l-544 -721h-62zM222 350h-59l48 287c-34 -12 -64 -20 -99 -21l1 43c43 8 95 31 129 61h42zM447 120c0 143 69 255 196 255c32 0 66 -9 93 -29l-28 -41c-24 15 -44 21 -68 21c-79 0 -109 -61 -127 -136c27 23 66 45 107 45c64 0 91 -42 91 -92
c0 -95 -69 -150 -154 -150c-77 0 -110 50 -110 127zM601 186c-36 0 -73 -25 -94 -43c-9 -66 11 -102 60 -102c46 0 86 28 86 92c0 36 -20 53 -52 53z" />
    <glyph glyph-name="fivesixths" unicode="&#xf505;" horiz-adv-x="811" 
d="M126 -1l544 721h62l-544 -721h-62zM476 120c0 143 69 255 196 255c32 0 66 -9 93 -29l-28 -41c-24 15 -44 21 -68 21c-79 0 -109 -61 -127 -136c27 23 66 45 107 45c64 0 91 -42 91 -92c0 -95 -69 -150 -154 -150c-77 0 -110 50 -110 127zM630 186c-36 0 -73 -25 -94 -43
c-9 -66 11 -102 60 -102c46 0 86 28 86 92c0 36 -20 53 -52 53zM108 481l57 239h200l-12 -52h-150l-27 -108c18 12 47 26 84 26c61 0 90 -37 90 -91c0 -94 -72 -152 -163 -152c-41 0 -87 13 -118 38l28 40c30 -17 61 -28 94 -28c57 0 99 31 99 91c0 31 -18 53 -55 53
c-30 0 -54 -14 -71 -26l-8 -30h-48z" />
    <glyph glyph-name="oneseventh" unicode="&#xf506;" horiz-adv-x="811" 
d="M72 -1l544 721h62l-544 -721h-62zM205 350h-59l48 287c-34 -12 -64 -20 -99 -21l1 43c43 8 95 31 129 61h42zM768 332l-203 -332h-60l1 6l195 312h-187l9 52h252z" />
    <glyph glyph-name="twosevenths" unicode="&#xf507;" horiz-adv-x="811" 
d="M118 -1l544 721h62l-544 -721h-62zM44 350l7 43l158 143c41 38 62 55 62 94c0 27 -18 41 -49 41c-34 0 -76 -19 -114 -44l-18 39c40 32 96 59 149 59c60 0 97 -30 97 -81c0 -45 -24 -83 -72 -126l-132 -116h169l-9 -52h-248zM782 332l-203 -332h-60l1 6l195 312h-187
l9 52h252z" />
    <glyph glyph-name="threesevenths" unicode="&#xf508;" horiz-adv-x="811" 
d="M113 -1l544 721h62l-544 -721h-62zM788 332l-203 -332h-60l1 6l195 312h-187l9 52h252zM45 393l35 39c27 -24 51 -38 95 -38c57 0 88 26 88 71c0 31 -22 48 -78 48c-8 0 -28 -1 -30 -1l9 52c63 1 106 24 106 73c0 29 -22 37 -54 37s-63 -10 -91 -26l-14 41
c33 20 76 36 126 36c59 0 96 -25 96 -75c0 -51 -36 -91 -90 -106c60 -4 81 -37 81 -76c0 -80 -68 -125 -152 -125c-53 0 -98 16 -127 50z" />
    <glyph glyph-name="foursevenths" unicode="&#xf509;" horiz-adv-x="811" 
d="M120 -1l544 721h62l-544 -721h-62zM267 664l-156 -189h125zM215 350l12 75h-184l9 48l203 247h80l-41 -245h42l-9 -50h-42l-12 -75h-58zM789 332l-203 -332h-60l1 6l195 312h-187l9 52h252z" />
    <glyph glyph-name="fivesevenths" unicode="&#xf50a;" horiz-adv-x="811" 
d="M96 -1l544 721h62l-544 -721h-62zM83 481l57 239h200l-12 -52h-150l-27 -108c18 12 47 26 84 26c61 0 90 -37 90 -91c0 -94 -72 -152 -163 -152c-41 0 -87 13 -118 38l28 40c30 -17 61 -28 94 -28c57 0 99 31 99 91c0 31 -18 53 -55 53c-30 0 -54 -14 -71 -26l-8 -30h-48
zM778 332l-203 -332h-60l1 6l195 312h-187l9 52h252z" />
    <glyph glyph-name="sixsevenths" unicode="&#xf50b;" horiz-adv-x="811" 
d="M115 -1l544 721h62l-544 -721h-62zM73 470c0 143 69 255 196 255c32 0 66 -9 93 -29l-28 -41c-24 15 -44 21 -68 21c-79 0 -109 -61 -127 -136c27 23 66 45 107 45c64 0 91 -42 91 -92c0 -95 -69 -150 -154 -150c-77 0 -110 50 -110 127zM227 536c-36 0 -73 -25 -94 -43
c-9 -66 11 -102 60 -102c46 0 86 28 86 92c0 36 -20 53 -52 53zM785 332l-203 -332h-60l1 6l195 312h-187l9 52h252z" />
    <glyph glyph-name="oneninth" unicode="&#xf50c;" horiz-adv-x="811" 
d="M61 -1l544 721h62l-544 -721h-62zM200 350h-59l48 287c-34 -12 -64 -20 -99 -21l1 43c43 8 95 31 129 61h42zM732 250c0 -147 -67 -257 -192 -257c-35 0 -72 10 -94 27l25 43c20 -12 44 -21 77 -21c67 0 99 55 119 132c-31 -32 -67 -45 -108 -45c-63 0 -90 46 -90 96
c0 94 68 150 155 150c76 0 108 -49 108 -125zM579 175c36 0 73 27 95 49c10 68 -10 103 -59 103s-90 -28 -90 -95c0 -37 19 -57 54 -57z" />
    <glyph glyph-name="twoninths" unicode="&#xf50d;" horiz-adv-x="811" 
d="M140 -1l544 721h62l-544 -721h-62zM59 350l7 43l158 143c41 38 62 55 62 94c0 27 -18 41 -49 41c-34 0 -76 -19 -114 -44l-18 39c40 32 96 59 149 59c60 0 97 -30 97 -81c0 -45 -24 -83 -72 -126l-132 -116h169l-9 -52h-248zM777 250c0 -147 -67 -257 -192 -257
c-35 0 -72 10 -94 27l25 43c20 -12 44 -21 77 -21c67 0 99 55 119 132c-31 -32 -67 -45 -108 -45c-63 0 -90 46 -90 96c0 94 68 150 155 150c76 0 108 -49 108 -125zM624 175c36 0 73 27 95 49c10 68 -10 103 -59 103s-90 -28 -90 -95c0 -37 19 -57 54 -57z" />
    <glyph glyph-name="fourninths" unicode="&#xf50e;" horiz-adv-x="811" 
d="M128 -1l544 721h62l-544 -721h-62zM276 664l-156 -189h125zM224 350l12 75h-184l9 48l203 247h80l-41 -245h42l-9 -50h-42l-12 -75h-58zM769 250c0 -147 -67 -257 -192 -257c-35 0 -72 10 -94 27l25 43c20 -12 44 -21 77 -21c67 0 99 55 119 132
c-31 -32 -67 -45 -108 -45c-63 0 -90 46 -90 96c0 94 68 150 155 150c76 0 108 -49 108 -125zM616 175c36 0 73 27 95 49c10 68 -10 103 -59 103s-90 -28 -90 -95c0 -37 19 -57 54 -57z" />
    <glyph glyph-name="fiveninths" unicode="&#xf50f;" horiz-adv-x="811" 
d="M115 -1l544 721h62l-544 -721h-62zM94 481l57 239h200l-12 -52h-150l-27 -108c18 12 47 26 84 26c61 0 90 -37 90 -91c0 -94 -72 -152 -163 -152c-41 0 -87 13 -118 38l28 40c30 -17 61 -28 94 -28c57 0 99 31 99 91c0 31 -18 53 -55 53c-30 0 -54 -14 -71 -26l-8 -30
h-48zM753 250c0 -147 -67 -257 -192 -257c-35 0 -72 10 -94 27l25 43c20 -12 44 -21 77 -21c67 0 99 55 119 132c-31 -32 -67 -45 -108 -45c-63 0 -90 46 -90 96c0 94 68 150 155 150c76 0 108 -49 108 -125zM600 175c36 0 73 27 95 49c10 68 -10 103 -59 103
s-90 -28 -90 -95c0 -37 19 -57 54 -57z" />
    <glyph glyph-name="sevenninths" unicode="&#xf510;" horiz-adv-x="811" 
d="M55 -1l544 721h62l-544 -721h-62zM749 250c0 -147 -67 -257 -192 -257c-35 0 -72 10 -94 27l25 43c20 -12 44 -21 77 -21c67 0 99 55 119 132c-31 -32 -67 -45 -108 -45c-63 0 -90 46 -90 96c0 94 68 150 155 150c76 0 108 -49 108 -125zM596 175c36 0 73 27 95 49
c10 68 -10 103 -59 103s-90 -28 -90 -95c0 -37 19 -57 54 -57zM345 682l-203 -332h-60l1 6l195 312h-187l9 52h252z" />
    <glyph glyph-name="eightninths" unicode="&#xf511;" horiz-adv-x="811" 
d="M118 -1l544 721h62l-544 -721h-62zM743 250c0 -147 -67 -257 -192 -257c-35 0 -72 10 -94 27l25 43c20 -12 44 -21 77 -21c67 0 99 55 119 132c-31 -32 -67 -45 -108 -45c-63 0 -90 46 -90 96c0 94 68 150 155 150c76 0 108 -49 108 -125zM590 175c36 0 73 27 95 49
c10 68 -10 103 -59 103s-90 -28 -90 -95c0 -37 19 -57 54 -57zM124 437c0 -29 24 -48 67 -48c51 0 89 28 89 70c0 34 -29 48 -73 64c-43 -20 -83 -40 -83 -86zM174 629c0 -29 27 -42 57 -56c31 14 69 38 69 71c0 25 -20 40 -54 40c-45 0 -72 -21 -72 -55zM68 428
c0 63 44 96 104 119c-35 14 -56 37 -56 72c0 64 56 106 137 106c65 0 101 -26 101 -72c0 -47 -35 -81 -84 -102c48 -21 70 -45 70 -83c0 -77 -65 -125 -155 -125c-75 0 -117 33 -117 85z" />
    <glyph glyph-name="zero.tosf" unicode="&#xf81e;" horiz-adv-x="582" 
d="M131 303c-6 -35 -9 -72 -9 -99c0 -108 34 -152 120 -152c107 0 166 77 197 256c6 34 9 63 9 89c0 105 -35 150 -120 150c-107 0 -169 -78 -197 -244zM56 307c33 195 125 305 278 305c127 0 189 -65 189 -206c0 -29 -3 -62 -8 -98c-33 -220 -127 -320 -282 -320
c-129 0 -186 69 -186 211c0 31 2 69 9 108z" />
    <glyph glyph-name="one.tosf" unicode="&#xf81f;" horiz-adv-x="582" 
d="M240 61l73 434c-55 -33 -113 -58 -177 -69v56c69 17 156 63 215 119h50l-91 -540h135l-10 -61h-358l10 61h153z" />
    <glyph glyph-name="two.tosf" unicode="&#xf820;" horiz-adv-x="582" 
d="M41 0l8 48l277 247c70 62 107 103 107 163c0 56 -44 88 -104 88s-122 -32 -181 -79l-30 46c64 58 144 99 229 99c91 0 163 -46 163 -138c0 -77 -28 -122 -122 -205l-232 -203h293l-11 -66h-397z" />
    <glyph glyph-name="three.tosf" unicode="&#xf821;" horiz-adv-x="582" 
d="M12 25l47 48c43 -49 90 -79 165 -79c93 0 168 57 168 153c0 59 -38 102 -138 102c-12 0 -45 -1 -50 -2l8 63c103 3 196 50 196 147c0 61 -45 89 -102 89c-56 0 -107 -19 -158 -51l-22 50c58 40 123 67 200 67c92 0 157 -48 157 -137c0 -94 -64 -159 -156 -185
c95 -10 138 -66 138 -139c0 -145 -120 -222 -249 -222c-85 0 -154 30 -204 96z" />
    <glyph glyph-name="four.tosf" unicode="&#xf822;" horiz-adv-x="582" 
d="M111 174h239l59 353zM311 -60l28 169h-318l10 58l364 434h95l-72 -427h82l-11 -65h-82l-28 -169h-68z" />
    <glyph glyph-name="five.tosf" unicode="&#xf823;" horiz-adv-x="582" 
d="M81 194l98 407h329l-16 -70h-265l-51 -214c32 29 81 54 144 54c107 0 161 -63 161 -168c0 -175 -122 -275 -270 -275c-60 0 -131 19 -184 65l38 53c45 -33 98 -51 149 -51c111 0 192 71 192 194c0 67 -35 118 -113 118c-55 0 -104 -28 -133 -56l-15 -57h-64z" />
    <glyph glyph-name="six.tosf" unicode="&#xf824;" horiz-adv-x="582" 
d="M80 214c0 294 129 506 329 506c50 0 104 -17 142 -58l-39 -49c-36 32 -70 44 -111 44c-150 0 -205 -163 -235 -290c52 45 116 73 186 73c103 0 151 -77 151 -174c0 -175 -101 -278 -245 -278c-122 0 -178 83 -178 226zM268 49c84 0 164 67 164 203c0 85 -45 123 -106 123
c-67 0 -136 -51 -169 -81c-3 -29 -5 -55 -5 -78c0 -120 41 -167 116 -167z" />
    <glyph glyph-name="seven.tosf" unicode="&#xf825;" horiz-adv-x="582" 
d="M534 550l-354 -610h-77l2 10l340 584h-333l12 67h419z" />
    <glyph glyph-name="eight.tosf" unicode="&#xf826;" horiz-adv-x="582" 
d="M128 158c0 -64 44 -107 123 -107c96 0 169 67 169 158c0 78 -62 119 -126 142c-86 -35 -166 -92 -166 -193zM219 536c0 -61 47 -100 101 -122c56 24 138 82 138 160c0 56 -39 86 -102 86c-80 0 -137 -49 -137 -124zM54 145c0 117 89 197 189 236c-63 27 -97 76 -97 141
c0 118 96 198 221 198c97 0 161 -51 161 -136c0 -88 -70 -160 -154 -199c79 -38 119 -91 119 -164c0 -140 -107 -233 -256 -233c-117 0 -183 59 -183 157z" />
    <glyph glyph-name="nine.tosf" unicode="&#xf827;" horiz-adv-x="582" 
d="M512 307c-41 -292 -156 -378 -300 -378c-65 0 -119 21 -160 57l38 48c31 -25 68 -46 129 -46c117 0 173 99 213 250c-56 -46 -119 -74 -190 -74c-111 0 -155 73 -155 170c0 15 1 30 3 46c19 149 119 232 246 232c129 0 182 -88 182 -220c0 -27 -2 -55 -6 -85zM329 548
c-80 0 -152 -50 -167 -164c-2 -16 -3 -30 -3 -43c0 -81 38 -116 100 -116c71 0 145 49 183 84c5 29 7 55 7 79c0 106 -45 160 -120 160z" />
    <glyph glyph-name="ampersand.alt" horiz-adv-x="694" 
d="M535 -9l-66 98c-72 -72 -141 -106 -229 -106c-112 0 -184 72 -184 178c0 115 70 197 204 256c-30 39 -51 83 -51 133c0 98 79 174 187 174c74 0 128 -31 128 -115c0 -11 -2 -26 -4 -41l-3 -21h-64l2 16c1 9 2 17 2 25c0 53 -27 76 -74 76c-59 0 -105 -44 -105 -100
c0 -35 19 -73 51 -120l99 -148l137 101l32 -48l-139 -104l135 -209zM258 47c66 0 124 35 183 94l-151 232c-106 -45 -162 -109 -162 -198c0 -71 47 -128 130 -128z" />
    <glyph glyph-name="J.alt" horiz-adv-x="380" 
d="M374 720l-89 -537c-21 -125 -91 -183 -238 -183h-65l11 68h53c100 0 149 25 164 118l89 534h75z" />
    <glyph glyph-name="Q.alt" horiz-adv-x="738" 
d="M64 368c36 213 154 335 314 360c20 3 41 5 62 5c159 0 260 -94 260 -274c0 -28 -3 -62 -8 -95c-39 -255 -170 -365 -340 -374l-19 -121h-71l19 121c-138 13 -225 99 -225 273c0 32 1 67 8 105zM146 368c-6 -34 -9 -65 -9 -93c0 -147 68 -218 191 -218c24 0 47 3 69 8
c109 27 185 123 214 303c5 28 7 55 7 79c0 140 -66 215 -188 215c-25 0 -49 -3 -71 -9c-111 -29 -186 -128 -213 -285z" />
    <glyph glyph-name="j.alt" horiz-adv-x="232" 
d="M189 525l-101 -601c-13 -78 -49 -127 -137 -127h-53l11 63h36c44 0 64 10 74 71l100 594h70zM129 660c0 32 26 54 57 54c26 0 41 -15 41 -39c0 -31 -23 -53 -56 -53c-25 0 -42 15 -42 38z" />
    <glyph glyph-name="m.alt" horiz-adv-x="799" 
d="M110 525h208c80 0 111 -28 116 -82c51 52 119 94 192 94c85 0 112 -49 112 -115c0 -19 -2 -38 -6 -59l-61 -363h-71l59 352c3 16 4 30 4 43c0 46 -18 73 -69 73c-62 0 -121 -58 -146 -84l-64 -384h-73l59 354c2 15 4 28 4 39c0 46 -22 66 -81 66h-123l-77 -459h-71z" />
    <glyph glyph-name="y.alt" horiz-adv-x="463" 
d="M404 525h75l-266 -533l-14 -80c-14 -86 -45 -112 -128 -112h-55l10 62h50c38 0 48 10 55 52l13 78l-94 533h75l70 -433z" />
    <glyph glyph-name="hyphen.case" horiz-adv-x="325" 
d="M37 321l12 70h259l-12 -70h-259z" />
    <glyph glyph-name="zero.num" horiz-adv-x="349" 
d="M80 536c22 126 80 189 167 189c71 0 107 -44 107 -129c0 -19 -1 -42 -5 -65c-23 -132 -74 -188 -160 -188c-71 0 -114 41 -114 128c0 19 1 42 5 65zM142 539c-4 -23 -6 -45 -6 -62c0 -58 19 -81 57 -81c44 0 80 36 97 138c3 19 5 38 5 53c0 59 -22 84 -57 84
c-44 0 -80 -35 -96 -132z" />
    <glyph glyph-name="one.num" horiz-adv-x="248" 
d="M198 350h-59l48 287c-34 -12 -64 -20 -99 -21l1 43c43 8 95 31 129 61h42z" />
    <glyph glyph-name="two.num" horiz-adv-x="298" 
d="M29 350l7 43l158 143c41 38 62 55 62 94c0 27 -18 41 -49 41c-34 0 -76 -19 -114 -44l-18 39c40 32 96 59 149 59c60 0 97 -30 97 -81c0 -45 -24 -83 -72 -126l-132 -116h169l-9 -52h-248z" />
    <glyph glyph-name="three.num" horiz-adv-x="310" 
d="M31 393l35 39c27 -24 51 -38 95 -38c57 0 88 26 88 71c0 31 -22 48 -78 48c-8 0 -28 -1 -30 -1l9 52c63 1 106 24 106 73c0 29 -22 37 -54 37s-63 -10 -91 -26l-14 41c33 20 76 36 126 36c59 0 96 -25 96 -75c0 -51 -36 -91 -90 -106c60 -4 81 -37 81 -76
c0 -80 -68 -125 -152 -125c-53 0 -98 16 -127 50z" />
    <glyph glyph-name="four.num" horiz-adv-x="327" 
d="M263 664l-156 -189h125zM211 350l12 75h-184l9 48l203 247h80l-41 -245h42l-9 -50h-42l-12 -75h-58z" />
    <glyph glyph-name="five.num" horiz-adv-x="318" 
d="M80 481l57 239h200l-12 -52h-150l-27 -108c18 12 47 26 84 26c61 0 90 -37 90 -91c0 -94 -72 -152 -163 -152c-41 0 -87 13 -118 38l28 40c30 -17 61 -28 94 -28c57 0 99 31 99 91c0 31 -18 53 -55 53c-30 0 -54 -14 -71 -26l-8 -30h-48z" />
    <glyph glyph-name="six.num" horiz-adv-x="326" 
d="M71 470c0 143 69 255 196 255c32 0 66 -9 93 -29l-28 -41c-24 15 -44 21 -68 21c-79 0 -109 -61 -127 -136c27 23 66 45 107 45c64 0 91 -42 91 -92c0 -95 -69 -150 -154 -150c-77 0 -110 50 -110 127zM225 536c-36 0 -73 -25 -94 -43c-9 -66 11 -102 60 -102
c46 0 86 28 86 92c0 36 -20 53 -52 53z" />
    <glyph glyph-name="seven.num" horiz-adv-x="281" 
d="M336 682l-203 -332h-60l1 6l195 312h-187l9 52h252z" />
    <glyph glyph-name="eight.num" horiz-adv-x="323" 
d="M110 437c0 -29 24 -48 67 -48c51 0 89 28 89 70c0 34 -29 48 -73 64c-43 -20 -83 -40 -83 -86zM160 629c0 -29 27 -42 57 -56c31 14 69 38 69 71c0 25 -20 40 -54 40c-45 0 -72 -21 -72 -55zM54 428c0 63 44 96 104 119c-35 14 -56 37 -56 72c0 64 56 106 137 106
c65 0 101 -26 101 -72c0 -47 -35 -81 -84 -102c48 -21 70 -45 70 -83c0 -77 -65 -125 -155 -125c-75 0 -117 33 -117 85z" />
    <glyph glyph-name="nine.num" horiz-adv-x="326" 
d="M340 600c0 -147 -67 -257 -192 -257c-35 0 -72 10 -94 27l25 43c20 -12 44 -21 77 -21c67 0 99 55 119 132c-31 -32 -67 -45 -108 -45c-63 0 -90 46 -90 96c0 94 68 150 155 150c76 0 108 -49 108 -125zM187 525c36 0 73 27 95 49c10 68 -10 103 -59 103s-90 -28 -90 -95
c0 -37 19 -57 54 -57z" />
    <glyph glyph-name="zero.denom" horiz-adv-x="349" 
d="M22 186c22 126 80 189 167 189c71 0 107 -44 107 -129c0 -19 -1 -42 -5 -65c-23 -132 -74 -188 -160 -188c-71 0 -114 41 -114 128c0 19 1 42 5 65zM84 189c-4 -23 -6 -45 -6 -62c0 -58 19 -81 57 -81c44 0 80 36 97 138c3 19 5 38 5 53c0 59 -22 84 -57 84
c-44 0 -80 -35 -96 -132z" />
    <glyph glyph-name="one.denom" horiz-adv-x="248" 
d="M140 0h-59l48 287c-34 -12 -64 -20 -99 -21l1 43c43 8 95 31 129 61h42z" />
    <glyph glyph-name="two.denom" horiz-adv-x="298" 
d="M-30 0l7 43l158 143c41 38 62 55 62 94c0 27 -18 41 -49 41c-34 0 -76 -19 -114 -44l-18 39c40 32 96 59 149 59c60 0 97 -30 97 -81c0 -45 -24 -83 -72 -126l-132 -116h169l-9 -52h-248z" />
    <glyph glyph-name="three.denom" horiz-adv-x="310" 
d="M-27 43l35 39c27 -24 51 -38 95 -38c57 0 88 26 88 71c0 31 -22 48 -78 48c-8 0 -28 -1 -30 -1l9 52c63 1 106 24 106 73c0 29 -22 37 -54 37s-63 -10 -91 -26l-14 41c33 20 76 36 126 36c59 0 96 -25 96 -75c0 -51 -36 -91 -90 -106c60 -4 81 -37 81 -76
c0 -80 -68 -125 -152 -125c-53 0 -98 16 -127 50z" />
    <glyph glyph-name="four.denom" horiz-adv-x="327" 
d="M204 314l-156 -189h125zM152 0l12 75h-184l9 48l203 247h80l-41 -245h42l-9 -50h-42l-12 -75h-58z" />
    <glyph glyph-name="five.denom" horiz-adv-x="318" 
d="M21 131l57 239h200l-12 -52h-150l-27 -108c18 12 47 26 84 26c61 0 90 -37 90 -91c0 -94 -72 -152 -163 -152c-41 0 -87 13 -118 38l28 40c30 -17 61 -28 94 -28c57 0 99 31 99 91c0 31 -18 53 -55 53c-30 0 -54 -14 -71 -26l-8 -30h-48z" />
    <glyph glyph-name="six.denom" horiz-adv-x="326" 
d="M13 120c0 143 69 255 196 255c32 0 66 -9 93 -29l-28 -41c-24 15 -44 21 -68 21c-79 0 -109 -61 -127 -136c27 23 66 45 107 45c64 0 91 -42 91 -92c0 -95 -69 -150 -154 -150c-77 0 -110 50 -110 127zM167 186c-36 0 -73 -25 -94 -43c-9 -66 11 -102 60 -102
c46 0 86 28 86 92c0 36 -20 53 -52 53z" />
    <glyph glyph-name="seven.denom" horiz-adv-x="281" 
d="M277 332l-203 -332h-60l1 6l195 312h-187l9 52h252z" />
    <glyph glyph-name="eight.denom" horiz-adv-x="323" 
d="M51 87c0 -29 24 -48 67 -48c51 0 89 28 89 70c0 34 -29 48 -73 64c-43 -20 -83 -40 -83 -86zM101 279c0 -29 27 -42 57 -56c31 14 69 38 69 71c0 25 -20 40 -54 40c-45 0 -72 -21 -72 -55zM-5 78c0 63 44 96 104 119c-35 14 -56 37 -56 72c0 64 56 106 137 106
c65 0 101 -26 101 -72c0 -47 -35 -81 -84 -102c48 -21 70 -45 70 -83c0 -77 -65 -125 -155 -125c-75 0 -117 33 -117 85z" />
    <glyph glyph-name="nine.denom" horiz-adv-x="326" 
d="M281 250c0 -147 -67 -257 -192 -257c-35 0 -72 10 -94 27l25 43c20 -12 44 -21 77 -21c67 0 99 55 119 132c-31 -32 -67 -45 -108 -45c-63 0 -90 46 -90 96c0 94 68 150 155 150c76 0 108 -49 108 -125zM128 175c36 0 73 27 95 49c10 68 -10 103 -59 103s-90 -28 -90 -95
c0 -37 19 -57 54 -57z" />
    <glyph glyph-name="zero.tf" horiz-adv-x="582" 
d="M141 353c-8 -49 -13 -97 -13 -133c0 -118 38 -169 120 -169c105 0 172 94 208 304c8 50 12 93 12 130c0 117 -33 169 -114 169c-107 0 -177 -89 -213 -301zM68 353c44 256 140 367 293 367c121 0 182 -70 182 -227c0 -40 -5 -85 -13 -136c-41 -260 -142 -369 -293 -369
c-120 0 -182 73 -182 229c0 40 4 85 13 136z" />
    <glyph glyph-name="one.tf" horiz-adv-x="582" 
d="M239 61l91 542c-55 -33 -113 -58 -177 -69v56c69 17 156 63 215 119h50l-109 -648h135l-10 -61h-358l10 61h153z" />
    <glyph glyph-name="two.tf" horiz-adv-x="582" 
d="M54 0l9 51l311 335c69 74 90 114 90 167c0 59 -39 98 -105 98c-59 0 -121 -31 -180 -80l-32 49c66 60 148 100 233 100c89 0 160 -61 160 -155c0 -82 -41 -141 -105 -209l-275 -290h303l-11 -66h-398z" />
    <glyph glyph-name="three.tf" horiz-adv-x="582" 
d="M30 84l47 48c45 -50 90 -79 165 -79c90 0 172 60 172 164c0 68 -38 115 -138 116c-12 0 -45 -2 -50 -2l8 64c104 2 200 71 200 166c0 62 -45 93 -102 93c-56 0 -107 -18 -157 -51l-23 50c58 40 123 67 199 67c93 0 156 -52 156 -142c0 -92 -69 -174 -160 -204
c96 -9 138 -67 138 -147c0 -154 -122 -239 -251 -239c-85 0 -152 28 -204 96z" />
    <glyph glyph-name="four.tf" horiz-adv-x="582" 
d="M128 234h241l67 401zM330 0l28 169h-317l10 58l373 482h94l-80 -475h80l-11 -65h-80l-28 -169h-69z" />
    <glyph glyph-name="five.tf" horiz-adv-x="582" 
d="M112 288l100 421h329l-16 -70h-266l-59 -251c32 29 82 54 147 54c104 0 156 -64 156 -167c0 -183 -121 -287 -270 -287c-59 0 -131 19 -185 65l39 54c46 -34 98 -53 152 -53c109 0 190 69 190 204c0 71 -34 121 -110 121c-59 0 -106 -29 -135 -57l-8 -34h-64z" />
    <glyph glyph-name="six.tf" horiz-adv-x="582" 
d="M84 214c0 294 129 506 329 506c50 0 104 -17 142 -58l-39 -49c-36 32 -70 44 -111 44c-150 0 -205 -163 -235 -290c52 45 116 73 186 73c103 0 151 -77 151 -174c0 -175 -101 -278 -245 -278c-122 0 -178 83 -178 226zM272 49c84 0 164 67 164 203c0 85 -45 123 -106 123
c-67 0 -136 -51 -169 -81c-3 -29 -5 -55 -5 -78c0 -120 41 -167 116 -167z" />
    <glyph glyph-name="seven.tf" horiz-adv-x="582" 
d="M558 659l-369 -659h-78l2 9l355 635h-358l12 65h445z" />
    <glyph glyph-name="eight.tf" horiz-adv-x="582" 
d="M133 158c0 -64 44 -107 123 -107c96 0 169 67 169 158c0 78 -62 119 -126 142c-86 -35 -166 -92 -166 -193zM224 536c0 -61 47 -100 101 -122c56 24 138 82 138 160c0 56 -39 86 -102 86c-80 0 -137 -49 -137 -124zM59 145c0 117 89 197 189 236c-63 27 -97 76 -97 141
c0 118 96 198 221 198c97 0 161 -51 161 -136c0 -88 -70 -160 -154 -199c79 -38 119 -91 119 -164c0 -140 -107 -233 -256 -233c-117 0 -183 59 -183 157z" />
    <glyph glyph-name="nine.tf" horiz-adv-x="582" 
d="M522 409c-44 -305 -158 -421 -309 -421c-65 0 -116 21 -151 56l36 48c31 -25 61 -45 122 -45c117 0 187 130 222 295c-56 -46 -119 -74 -190 -74c-111 0 -149 77 -149 174c0 15 1 30 3 46c19 149 113 232 240 232c129 0 182 -88 182 -220c0 -27 -2 -61 -6 -91zM339 657
c-80 0 -146 -51 -161 -165c-2 -16 -3 -30 -3 -43c0 -81 32 -120 94 -120c71 0 145 49 183 84c5 29 7 59 7 83c0 106 -45 161 -120 161z" />
    <glyph glyph-name="dollar.tf" horiz-adv-x="582" 
d="M199 -87l15 87c-84 6 -143 48 -182 98l49 44c44 -51 99 -84 163 -84c88 0 166 49 166 140c0 53 -33 88 -132 121c-109 35 -156 80 -156 160c0 119 90 192 206 202l14 85h59l-14 -85c68 -8 123 -40 156 -92l-48 -40c-37 48 -90 75 -146 75c-84 0 -155 -43 -155 -127
c0 -62 49 -89 138 -119c106 -36 151 -87 151 -164c0 -119 -94 -199 -210 -214l-15 -87h-59z" />
    <glyph glyph-name="Euro.tf" horiz-adv-x="582" 
d="M19 390l14 55h70c43 140 158 275 316 275c76 0 157 -30 199 -122l-50 -35c-33 63 -91 97 -160 97c-110 0 -193 -91 -235 -215h324l-13 -55h-326c-3 -12 -4 -21 -6 -33c-3 -18 -5 -32 -6 -48h318l-13 -55h-306c4 -124 62 -204 163 -204c81 0 138 34 193 79l29 -43
c-71 -65 -146 -98 -239 -98c-152 0 -216 123 -217 266h-87l13 55h76c0 16 3 29 6 47c2 12 3 21 6 34h-69z" />
    <glyph glyph-name="cent.tf" horiz-adv-x="582" 
d="M452 201l31 -50c-53 -41 -110 -64 -165 -70l-17 -99h-62l16 100c-103 15 -166 90 -166 215c0 196 111 312 258 326l16 97h61l-16 -100c89 -14 134 -82 124 -186h-68c5 88 -34 125 -103 125c-118 0 -194 -100 -194 -250c0 -93 40 -167 129 -167c61 0 99 20 156 59z" />
    <glyph glyph-name="sterling.tf" horiz-adv-x="582" 
d="M274 245c0 -77 -49 -133 -94 -179h284l-11 -66h-406l10 60l48 4c47 46 101 106 101 174c0 28 -7 66 -11 85h-92l9 56h72c-14 47 -26 91 -26 132c0 128 112 209 232 209c76 0 139 -27 175 -85l-48 -43c-29 40 -72 63 -130 63c-92 0 -155 -50 -155 -139
c0 -37 11 -82 26 -137h163l-9 -56h-145c4 -20 7 -54 7 -78z" />
    <glyph glyph-name="yen.tf" horiz-adv-x="582" 
d="M79 335l9 55h163l-125 319h77l112 -300l216 300h76l-235 -319h165l-9 -55h-192l-14 -82h192l-9 -56h-192l-33 -197h-67l33 197h-190l9 56h190l14 82h-190z" />
    <glyph glyph-name="florin.tf" horiz-adv-x="582" 
d="M45 -144h40c45 0 65 30 80 99l81 390h-78v54h89l32 158c17 82 40 152 139 152h60v-57h-49c-59 0 -68 -43 -84 -119l-29 -134h94v-54h-104l-67 -329c-30 -142 -44 -216 -153 -216h-51v56z" />
    <glyph glyph-name="zero.osf" horiz-adv-x="589" 
d="M136 303c-6 -35 -9 -72 -9 -99c0 -108 37 -152 125 -152c107 0 171 77 202 256c6 34 9 63 9 89c0 105 -40 150 -125 150c-107 0 -174 -78 -202 -244zM61 307c33 195 130 305 283 305c127 0 194 -65 194 -206c0 -29 -3 -62 -8 -98c-33 -220 -132 -320 -287 -320
c-129 0 -191 69 -191 211c0 31 2 69 9 108z" />
    <glyph glyph-name="one.osf" horiz-adv-x="427" 
d="M174 61l73 434c-55 -33 -113 -58 -177 -69v56c69 17 156 63 215 119h50l-91 -540h135l-10 -61h-358l10 61h153z" />
    <glyph glyph-name="two.osf" horiz-adv-x="504" 
d="M-4 0l8 48l277 247c70 62 107 103 107 163c0 56 -44 88 -104 88s-122 -32 -181 -79l-30 46c64 58 144 99 229 99c91 0 163 -46 163 -138c0 -77 -28 -122 -122 -205l-232 -203h293l-11 -66h-397z" />
    <glyph glyph-name="three.osf" horiz-adv-x="505" 
d="M-28 25l47 48c43 -49 90 -79 165 -79c93 0 168 57 168 153c0 59 -38 102 -138 102c-12 0 -45 -1 -50 -2l8 63c103 3 196 50 196 147c0 61 -45 89 -102 89c-56 0 -107 -19 -158 -51l-22 50c58 40 123 67 200 67c92 0 157 -48 157 -137c0 -94 -64 -159 -156 -185
c95 -10 138 -66 138 -139c0 -145 -120 -222 -249 -222c-85 0 -154 30 -204 96z" />
    <glyph glyph-name="four.osf" horiz-adv-x="545" 
d="M101 174h244l59 353zM306 -60l28 169h-321l10 58l368 434h95l-72 -427h81l-11 -65h-81l-28 -169h-69z" />
    <glyph glyph-name="five.osf" horiz-adv-x="514" 
d="M46 194l98 407h329l-16 -70h-265l-51 -214c32 29 81 54 144 54c107 0 161 -63 161 -168c0 -175 -122 -275 -270 -275c-60 0 -131 19 -184 65l38 53c45 -33 98 -51 149 -51c111 0 192 71 192 194c0 67 -35 118 -113 118c-55 0 -104 -28 -133 -56l-15 -57h-64z" />
    <glyph glyph-name="six.osf" horiz-adv-x="532" 
d="M56 214c0 294 129 506 329 506c50 0 104 -17 142 -58l-39 -49c-36 32 -70 44 -111 44c-150 0 -205 -163 -235 -290c52 45 116 73 186 73c103 0 151 -77 151 -174c0 -175 -101 -278 -245 -278c-122 0 -178 83 -178 226zM244 49c84 0 164 67 164 203c0 85 -45 123 -106 123
c-67 0 -136 -51 -169 -81c-3 -29 -5 -55 -5 -78c0 -120 41 -167 116 -167z" />
    <glyph glyph-name="seven.osf" horiz-adv-x="443" 
d="M458 550l-354 -610h-77l2 10l340 584h-314l12 67h400z" />
    <glyph glyph-name="eight.osf" horiz-adv-x="490" 
d="M82 158c0 -64 44 -107 123 -107c96 0 169 67 169 158c0 78 -62 119 -126 142c-86 -35 -166 -92 -166 -193zM173 536c0 -61 47 -100 101 -122c56 24 138 82 138 160c0 56 -39 86 -102 86c-80 0 -137 -49 -137 -124zM8 145c0 117 89 197 189 236c-63 27 -97 76 -97 141
c0 118 96 198 221 198c97 0 161 -51 161 -136c0 -88 -70 -160 -154 -199c79 -38 119 -91 119 -164c0 -140 -107 -233 -256 -233c-117 0 -183 59 -183 157z" />
    <glyph glyph-name="nine.osf" horiz-adv-x="521" 
d="M481 307c-41 -292 -156 -378 -300 -378c-65 0 -119 21 -160 57l38 48c31 -25 68 -46 129 -46c117 0 173 99 213 250c-56 -46 -119 -74 -190 -74c-111 0 -155 73 -155 170c0 15 1 30 3 46c19 149 119 232 246 232c129 0 182 -88 182 -220c0 -27 -2 -55 -6 -85zM298 548
c-80 0 -152 -50 -167 -164c-2 -16 -3 -30 -3 -43c0 -81 38 -116 100 -116c71 0 145 49 183 84c5 29 7 55 7 79c0 106 -45 160 -120 160z" />
    <glyph glyph-name="dollar.osf" horiz-adv-x="519" 
d="M159 -87l15 87c-84 6 -143 48 -182 98l49 44c44 -51 99 -84 163 -84c88 0 166 49 166 140c0 53 -33 88 -132 121c-109 35 -156 80 -156 160c0 119 90 192 206 202l14 85h59l-14 -85c68 -8 123 -40 156 -92l-48 -40c-37 48 -90 75 -146 75c-84 0 -155 -43 -155 -127
c0 -62 49 -89 138 -119c106 -36 151 -87 151 -164c0 -119 -94 -199 -210 -214l-15 -87h-59z" />
    <glyph glyph-name="Euro.osf" horiz-adv-x="587" 
d="M16 390l14 55h70c43 140 158 275 316 275c76 0 157 -30 199 -122l-50 -35c-33 63 -91 97 -160 97c-110 0 -193 -91 -235 -215h324l-13 -55h-326c-3 -12 -4 -21 -6 -33c-3 -18 -5 -32 -6 -48h318l-13 -55h-306c4 -124 62 -204 163 -204c81 0 138 34 193 79l29 -43
c-71 -65 -146 -98 -239 -98c-152 0 -216 123 -217 266h-87l13 55h76c0 16 3 29 6 47c2 12 3 21 6 34h-69z" />
    <glyph glyph-name="cent.osf" horiz-adv-x="525" 
d="M408 123l31 -50c-53 -41 -110 -64 -165 -70l-17 -99h-62l16 100c-103 15 -166 90 -166 215c0 196 111 312 258 326l16 97h61l-16 -100c89 -14 134 -82 124 -186h-68c5 88 -34 125 -103 125c-118 0 -194 -100 -194 -250c0 -93 40 -167 129 -167c61 0 99 20 156 59z" />
    <glyph glyph-name="sterling.osf" horiz-adv-x="474" 
d="M217 245c0 -77 -49 -133 -94 -179h284l-11 -66h-406l10 60l48 4c47 46 101 106 101 174c0 28 -7 66 -11 85h-92l9 56h72c-14 47 -26 91 -26 132c0 128 112 209 232 209c76 0 139 -27 175 -85l-48 -43c-29 40 -72 63 -130 63c-92 0 -155 -50 -155 -139
c0 -37 11 -82 26 -137h163l-9 -56h-145c4 -20 7 -54 7 -78z" />
    <glyph glyph-name="yen.osf" horiz-adv-x="539" 
d="M48 335l9 55h163l-125 319h77l112 -300l216 300h76l-235 -319h165l-9 -55h-192l-14 -82h192l-9 -56h-192l-33 -197h-67l33 197h-190l9 56h190l14 82h-190z" />
    <glyph glyph-name="florin.osf" horiz-adv-x="441" 
d="M-18 -144h40c45 0 65 30 80 99l81 390h-78v54h89l32 158c17 82 40 152 139 152h60v-57h-49c-59 0 -68 -43 -84 -119l-29 -134h94v-54h-104l-67 -329c-30 -142 -44 -216 -153 -216h-51v56z" />
    <glyph glyph-name="dollar.tosf" horiz-adv-x="582" 
d="M199 -87l15 87c-84 6 -143 48 -182 98l49 44c44 -51 99 -84 163 -84c88 0 166 49 166 140c0 53 -33 88 -132 121c-109 35 -156 80 -156 160c0 119 90 192 206 202l14 85h59l-14 -85c68 -8 123 -40 156 -92l-48 -40c-37 48 -90 75 -146 75c-84 0 -155 -43 -155 -127
c0 -62 49 -89 138 -119c106 -36 151 -87 151 -164c0 -119 -94 -199 -210 -214l-15 -87h-59z" />
    <glyph glyph-name="Euro.tosf" horiz-adv-x="582" 
d="M26 390l14 55h70c43 140 158 275 316 275c76 0 157 -30 199 -122l-50 -35c-33 63 -91 97 -160 97c-110 0 -193 -91 -235 -215h324l-13 -55h-326c-3 -12 -4 -21 -6 -33c-3 -18 -5 -32 -6 -48h318l-13 -55h-306c4 -124 62 -204 163 -204c81 0 138 34 193 79l29 -43
c-71 -65 -146 -98 -239 -98c-152 0 -216 123 -217 266h-87l13 55h76c0 16 3 29 6 47c2 12 3 21 6 34h-69z" />
    <glyph glyph-name="cent.tosf" horiz-adv-x="582" 
d="M435 121l31 -50c-53 -41 -110 -64 -165 -70l-17 -99h-62l16 100c-103 15 -166 90 -166 215c0 196 111 312 258 326l16 97h61l-16 -100c89 -14 134 -82 124 -186h-68c5 88 -34 125 -103 125c-118 0 -194 -100 -194 -250c0 -93 40 -167 129 -167c61 0 99 20 156 59z" />
    <glyph glyph-name="sterling.tosf" horiz-adv-x="582" 
d="M278 245c0 -77 -49 -133 -94 -179h284l-11 -66h-406l10 60l48 4c47 46 101 106 101 174c0 28 -7 66 -11 85h-92l9 56h72c-14 47 -26 91 -26 132c0 128 112 209 232 209c76 0 139 -27 175 -85l-48 -43c-29 40 -72 63 -130 63c-92 0 -155 -50 -155 -139
c0 -37 11 -82 26 -137h163l-9 -56h-145c4 -20 7 -54 7 -78z" />
    <glyph glyph-name="yen.tosf" horiz-adv-x="582" 
d="M79 335l9 55h163l-125 319h77l112 -300l216 300h76l-235 -319h165l-9 -55h-192l-14 -82h192l-9 -56h-192l-33 -197h-67l33 197h-190l9 56h190l14 82h-190z" />
    <glyph glyph-name="florin.tosf" horiz-adv-x="600" 
d="M49 -144h40c45 0 65 30 80 99l81 390h-78v54h89l32 158c17 82 40 152 139 152h60v-57h-49c-59 0 -68 -43 -84 -119l-29 -134h94v-54h-104l-67 -329c-30 -142 -44 -216 -153 -216h-51v56z" />
    <glyph glyph-name="Jcircumflex.alt" horiz-adv-x="379" 
d="M364 720l-89 -537c-21 -125 -91 -183 -238 -183h-65l11 68h53c100 0 149 25 164 118l89 534h75zM323 889h52l75 -99l-35 -31l-77 72l-99 -72l-28 31z" />
    <glyph glyph-name="jcircumflex.alt" horiz-adv-x="232" 
d="M189 525l-101 -601c-13 -78 -49 -127 -137 -127h-58l11 63h43c42 0 62 10 72 71l100 594h70zM169 755h50l79 -148l-39 -25l-74 113l-113 -113l-30 25z" />
    <glyph glyph-name="ygrave.alt" horiz-adv-x="464" 
d="M197 758l131 -139l-32 -35l-149 123zM375 525h75l-266 -533l-14 -80c-14 -86 -45 -112 -128 -112h-55l10 62h50c38 0 48 10 55 52l13 78l-94 533h75l70 -433z" />
    <glyph glyph-name="ycircumflex.alt" horiz-adv-x="463" 
d="M404 525h75l-266 -533l-14 -80c-14 -86 -45 -112 -128 -112h-55l10 62h50c38 0 48 10 55 52l13 78l-94 533h75l70 -433zM278 755h51l79 -148l-41 -27l-73 113l-111 -112l-33 26z" />
    <glyph glyph-name="ydieresis.alt" horiz-adv-x="463" 
d="M404 525h75l-266 -533l-14 -80c-14 -86 -45 -112 -128 -112h-55l10 62h50c38 0 48 10 55 52l13 78l-94 533h75l70 -433zM328 646c0 28 22 52 55 52c25 0 38 -16 38 -38c0 -28 -23 -51 -53 -51c-26 0 -40 16 -40 37zM145 646c0 28 24 52 54 52c26 0 40 -17 40 -38
c0 -29 -25 -51 -54 -51c-26 0 -40 16 -40 37z" />
    <glyph glyph-name="yacute.alt" horiz-adv-x="464" 
d="M168 615l159 133l40 -52l-167 -122zM375 525h75l-266 -533l-14 -80c-14 -86 -45 -112 -128 -112h-55l10 62h50c38 0 48 10 55 52l13 78l-94 533h75l70 -433z" />
    <glyph glyph-name="agrave.alt" horiz-adv-x="503" 
d="M343 216l4 24c-19 3 -39 5 -77 5c-136 0 -189 -47 -189 -125c0 -45 28 -74 85 -74c86 0 165 95 177 170zM438 354l-59 -354h-60l10 97c-47 -72 -112 -109 -190 -109c-80 0 -129 44 -129 123s45 192 266 192c30 0 53 -2 81 -6l9 53c2 11 3 21 3 31c0 61 -35 93 -100 93
c-58 0 -104 -26 -155 -64l-28 51c56 48 128 76 198 76c97 0 158 -41 158 -136c0 -14 -1 -30 -4 -47zM274 758l131 -139l-32 -35l-149 123z" />
    <glyph glyph-name="a.alt" horiz-adv-x="503" 
d="M343 216l4 24c-19 3 -39 5 -77 5c-136 0 -189 -47 -189 -125c0 -45 28 -74 85 -74c86 0 165 95 177 170zM438 354l-59 -354h-60l10 97c-47 -72 -112 -109 -190 -109c-80 0 -129 44 -129 123s45 192 266 192c30 0 53 -2 81 -6l9 53c2 11 3 21 3 31c0 61 -35 93 -100 93
c-58 0 -104 -26 -155 -64l-28 51c56 48 128 76 198 76c97 0 158 -41 158 -136c0 -14 -1 -30 -4 -47z" />
    <glyph glyph-name="aacute.alt" horiz-adv-x="503" 
d="M343 216l4 24c-19 3 -39 5 -77 5c-136 0 -189 -47 -189 -125c0 -45 28 -74 85 -74c86 0 165 95 177 170zM438 354l-59 -354h-60l10 97c-47 -72 -112 -109 -190 -109c-80 0 -129 44 -129 123s45 192 266 192c30 0 53 -2 81 -6l9 53c2 11 3 21 3 31c0 61 -35 93 -100 93
c-58 0 -104 -26 -155 -64l-28 51c56 48 128 76 198 76c97 0 158 -41 158 -136c0 -14 -1 -30 -4 -47zM216 625l159 133l40 -52l-167 -122z" />
    <glyph glyph-name="acircumflex.alt" horiz-adv-x="503" 
d="M343 216l4 24c-19 3 -39 5 -77 5c-136 0 -189 -47 -189 -125c0 -45 28 -74 85 -74c86 0 165 95 177 170zM438 354l-59 -354h-60l10 97c-47 -72 -112 -109 -190 -109c-80 0 -129 44 -129 123s45 192 266 192c30 0 53 -2 81 -6l9 53c2 11 3 21 3 31c0 61 -35 93 -100 93
c-58 0 -104 -26 -155 -64l-28 51c56 48 128 76 198 76c97 0 158 -41 158 -136c0 -14 -1 -30 -4 -47zM286 755h51l79 -148l-41 -27l-73 113l-111 -112l-33 26z" />
    <glyph glyph-name="atilde.alt" horiz-adv-x="503" 
d="M343 216l4 24c-19 3 -39 5 -77 5c-136 0 -189 -47 -189 -125c0 -45 28 -74 85 -74c86 0 165 95 177 170zM438 354l-59 -354h-60l10 97c-47 -72 -112 -109 -190 -109c-80 0 -129 44 -129 123s45 192 266 192c30 0 53 -2 81 -6l9 53c2 11 3 21 3 31c0 61 -35 93 -100 93
c-58 0 -104 -26 -155 -64l-28 51c56 48 128 76 198 76c97 0 158 -41 158 -136c0 -14 -1 -30 -4 -47zM412 697l36 -16c-25 -55 -54 -75 -88 -75c-46 0 -89 33 -117 33c-16 0 -25 -7 -46 -36l-37 17c30 55 58 75 90 75c44 0 76 -33 115 -33c19 0 29 7 47 35z" />
    <glyph glyph-name="adieresis.alt" horiz-adv-x="503" 
d="M343 216l4 24c-19 3 -39 5 -77 5c-136 0 -189 -47 -189 -125c0 -45 28 -74 85 -74c86 0 165 95 177 170zM438 354l-59 -354h-60l10 97c-47 -72 -112 -109 -190 -109c-80 0 -129 44 -129 123s45 192 266 192c30 0 53 -2 81 -6l9 53c2 11 3 21 3 31c0 61 -35 93 -100 93
c-58 0 -104 -26 -155 -64l-28 51c56 48 128 76 198 76c97 0 158 -41 158 -136c0 -14 -1 -30 -4 -47zM362 646c0 28 22 52 55 52c25 0 38 -16 38 -38c0 -28 -23 -51 -53 -51c-26 0 -40 16 -40 37zM179 646c0 28 24 52 54 52c26 0 40 -17 40 -38c0 -29 -25 -51 -54 -51
c-26 0 -40 16 -40 37z" />
    <glyph glyph-name="aring.alt" horiz-adv-x="503" 
d="M268 655c0 -23 14 -36 37 -36c31 0 51 24 51 55c0 21 -13 34 -37 34c-31 0 -51 -22 -51 -53zM219 648c0 60 50 104 108 104c45 0 77 -29 77 -73c0 -61 -49 -103 -107 -103c-47 0 -78 27 -78 72zM343 216l4 24c-19 3 -39 5 -77 5c-136 0 -189 -47 -189 -125
c0 -45 28 -74 85 -74c86 0 165 95 177 170zM438 354l-59 -354h-60l10 97c-47 -72 -112 -109 -190 -109c-80 0 -129 44 -129 123s45 192 266 192c30 0 53 -2 81 -6l9 53c2 11 3 21 3 31c0 61 -35 93 -100 93c-58 0 -104 -26 -155 -64l-28 51c56 48 128 76 198 76
c97 0 158 -41 158 -136c0 -14 -1 -30 -4 -47z" />
    <glyph glyph-name="amacron.alt" horiz-adv-x="503" 
d="M343 216l4 24c-19 3 -39 5 -77 5c-136 0 -189 -47 -189 -125c0 -45 28 -74 85 -74c86 0 165 95 177 170zM438 354l-59 -354h-60l10 97c-47 -72 -112 -109 -190 -109c-80 0 -129 44 -129 123s45 192 266 192c30 0 53 -2 81 -6l9 53c2 11 3 21 3 31c0 61 -35 93 -100 93
c-58 0 -104 -26 -155 -64l-28 51c56 48 128 76 198 76c97 0 158 -41 158 -136c0 -14 -1 -30 -4 -47zM168 621l10 58h265l-10 -58h-265z" />
    <glyph glyph-name="abreve.alt" horiz-adv-x="503" 
d="M343 216l4 24c-19 3 -39 5 -77 5c-136 0 -189 -47 -189 -125c0 -45 28 -74 85 -74c86 0 165 95 177 170zM438 354l-59 -354h-60l10 97c-47 -72 -112 -109 -190 -109c-80 0 -129 44 -129 123s45 192 266 192c30 0 53 -2 81 -6l9 53c2 11 3 21 3 31c0 61 -35 93 -100 93
c-58 0 -104 -26 -155 -64l-28 51c56 48 128 76 198 76c97 0 158 -41 158 -136c0 -14 -1 -30 -4 -47zM300 646c62 0 87 37 102 89l50 -9c-20 -86 -71 -131 -159 -131c-83 0 -119 44 -121 124l53 10c3 -52 15 -83 75 -83z" />
    <glyph glyph-name="aogonek.alt" horiz-adv-x="503" 
d="M438 354l-59 -354c-65 -50 -106 -95 -106 -138c0 -19 11 -28 33 -28c20 0 37 6 57 15l12 -42c-17 -9 -39 -19 -62 -25c-12 -3 -24 -5 -36 -5c-50 0 -74 26 -74 63c0 63 57 120 116 166l10 91c-38 -58 -87 -93 -145 -105c-15 -3 -29 -4 -45 -4c-80 0 -129 44 -129 123
s46 192 266 192c30 0 53 -2 81 -6l9 53c2 11 3 21 3 31c0 61 -35 93 -100 93c-15 0 -29 -2 -42 -5c-40 -9 -75 -31 -113 -59l-28 51c45 38 100 64 156 73c14 2 28 3 42 3c97 0 158 -41 158 -136c0 -14 -1 -30 -4 -47zM343 216l4 24c-19 3 -39 5 -77 5
c-136 0 -189 -47 -189 -125c0 -45 28 -74 85 -74c86 0 165 95 177 170z" />
    <glyph glyph-name="gcircumflex.alt" horiz-adv-x="567" 
d="M531 525l-87 -518c-29 -172 -123 -207 -281 -207h-129l11 64h132c134 0 181 42 201 157l8 51c-43 -45 -106 -81 -177 -81c-123 0 -174 86 -174 204c0 174 87 342 262 342c86 0 133 -54 155 -91l13 79h66zM395 138l40 237c-16 35 -64 94 -140 94
c-115 0 -183 -112 -183 -260c0 -91 32 -153 115 -153c74 0 135 51 168 82zM346 755h51l79 -148l-41 -27l-73 113l-111 -112l-33 26z" />
    <glyph glyph-name="g.alt" horiz-adv-x="567" 
d="M531 525l-87 -518c-29 -172 -123 -207 -281 -207h-129l11 64h132c134 0 181 42 201 157l8 51c-43 -45 -106 -81 -177 -81c-123 0 -174 86 -174 204c0 174 87 342 262 342c86 0 133 -54 155 -91l13 79h66zM395 138l40 237c-16 35 -64 94 -140 94
c-115 0 -183 -112 -183 -260c0 -91 32 -153 115 -153c74 0 135 51 168 82z" />
    <glyph glyph-name="gbreve.alt" horiz-adv-x="567" 
d="M360 646c62 0 87 37 102 89l50 -9c-20 -86 -71 -131 -159 -131c-83 0 -119 44 -121 124l53 10c3 -52 15 -83 75 -83zM531 525l-87 -518c-29 -172 -123 -207 -281 -207h-129l11 64h132c134 0 181 42 201 157l8 51c-43 -45 -106 -81 -177 -81c-123 0 -174 86 -174 204
c0 174 87 342 262 342c86 0 133 -54 155 -91l13 79h66zM395 138l40 237c-16 35 -64 94 -140 94c-115 0 -183 -112 -183 -260c0 -91 32 -153 115 -153c74 0 135 51 168 82z" />
    <glyph glyph-name="gdotaccent.alt" horiz-adv-x="567" 
d="M531 525l-87 -518c-29 -172 -123 -207 -281 -207h-129l11 64h132c134 0 181 42 201 157l8 51c-43 -45 -106 -81 -177 -81c-123 0 -174 86 -174 204c0 174 87 342 262 342c86 0 133 -54 155 -91l13 79h66zM395 138l40 237c-16 35 -64 94 -140 94
c-115 0 -183 -112 -183 -260c0 -91 32 -153 115 -153c74 0 135 51 168 82zM300 661c0 31 26 52 57 52c25 0 41 -15 41 -39c0 -30 -25 -51 -56 -51c-25 0 -42 15 -42 38z" />
    <glyph glyph-name="gcommaaccent.alt" horiz-adv-x="567" 
d="M531 525l-87 -518c-29 -172 -123 -207 -281 -207h-129l11 64h132c134 0 181 42 201 157l8 51c-43 -45 -106 -81 -177 -81c-123 0 -174 86 -174 204c0 174 87 342 262 342c86 0 133 -54 155 -91l13 79h66zM395 138l40 237c-16 35 -64 94 -140 94
c-115 0 -183 -112 -183 -260c0 -91 32 -153 115 -153c74 0 135 51 168 82zM433 751l-69 -164l-65 19l83 159z" />
    <glyph glyph-name="e.alt" horiz-adv-x="508" 
d="M402 110l25 -52c-65 -50 -131 -70 -201 -70c-121 0 -194 66 -194 200c0 157 88 349 283 349c108 0 163 -57 163 -173c0 -40 -6 -79 -13 -122h-355c-3 -17 -4 -34 -4 -50c0 -85 34 -140 136 -140c57 0 103 20 160 58zM121 304h282c3 18 4 37 4 53c0 69 -27 118 -105 118
c-121 0 -171 -117 -181 -171z" />
    <glyph glyph-name="egrave.alt" horiz-adv-x="508" 
d="M402 110l25 -52c-65 -50 -131 -70 -201 -70c-121 0 -194 66 -194 200c0 157 88 349 283 349c108 0 163 -57 163 -173c0 -40 -6 -79 -13 -122h-355c-3 -17 -4 -34 -4 -50c0 -85 34 -140 136 -140c57 0 103 20 160 58zM121 304h282c3 18 4 37 4 53c0 69 -27 118 -105 118
c-121 0 -171 -117 -181 -171zM257 758l131 -139l-32 -35l-149 123z" />
    <glyph glyph-name="eacute.alt" horiz-adv-x="508" 
d="M402 110l25 -52c-65 -50 -131 -70 -201 -70c-121 0 -194 66 -194 200c0 157 88 349 283 349c108 0 163 -57 163 -173c0 -40 -6 -79 -13 -122h-355c-3 -17 -4 -34 -4 -50c0 -85 34 -140 136 -140c57 0 103 20 160 58zM121 304h282c3 18 4 37 4 53c0 69 -27 118 -105 118
c-121 0 -171 -117 -181 -171zM247 625l159 133l40 -52l-167 -122z" />
    <glyph glyph-name="ecircumflex.alt" horiz-adv-x="508" 
d="M402 110l25 -52c-65 -50 -131 -70 -201 -70c-121 0 -194 66 -194 200c0 157 88 349 283 349c108 0 163 -57 163 -173c0 -40 -6 -79 -13 -122h-355c-3 -17 -4 -34 -4 -50c0 -85 34 -140 136 -140c57 0 103 20 160 58zM121 304h282c3 18 4 37 4 53c0 69 -27 118 -105 118
c-121 0 -171 -117 -181 -171zM340 755h51l79 -148l-41 -27l-73 113l-111 -112l-33 26z" />
    <glyph glyph-name="edieresis.alt" horiz-adv-x="508" 
d="M402 110l25 -52c-65 -50 -131 -70 -201 -70c-121 0 -194 66 -194 200c0 157 88 349 283 349c108 0 163 -57 163 -173c0 -40 -6 -79 -13 -122h-355c-3 -17 -4 -34 -4 -50c0 -85 34 -140 136 -140c57 0 103 20 160 58zM121 304h282c3 18 4 37 4 53c0 69 -27 118 -105 118
c-121 0 -171 -117 -181 -171zM392 646c0 28 22 52 55 52c25 0 38 -16 38 -38c0 -28 -23 -51 -53 -51c-26 0 -40 16 -40 37zM209 646c0 28 24 52 54 52c26 0 40 -17 40 -38c0 -29 -25 -51 -54 -51c-26 0 -40 16 -40 37z" />
    <glyph glyph-name="emacron.alt" horiz-adv-x="508" 
d="M402 110l25 -52c-65 -50 -131 -70 -201 -70c-121 0 -194 66 -194 200c0 157 88 349 283 349c108 0 163 -57 163 -173c0 -40 -6 -79 -13 -122h-355c-3 -17 -4 -34 -4 -50c0 -85 34 -140 136 -140c57 0 103 20 160 58zM121 304h282c3 18 4 37 4 53c0 69 -27 118 -105 118
c-121 0 -171 -117 -181 -171zM204 621l10 58h265l-10 -58h-265z" />
    <glyph glyph-name="ebreve.alt" horiz-adv-x="508" 
d="M402 110l25 -52c-65 -50 -131 -70 -201 -70c-121 0 -194 66 -194 200c0 157 88 349 283 349c108 0 163 -57 163 -173c0 -40 -6 -79 -13 -122h-355c-3 -17 -4 -34 -4 -50c0 -85 34 -140 136 -140c57 0 103 20 160 58zM121 304h282c3 18 4 37 4 53c0 69 -27 118 -105 118
c-121 0 -171 -117 -181 -171zM329 646c62 0 87 37 102 89l50 -9c-20 -86 -71 -131 -159 -131c-83 0 -119 44 -121 124l53 10c3 -52 15 -83 75 -83z" />
    <glyph glyph-name="edotaccent.alt" horiz-adv-x="508" 
d="M402 110l25 -52c-65 -50 -131 -70 -201 -70c-121 0 -194 66 -194 200c0 157 88 349 283 349c108 0 163 -57 163 -173c0 -40 -6 -79 -13 -122h-355c-3 -17 -4 -34 -4 -50c0 -85 34 -140 136 -140c57 0 103 20 160 58zM121 304h282c3 18 4 37 4 53c0 69 -27 118 -105 118
c-121 0 -171 -117 -181 -171zM291 661c0 31 26 52 57 52c25 0 41 -15 41 -39c0 -30 -25 -51 -56 -51c-25 0 -42 15 -42 38z" />
    <glyph glyph-name="eogonek.alt" horiz-adv-x="508" 
d="M402 110l25 -52c-37 -29 -70 -42 -104 -61c-66 -37 -113 -92 -113 -135c0 -19 11 -28 33 -28c20 0 37 6 57 15l12 -42c-25 -14 -61 -30 -98 -30c-50 0 -74 26 -74 63c0 55 43 105 94 148h-8c-121 0 -194 66 -194 200c0 157 88 349 283 349c108 0 163 -57 163 -173
c0 -40 -6 -79 -13 -122h-355c-3 -17 -4 -34 -4 -50c0 -85 34 -140 136 -140c57 0 103 20 160 58zM121 304h282c3 18 4 37 4 53c0 69 -27 118 -105 118c-121 0 -171 -117 -181 -171z" />
    <glyph glyph-name="ecaron.alt" horiz-adv-x="508" 
d="M402 110l25 -52c-65 -50 -131 -70 -201 -70c-121 0 -194 66 -194 200c0 157 88 349 283 349c108 0 163 -57 163 -173c0 -40 -6 -79 -13 -122h-355c-3 -17 -4 -34 -4 -50c0 -85 34 -140 136 -140c57 0 103 20 160 58zM121 304h282c3 18 4 37 4 53c0 69 -27 118 -105 118
c-121 0 -171 -117 -181 -171zM348 586h-51l-79 148l43 26l72 -112l112 114l32 -28z" />
    <glyph glyph-name="ae.alt" horiz-adv-x="820" 
d="M714 110l25 -52c-65 -50 -131 -70 -201 -70c-98 0 -161 42 -183 128c-65 -100 -141 -128 -216 -128c-80 0 -129 44 -129 123s45 192 266 192c30 0 53 -2 81 -6l9 53c2 11 3 21 3 31c0 61 -35 93 -100 93c-58 0 -104 -26 -155 -64l-28 51c56 48 128 76 198 76
c79 0 131 -26 150 -91c47 57 111 91 193 91c108 0 163 -57 163 -173c0 -40 -6 -79 -13 -122h-354c-3 -17 -4 -34 -4 -50c0 -85 40 -140 135 -140c57 0 103 20 160 58zM343 216l4 24c-19 3 -39 5 -77 5c-136 0 -189 -47 -189 -125c0 -45 28 -74 85 -74c86 0 165 95 177 170z
M434 304h281c3 18 4 37 4 53c0 69 -27 118 -105 118c-121 0 -170 -117 -180 -171z" />
    <glyph glyph-name="oe.alt" horiz-adv-x="898" 
d="M792 110l25 -52c-65 -50 -131 -70 -201 -70c-88 0 -155 44 -176 117c-49 -75 -127 -117 -217 -117c-125 0 -191 74 -191 202c0 22 1 48 5 73c30 174 132 274 283 274c90 0 153 -51 172 -128c40 71 119 128 213 128c108 0 163 -57 163 -173c0 -40 -6 -79 -13 -122h-354
c-3 -17 -4 -34 -4 -50c0 -85 40 -140 135 -140c57 0 103 20 160 58zM112 262c-3 -22 -4 -43 -4 -61c0 -107 49 -149 127 -149c91 0 168 67 192 210c4 21 5 41 5 59c0 102 -49 153 -127 153c-92 0 -172 -73 -193 -212zM512 304h281c3 18 4 37 4 53c0 69 -27 118 -105 118
c-121 0 -170 -117 -180 -171z" />
    <glyph glyph-name="apple" horiz-adv-x="2406" 
d="M1677 -97l-17 -8c5 -11 9 -23 9 -37c0 -61 -92 -112 -242 -112c-80 0 -146 21 -190 57c-49 -25 -103 -43 -159 -43c-60 0 -115 15 -148 43c-43 -61 -145 -85 -250 -85c-101 0 -246 56 -241 172c-27 14 -48 36 -55 56c-32 -13 -70 -22 -118 -22c-113 0 -162 98 -138 205
c16 77 87 150 172 189c-23 33 -29 79 -19 122c24 108 98 163 156 163c4 0 8 0 12 -1c41 40 127 56 187 56c51 0 108 -8 155 -26c49 68 135 111 227 111c6 0 13 -1 19 -2c48 66 159 103 289 103c110 0 202 -54 247 -134c53 17 111 23 168 23c69 0 241 -25 274 -115
c16 9 35 15 54 15c77 0 131 -57 115 -125c-5 -25 -10 -34 -20 -49c54 -33 88 -100 68 -189c-8 -31 -19 -58 -34 -80c67 -46 79 -128 64 -196c-22 -98 -123 -124 -206 -124c-22 0 -45 3 -66 8c-19 -24 -67 -46 -127 -46c-58 0 -127 29 -148 88l-28 -12
c13 -82 100 -123 187 -123c54 0 97 10 159 40l1 -2c-47 -25 -100 -42 -159 -42c-92 0 -179 32 -198 122zM692 505c16 0 33 -2 50 -7c2 25 8 50 17 74c-28 8 -60 13 -94 13c-46 0 -96 -8 -149 -29c6 -11 9 -24 9 -39c0 -75 -46 -119 -88 -119c-30 0 -47 28 -39 63
c4 21 19 39 38 54c-9 13 -13 31 -8 50c3 13 9 25 19 35c-3 1 -7 1 -10 1c-57 0 -121 -53 -145 -161c-10 -39 -7 -85 13 -120c38 16 76 27 115 27c30 0 56 -20 51 -43c-4 -23 -25 -35 -74 -35c-43 0 -75 17 -95 44c-77 -40 -134 -113 -150 -181c-27 -117 13 -206 114 -206
c47 0 85 9 117 22c-11 26 -11 54 -3 83c9 39 42 62 67 62c26 0 30 -30 26 -51c-5 -33 -33 -70 -84 -94c6 -20 25 -40 51 -53c0 6 1 13 3 19c14 65 72 113 137 121c0 0 0 -1 1 -1c-61 -8 -109 -57 -123 -120c-2 -9 -3 -17 -4 -26c26 -10 58 -13 90 -4v-1
c-32 -11 -63 -9 -90 0c0 -104 122 -163 226 -163c102 0 209 22 249 84c-23 21 -34 47 -26 80c2 13 8 24 16 34c-7 7 -16 13 -26 18c-65 -51 -138 -95 -200 -95c-47 0 -94 23 -82 75c10 42 84 51 137 51c37 0 84 -5 122 -19c80 60 161 130 262 134c-7 18 -13 39 -16 59
c-20 -16 -41 -23 -62 -23c-34 0 -41 39 -35 71l35 158h-80c-14 -72 -31 -156 -43 -213c-17 -85 -91 -128 -146 -128c-35 0 -74 11 -102 44l2 2c21 -18 37 -30 68 -30c68 0 94 72 104 114c14 54 34 141 50 211h-45c0 2 0 5 1 8h46l17 68c17 80 78 127 140 127
c31 0 101 -7 116 -64c18 9 62 26 99 26c39 0 59 -9 47 -66c-5 -24 -13 -56 -21 -89c79 12 124 63 143 120c-30 7 -61 33 -61 71c0 31 16 61 43 87c-29 37 -73 59 -111 59c-55 0 -86 -32 -86 -69c0 -19 9 -39 27 -50l-3 -2c-18 10 -37 33 -37 52c0 43 37 73 99 73
c39 0 84 -23 113 -60c33 31 82 56 137 72c-42 75 -130 129 -245 129c-119 0 -227 -34 -276 -101c30 -9 61 -33 49 -71c-5 -19 -21 -31 -47 -31c-24 0 -43 26 -35 62c4 14 10 29 18 42c-5 1 -11 1 -17 1c-92 0 -169 -46 -218 -113c46 -20 80 -52 89 -99c2 -9 2 -25 -4 -35
l-2 2c4 9 5 24 3 33c-9 45 -43 76 -88 96c-12 -16 -22 -34 -30 -53c34 -11 103 -38 91 -95c-6 -24 -63 -51 -99 -66c-49 -20 -92 -46 -112 -87c-15 -31 -16 -82 18 -97c7 86 76 129 115 129c47 0 67 -38 46 -74c-22 -36 -57 -51 -98 -59c-2 -43 13 -75 35 -75
c18 0 35 11 46 25c-7 10 -13 17 -10 27c2 9 7 12 19 12c6 0 9 -3 10 -7c1 -6 -1 -12 -3 -16c-3 -5 -5 -10 -9 -14c11 -14 27 -31 22 -57c-7 -31 -46 -55 -98 -55c-43 0 -137 38 -212 73c-19 -11 -43 -18 -70 -18c-35 0 -73 22 -73 62c0 18 15 29 21 29c13 0 34 -19 71 -39
c4 10 9 19 12 26l88 224c26 66 80 85 114 85zM1421 148c40 0 64 35 78 92c8 35 3 54 -6 77l2 1c13 -27 17 -51 10 -82c-15 -66 -47 -102 -116 -102c-47 0 -74 62 -59 126c16 66 72 96 108 96c20 0 34 -5 41 -15c14 9 30 14 49 14h27l15 68c17 79 78 127 140 127
c20 0 44 -2 72 -14l10 -6c13 9 27 14 42 18c-3 8 -3 17 -2 26c3 23 17 37 34 51l3 -1c-15 -17 -21 -34 -24 -50c-2 -8 -1 -17 0 -24c9 1 18 2 26 2c38 0 68 -22 84 -52c33 11 51 37 57 61c4 18 4 34 0 48c-25 -19 -41 -44 -41 -44c0 15 16 35 39 50
c-30 89 -198 116 -269 116c-58 0 -115 -8 -165 -24c20 -39 28 -83 17 -130c-16 -57 -74 -102 -128 -102c-3 0 -8 0 -11 1c-19 -60 -65 -115 -148 -127c-16 -66 -34 -137 -40 -165c-9 -46 -3 -79 35 -79c20 0 24 2 50 16l3 -3c-37 -25 -77 -34 -109 -34c-42 0 -67 30 -53 89
c10 48 31 115 47 174h-118l-36 -160c-3 -16 0 -38 15 -38c5 0 10 2 14 5c0 9 -1 18 -1 27c0 45 16 65 34 65c17 0 18 -16 14 -34c-7 -32 -19 -42 -34 -60c2 -24 8 -48 15 -70c36 -1 53 -9 51 -26c-1 -8 -5 -13 -13 -14c5 1 8 7 9 14c2 15 -14 23 -46 24c7 -20 19 -37 33 -38
c-21 1 -35 16 -43 38c-88 -5 -147 -81 -238 -143c10 -5 19 -10 26 -17c31 36 93 52 147 52c37 0 71 -9 105 -22c2 9 3 19 6 28c13 64 101 104 135 104c13 0 7 -17 16 -29c19 -22 39 -31 69 -31c68 0 95 72 106 114l48 211h-25c-18 0 -33 -6 -43 -13c4 -7 6 -13 6 -20
c0 -11 -8 -18 -18 -18s-16 8 -16 16c0 12 7 20 16 26c-5 5 -10 8 -21 8c-25 0 -46 -33 -61 -97c-13 -56 5 -101 30 -101zM2149 211l3 1c12 -4 22 -9 32 -14c12 22 21 48 28 78c18 82 -5 145 -50 179c-28 -45 -70 -49 -80 -49c-18 0 -46 12 -46 34s23 42 50 42
c24 0 47 -5 68 -17c8 14 14 29 19 50c15 66 -35 117 -104 117c-19 0 -37 -8 -52 -19c5 -16 5 -33 1 -53c-6 -25 -25 -51 -61 -63c11 -22 14 -47 8 -71c-16 -60 -73 -79 -130 -79h-72c-14 -54 -25 -107 -38 -160c-2 -16 1 -38 17 -38c7 0 15 6 22 13c-7 19 -8 41 -2 63
c5 28 23 45 33 45c18 0 13 -26 10 -38c-8 -31 -19 -55 -31 -71c7 -27 23 -49 47 -61c8 45 36 59 63 59c19 0 36 -15 30 -35c-3 -21 -25 -35 -51 -35c-10 0 -18 1 -27 3c0 -39 24 -64 60 -74c14 30 50 52 90 52c9 0 19 -1 28 -5l-1 -2c-10 4 -19 5 -27 5
c-37 0 -70 -22 -83 -52c9 -2 19 -3 29 -3c70 0 124 35 153 98c-15 -4 -36 -6 -51 -6c-76 0 -102 57 -92 103c13 54 57 82 101 82c50 0 87 -47 73 -127c-4 -20 -6 -28 -15 -43c35 13 61 38 81 75c-10 6 -21 11 -33 16zM1745 68l2 -2c-42 -43 -68 -81 -62 -148l28 9
c-13 46 1 95 46 129l3 -3c-48 -34 -55 -89 -45 -123c48 16 106 29 154 29h21c-3 12 -3 25 -1 40c1 5 2 11 4 16c-44 10 -76 39 -74 82c-25 10 -43 30 -54 55c-22 -25 -47 -34 -73 -34c-34 0 -40 39 -34 71c11 53 22 105 34 158h-74l-46 -212c-18 -86 -90 -129 -145 -129
c-35 0 -76 9 -102 44c-11 15 -1 30 -13 30c-37 0 -122 -51 -125 -137c43 -18 85 -43 127 -62c61 38 148 71 205 71c53 0 106 -15 132 -48c7 4 15 8 23 11c-6 63 22 110 69 153zM1998 -101c0 -6 -3 -13 -8 -20c21 -5 44 -8 66 -8c71 0 165 30 189 129c14 62 12 139 -50 186
c-24 -35 -57 -59 -96 -71c-32 -67 -93 -104 -167 -104c-11 0 -21 1 -30 2c-2 -4 -3 -9 -4 -14c-2 -15 -2 -29 1 -41c62 -5 99 -26 99 -59zM755 495c9 -4 20 -15 16 -26c-3 -7 -9 -11 -18 -10c-7 1 -12 14 -11 24v10c-7 2 -16 4 -22 4c-35 0 -62 -42 -76 -81l-70 -220
c-7 -23 -21 -41 -39 -55c71 -35 152 -73 204 -72c75 1 97 53 89 81c-1 7 -8 14 -14 20c-16 -22 -45 -36 -82 -36c-39 0 -68 40 -66 91c-38 12 -46 65 -30 100c21 41 73 71 122 88c35 12 82 41 88 65c13 54 -39 79 -79 91c-10 -23 -17 -47 -20 -71zM948 -159
c-3 -11 -8 -22 -14 -32c3 -3 6 -7 10 -10c32 -27 87 -36 134 -36c58 0 102 22 144 51c-34 36 -52 82 -49 134c-34 13 -69 22 -105 22c-56 0 -110 -20 -135 -61c11 -13 17 -29 17 -48c0 -6 0 -12 -2 -20zM1918 492c-36 0 -72 22 -83 52c-13 -3 -25 -9 -36 -19
c10 -7 15 -18 15 -26c0 -11 -8 -19 -22 -19c-16 0 -23 9 -23 18c0 6 2 11 6 15c3 6 9 9 13 13c-33 17 -51 15 -63 15c-36 0 -71 -39 -83 -95l-20 -91h17c62 0 125 42 131 76c-1 8 0 22 9 22c6 0 12 -8 9 -15c-2 -9 -4 -19 -8 -28c-6 -19 -13 -37 -16 -55h67
c43 0 101 15 118 72c6 21 4 46 -4 67c-8 -1 -17 -2 -27 -2zM1134 531c-30 10 -40 10 -51 10c-37 0 -75 -39 -88 -95l-19 -91h19c55 0 122 29 146 91h2l-21 -91h119c9 31 17 59 22 79c11 41 -14 61 -42 61c-14 0 -25 -6 -34 -12l-4 -1c1 -3 2 -7 2 -11c0 -11 -2 -20 -14 -20
c-7 0 -14 7 -10 17c3 7 9 12 18 16c-7 23 -27 39 -45 47zM1656 -142c0 12 -3 23 -7 33c-58 -27 -121 -51 -186 -51c-44 0 -83 12 -121 28c-29 -20 -63 -42 -100 -62c42 -36 105 -58 185 -58c147 0 229 50 229 110zM1589 577c10 46 3 91 -16 129c-54 -18 -101 -45 -131 -78
c15 -23 24 -49 24 -79c0 -23 -4 -48 -11 -71c3 -1 6 -1 9 -1c51 0 112 44 125 100zM2100 160c20 87 -19 128 -57 128c-49 0 -78 -46 -80 -95c-2 -30 6 -67 39 -81c9 -3 19 -5 32 -5c17 0 37 2 53 7c7 15 10 24 13 46zM1871 -42c-54 0 -106 -17 -152 -37
c20 -58 87 -88 144 -88c55 0 98 24 112 49c-40 12 -73 36 -82 76h-22zM1521 -50c-26 0 -50 -7 -75 -18c-34 -16 -68 -39 -102 -62c38 -16 77 -29 119 -29c59 0 105 23 155 47l25 12c-21 34 -69 50 -122 50zM693 -157c53 0 110 51 175 104c-38 13 -83 18 -120 18
c-49 0 -114 -12 -126 -51c-12 -44 26 -71 71 -71zM640 655c-64 0 -141 -17 -178 -55c23 -6 42 -19 53 -41c51 19 105 27 150 27c34 0 67 -4 95 -12c7 20 17 38 29 55c-46 19 -101 26 -149 26zM521 517c0 15 -3 27 -8 38l-7 -3c-20 -9 -43 -21 -62 -37c6 -12 18 -19 36 -18
c1 -1 1 -2 1 -2c-18 -2 -32 5 -42 16c-15 -14 -27 -30 -31 -50c-7 -34 3 -61 29 -61c37 0 84 48 84 117zM420 345c-40 0 -77 -11 -113 -28c17 -27 47 -47 90 -47c46 0 65 12 70 34c4 23 -18 41 -47 41zM389 29c-5 -28 -7 -53 -1 -77c48 24 74 59 80 90c2 15 4 49 -21 49
c-18 0 -49 -22 -58 -62zM1229 -180c28 17 55 43 85 59l-54 27c-25 13 -47 25 -71 35c-4 -45 11 -88 40 -121zM795 346c-22 0 -39 -24 -54 -68c-4 -14 -9 -32 -11 -47c40 9 75 24 92 58c4 7 6 14 6 21c0 19 -12 36 -33 36zM1462 549c0 29 -9 55 -23 76
c-20 -23 -32 -49 -32 -77c0 -36 19 -62 44 -69c7 23 11 47 11 70zM2082 408c10 0 44 11 69 54c-18 12 -41 18 -65 18s-45 -18 -45 -40s25 -32 41 -32zM1095 668c12 34 -17 59 -47 68c-9 -13 -16 -26 -20 -42c-9 -38 10 -54 24 -54c24 0 38 10 43 28zM1863 91
c21 0 36 8 43 33c3 11 -3 32 -22 32c-28 0 -44 -23 -48 -62c8 -2 17 -3 27 -3zM392 177c0 -19 15 -48 38 -48c19 0 33 17 43 34l-54 29c-8 5 -12 6 -16 6c-3 0 -11 -5 -11 -21zM1918 494c9 0 18 1 26 3c-12 29 -36 52 -73 52c-8 0 -17 -1 -25 -2c8 -30 38 -53 72 -53z
M443 565c-5 -18 -5 -33 -1 -45c20 15 43 26 62 34l8 3c-11 22 -30 36 -51 41c-9 -9 -15 -21 -18 -33zM1980 -101c0 32 -29 52 -80 58c9 -37 39 -60 76 -73c3 5 4 10 4 15zM1771 170c3 4 6 9 8 14c13 22 20 49 20 48c2 6 10 37 -4 37c-8 0 -17 -18 -24 -44
c-4 -18 -4 -37 0 -55zM921 -121c-8 -28 -2 -51 12 -68c8 14 13 31 13 50c0 18 -6 32 -15 45c-5 -8 -8 -17 -10 -27zM1126 164c14 15 24 27 28 48c3 15 6 32 -7 32c-11 0 -22 -19 -22 -63c0 -5 0 -12 1 -17zM1782 498c0 -8 4 -16 10 -16c11 0 18 7 18 17s-5 19 -15 23
c-6 -6 -13 -14 -13 -24zM752 491c-2 0 -3 0 -6 1v-9c-1 -11 2 -22 8 -23c5 0 10 4 12 9c5 11 -6 17 -14 22zM1480 332c-6 -3 -13 -12 -13 -21c0 -7 3 -11 8 -11c8 0 11 7 11 14s-3 14 -6 18zM823 191c1 3 2 6 2 9c1 6 -1 11 -6 11s-10 -9 -11 -13c-1 -8 2 -14 6 -19z
M1180 471v9c-8 -3 -13 -9 -15 -13c-3 -8 1 -14 6 -14c9 0 9 8 9 18z" />
    <glyph glyph-name="arroewup" horiz-adv-x="500" 
d="M224 10h-56l67 403l-127 -111l-29 34l200 174l141 -175l-41 -34l-88 112z" />
    <glyph glyph-name="arrowNW" horiz-adv-x="500" 
d="M442 108l-38 -40l-280 282v-155h-54v242h249v-49h-156z" />
    <glyph glyph-name="arrowNE" horiz-adv-x="500" 
d="M96 68l-38 40l279 280h-156v49h249v-242h-54v155z" />
    <glyph glyph-name="arrowSE" horiz-adv-x="500" 
d="M54 378l38 40l280 -282v155h54v-242h-249v49h156z" />
    <glyph glyph-name="arrowSW" horiz-adv-x="500" 
d="M408 418l38 -40l-279 -280h156v-49h-249v242h54v-155z" />
    <glyph glyph-name="arrowLeftRight" horiz-adv-x="1000" 
d="M100 234l91 -112l-43 -35l-141 174l198 177l31 -35l-127 -112h772l-91 112l44 36l139 -178l-199 -174l-32 35l128 112h-770z" />
    <glyph glyph-name="arrowUpDown" horiz-adv-x="750" 
d="M318 -177l128 113l27 -39l-200 -175l-140 174l40 38l90 -111l133 795l-127 -111l-29 38l202 173l139 -175l-39 -38l-91 113z" />
    <glyph glyph-name="arrowright.750" horiz-adv-x="750" 
d="M17 232l10 57h629l-90 112l42 36l140 -178l-198 -174l-32 35l128 112h-629z" />
    <glyph glyph-name="arrowup.750" horiz-adv-x="750" 
d="M307 -107h-55l109 651l-129 -111l-28 34l201 174l140 -175l-40 -34l-89 112z" />
    <glyph glyph-name="arrowleft.750" horiz-adv-x="750" 
d="M730 290l-10 -57h-629l90 -112l-42 -36l-140 178l198 174l32 -35l-128 -112h629z" />
    <glyph glyph-name="arrowdown.750" horiz-adv-x="750" 
d="M402 629h55l-109 -651l129 111l28 -34l-201 -174l-140 175l40 34l89 -112z" />
    <glyph glyph-name="arrowNW.750" horiz-adv-x="750" 
d="M653 15l-41 -41l-456 455v-156h-55v252h250v-51h-158z" />
    <glyph glyph-name="arrowNE.750" horiz-adv-x="750" 
d="M137 -26l-41 41l460 459h-158v51h250v-252h-55v156z" />
    <glyph glyph-name="arrowSE.750" horiz-adv-x="750" 
d="M96 510l41 41l456 -455v156h55v-252h-250v51h158z" />
    <glyph glyph-name="arrowSW.750" horiz-adv-x="750" 
d="M612 551l41 -41l-460 -459h158v-51h-250v252h55v-156z" />
    <glyph glyph-name="arrowCircleLeft" horiz-adv-x="750" 
d="M184 139l22 132c25 149 123 230 260 230c119 0 188 -66 188 -176c0 -15 -1 -31 -4 -48h-55c2 14 3 28 3 40c0 90 -45 135 -136 135c-105 0 -179 -61 -200 -184l-22 -130l127 113l30 -35l-200 -176l-143 175l42 37z" />
    <glyph glyph-name="arrowCircleRight" horiz-adv-x="750" 
d="M529 277l-23 -138l127 113l30 -37l-201 -175l-143 176l42 35l90 -113l22 132c21 125 -28 182 -138 182s-170 -64 -194 -175h-54c22 140 118 224 261 224c138 0 205 -83 181 -224z" />
    <glyph glyph-name="arrowDubLeft" horiz-adv-x="750" 
d="M295 406l-72 -64h445l-7 -45h-489l-39 -34l26 -33h490l-7 -44h-447l52 -66l-44 -36l-142 177l202 181z" />
    <glyph glyph-name="arrowDubTop" horiz-adv-x="750" 
d="M508 395l-53 66l-77 -461h-44l85 505l-27 33l-38 -34l-84 -504h-44l77 459l-73 -62l-29 39l204 176l144 -178z" />
    <glyph glyph-name="arrowDubRight" horiz-adv-x="750" 
d="M533 342l-50 64l44 36l141 -181l-201 -177l-32 36l74 66h-447l7 44h490l38 33l-27 34h-489l7 45h445z" />
    <glyph glyph-name="arrowDubDown" horiz-adv-x="750" 
d="M416 139l75 66l28 -40l-203 -177l-146 176l43 39l51 -63l77 460h44l-84 -504l26 -34l38 33l84 505h44z" />
    <glyph glyph-name="triangleBlackLeft" horiz-adv-x="592" 
d="M-25 254l486 236v-468z" />
    <glyph glyph-name="triangleBlackRight" horiz-adv-x="592" 
d="M558 258l-486 -236v468z" />
    <glyph glyph-name="triangleWhiteLeft" horiz-adv-x="592" 
d="M407 110l-1 296l-304 -151v0zM461 490v-465l-486 229v2z" />
    <glyph glyph-name="triangleWhiteRight" horiz-adv-x="592" 
d="M136 405l1 -296l304 151v0zM82 25v465l486 -229v-2z" />
    <glyph glyph-name="square" horiz-adv-x="592" 
d="M479 151h-349v349h349v-349z" />
    <glyph glyph-name="square.open" horiz-adv-x="592" 
d="M434 196v259h-259v-259h259zM479 151h-349v349h349v-349z" />
    <glyph glyph-name="circle.open" horiz-adv-x="592" 
d="M295 119c-113 0 -205 92 -205 205s92 205 205 205s205 -92 205 -205s-92 -205 -205 -205zM295 167c85 0 151 74 151 160c0 85 -66 153 -151 153c-86 0 -150 -71 -150 -156c0 -86 64 -157 150 -157z" />
    <glyph glyph-name="triangle.left" horiz-adv-x="413" 
d="M275 203l-185 117l185 114v-231z" />
    <glyph glyph-name="raute" horiz-adv-x="592" 
d="M504 325l-210 -209l-209 210l210 209z" />
    <glyph glyph-name="commaaccent" 
d="M204 -220l67 160l64 -16l-81 -159z" />
    <glyph glyph-name="revcommaaccent" 
d="M303 751l-69 -164l-65 19l83 159z" />
    <glyph glyph-name="tilde.cap" 
d="M346 873l36 -16c-25 -55 -54 -75 -88 -75c-46 0 -89 33 -117 33c-16 0 -25 -7 -46 -36l-37 17c30 55 58 75 90 75c44 0 76 -33 115 -33c19 0 29 7 47 35z" />
    <glyph glyph-name="ring.cap" 
d="M258 820c0 -23 13 -36 36 -36c31 0 52 24 52 55c0 21 -13 34 -37 34c-31 0 -51 -22 -51 -53zM209 813c0 60 49 104 107 104c46 0 77 -29 77 -73c0 -61 -49 -103 -106 -103c-47 0 -78 27 -78 72z" />
    <glyph glyph-name="circumflex.cap" 
d="M228 889h52l75 -99l-35 -31l-77 72l-99 -72l-28 31z" />
    <glyph glyph-name="acute.cap" 
d="M133 802l179 100l29 -63l-183 -84z" />
    <glyph glyph-name="grave.cap" 
d="M153 898l161 -100l-29 -43l-166 80z" />
    <glyph glyph-name="dieresis.cap" 
d="M299 815c0 28 23 52 55 52c25 0 38 -16 38 -38c0 -27 -23 -51 -53 -51c-26 0 -40 16 -40 37zM116 815c0 28 24 52 54 52c26 0 40 -17 40 -38c0 -28 -25 -51 -54 -51c-26 0 -40 16 -40 37z" />
    <glyph glyph-name="caron.cap" 
d="M258 766h-53l-77 99l38 32l75 -73l101 72l24 -31z" />
    <glyph glyph-name="macron.cap" 
d="M106 790l10 57h265l-10 -57h-265z" />
    <glyph glyph-name="dotaccent.cap" 
d="M192 814c0 32 26 52 57 52c25 0 41 -14 41 -38c0 -31 -25 -52 -56 -52c-25 0 -42 15 -42 38z" />
    <glyph glyph-name="cedilla.cap" 
d="M95 -191l18 41c17 -7 37 -13 60 -13c26 0 51 7 51 41c0 23 -21 28 -60 28h-15l39 102h45l-23 -63c34 -1 71 -14 71 -59c0 -63 -46 -94 -111 -94c-33 0 -64 11 -75 17z" />
    <glyph glyph-name="hungarumlaut.cap" 
d="M241 931l44 -41l-150 -135l-34 32zM366 918l40 -44l-142 -120l-32 36z" />
    <glyph glyph-name="commaaccent.cap" 
d="M212 -220l67 160l64 -16l-81 -159z" />
    <glyph glyph-name="breve.cap" 
d="M221 821c63 0 89 35 104 85l51 -9c-20 -81 -73 -127 -157 -127c-86 0 -121 39 -124 115l53 10c3 -50 16 -74 73 -74z" />
    <glyph glyph-name="caron.alt" 
d="M235 535l63 185h73l-80 -185h-56z" />
    <glyph glyph-name="ogonek.cap" 
d="M206 13l51 -3l-2 -10c-64 -51 -105 -95 -105 -138c0 -19 11 -28 33 -28c20 0 37 6 57 15l12 -42c-25 -14 -61 -30 -98 -30c-50 0 -74 26 -74 63c0 66 63 125 126 173z" />
    <glyph glyph-name=".null" horiz-adv-x="0" 
 />
    <glyph glyph-name="CR" horiz-adv-x="0" 
 />
    </font>
</defs>
</svg>
