<?xml version="1.0" standalone="no"?>
<!DOCTYPE svg PUBLIC "-//W3C//DTD SVG 1.1//EN" "http://www.w3.org/Graphics/SVG/1.1/DTD/svg11.dtd" >
<svg xmlns="http://www.w3.org/2000/svg" xmlns:xlink="http://www.w3.org/1999/xlink" version="1.1">
<metadata>
Created by FontForge 20161003 at Wed Apr 19 07:16:05 2017
 By www-data
Copyright (c) 2014 by Leftloft. All rights reserved.
</metadata>
<defs>
<font id="NRKEticaSlabSemiCndWebBk" horiz-adv-x="564" >
  <font-face 
    font-family="NRK Etica Slab SemiCnd Web Bk"
    font-weight="400"
    font-stretch="normal"
    units-per-em="1000"
    panose-1="2 0 5 0 0 0 0 0 0 0"
    ascent="800"
    descent="-200"
    x-height="525"
    cap-height="720"
    bbox="-168 -282 2276 953"
    underline-thickness="50"
    underline-position="-100"
    unicode-range="U+0020-F511"
  />
<missing-glyph horiz-adv-x="178" 
 />
    <glyph glyph-name=".notdef" horiz-adv-x="178" 
 />
    <glyph glyph-name=".null" horiz-adv-x="2" 
 />
    <glyph glyph-name="nonmarkingreturn" horiz-adv-x="2" 
 />
    <glyph glyph-name="space" unicode=" " horiz-adv-x="220" 
 />
    <glyph glyph-name="Acircumflex" unicode="&#xc2;" horiz-adv-x="680" 
d="M657 44v-44h-229v44l74 21l-45 155h-242l-43 -155l73 -21v-44h-220v44l72 21l179 590l-63 20v45h172l198 -655zM439 284l-37 134q-17 60 -33.5 114.5t-32.5 113.5l-65 -227l-37 -135h205zM447 784l-29 -26l-84 67l-84 -68l-30 27l88 92h52z" />
    <glyph glyph-name="Adieresis" unicode="&#xc4;" horiz-adv-x="680" 
d="M657 44v-44h-229v44l74 21l-45 155h-242l-43 -155l73 -21v-44h-220v44l72 21l179 590l-63 20v45h172l198 -655zM439 284l-37 134q-17 60 -33.5 114.5t-32.5 113.5l-65 -227l-37 -135h205zM246 886q22 0 34.5 -13t12.5 -33q0 -19 -13 -31.5t-34 -12.5q-22 0 -35.5 12.5
t-13.5 31.5q0 20 13.5 33t35.5 13zM422 886q22 0 34.5 -13t12.5 -33q0 -19 -13 -31.5t-34 -12.5q-22 0 -35.5 12.5t-13.5 31.5q0 20 13.5 33t35.5 13z" />
    <glyph glyph-name="Agrave" unicode="&#xc0;" horiz-adv-x="680" 
d="M657 44v-44h-229v44l74 21l-45 155h-242l-43 -155l73 -21v-44h-220v44l72 21l179 590l-63 20v45h172l198 -655zM439 284l-37 134q-17 60 -33.5 114.5t-32.5 113.5l-65 -227l-37 -135h205zM430 795l-21 -37l-166 84l32 54z" />
    <glyph glyph-name="Amacron" unicode="&#x100;" horiz-adv-x="680" 
d="M657 44v-44h-229v44l74 21l-45 155h-242l-43 -155l73 -21v-44h-220v44l72 21l179 590l-63 20v45h172l198 -655zM439 284l-37 134q-17 60 -33.5 114.5t-32.5 113.5l-65 -227l-37 -135h205zM459 793h-254v55h254v-55z" />
    <glyph glyph-name="Aogonek" unicode="&#x104;" horiz-adv-x="680" 
d="M665 -191q-17 -11 -40 -21t-49 -10q-41 0 -62 21.5t-21 56.5q0 40 25 79t66 65h-156v44l74 21l-45 155h-242l-43 -155l73 -21v-44h-220v44l72 21l179 590l-63 20v45h172l198 -655l74 -21v-44q-50 -26 -76.5 -63t-26.5 -69q0 -38 39 -38q14 0 26.5 4.5t26.5 12.5zM439 284
l-37 134q-17 60 -33.5 114.5t-32.5 113.5l-65 -227l-37 -135h205z" />
    <glyph glyph-name="Aring" unicode="&#xc5;" horiz-adv-x="680" 
d="M657 44v-44h-229v44l74 21l-44 155h-243l-43 -155l73 -21v-44h-220v44l72 21l193 633q-19 9 -30 27.5t-11 45.5q0 42 26 67t64 25t64 -23.5t26 -66.5q0 -53 -40 -75l194 -633zM339 822q-20 0 -32 -13.5t-12 -37.5q0 -25 12 -37t32 -12t32 13.5t12 37.5q0 25 -12 37
t-32 12zM440 284l-35 122q-18 62 -35.5 120t-34.5 120l-68 -240l-34 -122h207z" />
    <glyph glyph-name="Atilde" unicode="&#xc3;" horiz-adv-x="680" 
d="M657 44v-44h-229v44l74 21l-45 155h-242l-43 -155l73 -21v-44h-220v44l72 21l179 590l-63 20v45h172l198 -655zM439 284l-37 134q-17 60 -33.5 114.5t-32.5 113.5l-65 -227l-37 -135h205zM466 855q-10 -37 -28.5 -55t-43.5 -18q-17 0 -33.5 5.5t-31.5 11.5t-28 11.5
t-23 5.5q-13 0 -20.5 -7t-18.5 -29l-39 16q12 38 31.5 56t43.5 18q16 0 31 -5.5t29 -11.5t27.5 -11.5t26.5 -5.5t22 6.5t17 27.5z" />
    <glyph glyph-name="AE" unicode="&#xc6;" horiz-adv-x="920" 
d="M857 167v-167h-483v44l74 21v175h-199l-86 -175l70 -21v-44h-221v44l72 21l300 589l-70 20v46h534v-166h-51l-17 100h-254v-252h209v-66h-209v-271l262 1l18 101h51zM448 637h-4l-164 -333h168v333z" />
    <glyph glyph-name="B" unicode="B" horiz-adv-x="644" 
d="M346 720q111 0 161.5 -46.5t50.5 -132.5q0 -27 -7 -53.5t-22 -49t-39 -38.5t-58 -21v-2q44 -4 74 -20.5t48.5 -40.5t26.5 -53t8 -57q0 -56 -17.5 -95t-50 -64t-78.5 -36t-103 -11h-280v44l74 21v589l-74 20v46h286zM211 657v-253h108q32 0 61.5 5.5t51.5 20.5t35 40.5
t13 65.5q0 67 -39.5 94t-109.5 27h-120zM211 340v-277h144q78 0 116 39t38 108q0 36 -11.5 61t-33 40.5t-51.5 22t-66 6.5h-136z" />
    <glyph glyph-name="C" unicode="C" horiz-adv-x="663" 
d="M373 733q107 0 217 -57v-163h-53l-22 120q-39 17 -73 24.5t-68 7.5q-101 0 -161.5 -76t-60.5 -224q0 -152 58 -229.5t156 -77.5q65 0 111 24t84 62l42 -52q-46 -48 -106 -76t-135 -28t-130 27.5t-91 77t-53 118t-17 151.5q0 94 23 164t63.5 116t95.5 68.5t120 22.5z" />
    <glyph glyph-name="Cacute" unicode="&#x106;" horiz-adv-x="663" 
d="M373 733q107 0 217 -57v-163h-53l-22 120q-39 17 -73 24.5t-68 7.5q-101 0 -161.5 -76t-60.5 -224q0 -152 58 -229.5t156 -77.5q65 0 111 24t84 62l42 -52q-46 -48 -106 -76t-135 -28t-130 27.5t-91 77t-53 118t-17 151.5q0 94 23 164t63.5 116t95.5 68.5t120 22.5z
M478 842l-166 -84l-21 37l155 101z" />
    <glyph glyph-name="Ccaron" unicode="&#x10c;" horiz-adv-x="663" 
d="M373 733q107 0 217 -57v-163h-53l-22 120q-39 17 -73 24.5t-68 7.5q-101 0 -161.5 -76t-60.5 -224q0 -152 58 -229.5t156 -77.5q65 0 111 24t84 62l42 -52q-46 -48 -106 -76t-135 -28t-130 27.5t-91 77t-53 118t-17 151.5q0 94 23 164t63.5 116t95.5 68.5t120 22.5z
M359 766l-88 92l30 27l84 -68l84 67l29 -26l-87 -92h-52z" />
    <glyph glyph-name="Ccedilla" unicode="&#xc7;" horiz-adv-x="663" 
d="M603 92q-43 -45 -98 -72.5t-124 -30.5l-9 -46q14 -1 27.5 -4.5t24.5 -12t18 -21t7 -31.5q0 -43 -26 -62.5t-64 -19.5q-24 0 -45.5 6t-32.5 11l11 39q14 -5 29.5 -9t32.5 -4t31 7t14 30q0 22 -16.5 29t-48.5 7h-11l17 81q-70 4 -120.5 32.5t-83.5 77.5t-49 116t-16 147
q0 94 23 164t63.5 116t95.5 68.5t120 22.5q107 0 217 -57v-163h-53l-22 120q-39 17 -73 24.5t-68 7.5q-101 0 -161.5 -76t-60.5 -224q0 -152 58 -229.5t156 -77.5q65 0 111 24t84 62z" />
    <glyph glyph-name="Ccircumflex" unicode="&#x108;" horiz-adv-x="663" 
d="M373 733q107 0 217 -57v-163h-53l-22 120q-39 17 -73 24.5t-68 7.5q-101 0 -161.5 -76t-60.5 -224q0 -152 58 -229.5t156 -77.5q65 0 111 24t84 62l42 -52q-46 -48 -106 -76t-135 -28t-130 27.5t-91 77t-53 118t-17 151.5q0 94 23 164t63.5 116t95.5 68.5t120 22.5z
M498 784l-29 -26l-84 67l-84 -68l-30 27l88 92h52z" />
    <glyph glyph-name="Cdotaccent" unicode="&#x10a;" horiz-adv-x="663" 
d="M373 733q107 0 217 -57v-163h-53l-22 120q-39 17 -73 24.5t-68 7.5q-101 0 -161.5 -76t-60.5 -224q0 -152 58 -229.5t156 -77.5q65 0 111 24t84 62l42 -52q-46 -48 -106 -76t-135 -28t-130 27.5t-91 77t-53 118t-17 151.5q0 94 23 164t63.5 116t95.5 68.5t120 22.5z
M384 872q22 0 37 -13t15 -35t-14.5 -34.5t-37.5 -12.5q-22 0 -37.5 12.5t-15.5 34.5t15.5 35t37.5 13z" />
    <glyph glyph-name="D" unicode="D" horiz-adv-x="703" 
d="M305 720q160 0 243 -87.5t83 -273.5q0 -99 -23 -167.5t-67 -111t-107 -61.5t-143 -19h-231v44l74 21v589l-74 20v46h245zM212 67h95q127 0 185.5 73t58.5 219q0 70 -13.5 125t-42.5 92.5t-75 57t-110 19.5h-98v-586z" />
    <glyph glyph-name="Eth" unicode="&#xd0;" horiz-adv-x="706" 
d="M308 720q160 0 243 -87.5t83 -273.5q0 -99 -23 -167.5t-67 -111t-107 -61.5t-143 -19h-231v44l74 21v269h-68v61h68v259l-74 20v46h245zM310 67q127 0 185.5 73t58.5 219q0 70 -13.5 125t-42.5 92.5t-75 57t-110 19.5h-98v-258h159v-61h-159v-267h95z" />
    <glyph glyph-name="Dcaron" unicode="&#x10e;" horiz-adv-x="703" 
d="M305 720q160 0 243 -87.5t83 -273.5q0 -99 -23 -167.5t-67 -111t-107 -61.5t-143 -19h-231v44l74 21v589l-74 20v46h245zM212 67h95q127 0 185.5 73t58.5 219q0 70 -13.5 125t-42.5 92.5t-75 57t-110 19.5h-98v-586zM327 766l-88 92l30 27l84 -68l84 67l29 -26l-87 -92
h-52z" />
    <glyph glyph-name="Dcroat" unicode="&#x110;" horiz-adv-x="706" 
d="M308 720q160 0 243 -87.5t83 -273.5q0 -99 -23 -167.5t-67 -111t-107 -61.5t-143 -19h-231v44l74 21v269h-68v61h68v259l-74 20v46h245zM310 67q127 0 185.5 73t58.5 219q0 70 -13.5 125t-42.5 92.5t-75 57t-110 19.5h-98v-258h159v-61h-159v-267h95z" />
    <glyph glyph-name="E" unicode="E" horiz-adv-x="613" 
d="M542 554h-51l-18 100h-261v-252h216v-65h-216v-272l269 1l18 101h51v-167h-490v44l74 21v589l-74 20v46h482v-166z" />
    <glyph glyph-name="Eacute" unicode="&#xc9;" horiz-adv-x="613" 
d="M542 554h-51l-18 100h-261v-252h216v-65h-216v-272l269 1l18 101h51v-167h-490v44l74 21v589l-74 20v46h482v-166zM413 842l-166 -84l-21 37l155 101z" />
    <glyph glyph-name="Ebreve" unicode="&#x114;" horiz-adv-x="613" 
d="M542 554h-51l-18 100h-261v-252h216v-65h-216v-272l269 1l18 101h51v-167h-490v44l74 21v589l-74 20v46h482v-166zM427 870q-7 -54 -32.5 -80.5t-76.5 -26.5q-50 0 -76 26.5t-32 80.5l46 9q5 -34 19 -50t43 -16t43.5 16t19.5 50z" />
    <glyph glyph-name="Ecaron" unicode="&#x11a;" horiz-adv-x="613" 
d="M542 554h-51l-18 100h-261v-252h216v-65h-216v-272l269 1l18 101h51v-167h-490v44l74 21v589l-74 20v46h482v-166zM294 766l-88 92l30 27l84 -68l84 67l29 -26l-87 -92h-52z" />
    <glyph glyph-name="Ecircumflex" unicode="&#xca;" horiz-adv-x="613" 
d="M542 554h-51l-18 100h-261v-252h216v-65h-216v-272l269 1l18 101h51v-167h-490v44l74 21v589l-74 20v46h482v-166zM433 784l-29 -26l-84 67l-84 -68l-30 27l88 92h52z" />
    <glyph glyph-name="Edieresis" unicode="&#xcb;" horiz-adv-x="613" 
d="M542 554h-51l-18 100h-261v-252h216v-65h-216v-272l269 1l18 101h51v-167h-490v44l74 21v589l-74 20v46h482v-166zM232 886q22 0 34.5 -13t12.5 -33q0 -19 -13 -31.5t-34 -12.5q-22 0 -35.5 12.5t-13.5 31.5q0 20 13.5 33t35.5 13zM408 886q22 0 34.5 -13t12.5 -33
q0 -19 -13 -31.5t-34 -12.5q-22 0 -35.5 12.5t-13.5 31.5q0 20 13.5 33t35.5 13z" />
    <glyph glyph-name="Edotaccent" unicode="&#x116;" horiz-adv-x="613" 
d="M542 554h-51l-18 100h-261v-252h216v-65h-216v-272l269 1l18 101h51v-167h-490v44l74 21v589l-74 20v46h482v-166zM319 872q22 0 37 -13t15 -35t-14.5 -34.5t-37.5 -12.5q-22 0 -37.5 12.5t-15.5 34.5t15.5 35t37.5 13z" />
    <glyph glyph-name="Egrave" unicode="&#xc8;" horiz-adv-x="613" 
d="M542 554h-51l-18 100h-261v-252h216v-65h-216v-272l269 1l18 101h51v-167h-490v44l74 21v589l-74 20v46h482v-166zM416 795l-21 -37l-166 84l32 54z" />
    <glyph glyph-name="Emacron" unicode="&#x112;" horiz-adv-x="613" 
d="M542 554h-51l-18 100h-261v-252h216v-65h-216v-272l269 1l18 101h51v-167h-490v44l74 21v589l-74 20v46h482v-166zM444 793h-254v55h254v-55z" />
    <glyph glyph-name="Eogonek" unicode="&#x118;" horiz-adv-x="613" 
d="M557 -191q-17 -11 -40 -21t-49 -10q-41 0 -62 21.5t-21 56.5q0 40 25 79t66 65h-416v44l74 21v589l-74 20v46h482v-166h-51l-18 100h-261v-252h216v-65h-216v-272l269 1l18 101h51v-167h-1q-50 -26 -76.5 -63t-26.5 -69q0 -38 39 -38q14 0 26.5 4.5t26.5 12.5z" />
    <glyph glyph-name="F" unicode="F" horiz-adv-x="585" 
d="M530 549h-51l-17 105h-250v-257h208v-64h-208v-267l98 -21l1 -45h-251v44l74 21v589l-74 20v46h470v-171z" />
    <glyph glyph-name="G" unicode="G" horiz-adv-x="701" 
d="M382 733q110 0 218 -55v-163h-54l-25 122q-71 29 -136 29q-51 0 -93.5 -17.5t-73.5 -54.5t-48 -93.5t-17 -135.5q0 -81 16 -139t44.5 -96t69 -56t89.5 -18q38 0 78.5 8t82.5 25v185l-108 17v45h232v-45l-54 -17v-227q-113 -59 -235 -59q-66 0 -121 22t-94 68.5t-60.5 117
t-21.5 168.5q0 94 23.5 163.5t65 115t98.5 68t124 22.5z" />
    <glyph glyph-name="Gbreve" unicode="&#x11e;" horiz-adv-x="701" 
d="M382 733q110 0 218 -55v-163h-54l-25 122q-71 29 -136 29q-51 0 -93.5 -17.5t-73.5 -54.5t-48 -93.5t-17 -135.5q0 -81 16 -139t44.5 -96t69 -56t89.5 -18q38 0 78.5 8t82.5 25v185l-108 17v45h232v-45l-54 -17v-227q-113 -59 -235 -59q-66 0 -121 22t-94 68.5t-60.5 117
t-21.5 168.5q0 94 23.5 163.5t65 115t98.5 68t124 22.5zM495 870q-7 -54 -32.5 -80.5t-76.5 -26.5q-50 0 -76 26.5t-32 80.5l46 9q5 -34 19 -50t43 -16t43.5 16t19.5 50z" />
    <glyph glyph-name="Gcircumflex" unicode="&#x11c;" horiz-adv-x="701" 
d="M382 733q110 0 218 -55v-163h-54l-25 122q-71 29 -136 29q-51 0 -93.5 -17.5t-73.5 -54.5t-48 -93.5t-17 -135.5q0 -81 16 -139t44.5 -96t69 -56t89.5 -18q38 0 78.5 8t82.5 25v185l-108 17v45h232v-45l-54 -17v-227q-113 -59 -235 -59q-66 0 -121 22t-94 68.5t-60.5 117
t-21.5 168.5q0 94 23.5 163.5t65 115t98.5 68t124 22.5zM501 784l-29 -26l-84 67l-84 -68l-30 27l88 92h52z" />
    <glyph glyph-name="Gcommaaccent" unicode="&#x122;" horiz-adv-x="701" 
d="M382 733q110 0 218 -55v-163h-54l-25 122q-71 29 -136 29q-51 0 -93.5 -17.5t-73.5 -54.5t-48 -93.5t-17 -135.5q0 -81 16 -139t44.5 -96t69 -56t89.5 -18q38 0 78.5 8t82.5 25v185l-108 17v45h232v-45l-54 -17v-227q-113 -59 -235 -59q-66 0 -121 22t-94 68.5t-60.5 117
t-21.5 168.5q0 94 23.5 163.5t65 115t98.5 68t124 22.5zM419 -72l-58 -158l-46 12l40 160z" />
    <glyph glyph-name="Gdotaccent" unicode="&#x120;" horiz-adv-x="701" 
d="M382 733q110 0 218 -55v-163h-54l-25 122q-71 29 -136 29q-51 0 -93.5 -17.5t-73.5 -54.5t-48 -93.5t-17 -135.5q0 -81 16 -139t44.5 -96t69 -56t89.5 -18q38 0 78.5 8t82.5 25v185l-108 17v45h232v-45l-54 -17v-227q-113 -59 -235 -59q-66 0 -121 22t-94 68.5t-60.5 117
t-21.5 168.5q0 94 23.5 163.5t65 115t98.5 68t124 22.5zM387 872q22 0 37 -13t15 -35t-14.5 -34.5t-37.5 -12.5q-22 0 -37.5 12.5t-15.5 34.5t15.5 35t37.5 13z" />
    <glyph glyph-name="H" unicode="H" horiz-adv-x="735" 
d="M675 674l-75 -20v-589l75 -21v-44h-226v44l74 21v278h-311v-278l74 -21v-44h-226v44l74 21v589l-74 20v46h226v-46l-74 -20v-245h311v245l-74 20v46h226v-46z" />
    <glyph glyph-name="Hbar" unicode="&#x126;" horiz-adv-x="746" 
d="M605 512v-447l75 -21v-44h-226v44l74 21v278h-311v-278l74 -21v-44h-226v44l74 21v447h-73v61h73v81l-74 20v46h226v-46l-74 -20v-81h311v81l-74 20v46h226v-46l-75 -20v-81h76v-61h-76zM528 512h-311v-103h311v103z" />
    <glyph glyph-name="Hcircumflex" unicode="&#x124;" horiz-adv-x="735" 
d="M675 674l-75 -20v-589l75 -21v-44h-226v44l74 21v278h-311v-278l74 -21v-44h-226v44l74 21v589l-74 20v46h226v-46l-74 -20v-245h311v245l-74 20v46h226v-46zM479 784l-29 -26l-84 67l-84 -68l-30 27l88 92h52z" />
    <glyph glyph-name="I" unicode="I" horiz-adv-x="346" 
d="M286 676l-74 -21v-590l74 -21v-44h-226v44l74 21v590l-74 21v44h226v-44z" />
    <glyph glyph-name="IJ" unicode="&#x132;" horiz-adv-x="831" 
d="M286 676l-74 -21v-590l74 -21v-44h-226v44l74 21v590l-74 21v44h226v-44zM776 674l-74 -20v-503q0 -88 -45.5 -125t-122.5 -37q-32 0 -66.5 5t-70.5 14v162h50l18 -110q20 -2 36 -3.5t30 -1.5q54 0 73.5 25t19.5 84v490l-94 20v46h246v-46z" />
    <glyph glyph-name="Iacute" unicode="&#xcd;" horiz-adv-x="346" 
d="M267 842l-166 -84l-21 37l155 101zM286 676l-74 -21v-590l74 -21v-44h-226v44l74 21v590l-74 21v44h226v-44z" />
    <glyph glyph-name="Ibreve" unicode="&#x12c;" horiz-adv-x="346" 
d="M286 676l-74 -21v-590l74 -21v-44h-226v44l74 21v590l-74 21v44h226v-44zM281 870q-7 -54 -32.5 -80.5t-76.5 -26.5q-50 0 -76 26.5t-32 80.5l46 9q5 -34 19 -50t43 -16t43.5 16t19.5 50z" />
    <glyph glyph-name="Icircumflex" unicode="&#xce;" horiz-adv-x="346" 
d="M286 676l-74 -21v-590l74 -21v-44h-226v44l74 21v590l-74 21v44h226v-44zM287 784l-29 -26l-84 67l-84 -68l-30 27l88 92h52z" />
    <glyph glyph-name="Idieresis" unicode="&#xcf;" horiz-adv-x="346" 
d="M286 676l-74 -21v-590l74 -21v-44h-226v44l74 21v590l-74 21v44h226v-44zM86 886q22 0 34.5 -13t12.5 -33q0 -19 -13 -31.5t-34 -12.5q-22 0 -35.5 12.5t-13.5 31.5q0 20 13.5 33t35.5 13zM262 886q22 0 34.5 -13t12.5 -33q0 -19 -13 -31.5t-34 -12.5q-22 0 -35.5 12.5
t-13.5 31.5q0 20 13.5 33t35.5 13z" />
    <glyph glyph-name="Idotaccent" unicode="&#x130;" horiz-adv-x="346" 
d="M286 676l-74 -21v-590l74 -21v-44h-226v44l74 21v590l-74 21v44h226v-44zM173 872q22 0 37 -13t15 -35t-14.5 -34.5t-37.5 -12.5q-22 0 -37.5 12.5t-15.5 34.5t15.5 35t37.5 13z" />
    <glyph glyph-name="Igrave" unicode="&#xcc;" horiz-adv-x="346" 
d="M286 676l-74 -21v-590l74 -21v-44h-226v44l74 21v590l-74 21v44h226v-44zM270 795l-21 -37l-166 84l32 54z" />
    <glyph glyph-name="Imacron" unicode="&#x12a;" horiz-adv-x="346" 
d="M286 676l-74 -21v-590l74 -21v-44h-226v44l74 21v590l-74 21v44h226v-44zM299 793h-254v55h254v-55z" />
    <glyph glyph-name="Iogonek" unicode="&#x12e;" horiz-adv-x="346" 
d="M293 -191q-17 -11 -40 -21t-49 -10q-41 0 -62 21.5t-21 56.5q0 40 25 79t66 65h-152v44l74 21v590l-74 21v44h226v-44l-74 -21v-590l74 -21v-44h-1q-50 -26 -76.5 -63t-26.5 -69q0 -38 39 -38q14 0 26.5 4.5t26.5 12.5z" />
    <glyph glyph-name="Itilde" unicode="&#x128;" horiz-adv-x="346" 
d="M286 676l-74 -21v-590l74 -21v-44h-226v44l74 21v590l-74 21v44h226v-44zM306 855q-10 -37 -28.5 -55t-43.5 -18q-17 0 -33.5 5.5t-31.5 11.5t-28 11.5t-23 5.5q-13 0 -20.5 -7t-18.5 -29l-39 16q12 38 31.5 56t43.5 18q16 0 31 -5.5t29 -11.5t27.5 -11.5t26.5 -5.5
t22 6.5t17 27.5z" />
    <glyph glyph-name="J" unicode="J" horiz-adv-x="489" 
d="M434 674l-74 -20v-503q0 -88 -45.5 -125t-122.5 -37q-32 0 -66.5 5t-70.5 14v162h50l18 -110q20 -2 36 -3.5t30 -1.5q54 0 73.5 25t19.5 84v490l-94 20v46h246v-46z" />
    <glyph glyph-name="Jcircumflex" unicode="&#x134;" horiz-adv-x="489" 
d="M434 674l-74 -20v-503q0 -88 -45.5 -125t-122.5 -37q-32 0 -66.5 5t-70.5 14v162h50l18 -110q20 -2 36 -3.5t30 -1.5q54 0 73.5 25t19.5 84v490l-94 20v46h246v-46zM424 784l-29 -26l-84 67l-84 -68l-30 27l88 92h52z" />
    <glyph glyph-name="K" unicode="K" horiz-adv-x="650" 
d="M595 674l-66 -20l-147 -281l170 -308l66 -21v-44h-115l-186 337h-105v-272l74 -21v-44h-226v44l74 21v589l-74 20v46h225v-44l-73 -22v-251h107l132 251l-62 22v44h206v-46z" />
    <glyph glyph-name="Kcommaaccent" unicode="&#x136;" horiz-adv-x="650" 
d="M595 674l-66 -20l-147 -281l170 -308l66 -21v-44h-115l-186 337h-105v-272l74 -21v-44h-226v44l74 21v589l-74 20v46h225v-44l-73 -22v-251h107l132 251l-62 22v44h206v-46zM388 -72l-58 -158l-46 12l40 160z" />
    <glyph glyph-name="L" unicode="L" horiz-adv-x="560" 
d="M306 675l-94 -21v-588h234l17 111h51v-177h-454v45l74 21v588l-74 21v45h246v-45z" />
    <glyph glyph-name="Lacute" unicode="&#x139;" horiz-adv-x="560" 
d="M306 675l-94 -21v-588h234l17 111h51v-177h-454v45l74 21v588l-74 21v45h246v-45zM268 842l-166 -84l-21 37l155 101z" />
    <glyph glyph-name="Lcaron" unicode="&#x13d;" horiz-adv-x="575" 
d="M306 675l-94 -21v-588h234l17 111h51v-177h-454v45l74 21v588l-74 21v45h246v-45zM386 535h-50l33 186h68z" />
    <glyph glyph-name="Lcommaaccent" unicode="&#x13b;" horiz-adv-x="560" 
d="M306 675l-94 -21v-588h234l17 111h51v-177h-454v45l74 21v588l-74 21v45h246v-45zM360 -72l-58 -158l-46 12l40 160z" />
    <glyph glyph-name="Ldot" unicode="&#x13f;" horiz-adv-x="580" 
d="M306 675l-94 -21v-588h234l17 111h51v-177h-454v45l74 21v588l-74 21v45h246v-45zM370 436q24 0 39 -13.5t15 -38.5t-15 -39.5t-39 -14.5t-39 14.5t-15 38.5q0 26 15.5 39.5t38.5 13.5z" />
    <glyph glyph-name="Lslash" unicode="&#x141;" horiz-adv-x="565" 
d="M514 177v-177h-454v45l74 21v224l-68 -27v67l68 27v297l-74 21v45h246v-45l-94 -21v-268l198 77v-66l-198 -79v-252h234l17 111h51z" />
    <glyph glyph-name="M" unicode="M" horiz-adv-x="950" 
d="M840 674l-76 -21l56 -587l75 -22v-44h-224v44l75 22l-45 559h-1q-11 -37 -22.5 -80.5t-22.5 -78.5l-145 -466h-73l-146 464q-11 36 -22.5 78t-21.5 83h-1l-41 -559l75 -22v-44h-225v44l75 22l52 587l-75 21v46h178l142 -470q11 -36 22 -74.5t22 -75.5h6l22 76t22 75
l143 469h176v-46z" />
    <glyph glyph-name="N" unicode="N" horiz-adv-x="765" 
d="M710 676l-78 -21v-655h-72l-312 517q-10 17 -20.5 38.5t-18.5 40.5h-2v-531l74 -21v-44h-221v44l78 21v589l-78 21v45h149l309 -506q12 -21 22.5 -41.5t21.5 -42.5h1v525l-75 21v44h222v-44z" />
    <glyph glyph-name="Nacute" unicode="&#x143;" horiz-adv-x="765" 
d="M710 676l-78 -21v-655h-72l-312 517q-10 17 -20.5 38.5t-18.5 40.5h-2v-531l74 -21v-44h-221v44l78 21v589l-78 21v45h149l309 -506q12 -21 22.5 -41.5t21.5 -42.5h1v525l-75 21v44h222v-44zM474 842l-166 -84l-21 37l155 101z" />
    <glyph glyph-name="Ncaron" unicode="&#x147;" horiz-adv-x="765" 
d="M710 676l-78 -21v-655h-72l-312 517q-10 17 -20.5 38.5t-18.5 40.5h-2v-531l74 -21v-44h-221v44l78 21v589l-78 21v45h149l309 -506q12 -21 22.5 -41.5t21.5 -42.5h1v525l-75 21v44h222v-44zM355 766l-88 92l30 27l84 -68l84 67l29 -26l-87 -92h-52z" />
    <glyph glyph-name="Ncommaaccent" unicode="&#x145;" horiz-adv-x="765" 
d="M710 676l-78 -21v-655h-72l-312 517q-10 17 -20.5 38.5t-18.5 40.5h-2v-531l74 -21v-44h-221v44l78 21v589l-78 21v45h149l309 -506q12 -21 22.5 -41.5t21.5 -42.5h1v525l-75 21v44h222v-44zM427 -72l-58 -158l-46 12l40 160z" />
    <glyph glyph-name="Eng" unicode="&#x14a;" horiz-adv-x="765" 
d="M710 720v-44l-78 -21v-718q0 -29 -6.5 -54.5t-21.5 -44.5t-40.5 -30t-63.5 -11q-13 0 -28.5 1.5t-30 4t-27 6t-19.5 6.5l13 58q11 -4 33.5 -9t47.5 -5q35 0 53.5 18.5t18.5 64.5v61l-292 482q-17 27 -32.5 54.5t-29.5 56.5v-531l74 -21v-44h-221v44l78 21v589l-78 21v45
h148l296 -486q30 -49 59 -102v523l-75 21v44h222z" />
    <glyph glyph-name="Ntilde" unicode="&#xd1;" horiz-adv-x="765" 
d="M710 676l-78 -21v-655h-72l-312 517q-10 17 -20.5 38.5t-18.5 40.5h-2v-531l74 -21v-44h-221v44l78 21v589l-78 21v45h149l309 -506q12 -21 22.5 -41.5t21.5 -42.5h1v525l-75 21v44h222v-44zM513 855q-10 -37 -28.5 -55t-43.5 -18q-17 0 -33.5 5.5t-31.5 11.5t-28 11.5
t-23 5.5q-13 0 -20.5 -7t-18.5 -29l-39 16q12 38 31.5 56t43.5 18q16 0 31 -5.5t29 -11.5t27.5 -11.5t26.5 -5.5t22 6.5t17 27.5z" />
    <glyph glyph-name="O" unicode="O" horiz-adv-x="734" 
d="M371 733q64 0 117.5 -22t92 -67t60 -113.5t21.5 -162.5q0 -102 -22 -174t-61 -117.5t-93.5 -67t-119.5 -21.5q-66 0 -120.5 21.5t-93 67.5t-60 118t-21.5 173q0 94 22 162.5t61.5 113.5t94.5 67t122 22zM368 664q-99 0 -157 -73t-58 -223q0 -82 15 -141t43.5 -97
t68.5 -56t90 -18q48 0 87 18t66 55.5t42 96.5t15 142q0 151 -57.5 223.5t-154.5 72.5z" />
    <glyph glyph-name="Oacute" unicode="&#xd3;" horiz-adv-x="734" 
d="M371 733q64 0 117.5 -22t92 -67t60 -113.5t21.5 -162.5q0 -102 -22 -174t-61 -117.5t-93.5 -67t-119.5 -21.5q-66 0 -120.5 21.5t-93 67.5t-60 118t-21.5 173q0 94 22 162.5t61.5 113.5t94.5 67t122 22zM368 664q-99 0 -157 -73t-58 -223q0 -82 15 -141t43.5 -97
t68.5 -56t90 -18q48 0 87 18t66 55.5t42 96.5t15 142q0 151 -57.5 223.5t-154.5 72.5zM468 842l-166 -84l-21 37l155 101z" />
    <glyph glyph-name="Obreve" unicode="&#x14e;" horiz-adv-x="734" 
d="M371 733q64 0 117.5 -22t92 -67t60 -113.5t21.5 -162.5q0 -102 -22 -174t-61 -117.5t-93.5 -67t-119.5 -21.5q-66 0 -120.5 21.5t-93 67.5t-60 118t-21.5 173q0 94 22 162.5t61.5 113.5t94.5 67t122 22zM368 664q-99 0 -157 -73t-58 -223q0 -82 15 -141t43.5 -97
t68.5 -56t90 -18q48 0 87 18t66 55.5t42 96.5t15 142q0 151 -57.5 223.5t-154.5 72.5zM482 870q-7 -54 -32.5 -80.5t-76.5 -26.5q-50 0 -76 26.5t-32 80.5l46 9q5 -34 19 -50t43 -16t43.5 16t19.5 50z" />
    <glyph glyph-name="Ocircumflex" unicode="&#xd4;" horiz-adv-x="734" 
d="M371 733q64 0 117.5 -22t92 -67t60 -113.5t21.5 -162.5q0 -102 -22 -174t-61 -117.5t-93.5 -67t-119.5 -21.5q-66 0 -120.5 21.5t-93 67.5t-60 118t-21.5 173q0 94 22 162.5t61.5 113.5t94.5 67t122 22zM368 664q-99 0 -157 -73t-58 -223q0 -82 15 -141t43.5 -97
t68.5 -56t90 -18q48 0 87 18t66 55.5t42 96.5t15 142q0 151 -57.5 223.5t-154.5 72.5zM488 784l-29 -26l-84 67l-84 -68l-30 27l88 92h52z" />
    <glyph glyph-name="Odieresis" unicode="&#xd6;" horiz-adv-x="734" 
d="M371 733q64 0 117.5 -22t92 -67t60 -113.5t21.5 -162.5q0 -102 -22 -174t-61 -117.5t-93.5 -67t-119.5 -21.5q-66 0 -120.5 21.5t-93 67.5t-60 118t-21.5 173q0 94 22 162.5t61.5 113.5t94.5 67t122 22zM368 664q-99 0 -157 -73t-58 -223q0 -82 15 -141t43.5 -97
t68.5 -56t90 -18q48 0 87 18t66 55.5t42 96.5t15 142q0 151 -57.5 223.5t-154.5 72.5zM287 886q22 0 34.5 -13t12.5 -33q0 -19 -13 -31.5t-34 -12.5q-22 0 -35.5 12.5t-13.5 31.5q0 20 13.5 33t35.5 13zM463 886q22 0 34.5 -13t12.5 -33q0 -19 -13 -31.5t-34 -12.5
q-22 0 -35.5 12.5t-13.5 31.5q0 20 13.5 33t35.5 13z" />
    <glyph glyph-name="Ograve" unicode="&#xd2;" horiz-adv-x="734" 
d="M371 733q64 0 117.5 -22t92 -67t60 -113.5t21.5 -162.5q0 -102 -22 -174t-61 -117.5t-93.5 -67t-119.5 -21.5q-66 0 -120.5 21.5t-93 67.5t-60 118t-21.5 173q0 94 22 162.5t61.5 113.5t94.5 67t122 22zM368 664q-99 0 -157 -73t-58 -223q0 -82 15 -141t43.5 -97
t68.5 -56t90 -18q48 0 87 18t66 55.5t42 96.5t15 142q0 151 -57.5 223.5t-154.5 72.5zM471 795l-21 -37l-166 84l32 54z" />
    <glyph glyph-name="Ohungarumlaut" unicode="&#x150;" horiz-adv-x="734" 
d="M371 733q64 0 117.5 -22t92 -67t60 -113.5t21.5 -162.5q0 -102 -22 -174t-61 -117.5t-93.5 -67t-119.5 -21.5q-66 0 -120.5 21.5t-93 67.5t-60 118t-21.5 173q0 94 22 162.5t61.5 113.5t94.5 67t122 22zM368 664q-99 0 -157 -73t-58 -223q0 -82 15 -141t43.5 -97
t68.5 -56t90 -18q48 0 87 18t66 55.5t42 96.5t15 142q0 151 -57.5 223.5t-154.5 72.5zM430 889l-127 -133l-35 26l114 144zM552 877l-122 -121l-34 28l110 131z" />
    <glyph glyph-name="Omacron" unicode="&#x14c;" horiz-adv-x="734" 
d="M371 733q64 0 117.5 -22t92 -67t60 -113.5t21.5 -162.5q0 -102 -22 -174t-61 -117.5t-93.5 -67t-119.5 -21.5q-66 0 -120.5 21.5t-93 67.5t-60 118t-21.5 173q0 94 22 162.5t61.5 113.5t94.5 67t122 22zM368 664q-99 0 -157 -73t-58 -223q0 -82 15 -141t43.5 -97
t68.5 -56t90 -18q48 0 87 18t66 55.5t42 96.5t15 142q0 151 -57.5 223.5t-154.5 72.5zM500 793h-254v55h254v-55z" />
    <glyph glyph-name="Oslash" unicode="&#xd8;" horiz-adv-x="734" 
d="M579 646q39 -45 61 -114t22 -164q0 -102 -22 -174t-61 -117.5t-93.5 -67t-119.5 -21.5q-48 0 -89.5 11t-76.5 35l-47 -77h-65l70 114q-42 46 -64.5 119t-22.5 178q0 94 22 162.5t61.5 113.5t94.5 67t122 22q97 0 167 -49l45 73h65zM153 368q0 -75 13 -131t37 -94l294 476
q-51 45 -129 45q-99 0 -157 -73t-58 -223zM370 56q48 0 87 18t66 55.5t42 96.5t15 142q0 131 -45 205l-294 -474q52 -43 129 -43z" />
    <glyph glyph-name="Otilde" unicode="&#xd5;" horiz-adv-x="734" 
d="M371 733q64 0 117.5 -22t92 -67t60 -113.5t21.5 -162.5q0 -102 -22 -174t-61 -117.5t-93.5 -67t-119.5 -21.5q-66 0 -120.5 21.5t-93 67.5t-60 118t-21.5 173q0 94 22 162.5t61.5 113.5t94.5 67t122 22zM368 664q-99 0 -157 -73t-58 -223q0 -82 15 -141t43.5 -97
t68.5 -56t90 -18q48 0 87 18t66 55.5t42 96.5t15 142q0 151 -57.5 223.5t-154.5 72.5zM507 855q-10 -37 -28.5 -55t-43.5 -18q-17 0 -33.5 5.5t-31.5 11.5t-28 11.5t-23 5.5q-13 0 -20.5 -7t-18.5 -29l-39 16q12 38 31.5 56t43.5 18q16 0 31 -5.5t29 -11.5t27.5 -11.5
t26.5 -5.5t22 6.5t17 27.5z" />
    <glyph glyph-name="OE" unicode="&#x152;" horiz-adv-x="1061" 
d="M360 732q76 0 136.5 -36t89.5 -108v132h404v-166h-51l-18 100h-261v-252h216v-65h-216v-272l269 1l18 101h51v-167h-413v138q-30 -77 -93 -113.5t-140 -36.5q-61 0 -112.5 22t-89 68t-58.5 118t-21 172q0 94 22 162.5t61 113.5t91.5 66.5t114.5 21.5zM373 660
q-101 0 -160.5 -72.5t-59.5 -219.5q0 -81 15.5 -139t43.5 -95.5t68 -55.5t89 -18q46 0 87 18.5t71 56.5t47.5 96t17.5 136q0 72 -17.5 127t-47.5 92t-69.5 55.5t-84.5 18.5z" />
    <glyph glyph-name="P" unicode="P" horiz-adv-x="610" 
d="M334 720q113 0 169 -54.5t56 -159.5q0 -106 -58 -163t-178 -57h-111v-220l100 -22v-44h-252v44l74 22v588l-74 20v46h274zM212 654v-304h109q160 0 160 154q0 77 -36.5 113.5t-114.5 36.5h-118z" />
    <glyph glyph-name="Thorn" unicode="&#xde;" horiz-adv-x="516" 
d="M208 676l-98 -22v-64h134q47 0 87.5 -11t70 -36t46.5 -65t17 -98q0 -55 -16.5 -95t-47 -66.5t-73.5 -39t-95 -12.5h-122v-101l97 -22v-44h-249v44l74 22v588l-74 22v44h249v-44zM110 524v-296h116q163 0 163 151q0 75 -36.5 110t-114.5 35h-128z" />
    <glyph glyph-name="Q" unicode="Q" horiz-adv-x="737" 
d="M662 368q0 -144 -42.5 -228.5t-114.5 -121.5l136 -46l-24 -64l-218 81q-8 -1 -16.5 -1h-16.5q-66 0 -120.5 21.5t-93 67.5t-60 118t-21.5 173q0 94 22 162.5t61.5 113.5t94.5 67t122 22q64 0 117.5 -22t92 -67t60 -113.5t21.5 -162.5zM153 368q0 -82 15 -141t43.5 -97
t68.5 -56t90 -18q48 0 87 18t66 55.5t42 96.5t15 142q0 151 -57.5 223.5t-154.5 72.5q-99 0 -157 -73t-58 -223z" />
    <glyph glyph-name="R" unicode="R" horiz-adv-x="655" 
d="M330 720q118 0 173 -55.5t55 -155.5q0 -149 -119 -200l99 -244l77 -21v-44h-131l-119 293q-13 -2 -28 -3t-28 -1h-97v-224l74 -21v-44h-226v44l74 21v589l-74 20v46h270zM212 654v-302h108q160 0 160 155q0 75 -36.5 111t-115.5 36h-116z" />
    <glyph glyph-name="Racute" unicode="&#x154;" horiz-adv-x="655" 
d="M330 720q118 0 173 -55.5t55 -155.5q0 -149 -119 -200l99 -244l77 -21v-44h-131l-119 293q-13 -2 -28 -3t-28 -1h-97v-224l74 -21v-44h-226v44l74 21v589l-74 20v46h270zM212 654v-302h108q160 0 160 155q0 75 -36.5 111t-115.5 36h-116zM423 842l-166 -84l-21 37
l155 101z" />
    <glyph glyph-name="Rcaron" unicode="&#x158;" horiz-adv-x="655" 
d="M330 720q118 0 173 -55.5t55 -155.5q0 -149 -119 -200l99 -244l77 -21v-44h-131l-119 293q-13 -2 -28 -3t-28 -1h-97v-224l74 -21v-44h-226v44l74 21v589l-74 20v46h270zM212 654v-302h108q160 0 160 155q0 75 -36.5 111t-115.5 36h-116zM304 766l-88 92l30 27l84 -68
l84 67l29 -26l-87 -92h-52z" />
    <glyph glyph-name="Rcommaaccent" unicode="&#x156;" horiz-adv-x="655" 
d="M330 720q118 0 173 -55.5t55 -155.5q0 -149 -119 -200l99 -244l77 -21v-44h-131l-119 293q-13 -2 -28 -3t-28 -1h-97v-224l74 -21v-44h-226v44l74 21v589l-74 20v46h270zM212 654v-302h108q160 0 160 155q0 75 -36.5 111t-115.5 36h-116zM376 -72l-58 -158l-46 12l40 160
z" />
    <glyph glyph-name="S" unicode="S" horiz-adv-x="554" 
d="M294 733q54 0 103.5 -11.5t87.5 -27.5v-158h-51l-23 110q-26 11 -56.5 16.5t-61.5 5.5q-66 0 -106 -30t-40 -91q0 -32 13.5 -54t36 -38t51.5 -28t60 -24q34 -13 68 -28.5t61 -38t43.5 -54.5t16.5 -80q0 -52 -17 -92t-48 -67t-73.5 -41t-94.5 -14q-57 0 -109.5 10
t-97.5 30v156h52l23 -108q26 -11 59 -17.5t73 -6.5q66 0 109 33t43 104q0 34 -12 57.5t-32.5 40.5t-47 28.5t-55.5 22.5q-36 13 -72 26.5t-65 34.5t-47 53t-18 81q0 48 17.5 85.5t48.5 63t72 38.5t89 13z" />
    <glyph glyph-name="Sacute" unicode="&#x15a;" horiz-adv-x="554" 
d="M294 733q54 0 103.5 -11.5t87.5 -27.5v-158h-51l-23 110q-26 11 -56.5 16.5t-61.5 5.5q-66 0 -106 -30t-40 -91q0 -32 13.5 -54t36 -38t51.5 -28t60 -24q34 -13 68 -28.5t61 -38t43.5 -54.5t16.5 -80q0 -52 -17 -92t-48 -67t-73.5 -41t-94.5 -14q-57 0 -109.5 10
t-97.5 30v156h52l23 -108q26 -11 59 -17.5t73 -6.5q66 0 109 33t43 104q0 34 -12 57.5t-32.5 40.5t-47 28.5t-55.5 22.5q-36 13 -72 26.5t-65 34.5t-47 53t-18 81q0 48 17.5 85.5t48.5 63t72 38.5t89 13zM386 842l-166 -84l-21 37l155 101z" />
    <glyph glyph-name="Scaron" unicode="&#x160;" horiz-adv-x="554" 
d="M294 733q54 0 103.5 -11.5t87.5 -27.5v-158h-51l-23 110q-26 11 -56.5 16.5t-61.5 5.5q-66 0 -106 -30t-40 -91q0 -32 13.5 -54t36 -38t51.5 -28t60 -24q34 -13 68 -28.5t61 -38t43.5 -54.5t16.5 -80q0 -52 -17 -92t-48 -67t-73.5 -41t-94.5 -14q-57 0 -109.5 10
t-97.5 30v156h52l23 -108q26 -11 59 -17.5t73 -6.5q66 0 109 33t43 104q0 34 -12 57.5t-32.5 40.5t-47 28.5t-55.5 22.5q-36 13 -72 26.5t-65 34.5t-47 53t-18 81q0 48 17.5 85.5t48.5 63t72 38.5t89 13zM267 766l-88 92l30 27l84 -68l84 67l29 -26l-87 -92h-52z" />
    <glyph glyph-name="Scedilla" unicode="&#x15e;" horiz-adv-x="554" 
d="M497 202q0 -95 -54 -149t-143 -63l-9 -46q14 -1 27.5 -4.5t24.5 -12t18 -21t7 -31.5q0 -43 -26 -62.5t-64 -19.5q-24 0 -45.5 6t-32.5 11l11 39q14 -5 29.5 -9t32.5 -4t31 7t14 30q0 22 -16.5 29t-48.5 7h-11l17 79q-56 1 -106.5 10.5t-95.5 29.5v156h52l23 -108
q26 -11 59 -17.5t73 -6.5q66 0 109 33t43 104q0 34 -12 57.5t-32.5 40.5t-47 28.5t-55.5 22.5q-36 13 -72 26.5t-65 34.5t-47 53t-18 81q0 48 17.5 85.5t48.5 63t72 38.5t89 13q54 0 103.5 -11.5t87.5 -27.5v-158h-51l-23 110q-26 11 -56.5 16.5t-61.5 5.5q-66 0 -106 -30
t-40 -91q0 -32 13.5 -54t36 -38t51.5 -28t60 -24q34 -13 68 -28.5t61 -38t43.5 -54.5t16.5 -80z" />
    <glyph glyph-name="Scircumflex" unicode="&#x15c;" horiz-adv-x="554" 
d="M294 733q54 0 103.5 -11.5t87.5 -27.5v-158h-51l-23 110q-26 11 -56.5 16.5t-61.5 5.5q-66 0 -106 -30t-40 -91q0 -32 13.5 -54t36 -38t51.5 -28t60 -24q34 -13 68 -28.5t61 -38t43.5 -54.5t16.5 -80q0 -52 -17 -92t-48 -67t-73.5 -41t-94.5 -14q-57 0 -109.5 10
t-97.5 30v156h52l23 -108q26 -11 59 -17.5t73 -6.5q66 0 109 33t43 104q0 34 -12 57.5t-32.5 40.5t-47 28.5t-55.5 22.5q-36 13 -72 26.5t-65 34.5t-47 53t-18 81q0 48 17.5 85.5t48.5 63t72 38.5t89 13zM406 784l-29 -26l-84 67l-84 -68l-30 27l88 92h52z" />
    <glyph glyph-name="Scommaaccent" unicode="&#x218;" horiz-adv-x="554" 
d="M294 733q54 0 103.5 -11.5t87.5 -27.5v-158h-51l-23 110q-26 11 -56.5 16.5t-61.5 5.5q-66 0 -106 -30t-40 -91q0 -32 13.5 -54t36 -38t51.5 -28t60 -24q34 -13 68 -28.5t61 -38t43.5 -54.5t16.5 -80q0 -52 -17 -92t-48 -67t-73.5 -41t-94.5 -14q-57 0 -109.5 10
t-97.5 30v156h52l23 -108q26 -11 59 -17.5t73 -6.5q66 0 109 33t43 104q0 34 -12 57.5t-32.5 40.5t-47 28.5t-55.5 22.5q-36 13 -72 26.5t-65 34.5t-47 53t-18 81q0 48 17.5 85.5t48.5 63t72 38.5t89 13zM318 -72l-58 -158l-46 12l40 160z" />
    <glyph glyph-name="T" unicode="T" horiz-adv-x="643" 
d="M594 537h-51l-20 118h-162v-590l75 -21v-44h-227v44l74 21v590h-161l-21 -118h-51v183h544v-183z" />
    <glyph glyph-name="Tbar" unicode="&#x166;" horiz-adv-x="649" 
d="M597 720v-183h-51l-20 118h-162v-247h120v-65h-120v-278l75 -21v-44h-227v44l74 21v278h-120v65h120v247h-161l-21 -118h-51v183h544z" />
    <glyph glyph-name="Tcaron" unicode="&#x164;" horiz-adv-x="643" 
d="M594 537h-51l-20 118h-162v-590l75 -21v-44h-227v44l74 21v590h-161l-21 -118h-51v183h544v-183zM295 766l-88 92l30 27l84 -68l84 67l29 -26l-87 -92h-52z" />
    <glyph glyph-name="U" unicode="U" horiz-adv-x="724" 
d="M674 676l-74 -21v-399q0 -138 -59.5 -203t-177.5 -65q-54 0 -98 15.5t-75 48t-48 83t-17 121.5v399l-75 21v44h228v-44l-76 -21v-390q0 -110 43.5 -159t122.5 -49q88 0 125 51t37 157v390l-76 21v44h220v-44z" />
    <glyph glyph-name="Uacute" unicode="&#xda;" horiz-adv-x="724" 
d="M674 676l-74 -21v-399q0 -138 -59.5 -203t-177.5 -65q-54 0 -98 15.5t-75 48t-48 83t-17 121.5v399l-75 21v44h228v-44l-76 -21v-390q0 -110 43.5 -159t122.5 -49q88 0 125 51t37 157v390l-76 21v44h220v-44zM458 842l-166 -84l-21 37l155 101z" />
    <glyph glyph-name="Ubreve" unicode="&#x16c;" horiz-adv-x="724" 
d="M674 676l-74 -21v-399q0 -138 -59.5 -203t-177.5 -65q-54 0 -98 15.5t-75 48t-48 83t-17 121.5v399l-75 21v44h228v-44l-76 -21v-390q0 -110 43.5 -159t122.5 -49q88 0 125 51t37 157v390l-76 21v44h220v-44zM472 870q-7 -54 -32.5 -80.5t-76.5 -26.5q-50 0 -76 26.5
t-32 80.5l46 9q5 -34 19 -50t43 -16t43.5 16t19.5 50z" />
    <glyph glyph-name="Ucircumflex" unicode="&#xdb;" horiz-adv-x="724" 
d="M674 676l-74 -21v-399q0 -138 -59.5 -203t-177.5 -65q-54 0 -98 15.5t-75 48t-48 83t-17 121.5v399l-75 21v44h228v-44l-76 -21v-390q0 -110 43.5 -159t122.5 -49q88 0 125 51t37 157v390l-76 21v44h220v-44zM478 784l-29 -26l-84 67l-84 -68l-30 27l88 92h52z" />
    <glyph glyph-name="Udieresis" unicode="&#xdc;" horiz-adv-x="724" 
d="M674 676l-74 -21v-399q0 -138 -59.5 -203t-177.5 -65q-54 0 -98 15.5t-75 48t-48 83t-17 121.5v399l-75 21v44h228v-44l-76 -21v-390q0 -110 43.5 -159t122.5 -49q88 0 125 51t37 157v390l-76 21v44h220v-44zM277 886q22 0 34.5 -13t12.5 -33q0 -19 -13 -31.5t-34 -12.5
q-22 0 -35.5 12.5t-13.5 31.5q0 20 13.5 33t35.5 13zM453 886q22 0 34.5 -13t12.5 -33q0 -19 -13 -31.5t-34 -12.5q-22 0 -35.5 12.5t-13.5 31.5q0 20 13.5 33t35.5 13z" />
    <glyph glyph-name="Ugrave" unicode="&#xd9;" horiz-adv-x="724" 
d="M674 676l-74 -21v-399q0 -138 -59.5 -203t-177.5 -65q-54 0 -98 15.5t-75 48t-48 83t-17 121.5v399l-75 21v44h228v-44l-76 -21v-390q0 -110 43.5 -159t122.5 -49q88 0 125 51t37 157v390l-76 21v44h220v-44zM461 795l-21 -37l-166 84l32 54z" />
    <glyph glyph-name="Uhungarumlaut" unicode="&#x170;" horiz-adv-x="724" 
d="M674 676l-74 -21v-399q0 -138 -59.5 -203t-177.5 -65q-54 0 -98 15.5t-75 48t-48 83t-17 121.5v399l-75 21v44h228v-44l-76 -21v-390q0 -110 43.5 -159t122.5 -49q88 0 125 51t37 157v390l-76 21v44h220v-44zM420 889l-127 -133l-35 26l114 144zM542 877l-122 -121
l-34 28l110 131z" />
    <glyph glyph-name="Umacron" unicode="&#x16a;" horiz-adv-x="724" 
d="M674 676l-74 -21v-399q0 -138 -59.5 -203t-177.5 -65q-54 0 -98 15.5t-75 48t-48 83t-17 121.5v399l-75 21v44h228v-44l-76 -21v-390q0 -110 43.5 -159t122.5 -49q88 0 125 51t37 157v390l-76 21v44h220v-44zM490 793h-254v55h254v-55z" />
    <glyph glyph-name="Uogonek" unicode="&#x172;" horiz-adv-x="724" 
d="M674 676l-74 -21v-399q0 -86 -23.5 -143t-68.5 -88q-66 -45 -98 -85t-32 -72q0 -38 39 -38q14 0 26.5 4.5t26.5 12.5l19 -38q-17 -11 -40 -21t-49 -10q-41 0 -62 21.5t-21 56.5q0 36 20.5 71.5t54.5 61.5q-7 -1 -14 -1h-15q-54 0 -98 15.5t-75 48t-48 83t-17 121.5v399
l-75 21v44h228v-44l-76 -21v-390q0 -110 43.5 -159t122.5 -49q88 0 125 51t37 157v390l-76 21v44h220v-44z" />
    <glyph glyph-name="Uring" unicode="&#x16e;" horiz-adv-x="724" 
d="M674 676l-74 -21v-399q0 -138 -59.5 -203t-177.5 -65q-54 0 -98 15.5t-75 48t-48 83t-17 121.5v399l-75 21v44h228v-44l-76 -21v-390q0 -110 43.5 -159t122.5 -49q88 0 125 51t37 157v390l-76 21v44h220v-44zM364 953q38 0 63.5 -22.5t25.5 -64.5q0 -43 -25.5 -66
t-63.5 -23q-39 0 -64 22t-25 64t25.5 66t63.5 24zM364 914q-20 0 -31.5 -13.5t-11.5 -37.5t11.5 -36t31.5 -12t31.5 13.5t11.5 36.5q0 49 -43 49z" />
    <glyph glyph-name="Utilde" unicode="&#x168;" horiz-adv-x="724" 
d="M674 676l-74 -21v-399q0 -138 -59.5 -203t-177.5 -65q-54 0 -98 15.5t-75 48t-48 83t-17 121.5v399l-75 21v44h228v-44l-76 -21v-390q0 -110 43.5 -159t122.5 -49q88 0 125 51t37 157v390l-76 21v44h220v-44zM497 855q-10 -37 -28.5 -55t-43.5 -18q-17 0 -33.5 5.5
t-31.5 11.5t-28 11.5t-23 5.5q-13 0 -20.5 -7t-18.5 -29l-39 16q12 38 31.5 56t43.5 18q16 0 31 -5.5t29 -11.5t27.5 -11.5t26.5 -5.5t22 6.5t17 27.5z" />
    <glyph glyph-name="V" unicode="V" horiz-adv-x="655" 
d="M627 720v-46l-64 -20l-188 -654h-91l-192 654l-64 20v46h211v-46l-65 -20l160 -574l157 574l-65 20v46h201z" />
    <glyph glyph-name="W" unicode="W" horiz-adv-x="971" 
d="M940 720v-46l-63 -20l-153 -654h-92l-110 450q-9 39 -18 79t-17 81q-9 -41 -18 -81.5t-18 -78.5l-109 -450h-93l-156 654l-62 20v46h207v-46l-65 -20l101 -431q7 -32 14 -67.5t13 -68.5q7 33 14 68.5t15 68.5l118 496h78l118 -497q8 -32 14.5 -67.5t13.5 -69.5
q7 34 13.5 70t13.5 68l99 430l-65 20v46h207z" />
    <glyph glyph-name="Wacute" unicode="&#x1e82;" horiz-adv-x="971" 
d="M940 720v-46l-63 -20l-153 -654h-92l-110 450q-9 39 -18 79t-17 81q-9 -41 -18 -81.5t-18 -78.5l-109 -450h-93l-156 654l-62 20v46h207v-46l-65 -20l101 -431q7 -32 14 -67.5t13 -68.5q7 33 14 68.5t15 68.5l118 496h78l118 -497q8 -32 14.5 -67.5t13.5 -69.5
q7 34 13.5 70t13.5 68l99 430l-65 20v46h207zM580 842l-166 -84l-21 37l155 101z" />
    <glyph glyph-name="Wcircumflex" unicode="&#x174;" horiz-adv-x="971" 
d="M940 720v-46l-63 -20l-153 -654h-92l-110 450q-9 39 -18 79t-17 81q-9 -41 -18 -81.5t-18 -78.5l-109 -450h-93l-156 654l-62 20v46h207v-46l-65 -20l101 -431q7 -32 14 -67.5t13 -68.5q7 33 14 68.5t15 68.5l118 496h78l118 -497q8 -32 14.5 -67.5t13.5 -69.5
q7 34 13.5 70t13.5 68l99 430l-65 20v46h207zM600 784l-29 -26l-84 67l-84 -68l-30 27l88 92h52z" />
    <glyph glyph-name="Wdieresis" unicode="&#x1e84;" horiz-adv-x="971" 
d="M940 720v-46l-63 -20l-153 -654h-92l-110 450q-9 39 -18 79t-17 81q-9 -41 -18 -81.5t-18 -78.5l-109 -450h-93l-156 654l-62 20v46h207v-46l-65 -20l101 -431q7 -32 14 -67.5t13 -68.5q7 33 14 68.5t15 68.5l118 496h78l118 -497q8 -32 14.5 -67.5t13.5 -69.5
q7 34 13.5 70t13.5 68l99 430l-65 20v46h207zM399 886q22 0 34.5 -13t12.5 -33q0 -19 -13 -31.5t-34 -12.5q-22 0 -35.5 12.5t-13.5 31.5q0 20 13.5 33t35.5 13zM575 886q22 0 34.5 -13t12.5 -33q0 -19 -13 -31.5t-34 -12.5q-22 0 -35.5 12.5t-13.5 31.5q0 20 13.5 33
t35.5 13z" />
    <glyph glyph-name="Wgrave" unicode="&#x1e80;" horiz-adv-x="971" 
d="M940 720v-46l-63 -20l-153 -654h-92l-110 450q-9 39 -18 79t-17 81q-9 -41 -18 -81.5t-18 -78.5l-109 -450h-93l-156 654l-62 20v46h207v-46l-65 -20l101 -431q7 -32 14 -67.5t13 -68.5q7 33 14 68.5t15 68.5l118 496h78l118 -497q8 -32 14.5 -67.5t13.5 -69.5
q7 34 13.5 70t13.5 68l99 430l-65 20v46h207zM583 795l-21 -37l-166 84l32 54z" />
    <glyph glyph-name="X" unicode="X" horiz-adv-x="625" 
d="M593 46v-46h-216v46l64 20l-135 238l-45 -80l-88 -158l64 -20v-46h-205v46l62 20l171 302l-164 286l-63 20v46h216v-46l-65 -20l94 -167l37 -64l126 231l-64 20v46h205v-46l-63 -20l-165 -290l171 -298z" />
    <glyph glyph-name="Y" unicode="Y" horiz-adv-x="620" 
d="M597 674l-63 -20l-186 -353v-236l76 -21v-44h-230v44l76 21v236l-186 353l-62 20v46h215v-46l-65 -20l140 -276h2l142 276l-65 20v46h206v-46z" />
    <glyph glyph-name="Yacute" unicode="&#xdd;" horiz-adv-x="620" 
d="M597 674l-63 -20l-186 -353v-236l76 -21v-44h-230v44l76 21v236l-186 353l-62 20v46h215v-46l-65 -20l140 -276h2l142 276l-65 20v46h206v-46zM406 842l-166 -84l-21 37l155 101z" />
    <glyph glyph-name="Ycircumflex" unicode="&#x176;" horiz-adv-x="620" 
d="M597 674l-63 -20l-186 -353v-236l76 -21v-44h-230v44l76 21v236l-186 353l-62 20v46h215v-46l-65 -20l140 -276h2l142 276l-65 20v46h206v-46zM426 784l-29 -26l-84 67l-84 -68l-30 27l88 92h52z" />
    <glyph glyph-name="Ydieresis" unicode="&#x178;" horiz-adv-x="620" 
d="M597 674l-63 -20l-186 -353v-236l76 -21v-44h-230v44l76 21v236l-186 353l-62 20v46h215v-46l-65 -20l140 -276h2l142 276l-65 20v46h206v-46zM225 886q22 0 34.5 -13t12.5 -33q0 -19 -13 -31.5t-34 -12.5q-22 0 -35.5 12.5t-13.5 31.5q0 20 13.5 33t35.5 13zM401 886
q22 0 34.5 -13t12.5 -33q0 -19 -13 -31.5t-34 -12.5q-22 0 -35.5 12.5t-13.5 31.5q0 20 13.5 33t35.5 13z" />
    <glyph glyph-name="Ygrave" unicode="&#x1ef2;" horiz-adv-x="620" 
d="M597 674l-63 -20l-186 -353v-236l76 -21v-44h-230v44l76 21v236l-186 353l-62 20v46h215v-46l-65 -20l140 -276h2l142 276l-65 20v46h206v-46zM409 795l-21 -37l-166 84l32 54z" />
    <glyph glyph-name="Z" unicode="Z" horiz-adv-x="596" 
d="M522 683l-364 -618l302 1l18 101h50v-167h-467v51l353 604h-271l-17 -102h-51v167h447v-37z" />
    <glyph glyph-name="Zacute" unicode="&#x179;" horiz-adv-x="596" 
d="M522 683l-364 -618l302 1l18 101h50v-167h-467v51l353 604h-271l-17 -102h-51v167h447v-37zM396 842l-166 -84l-21 37l155 101z" />
    <glyph glyph-name="Zcaron" unicode="&#x17d;" horiz-adv-x="596" 
d="M522 683l-364 -618l302 1l18 101h50v-167h-467v51l353 604h-271l-17 -102h-51v167h447v-37zM277 766l-88 92l30 27l84 -68l84 67l29 -26l-87 -92h-52z" />
    <glyph glyph-name="Zdotaccent" unicode="&#x17b;" horiz-adv-x="596" 
d="M522 683l-364 -618l302 1l18 101h50v-167h-467v51l353 604h-271l-17 -102h-51v167h447v-37zM301 872q22 0 37 -13t15 -35t-14.5 -34.5t-37.5 -12.5q-22 0 -37.5 12.5t-15.5 34.5t15.5 35t37.5 13z" />
    <glyph glyph-name="uni0162" unicode="&#x162;" horiz-adv-x="643" 
d="M594 720v-183h-51l-20 118h-162v-590l75 -21v-44h-88l-11 -56q14 -1 27.5 -4.5t24.5 -12t18 -21t7 -31.5q0 -43 -26 -62.5t-64 -19.5q-24 0 -45.5 6t-32.5 11l11 39q14 -5 29.5 -9t32.5 -4t31 7t14 30q0 22 -16.5 29t-48.5 7h-11l19 91h-98v44l74 21v590h-161l-21 -118
h-51v183h544z" />
    <glyph glyph-name="uni021A" unicode="&#x21a;" horiz-adv-x="643" 
d="M594 537h-51l-20 118h-162v-590l75 -21v-44h-227v44l74 21v590h-161l-21 -118h-51v183h544v-183zM364 -73l-58 -158l-46 12l40 160z" />
    <glyph glyph-name="a" unicode="a" horiz-adv-x="521" 
d="M246 537q81 0 128.5 -41t47.5 -135v-270q0 -18 7 -28t28 -10h23v-52q-7 -1 -17 -2t-21 -1q-85 0 -85 93q-26 -54 -66 -78.5t-93 -24.5q-69 0 -109 38t-40 112q0 28 9.5 57t34 53t68 39t111.5 15q21 0 39 -1.5t38 -3.5v60q0 118 -109 118q-39 0 -72 -15.5t-65 -41.5
l-31 48q35 32 79.5 51.5t94.5 19.5zM281 250q-86 0 -123 -29.5t-37 -80.5q0 -47 23 -70.5t65 -23.5q32 0 58 14t44 37t28 52.5t10 60.5v34q-14 2 -29.5 4t-38.5 2z" />
    <glyph glyph-name="aacute" unicode="&#xe1;" horiz-adv-x="521" 
d="M246 537q81 0 128.5 -41t47.5 -135v-270q0 -18 7 -28t28 -10h23v-52q-7 -1 -17 -2t-21 -1q-85 0 -85 93q-26 -54 -66 -78.5t-93 -24.5q-69 0 -109 38t-40 112q0 28 9.5 57t34 53t68 39t111.5 15q21 0 39 -1.5t38 -3.5v60q0 118 -109 118q-39 0 -72 -15.5t-65 -41.5
l-31 48q35 32 79.5 51.5t94.5 19.5zM281 250q-86 0 -123 -29.5t-37 -80.5q0 -47 23 -70.5t65 -23.5q32 0 58 14t44 37t28 52.5t10 60.5v34q-14 2 -29.5 4t-38.5 2zM360 717l-145 -126l-31 33l133 138z" />
    <glyph glyph-name="abreve" unicode="&#x103;" horiz-adv-x="521" 
d="M246 537q81 0 128.5 -41t47.5 -135v-270q0 -18 7 -28t28 -10h23v-52q-7 -1 -17 -2t-21 -1q-85 0 -85 93q-26 -54 -66 -78.5t-93 -24.5q-69 0 -109 38t-40 112q0 28 9.5 57t34 53t68 39t111.5 15q21 0 39 -1.5t38 -3.5v60q0 118 -109 118q-39 0 -72 -15.5t-65 -41.5
l-31 48q35 32 79.5 51.5t94.5 19.5zM281 250q-86 0 -123 -29.5t-37 -80.5q0 -47 23 -70.5t65 -23.5q32 0 58 14t44 37t28 52.5t10 60.5v34q-14 2 -29.5 4t-38.5 2zM378 752q-5 -80 -35 -117.5t-90 -37.5t-89 36.5t-37 117.5l46 8q7 -60 24 -85.5t56 -25.5q42 0 58 27.5
t21 83.5z" />
    <glyph glyph-name="acircumflex" unicode="&#xe2;" horiz-adv-x="521" 
d="M246 537q81 0 128.5 -41t47.5 -135v-270q0 -18 7 -28t28 -10h23v-52q-7 -1 -17 -2t-21 -1q-85 0 -85 93q-26 -54 -66 -78.5t-93 -24.5q-69 0 -109 38t-40 112q0 28 9.5 57t34 53t68 39t111.5 15q21 0 39 -1.5t38 -3.5v60q0 118 -109 118q-39 0 -72 -15.5t-65 -41.5
l-31 48q35 32 79.5 51.5t94.5 19.5zM281 250q-86 0 -123 -29.5t-37 -80.5q0 -47 23 -70.5t65 -23.5q32 0 58 14t44 37t28 52.5t10 60.5v34q-14 2 -29.5 4t-38.5 2zM252 698l-90 -116l-35 23l100 151h50l100 -151l-34 -23z" />
    <glyph glyph-name="adieresis" unicode="&#xe4;" horiz-adv-x="521" 
d="M246 537q81 0 128.5 -41t47.5 -135v-270q0 -18 7 -28t28 -10h23v-52q-7 -1 -17 -2t-21 -1q-85 0 -85 93q-26 -54 -66 -78.5t-93 -24.5q-69 0 -109 38t-40 112q0 28 9.5 57t34 53t68 39t111.5 15q21 0 39 -1.5t38 -3.5v60q0 118 -109 118q-39 0 -72 -15.5t-65 -41.5
l-31 48q35 32 79.5 51.5t94.5 19.5zM281 250q-86 0 -123 -29.5t-37 -80.5q0 -47 23 -70.5t65 -23.5q32 0 58 14t44 37t28 52.5t10 60.5v34q-14 2 -29.5 4t-38.5 2zM163 719q22 0 34.5 -13t12.5 -33q0 -19 -13 -31.5t-34 -12.5q-22 0 -35.5 12.5t-13.5 31.5q0 20 13.5 33
t35.5 13zM339 719q22 0 34.5 -13t12.5 -33q0 -19 -13 -31.5t-34 -12.5q-22 0 -35.5 12.5t-13.5 31.5q0 20 13.5 33t35.5 13z" />
    <glyph glyph-name="agrave" unicode="&#xe0;" horiz-adv-x="521" 
d="M246 537q81 0 128.5 -41t47.5 -135v-270q0 -18 7 -28t28 -10h23v-52q-7 -1 -17 -2t-21 -1q-85 0 -85 93q-26 -54 -66 -78.5t-93 -24.5q-69 0 -109 38t-40 112q0 28 9.5 57t34 53t68 39t111.5 15q21 0 39 -1.5t38 -3.5v60q0 118 -109 118q-39 0 -72 -15.5t-65 -41.5
l-31 48q35 32 79.5 51.5t94.5 19.5zM281 250q-86 0 -123 -29.5t-37 -80.5q0 -47 23 -70.5t65 -23.5q32 0 58 14t44 37t28 52.5t10 60.5v34q-14 2 -29.5 4t-38.5 2zM334 624l-31 -33l-145 126l43 45z" />
    <glyph glyph-name="amacron" unicode="&#x101;" horiz-adv-x="521" 
d="M246 537q81 0 128.5 -41t47.5 -135v-270q0 -18 7 -28t28 -10h23v-52q-7 -1 -17 -2t-21 -1q-85 0 -85 93q-26 -54 -66 -78.5t-93 -24.5q-69 0 -109 38t-40 112q0 28 9.5 57t34 53t68 39t111.5 15q21 0 39 -1.5t38 -3.5v60q0 118 -109 118q-39 0 -72 -15.5t-65 -41.5
l-31 48q35 32 79.5 51.5t94.5 19.5zM281 250q-86 0 -123 -29.5t-37 -80.5q0 -47 23 -70.5t65 -23.5q32 0 58 14t44 37t28 52.5t10 60.5v34q-14 2 -29.5 4t-38.5 2zM385 623h-254v55h254v-55z" />
    <glyph glyph-name="aogonek" unicode="&#x105;" horiz-adv-x="521" 
d="M488 -191q-17 -11 -40 -21t-49 -10q-41 0 -62 21.5t-21 56.5q0 41 26 81t68 65q-53 17 -53 89q-26 -54 -66 -78.5t-93 -24.5q-69 0 -109 38t-40 112q0 28 9.5 57t34 53t68 39t111.5 15q21 0 39 -1.5t38 -3.5v60q0 118 -109 118q-39 0 -72 -15.5t-65 -41.5l-31 48
q35 32 79.5 51.5t94.5 19.5q81 0 128.5 -41t47.5 -135v-270q0 -18 7 -28t28 -10h23v-53q-50 -26 -76.5 -63t-26.5 -69q0 -38 39 -38q14 0 26.5 4.5t26.5 12.5zM349 244q-14 2 -29.5 4t-38.5 2q-86 0 -123 -29.5t-37 -80.5q0 -47 23 -70.5t65 -23.5q32 0 58 14t44 37t28 52.5
t10 60.5v34z" />
    <glyph glyph-name="aring" unicode="&#xe5;" horiz-adv-x="521" 
d="M246 537q81 0 128.5 -41t47.5 -135v-270q0 -18 7 -28t28 -10h23v-52q-7 -1 -17 -2t-21 -1q-85 0 -85 93q-26 -54 -66 -78.5t-93 -24.5q-69 0 -109 38t-40 112q0 28 9.5 57t34 53t68 39t111.5 15q21 0 39 -1.5t38 -3.5v60q0 118 -109 118q-39 0 -72 -15.5t-65 -41.5
l-31 48q35 32 79.5 51.5t94.5 19.5zM281 250q-86 0 -123 -29.5t-37 -80.5q0 -47 23 -70.5t65 -23.5q32 0 58 14t44 37t28 52.5t10 60.5v34q-14 2 -29.5 4t-38.5 2zM254 765q38 0 63.5 -22.5t25.5 -64.5q0 -43 -25.5 -66t-63.5 -23q-39 0 -64 22t-25 64t25.5 66t63.5 24z
M254 726q-20 0 -31.5 -13.5t-11.5 -37.5t11.5 -36t31.5 -12t31.5 13.5t11.5 36.5q0 49 -43 49z" />
    <glyph glyph-name="atilde" unicode="&#xe3;" horiz-adv-x="521" 
d="M246 537q81 0 128.5 -41t47.5 -135v-270q0 -18 7 -28t28 -10h23v-52q-7 -1 -17 -2t-21 -1q-85 0 -85 93q-26 -54 -66 -78.5t-93 -24.5q-69 0 -109 38t-40 112q0 28 9.5 57t34 53t68 39t111.5 15q21 0 39 -1.5t38 -3.5v60q0 118 -109 118q-39 0 -72 -15.5t-65 -41.5
l-31 48q35 32 79.5 51.5t94.5 19.5zM281 250q-86 0 -123 -29.5t-37 -80.5q0 -47 23 -70.5t65 -23.5q32 0 58 14t44 37t28 52.5t10 60.5v34q-14 2 -29.5 4t-38.5 2zM386 682q-10 -37 -28.5 -55t-43.5 -18q-17 0 -33.5 5.5t-31.5 11.5t-28 11.5t-23 5.5q-13 0 -20.5 -7
t-18.5 -29l-39 16q12 38 31.5 56t43.5 18q16 0 31 -5.5t29 -11.5t27.5 -11.5t26.5 -5.5t22 6.5t17 27.5z" />
    <glyph glyph-name="ae" unicode="&#xe6;" horiz-adv-x="811" 
d="M567 537q94 0 140.5 -59.5t46.5 -186.5v-23t-1 -23h-328q1 -94 36 -144t113 -50q40 0 73 12t70 39l27 -50q-42 -34 -85 -49t-94 -15q-65 0 -111.5 26.5t-72.5 85.5q-29 -60 -78 -86t-100 -26q-70 0 -112 38.5t-42 113.5q0 28 9.5 57t34 53t66.5 39t108 15q22 0 41.5 -1.5
t40.5 -3.5v58q0 61 -27.5 90t-78.5 29q-42 0 -78.5 -15t-66.5 -41l-29 48q37 30 82.5 49.5t93.5 19.5q54 0 94.5 -21.5t60.5 -68.5q27 44 69 67t98 23zM564 477q-41 0 -68 -17.5t-43 -43.5t-22.5 -56.5t-6.5 -57.5h257q0 40 -6 72.5t-19.5 55t-36 35t-55.5 12.5zM290 254
q-47 0 -79.5 -8t-52 -23t-28 -36.5t-8.5 -48.5q0 -44 25.5 -69t66.5 -25q28 0 53 11.5t43.5 32.5t29.5 49t11 61q0 13 -0.5 25.5t-0.5 24.5q-29 6 -60 6z" />
    <glyph glyph-name="b" unicode="b" horiz-adv-x="590" 
d="M185 456q30 37 69 59t90 22q94 0 142.5 -69t48.5 -205q0 -134 -49 -204.5t-154 -70.5q-30 0 -54.5 8t-44 19.5t-33.5 25.5t-22 26l-15 -67h-51v655l-70 21v44h143v-264zM326 472q-46 0 -80.5 -26t-60.5 -60v-255q8 -13 21 -27t30 -25t38 -18.5t45 -7.5q64 0 101 49
t37 159t-33.5 160.5t-97.5 50.5z" />
    <glyph glyph-name="c" unicode="c" horiz-adv-x="495" 
d="M270 537q48 0 86.5 -11t78.5 -34v-146h-53l-23 110q-20 10 -40 13.5t-49 3.5q-66 0 -106 -50.5t-40 -156.5q0 -107 40.5 -160t109.5 -53q31 0 66.5 10t74.5 29l23 -56q-43 -24 -88.5 -36t-87.5 -12q-48 0 -88 17t-68 51.5t-43.5 86t-15.5 121.5t16.5 121.5t46 85t70.5 50
t90 16.5z" />
    <glyph glyph-name="cacute" unicode="&#x107;" horiz-adv-x="495" 
d="M270 537q48 0 86.5 -11t78.5 -34v-146h-53l-23 110q-20 10 -40 13.5t-49 3.5q-66 0 -106 -50.5t-40 -156.5q0 -107 40.5 -160t109.5 -53q31 0 66.5 10t74.5 29l23 -56q-43 -24 -88.5 -36t-87.5 -12q-48 0 -88 17t-68 51.5t-43.5 86t-15.5 121.5t16.5 121.5t46 85t70.5 50
t90 16.5zM390 717l-145 -126l-31 33l133 138z" />
    <glyph glyph-name="ccaron" unicode="&#x10d;" horiz-adv-x="495" 
d="M270 537q48 0 86.5 -11t78.5 -34v-146h-53l-23 110q-20 10 -40 13.5t-49 3.5q-66 0 -106 -50.5t-40 -156.5q0 -107 40.5 -160t109.5 -53q31 0 66.5 10t74.5 29l23 -56q-43 -24 -88.5 -36t-87.5 -12q-48 0 -88 17t-68 51.5t-43.5 86t-15.5 121.5t16.5 121.5t46 85t70.5 50
t90 16.5zM406 741l-100 -151h-50l-100 151l35 23l90 -116l91 116z" />
    <glyph glyph-name="ccedilla" unicode="&#xe7;" horiz-adv-x="495" 
d="M276 -56q14 -1 27.5 -4.5t24.5 -12t18 -21t7 -31.5q0 -43 -26 -62.5t-64 -19.5q-24 0 -45.5 6t-32.5 11l11 39q14 -5 29.5 -9t32.5 -4t31 7t14 30q0 22 -16.5 29t-48.5 7h-11l17 80q-89 6 -143 74t-54 201q0 70 16.5 121.5t46 85t70.5 50t90 16.5q48 0 86.5 -11t78.5 -34
v-146h-53l-23 110q-20 10 -40 13.5t-49 3.5q-66 0 -106 -50.5t-40 -156.5q0 -107 40.5 -160t109.5 -53q31 0 66.5 10t74.5 29l23 -56q-37 -21 -76.5 -32.5t-76.5 -14.5z" />
    <glyph glyph-name="ccircumflex" unicode="&#x109;" horiz-adv-x="495" 
d="M270 537q48 0 86.5 -11t78.5 -34v-146h-53l-23 110q-20 10 -40 13.5t-49 3.5q-66 0 -106 -50.5t-40 -156.5q0 -107 40.5 -160t109.5 -53q31 0 66.5 10t74.5 29l23 -56q-43 -24 -88.5 -36t-87.5 -12q-48 0 -88 17t-68 51.5t-43.5 86t-15.5 121.5t16.5 121.5t46 85t70.5 50
t90 16.5zM282 698l-90 -116l-35 23l100 151h50l100 -151l-34 -23z" />
    <glyph glyph-name="cdotaccent" unicode="&#x10b;" horiz-adv-x="495" 
d="M270 537q48 0 86.5 -11t78.5 -34v-146h-53l-23 110q-20 10 -40 13.5t-49 3.5q-66 0 -106 -50.5t-40 -156.5q0 -107 40.5 -160t109.5 -53q31 0 66.5 10t74.5 29l23 -56q-43 -24 -88.5 -36t-87.5 -12q-48 0 -88 17t-68 51.5t-43.5 86t-15.5 121.5t16.5 121.5t46 85t70.5 50
t90 16.5zM284 716q22 0 37 -13t15 -35t-14.5 -34.5t-37.5 -12.5q-22 0 -37.5 12.5t-15.5 34.5t15.5 35t37.5 13z" />
    <glyph glyph-name="d" unicode="d" horiz-adv-x="588" 
d="M478 63l70 -22v-41h-136l-3 68q-9 -12 -23.5 -26t-34 -26t-45 -20t-56.5 -8q-100 0 -147.5 71.5t-47.5 202.5q0 134 52 204.5t146 70.5q53 0 89.5 -23.5t62.5 -55.5v197l-68 21v44h141v-657zM268 472q-61 0 -98 -50.5t-37 -159.5q0 -44 7 -82.5t23.5 -66.5t43 -44
t65.5 -16q24 0 45 8t37.5 19.5t29 24.5t21.5 24v257q-8 12 -21.5 27t-31 28t-39 22t-45.5 9z" />
    <glyph glyph-name="eth" unicode="&#xf0;" horiz-adv-x="495" 
d="M351 608q52 -58 73.5 -137t21.5 -176q0 -72 -13 -128.5t-38.5 -96.5t-64.5 -61t-91 -21q-91 0 -144 56t-53 168q0 50 12 91.5t35 71t57 46t78 16.5q48 0 86.5 -19.5t65.5 -52.5q-7 66 -27 115t-52 86l-80 -60l-36 46l71 54q-50 37 -123 60l20 56q49 -12 88 -30.5
t70 -42.5l84 62l37 -47zM238 52q62 0 100 59.5t37 186.5q-11 13 -24.5 27t-30.5 26t-37 19.5t-44 7.5q-25 0 -47.5 -9t-39.5 -29t-27 -51.5t-10 -75.5t9.5 -74.5t26.5 -49.5t39 -28t48 -9z" />
    <glyph glyph-name="dcaron" unicode="&#x10f;" horiz-adv-x="646" 
d="M478 63l70 -22v-41h-136l-3 68q-9 -12 -23.5 -26t-34 -26t-45 -20t-56.5 -8q-100 0 -147.5 71.5t-47.5 202.5q0 134 52 204.5t146 70.5q53 0 89.5 -23.5t62.5 -55.5v197l-68 21v44h141v-657zM268 472q-61 0 -98 -50.5t-37 -159.5q0 -44 7 -82.5t23.5 -66.5t43 -44
t65.5 -16q24 0 45 8t37.5 19.5t29 24.5t21.5 24v257q-8 12 -21.5 27t-31 28t-39 22t-45.5 9zM570 534h-50l33 186h68z" />
    <glyph glyph-name="dcroat" unicode="&#x111;" horiz-adv-x="608" 
d="M478 647h78v-58h-78v-526l70 -22v-41h-136l-3 65q-9 -12 -23.5 -25.5t-34 -25t-45 -19t-56.5 -7.5q-99 0 -147 64.5t-48 192.5q0 125 51 191t145 66q53 0 92 -24t62 -52v163h-128v58h128v73h73v-73zM262 439q-57 0 -92.5 -47t-35.5 -147q0 -42 7 -77.5t22.5 -61
t40.5 -39.5t61 -14q27 0 49 7.5t39.5 18.5t30 24.5t21.5 24.5v226q-8 12 -22 27t-32.5 27.5t-41 21.5t-47.5 9z" />
    <glyph glyph-name="e" unicode="e" horiz-adv-x="500" 
d="M263 537q94 0 140.5 -60t46.5 -186v-23t-1 -23h-324q2 -94 37.5 -144t111.5 -50q39 0 71.5 12t68.5 39l26 -50q-40 -34 -83 -49t-93 -15t-90 15.5t-68 48.5t-43.5 85t-15.5 125q0 67 15.5 118.5t43.5 86t68 52.5t89 18zM264 477q-41 0 -67.5 -17.5t-42 -43.5t-22 -57
t-6.5 -58h252q0 40 -6 73t-19 55.5t-34.5 35t-54.5 12.5z" />
    <glyph glyph-name="eacute" unicode="&#xe9;" horiz-adv-x="500" 
d="M263 537q94 0 140.5 -60t46.5 -186v-23t-1 -23h-324q2 -94 37.5 -144t111.5 -50q39 0 71.5 12t68.5 39l26 -50q-40 -34 -83 -49t-93 -15t-90 15.5t-68 48.5t-43.5 85t-15.5 125q0 67 15.5 118.5t43.5 86t68 52.5t89 18zM264 477q-41 0 -67.5 -17.5t-42 -43.5t-22 -57
t-6.5 -58h252q0 40 -6 73t-19 55.5t-34.5 35t-54.5 12.5zM379 717l-145 -126l-31 33l133 138z" />
    <glyph glyph-name="ebreve" unicode="&#x115;" horiz-adv-x="500" 
d="M263 537q94 0 140.5 -60t46.5 -186v-23t-1 -23h-324q2 -94 37.5 -144t111.5 -50q39 0 71.5 12t68.5 39l26 -50q-40 -34 -83 -49t-93 -15t-90 15.5t-68 48.5t-43.5 85t-15.5 125q0 67 15.5 118.5t43.5 86t68 52.5t89 18zM264 477q-41 0 -67.5 -17.5t-42 -43.5t-22 -57
t-6.5 -58h252q0 40 -6 73t-19 55.5t-34.5 35t-54.5 12.5zM397 751q-5 -80 -35 -117.5t-90 -37.5t-89 36.5t-37 117.5l46 8q7 -60 24 -85.5t56 -25.5q42 0 58 27.5t21 83.5z" />
    <glyph glyph-name="ecaron" unicode="&#x11b;" horiz-adv-x="500" 
d="M263 537q94 0 140.5 -60t46.5 -186v-23t-1 -23h-324q2 -94 37.5 -144t111.5 -50q39 0 71.5 12t68.5 39l26 -50q-40 -34 -83 -49t-93 -15t-90 15.5t-68 48.5t-43.5 85t-15.5 125q0 67 15.5 118.5t43.5 86t68 52.5t89 18zM264 477q-41 0 -67.5 -17.5t-42 -43.5t-22 -57
t-6.5 -58h252q0 40 -6 73t-19 55.5t-34.5 35t-54.5 12.5zM395 741l-100 -151h-50l-100 151l35 23l90 -116l91 116z" />
    <glyph glyph-name="ecircumflex" unicode="&#xea;" horiz-adv-x="500" 
d="M263 537q94 0 140.5 -60t46.5 -186v-23t-1 -23h-324q2 -94 37.5 -144t111.5 -50q39 0 71.5 12t68.5 39l26 -50q-40 -34 -83 -49t-93 -15t-90 15.5t-68 48.5t-43.5 85t-15.5 125q0 67 15.5 118.5t43.5 86t68 52.5t89 18zM264 477q-41 0 -67.5 -17.5t-42 -43.5t-22 -57
t-6.5 -58h252q0 40 -6 73t-19 55.5t-34.5 35t-54.5 12.5zM271 698l-90 -116l-35 23l100 151h50l100 -151l-34 -23z" />
    <glyph glyph-name="edieresis" unicode="&#xeb;" horiz-adv-x="500" 
d="M263 537q94 0 140.5 -60t46.5 -186v-23t-1 -23h-324q2 -94 37.5 -144t111.5 -50q39 0 71.5 12t68.5 39l26 -50q-40 -34 -83 -49t-93 -15t-90 15.5t-68 48.5t-43.5 85t-15.5 125q0 67 15.5 118.5t43.5 86t68 52.5t89 18zM264 477q-41 0 -67.5 -17.5t-42 -43.5t-22 -57
t-6.5 -58h252q0 40 -6 73t-19 55.5t-34.5 35t-54.5 12.5zM182 719q22 0 34.5 -13t12.5 -33q0 -19 -13 -31.5t-34 -12.5q-22 0 -35.5 12.5t-13.5 31.5q0 20 13.5 33t35.5 13zM358 719q22 0 34.5 -13t12.5 -33q0 -19 -13 -31.5t-34 -12.5q-22 0 -35.5 12.5t-13.5 31.5
q0 20 13.5 33t35.5 13z" />
    <glyph glyph-name="edotaccent" unicode="&#x117;" horiz-adv-x="500" 
d="M263 537q94 0 140.5 -60t46.5 -186v-23t-1 -23h-324q2 -94 37.5 -144t111.5 -50q39 0 71.5 12t68.5 39l26 -50q-40 -34 -83 -49t-93 -15t-90 15.5t-68 48.5t-43.5 85t-15.5 125q0 67 15.5 118.5t43.5 86t68 52.5t89 18zM264 477q-41 0 -67.5 -17.5t-42 -43.5t-22 -57
t-6.5 -58h252q0 40 -6 73t-19 55.5t-34.5 35t-54.5 12.5zM273 716q22 0 37 -13t15 -35t-14.5 -34.5t-37.5 -12.5q-22 0 -37.5 12.5t-15.5 34.5t15.5 35t37.5 13z" />
    <glyph glyph-name="egrave" unicode="&#xe8;" horiz-adv-x="500" 
d="M263 537q94 0 140.5 -60t46.5 -186v-23t-1 -23h-324q2 -94 37.5 -144t111.5 -50q39 0 71.5 12t68.5 39l26 -50q-40 -34 -83 -49t-93 -15t-90 15.5t-68 48.5t-43.5 85t-15.5 125q0 67 15.5 118.5t43.5 86t68 52.5t89 18zM264 477q-41 0 -67.5 -17.5t-42 -43.5t-22 -57
t-6.5 -58h252q0 40 -6 73t-19 55.5t-34.5 35t-54.5 12.5zM353 624l-31 -33l-145 126l43 45z" />
    <glyph glyph-name="emacron" unicode="&#x113;" horiz-adv-x="500" 
d="M263 537q94 0 140.5 -60t46.5 -186v-23t-1 -23h-324q2 -94 37.5 -144t111.5 -50q39 0 71.5 12t68.5 39l26 -50q-40 -34 -83 -49t-93 -15t-90 15.5t-68 48.5t-43.5 85t-15.5 125q0 67 15.5 118.5t43.5 86t68 52.5t89 18zM264 477q-41 0 -67.5 -17.5t-42 -43.5t-22 -57
t-6.5 -58h252q0 40 -6 73t-19 55.5t-34.5 35t-54.5 12.5zM404 623h-254v55h254v-55z" />
    <glyph glyph-name="eogonek" unicode="&#x119;" horiz-adv-x="500" 
d="M450 291v-23t-1 -23h-324q2 -94 37.5 -144t111.5 -50q39 0 71.5 12t68.5 39l26 -50l-18 -14q-63 -52 -91.5 -96t-28.5 -74q0 -38 39 -38q14 0 26.5 4.5t26.5 12.5l19 -38q-17 -11 -40 -21t-49 -10q-41 0 -62 21.5t-21 56.5q0 36 19.5 73t53.5 63q-12 -2 -24.5 -3
t-25.5 -1q-50 0 -90 15.5t-68 48.5t-43.5 85t-15.5 125q0 67 15.5 118.5t43.5 86t68 52.5t89 18q94 0 140.5 -60t46.5 -186zM378 301q0 40 -6 73t-19 55.5t-34.5 35t-54.5 12.5q-41 0 -67.5 -17.5t-42 -43.5t-22 -57t-6.5 -58h252z" />
    <glyph glyph-name="f" unicode="f" horiz-adv-x="359" 
d="M256 732q18 0 37 -2t39 -7l-6 -55q-12 3 -26.5 5t-30.5 2q-30 0 -50.5 -15t-20.5 -57v-78h117v-58h-117v-404l102 -22v-41h-245v41l70 22v404h-71v44l71 12v75q0 60 29.5 97t101.5 37z" />
    <glyph glyph-name="g" unicode="g" horiz-adv-x="532" 
d="M491 467l-93 7q42 -44 42 -115q0 -83 -53 -128.5t-143 -45.5q-19 0 -36.5 1.5t-33.5 6.5q-9 -11 -15.5 -24t-6.5 -28q0 -20 16.5 -34t51.5 -14h118q72 0 111 -29t39 -92q0 -36 -13.5 -68.5t-42 -58t-72.5 -40.5t-104 -15q-111 0 -162 37t-51 99q0 43 21 72.5t56 52.5
q-17 14 -27.5 31.5t-10.5 43.5q0 29 13.5 50.5t29.5 38.5q-71 45 -71 142q0 85 53 132.5t140 47.5q50 0 89 -15l155 16v-71zM248 481q-53 0 -86.5 -30t-33.5 -90q0 -61 33.5 -90t86.5 -29q52 0 86 29t34 90q0 63 -34 91.5t-86 28.5zM177 27q-65 -35 -65 -94q0 -36 32 -60.5
t110 -24.5q32 0 61 6t51.5 20t36 36t13.5 55q0 38 -21.5 50t-67.5 12h-150z" />
    <glyph glyph-name="gbreve" unicode="&#x11f;" horiz-adv-x="532" 
d="M491 467l-93 7q42 -44 42 -115q0 -83 -53 -128.5t-143 -45.5q-19 0 -36.5 1.5t-33.5 6.5q-9 -11 -15.5 -24t-6.5 -28q0 -20 16.5 -34t51.5 -14h118q72 0 111 -29t39 -92q0 -36 -13.5 -68.5t-42 -58t-72.5 -40.5t-104 -15q-111 0 -162 37t-51 99q0 43 21 72.5t56 52.5
q-17 14 -27.5 31.5t-10.5 43.5q0 29 13.5 50.5t29.5 38.5q-71 45 -71 142q0 85 53 132.5t140 47.5q50 0 89 -15l155 16v-71zM248 481q-53 0 -86.5 -30t-33.5 -90q0 -61 33.5 -90t86.5 -29q52 0 86 29t34 90q0 63 -34 91.5t-86 28.5zM177 27q-65 -35 -65 -94q0 -36 32 -60.5
t110 -24.5q32 0 61 6t51.5 20t36 36t13.5 55q0 38 -21.5 50t-67.5 12h-150zM380 751q-5 -80 -35 -117.5t-90 -37.5t-89 36.5t-37 117.5l46 8q7 -60 24 -85.5t56 -25.5q42 0 58 27.5t21 83.5z" />
    <glyph glyph-name="gcircumflex" unicode="&#x11d;" horiz-adv-x="532" 
d="M491 467l-93 7q42 -44 42 -115q0 -83 -53 -128.5t-143 -45.5q-19 0 -36.5 1.5t-33.5 6.5q-9 -11 -15.5 -24t-6.5 -28q0 -20 16.5 -34t51.5 -14h118q72 0 111 -29t39 -92q0 -36 -13.5 -68.5t-42 -58t-72.5 -40.5t-104 -15q-111 0 -162 37t-51 99q0 43 21 72.5t56 52.5
q-17 14 -27.5 31.5t-10.5 43.5q0 29 13.5 50.5t29.5 38.5q-71 45 -71 142q0 85 53 132.5t140 47.5q50 0 89 -15l155 16v-71zM248 481q-53 0 -86.5 -30t-33.5 -90q0 -61 33.5 -90t86.5 -29q52 0 86 29t34 90q0 63 -34 91.5t-86 28.5zM177 27q-65 -35 -65 -94q0 -36 32 -60.5
t110 -24.5q32 0 61 6t51.5 20t36 36t13.5 55q0 38 -21.5 50t-67.5 12h-150zM254 698l-90 -116l-35 23l100 151h50l100 -151l-34 -23z" />
    <glyph glyph-name="gcommaaccent" unicode="&#x123;" horiz-adv-x="532" 
d="M491 467l-93 7q42 -44 42 -115q0 -83 -53 -128.5t-143 -45.5q-19 0 -36.5 1.5t-33.5 6.5q-9 -11 -15.5 -24t-6.5 -28q0 -20 16.5 -34t51.5 -14h118q72 0 111 -29t39 -92q0 -36 -13.5 -68.5t-42 -58t-72.5 -40.5t-104 -15q-111 0 -162 37t-51 99q0 43 21 72.5t56 52.5
q-17 14 -27.5 31.5t-10.5 43.5q0 29 13.5 50.5t29.5 38.5q-71 45 -71 142q0 85 53 132.5t140 47.5q50 0 89 -15l155 16v-71zM248 481q-53 0 -86.5 -30t-33.5 -90q0 -61 33.5 -90t86.5 -29q52 0 86 29t34 90q0 63 -34 91.5t-86 28.5zM177 27q-65 -35 -65 -94q0 -36 32 -60.5
t110 -24.5q32 0 61 6t51.5 20t36 36t13.5 55q0 38 -21.5 50t-67.5 12h-150zM214.027 607.991l57.9932 157.98l45.9941 -11.998l-39.9951 -159.98z" />
    <glyph glyph-name="gdotaccent" unicode="&#x121;" horiz-adv-x="532" 
d="M491 467l-93 7q42 -44 42 -115q0 -83 -53 -128.5t-143 -45.5q-19 0 -36.5 1.5t-33.5 6.5q-9 -11 -15.5 -24t-6.5 -28q0 -20 16.5 -34t51.5 -14h118q72 0 111 -29t39 -92q0 -36 -13.5 -68.5t-42 -58t-72.5 -40.5t-104 -15q-111 0 -162 37t-51 99q0 43 21 72.5t56 52.5
q-17 14 -27.5 31.5t-10.5 43.5q0 29 13.5 50.5t29.5 38.5q-71 45 -71 142q0 85 53 132.5t140 47.5q50 0 89 -15l155 16v-71zM248 481q-53 0 -86.5 -30t-33.5 -90q0 -61 33.5 -90t86.5 -29q52 0 86 29t34 90q0 63 -34 91.5t-86 28.5zM177 27q-65 -35 -65 -94q0 -36 32 -60.5
t110 -24.5q32 0 61 6t51.5 20t36 36t13.5 55q0 38 -21.5 50t-67.5 12h-150zM256 716q22 0 37 -13t15 -35t-14.5 -34.5t-37.5 -12.5q-22 0 -37.5 12.5t-15.5 34.5t15.5 35t37.5 13z" />
    <glyph glyph-name="h" unicode="h" horiz-adv-x="616" 
d="M195 456h2q29 35 69 58t88 23q43 0 72.5 -14t47 -39t25 -60t7.5 -76v-286l69 -21v-41h-143v336q0 69 -22 102.5t-76 33.5q-24 0 -45 -9t-38.5 -22t-31 -27.5t-22.5 -24.5v-326l70 -22v-41h-213v41l70 22v592l-70 21v44h141v-264z" />
    <glyph glyph-name="hbar" unicode="&#x127;" horiz-adv-x="623" 
d="M582 0h-144v302q0 72 -22.5 104t-73.5 32q-23 0 -44 -8.5t-38.5 -21t-31.5 -27t-23 -25.5v-293l70 -21v-42h-213v42l70 21v526h-78v58h78v73h71v-73h128v-58h-128v-168q31 36 70.5 58.5t87.5 22.5q43 0 72 -13.5t46.5 -38t25 -60t7.5 -78.5v-249l70 -21v-42z" />
    <glyph glyph-name="hcircumflex" unicode="&#x125;" horiz-adv-x="616" 
d="M195 456h2q29 35 69 58t88 23q43 0 72.5 -14t47 -39t25 -60t7.5 -76v-286l69 -21v-41h-143v336q0 69 -22 102.5t-76 33.5q-24 0 -45 -9t-38.5 -22t-31 -27.5t-22.5 -24.5v-326l70 -22v-41h-213v41l70 22v592l-70 21v44h141v-264zM264 784l-29 -26l-84 67l-84 -68l-30 27
l88 92h52z" />
    <glyph glyph-name="i" unicode="i" horiz-adv-x="314" 
d="M155 716q22 0 37 -13t15 -35t-14.5 -34.5t-37.5 -12.5q-22 0 -37.5 12.5t-15.5 34.5t15.5 35t37.5 13zM197 64l70 -21v-43h-213v43l70 21v396l-69 21v44h142v-461z" />
    <glyph glyph-name="dotlessi" unicode="&#x131;" horiz-adv-x="314" 
d="M197 64l70 -21v-43h-213v43l70 21v396l-69 21v44h142v-461z" />
    <glyph glyph-name="iacute" unicode="&#xed;" horiz-adv-x="314" 
d="M197 64l70 -21v-43h-213v43l70 21v396l-69 21v44h142v-461zM261 717l-145 -126l-31 33l133 138z" />
    <glyph glyph-name="ibreve" unicode="&#x12d;" horiz-adv-x="314" 
d="M197 64l70 -21v-43h-213v43l70 21v396l-69 21v44h142v-461zM280 751q-5 -80 -35 -117.5t-90 -37.5t-89 36.5t-37 117.5l46 8q7 -60 24 -85.5t56 -25.5q42 0 58 27.5t21 83.5z" />
    <glyph glyph-name="icircumflex" unicode="&#xee;" horiz-adv-x="314" 
d="M197 64l70 -21v-43h-213v43l70 21v396l-69 21v44h142v-461zM154 698l-90 -116l-35 23l100 151h50l100 -151l-34 -23z" />
    <glyph glyph-name="idieresis" unicode="&#xef;" horiz-adv-x="314" 
d="M197 64l70 -21v-43h-213v43l70 21v396l-69 21v44h142v-461zM65 719q22 0 34.5 -13t12.5 -33q0 -19 -13 -31.5t-34 -12.5q-22 0 -35.5 12.5t-13.5 31.5q0 20 13.5 33t35.5 13zM241 719q22 0 34.5 -13t12.5 -33q0 -19 -13 -31.5t-34 -12.5q-22 0 -35.5 12.5t-13.5 31.5
q0 20 13.5 33t35.5 13z" />
    <glyph glyph-name="i.loclTRK" horiz-adv-x="314" 
d="M155 716q22 0 37 -13t15 -35t-14.5 -34.5t-37.5 -12.5q-22 0 -37.5 12.5t-15.5 34.5t15.5 35t37.5 13zM197 64l70 -21v-43h-213v43l70 21v396l-69 21v44h142v-461z" />
    <glyph glyph-name="igrave" unicode="&#xec;" horiz-adv-x="314" 
d="M197 64l70 -21v-43h-213v43l70 21v396l-69 21v44h142v-461zM236 624l-31 -33l-145 126l43 45z" />
    <glyph glyph-name="ij" unicode="&#x133;" horiz-adv-x="603" 
d="M155 716q22 0 37 -13t15 -35t-14.5 -34.5t-37.5 -12.5q-22 0 -37.5 12.5t-15.5 34.5t15.5 35t37.5 13zM197 64l70 -21v-43h-213v43l70 21v396l-69 21v44h142v-461zM462 716q22 0 37 -13t15 -35t-14.5 -34.5t-37.5 -12.5q-22 0 -37.5 12.5t-15.5 34.5t15.5 35t37.5 13z
M504 -79q0 -60 -23.5 -92.5t-87.5 -32.5q-19 0 -37.5 2.5t-35.5 8.5l7 56q21 -7 48 -7q29 0 42 12.5t13 53.5v538l-69 21v44h143v-604z" />
    <glyph glyph-name="imacron" unicode="&#x12b;" horiz-adv-x="314" 
d="M197 64l70 -21v-43h-213v43l70 21v396l-69 21v44h142v-461zM287 623h-254v55h254v-55z" />
    <glyph glyph-name="iogonek" unicode="&#x12f;" horiz-adv-x="314" 
d="M155 621q-22 0 -37.5 12.5t-15.5 34.5t15.5 35t37.5 13t37 -13t15 -35t-14.5 -34.5t-37.5 -12.5zM274 -191q-17 -11 -40 -21t-49 -10q-41 0 -62 21.5t-21 56.5q0 40 25 79t66 65h-139v43l70 21v396l-69 21v44h142v-461l70 -21v-43h-1q-50 -26 -76.5 -63t-26.5 -69
q0 -38 39 -38q14 0 26.5 4.5t26.5 12.5z" />
    <glyph glyph-name="itilde" unicode="&#x129;" horiz-adv-x="314" 
d="M197 64l70 -21v-43h-213v43l70 21v396l-69 21v44h142v-461zM288 682q-10 -37 -28.5 -55t-43.5 -18q-17 0 -33.5 5.5t-31.5 11.5t-28 11.5t-23 5.5q-13 0 -20.5 -7t-18.5 -29l-39 16q12 38 31.5 56t43.5 18q16 0 31 -5.5t29 -11.5t27.5 -11.5t26.5 -5.5t22 6.5t17 27.5z
" />
    <glyph glyph-name="j" unicode="j" horiz-adv-x="293" 
d="M152 716q22 0 37 -13t15 -35t-14.5 -34.5t-37.5 -12.5q-22 0 -37.5 12.5t-15.5 34.5t15.5 35t37.5 13zM194 -79q0 -60 -23.5 -92.5t-87.5 -32.5q-19 0 -37.5 2.5t-35.5 8.5l7 56q21 -7 48 -7q29 0 42 12.5t13 53.5v538l-69 21v44h143v-604z" />
    <glyph glyph-name="dotlessj" unicode="&#x237;" horiz-adv-x="293" 
d="M194 -79q0 -60 -23.5 -92.5t-87.5 -32.5q-19 0 -37.5 2.5t-35.5 8.5l7 56q21 -7 48 -7q29 0 42 12.5t13 53.5v538l-69 21v44h143v-604z" />
    <glyph glyph-name="jcircumflex" unicode="&#x135;" horiz-adv-x="293" 
d="M194 -79q0 -60 -23.5 -92.5t-87.5 -32.5q-19 0 -37.5 2.5t-35.5 8.5l7 56q21 -7 48 -7q29 0 42 12.5t13 53.5v538l-69 21v44h143v-604zM151 698l-90 -116l-35 23l100 151h50l100 -151l-34 -23z" />
    <glyph glyph-name="k" unicode="k" horiz-adv-x="553" 
d="M198 63l69 -22v-41h-213v41l71 22v592l-70 21v44h143v-657zM512 483l-57 -21l-163 -182l175 -217l56 -22v-41h-104l-210 267v6l167 190l-57 21v41h193v-42z" />
    <glyph glyph-name="kcommaaccent" unicode="&#x137;" horiz-adv-x="553" 
d="M198 63l69 -22v-41h-213v41l71 22v592l-70 21v44h143v-657zM512 483l-57 -21l-163 -182l175 -217l56 -22v-41h-104l-210 267v6l167 190l-57 21v41h193v-42zM350 -72l-58 -158l-46 12l40 160z" />
    <glyph glyph-name="kgreenlandic" unicode="&#x138;" horiz-adv-x="543" 
d="M198 63l69 -22v-41h-213v41l71 22v397l-70 21v44h143v-462zM492 481l-69 -21l-133 -180l153 -217l70 -21v-42h-115l-190 273l138 188l-56 21v43h202v-44z" />
    <glyph glyph-name="l" unicode="l" horiz-adv-x="314" 
d="M198 63l69 -22v-41h-213v41l71 22v592l-70 21v44h143v-657z" />
    <glyph glyph-name="lacute" unicode="&#x13a;" horiz-adv-x="314" 
d="M198 63l69 -22v-41h-213v41l71 22v592l-70 21v44h143v-657zM254 842l-166 -84l-21 37l155 101z" />
    <glyph glyph-name="lcaron" unicode="&#x13e;" horiz-adv-x="353" 
d="M198 63l69 -22v-41h-213v41l71 22v592l-70 21v44h143v-657zM277 534h-50l33 186h68z" />
    <glyph glyph-name="lcommaaccent" unicode="&#x13c;" horiz-adv-x="314" 
d="M198 63l69 -22v-41h-213v41l71 22v592l-70 21v44h143v-657zM215 -72l-58 -158l-46 12l40 160z" />
    <glyph glyph-name="ldot" unicode="&#x140;" horiz-adv-x="446" 
d="M198 63l69 -22v-41h-213v41l71 22v592l-70 21v44h143v-657zM320 419q24 0 39 -13.5t15 -38.5t-15 -39.5t-39 -14.5t-39 14.5t-15 38.5q0 26 15.5 39.5t38.5 13.5z" />
    <glyph glyph-name="lslash" unicode="&#x142;" horiz-adv-x="325" 
d="M203 355v-292l69 -22v-41h-213v41l71 22v256l-71 -31v63l71 32v272l-70 21v44h143v-302l70 33v-63z" />
    <glyph glyph-name="m" unicode="m" horiz-adv-x="863" 
d="M620 537q39 0 64.5 -13t40.5 -36t21.5 -54t6.5 -68v-303l69 -22v-41h-143v357q0 54 -17 84t-64 30q-21 0 -40 -9t-35 -21.5t-28 -26.5t-19 -23v-328l69 -22v-41h-143v356q0 53 -17 84t-64 31q-22 0 -41 -9t-34.5 -21.5t-28 -26.5t-20.5 -24v-327l69 -21v-42h-212v42
l70 21v397l-70 21v44h135l2 -73h2q11 15 26 30t34 27t41.5 20t48.5 8q54 0 81 -24t40 -62q30 36 67.5 61t88.5 25z" />
    <glyph glyph-name="n" unicode="n" horiz-adv-x="616" 
d="M354 537q43 0 72.5 -14t47 -39t25 -60t7.5 -76v-286l69 -21v-41h-143v336q0 69 -22.5 102.5t-75.5 33.5q-24 0 -45.5 -9t-39 -22t-31 -27.5t-21.5 -24.5v-326l70 -22v-41h-213v41l70 22v397l-70 21v44h135l2 -72h2q29 36 70.5 60t90.5 24z" />
    <glyph glyph-name="nacute" unicode="&#x144;" horiz-adv-x="616" 
d="M354 537q43 0 72.5 -14t47 -39t25 -60t7.5 -76v-286l69 -21v-41h-143v336q0 69 -22.5 102.5t-75.5 33.5q-24 0 -45.5 -9t-39 -22t-31 -27.5t-21.5 -24.5v-326l70 -22v-41h-213v41l70 22v397l-70 21v44h135l2 -72h2q29 36 70.5 60t90.5 24zM421 717l-145 -126l-31 33
l133 138z" />
    <glyph glyph-name="napostrophe" unicode="&#x149;" horiz-adv-x="679" 
d="M-4 696q16 0 26.5 -6.5t17 -16.5t9.5 -22.5t3 -25.5q0 -36 -15 -68t-62 -57l-15 27q27 17 39 35.5t14 49.5q-11 -10 -23.5 -11.5t-23 3.5t-17 15.5t-6.5 25.5q0 22 14.5 36.5t38.5 14.5zM417 537q43 0 72.5 -14t47 -39t25 -60t7.5 -76v-286l69 -21v-41h-143v336
q0 69 -22.5 102.5t-75.5 33.5q-24 0 -45.5 -9t-39 -22t-31 -27.5t-21.5 -24.5v-326l70 -22v-41h-213v41l70 22v397l-70 21v44h135l2 -72h2q29 36 70.5 60t90.5 24z" />
    <glyph glyph-name="ncaron" unicode="&#x148;" horiz-adv-x="616" 
d="M354 537q43 0 72.5 -14t47 -39t25 -60t7.5 -76v-286l69 -21v-41h-143v336q0 69 -22.5 102.5t-75.5 33.5q-24 0 -45.5 -9t-39 -22t-31 -27.5t-21.5 -24.5v-326l70 -22v-41h-213v41l70 22v397l-70 21v44h135l2 -72h2q29 36 70.5 60t90.5 24zM437 741l-100 -151h-50
l-100 151l35 23l90 -116l91 116z" />
    <glyph glyph-name="ncommaaccent" unicode="&#x146;" horiz-adv-x="616" 
d="M354 537q43 0 72.5 -14t47 -39t25 -60t7.5 -76v-286l69 -21v-41h-143v336q0 69 -22.5 102.5t-75.5 33.5q-24 0 -45.5 -9t-39 -22t-31 -27.5t-21.5 -24.5v-326l70 -22v-41h-213v41l70 22v397l-70 21v44h135l2 -72h2q29 36 70.5 60t90.5 24zM361 -72l-58 -158l-46 12
l40 160z" />
    <glyph glyph-name="eng" unicode="&#x14b;" horiz-adv-x="605" 
d="M354 537q43 0 72.5 -14t47 -39t25 -60t7.5 -76v-426q0 -60 -21.5 -92.5t-82.5 -32.5q-18 0 -35 2t-33 8l7 56q18 -6 43 -6q23 0 35.5 12.5t12.5 53.5v413q0 69 -22.5 102.5t-75.5 33.5q-24 0 -45.5 -9t-39 -22t-31 -27.5t-21.5 -24.5v-326l70 -22v-41h-213v41l70 22v397
l-70 21v44h135l2 -72h2q29 36 70.5 60t90.5 24z" />
    <glyph glyph-name="ntilde" unicode="&#xf1;" horiz-adv-x="616" 
d="M354 537q43 0 72.5 -14t47 -39t25 -60t7.5 -76v-286l69 -21v-41h-143v336q0 69 -22.5 102.5t-75.5 33.5q-24 0 -45.5 -9t-39 -22t-31 -27.5t-21.5 -24.5v-326l70 -22v-41h-213v41l70 22v397l-70 21v44h135l2 -72h2q29 36 70.5 60t90.5 24zM447 682q-10 -37 -28.5 -55
t-43.5 -18q-17 0 -33.5 5.5t-31.5 11.5t-28 11.5t-23 5.5q-13 0 -20.5 -7t-18.5 -29l-39 16q12 38 31.5 56t43.5 18q16 0 31 -5.5t29 -11.5t27.5 -11.5t26.5 -5.5t22 6.5t17 27.5z" />
    <glyph glyph-name="o" unicode="o" horiz-adv-x="539" 
d="M268 537q102 0 162.5 -69t60.5 -206q0 -135 -61.5 -204.5t-164.5 -69.5t-160.5 69t-57.5 204q0 136 60 206t161 70zM269 473q-63 0 -103.5 -50.5t-40.5 -160.5q0 -111 40.5 -160.5t103.5 -49.5q31 0 57.5 12t46 37.5t30.5 65t11 95.5t-11 96t-30.5 65.5t-46 37.5
t-57.5 12z" />
    <glyph glyph-name="oacute" unicode="&#xf3;" horiz-adv-x="539" 
d="M268 537q102 0 162.5 -69t60.5 -206q0 -135 -61.5 -204.5t-164.5 -69.5t-160.5 69t-57.5 204q0 136 60 206t161 70zM269 473q-63 0 -103.5 -50.5t-40.5 -160.5q0 -111 40.5 -160.5t103.5 -49.5q31 0 57.5 12t46 37.5t30.5 65t11 95.5t-11 96t-30.5 65.5t-46 37.5
t-57.5 12zM385 717l-145 -126l-31 33l133 138z" />
    <glyph glyph-name="obreve" unicode="&#x14f;" horiz-adv-x="539" 
d="M268 537q102 0 162.5 -69t60.5 -206q0 -135 -61.5 -204.5t-164.5 -69.5t-160.5 69t-57.5 204q0 136 60 206t161 70zM269 473q-63 0 -103.5 -50.5t-40.5 -160.5q0 -111 40.5 -160.5t103.5 -49.5q31 0 57.5 12t46 37.5t30.5 65t11 95.5t-11 96t-30.5 65.5t-46 37.5
t-57.5 12zM403 751q-5 -80 -35 -117.5t-90 -37.5t-89 36.5t-37 117.5l46 8q7 -60 24 -85.5t56 -25.5q42 0 58 27.5t21 83.5z" />
    <glyph glyph-name="ocircumflex" unicode="&#xf4;" horiz-adv-x="539" 
d="M268 537q102 0 162.5 -69t60.5 -206q0 -135 -61.5 -204.5t-164.5 -69.5t-160.5 69t-57.5 204q0 136 60 206t161 70zM269 473q-63 0 -103.5 -50.5t-40.5 -160.5q0 -111 40.5 -160.5t103.5 -49.5q31 0 57.5 12t46 37.5t30.5 65t11 95.5t-11 96t-30.5 65.5t-46 37.5
t-57.5 12zM277 698l-90 -116l-35 23l100 151h50l100 -151l-34 -23z" />
    <glyph glyph-name="odieresis" unicode="&#xf6;" horiz-adv-x="539" 
d="M268 537q102 0 162.5 -69t60.5 -206q0 -135 -61.5 -204.5t-164.5 -69.5t-160.5 69t-57.5 204q0 136 60 206t161 70zM269 473q-63 0 -103.5 -50.5t-40.5 -160.5q0 -111 40.5 -160.5t103.5 -49.5q31 0 57.5 12t46 37.5t30.5 65t11 95.5t-11 96t-30.5 65.5t-46 37.5
t-57.5 12zM188 719q22 0 34.5 -13t12.5 -33q0 -19 -13 -31.5t-34 -12.5q-22 0 -35.5 12.5t-13.5 31.5q0 20 13.5 33t35.5 13zM364 719q22 0 34.5 -13t12.5 -33q0 -19 -13 -31.5t-34 -12.5q-22 0 -35.5 12.5t-13.5 31.5q0 20 13.5 33t35.5 13z" />
    <glyph glyph-name="ograve" unicode="&#xf2;" horiz-adv-x="539" 
d="M268 537q102 0 162.5 -69t60.5 -206q0 -135 -61.5 -204.5t-164.5 -69.5t-160.5 69t-57.5 204q0 136 60 206t161 70zM269 473q-63 0 -103.5 -50.5t-40.5 -160.5q0 -111 40.5 -160.5t103.5 -49.5q31 0 57.5 12t46 37.5t30.5 65t11 95.5t-11 96t-30.5 65.5t-46 37.5
t-57.5 12zM359 624l-31 -33l-145 126l43 45z" />
    <glyph glyph-name="ohungarumlaut" unicode="&#x151;" horiz-adv-x="539" 
d="M268 537q102 0 162.5 -69t60.5 -206q0 -135 -61.5 -204.5t-164.5 -69.5t-160.5 69t-57.5 204q0 136 60 206t161 70zM269 473q-63 0 -103.5 -50.5t-40.5 -160.5q0 -111 40.5 -160.5t103.5 -49.5q31 0 57.5 12t46 37.5t30.5 65t11 95.5t-11 96t-30.5 65.5t-46 37.5
t-57.5 12zM334 719l-122 -136l-35 25l109 144zM454 708l-117 -126l-35 26l105 134z" />
    <glyph glyph-name="omacron" unicode="&#x14d;" horiz-adv-x="539" 
d="M268 537q102 0 162.5 -69t60.5 -206q0 -135 -61.5 -204.5t-164.5 -69.5t-160.5 69t-57.5 204q0 136 60 206t161 70zM269 473q-63 0 -103.5 -50.5t-40.5 -160.5q0 -111 40.5 -160.5t103.5 -49.5q31 0 57.5 12t46 37.5t30.5 65t11 95.5t-11 96t-30.5 65.5t-46 37.5
t-57.5 12zM410 623h-254v55h254v-55z" />
    <glyph glyph-name="oslash" unicode="&#xf8;" horiz-adv-x="539" 
d="M415 485q36 -34 56 -89.5t20 -133.5q0 -135 -61.5 -204.5t-164.5 -69.5q-58 0 -100 21l-26 -48h-54l40 75q-38 34 -58 90.5t-20 134.5q0 136 60 206t161 70q60 0 107 -24l22 41h54zM122 262q0 -54 10 -92.5t29 -64.5l182 347q-32 21 -74 21q-65 0 -106 -50.5t-41 -160.5z
M269 52q31 0 58.5 12t47 37.5t31 65t11.5 95.5q0 53 -10 91t-28 64l-182 -346q31 -19 72 -19z" />
    <glyph glyph-name="otilde" unicode="&#xf5;" horiz-adv-x="539" 
d="M268 537q102 0 162.5 -69t60.5 -206q0 -135 -61.5 -204.5t-164.5 -69.5t-160.5 69t-57.5 204q0 136 60 206t161 70zM269 473q-63 0 -103.5 -50.5t-40.5 -160.5q0 -111 40.5 -160.5t103.5 -49.5q31 0 57.5 12t46 37.5t30.5 65t11 95.5t-11 96t-30.5 65.5t-46 37.5
t-57.5 12zM411 682q-10 -37 -28.5 -55t-43.5 -18q-17 0 -33.5 5.5t-31.5 11.5t-28 11.5t-23 5.5q-13 0 -20.5 -7t-18.5 -29l-39 16q12 38 31.5 56t43.5 18q16 0 31 -5.5t29 -11.5t27.5 -11.5t26.5 -5.5t22 6.5t17 27.5z" />
    <glyph glyph-name="oe" unicode="&#x153;" horiz-adv-x="871" 
d="M628 537q94 0 140 -60.5t46 -185.5v-46h-329q1 -96 37 -145t113 -49q39 0 72.5 12t70.5 39l26 -50q-42 -35 -84 -49.5t-92 -14.5q-142 0 -182 124q-23 -60 -69 -92t-115 -32q-102 0 -158.5 68.5t-56.5 203.5q0 136 59 206.5t158 70.5q138 0 184 -131q21 61 66 96t114 35z
M625 477q-41 0 -68 -17.5t-43 -43.5t-22.5 -57t-6.5 -58h257q0 40 -6 73t-19.5 55.5t-36 35t-55.5 12.5zM266 473q-62 0 -102 -51t-40 -160q0 -56 10.5 -95.5t29.5 -65t45 -37.5t57 -12t57.5 12t46 37.5t30.5 65t11 94.5q0 56 -11 96.5t-30.5 66t-46 37.5t-57.5 12z" />
    <glyph glyph-name="p" unicode="p" horiz-adv-x="591" 
d="M346 537q94 0 142 -69t48 -205q0 -134 -49 -204.5t-149 -70.5q-30 0 -54.5 7.5t-43.5 19t-32.5 24t-20.5 22.5v-198l84 -22v-41h-226v41l70 22v597l-69 21v44h133l3 -74h2q32 41 72 63.5t90 22.5zM328 472q-46 0 -80.5 -26t-60.5 -60v-257q9 -12 22 -25.5t30 -25
t37.5 -18.5t44.5 -7q64 0 101 49t37 159t-33.5 160.5t-97.5 50.5z" />
    <glyph glyph-name="thorn" unicode="&#xfe;" horiz-adv-x="594" 
d="M196 452q31 39 71.5 62t91.5 23q94 0 140.5 -69t46.5 -205q0 -134 -48.5 -204.5t-149.5 -70.5q-30 0 -54.5 7.5t-43.5 19t-32.5 24t-20.5 22.5v-197l83 -21v-43h-226v43l70 21v791l-70 21v44h142v-268zM336 474q-46 0 -79.5 -24.5t-59.5 -62.5v-259q9 -12 21.5 -26
t29.5 -25t38 -18.5t45 -7.5q65 0 101.5 49.5t36.5 160.5q0 110 -34 161.5t-99 51.5z" />
    <glyph glyph-name="q" unicode="q" horiz-adv-x="583" 
d="M254 537q53 0 91 -23t66 -58l15 69h52v-662l69 -21v-42h-230v42l87 21v196q-9 -10 -22.5 -22.5t-32 -23t-43 -18t-54.5 -7.5q-101 0 -149 71.5t-48 201.5q0 135 52 205.5t147 70.5zM268 472q-61 0 -98 -51t-37 -159q0 -44 7 -82.5t23.5 -66.5t43 -44t65.5 -16
q24 0 45 7.5t37.5 19t29 25t21.5 24.5v257q-8 12 -21 27t-30.5 28t-39 22t-46.5 9z" />
    <glyph glyph-name="r" unicode="r" horiz-adv-x="400" 
d="M331 537q26 0 47 -7l-10 -70q-11 2 -21 3.5t-21 1.5q-42 0 -73 -22t-56 -73v-307l83 -22v-41h-226v41l70 22v397l-69 21v44h129l4 -85h2q23 52 61.5 74.5t79.5 22.5z" />
    <glyph glyph-name="racute" unicode="&#x155;" horiz-adv-x="400" 
d="M331 537q26 0 47 -7l-10 -70q-11 2 -21 3.5t-21 1.5q-42 0 -73 -22t-56 -73v-307l83 -22v-41h-226v41l70 22v397l-69 21v44h129l4 -85h2q23 52 61.5 74.5t79.5 22.5zM331 717l-145 -126l-31 33l133 138z" />
    <glyph glyph-name="rcaron" unicode="&#x159;" horiz-adv-x="400" 
d="M331 537q26 0 47 -7l-10 -70q-11 2 -21 3.5t-21 1.5q-42 0 -73 -22t-56 -73v-307l83 -22v-41h-226v41l70 22v397l-69 21v44h129l4 -85h2q23 52 61.5 74.5t79.5 22.5zM347 741l-100 -151h-50l-100 151l35 23l90 -116l91 116z" />
    <glyph glyph-name="rcommaaccent" unicode="&#x157;" horiz-adv-x="400" 
d="M331 537q26 0 47 -7l-10 -70q-11 2 -21 3.5t-21 1.5q-42 0 -73 -22t-56 -73v-307l83 -22v-41h-226v41l70 22v397l-69 21v44h129l4 -85h2q23 52 61.5 74.5t79.5 22.5zM239 -72l-58 -158l-46 12l40 160z" />
    <glyph glyph-name="s" unicode="s" horiz-adv-x="445" 
d="M225 537q44 0 81.5 -10t74.5 -31v-124h-50l-16 89q-23 11 -43.5 15t-42.5 4q-47 0 -72 -22t-25 -61q0 -22 9.5 -37t26 -26t37 -19t43.5 -16q27 -9 54 -20t48.5 -27.5t35 -41.5t13.5 -62q0 -38 -13.5 -67.5t-38 -50t-58 -31.5t-73.5 -11q-46 0 -90.5 10.5t-73.5 24.5v132
h52l16 -89q43 -20 96 -20t81.5 24t28.5 70q0 23 -9.5 39t-25 27t-36.5 19t-43 15q-27 9 -54.5 18.5t-49.5 25.5t-35.5 41t-13.5 63q0 33 12 60.5t34 47t52.5 30.5t67.5 11z" />
    <glyph glyph-name="sacute" unicode="&#x15b;" horiz-adv-x="453" 
d="M225 537q44 0 81.5 -10t74.5 -31v-124h-50l-16 89q-23 11 -43.5 15t-42.5 4q-47 0 -72 -22t-25 -61q0 -22 9.5 -37t26 -26t37 -19t43.5 -16q27 -9 54 -20t48.5 -27.5t35 -41.5t13.5 -62q0 -38 -13.5 -67.5t-38 -50t-58 -31.5t-73.5 -11q-46 0 -90.5 10.5t-73.5 24.5v132
h52l16 -89q43 -20 96 -20t81.5 24t28.5 70q0 23 -9.5 39t-25 27t-36.5 19t-43 15q-27 9 -54.5 18.5t-49.5 25.5t-35.5 41t-13.5 63q0 33 12 60.5t34 47t52.5 30.5t67.5 11zM339 717l-145 -126l-31 33l133 138z" />
    <glyph glyph-name="scaron" unicode="&#x161;" horiz-adv-x="453" 
d="M225 537q44 0 81.5 -10t74.5 -31v-124h-50l-16 89q-23 11 -43.5 15t-42.5 4q-47 0 -72 -22t-25 -61q0 -22 9.5 -37t26 -26t37 -19t43.5 -16q27 -9 54 -20t48.5 -27.5t35 -41.5t13.5 -62q0 -38 -13.5 -67.5t-38 -50t-58 -31.5t-73.5 -11q-46 0 -90.5 10.5t-73.5 24.5v132
h52l16 -89q43 -20 96 -20t81.5 24t28.5 70q0 23 -9.5 39t-25 27t-36.5 19t-43 15q-27 9 -54.5 18.5t-49.5 25.5t-35.5 41t-13.5 63q0 33 12 60.5t34 47t52.5 30.5t67.5 11zM355 741l-100 -151h-50l-100 151l35 23l90 -116l91 116z" />
    <glyph glyph-name="scedilla" unicode="&#x15f;" horiz-adv-x="453" 
d="M399 148q0 -70 -45 -112t-117 -47l-9 -44q14 -1 27.5 -4.5t24.5 -12t18 -21t7 -31.5q0 -43 -26 -62.5t-64 -19.5q-24 0 -45.5 6t-32.5 11l11 39q14 -5 29.5 -9t32.5 -4t31 7t14 30q0 22 -16.5 29t-48.5 7h-11l17 79q-42 2 -80 11.5t-64 22.5v132h52l16 -89q43 -20 96 -20
t81.5 24t28.5 70q0 23 -9.5 39t-25 27t-36.5 19t-43 15q-27 9 -54.5 18.5t-49.5 25.5t-35.5 41t-13.5 63q0 33 12 60.5t34 47t52.5 30.5t67.5 11q44 0 81.5 -10t74.5 -31v-124h-50l-16 89q-23 11 -43.5 15t-42.5 4q-47 0 -72 -22t-25 -61q0 -22 9.5 -37t26 -26t37 -19
t43.5 -16q27 -9 54 -20t48.5 -27.5t35 -41.5t13.5 -62z" />
    <glyph glyph-name="scircumflex" unicode="&#x15d;" horiz-adv-x="453" 
d="M225 537q44 0 81.5 -10t74.5 -31v-124h-50l-16 89q-23 11 -43.5 15t-42.5 4q-47 0 -72 -22t-25 -61q0 -22 9.5 -37t26 -26t37 -19t43.5 -16q27 -9 54 -20t48.5 -27.5t35 -41.5t13.5 -62q0 -38 -13.5 -67.5t-38 -50t-58 -31.5t-73.5 -11q-46 0 -90.5 10.5t-73.5 24.5v132
h52l16 -89q43 -20 96 -20t81.5 24t28.5 70q0 23 -9.5 39t-25 27t-36.5 19t-43 15q-27 9 -54.5 18.5t-49.5 25.5t-35.5 41t-13.5 63q0 33 12 60.5t34 47t52.5 30.5t67.5 11zM231 698l-90 -116l-35 23l100 151h50l100 -151l-34 -23z" />
    <glyph glyph-name="scommaaccent" unicode="&#x219;" horiz-adv-x="453" 
d="M225 537q44 0 81.5 -10t74.5 -31v-124h-50l-16 89q-23 11 -43.5 15t-42.5 4q-47 0 -72 -22t-25 -61q0 -22 9.5 -37t26 -26t37 -19t43.5 -16q27 -9 54 -20t48.5 -27.5t35 -41.5t13.5 -62q0 -38 -13.5 -67.5t-38 -50t-58 -31.5t-73.5 -11q-46 0 -90.5 10.5t-73.5 24.5v132
h52l16 -89q43 -20 96 -20t81.5 24t28.5 70q0 23 -9.5 39t-25 27t-36.5 19t-43 15q-27 9 -54.5 18.5t-49.5 25.5t-35.5 41t-13.5 63q0 33 12 60.5t34 47t52.5 30.5t67.5 11zM269 -72l-58 -158l-46 12l40 160z" />
    <glyph glyph-name="germandbls" unicode="&#xdf;" horiz-adv-x="582" 
d="M309 732q91 0 136.5 -46t45.5 -126q0 -32 -10 -62t-28 -54.5t-44.5 -41.5t-59.5 -23q88 -10 133.5 -64t45.5 -130q0 -38 -10 -73.5t-30.5 -62.5t-52.5 -43.5t-77 -16.5q-28 0 -56 6t-55 20v125h45l16 -87q11 -4 21 -5t18 -1q25 0 45 10.5t33.5 29.5t20.5 43.5t7 53.5
q0 77 -46.5 113.5t-128.5 47.5v62q29 3 54.5 14.5t44 30.5t29 45.5t10.5 60.5q0 54 -27.5 84t-83.5 30q-57 0 -82.5 -33.5t-25.5 -99.5v-539h-143v41l70 22v402h-57v47l57 11v27q0 47 13.5 81t38 56.5t58.5 33.5t75 11z" />
    <glyph glyph-name="longs" unicode="&#x17f;" horiz-adv-x="323" 
d="M238 732q16 0 33.5 -2t34.5 -7l-6 -55q-10 3 -21.5 5t-24.5 2q-24 0 -40 -15t-16 -57v-540l96 -22v-41h-240v41l70 22v403h-70v46l70 11v76q0 29 6 53.5t19.5 42t35.5 27.5t53 10z" />
    <glyph glyph-name="t" unicode="t" horiz-adv-x="369" 
d="M198 525h119v-58h-119v-371q0 -27 11 -37.5t39 -10.5q18 0 34.5 4t32.5 9l12 -53q-20 -8 -46 -14t-49 -6q-54 0 -81 22.5t-27 71.5v385h-75v38l75 19l21 128h53v-127z" />
    <glyph glyph-name="tbar" unicode="&#x167;" horiz-adv-x="394" 
d="M342 8q-20 -8 -46 -14t-49 -6q-54 0 -81 22.5t-27 71.5v195h-80v58h80v132h-75v38l75 19l21 128h53v-127h119v-58h-119v-132h112v-58h-112v-181q0 -27 11 -37.5t39 -10.5q18 0 34.5 4t32.5 9z" />
    <glyph glyph-name="tcaron" unicode="&#x165;" horiz-adv-x="345" 
d="M198 525h119v-58h-119v-371q0 -27 11 -37.5t39 -10.5q18 0 34.5 4t32.5 9l12 -53q-20 -8 -46 -14t-49 -6q-54 0 -81 22.5t-27 71.5v385h-75v38l75 19l21 128h53v-127zM269 579h-50l33 186h68z" />
    <glyph glyph-name="u" unicode="u" horiz-adv-x="603" 
d="M487 63l69 -22v-41h-134l-4 71q-12 -15 -28 -30t-36 -26.5t-44 -19t-52 -7.5q-45 0 -74 14t-46 38.5t-23.5 57t-6.5 70.5v292l-67 21v44h141v-343q0 -63 20 -96t75 -33q22 0 42 7.5t37 19.5t31.5 26.5t25.5 28.5l1 325l-68 21v44h141v-462z" />
    <glyph glyph-name="uacute" unicode="&#xfa;" horiz-adv-x="603" 
d="M487 63l69 -22v-41h-134l-4 71q-12 -15 -28 -30t-36 -26.5t-44 -19t-52 -7.5q-45 0 -74 14t-46 38.5t-23.5 57t-6.5 70.5v292l-67 21v44h141v-343q0 -63 20 -96t75 -33q22 0 42 7.5t37 19.5t31.5 26.5t25.5 28.5l1 325l-68 21v44h141v-462zM397 717l-145 -126l-31 33
l133 138z" />
    <glyph glyph-name="ubreve" unicode="&#x16d;" horiz-adv-x="603" 
d="M487 63l69 -22v-41h-134l-4 71q-12 -15 -28 -30t-36 -26.5t-44 -19t-52 -7.5q-45 0 -74 14t-46 38.5t-23.5 57t-6.5 70.5v292l-67 21v44h141v-343q0 -63 20 -96t75 -33q22 0 42 7.5t37 19.5t31.5 26.5t25.5 28.5l1 325l-68 21v44h141v-462zM415 751q-5 -80 -35 -117.5
t-90 -37.5t-89 36.5t-37 117.5l46 8q7 -60 24 -85.5t56 -25.5q42 0 58 27.5t21 83.5z" />
    <glyph glyph-name="ucircumflex" unicode="&#xfb;" horiz-adv-x="603" 
d="M487 63l69 -22v-41h-134l-4 71q-12 -15 -28 -30t-36 -26.5t-44 -19t-52 -7.5q-45 0 -74 14t-46 38.5t-23.5 57t-6.5 70.5v292l-67 21v44h141v-343q0 -63 20 -96t75 -33q22 0 42 7.5t37 19.5t31.5 26.5t25.5 28.5l1 325l-68 21v44h141v-462zM289 698l-90 -116l-35 23
l100 151h50l100 -151l-34 -23z" />
    <glyph glyph-name="udieresis" unicode="&#xfc;" horiz-adv-x="603" 
d="M487 63l69 -22v-41h-134l-4 71q-12 -15 -28 -30t-36 -26.5t-44 -19t-52 -7.5q-45 0 -74 14t-46 38.5t-23.5 57t-6.5 70.5v292l-67 21v44h141v-343q0 -63 20 -96t75 -33q22 0 42 7.5t37 19.5t31.5 26.5t25.5 28.5l1 325l-68 21v44h141v-462zM200 719q22 0 34.5 -13
t12.5 -33q0 -19 -13 -31.5t-34 -12.5q-22 0 -35.5 12.5t-13.5 31.5q0 20 13.5 33t35.5 13zM376 719q22 0 34.5 -13t12.5 -33q0 -19 -13 -31.5t-34 -12.5q-22 0 -35.5 12.5t-13.5 31.5q0 20 13.5 33t35.5 13z" />
    <glyph glyph-name="ugrave" unicode="&#xf9;" horiz-adv-x="603" 
d="M487 63l69 -22v-41h-134l-4 71q-12 -15 -28 -30t-36 -26.5t-44 -19t-52 -7.5q-45 0 -74 14t-46 38.5t-23.5 57t-6.5 70.5v292l-67 21v44h141v-343q0 -63 20 -96t75 -33q22 0 42 7.5t37 19.5t31.5 26.5t25.5 28.5l1 325l-68 21v44h141v-462zM371 624l-31 -33l-145 126
l43 45z" />
    <glyph glyph-name="uhungarumlaut" unicode="&#x171;" horiz-adv-x="603" 
d="M487 63l69 -22v-41h-134l-4 71q-12 -15 -28 -30t-36 -26.5t-44 -19t-52 -7.5q-45 0 -74 14t-46 38.5t-23.5 57t-6.5 70.5v292l-67 21v44h141v-343q0 -63 20 -96t75 -33q22 0 42 7.5t37 19.5t31.5 26.5t25.5 28.5l1 325l-68 21v44h141v-462zM346 719l-122 -136l-35 25
l109 144zM466 708l-117 -126l-35 26l105 134z" />
    <glyph glyph-name="umacron" unicode="&#x16b;" horiz-adv-x="603" 
d="M487 63l69 -22v-41h-134l-4 71q-12 -15 -28 -30t-36 -26.5t-44 -19t-52 -7.5q-45 0 -74 14t-46 38.5t-23.5 57t-6.5 70.5v292l-67 21v44h141v-343q0 -63 20 -96t75 -33q22 0 42 7.5t37 19.5t31.5 26.5t25.5 28.5l1 325l-68 21v44h141v-462zM422 623h-254v55h254v-55z" />
    <glyph glyph-name="uni0163" unicode="&#x163;" horiz-adv-x="369" 
d="M222 -56q14 -1 27.5 -4.5t24.5 -12t18 -21t7 -31.5q0 -43 -26 -62.5t-64 -19.5q-24 0 -45.5 6t-32.5 11l11 39q14 -5 29.5 -9t32.5 -4t31 7t14 30q0 22 -16.5 29t-48.5 7h-11l18 83q-67 15 -67 90v385h-75v38l75 19l21 128h53v-127h119v-58h-119v-371q0 -27 11 -37.5
t39 -10.5q18 0 34.5 4t32.5 9l12 -53q-20 -8 -46 -14t-49 -6h-1z" />
    <glyph glyph-name="uni021B" unicode="&#x21b;" horiz-adv-x="369" 
d="M198 525h119v-58h-119v-371q0 -27 11 -37.5t39 -10.5q18 0 34.5 4t32.5 9l12 -53q-20 -8 -46 -14t-49 -6q-54 0 -81 22.5t-27 71.5v385h-75v38l75 19l21 128h53v-127zM263 -72l-58 -158l-46 12l40 160z" />
    <glyph glyph-name="uogonek" unicode="&#x173;" horiz-adv-x="603" 
d="M564 -191q-17 -11 -40 -21t-49 -10q-41 0 -62 21.5t-21 56.5q0 40 25 79t66 65h-61l-4 71q-12 -15 -28 -30t-36 -26.5t-44 -19t-52 -7.5q-45 0 -74 14t-46 38.5t-23.5 57t-6.5 70.5v292l-67 21v44h141v-343q0 -63 20 -96t75 -33q22 0 42 7.5t37 19.5t31.5 26.5t25.5 28.5
l1 325l-68 21v44h141v-462l69 -22v-41q-50 -26 -76.5 -63t-26.5 -69q0 -38 39 -38q14 0 26.5 4.5t26.5 12.5z" />
    <glyph glyph-name="uring" unicode="&#x16f;" horiz-adv-x="603" 
d="M487 63l69 -22v-41h-134l-4 71q-12 -15 -28 -30t-36 -26.5t-44 -19t-52 -7.5q-45 0 -74 14t-46 38.5t-23.5 57t-6.5 70.5v292l-67 21v44h141v-343q0 -63 20 -96t75 -33q22 0 42 7.5t37 19.5t31.5 26.5t25.5 28.5l1 325l-68 21v44h141v-462zM291 765q38 0 63.5 -22.5
t25.5 -64.5q0 -43 -25.5 -66t-63.5 -23q-39 0 -64 22t-25 64t25.5 66t63.5 24zM291 726q-20 0 -31.5 -13.5t-11.5 -37.5t11.5 -36t31.5 -12t31.5 13.5t11.5 36.5q0 49 -43 49z" />
    <glyph glyph-name="utilde" unicode="&#x169;" horiz-adv-x="603" 
d="M487 63l69 -22v-41h-134l-4 71q-12 -15 -28 -30t-36 -26.5t-44 -19t-52 -7.5q-45 0 -74 14t-46 38.5t-23.5 57t-6.5 70.5v292l-67 21v44h141v-343q0 -63 20 -96t75 -33q22 0 42 7.5t37 19.5t31.5 26.5t25.5 28.5l1 325l-68 21v44h141v-462zM423 682q-10 -37 -28.5 -55
t-43.5 -18q-17 0 -33.5 5.5t-31.5 11.5t-28 11.5t-23 5.5q-13 0 -20.5 -7t-18.5 -29l-39 16q12 38 31.5 56t43.5 18q16 0 31 -5.5t29 -11.5t27.5 -11.5t26.5 -5.5t22 6.5t17 27.5z" />
    <glyph glyph-name="v" unicode="v" horiz-adv-x="512" 
d="M500 483l-50 -21l-152 -462h-86l-150 462l-50 21v42h190v-42l-62 -21l118 -384h2l121 384l-61 21v42h180v-42z" />
    <glyph glyph-name="w" unicode="w" horiz-adv-x="754" 
d="M739 525v-42l-50 -21l-111 -462h-86l-117 433l-111 -433h-83l-116 462l-50 21v42h187v-42l-61 -21l86 -381l114 439h77l119 -438l85 380l-62 21v42h179z" />
    <glyph glyph-name="wacute" unicode="&#x1e83;" horiz-adv-x="754" 
d="M739 525v-42l-50 -21l-111 -462h-86l-117 433l-111 -433h-83l-116 462l-50 21v42h187v-42l-61 -21l86 -381l114 439h77l119 -438l85 380l-62 21v42h179zM489 717l-145 -126l-31 33l133 138z" />
    <glyph glyph-name="wcircumflex" unicode="&#x175;" horiz-adv-x="754" 
d="M739 525v-42l-50 -21l-111 -462h-86l-117 433l-111 -433h-83l-116 462l-50 21v42h187v-42l-61 -21l86 -381l114 439h77l119 -438l85 380l-62 21v42h179zM381 698l-90 -116l-35 23l100 151h50l100 -151l-34 -23z" />
    <glyph glyph-name="wdieresis" unicode="&#x1e85;" horiz-adv-x="754" 
d="M739 525v-42l-50 -21l-111 -462h-86l-117 433l-111 -433h-83l-116 462l-50 21v42h187v-42l-61 -21l86 -381l114 439h77l119 -438l85 380l-62 21v42h179zM292 719q22 0 34.5 -13t12.5 -33q0 -19 -13 -31.5t-34 -12.5q-22 0 -35.5 12.5t-13.5 31.5q0 20 13.5 33t35.5 13z
M468 719q22 0 34.5 -13t12.5 -33q0 -19 -13 -31.5t-34 -12.5q-22 0 -35.5 12.5t-13.5 31.5q0 20 13.5 33t35.5 13z" />
    <glyph glyph-name="wgrave" unicode="&#x1e81;" horiz-adv-x="754" 
d="M739 525v-42l-50 -21l-111 -462h-86l-117 433l-111 -433h-83l-116 462l-50 21v42h187v-42l-61 -21l86 -381l114 439h77l119 -438l85 380l-62 21v42h179zM463 624l-31 -33l-145 126l43 45z" />
    <glyph glyph-name="x" unicode="x" horiz-adv-x="511" 
d="M478 42v-42h-96l-133 223l-101 -161l63 -21v-41h-182v41l48 20l131 210l-114 190l-50 20v44h96l123 -210l89 147l-62 21v42h179v-42l-47 -21l-119 -196l125 -203z" />
    <glyph glyph-name="y" unicode="y" horiz-adv-x="505" 
d="M493 483l-48 -21l-164 -492q-15 -44 -28 -76.5t-29.5 -54t-38.5 -32t-54 -10.5q-26 0 -46 3t-40 9l11 59q10 -3 26.5 -6t36.5 -3q14 0 25 4.5t20.5 15.5t18.5 29.5t19 47.5l13 38l-150 468l-48 21v42h190v-42l-62 -21l111 -383l117 383l-62 21v42h182v-42z" />
    <glyph glyph-name="yacute" unicode="&#xfd;" horiz-adv-x="505" 
d="M493 483l-48 -21l-164 -492q-15 -44 -28 -76.5t-29.5 -54t-38.5 -32t-54 -10.5q-26 0 -46 3t-40 9l11 59q10 -3 26.5 -6t36.5 -3q14 0 25 4.5t20.5 15.5t18.5 29.5t19 47.5l13 38l-150 468l-48 21v42h190v-42l-62 -21l111 -383l117 383l-62 21v42h182v-42zM360 717
l-145 -126l-31 33l133 138z" />
    <glyph glyph-name="ycircumflex" unicode="&#x177;" horiz-adv-x="505" 
d="M493 483l-48 -21l-164 -492q-15 -44 -28 -76.5t-29.5 -54t-38.5 -32t-54 -10.5q-26 0 -46 3t-40 9l11 59q10 -3 26.5 -6t36.5 -3q14 0 25 4.5t20.5 15.5t18.5 29.5t19 47.5l13 38l-150 468l-48 21v42h190v-42l-62 -21l111 -383l117 383l-62 21v42h182v-42zM252 698
l-90 -116l-35 23l100 151h50l100 -151l-34 -23z" />
    <glyph glyph-name="ydieresis" unicode="&#xff;" horiz-adv-x="505" 
d="M493 483l-48 -21l-164 -492q-15 -44 -28 -76.5t-29.5 -54t-38.5 -32t-54 -10.5q-26 0 -46 3t-40 9l11 59q10 -3 26.5 -6t36.5 -3q14 0 25 4.5t20.5 15.5t18.5 29.5t19 47.5l13 38l-150 468l-48 21v42h190v-42l-62 -21l111 -383l117 383l-62 21v42h182v-42zM163 719
q22 0 34.5 -13t12.5 -33q0 -19 -13 -31.5t-34 -12.5q-22 0 -35.5 12.5t-13.5 31.5q0 20 13.5 33t35.5 13zM339 719q22 0 34.5 -13t12.5 -33q0 -19 -13 -31.5t-34 -12.5q-22 0 -35.5 12.5t-13.5 31.5q0 20 13.5 33t35.5 13z" />
    <glyph glyph-name="ygrave" unicode="&#x1ef3;" horiz-adv-x="505" 
d="M493 483l-48 -21l-164 -492q-15 -44 -28 -76.5t-29.5 -54t-38.5 -32t-54 -10.5q-26 0 -46 3t-40 9l11 59q10 -3 26.5 -6t36.5 -3q14 0 25 4.5t20.5 15.5t18.5 29.5t19 47.5l13 38l-150 468l-48 21v42h190v-42l-62 -21l111 -383l117 383l-62 21v42h182v-42zM334 624
l-31 -33l-145 126l43 45z" />
    <glyph glyph-name="z" unicode="z" horiz-adv-x="427" 
d="M387 485l-257 -427h191l15 94h50v-152h-344v48l253 419h-180l-18 -92h-50l1 150h339v-40z" />
    <glyph glyph-name="zacute" unicode="&#x17a;" horiz-adv-x="427" 
d="M387 485l-257 -427h191l15 94h50v-152h-344v48l253 419h-180l-18 -92h-50l1 150h339v-40zM324 717l-145 -126l-31 33l133 138z" />
    <glyph glyph-name="zcaron" unicode="&#x17e;" horiz-adv-x="427" 
d="M387 485l-257 -427h191l15 94h50v-152h-344v48l253 419h-180l-18 -92h-50l1 150h339v-40zM340 741l-100 -151h-50l-100 151l35 23l90 -116l91 116z" />
    <glyph glyph-name="zdotaccent" unicode="&#x17c;" horiz-adv-x="427" 
d="M387 485l-257 -427h191l15 94h50v-152h-344v48l253 419h-180l-18 -92h-50l1 150h339v-40zM217 716q22 0 37 -13t15 -35t-14.5 -34.5t-37.5 -12.5q-22 0 -37.5 12.5t-15.5 34.5t15.5 35t37.5 13z" />
    <glyph glyph-name="a.alt" horiz-adv-x="587" 
d="M245 537q27 0 50 -7t42 -18t34.5 -26t28.5 -31h2l2 70h136v-44l-70 -21v-397l70 -22v-41h-136l-3 68q-9 -12 -23.5 -26t-34 -26t-45 -20t-56.5 -8q-100 0 -147.5 71.5t-47.5 202.5q0 134 52 204.5t146 70.5zM260 472q-61 0 -98 -50.5t-37 -159.5q0 -44 7 -82.5
t23.5 -66.5t43 -44t65.5 -16q24 0 45 8t37.5 19.5t29 24.5t21.5 24v257q-8 12 -21.5 27t-31 28t-39 22t-45.5 9z" />
    <glyph glyph-name="aacute.alt" horiz-adv-x="587" 
d="M394 717l-145 -126l-31 33l133 138zM245 537q27 0 50 -7t42 -18t34.5 -26t28.5 -31h2l2 70h136v-44l-70 -21v-397l70 -22v-41h-136l-3 68q-9 -12 -23.5 -26t-34 -26t-45 -20t-56.5 -8q-100 0 -147.5 71.5t-47.5 202.5q0 134 52 204.5t146 70.5zM260 472q-61 0 -98 -50.5
t-37 -159.5q0 -44 7 -82.5t23.5 -66.5t43 -44t65.5 -16q24 0 45 8t37.5 19.5t29 24.5t21.5 24v257q-8 12 -21.5 27t-31 28t-39 22t-45.5 9z" />
    <glyph glyph-name="abreve.alt" horiz-adv-x="587" 
d="M412 751q-5 -80 -35 -117.5t-90 -37.5t-89 36.5t-37 117.5l46 8q7 -60 24 -85.5t56 -25.5q42 0 58 27.5t21 83.5zM245 537q27 0 50 -7t42 -18t34.5 -26t28.5 -31h2l2 70h136v-44l-70 -21v-397l70 -22v-41h-136l-3 68q-9 -12 -23.5 -26t-34 -26t-45 -20t-56.5 -8
q-100 0 -147.5 71.5t-47.5 202.5q0 134 52 204.5t146 70.5zM260 472q-61 0 -98 -50.5t-37 -159.5q0 -44 7 -82.5t23.5 -66.5t43 -44t65.5 -16q24 0 45 8t37.5 19.5t29 24.5t21.5 24v257q-8 12 -21.5 27t-31 28t-39 22t-45.5 9z" />
    <glyph glyph-name="acircumflex.alt" horiz-adv-x="587" 
d="M286 698l-90 -116l-35 23l100 151h50l100 -151l-34 -23zM245 537q27 0 50 -7t42 -18t34.5 -26t28.5 -31h2l2 70h136v-44l-70 -21v-397l70 -22v-41h-136l-3 68q-9 -12 -23.5 -26t-34 -26t-45 -20t-56.5 -8q-100 0 -147.5 71.5t-47.5 202.5q0 134 52 204.5t146 70.5z
M260 472q-61 0 -98 -50.5t-37 -159.5q0 -44 7 -82.5t23.5 -66.5t43 -44t65.5 -16q24 0 45 8t37.5 19.5t29 24.5t21.5 24v257q-8 12 -21.5 27t-31 28t-39 22t-45.5 9z" />
    <glyph glyph-name="adieresis.alt" horiz-adv-x="587" 
d="M197 719q22 0 34.5 -13t12.5 -33q0 -19 -13 -31.5t-34 -12.5q-22 0 -35.5 12.5t-13.5 31.5q0 20 13.5 33t35.5 13zM373 719q22 0 34.5 -13t12.5 -33q0 -19 -13 -31.5t-34 -12.5q-22 0 -35.5 12.5t-13.5 31.5q0 20 13.5 33t35.5 13zM245 537q27 0 50 -7t42 -18t34.5 -26
t28.5 -31h2l2 70h136v-44l-70 -21v-397l70 -22v-41h-136l-3 68q-9 -12 -23.5 -26t-34 -26t-45 -20t-56.5 -8q-100 0 -147.5 71.5t-47.5 202.5q0 134 52 204.5t146 70.5zM260 472q-61 0 -98 -50.5t-37 -159.5q0 -44 7 -82.5t23.5 -66.5t43 -44t65.5 -16q24 0 45 8t37.5 19.5
t29 24.5t21.5 24v257q-8 12 -21.5 27t-31 28t-39 22t-45.5 9z" />
    <glyph glyph-name="agrave.alt" horiz-adv-x="587" 
d="M368 624l-31 -33l-145 126l43 45zM245 537q27 0 50 -7t42 -18t34.5 -26t28.5 -31h2l2 70h136v-44l-70 -21v-397l70 -22v-41h-136l-3 68q-9 -12 -23.5 -26t-34 -26t-45 -20t-56.5 -8q-100 0 -147.5 71.5t-47.5 202.5q0 134 52 204.5t146 70.5zM260 472q-61 0 -98 -50.5
t-37 -159.5q0 -44 7 -82.5t23.5 -66.5t43 -44t65.5 -16q24 0 45 8t37.5 19.5t29 24.5t21.5 24v257q-8 12 -21.5 27t-31 28t-39 22t-45.5 9z" />
    <glyph glyph-name="amacron.alt" horiz-adv-x="587" 
d="M419 623h-254v55h254v-55zM245 537q27 0 50 -7t42 -18t34.5 -26t28.5 -31h2l2 70h136v-44l-70 -21v-397l70 -22v-41h-136l-3 68q-9 -12 -23.5 -26t-34 -26t-45 -20t-56.5 -8q-100 0 -147.5 71.5t-47.5 202.5q0 134 52 204.5t146 70.5zM260 472q-61 0 -98 -50.5
t-37 -159.5q0 -44 7 -82.5t23.5 -66.5t43 -44t65.5 -16q24 0 45 8t37.5 19.5t29 24.5t21.5 24v257q-8 12 -21.5 27t-31 28t-39 22t-45.5 9z" />
    <glyph glyph-name="aogonek.alt" horiz-adv-x="587" 
d="M546 -191q-17 -11 -40 -21t-49 -10q-41 0 -62 21.5t-21 56.5q0 40 25 79t66 65h-61l-3 68q-9 -12 -23.5 -26t-34 -26t-45 -20t-56.5 -8q-100 0 -147.5 71.5t-47.5 202.5q0 134 52 204.5t146 70.5q27 0 50 -7t42 -18t34.5 -26t28.5 -31h2l2 70h136v-44l-70 -21v-397
l70 -22v-41h-2q-50 -26 -76.5 -63t-26.5 -69q0 -38 39 -38q14 0 26.5 4.5t26.5 12.5zM397 386q-8 12 -21.5 27t-31 28t-39 22t-45.5 9q-61 0 -98 -50.5t-37 -159.5q0 -44 7 -82.5t23.5 -66.5t43 -44t65.5 -16q24 0 45 8t37.5 19.5t29 24.5t21.5 24v257z" />
    <glyph glyph-name="aring.alt" horiz-adv-x="587" 
d="M288 765q38 0 63.5 -22.5t25.5 -64.5q0 -43 -25.5 -66t-63.5 -23q-39 0 -64 22t-25 64t25.5 66t63.5 24zM288 726q-20 0 -31.5 -13.5t-11.5 -37.5t11.5 -36t31.5 -12t31.5 13.5t11.5 36.5q0 49 -43 49zM245 537q27 0 50 -7t42 -18t34.5 -26t28.5 -31h2l2 70h136v-44
l-70 -21v-397l70 -22v-41h-136l-3 68q-9 -12 -23.5 -26t-34 -26t-45 -20t-56.5 -8q-100 0 -147.5 71.5t-47.5 202.5q0 134 52 204.5t146 70.5zM260 472q-61 0 -98 -50.5t-37 -159.5q0 -44 7 -82.5t23.5 -66.5t43 -44t65.5 -16q24 0 45 8t37.5 19.5t29 24.5t21.5 24v257
q-8 12 -21.5 27t-31 28t-39 22t-45.5 9z" />
    <glyph glyph-name="atilde.alt" horiz-adv-x="587" 
d="M420 682q-10 -37 -28.5 -55t-43.5 -18q-17 0 -33.5 5.5t-31.5 11.5t-28 11.5t-23 5.5q-13 0 -20.5 -7t-18.5 -29l-39 16q12 38 31.5 56t43.5 18q16 0 31 -5.5t29 -11.5t27.5 -11.5t26.5 -5.5t22 6.5t17 27.5zM245 537q27 0 50 -7t42 -18t34.5 -26t28.5 -31h2l2 70h136
v-44l-70 -21v-397l70 -22v-41h-136l-3 68q-9 -12 -23.5 -26t-34 -26t-45 -20t-56.5 -8q-100 0 -147.5 71.5t-47.5 202.5q0 134 52 204.5t146 70.5zM260 472q-61 0 -98 -50.5t-37 -159.5q0 -44 7 -82.5t23.5 -66.5t43 -44t65.5 -16q24 0 45 8t37.5 19.5t29 24.5t21.5 24v257
q-8 12 -21.5 27t-31 28t-39 22t-45.5 9z" />
    <glyph glyph-name="g.alt" horiz-adv-x="586" 
d="M247 537q28 0 51.5 -8t43 -20t34 -27t25.5 -28h2l2 71h134v-44l-69 -22v-456q0 -61 -12.5 -102t-37 -65.5t-61 -35t-84.5 -10.5q-54 0 -100 9.5t-78 22.5l17 59q29 -11 67.5 -20.5t80.5 -9.5q41 0 67.5 9t42 28.5t21.5 50t6 72.5v56q-26 -32 -65 -53.5t-92 -21.5
q-51 0 -87.5 19t-60.5 54t-35.5 84.5t-11.5 111.5q0 63 12 114t36.5 87t62.5 55.5t89 19.5zM263 472q-69 0 -103.5 -52.5t-34.5 -155.5q0 -102 34 -155t104 -53q25 0 45.5 7.5t37 19t29.5 24.5t22 24v253q-8 13 -21 28.5t-30.5 28.5t-38.5 22t-44 9z" />
    <glyph glyph-name="gbreve.alt" horiz-adv-x="586" 
d="M412 751q-5 -80 -35 -117.5t-90 -37.5t-89 36.5t-37 117.5l46 8q7 -60 24 -85.5t56 -25.5q42 0 58 27.5t21 83.5zM247 537q28 0 51.5 -8t43 -20t34 -27t25.5 -28h2l2 71h134v-44l-69 -22v-456q0 -61 -12.5 -102t-37 -65.5t-61 -35t-84.5 -10.5q-54 0 -100 9.5t-78 22.5
l17 59q29 -11 67.5 -20.5t80.5 -9.5q41 0 67.5 9t42 28.5t21.5 50t6 72.5v56q-26 -32 -65 -53.5t-92 -21.5q-51 0 -87.5 19t-60.5 54t-35.5 84.5t-11.5 111.5q0 63 12 114t36.5 87t62.5 55.5t89 19.5zM263 472q-69 0 -103.5 -52.5t-34.5 -155.5q0 -102 34 -155t104 -53
q25 0 45.5 7.5t37 19t29.5 24.5t22 24v253q-8 13 -21 28.5t-30.5 28.5t-38.5 22t-44 9z" />
    <glyph glyph-name="gcircumflex.alt" horiz-adv-x="586" 
d="M286 698l-90 -116l-35 23l100 151h50l100 -151l-34 -23zM247 537q28 0 51.5 -8t43 -20t34 -27t25.5 -28h2l2 71h134v-44l-69 -22v-456q0 -61 -12.5 -102t-37 -65.5t-61 -35t-84.5 -10.5q-54 0 -100 9.5t-78 22.5l17 59q29 -11 67.5 -20.5t80.5 -9.5q41 0 67.5 9t42 28.5
t21.5 50t6 72.5v56q-26 -32 -65 -53.5t-92 -21.5q-51 0 -87.5 19t-60.5 54t-35.5 84.5t-11.5 111.5q0 63 12 114t36.5 87t62.5 55.5t89 19.5zM263 472q-69 0 -103.5 -52.5t-34.5 -155.5q0 -102 34 -155t104 -53q25 0 45.5 7.5t37 19t29.5 24.5t22 24v253q-8 13 -21 28.5
t-30.5 28.5t-38.5 22t-44 9z" />
    <glyph glyph-name="gcommaaccent.alt" horiz-adv-x="586" 
d="M230 607l58 158l46 -12l-40 -160zM247 537q28 0 51.5 -8t43 -20t34 -27t25.5 -28h2l2 71h134v-44l-69 -22v-456q0 -61 -12.5 -102t-37 -65.5t-61 -35t-84.5 -10.5q-54 0 -100 9.5t-78 22.5l17 59q29 -11 67.5 -20.5t80.5 -9.5q41 0 67.5 9t42 28.5t21.5 50t6 72.5v56
q-26 -32 -65 -53.5t-92 -21.5q-51 0 -87.5 19t-60.5 54t-35.5 84.5t-11.5 111.5q0 63 12 114t36.5 87t62.5 55.5t89 19.5zM263 472q-69 0 -103.5 -52.5t-34.5 -155.5q0 -102 34 -155t104 -53q25 0 45.5 7.5t37 19t29.5 24.5t22 24v253q-8 13 -21 28.5t-30.5 28.5t-38.5 22
t-44 9z" />
    <glyph glyph-name="gdotaccent.alt" horiz-adv-x="586" 
d="M288 716q22 0 37 -13t15 -35t-14.5 -34.5t-37.5 -12.5q-22 0 -37.5 12.5t-15.5 34.5t15.5 35t37.5 13zM247 537q28 0 51.5 -8t43 -20t34 -27t25.5 -28h2l2 71h134v-44l-69 -22v-456q0 -61 -12.5 -102t-37 -65.5t-61 -35t-84.5 -10.5q-54 0 -100 9.5t-78 22.5l17 59
q29 -11 67.5 -20.5t80.5 -9.5q41 0 67.5 9t42 28.5t21.5 50t6 72.5v56q-26 -32 -65 -53.5t-92 -21.5q-51 0 -87.5 19t-60.5 54t-35.5 84.5t-11.5 111.5q0 63 12 114t36.5 87t62.5 55.5t89 19.5zM263 472q-69 0 -103.5 -52.5t-34.5 -155.5q0 -102 34 -155t104 -53
q25 0 45.5 7.5t37 19t29.5 24.5t22 24v253q-8 13 -21 28.5t-30.5 28.5t-38.5 22t-44 9z" />
    <glyph glyph-name="ordfeminine" unicode="&#xaa;" horiz-adv-x="448" 
d="M225 655q58 0 95 -30.5t37 -98.5v-262h-53l-1 64q-17 -34 -49 -53.5t-73 -19.5q-51 0 -83.5 27.5t-32.5 81.5q0 21 7 42.5t26 39.5t52 29t85 11q17 0 32 -1.5t32 -3.5v37q0 45 -21 66t-59 21q-35 0 -62.5 -12t-52.5 -31l-23 41q29 23 64.5 37.5t79.5 14.5zM243 442
q-63 0 -90.5 -18.5t-27.5 -56.5q0 -32 18.5 -48.5t50.5 -16.5q21 0 40.5 9t33.5 24t22.5 35t8.5 43v24q-11 2 -23.5 3.5t-32.5 1.5z" />
    <glyph glyph-name="ordmasculine" unicode="&#xba;" horiz-adv-x="455" 
d="M227 655q78 0 122 -50t44 -150q0 -50 -12 -87t-34 -62.5t-52.5 -38t-67.5 -12.5q-78 0 -121.5 49.5t-43.5 150.5q0 100 45 150t120 50zM228 605q-47 0 -76.5 -35t-29.5 -115q0 -81 29.5 -115.5t76.5 -34.5q45 0 75.5 34.5t30.5 115.5q0 80 -30.5 115t-75.5 35z" />
    <glyph glyph-name="Delta" unicode="&#x2206;" horiz-adv-x="621" 
d="M594 0h-567l238 720h89zM124 62h369l-184 574z" />
    <glyph glyph-name="uni0394" unicode="&#x394;" horiz-adv-x="621" 
d="M27 0l238 720h89l240 -720h-567zM493 62l-184 574l-185 -574h369z" />
    <glyph glyph-name="Omega" unicode="&#x2126;" horiz-adv-x="749" 
d="M378 732q66 0 121 -19t94.5 -59t61.5 -103t22 -151q0 -65 -15 -117.5t-39.5 -92t-55.5 -66.5t-63 -42v-15h164v-67h-235v90q31 15 60.5 40.5t52.5 62t36.5 84.5t13.5 107q0 73 -15.5 125t-44 85.5t-68.5 49.5t-90 16q-100 0 -159.5 -68.5t-59.5 -212.5q0 -55 12.5 -101
t33 -82t47 -62t54.5 -42v-92h-236v67h164v16q-30 17 -58 45t-49.5 66.5t-35 87.5t-13.5 108q0 89 22.5 153.5t62 106.5t94.5 62t121 20z" />
    <glyph glyph-name="uni03A9" unicode="&#x3a9;" horiz-adv-x="749" 
d="M378 732q66 0 121 -19t94.5 -59t61.5 -103t22 -151q0 -65 -15 -117.5t-39.5 -92t-55.5 -66.5t-63 -42v-15h164v-67h-235v90q31 15 60.5 40.5t52.5 62t36.5 84.5t13.5 107q0 73 -15.5 125t-44 85.5t-68.5 49.5t-90 16q-100 0 -159.5 -68.5t-59.5 -212.5q0 -55 12.5 -101
t33 -82t47 -62t54.5 -42v-92h-236v67h164v16q-30 17 -58 45t-49.5 66.5t-35 87.5t-13.5 108q0 89 22.5 153.5t62 106.5t94.5 62t121 20z" />
    <glyph glyph-name="uni03BC" unicode="&#x3bc;" horiz-adv-x="650" 
d="M486 91q0 -18 9.5 -28t25.5 -10h24v-53q-10 -1 -19.5 -1.5t-20.5 -0.5q-36 0 -57.5 17.5t-26.5 56.5q-18 -39 -49.5 -61t-78.5 -22q-42 0 -67 15t-43 41v-245h-72v660l-67 21v44h139v-334q0 -66 26 -105.5t86 -39.5q27 0 48.5 11.5t36.5 29.5t23 39.5t9 41.5l1 292
l-68 21v44h141v-434z" />
    <glyph glyph-name="mu" unicode="&#xb5;" horiz-adv-x="650" 
d="M486 91q0 -18 9.5 -28t25.5 -10h24v-53q-10 -1 -19.5 -1.5t-20.5 -0.5q-36 0 -57.5 17.5t-26.5 56.5q-18 -39 -49.5 -61t-78.5 -22q-42 0 -67 15t-43 41v-245h-72v660l-67 21v44h139v-334q0 -66 26 -105.5t86 -39.5q27 0 48.5 11.5t36.5 29.5t23 39.5t9 41.5l1 292
l-68 21v44h141v-434z" />
    <glyph glyph-name="pi" unicode="&#x3c0;" horiz-adv-x="605" 
d="M541 465h-71v-402l70 -22v-41h-143v465h-163q0 -145 -17 -262t-57 -203h-82v27q53 85 69.5 194.5t16.5 243.5q-35 0 -61.5 -12.5t-39.5 -32.5l-30 24q14 34 44.5 57.5t79.5 23.5h394z" />
    <glyph glyph-name="zero" unicode="0" horiz-adv-x="581" 
d="M292 732q53 0 94 -21t69 -66t42.5 -115t14.5 -167q0 -101 -14.5 -172t-42.5 -116t-69.5 -66t-94.5 -21q-54 0 -95 20.5t-69.5 65.5t-43 116t-14.5 171q0 98 14.5 168t43 115t70 66.5t95.5 21.5zM291 667q-37 0 -64.5 -17t-46 -54t-28 -95t-9.5 -140q0 -84 9.5 -142.5
t28 -95.5t46 -53.5t64.5 -16.5q36 0 63.5 16.5t46 53.5t28 95.5t9.5 142.5q0 82 -9 140t-27.5 95t-46 54t-64.5 17z" />
    <glyph glyph-name="one" unicode="1" horiz-adv-x="466" 
d="M292 66l131 -21v-45h-344v45l140 21v549q-36 -26 -74.5 -43.5t-83.5 -26.5l-12 56q51 15 101.5 46t87.5 73h54v-654z" />
    <glyph glyph-name="two" unicode="2" horiz-adv-x="496" 
d="M234 730q88 0 135 -45.5t47 -126.5q0 -27 -4.5 -51t-14 -47.5t-24 -47t-33.5 -50.5l-214 -300h238l18 103h50v-165h-396v51l247 346q30 43 45 79.5t15 74.5q0 49 -25.5 82.5t-83.5 33.5q-55 0 -84.5 -29t-39.5 -92l-65 13q6 36 19.5 67.5t36 54.5t55.5 36t78 13z" />
    <glyph glyph-name="three" unicode="3" horiz-adv-x="499" 
d="M227 730q88 0 135.5 -45t47.5 -126q0 -31 -10 -59.5t-27.5 -52t-41.5 -40.5t-53 -26q85 -10 125.5 -58.5t40.5 -128.5q0 -50 -16.5 -88t-45.5 -64.5t-68 -40t-83 -13.5q-60 0 -111 20t-99 69l39 51q38 -36 77 -54.5t90 -18.5q30 0 56 10t45 28.5t30 44t11 56.5
q0 63 -36.5 103t-118.5 40q-11 0 -25 -0.5t-25 -1.5l-3 64q37 1 69 12.5t55.5 32t37 48.5t13.5 61q0 23 -6 44t-19 36.5t-33.5 24.5t-49.5 9q-55 0 -85.5 -29.5t-41.5 -91.5l-62 13q6 36 19 67.5t36 54.5t55.5 36t77.5 13z" />
    <glyph glyph-name="four" unicode="4" horiz-adv-x="537" 
d="M398 240h83v-60h-83v-114l83 -21v-45h-258v45l105 21v114h-300v54l274 486h96v-480zM326 649l-226 -409h228v409h-2z" />
    <glyph glyph-name="five" unicode="5" horiz-adv-x="514" 
d="M412 639h-256l-17 -248q20 20 54 35t77 15q90 0 136 -55.5t46 -157.5q0 -62 -16.5 -107t-45.5 -74.5t-68 -44t-85 -14.5q-45 0 -95 15t-95 47l31 55q41 -25 77.5 -38t75.5 -13q31 0 58.5 9.5t47 29.5t31 52.5t11.5 77.5q0 71 -29.5 113.5t-92.5 42.5q-42 0 -72 -15.5
t-50 -37.5l-4 -47h-62l28 430h319z" />
    <glyph glyph-name="six" unicode="6" 
d="M310 732q38 0 76 -13t71 -41l-33 -53q-28 23 -55 32.5t-57 9.5q-48 0 -80 -24.5t-51.5 -65.5t-28.5 -94.5t-12 -110.5q29 30 70 51.5t89 21.5q45 0 78.5 -16t55.5 -45.5t33 -70t11 -89.5q0 -121 -55 -178.5t-146 -57.5q-108 0 -157.5 82t-49.5 238q0 212 63 318t178 106z
M284 383q-23 0 -44.5 -7.5t-40 -19t-33.5 -24.5t-25 -23q0 -71 9.5 -120t27.5 -79t43.5 -43t57.5 -13q26 0 49 9t40.5 28.5t27.5 51t10 77.5q0 44 -9.5 75t-26 50.5t-38.5 28.5t-48 9z" />
    <glyph glyph-name="seven" unicode="7" horiz-adv-x="487" 
d="M445 669l-248 -669h-76v9l245 645h-257l-17 -120h-52v186h405v-51z" />
    <glyph glyph-name="eight" unicode="8" horiz-adv-x="495" 
d="M267 732q41 0 74.5 -11.5t57.5 -32.5t37.5 -51t13.5 -67q0 -60 -34 -105t-85 -73q72 -36 107.5 -83t35.5 -117q0 -46 -15 -83.5t-43 -64.5t-68 -41.5t-89 -14.5q-99 0 -151.5 51t-52.5 136q0 75 39 126.5t105 83.5q-57 27 -88 69.5t-31 103.5q0 40 13.5 72t38.5 54.5
t59 35t76 12.5zM267 672q-52 0 -83 -29.5t-31 -84.5q0 -50 34.5 -82.5t84.5 -54.5q18 10 37 24.5t34 33t25 41t10 48.5q0 51 -30 77.5t-81 26.5zM252 354q-26 -13 -49 -29.5t-40 -38t-27 -48.5t-10 -61q0 -57 36 -92t99 -35q62 0 99 37.5t37 101.5q0 33 -12 58.5t-32 45.5
t-46.5 35t-54.5 26z" />
    <glyph glyph-name="nine" unicode="9" 
d="M254 -12q-38 0 -76 13t-71 41l33 53q28 -23 55 -32.5t57 -9.5q48 0 79.5 24.5t51 65.5t29 94.5t12.5 110.5q-29 -30 -70 -51.5t-89 -21.5q-45 0 -78.5 16t-55.5 45.5t-33 70t-11 89.5q0 121 55 178.5t146 57.5q108 0 157.5 -82t49.5 -238q0 -212 -63 -318t-178 -106z
M280 337q23 0 44.5 7.5t40 19t33.5 24t25 23.5q0 71 -9.5 120t-27.5 79t-43.5 43t-57.5 13q-26 0 -49.5 -9t-40.5 -28.5t-27 -51t-10 -77.5q0 -44 9.5 -75t26 -50.5t38.5 -28.5t48 -9z" />
    <glyph glyph-name="zero.denom" horiz-adv-x="363" 
d="M184 375q65 0 98 -45t33 -142q0 -101 -34 -146.5t-97 -45.5q-64 0 -98 45t-34 146q0 97 34 142.5t98 45.5zM184 324q-33 0 -52 -32.5t-19 -104.5q0 -74 19 -107t52 -33q34 0 52.5 33.5t18.5 106.5q0 72 -19 104.5t-52 32.5z" />
    <glyph glyph-name="one.denom" horiz-adv-x="301" 
d="M189 53l81 -18v-34h-225v34l83 18v239q-23 -10 -43.5 -16.5t-46.5 -8.5l-7 43q31 7 61.5 22.5t51.5 37.5h44z" />
    <glyph glyph-name="two.denom" horiz-adv-x="318" 
d="M153 375q54 0 82 -24.5t28 -66.5q0 -29 -12.5 -57t-35.5 -54l-107 -125h119l11 58h35v-106h-240v41l123 145q22 24 35 45t13 46q0 20 -12.5 34t-43.5 14q-26 0 -42.5 -13.5t-22.5 -42.5l-50 12q8 40 35.5 67t84.5 27z" />
    <glyph glyph-name="three.denom" horiz-adv-x="322" 
d="M150 375q54 0 82 -24t28 -67q0 -32 -18.5 -55t-53.5 -33q52 -5 72 -32t20 -62q0 -52 -35.5 -79t-92.5 -27q-77 0 -127 46l26 38q23 -17 45 -26t52 -9q33 0 52.5 13.5t19.5 45.5q0 31 -19.5 47.5t-64.5 16.5l-28 -1v44q44 1 69 17.5t25 48.5q0 19 -12.5 33.5t-42.5 14.5
q-25 0 -41.5 -13t-21.5 -41l-49 11q7 40 34 66.5t81 26.5z" />
    <glyph glyph-name="four.denom" horiz-adv-x="343" 
d="M266 130h56v-46h-56v-84h-57v84h-177v44l154 242h80v-240zM209 317l-118 -187h119v187h-1z" />
    <glyph glyph-name="five.denom" horiz-adv-x="332" 
d="M268 320h-146l-9 -110q12 9 31 16.5t45 7.5q51 0 77.5 -30.5t26.5 -82.5q0 -63 -38 -96t-95 -33q-31 0 -62.5 9t-57.5 27l20 39q23 -12 47 -19t47 -7q34 0 57 19t23 61q0 32 -15 51t-46 19q-23 0 -38.5 -8t-26.5 -17l-2 -27h-46l17 231h193z" />
    <glyph glyph-name="six.denom" horiz-adv-x="341" 
d="M198 375q24 0 48.5 -7t44.5 -20l-20 -41q-33 20 -67 20q-26 0 -44 -9.5t-29 -27t-16.5 -41.5t-7.5 -53q17 14 41 26.5t52 12.5q54 0 78.5 -31t24.5 -79q0 -65 -35 -97t-90 -32q-69 0 -98.5 45.5t-29.5 121.5q0 105 37 158.5t111 53.5zM188 191q-24 0 -46 -13t-34 -25
q2 -62 19.5 -87t51.5 -25q29 0 48.5 18t19.5 61q0 40 -16.5 55.5t-42.5 15.5z" />
    <glyph glyph-name="seven.denom" horiz-adv-x="297" 
d="M268 334l-140 -334h-61v6l137 316h-132l-11 -71h-37v119h244v-36z" />
    <glyph glyph-name="eight.denom" horiz-adv-x="339" 
d="M173 375q55 0 84 -22t29 -61q0 -30 -18.5 -53t-47.5 -38q42 -18 62 -39t20 -58q0 -50 -36 -79t-97 -29t-94 26.5t-33 72.5q0 39 22.5 62.5t60.5 40.5q-34 14 -51 34.5t-17 52.5q0 42 31 66t85 24zM173 335q-27 0 -43.5 -12.5t-16.5 -36.5q0 -13 5 -22t14 -16.5t20.5 -13
t23.5 -11.5q19 10 37.5 26t18.5 39q0 24 -16 35.5t-43 11.5zM162 173q-24 -12 -44.5 -28.5t-20.5 -48.5q0 -26 19 -41t53 -15q33 0 52.5 16.5t19.5 46.5q0 16 -6.5 27t-18 19t-25.5 13.5t-29 10.5z" />
    <glyph glyph-name="nine.denom" horiz-adv-x="341" 
d="M137 -5q-24 0 -48.5 7t-44.5 20l20 41q33 -20 67 -20q26 0 44 9.5t29 27t16.5 41.5t7.5 53q-17 -14 -41 -26.5t-52 -12.5q-54 0 -78.5 31t-24.5 79q0 65 35 97t90 32q69 0 98.5 -45.5t29.5 -121.5q0 -105 -37 -158.5t-111 -53.5zM147 179q24 0 46 13t34 25
q-2 62 -19.5 87t-51.5 25q-29 0 -48.5 -18t-19.5 -61q0 -40 16.5 -55.5t42.5 -15.5z" />
    <glyph glyph-name="zero.num" horiz-adv-x="363" 
d="M184 725q65 0 98 -45t33 -142q0 -101 -34 -146.5t-97 -45.5q-64 0 -98 45t-34 146q0 97 34 142.5t98 45.5zM184 674q-33 0 -52 -32.5t-19 -104.5q0 -74 19 -107t52 -33q34 0 52.5 33.5t18.5 106.5q0 72 -19 104.5t-52 32.5z" />
    <glyph glyph-name="one.num" horiz-adv-x="301" 
d="M189 403l81 -18v-34h-225v34l83 18v239q-23 -10 -43.5 -16.5t-46.5 -8.5l-7 43q31 7 61.5 22.5t51.5 37.5h44z" />
    <glyph glyph-name="two.num" horiz-adv-x="318" 
d="M153 725q54 0 82 -24.5t28 -66.5q0 -29 -12.5 -57t-35.5 -54l-107 -125h119l11 58h35v-106h-240v41l123 145q22 24 35 45t13 46q0 20 -12.5 34t-43.5 14q-26 0 -42.5 -13.5t-22.5 -42.5l-50 12q8 40 35.5 67t84.5 27z" />
    <glyph glyph-name="three.num" horiz-adv-x="322" 
d="M150 725q54 0 82 -24t28 -67q0 -32 -18.5 -55t-53.5 -33q52 -5 72 -32t20 -62q0 -52 -35.5 -79t-92.5 -27q-77 0 -127 46l26 38q23 -17 45 -26t52 -9q33 0 52.5 13.5t19.5 45.5q0 31 -19.5 47.5t-64.5 16.5l-28 -1v44q44 1 69 17.5t25 48.5q0 19 -12.5 33.5t-42.5 14.5
q-25 0 -41.5 -13t-21.5 -41l-49 11q7 40 34 66.5t81 26.5z" />
    <glyph glyph-name="four.num" horiz-adv-x="343" 
d="M266 480h56v-46h-56v-84h-57v84h-177v44l154 242h80v-240zM209 667l-118 -187h119v187h-1z" />
    <glyph glyph-name="five.num" horiz-adv-x="332" 
d="M268 670h-146l-9 -110q12 9 31 16.5t45 7.5q51 0 77.5 -30.5t26.5 -82.5q0 -63 -38 -96t-95 -33q-31 0 -62.5 9t-57.5 27l20 39q23 -12 47 -19t47 -7q34 0 57 19t23 61q0 32 -15 51t-46 19q-23 0 -38.5 -8t-26.5 -17l-2 -27h-46l17 231h193z" />
    <glyph glyph-name="six.num" horiz-adv-x="341" 
d="M198 725q24 0 48.5 -7t44.5 -20l-20 -41q-33 20 -67 20q-26 0 -44 -9.5t-29 -27t-16.5 -41.5t-7.5 -53q17 14 41 26.5t52 12.5q54 0 78.5 -31t24.5 -79q0 -65 -35 -97t-90 -32q-69 0 -98.5 45.5t-29.5 121.5q0 105 37 158.5t111 53.5zM188 541q-24 0 -46 -13t-34 -25
q2 -62 19.5 -87t51.5 -25q29 0 48.5 18t19.5 61q0 40 -16.5 55.5t-42.5 15.5z" />
    <glyph glyph-name="seven.num" horiz-adv-x="297" 
d="M268 684l-140 -334h-61v6l137 316h-132l-11 -71h-37v119h244v-36z" />
    <glyph glyph-name="eight.num" horiz-adv-x="339" 
d="M173 725q55 0 84 -22t29 -61q0 -30 -18.5 -53t-47.5 -38q42 -18 62 -39t20 -58q0 -50 -36 -79t-97 -29t-94 26.5t-33 72.5q0 39 22.5 62.5t60.5 40.5q-34 14 -51 34.5t-17 52.5q0 42 31 66t85 24zM173 685q-27 0 -43.5 -12.5t-16.5 -36.5q0 -13 5 -22t14 -16.5t20.5 -13
t23.5 -11.5q19 10 37.5 26t18.5 39q0 24 -16 35.5t-43 11.5zM162 523q-24 -12 -44.5 -28.5t-20.5 -48.5q0 -26 19 -41t53 -15q33 0 52.5 16.5t19.5 46.5q0 16 -6.5 27t-18 19t-25.5 13.5t-29 10.5z" />
    <glyph glyph-name="nine.num" horiz-adv-x="341" 
d="M137 345q-24 0 -48.5 7t-44.5 20l20 41q33 -20 67 -20q26 0 44 9.5t29 27t16.5 41.5t7.5 53q-17 -14 -41 -26.5t-52 -12.5q-54 0 -78.5 31t-24.5 79q0 65 35 97t90 32q69 0 98.5 -45.5t29.5 -121.5q0 -105 -37 -158.5t-111 -53.5zM147 529q24 0 46 13t34 25
q-2 62 -19.5 87t-51.5 25q-29 0 -48.5 -18t-19.5 -61q0 -40 16.5 -55.5t42.5 -15.5z" />
    <glyph glyph-name="zero.osf" horiz-adv-x="580" 
d="M292 612q109 0 166 -71.5t57 -231.5q0 -85 -15 -145.5t-43.5 -99.5t-70.5 -57.5t-96 -18.5q-111 0 -168 75t-57 243q0 154 59 230t168 76zM292 545q-74 0 -113 -56t-39 -184q0 -69 9.5 -116.5t28.5 -77.5t47 -43.5t65 -13.5t65 13.5t47 43.5t28.5 78.5t9.5 118.5
q0 66 -9.5 111t-28 73t-46 40.5t-64.5 12.5z" />
    <glyph glyph-name="one.osf" horiz-adv-x="465" 
d="M300 67l131 -21v-46h-354v46l150 21v429q-37 -26 -75.5 -43.5t-83.5 -26.5l-11 56q51 14 101 45.5t88 73.5h54v-534z" />
    <glyph glyph-name="two.osf" horiz-adv-x="519" 
d="M232 612q47 0 82 -12t58 -33t34.5 -49.5t11.5 -61.5q0 -56 -24 -98.5t-67 -89.5l-183 -206h239l17 102h51v-164h-405v50l224 251q35 38 54.5 71.5t19.5 78.5q0 40 -27 69.5t-86 29.5q-58 0 -88.5 -29.5t-41.5 -92.5l-64 13q6 36 19.5 67.5t36.5 54.5t57.5 36t81.5 13z
" />
    <glyph glyph-name="three.osf" horiz-adv-x="509" 
d="M232 612q91 0 139 -43t48 -118q0 -60 -34 -102.5t-92 -59.5q42 -5 72 -19.5t50 -37t29.5 -51t9.5 -60.5q0 -47 -16.5 -82.5t-45 -60t-66.5 -37t-82 -12.5q-61 0 -113 20.5t-97 67.5l39 50q37 -35 76.5 -53t91.5 -18q29 0 54.5 8.5t44 24.5t29 40t10.5 55q0 57 -35.5 90
t-117.5 34q-11 0 -28 -0.5t-23 -1.5l-3 63q37 0 68.5 8.5t55 25t36.5 40.5t13 56q0 23 -6.5 43t-20 35t-35 23.5t-51.5 8.5q-57 0 -88 -30t-42 -93l-64 15q6 36 19.5 67.5t37 54.5t57 36t80.5 13z" />
    <glyph glyph-name="four.osf" horiz-adv-x="547" 
d="M419 171h80v-62h-80v-169h-69v169h-310v56l284 436h95v-430zM348 531l-231 -360h233v360h-2z" />
    <glyph glyph-name="five.osf" horiz-adv-x="510" 
d="M405 533h-253l-15 -216q20 20 53 34t76 14q88 0 136 -52.5t48 -154.5q0 -57 -17 -99.5t-46 -71.5t-69 -43.5t-85 -14.5q-44 0 -94 14.5t-95 46.5l30 55q77 -49 150 -49q33 0 60.5 10t47.5 30t31.5 50t11.5 71q0 66 -30.5 106.5t-92.5 40.5q-38 0 -69 -15t-51 -36l-4 -47
h-63l26 395h319z" />
    <glyph glyph-name="six.osf" horiz-adv-x="529" 
d="M298 718q38 0 76 -14t71 -41l-31 -51q-29 23 -56 32t-57 9q-48 0 -80 -24t-51.5 -64t-28.5 -92t-12 -108q29 30 70 51.5t90 21.5q45 0 78.5 -16t55 -44.5t32.5 -69t11 -88.5q0 -119 -54.5 -175.5t-145.5 -56.5q-108 0 -158 80.5t-50 234.5q0 209 62.5 312t177.5 103z
M272 375q-23 0 -44.5 -7.5t-40 -18.5t-33.5 -23.5t-25 -22.5q0 -70 9.5 -117.5t27.5 -77t43.5 -42.5t57.5 -13q26 0 49 8.5t40.5 28t27.5 50t10 75.5q0 43 -9 73.5t-25.5 50t-39 28t-48.5 8.5z" />
    <glyph glyph-name="seven.osf" horiz-adv-x="465" 
d="M419 551l-243 -611h-77v10l238 586h-241l-17 -101h-51v166h391v-50z" />
    <glyph glyph-name="eight.osf" horiz-adv-x="529" 
d="M267 718q82 0 132.5 -42.5t50.5 -116.5q0 -59 -34 -103.5t-85 -72.5q72 -35 107.5 -80.5t35.5 -114.5q0 -45 -15 -82t-43 -63t-68 -40.5t-89 -14.5q-99 0 -151.5 50t-52.5 134q0 74 39 124t104 82q-57 26 -87.5 67.5t-30.5 101.5q0 39 13.5 70.5t38.5 54t59 34.5t76 12z
M268 658q-52 0 -83 -28.5t-31 -82.5q0 -25 9.5 -45t25.5 -36t37.5 -29t46.5 -24q18 10 37 24t34 32t25 39.5t10 47.5q0 50 -30 76t-81 26zM253 347q-26 -13 -49 -29t-40 -37t-27 -47.5t-10 -59.5q0 -54 35 -89t100 -35q64 0 100 38.5t36 98.5q0 32 -12 56.5t-32 44t-46.5 34
t-54.5 25.5z" />
    <glyph glyph-name="nine.osf" horiz-adv-x="529" 
d="M248 612q106 0 156.5 -81.5t50.5 -223.5q0 -105 -15 -177t-44 -117t-70.5 -64.5t-94.5 -19.5q-97 0 -160 51l30 53q26 -18 56 -29.5t72 -11.5q39 0 67 16.5t46 47.5t28 76t14 102q-32 -32 -71.5 -51t-87.5 -19q-46 0 -79.5 16t-55.5 45t-32.5 69t-10.5 88q0 112 55 171
t146 59zM246 547q-26 0 -49 -9t-40 -28.5t-27 -50t-10 -73.5q0 -86 34 -122.5t87 -36.5q23 0 44 7t39 18t33 24t26 25q0 66 -9.5 113t-27.5 76.5t-43.5 43t-56.5 13.5z" />
    <glyph glyph-name="zero.tf" 
d="M284 732q53 0 94 -21t69 -66t42.5 -115t14.5 -167q0 -101 -14.5 -172t-42.5 -116t-69.5 -66t-94.5 -21q-54 0 -95 20.5t-69.5 65.5t-43 116t-14.5 171q0 98 14.5 168t43 115t70 66.5t95.5 21.5zM283 667q-37 0 -64.5 -17t-46 -54t-28 -95t-9.5 -140q0 -84 9.5 -142.5
t28 -95.5t46 -53.5t64.5 -16.5q36 0 63.5 16.5t46 53.5t28 95.5t9.5 142.5q0 82 -9 140t-27.5 95t-46 54t-64.5 17z" />
    <glyph glyph-name="one.tf" 
d="M352 66l131 -21v-45h-344v45l140 21v549q-36 -26 -74.5 -43.5t-83.5 -26.5l-12 56q51 15 101.5 46t87.5 73h54v-654z" />
    <glyph glyph-name="two.tf" 
d="M288 730q88 0 135 -45.5t47 -126.5q0 -27 -4.5 -51t-14 -47.5t-24 -47t-33.5 -50.5l-214 -300h238l18 103h50v-165h-396v51l247 346q30 43 45 79.5t15 74.5q0 49 -25.5 82.5t-83.5 33.5q-55 0 -84.5 -29t-39.5 -92l-65 13q6 36 19.5 67.5t36 54.5t55.5 36t78 13z" />
    <glyph glyph-name="three.tf" 
d="M260 730q88 0 135.5 -45t47.5 -126q0 -31 -10 -59.5t-27.5 -52t-41.5 -40.5t-53 -26q85 -10 125.5 -58.5t40.5 -128.5q0 -50 -16.5 -88t-45.5 -64.5t-68 -40t-83 -13.5q-60 0 -111 20t-99 69l39 51q38 -36 77 -54.5t90 -18.5q30 0 56 10t45 28.5t30 44t11 56.5
q0 63 -36.5 103t-118.5 40q-11 0 -25 -0.5t-25 -1.5l-3 64q37 1 69 12.5t55.5 32t37 48.5t13.5 61q0 23 -6 44t-19 36.5t-33.5 24.5t-49.5 9q-55 0 -85.5 -29.5t-41.5 -91.5l-62 13q6 36 19 67.5t36 54.5t55.5 36t77.5 13z" />
    <glyph glyph-name="four.tf" 
d="M425 240h83v-60h-83v-114l83 -21v-45h-258v45l105 21v114h-300v54l274 486h96v-480zM353 649l-226 -409h228v409h-2z" />
    <glyph glyph-name="five.tf" 
d="M445 639h-256l-17 -248q20 20 54 35t77 15q90 0 136 -55.5t46 -157.5q0 -62 -16.5 -107t-45.5 -74.5t-68 -44t-85 -14.5q-45 0 -95 15t-95 47l31 55q41 -25 77.5 -38t75.5 -13q31 0 58.5 9.5t47 29.5t31 52.5t11.5 77.5q0 71 -29.5 113.5t-92.5 42.5q-42 0 -72 -15.5
t-50 -37.5l-4 -47h-62l28 430h319z" />
    <glyph glyph-name="six.tf" 
d="M325 732q38 0 76 -13t71 -41l-33 -53q-28 23 -55 32.5t-57 9.5q-48 0 -80 -24.5t-51.5 -65.5t-28.5 -94.5t-12 -110.5q29 30 70 51.5t89 21.5q45 0 78.5 -16t55.5 -45.5t33 -70t11 -89.5q0 -121 -55 -178.5t-146 -57.5q-108 0 -157.5 82t-49.5 238q0 212 63 318t178 106z
M299 383q-23 0 -44.5 -7.5t-40 -19t-33.5 -24.5t-25 -23q0 -71 9.5 -120t27.5 -79t43.5 -43t57.5 -13q26 0 49 9t40.5 28.5t27.5 51t10 77.5q0 44 -9.5 75t-26 50.5t-38.5 28.5t-48 9z" />
    <glyph glyph-name="seven.tf" 
d="M487 669l-248 -669h-76v9l245 645h-257l-17 -120h-52v186h405v-51z" />
    <glyph glyph-name="eight.tf" 
d="M284 732q41 0 74.5 -11.5t57.5 -32.5t37.5 -51t13.5 -67q0 -60 -34 -105t-85 -73q72 -36 107.5 -83t35.5 -117q0 -46 -15 -83.5t-43 -64.5t-68 -41.5t-89 -14.5q-99 0 -151.5 51t-52.5 136q0 75 39 126.5t105 83.5q-57 27 -88 69.5t-31 103.5q0 40 13.5 72t38.5 54.5
t59 35t76 12.5zM284 672q-52 0 -83 -29.5t-31 -84.5q0 -50 34.5 -82.5t84.5 -54.5q18 10 37 24.5t34 33t25 41t10 48.5q0 51 -30 77.5t-81 26.5zM269 354q-26 -13 -49 -29.5t-40 -38t-27 -48.5t-10 -61q0 -57 36 -92t99 -35q62 0 99 37.5t37 101.5q0 33 -12 58.5t-32 45.5
t-46.5 35t-54.5 26z" />
    <glyph glyph-name="nine.tf" 
d="M239 -12q-38 0 -76 13t-71 41l33 53q28 -23 55 -32.5t57 -9.5q48 0 79.5 24.5t51 65.5t29 94.5t12.5 110.5q-29 -30 -70 -51.5t-89 -21.5q-45 0 -78.5 16t-55.5 45.5t-33 70t-11 89.5q0 121 55 178.5t146 57.5q108 0 157.5 -82t49.5 -238q0 -212 -63 -318t-178 -106z
M265 337q23 0 44.5 7.5t40 19t33.5 24t25 23.5q0 71 -9.5 120t-27.5 79t-43.5 43t-57.5 13q-26 0 -49.5 -9t-40.5 -28.5t-27 -51t-10 -77.5q0 -44 9.5 -75t26 -50.5t38.5 -28.5t48 -9z" />
    <glyph glyph-name="zero.tosf" 
d="M283 612q108 0 163 -71.5t55 -231.5q0 -85 -14.5 -145.5t-42 -99.5t-68.5 -57.5t-95 -18.5q-107 0 -163 75t-56 243q0 154 57 230t164 76zM284 544q-73 0 -110.5 -55.5t-37.5 -182.5q0 -69 9 -116.5t27.5 -77.5t46 -43t63.5 -13t63.5 13.5t45.5 43.5t27.5 78t9.5 118
q0 65 -9 110t-27 72.5t-45 40t-63 12.5z" />
    <glyph glyph-name="one.tosf" 
d="M481 53v-53h-354v53l149 3v440q-36 -26 -76 -43.5t-85 -26.5l-11 56q51 14 103 45.5t89 73.5h54v-545z" />
    <glyph glyph-name="two.tosf" 
d="M276 612q47 0 82 -12t58 -33t34.5 -49.5t11.5 -61.5q0 -56 -24 -98.5t-67 -89.5l-183 -206h239l17 102h51v-164h-405v50l224 251q35 38 54.5 71.5t19.5 78.5q0 40 -27 69.5t-86 29.5q-58 0 -88.5 -29.5t-41.5 -92.5l-64 13q6 36 19.5 67.5t36.5 54.5t57.5 36t81.5 13z
" />
    <glyph glyph-name="three.tosf" 
d="M262 612q91 0 139 -43t48 -118q0 -60 -34 -102.5t-92 -59.5q42 -5 72 -19.5t50 -37t29.5 -51t9.5 -60.5q0 -47 -16.5 -82.5t-45 -60t-66.5 -37t-82 -12.5q-61 0 -113 20.5t-97 67.5l39 50q37 -35 76.5 -53t91.5 -18q29 0 54.5 8.5t44 24.5t29 40t10.5 55q0 57 -35.5 90
t-117.5 34q-11 0 -28 -0.5t-23 -1.5l-3 63q37 0 68.5 8.5t55 25t36.5 40.5t13 56q0 23 -6.5 43t-20 35t-35 23.5t-51.5 8.5q-57 0 -88 -30t-42 -93l-64 15q6 36 19.5 67.5t37 54.5t57 36t80.5 13z" />
    <glyph glyph-name="four.tosf" 
d="M427 171h80v-62h-80v-169h-71v169h-299v56l274 436h96v-430zM354 529l-221 -358h223v358h-2z" />
    <glyph glyph-name="five.tosf" 
d="M444 533h-253l-15 -216q20 20 53 34t76 14q88 0 136 -52.5t48 -154.5q0 -57 -17 -99.5t-46 -71.5t-69 -43.5t-85 -14.5q-44 0 -94 14.5t-95 46.5l30 55q77 -49 150 -49q33 0 60.5 10t47.5 30t31.5 50t11.5 71q0 66 -30.5 106.5t-92.5 40.5q-38 0 -69 -15t-51 -36l-4 -47
h-63l26 395h319z" />
    <glyph glyph-name="six.tosf" 
d="M318 718q38 0 76 -14t71 -41l-31 -51q-29 23 -56 32t-57 9q-48 0 -80 -24t-51.5 -64t-28.5 -92t-12 -108q29 30 70 51.5t90 21.5q45 0 78.5 -16t55 -44.5t32.5 -69t11 -88.5q0 -119 -54.5 -175.5t-145.5 -56.5q-108 0 -158 80.5t-50 234.5q0 209 62.5 312t177.5 103z
M292 375q-23 0 -44.5 -7.5t-40 -18.5t-33.5 -23.5t-25 -22.5q0 -70 9.5 -117.5t27.5 -77t43.5 -42.5t57.5 -13q26 0 49 8.5t40.5 28t27.5 50t10 75.5q0 43 -9 73.5t-25.5 50t-39 28t-48.5 8.5z" />
    <glyph glyph-name="seven.tosf" 
d="M478 551l-243 -611h-77v10l238 586h-241l-17 -101h-51v166h391v-50z" />
    <glyph glyph-name="eight.tosf" 
d="M285 718q82 0 132.5 -42.5t50.5 -116.5q0 -59 -34 -103.5t-85 -72.5q72 -35 107.5 -80.5t35.5 -114.5q0 -45 -15 -82t-43 -63t-68 -40.5t-89 -14.5q-99 0 -151.5 50t-52.5 134q0 74 39 124t104 82q-57 26 -87.5 67.5t-30.5 101.5q0 39 13.5 70.5t38.5 54t59 34.5t76 12z
M286 658q-52 0 -83 -28.5t-31 -82.5q0 -25 9.5 -45t25.5 -36t37.5 -29t46.5 -24q18 10 37 24t34 32t25 39.5t10 47.5q0 50 -30 76t-81 26zM271 347q-26 -13 -49 -29t-40 -37t-27 -47.5t-10 -59.5q0 -54 35 -89t100 -35q64 0 100 38.5t36 98.5q0 32 -12 56.5t-32 44t-46.5 34
t-54.5 25.5z" />
    <glyph glyph-name="nine.tosf" 
d="M276 612q106 0 156.5 -81.5t50.5 -223.5q0 -105 -15 -177t-44 -117t-70.5 -64.5t-94.5 -19.5q-97 0 -160 51l30 53q26 -18 56 -29.5t72 -11.5q39 0 67 16.5t46 47.5t28 76t14 102q-32 -32 -71.5 -51t-87.5 -19q-46 0 -79.5 16t-55.5 45t-32.5 69t-10.5 88q0 112 55 171
t146 59zM274 547q-26 0 -49 -9t-40 -28.5t-27 -50t-10 -73.5q0 -86 34 -122.5t87 -36.5q23 0 44 7t39 18t33 24t26 25q0 66 -9.5 113t-27.5 76.5t-43.5 43t-56.5 13.5z" />
    <glyph glyph-name="fraction" unicode="&#x2044;" horiz-adv-x="137" 
d="M-105 -1h-63l403 721h62z" />
    <glyph glyph-name="onehalf" unicode="&#xbd;" horiz-adv-x="781" 
d="M191 403l81 -18v-34h-225v34l83 18v239q-23 -10 -43.5 -16.5t-46.5 -8.5l-7 43q31 7 61.5 22.5t51.5 37.5h44zM183 -1h-63l403 721h62zM531 375q54 0 82 -24.5t28 -66.5q0 -29 -12.5 -57t-35.5 -54l-107 -125h119l11 58h35v-106h-240v41l123 145q22 24 35 45t13 46
q0 20 -12.5 34t-43.5 14q-26 0 -42.5 -13.5t-22.5 -42.5l-50 12q8 40 35.5 67t84.5 27z" />
    <glyph glyph-name="uni2153" unicode="&#x2153;" horiz-adv-x="777" 
d="M163 403l81 -18v-34h-225v34l83 18v239q-23 -10 -43.5 -16.5t-46.5 -8.5l-7 43q31 7 61.5 22.5t51.5 37.5h44zM178 -1h-63l403 721h62zM532 375q54 0 82 -24t28 -67q0 -32 -18.5 -55t-53.5 -33q52 -5 72 -32t20 -62q0 -52 -35.5 -79t-92.5 -27q-77 0 -127 46l26 38
q23 -17 45 -26t52 -9q33 0 52.5 13.5t19.5 45.5q0 31 -19.5 47.5t-64.5 16.5l-28 -1v44q44 1 69 17.5t25 48.5q0 19 -12.5 33.5t-42.5 14.5q-25 0 -41.5 -13t-21.5 -41l-49 11q7 40 34 66.5t81 26.5z" />
    <glyph glyph-name="uni2154" unicode="&#x2154;" horiz-adv-x="796" 
d="M127 725q54 0 82 -24.5t28 -66.5q0 -29 -12.5 -57t-35.5 -54l-107 -125h119l11 58h35v-106h-240v41l123 145q22 24 35 45t13 46q0 20 -12.5 34t-43.5 14q-26 0 -42.5 -13.5t-22.5 -42.5l-50 12q8 40 35.5 67t84.5 27zM185 -1h-63l403 721h62zM551 375q54 0 82 -24t28 -67
q0 -32 -18.5 -55t-53.5 -33q52 -5 72 -32t20 -62q0 -52 -35.5 -79t-92.5 -27q-77 0 -127 46l26 38q23 -17 45 -26t52 -9q33 0 52.5 13.5t19.5 45.5q0 31 -19.5 47.5t-64.5 16.5l-28 -1v44q44 1 69 17.5t25 48.5q0 19 -12.5 33.5t-42.5 14.5q-25 0 -41.5 -13t-21.5 -41
l-49 11q7 40 34 66.5t81 26.5z" />
    <glyph glyph-name="onequarter" unicode="&#xbc;" horiz-adv-x="772" 
d="M163 403l81 -18v-34h-225v34l83 18v239q-23 -10 -43.5 -16.5t-46.5 -8.5l-7 43q31 7 61.5 22.5t51.5 37.5h44zM177 -1h-63l403 721h62zM580 130h56v-46h-56v-84h-57v84h-177v44l154 242h80v-240zM523 317l-118 -187h119v187h-1z" />
    <glyph glyph-name="threequarters" unicode="&#xbe;" horiz-adv-x="786" 
d="M132 725q54 0 82 -24t28 -67q0 -32 -18.5 -55t-53.5 -33q52 -5 72 -32t20 -62q0 -52 -35.5 -79t-92.5 -27q-77 0 -127 46l26 38q23 -17 45 -26t52 -9q33 0 52.5 13.5t19.5 45.5q0 31 -19.5 47.5t-64.5 16.5l-28 -1v44q44 1 69 17.5t25 48.5q0 19 -12.5 33.5t-42.5 14.5
q-25 0 -41.5 -13t-21.5 -41l-49 11q7 40 34 66.5t81 26.5zM175 -1h-63l403 721h62zM594 130h56v-46h-56v-84h-57v84h-177v44l154 242h80v-240zM537 317l-118 -187h119v187h-1z" />
    <glyph glyph-name="uni2155" unicode="&#x2155;" horiz-adv-x="786" 
d="M163 403l81 -18v-34h-225v34l83 18v239q-23 -10 -43.5 -16.5t-46.5 -8.5l-7 43q31 7 61.5 22.5t51.5 37.5h44zM173 -1h-63l403 721h62zM638 320h-146l-9 -110q12 9 31 16.5t45 7.5q51 0 77.5 -30.5t26.5 -82.5q0 -63 -38 -96t-95 -33q-31 0 -62.5 9t-57.5 27l20 39
q23 -12 47 -19t47 -7q34 0 57 19t23 61q0 32 -15 51t-46 19q-23 0 -38.5 -8t-26.5 -17l-2 -27h-46l17 231h193z" />
    <glyph glyph-name="uni2156" unicode="&#x2156;" horiz-adv-x="798" 
d="M127 725q54 0 82 -24.5t28 -66.5q0 -29 -12.5 -57t-35.5 -54l-107 -125h119l11 58h35v-106h-240v41l123 145q22 24 35 45t13 46q0 20 -12.5 34t-43.5 14q-26 0 -42.5 -13.5t-22.5 -42.5l-50 12q8 40 35.5 67t84.5 27zM182 -1h-63l403 721h62zM650 320h-146l-9 -110
q12 9 31 16.5t45 7.5q51 0 77.5 -30.5t26.5 -82.5q0 -63 -38 -96t-95 -33q-31 0 -62.5 9t-57.5 27l20 39q23 -12 47 -19t47 -7q34 0 57 19t23 61q0 32 -15 51t-46 19q-23 0 -38.5 -8t-26.5 -17l-2 -27h-46l17 231h193z" />
    <glyph glyph-name="uni2157" unicode="&#x2157;" horiz-adv-x="795" 
d="M132 725q54 0 82 -24t28 -67q0 -32 -18.5 -55t-53.5 -33q52 -5 72 -32t20 -62q0 -52 -35.5 -79t-92.5 -27q-77 0 -127 46l26 38q23 -17 45 -26t52 -9q33 0 52.5 13.5t19.5 45.5q0 31 -19.5 47.5t-64.5 16.5l-28 -1v44q44 1 69 17.5t25 48.5q0 19 -12.5 33.5t-42.5 14.5
q-25 0 -41.5 -13t-21.5 -41l-49 11q7 40 34 66.5t81 26.5zM172 -1h-63l403 721h62zM647 320h-146l-9 -110q12 9 31 16.5t45 7.5q51 0 77.5 -30.5t26.5 -82.5q0 -63 -38 -96t-95 -33q-31 0 -62.5 9t-57.5 27l20 39q23 -12 47 -19t47 -7q34 0 57 19t23 61q0 32 -15 51t-46 19
q-23 0 -38.5 -8t-26.5 -17l-2 -27h-46l17 231h193z" />
    <glyph glyph-name="uni2158" unicode="&#x2158;" horiz-adv-x="827" 
d="M241 480h56v-46h-56v-84h-57v84h-177v44l154 242h80v-240zM201 -1h-63l403 721h62zM184 667l-118 -187h119v187h-1zM679 320h-146l-9 -110q12 9 31 16.5t45 7.5q51 0 77.5 -30.5t26.5 -82.5q0 -63 -38 -96t-95 -33q-31 0 -62.5 9t-57.5 27l20 39q23 -12 47 -19t47 -7
q34 0 57 19t23 61q0 32 -15 51t-46 19q-23 0 -38.5 -8t-26.5 -17l-2 -27h-46l17 231h193z" />
    <glyph glyph-name="uni2159" unicode="&#x2159;" horiz-adv-x="768" 
d="M163 403l81 -18v-34h-225v34l83 18v239q-23 -10 -43.5 -16.5t-46.5 -8.5l-7 43q31 7 61.5 22.5t51.5 37.5h44zM162 -1h-63l403 721h62zM529 375q24 0 48.5 -7t44.5 -20l-20 -41q-33 20 -67 20q-26 0 -44 -9.5t-29 -27t-16.5 -41.5t-7.5 -53q17 14 41 26.5t52 12.5
q54 0 78.5 -31t24.5 -79q0 -65 -35 -97t-90 -32q-69 0 -98.5 45.5t-29.5 121.5q0 105 37 158.5t111 53.5zM519 191q-24 0 -46 -13t-34 -25q2 -62 19.5 -87t51.5 -25q29 0 48.5 18t19.5 61q0 40 -16.5 55.5t-42.5 15.5z" />
    <glyph glyph-name="uni215A" unicode="&#x215a;" horiz-adv-x="782" 
d="M237 670h-146l-9 -110q12 9 31 16.5t45 7.5q51 0 77.5 -30.5t26.5 -82.5q0 -63 -38 -96t-95 -33q-31 0 -62.5 9t-57.5 27l20 39q23 -12 47 -19t47 -7q34 0 57 19t23 61q0 32 -15 51t-46 19q-23 0 -38.5 -8t-26.5 -17l-2 -27h-46l17 231h193zM172 -1h-63l403 721h62z
M543 375q24 0 48.5 -7t44.5 -20l-20 -41q-33 20 -67 20q-26 0 -44 -9.5t-29 -27t-16.5 -41.5t-7.5 -53q17 14 41 26.5t52 12.5q54 0 78.5 -31t24.5 -79q0 -65 -35 -97t-90 -32q-69 0 -98.5 45.5t-29.5 121.5q0 105 37 158.5t111 53.5zM533 191q-24 0 -46 -13t-34 -25
q2 -62 19.5 -87t51.5 -25q29 0 48.5 18t19.5 61q0 40 -16.5 55.5t-42.5 15.5z" />
    <glyph glyph-name="uni2150" unicode="&#x2150;" horiz-adv-x="752" 
d="M163 404l81 -18v-34h-225v34l83 18v239q-23 -10 -43.5 -16.5t-46.5 -8.5l-7 43q31 7 61.5 22.5t51.5 37.5h44zM161 -1h-63l403 721h62zM662 334l-140 -334h-61v6l137 316h-132l-11 -71h-37v119h244v-36z" />
    <glyph glyph-name="uniF507" unicode="&#xf507;" horiz-adv-x="782" 
d="M127 725q54 0 82 -24.5t28 -66.5q0 -29 -12.5 -57t-35.5 -54l-107 -125h119l11 58h35v-106h-240v41l123 145q22 24 35 45t13 46q0 20 -12.5 34t-43.5 14q-26 0 -42.5 -13.5t-22.5 -42.5l-50 12q8 40 35.5 67t84.5 27zM183 -1h-63l403 721h62zM692 334l-140 -334h-61v6
l137 316h-132l-11 -71h-37v119h244v-36z" />
    <glyph glyph-name="uniF508" unicode="&#xf508;" horiz-adv-x="764" 
d="M132 725q54 0 82 -24t28 -67q0 -32 -18.5 -55t-53.5 -33q52 -5 72 -32t20 -62q0 -52 -35.5 -79t-92.5 -27q-77 0 -127 46l26 38q23 -17 45 -26t52 -9q33 0 52.5 13.5t19.5 45.5q0 31 -19.5 47.5t-64.5 16.5l-28 -1v44q44 1 69 17.5t25 48.5q0 19 -12.5 33.5t-42.5 14.5
q-25 0 -41.5 -13t-21.5 -41l-49 11q7 40 34 66.5t81 26.5zM159 -1h-63l403 721h62zM674 334l-140 -334h-61v6l137 316h-132l-11 -71h-37v119h244v-36z" />
    <glyph glyph-name="uniF509" unicode="&#xf509;" horiz-adv-x="798" 
d="M241 480h56v-46h-56v-84h-57v84h-177v44l154 242h80v-240zM187 -1h-63l403 721h62zM184 667l-118 -187h119v187h-1zM708 334l-140 -334h-61v6l137 316h-132l-11 -71h-37v119h244v-36z" />
    <glyph glyph-name="uniF50A" unicode="&#xf50a;" horiz-adv-x="783" 
d="M237 670h-146l-9 -110q12 9 31 16.5t45 7.5q51 0 77.5 -30.5t26.5 -82.5q0 -63 -38 -96t-95 -33q-31 0 -62.5 9t-57.5 27l20 39q23 -12 47 -19t47 -7q34 0 57 19t23 61q0 32 -15 51t-46 19q-23 0 -38.5 -8t-26.5 -17l-2 -27h-46l17 231h193zM165 -1h-63l403 721h62z
M693 334l-140 -334h-61v6l137 316h-132l-11 -71h-37v119h244v-36z" />
    <glyph glyph-name="uniF50B" unicode="&#xf50b;" horiz-adv-x="783" 
d="M155 725q24 0 48.5 -7t44.5 -20l-20 -41q-33 20 -67 20q-26 0 -44 -9.5t-29 -27t-16.5 -41.5t-7.5 -53q17 14 41 26.5t52 12.5q54 0 78.5 -31t24.5 -79q0 -65 -35 -97t-90 -32q-69 0 -98.5 45.5t-29.5 121.5q0 105 37 158.5t111 53.5zM169 -1h-63l403 721h62zM145 541
q-24 0 -46 -13t-34 -25q2 -62 19.5 -87t51.5 -25q29 0 48.5 18t19.5 61q0 40 -16.5 55.5t-42.5 15.5zM693 334l-140 -334h-61v6l137 316h-132l-11 -71h-37v119h244v-36z" />
    <glyph glyph-name="oneeighth" unicode="&#x215b;" horiz-adv-x="803" 
d="M163 403l81 -18v-34h-225v34l83 18v239q-23 -10 -43.5 -16.5t-46.5 -8.5l-7 43q31 7 61.5 22.5t51.5 37.5h44zM183 -1h-63l403 721h62zM542 375q55 0 84 -22t29 -61q0 -30 -18.5 -53t-47.5 -38q42 -18 62 -39t20 -58q0 -50 -36 -79t-97 -29t-94 26.5t-33 72.5
q0 39 22.5 62.5t60.5 40.5q-34 14 -51 34.5t-17 52.5q0 42 31 66t85 24zM542 335q-27 0 -43.5 -12.5t-16.5 -36.5q0 -13 5 -22t14 -16.5t20.5 -13t23.5 -11.5q19 10 37.5 26t18.5 39q0 24 -16 35.5t-43 11.5zM531 173q-24 -12 -44.5 -28.5t-20.5 -48.5q0 -26 19 -41t53 -15
q33 0 52.5 16.5t19.5 46.5q0 16 -6.5 27t-18 19t-25.5 13.5t-29 10.5z" />
    <glyph glyph-name="threeeighths" unicode="&#x215c;" horiz-adv-x="835" 
d="M132 725q54 0 82 -24t28 -67q0 -32 -18.5 -55t-53.5 -33q52 -5 72 -32t20 -62q0 -52 -35.5 -79t-92.5 -27q-77 0 -127 46l26 38q23 -17 45 -26t52 -9q33 0 52.5 13.5t19.5 45.5q0 31 -19.5 47.5t-64.5 16.5l-28 -1v44q44 1 69 17.5t25 48.5q0 19 -12.5 33.5t-42.5 14.5
q-25 0 -41.5 -13t-21.5 -41l-49 11q7 40 34 66.5t81 26.5zM182 -1h-63l403 721h62zM574 375q55 0 84 -22t29 -61q0 -30 -18.5 -53t-47.5 -38q42 -18 62 -39t20 -58q0 -50 -36 -79t-97 -29t-94 26.5t-33 72.5q0 39 22.5 62.5t60.5 40.5q-34 14 -51 34.5t-17 52.5q0 42 31 66
t85 24zM574 335q-27 0 -43.5 -12.5t-16.5 -36.5q0 -13 5 -22t14 -16.5t20.5 -13t23.5 -11.5q19 10 37.5 26t18.5 39q0 24 -16 35.5t-43 11.5zM563 173q-24 -12 -44.5 -28.5t-20.5 -48.5q0 -26 19 -41t53 -15q33 0 52.5 16.5t19.5 46.5q0 16 -6.5 27t-18 19t-25.5 13.5
t-29 10.5z" />
    <glyph glyph-name="fiveeighths" unicode="&#x215d;" horiz-adv-x="802" 
d="M237 670h-146l-9 -110q12 9 31 16.5t45 7.5q51 0 77.5 -30.5t26.5 -82.5q0 -63 -38 -96t-95 -33q-31 0 -62.5 9t-57.5 27l20 39q23 -12 47 -19t47 -7q34 0 57 19t23 61q0 32 -15 51t-46 19q-23 0 -38.5 -8t-26.5 -17l-2 -27h-46l17 231h193zM166 -1h-63l403 721h62z
M541 375q55 0 84 -22t29 -61q0 -30 -18.5 -53t-47.5 -38q42 -18 62 -39t20 -58q0 -50 -36 -79t-97 -29t-94 26.5t-33 72.5q0 39 22.5 62.5t60.5 40.5q-34 14 -51 34.5t-17 52.5q0 42 31 66t85 24zM541 335q-27 0 -43.5 -12.5t-16.5 -36.5q0 -13 5 -22t14 -16.5t20.5 -13
t23.5 -11.5q19 10 37.5 26t18.5 39q0 24 -16 35.5t-43 11.5zM530 173q-24 -12 -44.5 -28.5t-20.5 -48.5q0 -26 19 -41t53 -15q33 0 52.5 16.5t19.5 46.5q0 16 -6.5 27t-18 19t-25.5 13.5t-29 10.5z" />
    <glyph glyph-name="seveneighths" unicode="&#x215e;" horiz-adv-x="756" 
d="M251 684l-140 -334h-61v6l137 316h-132l-11 -71h-37v119h244v-36zM100 -1h-63l403 721h62zM495 375q55 0 84 -22t29 -61q0 -30 -18.5 -53t-47.5 -38q42 -18 62 -39t20 -58q0 -50 -36 -79t-97 -29t-94 26.5t-33 72.5q0 39 22.5 62.5t60.5 40.5q-34 14 -51 34.5t-17 52.5
q0 42 31 66t85 24zM495 335q-27 0 -43.5 -12.5t-16.5 -36.5q0 -13 5 -22t14 -16.5t20.5 -13t23.5 -11.5q19 10 37.5 26t18.5 39q0 24 -16 35.5t-43 11.5zM484 173q-24 -12 -44.5 -28.5t-20.5 -48.5q0 -26 19 -41t53 -15q33 0 52.5 16.5t19.5 46.5q0 16 -6.5 27t-18 19
t-25.5 13.5t-29 10.5z" />
    <glyph glyph-name="uni2151" unicode="&#x2151;" horiz-adv-x="780" 
d="M163 403l81 -18v-34h-225v34l83 18v239q-23 -10 -43.5 -16.5t-46.5 -8.5l-7 43q31 7 61.5 22.5t51.5 37.5h44zM166 -1h-63l403 721h62zM500 -5q-24 0 -48.5 7t-44.5 20l20 41q33 -20 67 -20q26 0 44 9.5t29 27t16.5 41.5t7.5 53q-17 -14 -41 -26.5t-52 -12.5
q-54 0 -78.5 31t-24.5 79q0 65 35 97t90 32q69 0 98.5 -45.5t29.5 -121.5q0 -105 -37 -158.5t-111 -53.5zM510 179q24 0 46 13t34 25q-2 62 -19.5 87t-51.5 25q-29 0 -48.5 -18t-19.5 -61q0 -40 16.5 -55.5t42.5 -15.5z" />
    <glyph glyph-name="uniF50D" unicode="&#xf50d;" horiz-adv-x="797" 
d="M127 725q54 0 82 -24.5t28 -66.5q0 -29 -12.5 -57t-35.5 -54l-107 -125h119l11 58h35v-106h-240v41l123 145q22 24 35 45t13 46q0 20 -12.5 34t-43.5 14q-26 0 -42.5 -13.5t-22.5 -42.5l-50 12q8 40 35.5 67t84.5 27zM176 -1h-63l403 721h62zM515 -5q-24 0 -48.5 7
t-44.5 20l20 41q33 -20 67 -20q26 0 44 9.5t29 27t16.5 41.5t7.5 53q-17 -14 -41 -26.5t-52 -12.5q-54 0 -78.5 31t-24.5 79q0 65 35 97t90 32q69 0 98.5 -45.5t29.5 -121.5q0 -105 -37 -158.5t-111 -53.5zM525 179q24 0 46 13t34 25q-2 62 -19.5 87t-51.5 25
q-29 0 -48.5 -18t-19.5 -61q0 -40 16.5 -55.5t42.5 -15.5z" />
    <glyph glyph-name="uniF50E" unicode="&#xf50e;" horiz-adv-x="835" 
d="M241 480h56v-46h-56v-84h-57v84h-177v44l154 242h80v-240zM199 -1h-63l403 721h62zM184 667l-118 -187h119v187h-1zM553 -5q-24 0 -48.5 7t-44.5 20l20 41q33 -20 67 -20q26 0 44 9.5t29 27t16.5 41.5t7.5 53q-17 -14 -41 -26.5t-52 -12.5q-54 0 -78.5 31t-24.5 79
q0 65 35 97t90 32q69 0 98.5 -45.5t29.5 -121.5q0 -105 -37 -158.5t-111 -53.5zM563 179q24 0 46 13t34 25q-2 62 -19.5 87t-51.5 25q-29 0 -48.5 -18t-19.5 -61q0 -40 16.5 -55.5t42.5 -15.5z" />
    <glyph glyph-name="uniF50F" unicode="&#xf50f;" horiz-adv-x="805" 
d="M237 670h-146l-9 -110q12 9 31 16.5t45 7.5q51 0 77.5 -30.5t26.5 -82.5q0 -63 -38 -96t-95 -33q-31 0 -62.5 9t-57.5 27l20 39q23 -12 47 -19t47 -7q34 0 57 19t23 61q0 32 -15 51t-46 19q-23 0 -38.5 -8t-26.5 -17l-2 -27h-46l17 231h193zM167 -1h-63l403 721h62z
M523 -5q-24 0 -48.5 7t-44.5 20l20 41q33 -20 67 -20q26 0 44 9.5t29 27t16.5 41.5t7.5 53q-17 -14 -41 -26.5t-52 -12.5q-54 0 -78.5 31t-24.5 79q0 65 35 97t90 32q69 0 98.5 -45.5t29.5 -121.5q0 -105 -37 -158.5t-111 -53.5zM533 179q24 0 46 13t34 25q-2 62 -19.5 87
t-51.5 25q-29 0 -48.5 -18t-19.5 -61q0 -40 16.5 -55.5t42.5 -15.5z" />
    <glyph glyph-name="uniF510" unicode="&#xf510;" horiz-adv-x="762" 
d="M251 684l-140 -334h-61v6l137 316h-132l-11 -71h-37v119h244v-36zM106 -1h-63l403 721h62zM480 -5q-24 0 -48.5 7t-44.5 20l20 41q33 -20 67 -20q26 0 44 9.5t29 27t16.5 41.5t7.5 53q-17 -14 -41 -26.5t-52 -12.5q-54 0 -78.5 31t-24.5 79q0 65 35 97t90 32
q69 0 98.5 -45.5t29.5 -121.5q0 -105 -37 -158.5t-111 -53.5zM490 179q24 0 46 13t34 25q-2 62 -19.5 87t-51.5 25q-29 0 -48.5 -18t-19.5 -61q0 -40 16.5 -55.5t42.5 -15.5z" />
    <glyph glyph-name="uniF511" unicode="&#xf511;" horiz-adv-x="801" 
d="M138 725q55 0 84 -22t29 -61q0 -30 -18.5 -53t-47.5 -38q42 -18 62 -39t20 -58q0 -50 -36 -79t-97 -29t-94 26.5t-33 72.5q0 39 22.5 62.5t60.5 40.5q-34 14 -51 34.5t-17 52.5q0 42 31 66t85 24zM171 -1h-63l403 721h62zM138 685q-27 0 -43.5 -12.5t-16.5 -36.5
q0 -13 5 -22t14 -16.5t20.5 -13t23.5 -11.5q19 10 37.5 26t18.5 39q0 24 -16 35.5t-43 11.5zM127 523q-24 -12 -44.5 -28.5t-20.5 -48.5q0 -26 19 -41t53 -15q33 0 52.5 16.5t19.5 46.5q0 16 -6.5 27t-18 19t-25.5 13.5t-29 10.5zM519 -5q-24 0 -48.5 7t-44.5 20l20 41
q33 -20 67 -20q26 0 44 9.5t29 27t16.5 41.5t7.5 53q-17 -14 -41 -26.5t-52 -12.5q-54 0 -78.5 31t-24.5 79q0 65 35 97t90 32q69 0 98.5 -45.5t29.5 -121.5q0 -105 -37 -158.5t-111 -53.5zM529 179q24 0 46 13t34 25q-2 62 -19.5 87t-51.5 25q-29 0 -48.5 -18t-19.5 -61
q0 -40 16.5 -55.5t42.5 -15.5z" />
    <glyph glyph-name="zeroinferior" unicode="&#x2080;" horiz-adv-x="363" 
d="M184 279q65 0 98 -45t33 -142q0 -101 -34 -146.5t-97 -45.5q-64 0 -98 45t-34 146q0 97 34 142.5t98 45.5zM184 228q-33 0 -52 -32.5t-19 -104.5q0 -74 19 -107t52 -33q34 0 52.5 33.5t18.5 106.5q0 72 -19 104.5t-52 32.5z" />
    <glyph glyph-name="oneinferior" unicode="&#x2081;" horiz-adv-x="301" 
d="M189 -43l81 -18v-34h-225v34l83 18v239q-23 -10 -43.5 -16.5t-46.5 -8.5l-7 43q31 7 61.5 22.5t51.5 37.5h44z" />
    <glyph glyph-name="twoinferior" unicode="&#x2082;" horiz-adv-x="318" 
d="M153 279q54 0 82 -24.5t28 -66.5q0 -29 -12.5 -57t-35.5 -54l-107 -125h119l11 58h35v-106h-240v41l123 145q22 24 35 45t13 46q0 20 -12.5 34t-43.5 14q-26 0 -42.5 -13.5t-22.5 -42.5l-50 12q8 40 35.5 67t84.5 27z" />
    <glyph glyph-name="threeinferior" unicode="&#x2083;" horiz-adv-x="322" 
d="M150 279q54 0 82 -24t28 -67q0 -32 -18.5 -55t-53.5 -33q52 -5 72 -32t20 -62q0 -52 -35.5 -79t-92.5 -27q-77 0 -127 46l26 38q23 -17 45 -26t52 -9q33 0 52.5 13.5t19.5 45.5q0 31 -19.5 47.5t-64.5 16.5l-28 -1v44q44 1 69 17.5t25 48.5q0 19 -12.5 33.5t-42.5 14.5
q-25 0 -41.5 -13t-21.5 -41l-49 11q7 40 34 66.5t81 26.5z" />
    <glyph glyph-name="fourinferior" unicode="&#x2084;" horiz-adv-x="343" 
d="M266 34h56v-46h-56v-84h-57v84h-177v44l154 242h80v-240zM209 221l-118 -187h119v187h-1z" />
    <glyph glyph-name="fiveinferior" unicode="&#x2085;" horiz-adv-x="332" 
d="M268 224h-146l-9 -110q12 9 31 16.5t45 7.5q51 0 77.5 -30.5t26.5 -82.5q0 -63 -38 -96t-95 -33q-31 0 -62.5 9t-57.5 27l20 39q23 -12 47 -19t47 -7q34 0 57 19t23 61q0 32 -15 51t-46 19q-23 0 -38.5 -8t-26.5 -17l-2 -27h-46l17 231h193z" />
    <glyph glyph-name="sixinferior" unicode="&#x2086;" horiz-adv-x="341" 
d="M198 279q24 0 48.5 -7t44.5 -20l-20 -41q-33 20 -67 20q-26 0 -44 -9.5t-29 -27t-16.5 -41.5t-7.5 -53q17 14 41 26.5t52 12.5q54 0 78.5 -31t24.5 -79q0 -65 -35 -97t-90 -32q-69 0 -98.5 45.5t-29.5 121.5q0 105 37 158.5t111 53.5zM188 95q-24 0 -46 -13t-34 -25
q2 -62 19.5 -87t51.5 -25q29 0 48.5 18t19.5 61q0 40 -16.5 55.5t-42.5 15.5z" />
    <glyph glyph-name="seveninferior" unicode="&#x2087;" horiz-adv-x="297" 
d="M268 238l-140 -334h-61v6l137 316h-132l-11 -71h-37v119h244v-36z" />
    <glyph glyph-name="eightinferior" unicode="&#x2088;" horiz-adv-x="339" 
d="M173 279q55 0 84 -22t29 -61q0 -30 -18.5 -53t-47.5 -38q42 -18 62 -39t20 -58q0 -50 -36 -79t-97 -29t-94 26.5t-33 72.5q0 39 22.5 62.5t60.5 40.5q-34 14 -51 34.5t-17 52.5q0 42 31 66t85 24zM173 239q-27 0 -43.5 -12.5t-16.5 -36.5q0 -13 5 -22t14 -16.5t20.5 -13
t23.5 -11.5q19 10 37.5 26t18.5 39q0 24 -16 35.5t-43 11.5zM162 77q-24 -12 -44.5 -28.5t-20.5 -48.5q0 -26 19 -41t53 -15q33 0 52.5 16.5t19.5 46.5q0 16 -6.5 27t-18 19t-25.5 13.5t-29 10.5z" />
    <glyph glyph-name="nineinferior" unicode="&#x2089;" horiz-adv-x="341" 
d="M137 -101q-24 0 -48.5 7t-44.5 20l20 41q33 -20 67 -20q26 0 44 9.5t29 27t16.5 41.5t7.5 53q-17 -14 -41 -26.5t-52 -12.5q-54 0 -78.5 31t-24.5 79q0 65 35 97t90 32q69 0 98.5 -45.5t29.5 -121.5q0 -105 -37 -158.5t-111 -53.5zM147 83q24 0 46 13t34 25
q-2 62 -19.5 87t-51.5 25q-29 0 -48.5 -18t-19.5 -61q0 -40 16.5 -55.5t42.5 -15.5z" />
    <glyph glyph-name="zerosuperior" unicode="&#x2070;" horiz-adv-x="363" 
d="M184 775q65 0 98 -45t33 -142q0 -101 -34 -146.5t-97 -45.5q-64 0 -98 45t-34 146q0 97 34 142.5t98 45.5zM184 724q-33 0 -52 -32.5t-19 -104.5q0 -74 19 -107t52 -33q34 0 52.5 33.5t18.5 106.5q0 72 -19 104.5t-52 32.5z" />
    <glyph glyph-name="onesuperior" unicode="&#xb9;" horiz-adv-x="301" 
d="M191 453l81 -18v-34h-225v34l83 18v239q-23 -10 -43.5 -16.5t-46.5 -8.5l-7 43q31 7 61.5 22.5t51.5 37.5h44z" />
    <glyph glyph-name="twosuperior" unicode="&#xb2;" horiz-adv-x="318" 
d="M153 775q54 0 82 -24.5t28 -66.5q0 -29 -12.5 -57t-35.5 -54l-107 -125h119l11 58h35v-106h-240v41l123 145q22 24 35 45t13 46q0 20 -12.5 34t-43.5 14q-26 0 -42.5 -13.5t-22.5 -42.5l-50 12q8 40 35.5 67t84.5 27z" />
    <glyph glyph-name="threesuperior" unicode="&#xb3;" horiz-adv-x="322" 
d="M150 775q54 0 82 -24t28 -67q0 -32 -18.5 -55t-53.5 -33q52 -5 72 -32t20 -62q0 -52 -35.5 -79t-92.5 -27q-77 0 -127 46l26 38q23 -17 45 -26t52 -9q33 0 52.5 13.5t19.5 45.5q0 31 -19.5 47.5t-64.5 16.5l-28 -1v44q44 1 69 17.5t25 48.5q0 19 -12.5 33.5t-42.5 14.5
q-25 0 -41.5 -13t-21.5 -41l-49 11q7 40 34 66.5t81 26.5z" />
    <glyph glyph-name="foursuperior" unicode="&#x2074;" horiz-adv-x="343" 
d="M266 530h56v-46h-56v-84h-57v84h-177v44l154 242h80v-240zM209 717l-118 -187h119v187h-1z" />
    <glyph glyph-name="fivesuperior" unicode="&#x2075;" horiz-adv-x="332" 
d="M266 720h-146l-9 -110q12 9 31 16.5t45 7.5q51 0 77.5 -30.5t26.5 -82.5q0 -63 -38 -96t-95 -33q-31 0 -62.5 9t-57.5 27l20 39q23 -12 47 -19t47 -7q34 0 57 19t23 61q0 32 -15 51t-46 19q-23 0 -38.5 -8t-26.5 -17l-2 -27h-46l17 231h193z" />
    <glyph glyph-name="sixsuperior" unicode="&#x2076;" horiz-adv-x="341" 
d="M198 775q24 0 48.5 -7t44.5 -20l-20 -41q-33 20 -67 20q-26 0 -44 -9.5t-29 -27t-16.5 -41.5t-7.5 -53q17 14 41 26.5t52 12.5q54 0 78.5 -31t24.5 -79q0 -65 -35 -97t-90 -32q-69 0 -98.5 45.5t-29.5 121.5q0 105 37 158.5t111 53.5zM188 591q-24 0 -46 -13t-34 -25
q2 -62 19.5 -87t51.5 -25q29 0 48.5 18t19.5 61q0 40 -16.5 55.5t-42.5 15.5z" />
    <glyph glyph-name="sevensuperior" unicode="&#x2077;" horiz-adv-x="297" 
d="M268 734l-140 -334h-61v6l137 316h-132l-11 -71h-37v119h244v-36z" />
    <glyph glyph-name="eightsuperior" unicode="&#x2078;" horiz-adv-x="339" 
d="M173 775q55 0 84 -22t29 -61q0 -30 -18.5 -53t-47.5 -38q42 -18 62 -39t20 -58q0 -50 -36 -79t-97 -29t-94 26.5t-33 72.5q0 39 22.5 62.5t60.5 40.5q-34 14 -51 34.5t-17 52.5q0 42 31 66t85 24zM173 735q-27 0 -43.5 -12.5t-16.5 -36.5q0 -13 5 -22t14 -16.5t20.5 -13
t23.5 -11.5q19 10 37.5 26t18.5 39q0 24 -16 35.5t-43 11.5zM162 573q-24 -12 -44.5 -28.5t-20.5 -48.5q0 -26 19 -41t53 -15q33 0 52.5 16.5t19.5 46.5q0 16 -6.5 27t-18 19t-25.5 13.5t-29 10.5z" />
    <glyph glyph-name="ninesuperior" unicode="&#x2079;" horiz-adv-x="341" 
d="M137 395q-24 0 -48.5 7t-44.5 20l20 41q33 -20 67 -20q26 0 44 9.5t29 27t16.5 41.5t7.5 53q-17 -14 -41 -26.5t-52 -12.5q-54 0 -78.5 31t-24.5 79q0 65 35 97t90 32q69 0 98.5 -45.5t29.5 -121.5q0 -105 -37 -158.5t-111 -53.5zM147 579q24 0 46 13t34 25
q-2 62 -19.5 87t-51.5 25q-29 0 -48.5 -18t-19.5 -61q0 -40 16.5 -55.5t42.5 -15.5z" />
    <glyph glyph-name="asterisk" unicode="*" horiz-adv-x="414" 
d="M233 608l111 26l13 -35l-105 -40l66 -103l-29 -22l-82 95l-83 -95l-30 23l68 102l-104 39l12 36l109 -26l10 112h36z" />
    <glyph glyph-name="backslash" unicode="\" horiz-adv-x="355" 
d="M100 739l223 -831h-65l-225 831h67z" />
    <glyph glyph-name="bullet" unicode="&#x2022;" horiz-adv-x="487" 
d="M246 424q46 0 78.5 -30.5t32.5 -81.5q0 -50 -32 -81.5t-80 -31.5q-24 0 -44.5 8.5t-35 24t-23 36t-8.5 44.5t8.5 44.5t23.5 35.5t35.5 23.5t44.5 8.5z" />
    <glyph glyph-name="colon" unicode=":" horiz-adv-x="234" 
d="M117 504q24 0 39 -13.5t15 -38.5t-15 -39.5t-39 -14.5t-39 14.5t-15 38.5q0 26 15.5 39.5t38.5 13.5zM117 104q24 0 39 -13.5t15 -38.5t-15 -39.5t-39 -14.5t-39 14.5t-15 38.5q0 26 15.5 39.5t38.5 13.5z" />
    <glyph glyph-name="comma" unicode="," horiz-adv-x="234" 
d="M115 94q17 0 29 -6.5t20 -16.5t11.5 -23t3.5 -26q0 -48 -22.5 -87.5t-80.5 -66.5l-17 30q38 22 54.5 45t18.5 58q-12 -8 -25 -9t-24.5 4.5t-19 17t-7.5 27.5q0 23 16.5 38t42.5 15z" />
    <glyph glyph-name="ellipsis" unicode="&#x2026;" horiz-adv-x="716" 
d="M599 104q24 0 39 -13.5t15 -38.5t-15 -39.5t-39 -14.5t-39 14.5t-15 38.5q0 26 15.5 39.5t38.5 13.5zM357 104q24 0 39 -13.5t15 -38.5t-15 -39.5t-39 -14.5t-39 14.5t-15 38.5q0 26 15.5 39.5t38.5 13.5zM117 104q24 0 39 -13.5t15 -38.5t-15 -39.5t-39 -14.5t-39 14.5
t-15 38.5q0 26 15.5 39.5t38.5 13.5z" />
    <glyph glyph-name="exclam" unicode="!" horiz-adv-x="307" 
d="M194 479l-10 -281h-60l-9 281v241h79v-241zM154 100q22 0 36.5 -13.5t14.5 -37.5q0 -23 -14.5 -37t-36.5 -14q-23 0 -38 14t-15 37q0 24 15 37.5t38 13.5z" />
    <glyph glyph-name="exclamdown" unicode="&#xa1;" horiz-adv-x="307" 
d="M155 424q-23 0 -38 13.5t-15 37.5q0 23 15 37t38 14q22 0 36.5 -14t14.5 -37q0 -24 -14.5 -37.5t-36.5 -13.5zM116 -196v241l9 281h60l10 -281v-241h-79z" />
    <glyph glyph-name="numbersign" unicode="#" 
d="M500 628l-60 -186h97v-53h-115l-45 -142h110v-52h-126l-62 -182l-48 12l56 170h-146l-60 -182l-49 12l56 170h-81v52h98l45 142h-92v53h109l64 194l49 -11l-59 -183h145l64 196zM222 389l-43 -142h143l46 142h-146z" />
    <glyph glyph-name="period" unicode="." horiz-adv-x="234" 
d="M117 104q24 0 39 -13.5t15 -38.5t-15 -39.5t-39 -14.5t-39 14.5t-15 38.5q0 26 15.5 39.5t38.5 13.5z" />
    <glyph glyph-name="periodcentered" unicode="&#xb7;" horiz-adv-x="234" 
d="M117 399q24 0 39 -13.5t15 -38.5t-15 -39.5t-39 -14.5t-39 14.5t-15 38.5q0 26 15.5 39.5t38.5 13.5z" />
    <glyph glyph-name="question" unicode="?" horiz-adv-x="499" 
d="M258 732q40 0 74.5 -11t59.5 -33t39 -54.5t14 -75.5q0 -39 -12 -69.5t-30.5 -56t-40 -48.5t-40 -47.5t-30.5 -52t-12 -61.5v-25h-70v26q0 41 11.5 72t29 56.5t38 48t38 44.5t29 46.5t11.5 55.5q0 58 -29.5 88.5t-87.5 30.5t-91.5 -38t-33.5 -110h-70q0 106 51.5 160
t151.5 54zM244 89q23 0 37.5 -13.5t14.5 -36.5t-14.5 -37t-37.5 -14t-37.5 13.5t-14.5 36.5q0 24 14.5 37.5t37.5 13.5z" />
    <glyph glyph-name="questiondown" unicode="&#xbf;" horiz-adv-x="499" 
d="M260 436q-23 0 -37.5 13.5t-14.5 36.5t14.5 37t37.5 14t37.5 -13.5t14.5 -36.5q0 -24 -14.5 -37.5t-37.5 -13.5zM246 -207q-40 0 -74.5 11t-59.5 33t-39 54.5t-14 75.5q0 39 12 69.5t30.5 56t40 48.5t40 47.5t30.5 51.5t12 62v25h70v-26q0 -41 -11.5 -72t-29 -56.5
t-38 -48t-38 -44.5t-29 -46.5t-11.5 -55.5q0 -58 29.5 -88.5t87.5 -30.5t91.5 38t33.5 110h70q0 -106 -51.5 -160t-151.5 -54z" />
    <glyph glyph-name="quotedbl" unicode="&#x22;" horiz-adv-x="351" 
d="M146 455h-58v277h58v-277zM263 455h-58v277h58v-277z" />
    <glyph glyph-name="quotesingle" unicode="'" horiz-adv-x="234" 
d="M146 455h-58v277h58v-277z" />
    <glyph glyph-name="semicolon" unicode=";" horiz-adv-x="234" 
d="M121 504q24 0 39 -13.5t15 -38.5t-15 -39.5t-39 -14.5t-39 14.5t-15 38.5q0 26 15.5 39.5t38.5 13.5zM115 94q17 0 29 -6.5t20 -16.5t11.5 -23t3.5 -26q0 -48 -22.5 -87.5t-80.5 -66.5l-17 30q38 22 54.5 45t18.5 58q-12 -8 -25 -9t-24.5 4.5t-19 17t-7.5 27.5
q0 23 16.5 38t42.5 15z" />
    <glyph glyph-name="slash" unicode="/" horiz-adv-x="349" 
d="M93 -92h-65l223 831h67z" />
    <glyph glyph-name="underscore" unicode="_" horiz-adv-x="454" 
d="M447 -231h-440v54h440v-54z" />
    <glyph glyph-name="braceleft" unicode="{" horiz-adv-x="352" 
d="M323 663h-37q-46 0 -60 -29.5t-14 -85.5v-139q0 -24 -2.5 -43.5t-11 -35.5t-23.5 -27.5t-40 -18.5q26 -5 41.5 -16.5t23.5 -28.5t10 -38.5t2 -45.5v-108q0 -57 15.5 -86t65.5 -29h30v-57h-34q-42 0 -71 8.5t-46 26.5t-24.5 47t-7.5 71v122q0 51 -14.5 77.5t-59.5 26.5
h-27v60h25q24 0 38.5 7t23 22t11.5 38t3 55v115q0 43 6.5 75t23 53t45 31t71.5 10h37v-57z" />
    <glyph glyph-name="braceright" unicode="}" horiz-adv-x="352" 
d="M66 720q43 0 71.5 -10t45 -31t23 -53t6.5 -75v-115q0 -32 3 -55t11.5 -38t23 -22t38.5 -7h25v-60h-27q-45 0 -59.5 -26.5t-14.5 -77.5v-122q0 -42 -7.5 -71t-24.5 -47t-46 -26.5t-71 -8.5h-34v57h30q50 0 65.5 29t15.5 86v108q0 24 2 45.5t10 38.5t23.5 28.5t41.5 16.5
q-25 7 -40 18.5t-23.5 27.5t-11 35.5t-2.5 43.5v139q0 56 -14 85.5t-60 29.5h-37v57h37z" />
    <glyph glyph-name="bracketleft" unicode="[" horiz-adv-x="336" 
d="M262 661h-99v-727h99v-59h-171v845h171v-59z" />
    <glyph glyph-name="bracketright" unicode="]" horiz-adv-x="336" 
d="M245 720v-845h-171v59h99v727h-99v59h171z" />
    <glyph glyph-name="parenleft" unicode="(" horiz-adv-x="295" 
d="M248 705q-65 -97 -96 -194.5t-31 -213.5q0 -59 7.5 -109.5t23 -98t39.5 -93t58 -93.5l-44 -31q-76 81 -116.5 188.5t-40.5 235.5q0 129 39.5 237t111.5 199z" />
    <glyph glyph-name="parenright" unicode=")" horiz-adv-x="295" 
d="M96 732q72 -91 111.5 -199t39.5 -237q0 -128 -40.5 -235.5t-116.5 -188.5l-44 31q34 48 58 93.5t39.5 93t23 98t7.5 109.5q0 116 -31 213.5t-96 194.5z" />
    <glyph glyph-name="emdash" unicode="&#x2014;" horiz-adv-x="894" 
d="M887 237h-880v55h880v-55z" />
    <glyph glyph-name="endash" unicode="&#x2013;" horiz-adv-x="454" 
d="M447 237h-440v55h440v-55z" />
    <glyph glyph-name="hyphen" unicode="-" horiz-adv-x="234" 
d="M217 246h-200v63h200v-63z" />
    <glyph glyph-name="uni00AD" unicode="&#xad;" horiz-adv-x="317" 
d="M217 246h-200v63h200v-63z" />
    <glyph glyph-name="hyphen.case" horiz-adv-x="234" 
d="M217 325h-200v63h200v-63z" />
    <glyph glyph-name="guillemotleft" unicode="&#xab;" horiz-adv-x="449" 
d="M227 386l-110 -125l110 -126l-39 -32l-143 148v19l143 150zM411 386l-110 -125l110 -126l-39 -32l-143 148v19l143 150z" />
    <glyph glyph-name="guillemotright" unicode="&#xbb;" horiz-adv-x="450" 
d="M220 270v-19l-143 -148l-39 32l110 126l-110 125l39 34zM405 270v-19l-143 -148l-39 32l110 126l-110 125l39 34z" />
    <glyph glyph-name="guilsinglleft" unicode="&#x2039;" horiz-adv-x="265" 
d="M227 386l-110 -125l110 -126l-39 -32l-143 148v19l143 150z" />
    <glyph glyph-name="guilsinglright" unicode="&#x203a;" horiz-adv-x="265" 
d="M220 270v-19l-143 -148l-39 32l110 126l-110 125l39 34z" />
    <glyph glyph-name="quotedblbase" unicode="&#x201e;" horiz-adv-x="383" 
d="M263 79q33 0 46.5 -22.5t13.5 -48.5q0 -38 -18 -74t-68 -62l-17 28q29 17 44 38.5t17 53.5q-12 -10 -25 -11.5t-23.5 4t-17 16t-6.5 25.5q0 23 15 38t39 15zM114 79q33 0 46.5 -22.5t13.5 -48.5q0 -38 -18 -74t-68 -62l-17 28q29 17 44 38.5t17 53.5q-12 -10 -25 -11.5
t-23.5 4t-17 16t-6.5 25.5q0 23 15 38t39 15z" />
    <glyph glyph-name="quotedblleft" unicode="&#x201c;" horiz-adv-x="382" 
d="M120 542q-33 0 -46.5 22.5t-13.5 48.5q0 38 18 74t68 62l17 -28q-29 -17 -44 -38.5t-17 -53.5q12 10 24.5 11.5t23 -4t17.5 -16t7 -25.5q0 -23 -15 -38t-39 -15zM268 542q-33 0 -46.5 22.5t-13.5 48.5q0 38 18 74t68 62l17 -28q-29 -17 -44 -38.5t-17 -53.5
q12 10 24.5 11.5t23 -4t17.5 -16t7 -25.5q0 -23 -15 -38t-39 -15z" />
    <glyph glyph-name="quotedblright" unicode="&#x201d;" horiz-adv-x="382" 
d="M262 721q33 0 46.5 -22.5t13.5 -48.5q0 -38 -18 -74t-68 -62l-17 28q29 17 44 38.5t17 53.5q-12 -10 -25 -11.5t-23.5 4t-17 16t-6.5 25.5q0 23 15 38t39 15zM114 721q33 0 46.5 -22.5t13.5 -48.5q0 -38 -18 -74t-68 -62l-17 28q29 17 44 38.5t17 53.5q-12 -10 -25 -11.5
t-23.5 4t-17 16t-6.5 25.5q0 23 15 38t39 15z" />
    <glyph glyph-name="quoteleft" unicode="&#x2018;" horiz-adv-x="234" 
d="M120 542q-33 0 -46.5 22.5t-13.5 48.5q0 38 18 74t68 62l17 -28q-29 -17 -44 -38.5t-17 -53.5q12 10 24.5 11.5t23 -4t17.5 -16t7 -25.5q0 -23 -15 -38t-39 -15z" />
    <glyph glyph-name="quoteright" unicode="&#x2019;" horiz-adv-x="234" 
d="M114 721q33 0 46.5 -22.5t13.5 -48.5q0 -38 -18 -74t-68 -62l-17 28q29 17 44 38.5t17 53.5q-12 -10 -25 -11.5t-23.5 4t-17 16t-6.5 25.5q0 23 15 38t39 15z" />
    <glyph glyph-name="quotesinglbase" unicode="&#x201a;" horiz-adv-x="234" 
d="M114 79q33 0 46.5 -22.5t13.5 -48.5q0 -38 -18 -74t-68 -62l-17 28q29 17 44 38.5t17 53.5q-12 -10 -25 -11.5t-23.5 4t-17 16t-6.5 25.5q0 23 15 38t39 15z" />
    <glyph glyph-name="Abreve" unicode="&#x102;" horiz-adv-x="680" 
d="M657 44v-44h-229v44l74 21l-45 155h-242l-43 -155l73 -21v-44h-220v44l72 21l179 590l-63 20v45h172l198 -655zM439 284l-37 134q-17 60 -33.5 114.5t-32.5 113.5l-65 -227l-37 -135h205zM441 870q-7 -54 -32.5 -80.5t-76.5 -26.5q-50 0 -76 26.5t-32 80.5l46 9
q5 -34 19 -50t43 -16t43.5 16t19.5 50z" />
    <glyph glyph-name="uni00A0" unicode="&#xa0;" horiz-adv-x="199" 
 />
    <glyph glyph-name="Aacute" unicode="&#xc1;" horiz-adv-x="680" 
d="M657 44v-44h-229v44l74 21l-45 155h-242l-43 -155l73 -21v-44h-220v44l72 21l179 590l-63 20v45h172l198 -655zM439 284l-37 134q-17 60 -33.5 114.5t-32.5 113.5l-65 -227l-37 -135h205zM427 842l-166 -84l-21 37l155 101z" />
    <glyph glyph-name="A" unicode="A" horiz-adv-x="680" 
d="M657 44v-44h-229v44l74 21l-45 155h-242l-43 -155l73 -21v-44h-220v44l72 21l179 590l-63 20v45h172l198 -655zM439 284l-37 134q-17 60 -33.5 114.5t-32.5 113.5l-65 -227l-37 -135h205z" />
    <glyph glyph-name="florin" unicode="&#x192;" horiz-adv-x="423" 
d="M393 662h-46q-38 0 -51.5 -25t-23.5 -76l-28 -150h84v-54h-94l-65 -354q-8 -44 -17.5 -76.5t-24.5 -54t-38.5 -32.5t-60.5 -11h-49v57h38q34 0 49.5 22t25.5 71l71 378h-72v54h83l31 167q6 30 14 56t22.5 45t37 30t57.5 11h57v-58z" />
    <glyph glyph-name="florin.osf" horiz-adv-x="428" 
d="M407 662h-46q-38 0 -51.5 -25t-23.5 -76l-28 -150h84v-54h-94l-65 -354q-8 -44 -17.5 -76.5t-24.5 -54t-38.5 -32.5t-60.5 -11h-49v57h38q34 0 49.5 22t25.5 71l71 378h-72v54h83l31 167q6 30 14 56t22.5 45t37 30t57.5 11h57v-58z" />
    <glyph glyph-name="florin.tf" 
d="M474 649h-46q-38 0 -51 -25t-24 -76l-32 -148h85v-56h-95l-79 -380q-8 -41 -17.5 -71.5t-24.5 -51t-38 -31t-60 -10.5h-49v57h38q35 0 50.5 21t25.5 69l83 397h-70v56h82l33 165q6 30 14.5 56t23 45t37 30t57.5 11h57v-58z" />
    <glyph glyph-name="florin.tosf" 
d="M468 649h-46q-38 0 -51 -25t-24 -76l-32 -148h85v-56h-95l-79 -380q-8 -41 -17.5 -71.5t-24.5 -51t-38 -31t-60 -10.5h-49v57h38q35 0 50.5 21t25.5 69l83 397h-70v56h82l33 165q6 30 14.5 56t23 45t37 30t57.5 11h57v-58z" />
    <glyph glyph-name="Euro" unicode="&#x20ac;" horiz-adv-x="607" 
d="M379 732q88 0 170 -38v-140h-49l-22 102q-25 8 -49 11.5t-50 3.5q-77 0 -130.5 -56.5t-70.5 -175.5h295l-4 -50h-295q-1 -8 -1 -15.5v-15.5q0 -13 0.5 -25t1.5 -24h287l-5 -50h-275q17 -100 66 -154t119 -54q56 0 94.5 21.5t70.5 56.5l38 -44q-43 -50 -94 -73.5
t-118 -23.5q-56 0 -98.5 20.5t-73 57t-49.5 86t-28 107.5h-81l4 50h71q-1 12 -1.5 24.5t-0.5 24.5v15.5t1 15.5h-63l5 50h63q8 73 32 128t60 92t81.5 55t98.5 18z" />
    <glyph glyph-name="cent" unicode="&#xa2;" horiz-adv-x="495" 
d="M430 127q-32 -18 -66 -29t-67 -16v-97h-59v94q-90 6 -144.5 74t-54.5 202q0 66 14.5 115t41 83t63 52t80.5 22v93h59v-94q35 -3 66.5 -13.5t63.5 -29.5v-146h-53l-23 110q-20 10 -40 13.5t-49 3.5q-66 0 -106 -50.5t-40 -156.5q0 -107 40.5 -160t109.5 -53q31 0 66.5 10
t74.5 29z" />
    <glyph glyph-name="currency" unicode="&#xa4;" horiz-adv-x="578" 
d="M521 538l-88 -88q18 -23 28.5 -50.5t10.5 -57.5q0 -31 -10.5 -59t-28.5 -50l89 -87l-36 -36l-88 87q-23 -17 -50.5 -27t-57.5 -10q-32 0 -59.5 10t-50.5 27l-88 -87l-35 36l88 87q-18 22 -28 50t-10 59q0 30 10.5 57.5t27.5 50.5l-87 88l34 36l88 -88q23 17 50.5 27
t59.5 10q30 0 57.5 -10t50.5 -27l87 88zM289 470q-27 0 -50.5 -9.5t-41 -27t-27.5 -41t-10 -50.5q0 -28 10 -51.5t27 -41t41 -27.5t51 -10t50.5 10t41 28t27.5 41.5t10 50.5t-10 50.5t-27.5 41t-41 27t-50.5 9.5z" />
    <glyph glyph-name="dollar" unicode="$" horiz-adv-x="553" 
d="M488 192q0 -44 -14 -79t-39 -60t-59.5 -40.5t-74.5 -21.5v-82h-68v79q-44 2 -87.5 13.5t-86.5 33.5v149h52l23 -105q25 -11 56.5 -18t65.5 -7q30 0 58 7t49.5 22.5t34.5 40t13 60.5q0 30 -7.5 51.5t-25 39t-46 32t-71.5 31.5q-47 19 -83.5 37t-62 40.5t-39 52t-13.5 71.5
q0 44 14 77.5t38.5 57t57 37t68.5 18.5v88h67v-86q48 -2 91.5 -13.5t78.5 -29.5v-150h-51l-23 107q-25 11 -55.5 17t-64.5 6q-29 0 -55 -7t-46.5 -21.5t-32.5 -37.5t-12 -54t11 -52t32.5 -37t52.5 -29.5t71 -30.5q46 -19 80.5 -37.5t57 -41.5t34 -54t11.5 -74z" />
    <glyph glyph-name="sterling" unicode="&#xa3;" horiz-adv-x="519" 
d="M259 731q48 0 82 -13t56.5 -36t35.5 -54.5t19 -67.5l-64 -13q-14 65 -43.5 93t-87.5 28q-30 0 -51.5 -9.5t-35.5 -26t-20.5 -38t-6.5 -46.5q0 -32 15 -75t41 -94h156v-56h-136q8 -21 14.5 -49.5t6.5 -49.5q0 -50 -21 -89t-47 -71h226l18 101h50v-165h-421v46l53 22
q13 16 26 33.5t23 36.5t16.5 40t6.5 44q0 12 -2.5 25.5t-6 27t-8 26t-7.5 22.5h-100v56h78q-25 45 -39.5 90t-14.5 85q0 81 49.5 129t139.5 48z" />
    <glyph glyph-name="yen" unicode="&#xa5;" horiz-adv-x="588" 
d="M493 652l-141 -264h149v-51h-176v-75h176v-51h-176v-146l76 -20v-45h-222v45l76 20v146h-175v51h175v75h-175v51h149l-133 264l-64 20v48h208v-48l-63 -21l116 -257l121 258l-63 20v48h204v-48z" />
    <glyph glyph-name="cent.osf" horiz-adv-x="495" 
d="M430 49q-32 -18 -66 -29t-67 -16v-97h-59v94q-90 6 -144.5 74t-54.5 202q0 66 14.5 115t41 83t63 52t80.5 22v93h59v-94q35 -3 66.5 -13.5t63.5 -29.5v-146h-53l-23 110q-20 10 -40 13.5t-49 3.5q-66 0 -106 -50.5t-40 -156.5q0 -107 40.5 -160t109.5 -53q31 0 66.5 10
t74.5 29z" />
    <glyph glyph-name="dollar.osf" horiz-adv-x="553" 
d="M480 192q0 -44 -14 -79t-39 -60t-59.5 -40.5t-74.5 -21.5v-82h-68v79q-44 2 -87.5 13.5t-86.5 33.5v149h52l23 -105q25 -11 56.5 -18t65.5 -7q30 0 58 7t49.5 22.5t34.5 40t13 60.5q0 30 -7.5 51.5t-25 39t-46 32t-71.5 31.5q-47 19 -83.5 37t-62 40.5t-39 52t-13.5 71.5
q0 44 14 77.5t38.5 57t57 37t68.5 18.5v88h67v-86q48 -2 91.5 -13.5t78.5 -29.5v-150h-51l-23 107q-25 11 -55.5 17t-64.5 6q-29 0 -55 -7t-46.5 -21.5t-32.5 -37.5t-12 -54t11 -52t32.5 -37t52.5 -29.5t71 -30.5q46 -19 80.5 -37.5t57 -41.5t34 -54t11.5 -74z" />
    <glyph glyph-name="Euro.osf" horiz-adv-x="607" 
d="M379 732q88 0 170 -38v-140h-49l-22 102q-25 8 -49 11.5t-50 3.5q-77 0 -130.5 -56.5t-70.5 -175.5h295l-4 -50h-295q-1 -8 -1 -15.5v-15.5q0 -13 0.5 -25t1.5 -24h287l-5 -50h-275q17 -100 66 -154t119 -54q56 0 94.5 21.5t70.5 56.5l38 -44q-43 -50 -94 -73.5
t-118 -23.5q-56 0 -98.5 20.5t-73 57t-49.5 86t-28 107.5h-81l4 50h71q-1 12 -1.5 24.5t-0.5 24.5v15.5t1 15.5h-63l5 50h63q8 73 32 128t60 92t81.5 55t98.5 18z" />
    <glyph glyph-name="sterling.osf" horiz-adv-x="526" 
d="M258 731q48 0 82 -13t56.5 -36t35.5 -54.5t19 -67.5l-64 -13q-14 65 -43.5 93t-87.5 28q-30 0 -51.5 -9.5t-35.5 -26t-20.5 -38t-6.5 -46.5q0 -32 15 -75t41 -94h156v-56h-136q8 -21 14.5 -49.5t6.5 -49.5q0 -50 -21 -89t-47 -71h226l18 101h50v-165h-421v46l53 22
q13 16 26 33.5t23 36.5t16.5 40t6.5 44q0 12 -2.5 25.5t-6 27t-8 26t-7.5 22.5h-100v56h78q-25 45 -39.5 90t-14.5 85q0 81 49.5 129t139.5 48z" />
    <glyph glyph-name="yen.osf" horiz-adv-x="581" 
d="M471 653l-139 -265h150v-51h-176v-75h176v-51h-176v-146l76 -20v-45h-222v45l76 20v146h-175v51h175v75h-175v51h150l-132 265l-63 19v48h206v-48l-62 -19l113 -251l119 251l-62 19v48h203v-48z" />
    <glyph glyph-name="cent.tf" 
d="M467 127q-32 -18 -66 -29t-67 -16v-97h-59v94q-90 6 -144.5 74t-54.5 202q0 66 14.5 115t41 83t63 52t80.5 22v93h59v-94q35 -3 66.5 -13.5t63.5 -29.5v-146h-53l-23 110q-20 10 -40 13.5t-49 3.5q-66 0 -106 -50.5t-40 -156.5q0 -107 40.5 -160t109.5 -53q31 0 66.5 10
t74.5 29z" />
    <glyph glyph-name="dollar.tf" 
d="M501 192q0 -44 -14 -79t-39 -60t-59.5 -40.5t-74.5 -21.5v-82h-68v79q-44 2 -87.5 13.5t-86.5 33.5v149h52l23 -105q25 -11 56.5 -18t65.5 -7q30 0 58 7t49.5 22.5t34.5 40t13 60.5q0 30 -7.5 51.5t-25 39t-46 32t-71.5 31.5q-47 19 -83.5 37t-62 40.5t-39 52t-13.5 71.5
q0 44 14 77.5t38.5 57t57 37t68.5 18.5v88h67v-86q48 -2 91.5 -13.5t78.5 -29.5v-150h-51l-23 107q-25 11 -55.5 17t-64.5 6q-29 0 -55 -7t-46.5 -21.5t-32.5 -37.5t-12 -54t11 -52t32.5 -37t52.5 -29.5t71 -30.5q46 -19 80.5 -37.5t57 -41.5t34 -54t11.5 -74z" />
    <glyph glyph-name="Euro.tf" 
d="M345 732q88 0 170 -38v-140h-48l-23 102q-25 8 -48.5 11.5t-49.5 3.5q-77 0 -130.5 -56.5t-70.5 -175.5h295l-4 -50h-295q-1 -8 -1 -15.5v-15.5q0 -13 0.5 -25t1.5 -24h287l-5 -50h-275q17 -100 66 -154t119 -54q56 0 94 21.5t70 56.5l39 -44q-43 -50 -94 -73.5
t-119 -23.5q-55 0 -97.5 20.5t-73 57t-50 86t-28.5 107.5h-80l4 50h71q-1 12 -1.5 24.5t-0.5 24.5v15.5t1 15.5h-63l5 50h63q8 73 32 128t59.5 92t81.5 55t98 18z" />
    <glyph glyph-name="sterling.tf" 
d="M291 731q48 0 82 -13t56.5 -36t35.5 -54.5t19 -67.5l-64 -13q-14 65 -43.5 93t-87.5 28q-30 0 -51.5 -9.5t-35.5 -26t-20.5 -38t-6.5 -46.5q0 -32 15 -75t41 -94h156v-56h-136q8 -21 14.5 -49.5t6.5 -49.5q0 -50 -21 -89t-47 -71h226l18 101h50v-165h-421v46l53 22
q13 16 26 33.5t23 36.5t16.5 40t6.5 44q0 12 -2.5 25.5t-6 27t-8 26t-7.5 22.5h-100v56h78q-25 45 -39.5 90t-14.5 85q0 81 49.5 129t139.5 48z" />
    <glyph glyph-name="yen.tf" horiz-adv-x="566" 
d="M479 653l-139 -265h150v-51h-176v-75h176v-51h-176v-146l76 -20v-45h-222v45l76 20v146h-175v51h175v75h-175v51h150l-132 265l-63 19v48h206v-48l-62 -19l113 -251l119 251l-62 19v48h203v-48z" />
    <glyph glyph-name="cent.tosf" 
d="M453 47q-32 -18 -66 -29t-67 -16v-97h-59v94q-90 6 -144.5 74t-54.5 202q0 66 14.5 115t41 83t63 52t80.5 22v93h59v-94q35 -3 66.5 -13.5t63.5 -29.5v-146h-53l-23 110q-20 10 -40 13.5t-49 3.5q-66 0 -106 -50.5t-40 -156.5q0 -107 40.5 -160t109.5 -53q31 0 66.5 10
t74.5 29z" />
    <glyph glyph-name="dollar.tosf" 
d="M489 192q0 -44 -14 -79t-39 -60t-59.5 -40.5t-74.5 -21.5v-82h-68v79q-44 2 -87.5 13.5t-86.5 33.5v149h52l23 -105q25 -11 56.5 -18t65.5 -7q30 0 58 7t49.5 22.5t34.5 40t13 60.5q0 30 -7.5 51.5t-25 39t-46 32t-71.5 31.5q-47 19 -83.5 37t-62 40.5t-39 52t-13.5 71.5
q0 44 14 77.5t38.5 57t57 37t68.5 18.5v88h67v-86q48 -2 91.5 -13.5t78.5 -29.5v-150h-51l-23 107q-25 11 -55.5 17t-64.5 6q-29 0 -55 -7t-46.5 -21.5t-32.5 -37.5t-12 -54t11 -52t32.5 -37t52.5 -29.5t71 -30.5q46 -19 80.5 -37.5t57 -41.5t34 -54t11.5 -74z" />
    <glyph glyph-name="Euro.tosf" 
d="M337 732q88 0 170 -38v-140h-48l-23 102q-25 8 -48.5 11.5t-49.5 3.5q-77 0 -130.5 -56.5t-70.5 -175.5h295l-4 -50h-295q-1 -8 -1 -15.5v-15.5q0 -13 0.5 -25t1.5 -24h287l-5 -50h-275q17 -100 66 -154t119 -54q56 0 94 21.5t70 56.5l39 -44q-43 -50 -94 -73.5
t-119 -23.5q-55 0 -97.5 20.5t-73 57t-50 86t-28.5 107.5h-80l4 50h71q-1 12 -1.5 24.5t-0.5 24.5v15.5t1 15.5h-63l5 50h63q8 73 32 128t59.5 92t81.5 55t98 18z" />
    <glyph glyph-name="sterling.tosf" 
d="M282 731q48 0 82 -13t56.5 -36t35.5 -54.5t19 -67.5l-64 -13q-14 65 -43.5 93t-87.5 28q-30 0 -51.5 -9.5t-35.5 -26t-20.5 -38t-6.5 -46.5q0 -32 15 -75t41 -94h156v-56h-136q8 -21 14.5 -49.5t6.5 -49.5q0 -50 -21 -89t-47 -71h226l18 101h50v-165h-421v46l53 22
q13 16 26 33.5t23 36.5t16.5 40t6.5 44q0 12 -2.5 25.5t-6 27t-8 26t-7.5 22.5h-100v56h78q-25 45 -39.5 90t-14.5 85q0 81 49.5 129t139.5 48z" />
    <glyph glyph-name="yen.tosf" 
d="M478 653l-139 -265h150v-51h-176v-75h176v-51h-176v-146l76 -20v-45h-222v45l76 20v146h-175v51h175v75h-175v51h150l-132 265l-63 19v48h206v-48l-62 -19l113 -251l119 251l-62 19v48h203v-48z" />
    <glyph glyph-name="approxequal" unicode="&#x2248;" horiz-adv-x="697" 
d="M654 376q-40 -32 -80.5 -50t-86.5 -18q-34 0 -66.5 9.5t-63.5 21t-60.5 21t-58.5 9.5q-40 0 -73 -17t-68 -44l-29 47q40 32 81 50t92 18q34 0 67 -9.5t64 -20.5t59 -20.5t53 -9.5q37 0 68.5 14.5t72.5 43.5zM651 196q-40 -32 -80.5 -50t-86.5 -18q-34 0 -66.5 9.5
t-63.5 21t-60.5 21t-58.5 9.5q-40 0 -73 -17t-68 -44l-29 47q40 32 81 50t92 18q34 0 67 -9.5t64 -20.5t59 -20.5t53 -9.5q37 0 68.5 14.5t72.5 43.5z" />
    <glyph glyph-name="asciitilde" unicode="~" horiz-adv-x="729" 
d="M661 301q-40 -32 -80.5 -50t-86.5 -18q-34 0 -66.5 9.5t-63.5 21t-60.5 21t-58.5 9.5q-40 0 -73 -17t-68 -44l-29 47q40 32 81 50t92 18q34 0 67 -9.5t64 -20.5t59 -20.5t53 -9.5q37 0 68.5 14.5t72.5 43.5z" />
    <glyph glyph-name="divide" unicode="&#xf7;" horiz-adv-x="580" 
d="M289 503q18 0 30.5 -12.5t12.5 -31.5q0 -17 -12.5 -29.5t-30.5 -12.5q-17 0 -29.5 12.5t-12.5 29.5q0 18 12.5 31t29.5 13zM528 272h-475v54h475v-54zM289 185q18 0 30.5 -13t12.5 -30q0 -18 -12.5 -30.5t-30.5 -12.5q-17 0 -29.5 13t-12.5 30t12.5 30t29.5 13z" />
    <glyph glyph-name="equal" unicode="=" horiz-adv-x="580" 
d="M528 332h-475v53h475v-53zM528 183h-475v52h475v-52z" />
    <glyph glyph-name="greater" unicode="&#x3e;" horiz-adv-x="580" 
d="M540 313v-38l-479 -205l-22 55l405 169l-405 171l22 53z" />
    <glyph glyph-name="greaterequal" unicode="&#x2265;" horiz-adv-x="580" 
d="M525 377v-38l-453 -198l-22 54l382 163l-382 164l22 53zM525 108v-55h-474v55h474z" />
    <glyph glyph-name="infinity" unicode="&#x221e;" horiz-adv-x="723" 
d="M536 449q33 0 57 -11t40 -29.5t24 -43.5t8 -52q0 -35 -10 -62.5t-27 -47t-40.5 -30t-50.5 -10.5q-30 0 -54.5 10t-45.5 25.5t-39 34t-33 34.5q-36 -43 -77 -73.5t-91 -30.5q-62 0 -100 37t-38 103q0 31 10 57.5t28 46t44 30.5t59 11q27 0 49.5 -8.5t42.5 -23t38 -34.5
t35 -43q19 22 38 42t39.5 35t43.5 24t50 9zM528 400q-36 0 -64 -23.5t-67 -72.5q13 -17 29.5 -33.5t34 -29.5t36 -21t36.5 -8q20 0 34.5 8t24.5 21.5t14.5 30.5t4.5 35q0 39 -19.5 66t-63.5 27zM202 399q-23 0 -40 -8t-27.5 -21.5t-15.5 -30.5t-5 -36q0 -39 22 -65.5
t66 -26.5q32 0 65.5 24t65.5 68q-35 50 -65.5 73t-65.5 23z" />
    <glyph glyph-name="integral" unicode="&#x222b;" horiz-adv-x="345" 
d="M326 734h-50q-41 0 -56.5 -28.5t-15.5 -81.5v-667q0 -35 -5.5 -64t-20.5 -49.5t-41 -32t-67 -11.5h-54v56h47q37 0 55.5 21.5t18.5 78.5v687q0 31 7 58t22.5 47t39.5 31t58 11h62v-56z" />
    <glyph glyph-name="less" unicode="&#x3c;" horiz-adv-x="580" 
d="M541 465l-405 -171l405 -169l-22 -55l-479 205v38l479 205z" />
    <glyph glyph-name="lessequal" unicode="&#x2264;" horiz-adv-x="580" 
d="M528 522l-382 -164l382 -163l-22 -54l-453 198v38l453 198zM527 53h-474v55h474v-55z" />
    <glyph glyph-name="logicalnot" unicode="&#xac;" horiz-adv-x="580" 
d="M535 136h-55v187h-434v53h489v-240z" />
    <glyph glyph-name="minus" unicode="&#x2212;" horiz-adv-x="580" 
d="M528 272h-475v54h475v-54z" />
    <glyph glyph-name="multiply" unicode="&#xd7;" horiz-adv-x="580" 
d="M475 440l-145 -145l149 -147l-40 -42l-145 146l-149 -149l-41 42l146 145l-149 148l40 41l145 -145l149 148z" />
    <glyph glyph-name="notequal" unicode="&#x2260;" horiz-adv-x="580" 
d="M353 332l-59 -97h242v-52h-274l-96 -159h-61l97 159h-141v52h172l59 97h-231v53h263l74 121h60l-73 -121h151v-53h-183z" />
    <glyph glyph-name="partialdiff" unicode="&#x2202;" horiz-adv-x="565" 
d="M294 701q94 0 141.5 -63.5t47.5 -197.5q0 -54 -5 -108.5t-16.5 -104.5t-31 -94t-48 -76t-67 -50.5t-88.5 -18.5q-78 0 -122 50.5t-44 138.5q0 54 13.5 101.5t39.5 83.5t64 56.5t87 20.5q24 0 48 -7.5t44 -22t33.5 -36.5t18.5 -52q3 30 5 58t2 51q0 106 -30.5 158
t-99.5 52q-62 0 -125 -39l-21 50q36 25 77.5 37.5t76.5 12.5zM274 380q-36 0 -62.5 -17t-44 -45t-26 -63t-8.5 -72q0 -64 29.5 -97t74.5 -33q37 0 65.5 19t47.5 48t29 63t10 64q-2 61 -33.5 97t-81.5 36z" />
    <glyph glyph-name="percent" unicode="%" horiz-adv-x="807" 
d="M196 732q32 0 59.5 -10.5t47.5 -31t31 -50t11 -66.5q0 -36 -11.5 -65.5t-31.5 -50t-47 -32t-59 -11.5q-66 0 -108 40.5t-42 117.5q0 37 11 66.5t31 50t47.5 31.5t60.5 11zM234 -1h-63l403 721h62zM196 678q-41 0 -65.5 -28.5t-24.5 -76.5q0 -50 24.5 -77t65.5 -27
q40 0 65 28t25 76q0 49 -25 77t-65 28zM610 307q32 0 59.5 -11t47.5 -31.5t31 -50t11 -65.5t-11 -65t-31 -50t-47.5 -32t-59.5 -11q-66 0 -108 41t-42 116q0 36 11 65.5t31 50.5t47.5 32t60.5 11zM610 254q-40 0 -64.5 -29t-24.5 -76q0 -48 24.5 -76.5t64.5 -28.5t65 28.5
t25 76.5q0 46 -25 75.5t-65 29.5z" />
    <glyph glyph-name="perthousand" unicode="&#x2030;" horiz-adv-x="1044" 
d="M196 731q65 0 107 -41t42 -117q0 -36 -11.5 -64.5t-31.5 -49t-47 -32t-59 -12.5q-66 -2 -108 39.5t-42 117.5q0 37 11 66.5t31 50t47.5 31.5t60.5 11zM233 -1h-63l403 721h62zM196 678q-41 0 -65.5 -28.5t-24.5 -76.5q0 -51 24.5 -78t65.5 -27q40 0 65 28.5t25 76.5
t-25 76.5t-65 28.5zM850 307q66 0 107 -42.5t41 -115.5q0 -36 -11 -65t-30.5 -50t-46.5 -32t-59 -11q-39 0 -72 18t-50 48q-21 -33 -52.5 -49.5t-70.5 -16.5q-65 0 -105.5 41t-40.5 116q0 36 11 65.5t31 50.5t47.5 32t59.5 11q80 0 120 -68q19 31 50.5 49.5t70.5 18.5z
M610 254q-41 0 -65.5 -29t-24.5 -76q0 -48 24.5 -76.5t65.5 -28.5q40 0 64.5 28.5t24.5 76.5q0 47 -24.5 76t-64.5 29zM849 254q-41 0 -65.5 -29t-24.5 -76q0 -51 23.5 -78t66.5 -27q40 0 65 28.5t25 76.5q0 47 -24.5 76t-65.5 29z" />
    <glyph glyph-name="plus" unicode="+" horiz-adv-x="580" 
d="M319 326h209v-54h-209v-211h-58v211h-210v54h210v212h58v-212z" />
    <glyph glyph-name="plusminus" unicode="&#xb1;" horiz-adv-x="580" 
d="M319 362h209v-55h-209v-192h208v-55h-474v55h208v192h-210v55h210v210h58v-210z" />
    <glyph glyph-name="product" unicode="&#x220f;" horiz-adv-x="735" 
d="M675 674l-75 -20v-706l74 -21v-44h-225v44l74 21v707h-312v-707l74 -21v-44h-225v44l74 21v706l-74 20v46h615v-46z" />
    <glyph glyph-name="radical" unicode="&#x221a;" horiz-adv-x="687" 
d="M371 -166h-70l-135 417h-125v57h178l117 -380l277 896h68z" />
    <glyph glyph-name="summation" unicode="&#x2211;" horiz-adv-x="585" 
d="M487 554h-51l-17 101h-267l202 -347l-206 -362h305l18 101h51v-166h-478v33l222 393l-222 380v33h443v-166z" />
    <glyph glyph-name="uni2215" unicode="&#x2215;" horiz-adv-x="137" 
d="M-105 -1h-63l403 721h62z" />
    <glyph glyph-name="uni2219" unicode="&#x2219;" horiz-adv-x="288" 
d="M139 403q24 0 39 -13.5t15 -38.5t-15 -39.5t-39 -14.5t-39 14.5t-15 38.5q0 26 15.5 39.5t38.5 13.5z" />
    <glyph glyph-name="arroewup" unicode="&#x2191;" horiz-adv-x="510" 
d="M431 341l-35 -35l-112 114v-411h-55v411l-115 -113l-34 34l177 173z" />
    <glyph glyph-name="uni21B6" unicode="&#x21b6;" horiz-adv-x="760" 
d="M458 502q52 0 93.5 -16.5t70 -46t44 -71t15.5 -92.5h-53q-3 81 -46 129.5t-125 48.5q-85 0 -131 -51t-46 -139v-132l115 115l35 -35l-176 -174l-176 173l36 36l113 -114v129q0 115 62 177.5t169 62.5z" />
    <glyph glyph-name="uni21B7" unicode="&#x21b7;" horiz-adv-x="760" 
d="M301 502q107 0 169 -62.5t62 -177.5v-129l113 114l36 -36l-176 -173l-176 174l35 35l115 -115v132q0 88 -46 139t-131 51q-82 0 -125 -48.5t-46 -129.5h-53q0 51 15.5 92.5t44 71t70 46t93.5 16.5z" />
    <glyph glyph-name="uni21CA" unicode="&#x21ca;" horiz-adv-x="760" 
d="M476 133l67 68l34 -35l-179 -178l-183 178l34 33l67 -66v468h44v-510l36 -35l36 36v509h44v-468z" />
    <glyph glyph-name="uni21C7" unicode="&#x21c7;" horiz-adv-x="765" 
d="M221 189l68 -67l-35 -34l-178 179l178 183l33 -34l-66 -67h468v-44h-510l-35 -36l36 -36h509v-44h-468z" />
    <glyph glyph-name="uni21C9" unicode="&#x21c9;" horiz-adv-x="765" 
d="M81 232h509l36 36l-35 36h-510v44h468l-66 67l33 34l178 -183l-178 -179l-35 34l68 67h-468v44z" />
    <glyph glyph-name="uni21C8" unicode="&#x21c8;" horiz-adv-x="760" 
d="M432 0v509l-36 36l-36 -35v-510h-44v468l-67 -66l-34 33l183 178l179 -178l-34 -35l-67 68v-468h-44z" />
    <glyph glyph-name="arrowLeftRight" unicode="&#x2194;" horiz-adv-x="1016" 
d="M182 434l36 -34l-114 -113h805l-115 113l37 35l173 -175l-172 -176l-36 35l113 114h-805l112 -114l-35 -35l-172 178z" />
    <glyph glyph-name="arrowNE" unicode="&#x2197;" horiz-adv-x="510" 
d="M439 437v-245h-51v160l-284 -285l-36 37l283 284h-159v49h247z" />
    <glyph glyph-name="arrowNW" unicode="&#x2196;" horiz-adv-x="510" 
d="M318 388h-159l283 -284l-36 -37l-284 285v-160h-51v245h247v-49z" />
    <glyph glyph-name="arrowSE" unicode="&#x2198;" horiz-adv-x="510" 
d="M192 99h159l-283 284l36 37l284 -285v160h51v-245h-247v49z" />
    <glyph glyph-name="arrowSW" unicode="&#x2199;" horiz-adv-x="510" 
d="M71 50v245h51v-160l284 285l36 -37l-283 -284h159v-49h-247z" />
    <glyph glyph-name="arrowupdn" unicode="&#x2195;" horiz-adv-x="760" 
d="M555 545l-34 -36l-113 114v-805l113 115l35 -37l-175 -173l-176 172l35 36l114 -113v805l-114 -112l-35 35l178 172z" />
    <glyph glyph-name="arrowdown" unicode="&#x2193;" horiz-adv-x="510" 
d="M80 181l34 34l115 -113v411h55v-411l112 114l35 -35l-174 -173z" />
    <glyph glyph-name="arrowleft" unicode="&#x2190;" horiz-adv-x="523" 
d="M183 441l34 -34l-113 -115h411v-55h-411l114 -112l-35 -35l-173 174z" />
    <glyph glyph-name="arrowright" unicode="&#x2192;" horiz-adv-x="523" 
d="M340 90l-35 35l114 112h-411v55h411l-113 115l34 34l173 -177z" />
    <glyph glyph-name="arrowdown.750" unicode="&#x2965;" horiz-adv-x="760" 
d="M203 54l34 33l115 -112v654h55v-654l112 114l35 -35l-174 -173z" />
    <glyph glyph-name="arrowleft.750" unicode="&#x27f5;" horiz-adv-x="764" 
d="M182 440l35 -35l-114 -112h654v-55h-654l112 -115l-33 -34l-173 177z" />
    <glyph glyph-name="arrowright.750" unicode="&#x27f6;" horiz-adv-x="764" 
d="M580 90l-33 34l112 115h-654v55h654l-114 112l35 35l173 -174z" />
    <glyph glyph-name="arrowup.750" unicode="&#x2963;" horiz-adv-x="760" 
d="M556 468l-35 -35l-112 114v-654h-55v654l-115 -112l-34 33l177 173z" />
    <glyph glyph-name="blackcircle" unicode="&#x25cf;" horiz-adv-x="578" 
d="M290 514q39 0 73.5 -15t60 -40.5t40.5 -60.5t15 -74t-15 -74t-40.5 -60.5t-60 -40.5t-73.5 -15t-74 15t-60.5 40.5t-40.5 60.5t-15 74t15 74t40.5 60.5t60.5 40.5t74 15z" />
    <glyph glyph-name="lozenge" unicode="&#x25ca;" horiz-adv-x="573" 
d="M496 354l-185 -328h-56l-177 326l177 322h56zM146 352l137 -259l143 259l-143 254z" />
    <glyph glyph-name="whiteuppointingtriangle" unicode="&#x25b3;" horiz-adv-x="411" 
d="M321 320l-175 -111v219z" />
    <glyph glyph-name="ampersand" unicode="&#x26;" horiz-adv-x="676" 
d="M294 732q67 0 109 -40t42 -107q0 -61 -34.5 -105t-94.5 -76l150 -203q11 34 15.5 67.5t4.5 67.5v50h132v-43l-70 -19q-1 -45 -10.5 -91t-27.5 -88l60 -82l71 -20v-43h-110l-63 85q-33 -48 -85 -74.5t-108 -26.5q-47 0 -86.5 14t-69 41t-46 66.5t-16.5 90.5q0 72 40 127
t118 93q-33 40 -54 78.5t-21 83.5q0 33 10.5 61t30 49t48.5 32.5t65 11.5zM292 674q-38 0 -60 -27.5t-22 -65.5q0 -28 15.5 -61t50.5 -73q102 52 102 136q0 39 -23 65t-63 26zM253 369q-58 -26 -90.5 -68.5t-32.5 -101.5q0 -34 11.5 -62t30.5 -48t44.5 -31t54.5 -11
q53 0 90.5 27t63.5 62z" />
    <glyph glyph-name="apple" horiz-adv-x="2422" 
d="M1334 844q83 0 148 -37t99 -97q40 13 82.5 18t85.5 5q26 0 67.5 -5.5t83 -18.5t76.5 -35t47 -56q12 7 26 11t28 4q29 0 53 -10t39.5 -27t22 -40t0.5 -48q-4 -19 -8 -28.5t-12 -20.5q41 -25 62 -73.5t6 -115.5q-13 -48 -34 -80q25 -17 40.5 -40.5t22.5 -49.5t7 -53.5
t-6 -52.5q-8 -37 -29.5 -61t-50.5 -38t-62 -19.5t-64 -5.5q-32 0 -66 8q-14 -18 -48 -32t-79 -14q-22 0 -45 5.5t-43 16.5t-36 27.5t-24 38.5l-28 -12q5 -31 22.5 -54t43 -38.5t57 -23t64.5 -7.5q41 0 76.5 8.5t82.5 31.5l1 -2q-35 -19 -74.5 -30.5t-84.5 -11.5
q-35 0 -67.5 6.5t-59 21t-45.5 37.5t-26 57l-17 -8q4 -8 6.5 -17t2.5 -20q0 -23 -16.5 -43.5t-48 -35.5t-76.5 -24t-101 -9q-60 0 -108.5 15t-81.5 42q-37 -19 -77 -31t-82 -12q-45 0 -84 11t-64 32q-16 -23 -42.5 -39t-59.5 -26.5t-71 -15t-77 -4.5q-38 0 -81 10.5t-79 32
t-59.5 53.5t-21.5 76q-20 11 -35 26t-20 30q-24 -10 -53 -16t-65 -6q-42 0 -72.5 17t-48 45.5t-22 65.5t4.5 77q6 29 21.5 56.5t38.5 52t51.5 45t60.5 35.5q-17 25 -22 57.5t3 64.5q9 40 26.5 71t39 51t45 30.5t45.5 10.5q8 0 12 -1q15 15 38 25.5t48.5 17.5t51.5 10t49 3
q38 0 79 -6t76 -20q37 51 97.5 81t129.5 30q5 0 9.5 -0.5t9.5 -1.5q18 25 47 44t66.5 32t82 20t93.5 7zM1334 839q-45 0 -86.5 -6.5t-77.5 -19t-65 -31.5t-47 -44q11 -3 22 -9.5t18.5 -15.5t10 -20.5t-1.5 -25.5q-8 -31 -47 -31q-18 0 -29.5 17.5t-5.5 44.5q3 11 7.5 21.5
t10.5 20.5q-4 1 -8 1h-9q-69 0 -125 -31t-93 -82q35 -15 58.5 -39.5t30.5 -59.5q2 -7 1.5 -17t-5.5 -18l-2 2q3 7 4 16.5t-1 16.5q-7 34 -30.5 57.5t-57.5 38.5q-18 -23 -30 -53q13 -4 30.5 -11.5t32.5 -19t23.5 -27.5t4.5 -37q-2 -9 -13 -18.5t-25.5 -18t-31 -16
t-29.5 -13.5q-37 -15 -67 -35.5t-45 -51.5q-6 -12 -8.5 -26.5t-1 -28t8 -25t19.5 -17.5q3 32 15.5 56.5t30 40.5t36 24t33.5 8q35 0 48.5 -23.5t-2.5 -50.5q-17 -27 -42 -40t-56 -19q-2 -32 8 -53.5t27 -21.5q14 0 26 7t20 18q-5 8 -8.5 13.5t-1.5 13.5q3 12 19 12
q8 0 10 -7q1 -8 -3 -16q-2 -4 -4 -7.5t-5 -6.5q8 -11 17 -24t5 -33q-5 -23 -32 -39t-66 -16q-16 0 -40.5 6.5t-53.5 17t-59.5 23.5t-58.5 26q-14 -8 -32 -13t-38 -5q-13 0 -26 4t-23.5 12t-17 19.5t-6.5 26.5q0 14 8 21.5t13 7.5q10 0 26.5 -12t44.5 -27q3 8 6.5 14.5
t5.5 11.5l88 224q10 25 24 41t30 26t31.5 14t28.5 4q26 0 50 -7q3 36 17 74q-21 6 -44.5 9.5t-49.5 3.5q-35 0 -72 -6.5t-77 -22.5q9 -17 9 -39q0 -28 -8 -50t-20.5 -37.5t-28 -23.5t-31.5 -8q-23 0 -34 18.5t-5 44.5q3 16 13.5 29.5t24.5 24.5q-7 10 -9.5 23t1.5 27
q5 21 19 35q-3 1 -10 1q-21 0 -43 -10t-41.5 -30t-35.5 -50.5t-25 -70.5q-8 -29 -5 -61.5t18 -58.5q29 12 57.5 19.5t57.5 7.5q23 0 39 -13t12 -30q-3 -17 -20 -26t-54 -9q-32 0 -56 12t-39 32q-58 -30 -98 -80t-52 -101q-10 -44 -7.5 -81.5t16.5 -65.5t40.5 -43.5
t64.5 -15.5q35 0 64 6t53 16q-16 37 -3 83q7 29 27.5 45.5t39.5 16.5t24 -17.5t2 -33.5q-4 -25 -25 -50.5t-59 -43.5q10 -32 51 -53q0 10 3 19q11 49 49.5 82t87.5 39l1 -1q-46 -6 -79 -39t-44 -81q-2 -7 -2.5 -13t-1.5 -13q20 -8 43 -9.5t47 5.5v-1q-24 -8 -47 -7.5
t-43 7.5q0 -39 20.5 -69.5t53.5 -51t73 -31.5t79 -11q38 0 76 4.5t71.5 14.5t60 26t41.5 39q-17 16 -24.5 35.5t-1.5 44.5q3 17 16 34q-10 10 -26 18q-24 -19 -50 -36.5t-51.5 -30.5t-50.5 -20.5t-48 -7.5q-18 0 -34.5 4.5t-28.5 13.5t-18 23t-1 34q4 16 18.5 26t34 15.5
t42 7.5t42.5 2q28 0 60.5 -4t61.5 -15q30 22 60.5 45.5t62.5 42.5t66.5 31.5t72.5 14.5q-5 14 -9.5 29t-6.5 30q-29 -23 -62 -23q-13 0 -21 6.5t-11.5 17t-4 23t1.5 24.5l35 158h-80q-11 -54 -22.5 -112t-20.5 -101q-6 -32 -22 -56t-36.5 -40t-43.5 -24t-44 -8
q-26 0 -53.5 9.5t-48.5 34.5l2 2q16 -14 30.5 -22t37.5 -8q25 0 43.5 12t30.5 29.5t19 37t11 35.5q11 41 24.5 99.5t25.5 111.5h-45q0 5 1 8h46l17 68q13 60 53 93.5t87 33.5q12 0 29.5 -2t34.5 -8.5t31.5 -19.5t20.5 -34q14 7 42.5 16.5t56.5 9.5q15 0 25.5 -2.5t17 -9.5
t7.5 -20t-3 -34q-4 -18 -9.5 -41t-11.5 -48q60 9 94.5 43t48.5 77q-23 5 -42 23.5t-19 47.5q0 23 11.5 45t31.5 42q-22 28 -52 43.5t-59 15.5q-42 0 -64 -20.5t-22 -48.5q0 -14 6.5 -28t20.5 -22l-3 -2q-14 8 -25.5 23t-11.5 29q0 32 26 52.5t73 20.5q29 0 60 -16t53 -44
q25 23 60 41.5t77 30.5q-32 57 -95 93t-150 36zM1056 736q-7 -10 -12 -20t-8 -22q-3 -14 -2 -24.5t5 -17t10 -9.5t11 -3q35 0 43 28q9 26 -7.5 43.5t-39.5 24.5zM1749 731q-44 0 -85.5 -6t-79.5 -18q15 -29 20 -62t-3 -68q-6 -21 -19 -40t-30.5 -32.5t-38 -21.5t-40.5 -8
h-5.5t-5.5 1q-14 -45 -50 -81.5t-98 -45.5l-12 -50t-11.5 -47l-10 -40t-6.5 -28q-7 -35 -0.5 -57t35.5 -22q7 0 12.5 0.5t10.5 2t11 5t16 8.5l3 -3q-28 -19 -56.5 -26.5t-52.5 -7.5q-32 0 -48 22t-5 67q8 36 21.5 82.5t25.5 91.5h-118l-36 -160q-2 -12 1 -25t14 -13
q7 0 14 5q0 7 -0.5 13.5t-0.5 13.5q0 34 10 49.5t24 15.5q13 0 15 -10t-1 -24q-5 -24 -14 -35t-20 -25q2 -18 6 -35.5t9 -34.5q54 -1 51 -26q-2 -13 -13 -14q7 1 9 14q3 22 -46 24q5 -15 13.5 -26t19.5 -12q-16 1 -26.5 11t-16.5 27q-33 -2 -61.5 -16t-56.5 -34.5t-57 -45
t-63 -47.5q8 -4 14.5 -8t11.5 -9q12 13 28.5 23t36 16.5t41 9.5t41.5 3q28 0 53.5 -6t51.5 -16q2 7 3 14t3 14q5 24 22 43t38 32.5t41.5 21t33.5 7.5q10 0 9.5 -10t6.5 -19q14 -17 30 -24t39 -7q25 0 43.5 12t31 29.5t20 37t11.5 35.5l48 211h-25q-14 0 -24.5 -4t-18.5 -9
q6 -11 6 -20q0 -8 -5 -13t-13 -5t-12 5t-4 11q0 9 4.5 15t11.5 11q-4 4 -8.5 6t-12.5 2q-38 0 -61 -97q-5 -21 -4.5 -39.5t5 -32t12.5 -21.5t17 -8q30 0 48.5 24.5t29.5 67.5q6 26 3.5 43t-9.5 34l2 1q10 -20 12.5 -39.5t-2.5 -42.5q-11 -50 -37.5 -76t-78.5 -26
q-18 0 -31.5 10.5t-21.5 28.5t-10 40.5t4 46.5q6 25 18.5 43t28 30t31.5 17.5t30 5.5q30 0 41 -15q22 14 49 14h27l15 68q13 60 53 93.5t87 33.5q15 0 33 -2.5t39 -11.5l10 -6q10 7 20.5 11t21.5 7q-4 10 -2 26q2 17 11.5 28.5t22.5 22.5l3 -1q-11 -13 -16.5 -25.5
t-7.5 -24.5q-2 -6 -1.5 -12.5t1.5 -11.5q7 1 13.5 1.5t12.5 0.5q29 0 50.5 -14.5t33.5 -37.5q25 8 38.5 25.5t18.5 35.5q6 27 0 48q-19 -14 -30 -29q-6 -8 -11 -15q0 11 11 25t28 25q-11 33 -44.5 55.5t-74.5 36t-82 19t-68 5.5zM1581 706q-41 -14 -74.5 -33.5t-56.5 -44.5
q11 -17 17.5 -36.5t6.5 -42.5q0 -35 -11 -71q3 -1 9 -1q19 0 39 7.5t37.5 21t30.5 32t18 39.5q8 35 3 67.5t-19 61.5zM648 655q-24 0 -49.5 -3.5t-49.5 -10t-44.5 -17t-34.5 -24.5q37 -10 53 -41q38 14 77 20.5t73 6.5q53 0 95 -12q10 28 29 55q-35 14 -74 20t-75 6z
M2077 632q-14 0 -27.5 -5.5t-24.5 -13.5q7 -23 1 -53q-5 -19 -19.5 -36.5t-41.5 -26.5q17 -34 8 -71q-6 -23 -19 -38t-30.5 -24t-38.5 -13t-42 -4h-72q-11 -41 -19.5 -80.5t-18.5 -79.5q-2 -12 1.5 -25t15.5 -13q5 0 11 4t11 9q-11 30 -2 63q4 21 14.5 33t18.5 12
q7 0 9.5 -4.5t3 -10.5t-0.5 -12.5t-2 -10.5q-12 -45 -31 -71q11 -43 47 -61q6 34 24.5 46.5t38.5 12.5q14 0 24.5 -10t5.5 -25q-2 -16 -16.5 -25.5t-34.5 -9.5q-14 0 -27 3q0 -29 16.5 -47.5t43.5 -26.5q11 23 35.5 37.5t54.5 14.5q7 0 14 -1t14 -4l-1 -2q-13 5 -27 5
q-28 0 -50.5 -14.5t-32.5 -37.5q13 -3 29 -3q53 0 92 25t61 73q-11 -3 -25.5 -4.5t-25.5 -1.5q-29 0 -48 9.5t-30 24.5t-14.5 33.5t0.5 35.5q10 41 39 61.5t62 20.5q19 0 34.5 -8.5t26 -25t14 -40t-1.5 -53.5q-3 -15 -5.5 -23.5t-9.5 -19.5q51 19 81 75q-8 5 -16 8.5
t-17 7.5l3 1q9 -3 16.5 -6.5t15.5 -7.5q17 31 28 78q14 62 -1 107.5t-49 71.5q-11 -17 -23 -26.5t-23.5 -14.5t-20.5 -6.5t-13 -1.5q-14 0 -30 8.5t-16 25.5t15 29.5t35 12.5q38 0 68 -17q12 21 19 50q6 25 0 46t-20.5 37t-36 25t-47.5 9zM1447 625q-15 -17 -23.5 -36.5
t-8.5 -40.5q0 -27 12.5 -45.5t31.5 -23.5q11 36 11 70q0 22 -6 41t-17 35zM469 598q-13 -13 -18 -33q-7 -26 -1 -45q15 11 31.5 19.5t30.5 14.5l8 3q-8 17 -21.5 27t-29.5 14zM775 569q-16 -36 -20 -71l8 -3q7 -3 13 -10.5t3 -15.5q-5 -11 -18 -10q-5 1 -8.5 8.5t-2.5 15.5
v10q-5 2 -11 3t-11 1q-13 0 -24.5 -7t-21.5 -18.5t-17.5 -26t-12.5 -29.5l-70 -220q-10 -32 -39 -55q27 -13 54.5 -26t54.5 -23.5t51 -16.5t44 -6q28 0 46.5 9t29 21.5t13.5 26t0 24.5q-1 5 -5 10t-9 10q-12 -17 -33 -26.5t-49 -9.5q-15 0 -27 7t-21 19.5t-14 29t-4 35.5
q-14 4 -23 15.5t-12.5 26t-2 30t7.5 28.5q16 31 50.5 53t71.5 35q13 4 27.5 11.5t27.5 16.5t22 18.5t11 18.5q5 20 -1 35t-18.5 26t-28.5 18t-31 12zM514 552q-15 -7 -31.5 -16t-30.5 -21q10 -19 36 -18q1 -1 1 -2q-14 -2 -24 3t-18 13q-11 -11 -19.5 -23t-11.5 -27
q-5 -26 2 -43.5t27 -17.5q14 0 29 8.5t27 24t20 37t8 47.5q0 20 -8 38zM1879 549q-6 0 -12.5 -0.5t-12.5 -1.5q6 -23 26 -38t46 -15q14 0 26 3q-9 22 -27 37t-46 15zM1843 544q-20 -5 -36 -19q8 -5 11.5 -12.5t3.5 -13.5q0 -19 -22 -19q-12 0 -17.5 5.5t-5.5 12.5q0 9 6 15
q2 5 6 7.5t7 5.5q-25 13 -39.5 14t-23.5 1q-27 0 -50.5 -26.5t-32.5 -68.5l-20 -91h17q23 0 45.5 7t41 18t30.5 24.5t14 26.5q-1 6 0.5 14t8.5 8q5 0 8 -5t1 -10q-2 -7 -3.5 -14t-4.5 -14q-5 -14 -9.5 -27.5t-6.5 -27.5h67q16 0 34 3t34.5 11.5t30 22.5t19.5 35
q5 16 3.5 33.5t-7.5 33.5q-6 -1 -12.5 -1.5t-14.5 -0.5q-27 0 -51 14.5t-32 37.5zM1091 541q-28 0 -53 -26.5t-35 -68.5l-19 -91h19q21 0 43 5.5t42 16.5t36 28.5t25 40.5h2l-21 -91h119q7 23 12.5 43.5t9.5 35.5q8 31 -6.5 46t-35.5 15q-11 0 -19 -3.5t-15 -8.5l-4 -1
q2 -6 2 -11q0 -8 -2.5 -14t-11.5 -6q-5 0 -9 4.5t-1 12.5q4 10 18 16q-5 17 -18 29t-27 18q-23 8 -33 9t-18 1zM1803 522q-5 -5 -9 -10.5t-4 -13.5q0 -6 2.5 -11t7.5 -5q18 0 18 17t-15 23zM754 483q-1 -8 1 -15t7 -8q8 0 12 9q4 8 -2 13t-12 9q-3 0 -6 1v-9zM1188 480
q-6 -2 -9.5 -6t-5.5 -7q-2 -6 0 -10t6 -4q7 0 8 5t1 13v9zM2094 480q-18 0 -31.5 -11.5t-13.5 -28.5t14.5 -24.5t26.5 -7.5q8 0 29 11t40 43q-27 18 -65 18zM1628 347l-46 -212q-7 -32 -22.5 -56.5t-36 -40.5t-43 -24t-43.5 -8q-26 0 -54 9t-48 35q-4 6 -5 11t-1 9.5t-1.5 7
t-5.5 2.5q-14 0 -35 -9.5t-40.5 -27t-34 -43t-15.5 -57.5q32 -14 63.5 -31t63.5 -31q23 14 50 27t54 22.5t53.5 15.5t47.5 6q40 0 76 -11.5t56 -36.5q12 7 23 11q-5 48 14.5 84.5t54.5 68.5l2 -2q-32 -32 -49.5 -65t-12.5 -83l28 9q-10 35 1 69t45 60l3 -3
q-36 -26 -44.5 -61.5t-0.5 -61.5q36 12 77 20.5t77 8.5h21q-4 17 -1 40q1 4 1.5 8t2.5 8q-33 8 -54.5 29t-19.5 53q-19 8 -32.5 22t-21.5 33q-17 -19 -35 -26.5t-38 -7.5q-13 0 -20.5 6.5t-11.5 17t-4 23t2 24.5q8 40 16.5 79t17.5 79h-74zM803 346q-31 0 -54 -68
q-3 -11 -6 -23.5t-5 -23.5q30 7 54.5 19.5t37.5 38.5q6 10 6 21q0 14 -8.5 25t-24.5 11zM428 345q-30 0 -58 -7.5t-55 -20.5q13 -20 35.5 -33.5t54.5 -13.5q35 0 50.5 8.5t19.5 25.5q3 17 -11 29t-36 12zM1488 332q-5 -2 -9 -8t-4 -13q0 -11 8 -11q6 0 8.5 4.5t2.5 9.5
q0 10 -6 18zM2051 288q-37 0 -58 -29t-22 -66q-2 -23 6 -46.5t33 -34.5q15 -5 32 -5q13 0 27 1.5t26 5.5q5 11 8 20t5 26q7 33 4.5 57t-11.5 39.5t-22.5 23.5t-27.5 8zM1803 269q-6 0 -12.5 -12t-11.5 -32q-6 -28 0 -55q5 7 8 14q10 17 15 33t5 15q1 2 2.5 8t1.5 12.5
t-1.5 11.5t-6.5 5zM1155 244q-8 0 -15 -15t-7 -48v-8.5t1 -8.5q11 11 18 21.5t10 26.5q2 11 2.5 21.5t-9.5 10.5zM827 211q-4 0 -7 -5t-4 -8q-1 -10 6 -19l9 12q2 6 2 9q2 11 -6 11zM411 198q-2 0 -6.5 -4.5t-4.5 -16.5q0 -7 2.5 -15.5t7.5 -15.5t12 -12t16 -5
q14 0 24.5 10.5t18.5 23.5l-54 29q-10 6 -16 6zM2203 186q-36 -53 -96 -71q-24 -51 -67.5 -77.5t-99.5 -26.5q-8 0 -15.5 0.5t-14.5 1.5q-2 -4 -4 -14q-3 -24 1 -41q47 -4 73 -19t26 -40q0 -9 -8 -20q34 -8 66 -8q27 0 56.5 6t56 21t47 40t29.5 62q5 23 6.5 48.5t-3 50
t-17.5 47t-36 40.5zM1892 156q-21 0 -33 -16.5t-15 -45.5q12 -3 27 -3q16 0 27 7t16 26q2 8 -3 20t-19 12zM455 91q-14 0 -32.5 -16t-25.5 -46q-4 -21 -5 -40t4 -37q36 18 55.5 42.5t24.5 47.5q1 6 1 14t-1.5 16t-6.5 13.5t-14 5.5zM1076 -30q-42 0 -79 -15t-56 -46
q17 -20 17 -48v-9.5t-2 -10.5q-4 -16 -14 -32q2 -2 4.5 -5t5.5 -5q24 -20 61.5 -28t72.5 -8q44 0 78 14.5t66 36.5q-26 27 -38.5 61t-10.5 73q-26 10 -52 16t-53 6zM756 -35q-18 0 -38.5 -2.5t-38.5 -8.5t-31.5 -15.5t-17.5 -24.5q-5 -17 -0.5 -30t14.5 -22t25 -14t32 -5
q20 0 40.5 9t42.5 23.5t45 33t47 38.5q-29 10 -60.5 14t-59.5 4zM1879 -42q-41 0 -79 -11t-73 -26q7 -22 22.5 -38.5t35.5 -27.5t42.5 -16.5t43.5 -5.5q42 0 71.5 15t40.5 34q-30 9 -52.5 27.5t-29.5 48.5h-22zM1908 -43q7 -28 27.5 -45.5t48.5 -27.5q4 7 4 15
q0 24 -21 38.5t-59 19.5zM1529 -50q-20 0 -38 -5t-37 -13q-26 -12 -51 -28.5t-51 -33.5q29 -12 58 -20.5t61 -8.5q45 0 81 14.5t74 32.5l25 12q-16 26 -49 38t-73 12zM1197 -59q-3 -34 7.5 -65t32.5 -56q21 13 41.5 30t43.5 29l-54 27q-19 10 -36 18.5t-35 16.5zM939 -94
q-7 -11 -10 -27q-6 -21 -2.5 -38t14.5 -30q13 23 13 50q0 14 -4 24.5t-11 20.5zM1657 -109q-44 -20 -90.5 -35.5t-95.5 -15.5q-33 0 -62.5 8t-58.5 20q-22 -15 -47 -31t-53 -31q32 -27 78.5 -42.5t106.5 -15.5q55 0 97.5 8.5t72 23.5t44.5 35t15 43q0 9 -2 17t-5 16z" />
    <glyph glyph-name="asciicircum" unicode="^" horiz-adv-x="653" 
d="M572 453l-42 -36l-204 211l-205 -211l-42 38l218 227h58z" />
    <glyph glyph-name="at" unicode="@" horiz-adv-x="947" 
d="M515 648q83 0 150 -24t114.5 -68.5t73.5 -106.5t26 -137q0 -71 -18.5 -129.5t-50.5 -100.5t-76 -65.5t-96 -23.5q-49 0 -74.5 24t-22.5 67q-23 -42 -56.5 -65t-82.5 -23q-62 0 -93.5 41t-31.5 114q0 53 16.5 100.5t46.5 83.5t72 57t93 21q45 0 78.5 -10t59.5 -26
l-53 -238q-11 -53 2 -77t55 -24q39 0 72 21.5t57.5 58t38 85t13.5 101.5q0 72 -23.5 127.5t-65.5 93t-100 57t-127 19.5q-82 0 -153 -31t-124 -86.5t-83.5 -131.5t-30.5 -165q0 -83 27 -148.5t74.5 -111.5t112.5 -70t141 -24q81 0 147.5 24.5t126.5 71.5l26 -37
q-65 -54 -141 -79.5t-157 -25.5q-88 0 -163 27t-130 78.5t-86 125.5t-31 168q0 102 34.5 187t95 146t142 95t175.5 34zM504 368q-39 0 -71 -18t-55 -48.5t-35.5 -69.5t-12.5 -81q0 -51 21 -81.5t62 -30.5q24 0 45 11t37.5 29.5t28 42t17.5 49.5l42 177q-13 9 -33 14.5
t-46 5.5z" />
    <glyph glyph-name="bar" unicode="|" horiz-adv-x="481" 
d="M272 -200h-64v920h64v-920z" />
    <glyph glyph-name="brokenbar" unicode="&#xa6;" horiz-adv-x="481" 
d="M272 313h-64v407h64v-407zM272 -200h-64v407h64v-407z" />
    <glyph glyph-name="copyright" unicode="&#xa9;" horiz-adv-x="808" 
d="M404 723q74 0 135 -24.5t105 -71t68 -114t24 -152.5q0 -84 -26.5 -151t-72 -114.5t-106 -72.5t-127.5 -25q-69 0 -130 21.5t-106 66t-71 113t-26 161.5q0 82 24 149.5t68 114.5t105 73t136 26zM404 681q-65 0 -118.5 -22.5t-92 -64.5t-59.5 -101.5t-21 -132.5
q0 -83 22.5 -143t62 -99.5t92.5 -58.5t114 -19q58 0 111 22t92.5 63.5t63 101t23.5 133.5q0 76 -21 135.5t-59.5 100.5t-92 63t-117.5 22zM408 559q34 0 61.5 -7t56.5 -24v-108h-36l-19 84q-15 6 -29.5 8.5t-34.5 2.5q-51 0 -80.5 -36.5t-29.5 -114.5t30.5 -116.5
t81.5 -38.5q46 0 102 30l17 -40q-31 -18 -64 -26.5t-63 -8.5q-69 0 -111.5 49t-42.5 149t44.5 148.5t116.5 48.5z" />
    <glyph glyph-name="dagger" unicode="&#x2020;" horiz-adv-x="456" 
d="M261 525h147v-62h-147v-427h-67v427h-147v62h147v180h67v-180z" />
    <glyph glyph-name="daggerdbl" unicode="&#x2021;" horiz-adv-x="479" 
d="M272 525h150v-62h-150v-209h150v-62h-150v-189h-66v189h-147v62h147v209h-147v62h147v181h66v-181z" />
    <glyph glyph-name="degree" unicode="&#xb0;" horiz-adv-x="316" 
d="M158 768q22 0 42 -8.5t35 -23.5t24 -35t9 -42q0 -24 -8.5 -44t-23.5 -34.5t-35 -23t-43 -8.5q-47 0 -79 31t-32 79q0 22 9 42t24 35t35 23.5t43 8.5zM158 726q-29 0 -48 -18.5t-19 -47.5q0 -32 19 -51.5t48 -19.5t47.5 20t18.5 51q0 29 -18 47.5t-48 18.5z" />
    <glyph glyph-name="paragraph" unicode="&#xb6;" horiz-adv-x="554" 
d="M494 678l-73 -22v-656h-58v669h-80v-669h-59v365q-82 6 -127.5 51.5t-45.5 126.5q0 82 50 129.5t138 47.5h255v-42z" />
    <glyph glyph-name="registered" unicode="&#xae;" horiz-adv-x="436" 
d="M218 725q39 0 72 -13t56 -36t36 -56t13 -72q0 -38 -14.5 -70t-39 -55.5t-56.5 -37t-67 -13.5q-38 0 -70.5 11.5t-56 34t-37 55.5t-13.5 75q0 38 13.5 70.5t37.5 56t56.5 37t69.5 13.5zM218 693q-30 0 -56 -11t-45 -30.5t-30 -46t-11 -57.5q0 -71 40 -107.5t102 -36.5
q28 0 53.5 11t45 30.5t31.5 45.5t12 57q0 65 -39 105t-103 40zM231 643q32 0 47 -14.5t15 -38.5q0 -16 -9 -29.5t-26 -20.5l26 -52l23 -6v-15h-43l-35 67h-39v-46l22 -6v-15h-73v15l23 6v134l-23 8v13h92zM190 619v-62h31q43 0 43 32q0 17 -9.5 23.5t-30.5 6.5h-34z" />
    <glyph glyph-name="section" unicode="&#xa7;" horiz-adv-x="464" 
d="M234 733q42 0 76.5 -9.5t69.5 -29.5v-115h-40l-21 80q-43 20 -81 20q-40 0 -66.5 -19.5t-26.5 -54.5q0 -21 9.5 -35.5t25.5 -25.5t37.5 -19.5t45.5 -17.5q28 -10 54 -22t45.5 -28.5t31 -39.5t11.5 -56q0 -52 -31 -80.5t-74 -36.5q50 -21 75 -49.5t25 -70.5
q0 -30 -12.5 -55t-34.5 -43t-52 -28t-65 -10q-48 0 -88.5 10t-81.5 33v122h42l23 -87q22 -11 49.5 -16.5t49.5 -5.5q17 0 34.5 4.5t31.5 13.5t23 23.5t9 35.5q0 19 -9 32.5t-24.5 24t-35.5 18.5t-42 16q-26 9 -52 20t-46.5 27.5t-33.5 40t-13 57.5q0 19 6.5 38.5t19.5 36
t33.5 28t48.5 15.5q-57 20 -81.5 52t-24.5 74q0 28 11 52t32 42t50.5 28t66.5 10zM231 443q-45 -1 -69.5 -22.5t-24.5 -59.5q0 -18 9 -33t24.5 -26.5t36 -18t43.5 -8.5q16 1 32 5.5t28.5 14t20.5 25t8 38.5q0 20 -8.5 35.5t-23.5 26t-34.5 16.5t-41.5 7z" />
    <glyph glyph-name="trademark" unicode="&#x2122;" horiz-adv-x="644" 
d="M235 643h-23l-9 39h-48v-189l37 -10v-22h-117v22l37 10v189h-49l-8 -39h-24v77h204v-77zM584 698l-34 -11l18 -194l34 -10v-22h-107v22l33 10l-14 161h-2q-5 -15 -10.5 -30.5t-11.5 -30.5l-41 -109h-36l-41 109q-5 15 -10.5 30.5t-10.5 30.5h-2l-12 -161l33 -10v-22h-108
v22l34 10l18 194l-34 11v22h86l51 -144q4 -11 7 -20.5t7 -19.5h2q4 10 7 19.5t7 20.5l52 144h85v-22z" />
    <glyph glyph-name="ampersand.alt" horiz-adv-x="676" 
d="M298 732q72 0 111 -39t40 -115v-26h-69v22q0 47 -22 72.5t-61 25.5q-40 0 -62 -28t-22 -66q0 -30 17.5 -59.5t48.5 -71.5l187 -246q11 34 15.5 68.5t4.5 70.5v46h132v-43l-70 -19q-1 -47 -10.5 -92.5t-27.5 -86.5l60 -82l71 -20v-43h-110l-63 85q-33 -48 -85 -74.5
t-108 -26.5q-47 0 -86.5 14t-69 41t-46 66.5t-16.5 90.5q0 72 40 127t117 93l-6 7q-29 38 -48.5 74.5t-19.5 78.5q0 33 10.5 61.5t30.5 49.5t49.5 33t67.5 12zM253 369q-58 -26 -90.5 -68.5t-32.5 -101.5q0 -34 11.5 -62t30.5 -48t44.5 -31t54.5 -11q53 0 90.5 27t63.5 62z
" />
    <glyph glyph-name="acute" unicode="&#xb4;" horiz-adv-x="344" 
d="M260 717l-145 -126l-31 33l133 138z" />
    <glyph glyph-name="breve" unicode="&#x2d8;" horiz-adv-x="344" 
d="M298 751q-5 -80 -35 -117.5t-90 -37.5t-89 36.5t-37 117.5l46 8q7 -60 24 -85.5t56 -25.5q42 0 58 27.5t21 83.5z" />
    <glyph glyph-name="caron" unicode="&#x2c7;" horiz-adv-x="344" 
d="M297 741l-100 -151h-50l-100 151l35 23l90 -116l91 116z" />
    <glyph glyph-name="cedilla" unicode="&#xb8;" horiz-adv-x="344" 
d="M179 -56q14 -1 27.5 -4.5t24.5 -12t18 -21t7 -31.5q0 -43 -26 -62.5t-64 -19.5q-24 0 -45.5 6t-32.5 11l11 39q14 -5 29.5 -9t32.5 -4t31 7t14 30q0 22 -16.5 29t-48.5 7h-11l21 99h41z" />
    <glyph glyph-name="circumflex" unicode="&#x2c6;" horiz-adv-x="344" 
d="M172 698l-90 -116l-35 23l100 151h50l100 -151l-34 -23z" />
    <glyph glyph-name="dieresis" unicode="&#xa8;" horiz-adv-x="344" 
d="M85 719q22 0 34.5 -13t12.5 -33q0 -19 -13 -31.5t-34 -12.5q-22 0 -35.5 12.5t-13.5 31.5q0 20 13.5 33t35.5 13zM261 719q22 0 34.5 -13t12.5 -33q0 -19 -13 -31.5t-34 -12.5q-22 0 -35.5 12.5t-13.5 31.5q0 20 13.5 33t35.5 13z" />
    <glyph glyph-name="dotaccent" unicode="&#x2d9;" horiz-adv-x="344" 
d="M173 716q22 0 37 -13t15 -35t-14.5 -34.5t-37.5 -12.5q-22 0 -37.5 12.5t-15.5 34.5t15.5 35t37.5 13z" />
    <glyph glyph-name="grave" unicode="`" horiz-adv-x="344" 
d="M260 624l-31 -33l-145 126l43 45z" />
    <glyph glyph-name="hungarumlaut" unicode="&#x2dd;" horiz-adv-x="344" 
d="M191 719l-122 -136l-35 25l109 144zM311 708l-117 -126l-35 26l105 134z" />
    <glyph glyph-name="macron" unicode="&#xaf;" horiz-adv-x="344" 
d="M300 623h-254v55h254v-55z" />
    <glyph glyph-name="ogonek" unicode="&#x2db;" horiz-adv-x="344" 
d="M250 10v-10q-50 -26 -76.5 -63t-26.5 -69q0 -38 39 -38q14 0 26.5 4.5t26.5 12.5l19 -38q-17 -11 -40 -21t-49 -10q-41 0 -62 21.5t-21 56.5q0 23 8.5 46t24 44t36.5 38.5t46 28.5z" />
    <glyph glyph-name="ring" unicode="&#x2da;" horiz-adv-x="344" 
d="M173 765q38 0 63.5 -22.5t25.5 -64.5q0 -43 -25.5 -66t-63.5 -23q-39 0 -64 22t-25 64t25.5 66t63.5 24zM173 726q-20 0 -31.5 -13.5t-11.5 -37.5t11.5 -36t31.5 -12t31.5 13.5t11.5 36.5q0 49 -43 49z" />
    <glyph glyph-name="tilde" unicode="&#x2dc;" horiz-adv-x="344" 
d="M306 682q-10 -37 -28.5 -55t-43.5 -18q-17 0 -33.5 5.5t-31.5 11.5t-28 11.5t-23 5.5q-13 0 -20.5 -7t-18.5 -29l-39 16q12 38 31.5 56t43.5 18q16 0 31 -5.5t29 -11.5t27.5 -11.5t26.5 -5.5t22 6.5t17 27.5z" />
    <glyph glyph-name="acute.cap" horiz-adv-x="344" 
d="M266 842l-166 -84l-21 37l155 101z" />
    <glyph glyph-name="breve.cap" horiz-adv-x="344" 
d="M280 870q-7 -54 -32.5 -80.5t-76.5 -26.5q-50 0 -76 26.5t-32 80.5l46 9q5 -34 19 -50t43 -16t43.5 16t19.5 50z" />
    <glyph glyph-name="caron.cap" horiz-adv-x="344" 
d="M147 766l-88 92l30 27l84 -68l84 67l29 -26l-87 -92h-52z" />
    <glyph glyph-name="cedilla.cap" horiz-adv-x="344" 
d="M179 -56q14 -1 27.5 -4.5t24.5 -12t18 -21t7 -31.5q0 -43 -26 -62.5t-64 -19.5q-24 0 -45.5 6t-32.5 11l11 39q14 -5 29.5 -9t32.5 -4t31 7t14 30q0 22 -16.5 29t-48.5 7h-11l21 99h41z" />
    <glyph glyph-name="circumflex.cap" horiz-adv-x="344" 
d="M286 784l-29 -26l-84 67l-84 -68l-30 27l88 92h52z" />
    <glyph glyph-name="dieresis.cap" horiz-adv-x="344" 
d="M85 886q22 0 34.5 -13t12.5 -33q0 -19 -13 -31.5t-34 -12.5q-22 0 -35.5 12.5t-13.5 31.5q0 20 13.5 33t35.5 13zM261 886q22 0 34.5 -13t12.5 -33q0 -19 -13 -31.5t-34 -12.5q-22 0 -35.5 12.5t-13.5 31.5q0 20 13.5 33t35.5 13z" />
    <glyph glyph-name="dotaccent.cap" horiz-adv-x="344" 
d="M173 872q22 0 37 -13t15 -35t-14.5 -34.5t-37.5 -12.5q-22 0 -37.5 12.5t-15.5 34.5t15.5 35t37.5 13z" />
    <glyph glyph-name="grave.cap" horiz-adv-x="344" 
d="M266 795l-21 -37l-166 84l32 54z" />
    <glyph glyph-name="hungarumlaut.cap" horiz-adv-x="344" 
d="M193 889l-127 -133l-35 26l114 144zM315 877l-122 -121l-34 28l110 131z" />
    <glyph glyph-name="macron.cap" horiz-adv-x="344" 
d="M299 793h-254v55h254v-55z" />
    <glyph glyph-name="ogonek.cap" horiz-adv-x="344" 
d="M247 10v-10q-50 -26 -76.5 -63t-26.5 -69q0 -38 39 -38q14 0 26.5 4.5t26.5 12.5l19 -38q-17 -11 -40 -21t-49 -10q-41 0 -62 21.5t-21 56.5q0 23 8.5 46t24 44t36.5 38.5t46 28.5z" />
    <glyph glyph-name="ring.cap" horiz-adv-x="344" 
d="M172 953q38 0 63.5 -22.5t25.5 -64.5q0 -43 -25.5 -66t-63.5 -23q-39 0 -64 22t-25 64t25.5 66t63.5 24zM172 914q-20 0 -31.5 -13.5t-11.5 -37.5t11.5 -36t31.5 -12t31.5 13.5t11.5 36.5q0 49 -43 49z" />
    <glyph glyph-name="tilde.cap" horiz-adv-x="344" 
d="M305 855q-10 -37 -28.5 -55t-43.5 -18q-17 0 -33.5 5.5t-31.5 11.5t-28 11.5t-23 5.5q-13 0 -20.5 -7t-18.5 -29l-39 16q12 38 31.5 56t43.5 18q16 0 31 -5.5t29 -11.5t27.5 -11.5t26.5 -5.5t22 6.5t17 27.5z" />
    <glyph glyph-name="caron.alt" horiz-adv-x="344" 
d="M172 534h-50l33 186h68z" />
    <glyph glyph-name="uni0326" unicode="&#x326;" horiz-adv-x="14" 
d="M224 -72l-58 -158l-46 12l40 160z" />
    <glyph glyph-name="uni0326.cap" horiz-adv-x="14" 
d="M224 -72l-58 -158l-46 12l40 160z" />
    <glyph glyph-name="uni02BC" unicode="&#x2bc;" horiz-adv-x="206" 
d="M98 733q16 0 26.5 -6.5t17 -16.5t9.5 -22.5t3 -25.5q0 -36 -15 -68t-62 -57l-15 27q27 17 39 35.5t14 49.5q-11 -10 -23.5 -11.5t-23 3.5t-17 15.5t-6.5 25.5q0 22 14.5 36.5t38.5 14.5z" />
    <glyph glyph-name="uni02C9" unicode="&#x2c9;" horiz-adv-x="344" 
d="M299 623h-254v55h254v-55z" />
    <glyph glyph-name="raute" unicode="&#x25c6;" horiz-adv-x="578" 
d="M486 325l-198 -197l-197 198l198 197z" />
    <glyph glyph-name="revcommaaccent" horiz-adv-x="344" 
d="M118 607l58 158l46 -12l-40 -160z" />
    <glyph glyph-name="square" unicode="&#x25a0;" horiz-adv-x="584" 
d="M457 161h-330v329h330v-329z" />
    <glyph glyph-name="blackleftpointingtriangle" unicode="&#x25c0;" horiz-adv-x="586" 
d="M521 35l-459 223l459 219v-442z" />
    <glyph glyph-name="blackrightpointingtriangle" unicode="&#x25b6;" horiz-adv-x="586" 
d="M524 258l-459 -223v442z" />
    <glyph glyph-name="whiteleftpointingtriangle" unicode="&#x25c1;" horiz-adv-x="586" 
d="M518 38l-459 221v2l459 216v-439zM176 260l290 -143l1 280z" />
    <glyph glyph-name="whiterightpointingtriangle" unicode="&#x25b7;" horiz-adv-x="586" 
d="M524 261v-2l-459 -221v439zM117 117l290 143l-291 137z" />
    <glyph glyph-name="uni21D7" unicode="&#x21d7;" horiz-adv-x="760" 
d="M654 524v-250h-52v159l-460 -459l-39 39l463 461h-160v50h248z" />
    <glyph glyph-name="uni21D6" unicode="&#x21d6;" horiz-adv-x="760" 
d="M354 474h-160l463 -461l-39 -39l-460 459v-159h-52v250h248v-50z" />
    <glyph glyph-name="uni21D8" unicode="&#x21d8;" horiz-adv-x="760" 
d="M406 50h160l-463 461l39 39l460 -459v159h52v-250h-248v50z" />
    <glyph glyph-name="uni21D9" unicode="&#x21d9;" horiz-adv-x="760" 
d="M106 0v250h52v-159l460 459l39 -39l-463 -461h160v-50h-248z" />
    <glyph glyph-name="whitecircle" unicode="&#x25cb;" horiz-adv-x="585" 
d="M293 517q40 0 75 -15t61 -41.5t41.5 -61.5t15.5 -75t-15.5 -75.5t-41.5 -61.5t-61 -41.5t-75 -15.5t-75.5 15.5t-61.5 41.5t-41.5 61.5t-15.5 75.5t15.5 75t41.5 61.5t61.5 41.5t75.5 15zM293 466q-30 0 -55 -11.5t-43 -31t-28.5 -45t-10.5 -54.5t10.5 -55t28.5 -45.5
t43 -31t55 -11.5q29 0 54 12t43.5 32t29 46.5t10.5 55.5t-10.5 54.5t-29 44t-43.5 29.5t-54 11z" />
    <glyph glyph-name="square.open" unicode="&#x25a1;" horiz-adv-x="584" 
d="M457 161h-330v329h330v-329zM175 442v-233h232v233h-232z" />
    <glyph glyph-name="uni25C2" unicode="&#x25c2;" horiz-adv-x="411" 
d="M265 209l-175 111l175 108v-219z" />
    <glyph glyph-name="Oslash.alt" horiz-adv-x="734" 
d="M579 645q39 -45 61 -113.5t22 -163.5q0 -102 -22 -174t-61 -117.5t-93.5 -67t-119.5 -21.5q-48 0 -89.5 11t-76.5 35l-47 -77h-65l70 114q-42 46 -64.5 119t-22.5 178q0 94 22 162.5t61.5 113.5t94.5 67t122 22q97 0 167 -49l45 73h65zM370 56q48 0 87 18t66 55.5
t42 96.5t15 142q0 151 -57.5 223.5t-154.5 72.5q-99 0 -157 -73t-58 -223q0 -82 15 -141t43.5 -97t68.5 -56t90 -18z" />
    <glyph glyph-name="oslash.alt" horiz-adv-x="539" 
d="M414 485q37 -34 57 -89.5t20 -133.5q0 -135 -61.5 -204.5t-164.5 -69.5q-58 0 -101 22l-25 -49h-54l40 75q-38 34 -58 90t-20 135q0 136 60 206t161 70q62 0 107 -24l22 41h54zM269 52q31 0 57.5 12t46 37.5t30.5 65t11 95.5t-11 96t-30.5 65.5t-46 37.5t-57.5 12
q-63 0 -103.5 -50.5t-40.5 -160.5q0 -111 40.5 -160.5t103.5 -49.5z" />
    <glyph glyph-name="x.alt" horiz-adv-x="511" 
 />
    <glyph glyph-name="five.alt" horiz-adv-x="514" 
d="M432 626h-270l-15 -232q20 19 54 35t77 16q92 0 137 -57.5t45 -159.5q0 -62 -16.5 -107t-45.5 -74.5t-68 -44t-85 -14.5q-45 0 -95 15t-95 47l31 55q40 -25 77 -38t76 -13q31 0 58.5 9.5t47 29.5t31 52.5t11.5 77.5q0 35 -7.5 64.5t-22.5 50.5t-38 33t-54 12
q-42 0 -72 -16t-50 -37l-4 -48h-62l26 410h266l13 76h51z" />
    <glyph glyph-name="five.osf.alt" horiz-adv-x="510" 
d="M427 519h-270l-13 -202q20 20 53.5 34t76.5 14q88 0 136 -52.5t48 -154.5q0 -57 -17 -99.5t-46 -71.5t-68.5 -43.5t-85.5 -14.5q-44 0 -94 14.5t-95 46.5l30 55q77 -49 150 -49q33 0 60.5 10t47.5 30t31.5 50t11.5 71q0 66 -30.5 106.5t-92.5 40.5q-38 0 -69 -15t-51 -36
l-4 -47h-63l25 379h265l14 71h50v-137z" />
    <glyph glyph-name="five.tf.alt" 
d="M457 626h-270l-15 -232q20 19 54 35t77 16q92 0 137 -57.5t45 -159.5q0 -62 -16.5 -107t-45.5 -74.5t-68 -44t-85 -14.5q-45 0 -95 15t-95 47l31 55q40 -25 77 -38t76 -13q31 0 58.5 9.5t47 29.5t31 52.5t11.5 77.5q0 35 -7.5 64.5t-22.5 50.5t-38 33t-54 12
q-42 0 -72 -16t-50 -37l-4 -48h-62l26 410h266l13 76h51z" />
    <glyph glyph-name="five.tosf.alt" 
d="M458 519h-270l-13 -202q20 20 53.5 34t76.5 14q88 0 136 -52.5t48 -154.5q0 -57 -17 -99.5t-46 -71.5t-68.5 -43.5t-85.5 -14.5q-44 0 -94 14.5t-95 46.5l30 55q77 -49 150 -49q33 0 60.5 10t47.5 30t31.5 50t11.5 71q0 66 -30.5 106.5t-92.5 40.5q-38 0 -69 -15t-51 -36
l-4 -47h-63l25 379h265l14 71h50v-137z" />
    </font>
</defs>
</svg>
