<?xml version="1.0" standalone="no"?>
<!DOCTYPE svg PUBLIC "-//W3C//DTD SVG 1.1//EN" "http://www.w3.org/Graphics/SVG/1.1/DTD/svg11.dtd" >
<svg xmlns="http://www.w3.org/2000/svg" xmlns:xlink="http://www.w3.org/1999/xlink" version="1.1">
<metadata>
Created by FontForge 20161003 at Wed Apr 19 07:17:00 2017
 By www-data
Copyright (c) 2014 by Leftloft. All rights reserved.
</metadata>
<defs>
<font id="NRKEticaSlabSemiCndWebBd" horiz-adv-x="569" >
  <font-face 
    font-family="NRK Etica Slab SemiCnd Web Bd"
    font-weight="700"
    font-stretch="normal"
    units-per-em="1000"
    panose-1="0 0 8 0 0 0 0 0 0 0"
    ascent="800"
    descent="-200"
    x-height="529"
    cap-height="720"
    bbox="-185 -282 2275 965"
    underline-thickness="50"
    underline-position="-100"
    unicode-range="U+0020-F511"
  />
<missing-glyph horiz-adv-x="169" 
 />
    <glyph glyph-name=".notdef" horiz-adv-x="169" 
 />
    <glyph glyph-name=".null" horiz-adv-x="1" 
 />
    <glyph glyph-name="nonmarkingreturn" horiz-adv-x="1" 
 />
    <glyph glyph-name="space" unicode=" " horiz-adv-x="198" 
 />
    <glyph glyph-name="numbersign" unicode="#" horiz-adv-x="646" 
d="M568 629l-50 -158h90v-93h-120l-35 -115h101v-93h-129l-54 -164l-89 20l47 144h-108l-54 -164l-89 20l46 144h-84v93h114l35 115h-95v93h124l56 175l90 -18l-49 -157h107l57 176zM284 378l-34 -115h107l35 115h-108z" />
    <glyph glyph-name="dollar" unicode="$" horiz-adv-x="559" 
d="M516 204q0 -84 -47.5 -137.5t-126.5 -70.5v-86h-119v80q-49 3 -89 14t-80 27v180h94l23 -89q16 -8 38.5 -13t46.5 -5q46 0 77 19.5t31 63.5q0 37 -29 64.5t-102 62.5q-40 19 -73 39.5t-57 46t-37 58t-13 74.5q0 44 13.5 77.5t37 57t55.5 38.5t70 21v91h118v-89
q43 -4 81.5 -14.5t72.5 -24.5l-1 -178h-88l-23 92q-17 8 -41 13t-50 5q-44 0 -72.5 -18t-28.5 -59q0 -21 10.5 -37t28.5 -30t43 -27t54 -28q37 -19 70 -38t58 -44t40 -57.5t15 -78.5z" />
    <glyph glyph-name="percent" unicode="%" horiz-adv-x="906" 
d="M214 729q38 0 70 -11.5t55.5 -34t36.5 -56.5t13 -80q0 -45 -13.5 -80t-36.5 -59t-55.5 -36t-69.5 -12q-38 0 -70.5 11t-56 33.5t-36.5 57.5t-13 82q0 46 13 80.5t36.5 57.5t56 35t70.5 12zM314 0h-112l399 720h111zM214 633q-33 0 -51 -23.5t-18 -66.5q0 -44 18 -66
t51 -22q32 0 50.5 23t18.5 66q0 42 -18 65.5t-51 23.5zM693 358q38 0 70 -11.5t55.5 -34t36.5 -57t13 -79.5q0 -46 -13 -80.5t-36.5 -58t-55.5 -35.5t-70 -12t-70.5 11t-56 33.5t-36.5 57.5t-13 82q0 45 13 79.5t36.5 58t56 35t70.5 11.5zM693 262q-33 0 -51 -23.5
t-18 -66.5t18 -65.5t51 -22.5q32 0 50.5 23.5t18.5 65.5t-18 65.5t-51 23.5z" />
    <glyph glyph-name="ampersand" unicode="&#x26;" horiz-adv-x="716" 
d="M304 731q38 0 70.5 -9.5t56 -29t37 -48.5t13.5 -68q0 -31 -9 -56t-24 -45t-34 -36t-38 -29l103 -139q6 23 9 50t3 53v38h171v-72l-56 -24q-5 -38 -14 -74t-25 -68l59 -76l58 -25v-73h-158l-53 68q-35 -40 -83 -60t-103 -20q-57 0 -103 15t-78.5 42.5t-49.5 67.5t-17 91
q0 66 36 121t106 92q-28 33 -45.5 69t-17.5 77q0 36 12 67t35 53.5t58 35t81 12.5zM306 633q-27 0 -40 -18t-13 -42q0 -21 11.5 -43t34.5 -49q28 19 44.5 41.5t16.5 50.5q0 26 -14 43t-40 17zM254 330q-35 -18 -55 -48t-20 -67q0 -51 31 -79.5t73 -28.5q32 0 58 14t46 35z
" />
    <glyph glyph-name="quotesingle" unicode="'" horiz-adv-x="213" 
d="M154 441h-94v290h94v-290z" />
    <glyph glyph-name="parenleft" unicode="(" horiz-adv-x="337" 
d="M299 687q-29 -48 -50 -93.5t-34.5 -91.5t-20.5 -94.5t-7 -103.5q0 -53 7 -99.5t21.5 -91.5t37 -91t54.5 -97l-95 -60q-77 83 -122 194t-45 239t39.5 237t112.5 203z" />
    <glyph glyph-name="parenright" unicode=")" horiz-adv-x="336" 
d="M139 738q73 -94 112.5 -203t39.5 -237t-45 -239t-122 -194l-95 60q32 51 54.5 97t37 91t21.5 91.5t7 99.5q0 55 -7 103.5t-20.5 94.5t-35 91.5t-49.5 93.5z" />
    <glyph glyph-name="asterisk" unicode="*" horiz-adv-x="437" 
d="M263 613l110 22l22 -59l-97 -44l60 -94l-52 -42l-87 89l-86 -89l-53 42l61 93l-99 44l21 61l105 -23l16 107h63z" />
    <glyph glyph-name="plus" unicode="+" 
d="M333 346h186v-91h-186v-188h-96v188h-187v91h187v189h96v-189z" />
    <glyph glyph-name="comma" unicode="," horiz-adv-x="259" 
d="M127 148q24 0 41.5 -9t29 -23t16.5 -32.5t5 -37.5q0 -65 -33.5 -116.5t-109.5 -82.5l-30 58q42 20 59.5 44t19.5 56q-16 -5 -31 -2t-27 12t-19 23t-7 32q0 34 24.5 56t61.5 22z" />
    <glyph glyph-name="hyphen" unicode="-" horiz-adv-x="304" 
d="M270 220h-237v117h237v-117z" />
    <glyph glyph-name="period" unicode="." horiz-adv-x="252" 
d="M126 153q38 0 60.5 -21.5t22.5 -58.5q0 -36 -22.5 -58.5t-60.5 -22.5t-60.5 22.5t-22.5 58.5q0 37 23 58.5t60 21.5z" />
    <glyph glyph-name="slash" unicode="/" horiz-adv-x="386" 
d="M141 -92h-120l212 831h121z" />
    <glyph glyph-name="zero" unicode="0" horiz-adv-x="588" 
d="M298 731q116 0 177.5 -87t61.5 -277q0 -103 -16 -175t-47 -117.5t-76.5 -66t-104.5 -20.5t-104 20.5t-75.5 65.5t-46 115.5t-15.5 170.5q0 98 16 168t47.5 115t77.5 66.5t105 21.5zM295 606q-52 0 -75 -57t-23 -188q0 -135 23 -192t74 -57q25 0 43.5 13.5t30.5 43.5
t18 78t6 116q0 130 -22.5 186.5t-74.5 56.5z" />
    <glyph glyph-name="one" unicode="1" horiz-adv-x="483" 
d="M338 101l115 -26v-75h-384v75l125 26v439q-32 -17 -61 -26.5t-67 -14.5l-18 102q106 36 176 119h114v-619z" />
    <glyph glyph-name="two" unicode="2" horiz-adv-x="527" 
d="M256 730q100 0 152.5 -47.5t52.5 -132.5q0 -63 -26 -116.5t-71 -113.5l-151 -209h161l22 90h87v-201h-441v91l222 306q53 74 53 137q0 33 -15.5 56.5t-53.5 23.5q-39 0 -58 -25t-27 -72l-117 25q6 40 20 74.5t39 59.5t62 39.5t89 14.5z" />
    <glyph glyph-name="three" unicode="3" horiz-adv-x="518" 
d="M244 730q100 0 152.5 -45t52.5 -130q0 -63 -35 -109.5t-92 -64.5q78 -12 119.5 -59t41.5 -122q0 -54 -18.5 -93.5t-51 -66t-75.5 -39.5t-92 -13q-61 0 -117.5 20t-107.5 67l54 95q35 -24 75 -41.5t82 -17.5q46 0 76.5 25.5t30.5 73.5q0 45 -28.5 69.5t-88.5 24.5
q-14 0 -30.5 -1t-28.5 -3l-4 112q67 1 107 35t40 86q0 34 -15.5 57.5t-53.5 23.5q-39 0 -59 -25.5t-29 -70.5l-114 24q6 40 20 74.5t39 59.5t62 39.5t88 14.5z" />
    <glyph glyph-name="four" unicode="4" horiz-adv-x="566" 
d="M447 272h74v-101h-74v-70l74 -26v-75h-313v75l103 26v70h-277v96l231 453h182v-448zM309 592l-152 -320h154v320h-2z" />
    <glyph glyph-name="five" unicode="5" horiz-adv-x="523" 
d="M439 575h-241l-12 -160q17 14 46 25t69 11q91 0 137.5 -56.5t46.5 -156.5q0 -63 -18.5 -110t-50 -78t-74.5 -46.5t-91 -15.5q-54 0 -110.5 18t-101.5 51l43 100q81 -44 153 -44q45 0 76.5 28.5t31.5 94.5q0 51 -19 80t-61 29q-28 0 -49 -10t-37 -24l-3 -42h-115l30 437
h358z" />
    <glyph glyph-name="six" unicode="6" 
d="M307 731q44 0 87.5 -13.5t82.5 -40.5l-40 -99q-26 16 -53.5 23.5t-56.5 7.5q-36 0 -61 -14.5t-41.5 -41.5t-25 -66t-11.5 -87q25 23 62 39.5t79 16.5q86 0 132 -54.5t46 -163.5q0 -67 -17.5 -114.5t-47.5 -77.5t-71 -44t-88 -14q-62 0 -106 21.5t-72 64t-40.5 106.5
t-12.5 149q0 197 65 299.5t190 102.5zM288 347q-30 0 -55.5 -15t-39.5 -29q1 -103 22.5 -149.5t70.5 -46.5q37 0 60 28t23 96q0 63 -22.5 89.5t-58.5 26.5z" />
    <glyph glyph-name="seven" unicode="7" horiz-adv-x="516" 
d="M486 627l-216 -627h-158v15l227 590h-185l-21 -123h-92v238h445v-93z" />
    <glyph glyph-name="eight" unicode="8" horiz-adv-x="543" 
d="M274 731q97 0 151.5 -46.5t54.5 -127.5q0 -31 -8 -56.5t-21 -46t-30 -37t-35 -28.5q54 -32 86 -74.5t32 -113.5q0 -52 -17.5 -91.5t-49 -66.5t-75.5 -41t-98 -14q-109 0 -167.5 50t-58.5 144q0 37 9.5 66.5t26 53t37.5 41.5t45 31q-43 27 -70 66t-27 99q0 44 15 79.5
t43 60.5t67.5 38.5t89.5 13.5zM276 628q-33 0 -53 -19t-20 -57q0 -35 24 -58.5t64 -44.5q23 23 40.5 48t17.5 58q0 34 -19 53.5t-54 19.5zM240 314q-31 -21 -51.5 -49.5t-20.5 -73.5q0 -42 24 -67t69 -25q42 0 65.5 25t23.5 67q0 24 -9 42t-24.5 33t-35.5 26.5t-41 21.5z
" />
    <glyph glyph-name="nine" unicode="9" 
d="M262 -12q-44 0 -87.5 13.5t-82.5 40.5l40 99q26 -16 53.5 -23.5t56.5 -7.5q36 0 61 14.5t41.5 41.5t25 66t11.5 87q-25 -23 -62 -39.5t-79 -16.5q-86 0 -132 54.5t-46 163.5q0 67 17.5 114.5t47.5 77.5t71 44t88 14q124 0 177.5 -85.5t53.5 -255.5q0 -197 -65 -299.5
t-190 -102.5zM281 372q30 0 55.5 15t39.5 29q-1 103 -22.5 149.5t-70.5 46.5q-38 0 -60.5 -28t-22.5 -96q0 -63 22.5 -89.5t58.5 -26.5z" />
    <glyph glyph-name="colon" unicode=":" horiz-adv-x="252" 
d="M126 512q38 0 60.5 -21.5t22.5 -58.5q0 -36 -22.5 -58.5t-60.5 -22.5t-60.5 22.5t-22.5 58.5q0 37 23 58.5t60 21.5zM126 153q38 0 60.5 -21.5t22.5 -58.5q0 -36 -22.5 -58.5t-60.5 -22.5t-60.5 22.5t-22.5 58.5q0 37 23 58.5t60 21.5z" />
    <glyph glyph-name="semicolon" unicode=";" horiz-adv-x="259" 
d="M128 512q38 0 60.5 -21.5t22.5 -58.5q0 -36 -22.5 -58.5t-60.5 -22.5t-60.5 22.5t-22.5 58.5q0 37 23 58.5t60 21.5zM127 148q24 0 41.5 -9t29 -23t16.5 -32.5t5 -37.5q0 -65 -33.5 -116.5t-109.5 -82.5l-30 58q42 20 59.5 44t19.5 56q-16 -5 -31 -2t-27 12t-19 23t-7 32
q0 34 24.5 56t61.5 22z" />
    <glyph glyph-name="less" unicode="&#x3c;" 
d="M532 435l-323 -138l324 -136l-40 -95l-455 195v72l455 197z" />
    <glyph glyph-name="equal" unicode="=" 
d="M517 318h-466v92h466v-92zM517 151h-466v92h466v-92z" />
    <glyph glyph-name="greater" unicode="&#x3e;" 
d="M530 333v-72l-455 -195l-40 95l324 136l-323 138l39 95z" />
    <glyph glyph-name="question" unicode="?" horiz-adv-x="522" 
d="M275 732q43 0 81 -11t65.5 -33.5t43.5 -57t16 -82.5q0 -40 -11 -70.5t-27 -55.5t-35 -46t-35 -42t-27 -44.5t-11 -52.5v-22h-143v33q0 54 21.5 92t47.5 68.5t47.5 58.5t21.5 62q0 36 -19 55.5t-54 19.5q-37 0 -59.5 -23.5t-22.5 -76.5h-136q0 61 17 104.5t47.5 71t74 40
t97.5 12.5zM263 147q37 0 59.5 -21.5t22.5 -57.5q0 -35 -22 -57.5t-60 -22.5t-60.5 22.5t-22.5 57.5q0 36 22.5 57.5t60.5 21.5z" />
    <glyph glyph-name="at" unicode="@" horiz-adv-x="929" 
d="M508 647q80 0 146 -24.5t112.5 -68t72 -104t25.5 -133.5q0 -76 -21 -135.5t-56 -101t-80.5 -63t-94.5 -21.5q-41 0 -66 20.5t-30 55.5q-23 -36 -54 -55t-73 -19q-57 0 -89.5 41t-32.5 118q0 57 17.5 106.5t48.5 86t73.5 57t93.5 20.5q47 0 81.5 -11t65.5 -29l-52 -234
q-9 -42 -2.5 -62t38.5 -20q31 0 59 20t48.5 53t32.5 75.5t12 87.5q0 66 -21.5 116t-59 83.5t-88.5 50t-110 16.5q-75 0 -139.5 -28t-112.5 -79t-75 -121t-27 -154q0 -74 21.5 -134t63 -103.5t100.5 -67t134 -23.5q74 0 141 22t125 70l41 -58q-69 -58 -147 -82.5t-157 -24.5
q-95 0 -169.5 28.5t-127 81t-80 126.5t-27.5 166q0 100 33.5 184t92.5 144t139.5 93.5t174.5 33.5zM496 357q-33 0 -60 -17.5t-46 -45t-29.5 -62.5t-10.5 -71q0 -43 16.5 -67.5t48.5 -24.5q35 0 61.5 30t37.5 73l39 172q-21 13 -57 13z" />
    <glyph glyph-name="A" unicode="A" horiz-adv-x="687" 
d="M669 74v-74h-283v74l61 26l-24 96h-188l-23 -96l61 -26v-74h-252v74l58 26l151 519l-50 25v76h249l181 -620zM395 310l-30 121q-11 42 -20 80.5t-18 80.5q-9 -41 -18.5 -81.5t-19.5 -78.5l-28 -122h134z" />
    <glyph glyph-name="B" unicode="B" horiz-adv-x="647" 
d="M357 720q52 0 93.5 -11t71 -34t45.5 -57.5t16 -80.5q0 -29 -7 -55.5t-21 -47.5t-36 -35.5t-52 -20.5v-2q39 -6 66 -22t44.5 -38.5t25 -50.5t7.5 -58q0 -59 -18.5 -99t-52.5 -64t-82.5 -34t-107.5 -10h-306v74l61 26v519l-61 26v75h314zM257 604v-177h74q21 0 39.5 4
t32.5 14.5t22 28.5t8 46q0 48 -25.5 66t-70.5 18h-80zM257 314v-198h96q50 0 74.5 28t24.5 76q0 51 -28.5 72.5t-74.5 21.5h-92z" />
    <glyph glyph-name="C" unicode="C" horiz-adv-x="636" 
d="M350 732q65 0 119.5 -13.5t112.5 -43.5v-196h-99l-26 109q-45 19 -91 19q-71 0 -112.5 -60.5t-41.5 -184.5q0 -120 39.5 -177.5t108.5 -57.5q51 0 94 18t79 47l61 -101q-52 -51 -117 -77t-137 -26q-73 0 -127.5 25.5t-90.5 73.5t-53.5 117t-17.5 156q0 183 79 277.5
t220 94.5z" />
    <glyph glyph-name="D" unicode="D" horiz-adv-x="694" 
d="M323 720q160 0 240 -95t80 -267q0 -110 -29.5 -180t-79 -109.5t-113.5 -54t-133 -14.5h-245v74l61 26v519l-61 26v75h280zM257 117h51q37 0 69 12t55 40t36 74.5t13 115.5q0 56 -9.5 101.5t-29 77t-50 48.5t-72.5 17h-63v-486z" />
    <glyph glyph-name="E" unicode="E" horiz-adv-x="588" 
d="M539 520h-89l-19 83h-173v-181h164v-117h-164v-188h180l20 85h89v-202h-504v74l61 26v519l-61 26v75h496v-200z" />
    <glyph glyph-name="F" unicode="F" horiz-adv-x="561" 
d="M528 515h-88l-20 88h-162v-194h168v-116h-168v-190l85 -27v-76h-300v74l61 26v519l-61 26v75h485v-205z" />
    <glyph glyph-name="G" unicode="G" horiz-adv-x="683" 
d="M366 733q66 0 122 -14.5t111 -43.5v-197h-103l-29 111q-47 18 -90 18q-36 0 -66.5 -13.5t-52.5 -43t-34 -76t-12 -111.5q0 -119 39 -184.5t123 -65.5q25 0 51 4.5t50 14.5v130l-92 24v75h271v-74l-42 -25v-209q-55 -32 -118.5 -48.5t-139.5 -16.5q-77 0 -134 25.5
t-94.5 73.5t-56 117t-18.5 156q0 88 19.5 157.5t59 117.5t98.5 73t138 25z" />
    <glyph glyph-name="H" unicode="H" horiz-adv-x="728" 
d="M686 645l-61 -26v-519l61 -26v-74h-276v74l61 26v213h-213v-213l61 -26v-74h-276v74l61 26v519l-61 26v75h276v-75l-61 -26v-190h213v190l-61 26v75h276v-75z" />
    <glyph glyph-name="I" unicode="I" horiz-adv-x="361" 
d="M319 646l-61 -26v-520l61 -26v-74h-276v74l61 26v520l-61 26v74h276v-74z" />
    <glyph glyph-name="J" unicode="J" horiz-adv-x="513" 
d="M476 645l-61 -26v-432q0 -56 -17 -93.5t-46.5 -61t-69.5 -33.5t-86 -10q-42 0 -83 5.5t-77 13.5v202h85l26 -91q14 -4 26.5 -5t24.5 -1q34 0 48.5 19.5t14.5 66.5v421l-86 24v76h301v-75z" />
    <glyph glyph-name="K" unicode="K" horiz-adv-x="669" 
d="M627 645l-58 -26l-125 -257l138 -262l65 -26v-74h-181l-142 293h-66v-193l61 -25v-75h-276v75l61 25v519l-61 26v75h275v-74l-60 -27v-197h78l98 197l-48 27v74h241v-75z" />
    <glyph glyph-name="L" unicode="L" horiz-adv-x="560" 
d="M326 644l-68 -27v-500h163l20 97l89 1v-215h-487v76l61 26v515l-61 27v76h283v-76z" />
    <glyph glyph-name="M" unicode="M" horiz-adv-x="935" 
d="M846 645l-61 -26l51 -518l62 -27v-74h-266v74l61 27l-27 393h-2q-9 -42 -19.5 -83t-21.5 -80l-92 -331h-125l-93 330q-11 39 -22 79.5t-20 85.5h-1l-28 -394l61 -27v-74h-265v74l61 27l50 518l-60 26v75h238l103 -384q10 -37 19 -73.5t18 -74.5h5q9 38 18 74.5t19 74.5
l105 383h232v-75z" />
    <glyph glyph-name="N" unicode="N" horiz-adv-x="725" 
d="M688 646l-62 -26v-620h-135l-214 355q-14 23 -26.5 47t-22.5 49l-2 -1v-349l60 -27v-74h-243v74l62 27v518l-62 26v75h190l211 -349q16 -28 31 -55.5t29 -56.5h1v361l-61 26v74h244v-74z" />
    <glyph glyph-name="O" unicode="O" horiz-adv-x="714" 
d="M359 732q145 0 224.5 -91t79.5 -278q0 -194 -80 -284.5t-228 -90.5q-149 0 -226.5 91t-77.5 284q0 187 79.5 278t228.5 91zM357 606q-70 0 -107.5 -59t-37.5 -183q0 -130 37.5 -190t107.5 -60t107.5 60t37.5 190q0 124 -38 183t-107 59z" />
    <glyph glyph-name="P" unicode="P" horiz-adv-x="620" 
d="M346 720q115 0 177 -60t62 -176t-60.5 -179t-185.5 -63h-81v-141l87 -26v-75h-302v75l61 26v518l-61 26v75h303zM257 598v-240h71q104 0 104 120t-100 120h-75z" />
    <glyph glyph-name="Q" unicode="Q" horiz-adv-x="717" 
d="M663 363q0 -112 -27 -188.5t-78 -121.5l97 -26l-49 -124l-228 86l-23 -1q-149 0 -226.5 91t-77.5 284q0 187 79.5 278t228.5 91q145 0 224.5 -91t79.5 -278zM212 364q0 -130 37.5 -190t107.5 -60t107.5 60t37.5 190q0 124 -38 183t-107 59q-70 0 -107.5 -59t-37.5 -183z
" />
    <glyph glyph-name="R" unicode="R" horiz-adv-x="674" 
d="M351 720q121 0 182.5 -60t61.5 -169q0 -75 -25.5 -124t-77.5 -79l82 -188l74 -26v-74h-194l-110 255q-8 -1 -16.5 -1h-16.5h-52v-154l61 -26v-74h-277v74l62 25v520l-61 26v75h307zM258 597v-226h77q105 0 105 115q0 57 -24.5 84t-75.5 27h-82z" />
    <glyph glyph-name="S" unicode="S" horiz-adv-x="571" 
d="M306 732q60 0 110 -11t96 -29v-181h-89l-23 91q-19 8 -42 12.5t-50 4.5q-43 0 -71.5 -20.5t-28.5 -61.5q0 -26 12 -43t32 -30t46 -22.5t54 -19.5q32 -12 63.5 -26.5t56.5 -37t40.5 -55.5t15.5 -82q0 -52 -18 -95t-51.5 -73.5t-82.5 -47.5t-111 -17q-32 0 -64 3.5t-60.5 9
t-52.5 12.5t-41 15v188h97l23 -89q17 -8 42 -14t55 -6q46 0 76 21t30 69q0 23 -10.5 39.5t-28 28.5t-40.5 21.5t-48 18.5q-33 12 -67 26.5t-61 37.5t-44.5 57.5t-17.5 87.5q0 57 20.5 98t55 68t80.5 39.5t97 12.5z" />
    <glyph glyph-name="T" unicode="T" horiz-adv-x="628" 
d="M602 509h-89l-23 96h-96v-505l62 -26v-74h-278v74l62 26v505h-96l-23 -96h-89v211h570v-211z" />
    <glyph glyph-name="U" unicode="U" horiz-adv-x="673" 
d="M641 646l-60 -27v-369q0 -137 -63 -199.5t-180 -62.5q-116 0 -180.5 61.5t-64.5 200.5v369l-60 27v74h272v-74l-58 -27v-366q0 -74 28.5 -104t78.5 -30q54 0 80.5 30t26.5 104v366l-59 27v74h239v-74z" />
    <glyph glyph-name="V" unicode="V" horiz-adv-x="658" 
d="M637 720v-75l-56 -26l-164 -619h-172l-168 619l-56 26v75h270v-75l-51 -26l105 -466l103 466l-51 26v75h240z" />
    <glyph glyph-name="W" unicode="W" horiz-adv-x="958" 
d="M934 720v-75l-55 -26l-121 -619h-174l-71 331l-33 164q-8 -42 -16 -82.5t-16 -82.5l-67 -330h-176l-126 619l-55 26v75h262v-75l-51 -26l51 -319q5 -35 9.5 -78.5t9.5 -81.5q5 38 10.5 80.5t12.5 81.5l81 418h142l82 -422q6 -30 11 -71.5t10 -79.5q5 38 9.5 79.5
t9.5 71.5l55 321l-51 26v75h257z" />
    <glyph glyph-name="X" unicode="X" horiz-adv-x="660" 
d="M638 75v-75h-278v75l51 28l-68 117l-35 56l-32 -57l-64 -118l51 -26v-75h-241v75l50 26l156 270l-147 248l-54 26v75h282v-75l-55 -27l65 -117l29 -49l27 49l62 118l-50 26v75h241v-75l-50 -26l-150 -258l156 -260z" />
    <glyph glyph-name="Y" unicode="Y" horiz-adv-x="647" 
d="M630 645l-50 -26l-173 -357v-161l68 -26v-75h-290v75l68 26v162l-182 356l-53 26v75h279v-75l-55 -27l98 -218h5l101 219l-57 26v75h241v-75z" />
    <glyph glyph-name="Z" unicode="Z" horiz-adv-x="578" 
d="M526 645l-293 -528h192l21 85h88v-202h-492v94l284 509h-165l-21 -84h-89v201h475v-75z" />
    <glyph glyph-name="bracketleft" unicode="[" horiz-adv-x="364" 
d="M302 611h-94v-628h94v-108h-233v845h233v-109z" />
    <glyph glyph-name="backslash" unicode="\" horiz-adv-x="385" 
d="M154 739l212 -831h-120l-213 831h121z" />
    <glyph glyph-name="bracketright" unicode="]" horiz-adv-x="362" 
d="M293 720v-845h-233v108h94v628h-94v109h233z" />
    <glyph glyph-name="asciicircum" unicode="^" horiz-adv-x="657" 
d="M577 459l-72 -59l-176 178l-180 -178l-70 62l207 216h87z" />
    <glyph glyph-name="underscore" unicode="_" horiz-adv-x="466" 
d="M459 -232h-453v95h453v-95z" />
    <glyph glyph-name="grave" unicode="`" horiz-adv-x="457" 
d="M341 635l-53 -56l-172 135l75 81z" />
    <glyph glyph-name="a" unicode="a" horiz-adv-x="525" 
d="M248 541q101 0 153 -44.5t52 -144.5v-230q0 -17 6 -25.5t25 -8.5h12v-88q-14 -3 -30 -5.5t-34 -2.5q-42 0 -70 16.5t-39 62.5q-26 -45 -63 -64t-84 -19q-66 0 -107.5 37.5t-41.5 116.5q0 33 11 62.5t36.5 52t66 36t100.5 13.5q20 0 35 -1t31 -3v43q0 83 -78 83
q-39 0 -74 -10.5t-70 -30.5l-36 94q43 26 95 43t104 17zM261 228q-95 0 -95 -78q0 -32 16.5 -46.5t45.5 -14.5q32 0 55.5 26t23.5 75v33q-9 2 -20 3.5t-26 1.5z" />
    <glyph glyph-name="b" unicode="b" horiz-adv-x="605" 
d="M232 481q26 27 60 43.5t79 16.5q41 0 76.5 -15t61 -48t40 -85t14.5 -126q0 -142 -50.5 -210.5t-157.5 -68.5q-51 0 -86 22t-55 49l-18 -59h-110v619l-56 28v73h202v-239zM324 423q-28 0 -51.5 -14.5t-40.5 -34.5v-224q11 -17 34 -31.5t53 -14.5q43 0 66.5 36t23.5 122
q0 87 -21 124t-64 37z" />
    <glyph glyph-name="c" unicode="c" horiz-adv-x="515" 
d="M276 541q57 0 102 -11.5t91 -36.5v-173h-98l-24 94q-29 14 -66 14q-42 0 -67 -38.5t-25 -121.5q0 -85 29 -124.5t82 -39.5q29 0 64.5 9.5t73.5 24.5l31 -96q-47 -26 -98 -40t-101 -14q-51 0 -94 15.5t-74.5 49t-49 85.5t-17.5 125q0 134 62 206t179 72z" />
    <glyph glyph-name="d" unicode="d" horiz-adv-x="605" 
d="M519 96l56 -26v-70h-184l-10 61q-9 -13 -22 -26t-31.5 -23.5t-42 -17t-51.5 -6.5q-95 0 -143.5 68.5t-48.5 206.5q0 73 15.5 126t42.5 86.5t63.5 49.5t79.5 16q40 0 72.5 -16t57.5 -40v134l-56 28v73h202v-624zM285 424q-41 0 -64.5 -37.5t-23.5 -121.5q0 -74 19.5 -117
t70.5 -43q29 0 51.5 14.5t35.5 29.5v227q-13 16 -36.5 32t-52.5 16z" />
    <glyph glyph-name="e" unicode="e" horiz-adv-x="527" 
d="M276 541q215 0 215 -245q0 -14 -0.5 -35t-2.5 -35h-298q2 -58 28.5 -92t83.5 -34q32 0 65.5 9.5t74.5 28.5l31 -92q-42 -28 -90.5 -43t-108.5 -15q-56 0 -100.5 16t-75 49.5t-47 85.5t-16.5 123q0 136 64 207.5t177 71.5zM279 438q-25 0 -41.5 -10.5t-26.5 -28t-14 -40
t-4 -45.5h160q-1 58 -15.5 91t-58.5 33z" />
    <glyph glyph-name="f" unicode="f" horiz-adv-x="392" 
d="M269 732q28 0 52.5 -3t49.5 -9l-9 -100q-29 8 -57 8t-43 -12t-15 -41v-46h110v-105h-110v-327l96 -27v-70h-298v70l56 27v327h-61v81l61 20v47q0 78 39.5 119t128.5 41z" />
    <glyph glyph-name="g" unicode="g" horiz-adv-x="567" 
d="M536 418l-81 14q11 -16 18 -36t7 -46q0 -88 -60 -129.5t-162 -41.5q-20 0 -38.5 1.5t-35.5 6.5q-4 -5 -6 -15.5t-2 -22.5q0 -17 12 -29t48 -12h133q82 0 122 -35.5t40 -98.5q0 -39 -14.5 -72t-47.5 -58t-85.5 -39t-127.5 -14q-62 0 -104.5 9t-69.5 25.5t-39 39.5t-12 52
q0 36 17.5 61.5t50.5 50.5q-17 14 -26 33.5t-9 47.5t10 55t33 52q-32 21 -49.5 55.5t-17.5 82.5t17 83t47.5 57.5t72 33.5t90.5 11q73 0 123 -21l146 23v-124zM266 457q-40 0 -60 -25t-20 -71q0 -95 80 -95q35 0 55.5 23.5t20.5 71.5t-20.5 72t-55.5 24zM180 -11
q-11 -8 -17 -21t-6 -25q0 -31 25.5 -45.5t80.5 -14.5q128 0 128 69q0 24 -15.5 30.5t-47.5 6.5h-148z" />
    <glyph glyph-name="h" unicode="h" horiz-adv-x="629" 
d="M242 482h2q28 26 63 42.5t80 16.5q83 0 120 -47.5t37 -130.5v-268l56 -25v-70h-202v335q0 47 -15 67t-50 20q-15 0 -29 -5t-26 -12.5t-21 -15.5t-15 -15v-278l54 -26v-70h-256v70l56 26v526l-56 25v73h202v-238z" />
    <glyph glyph-name="i" unicode="i" horiz-adv-x="334" 
d="M162 743q38 0 63.5 -19.5t25.5 -57.5t-25 -57t-64 -19q-37 0 -63 19t-26 57t25.5 57.5t63.5 19.5zM243 97l56 -25v-72h-259v72l56 25v334l-56 25v73h203v-432z" />
    <glyph glyph-name="j" unicode="j" horiz-adv-x="310" 
d="M155 743q38 0 63.5 -19.5t25.5 -57.5t-25 -57t-64 -19q-37 0 -63 19t-26 57t25.5 57.5t63.5 19.5zM235 -51q0 -77 -33.5 -116.5t-115.5 -39.5q-26 0 -50.5 3t-45.5 10l8 99q12 -2 23 -3.5t22 -1.5q25 0 35.5 10t10.5 41v477l-56 28v73h202v-580z" />
    <glyph glyph-name="k" unicode="k" horiz-adv-x="588" 
d="M567 70v-70h-159l-165 243v-147l53 -26v-70h-256v70l56 26v523l-56 28v73h203v-449l128 160l-52 25v73h231v-73l-50 -25l-119 -147l137 -188z" />
    <glyph glyph-name="l" unicode="l" horiz-adv-x="334" 
d="M243 96l56 -26v-70h-259v70l56 26v526l-56 25v73h203v-624z" />
    <glyph glyph-name="m" unicode="m" horiz-adv-x="881" 
d="M651 541q73 0 109 -44t36 -127v-274l56 -26v-70h-202v350q0 37 -12 54t-41 17q-13 0 -25 -4.5t-22 -11t-18 -14t-12 -12.5v-283l55 -26v-70h-202v350q0 37 -11.5 54t-41.5 17q-13 0 -25 -4.5t-22 -11.5t-18 -14t-13 -13v-282l56 -25v-71h-258v71l56 25v331l-56 29v73h177
l11 -60h2q24 30 61 51t81 21q88 0 124 -70q28 31 66 50.5t89 19.5z" />
    <glyph glyph-name="n" unicode="n" horiz-adv-x="631" 
d="M388 541q83 0 120.5 -47.5t37.5 -130.5v-268l56 -25v-70h-203v335q0 47 -15 67t-50 20q-15 0 -29 -5t-26 -12.5t-21.5 -15.5t-15.5 -15v-278l56 -26v-70h-258v70l56 26v335l-56 25v73h178l10 -59h2q29 31 68.5 51t89.5 20z" />
    <glyph glyph-name="o" unicode="o" horiz-adv-x="575" 
d="M288 541q58 0 104.5 -16t79 -49.5t50 -86t17.5 -125.5q0 -72 -19 -124t-53 -85.5t-81.5 -50t-104.5 -16.5t-102.5 16t-77.5 50t-49 86t-17 124q0 73 18.5 125t52.5 86t80 50t102 16zM288 430q-44 0 -71 -37.5t-27 -128.5q0 -45 7 -76.5t20 -51t31 -28t40 -8.5
q21 0 38.5 8.5t30 28t20 51t7.5 76.5q0 46 -7.5 77.5t-20 51t-30 28.5t-38.5 9z" />
    <glyph glyph-name="p" unicode="p" horiz-adv-x="610" 
d="M376 541q41 0 76.5 -15t61 -48t40 -85t14.5 -126q0 -142 -50 -210.5t-147 -68.5q-51 0 -83.5 19t-49.5 37v-148l82 -26v-70h-284v70l56 26v535l-56 25v73h176l13 -60h2q62 72 149 72zM330 423q-28 0 -51.5 -14.5t-40.5 -34.5v-226q12 -16 34 -29.5t51 -13.5q43 0 67 35.5
t24 121.5q0 87 -21 124t-63 37z" />
    <glyph glyph-name="q" unicode="q" horiz-adv-x="600" 
d="M245 541q42 0 78 -16.5t65 -47.5l21 52h110v-629l56 -28v-72h-286v72l83 28v145q-17 -19 -48.5 -38t-82.5 -19q-199 0 -199 272q0 75 15.5 128t42.5 87t64 50t81 16zM285 422q-41 0 -64.5 -37t-23.5 -121q0 -74 20 -116.5t71 -42.5q29 0 51 14.5t35 29.5v225
q-13 17 -36 32.5t-53 15.5z" />
    <glyph glyph-name="r" unicode="r" horiz-adv-x="433" 
d="M360 540q29 0 52 -10l-10 -135q-25 5 -47 5q-34 0 -63.5 -13t-49.5 -45v-246l82 -26v-70h-284v70l56 27v334l-56 24v74h170l17 -78h2q22 45 57.5 67t73.5 22z" />
    <glyph glyph-name="s" unicode="s" horiz-adv-x="468" 
d="M242 541q42 0 85.5 -10t81.5 -28v-133h-87l-19 68q-27 11 -54 11q-28 0 -44.5 -13.5t-16.5 -37.5q0 -16 7.5 -27.5t20.5 -20.5t30 -16t36 -14q25 -9 51.5 -20t48.5 -28t35.5 -42.5t13.5 -62.5q0 -43 -15 -76.5t-42.5 -56t-65.5 -34.5t-84 -12q-50 0 -95 8.5t-83 24.5v140
h89l18 -67q15 -6 31.5 -9t31.5 -3q29 0 50.5 13t21.5 44q0 15 -7 26t-19 20t-27.5 16t-33.5 14q-26 10 -53 21.5t-49.5 29t-36.5 44t-14 65.5q0 40 14.5 71t40 52t61 32t78.5 11z" />
    <glyph glyph-name="t" unicode="t" horiz-adv-x="395" 
d="M242 529h109v-105h-109v-286q0 -22 10.5 -30.5t35.5 -8.5q16 0 29.5 2.5t27.5 5.5l15 -98q-31 -9 -61.5 -15t-62.5 -6q-71 0 -105.5 32t-34.5 93v311h-66v79l68 25l27 149h117v-148z" />
    <glyph glyph-name="u" unicode="u" horiz-adv-x="614" 
d="M522 96l57 -26v-70h-175l-15 61q-24 -30 -62.5 -51.5t-89.5 -21.5q-41 0 -70.5 12.5t-48 35t-27 54.5t-8.5 71v266l-54 29v73h201v-341q0 -40 13.5 -60t47.5 -20q28 0 50 15t36 31l-1 273l-54 29v73h200v-433z" />
    <glyph glyph-name="v" unicode="v" horiz-adv-x="571" 
d="M556 456l-46 -25l-140 -431h-167l-139 431l-49 25v73h246v-73l-44 -25l82 -294h2l87 294l-45 25v73h213v-73z" />
    <glyph glyph-name="w" unicode="w" horiz-adv-x="824" 
d="M809 529v-73l-47 -25l-103 -431h-167l-78 362h-2l-82 -362h-159l-108 431l-48 25v73h243v-73l-44 -25l53 -290h2l83 386h148l83 -387h2l54 291l-45 25v73h215z" />
    <glyph glyph-name="x" unicode="x" horiz-adv-x="553" 
d="M524 72v-72h-161l-109 200l-56 -104l51 -24v-72h-221v72l44 24l99 175l-90 160l-44 25v73h160l104 -201l53 103l-47 25v73h212v-73l-43 -25l-94 -171l96 -164z" />
    <glyph glyph-name="y" unicode="y" horiz-adv-x="559" 
d="M544 455l-41 -25l-153 -440q-18 -52 -35 -89t-38.5 -61t-50 -35.5t-68.5 -11.5q-32 0 -58 4.5t-46 9.5l15 107q11 -2 28 -4.5t36 -2.5q21 0 36 13.5t26 50.5l7 25l-146 434l-41 25v74h243v-73l-45 -25l77 -292h2l81 292l-45 25v73h216v-74z" />
    <glyph glyph-name="z" unicode="z" horiz-adv-x="465" 
d="M427 458l-220 -364h119l25 90h82v-184h-398v76l217 359h-108l-25 -83h-80v177h388v-71z" />
    <glyph glyph-name="braceleft" unicode="{" horiz-adv-x="395" 
d="M356 617h-29q-38 0 -48 -24.5t-10 -74.5v-112q0 -48 -16 -75.5t-58 -42.5q25 -6 39.5 -17t22 -26t10 -33.5t2.5 -39.5v-93q0 -26 2 -45t9 -31.5t20 -18.5t36 -6h20v-103h-38q-53 0 -88.5 8t-57.5 27.5t-31 52.5t-9 83v105q0 46 -12 65t-45 19h-37v104h33q19 0 31 5.5
t19 18.5t9 34t2 53v88q0 51 9.5 85.5t31 56t57 31t87.5 9.5h39v-103z" />
    <glyph glyph-name="bar" unicode="|" horiz-adv-x="470" 
d="M298 -200h-126v920h126v-920z" />
    <glyph glyph-name="braceright" unicode="}" horiz-adv-x="393" 
d="M76 720q52 0 87 -9.5t57 -31t31.5 -56t9.5 -85.5v-88q0 -32 2 -53t9 -34t18.5 -18.5t31.5 -5.5h33v-104h-37q-33 0 -45 -19t-12 -65v-105q0 -50 -9 -83t-31 -52.5t-57.5 -27.5t-88.5 -8h-38v103h20q22 0 35.5 6t20.5 18.5t9 31.5t2 45v93q0 21 2.5 39.5t10 33.5t22 26
t39.5 17q-42 15 -58 42.5t-16 75.5v112q0 50 -10 74.5t-48 24.5h-29v103h39z" />
    <glyph glyph-name="asciitilde" unicode="~" horiz-adv-x="715" 
d="M644 287q-38 -29 -79 -45.5t-90 -16.5q-30 0 -61 8t-61 17.5t-58 17.5t-52 8q-32 0 -64.5 -13.5t-68.5 -36.5l-38 82q38 28 79.5 44.5t92.5 16.5q30 0 59.5 -8t58 -17t56.5 -17t55 -8q35 0 66 13t68 36z" />
    <glyph glyph-name="Euro" unicode="&#x20ac;" horiz-adv-x="603" 
d="M367 731q52 0 96 -9.5t89 -31.5v-166h-94l-26 85q-28 11 -60 11q-51 0 -85 -44.5t-46 -126.5h231l-7 -73h-231q-1 -5 -1 -11v-11q0 -11 0.5 -20.5t1.5 -18.5h224l-6 -72h-208q14 -66 47.5 -98.5t84.5 -32.5q39 0 73 14t64 37l53 -91q-54 -48 -105 -66t-113 -18
q-109 0 -169.5 67.5t-79.5 187.5h-70l6 72h57q-1 11 -1.5 20.5t-0.5 20.5v10t1 10h-51l7 73h50q18 135 88.5 208.5t180.5 73.5z" />
    <glyph glyph-name="quotesinglbase" unicode="&#x201a;" horiz-adv-x="223" 
d="M112 114q41 0 60.5 -27t19.5 -63q0 -55 -30 -96t-91 -64l-22 47q32 15 47.5 33.5t19.5 45.5q-30 -10 -53 6.5t-23 48.5q0 30 20 49.5t52 19.5z" />
    <glyph glyph-name="florin" unicode="&#x192;" horiz-adv-x="448" 
d="M421 611h-50q-29 0 -40.5 -19.5t-18.5 -55.5l-17 -97h78v-94h-96l-61 -327q-8 -42 -19.5 -76.5t-31 -59.5t-49 -38.5t-73.5 -13.5h-64v105h35q26 0 39 16t20 51l65 343h-72l-1 94h92l21 113q6 37 16 68t28.5 53t47 34.5t72.5 12.5h79v-109z" />
    <glyph glyph-name="quotedblbase" unicode="&#x201e;" horiz-adv-x="397" 
d="M112 114q41 0 60.5 -27t19.5 -63q0 -55 -30 -96t-91 -64l-22 47q32 15 47.5 33.5t19.5 45.5q-30 -10 -53 6.5t-23 48.5q0 30 20 49.5t52 19.5zM288 114q41 0 60.5 -27t19.5 -63q0 -55 -30 -96t-91 -64l-22 47q32 15 47.5 33.5t19.5 45.5q-30 -10 -53 6.5t-23 48.5
q0 30 20 49.5t52 19.5z" />
    <glyph glyph-name="ellipsis" unicode="&#x2026;" horiz-adv-x="772" 
d="M638 153q38 0 60.5 -21.5t22.5 -58.5q0 -36 -22.5 -58.5t-60.5 -22.5t-60.5 22.5t-22.5 58.5q0 37 23 58.5t60 21.5zM387 153q38 0 60.5 -21.5t22.5 -58.5q0 -36 -22.5 -58.5t-60.5 -22.5t-60.5 22.5t-22.5 58.5q0 37 23 58.5t60 21.5zM137 153q38 0 60.5 -21.5
t22.5 -58.5q0 -36 -22.5 -58.5t-60.5 -22.5t-60.5 22.5t-22.5 58.5q0 37 23 58.5t60 21.5z" />
    <glyph glyph-name="dagger" unicode="&#x2020;" horiz-adv-x="460" 
d="M295 529h126v-116h-126v-422h-130v422h-126v116h126v172h130v-172z" />
    <glyph glyph-name="daggerdbl" unicode="&#x2021;" horiz-adv-x="469" 
d="M299 529h127v-116h-127v-145h127v-115h-127v-174h-129v174h-127v115h127v145h-127v116h127v171h129v-171z" />
    <glyph glyph-name="circumflex" unicode="&#x2c6;" horiz-adv-x="457" 
d="M227 674l-86 -98l-60 38l105 155h81l106 -155l-60 -38z" />
    <glyph glyph-name="perthousand" unicode="&#x2030;" horiz-adv-x="1148" 
d="M214 730q38 0 70 -11.5t55.5 -34t36.5 -56.5t13 -80q0 -45 -13.5 -80t-36.5 -58t-55.5 -35.5t-69.5 -12.5q-38 0 -70.5 10.5t-56 33.5t-36.5 57.5t-13 82.5q0 45 13 79.5t36.5 58t56 35t70.5 11.5zM310 0h-112l399 720h111zM214 634q-33 0 -51 -23.5t-18 -65.5
q0 -45 18 -67t51 -22q32 0 50.5 23.5t18.5 66.5q0 42 -18 65t-51 23zM937 358q37 0 69 -11.5t55 -34t36 -57t13 -79.5q0 -46 -13 -80.5t-36 -58t-55 -35.5t-69 -12q-39 0 -71.5 15t-53.5 42q-46 -57 -123 -57q-38 0 -69.5 11t-54.5 33.5t-36 57.5t-13 82q0 45 13 79.5t36 58
t55 35t70 11.5t70 -14.5t53 -43.5q22 27 54 42.5t70 15.5zM692 263q-33 0 -51 -24t-18 -67t18 -66t51 -23q32 0 50 23.5t18 66.5q0 42 -17.5 66t-50.5 24zM936 263q-33 0 -51 -24t-18 -67q0 -89 69 -89q32 0 50.5 23.5t18.5 66.5q0 42 -18 66t-51 24z" />
    <glyph glyph-name="Scaron" unicode="&#x160;" horiz-adv-x="571" 
d="M306 732q60 0 110 -11t96 -29v-181h-89l-23 91q-19 8 -42 12.5t-50 4.5q-43 0 -71.5 -20.5t-28.5 -61.5q0 -26 12 -43t32 -30t46 -22.5t54 -19.5q32 -12 63.5 -26.5t56.5 -37t40.5 -55.5t15.5 -82q0 -52 -18 -95t-51.5 -73.5t-82.5 -47.5t-111 -17q-32 0 -64 3.5t-60.5 9
t-52.5 12.5t-41 15v188h97l23 -89q17 -8 42 -14t55 -6q46 0 76 21t30 69q0 23 -10.5 39.5t-28 28.5t-40.5 21.5t-48 18.5q-33 12 -67 26.5t-61 37.5t-44.5 57.5t-17.5 87.5q0 57 20.5 98t55 68t80.5 39.5t97 12.5zM258 761l-93 111l55 42l80 -67l80 67l54 -42l-92 -111h-84z
" />
    <glyph glyph-name="guilsinglleft" unicode="&#x2039;" horiz-adv-x="274" 
d="M249 376l-93 -115l93 -113l-79 -67l-143 163v33l142 164z" />
    <glyph glyph-name="OE" unicode="&#x152;" horiz-adv-x="1005" 
d="M342 733q66 0 116.5 -25.5t77.5 -71.5v84h420v-200h-88l-19 83h-174v-181h165v-117h-165v-188h180l21 85h88v-202h-429v88q-29 -53 -81 -76.5t-120 -23.5q-63 0 -115 23t-89.5 69.5t-58 117t-20.5 165.5q0 92 21.5 161t60.5 115.5t92.5 70t116.5 23.5zM371 592
q-78 0 -118.5 -59t-40.5 -169q0 -118 40 -176t118 -58q72 0 113.5 59t41.5 174q0 110 -40.5 169.5t-113.5 59.5z" />
    <glyph glyph-name="quoteleft" unicode="&#x2018;" horiz-adv-x="225" 
d="M116 502q-41 0 -60.5 27t-19.5 63q0 55 30 96t91 64l22 -47q-32 -15 -47.5 -33.5t-19.5 -45.5q30 10 53 -6.5t23 -48.5q0 -30 -20 -49.5t-52 -19.5z" />
    <glyph glyph-name="quoteright" unicode="&#x2019;" horiz-adv-x="222" 
d="M107 723q41 0 60.5 -27t19.5 -63q0 -55 -30 -96t-91 -64l-22 47q32 15 47.5 33.5t19.5 45.5q-30 -10 -53 6.5t-23 48.5q0 30 20 49.5t52 19.5z" />
    <glyph glyph-name="quotedblleft" unicode="&#x201c;" horiz-adv-x="400" 
d="M291 502q-41 0 -60.5 27t-19.5 63q0 55 30 96t91 64l22 -47q-32 -15 -47.5 -33.5t-19.5 -45.5q30 10 53 -6.5t23 -48.5q0 -30 -20 -49.5t-52 -19.5zM115 502q-41 0 -60.5 27t-19.5 63q0 55 30 96t91 64l22 -47q-32 -15 -47.5 -33.5t-19.5 -45.5q30 10 53 -6.5t23 -48.5
q0 -30 -20 -49.5t-52 -19.5z" />
    <glyph glyph-name="quotedblright" unicode="&#x201d;" horiz-adv-x="399" 
d="M284 723q41 0 60.5 -27t19.5 -63q0 -55 -30 -96t-91 -64l-22 47q32 15 47.5 33.5t19.5 45.5q-30 -10 -53 6.5t-23 48.5q0 30 20 49.5t52 19.5zM107 723q41 0 60.5 -27t19.5 -63q0 -55 -30 -96t-91 -64l-22 47q32 15 47.5 33.5t19.5 45.5q-30 -10 -53 6.5t-23 48.5
q0 30 20 49.5t52 19.5z" />
    <glyph glyph-name="bullet" unicode="&#x2022;" horiz-adv-x="483" 
d="M243 446q30 0 55 -10.5t42.5 -28.5t27 -42.5t9.5 -52.5q0 -29 -10 -53.5t-27.5 -43t-42.5 -29t-55 -10.5q-32 0 -56.5 11t-42 29.5t-26.5 43.5t-9 52q0 28 10 52.5t27.5 42.5t42.5 28.5t55 10.5z" />
    <glyph glyph-name="endash" unicode="&#x2013;" horiz-adv-x="479" 
d="M472 220h-465v95h465v-95z" />
    <glyph glyph-name="emdash" unicode="&#x2014;" horiz-adv-x="937" 
d="M930 220h-923v95h923v-95z" />
    <glyph glyph-name="tilde" unicode="&#x2dc;" horiz-adv-x="457" 
d="M382 703q-10 -50 -32.5 -77t-55.5 -27q-18 0 -35 5t-31.5 10.5t-26.5 10.5t-22 5q-12 0 -20.5 -7t-17.5 -28l-65 26q11 52 34 81t57 29q19 0 35.5 -5t31 -11.5t26.5 -11.5t23 -5q13 0 21.5 6.5t16.5 25.5z" />
    <glyph glyph-name="trademark" unicode="&#x2122;" horiz-adv-x="654" 
d="M251 626h-35l-8 37h-37v-167l28 -12v-32h-121v32l28 12v167h-38l-8 -37h-35v94h226v-94zM605 688l-27 -12l17 -180l27 -12v-32h-112v32l26 12l-9 120h-2l-21 -56l-31 -87h-50l-31 86q-5 14 -10 28.5t-10 28.5h-2l-9 -120l26 -12v-32h-113v32l27 12l17 180l-27 12v32h100
l45 -135l12 -37h2l12 37l45 135h98v-32z" />
    <glyph glyph-name="scaron" unicode="&#x161;" horiz-adv-x="468" 
d="M242 541q42 0 85.5 -10t81.5 -28v-133h-87l-19 68q-27 11 -54 11q-28 0 -44.5 -13.5t-16.5 -37.5q0 -16 7.5 -27.5t20.5 -20.5t30 -16t36 -14q25 -9 51.5 -20t48.5 -28t35.5 -42.5t13.5 -62.5q0 -43 -15 -76.5t-42.5 -56t-65.5 -34.5t-84 -12q-50 0 -95 8.5t-83 24.5v140
h89l18 -67q15 -6 31.5 -9t31.5 -3q29 0 50.5 13t21.5 44q0 15 -7 26t-19 20t-27.5 16t-33.5 14q-26 10 -53 21.5t-49.5 29t-36.5 44t-14 65.5q0 40 14.5 71t40 52t61 32t78.5 11zM390 740l-106 -155h-81l-105 155l60 38l86 -98l86 98z" />
    <glyph glyph-name="guilsinglright" unicode="&#x203a;" horiz-adv-x="274" 
d="M247 277v-33l-143 -163l-79 67l93 113l-93 115l80 65z" />
    <glyph glyph-name="oe" unicode="&#x153;" horiz-adv-x="860" 
d="M620 541q101 0 150.5 -63.5t49.5 -181.5q0 -22 -1 -39.5t-2 -30.5h-295q2 -63 27 -95.5t79 -32.5q32 0 66.5 10t76.5 30l31 -92q-44 -30 -87.5 -44t-100.5 -14q-60 0 -105 24.5t-68 68.5q-26 -44 -70 -68.5t-107 -24.5q-51 0 -93 15.5t-72.5 49t-47 85t-16.5 123.5
t17.5 124.5t48.5 87t74 51.5t93 17q127 0 176 -106q26 51 69.5 78.5t106.5 27.5zM609 438q-24 0 -40.5 -10.5t-26.5 -28t-14.5 -39.5t-4.5 -46h159q-1 61 -16 92.5t-57 31.5zM280 427q-41 0 -66.5 -38t-25.5 -126q0 -45 6.5 -75.5t18.5 -49t29 -27t38 -8.5q41 0 66.5 35.5
t25.5 123.5q0 45 -7 76.5t-19 51t-29 28.5t-37 9z" />
    <glyph glyph-name="Ydieresis" unicode="&#x178;" horiz-adv-x="647" 
d="M630 645l-50 -26l-173 -357v-161l68 -26v-75h-290v75l68 26v162l-182 356l-53 26v75h279v-75l-55 -27l98 -218h5l101 219l-57 26v75h241v-75zM239 913q37 0 55.5 -19t18.5 -48q0 -30 -20 -48.5t-54 -18.5q-35 0 -54.5 17.5t-19.5 49.5q0 29 20 48t54 19zM440 913
q37 0 55.5 -19t18.5 -48q0 -30 -20.5 -48.5t-53.5 -18.5q-35 0 -54.5 17.5t-19.5 49.5q0 29 20 48t54 19z" />
    <glyph glyph-name="uni00A0" unicode="&#xa0;" horiz-adv-x="184" 
 />
    <glyph glyph-name="exclamdown" unicode="&#xa1;" horiz-adv-x="309" 
d="M156 377q-38 0 -60.5 21.5t-22.5 57.5q0 35 22.5 57.5t60.5 22.5t60 -22.5t22 -57.5q0 -36 -22.5 -57.5t-59.5 -21.5zM80 -192v238l13 267h125l13 -267v-238h-151z" />
    <glyph glyph-name="cent" unicode="&#xa2;" horiz-adv-x="515" 
d="M281 512q-42 0 -67 -38.5t-25 -121.5q0 -85 29 -124.5t82 -39.5q29 0 64.5 9.5t73.5 24.5l31 -96q-64 -36 -137 -48v-95h-114v93q-41 7 -74.5 26.5t-57.5 52.5t-37.5 81t-13.5 111q0 117 47 186.5t137 86.5v100h114v-98q37 -5 69.5 -16t66.5 -29v-173h-98l-24 94
q-29 14 -66 14z" />
    <glyph glyph-name="sterling" unicode="&#xa3;" horiz-adv-x="544" 
d="M277 730q52 0 90 -14.5t63.5 -39.5t40 -60t21.5 -75l-118 -23q-11 46 -31 70.5t-61 24.5q-38 0 -55.5 -25t-17.5 -60q0 -30 11.5 -62.5t30.5 -63.5h139v-97h-113q5 -15 9 -32.5t4 -32.5q0 -35 -16.5 -66t-39.5 -59h168l20 86h86v-201h-471v78l59 26q24 31 41 63.5
t17 68.5q0 17 -4.5 35.5t-10.5 33.5h-103v97h69q-21 34 -32 73.5t-11 74.5q0 86 57 133t158 47z" />
    <glyph glyph-name="currency" unicode="&#xa4;" horiz-adv-x="557" 
d="M511 508l-79 -79q13 -20 20.5 -42t7.5 -47q0 -50 -28 -92l79 -77l-63 -65l-80 80q-21 -14 -44 -20t-46 -6q-25 0 -48 7t-44 19l-79 -79l-62 63l79 79q-13 19 -20 42t-7 49q0 48 27 89l-79 80l61 65l79 -81q20 12 43.5 19t49.5 7q50 0 91 -25l78 79zM278 431
q-36 0 -63.5 -25t-27.5 -65q0 -42 26 -67.5t65 -25.5q19 0 36 7.5t29 20t19 29.5t7 36q0 40 -26 65t-65 25z" />
    <glyph glyph-name="yen" unicode="&#xa5;" horiz-adv-x="613" 
d="M586 642l-50 -26l-121 -236h111v-75h-148v-54h148v-76h-148v-74l68 -26v-75h-274v75l68 26v74h-148v76h148v54h-148v75h114l-126 236l-52 26v78h249v-78l-50 -27l84 -212h3l84 213l-49 26v78h237v-78z" />
    <glyph glyph-name="brokenbar" unicode="&#xa6;" horiz-adv-x="470" 
d="M298 302h-126v418h126v-418zM298 -200h-126v418h126v-418z" />
    <glyph glyph-name="section" unicode="&#xa7;" horiz-adv-x="464" 
d="M247 731q46 0 84.5 -9t78.5 -31v-130h-80l-21 65q-13 5 -27 8.5t-28 3.5q-26 0 -43.5 -11.5t-17.5 -33.5q0 -26 23.5 -41t70.5 -34q35 -15 60.5 -29.5t42 -31.5t24.5 -37t8 -47q0 -47 -25 -75t-61 -41q43 -24 64 -52.5t21 -68.5q0 -35 -15 -62.5t-40.5 -46.5t-59 -28.5
t-69.5 -9.5q-53 0 -98 9.5t-88 32.5v133h80l20 -66q15 -6 33.5 -10t35.5 -4q27 0 44.5 13t17.5 36t-27.5 36.5t-64.5 29.5q-23 10 -46.5 22t-42.5 29t-31 41t-12 57q0 42 22 72.5t58 44.5q-40 22 -58.5 52t-18.5 68q0 34 13.5 61t38.5 46t59 29t75 10zM219 421
q-46 -11 -46 -53q0 -23 21.5 -39t63.5 -30q16 5 30 17t14 37q0 24 -21 39t-62 29z" />
    <glyph glyph-name="dieresis" unicode="&#xa8;" horiz-adv-x="457" 
d="M128 738q37 0 55.5 -19t18.5 -48q0 -30 -20 -48.5t-54 -18.5q-35 0 -54.5 17.5t-19.5 49.5q0 29 20 48t54 19zM329 738q37 0 55.5 -19t18.5 -48q0 -30 -20.5 -48.5t-53.5 -18.5q-35 0 -54.5 17.5t-19.5 49.5q0 29 20 48t54 19z" />
    <glyph glyph-name="copyright" unicode="&#xa9;" horiz-adv-x="759" 
d="M379 721q76 0 137 -23.5t104 -69t65.5 -112.5t22.5 -154q0 -86 -25.5 -153.5t-69.5 -114t-104 -71t-130 -24.5t-130 21.5t-104 66t-69 112.5t-25 162q0 85 24 152t67.5 113.5t104 70.5t132.5 24zM380 665q-60 0 -109.5 -20t-85 -59t-55.5 -95.5t-20 -129.5q0 -78 20 -136
t56 -95.5t85.5 -56t108.5 -18.5q57 0 106 21t86 60t58 96t21 129q0 73 -19 130t-54.5 95.5t-85.5 58.5t-112 20zM383 560q38 0 67 -8.5t60 -25.5v-118h-64l-18 73q-12 5 -22.5 6t-24.5 1q-36 0 -58 -29.5t-22 -94.5t25 -96t70 -31q21 0 44.5 7.5t49.5 19.5l24 -62
q-32 -19 -67 -29t-70 -10t-64 11.5t-50.5 35.5t-33.5 61t-12 89q0 96 42.5 148t123.5 52z" />
    <glyph glyph-name="ordfeminine" unicode="&#xaa;" horiz-adv-x="456" 
d="M235 661q69 0 108 -32.5t39 -104.5v-260h-89l-7 50q-17 -27 -46.5 -43.5t-68.5 -16.5q-23 0 -44 7t-36.5 21.5t-24.5 35.5t-9 50q0 24 8 46.5t27 40t49.5 28t75.5 10.5q14 0 28.5 -1t29.5 -3v24q0 65 -59 65q-32 0 -58.5 -9.5t-52.5 -24.5l-30 70q33 21 73 34t87 13z
M235 429q-75 0 -75 -54q0 -23 12.5 -34.5t34.5 -11.5q29 0 48.5 20.5t19.5 50.5v25q-8 2 -17 3t-23 1z" />
    <glyph glyph-name="guillemotleft" unicode="&#xab;" horiz-adv-x="484" 
d="M459 376l-93 -115l93 -113l-79 -67l-143 163v33l142 164zM249 376l-93 -115l93 -113l-79 -67l-143 163v33l142 164z" />
    <glyph glyph-name="logicalnot" unicode="&#xac;" 
d="M525 134h-96v165h-385v90h481v-255z" />
    <glyph glyph-name="uni00AD" unicode="&#xad;" horiz-adv-x="304" 
d="M270 220h-237v117h237v-117z" />
    <glyph glyph-name="registered" unicode="&#xae;" horiz-adv-x="437" 
d="M221 730q40 0 74 -13t58.5 -37t38 -58t13.5 -76q0 -40 -15 -74t-40.5 -58.5t-59 -38.5t-70.5 -14q-40 0 -74 12t-58.5 35.5t-38.5 58t-14 79.5q0 40 14.5 74t39.5 58.5t59 38t73 13.5zM220 690q-30 0 -56 -11t-45 -30t-30 -45.5t-11 -57.5q0 -70 39.5 -107t102.5 -37
q28 0 53.5 11t45 30.5t31 45.5t11.5 57q0 66 -39 105t-102 39zM230 641q35 0 51.5 -16.5t16.5 -42.5q0 -35 -33 -51l24 -42l21 -8v-21h-51l-33 61h-31v-32l18 -8v-21h-75v21l18 7v124l-18 7v22h92zM196 609v-56h22q19 0 28 6.5t9 23.5q0 26 -35 26h-24z" />
    <glyph glyph-name="macron" unicode="&#xaf;" horiz-adv-x="457" 
d="M360 606h-264v88h264v-88z" />
    <glyph glyph-name="degree" unicode="&#xb0;" horiz-adv-x="356" 
d="M180 781q24 0 45 -9t37 -24.5t25 -37t9 -46.5t-9 -46t-25 -36.5t-37 -24.5t-45 -9q-52 0 -85.5 32t-33.5 84q0 25 9.5 46.5t25.5 37t38 24.5t46 9zM180 729q-29 0 -46.5 -17.5t-17.5 -46.5t17.5 -47.5t46.5 -18.5q26 0 44.5 18.5t18.5 47.5t-18 46.5t-45 17.5z" />
    <glyph glyph-name="plusminus" unicode="&#xb1;" 
d="M333 360h186v-92h-186v-136h185v-91h-466v91h185v136h-187v92h187v179h96v-179z" />
    <glyph glyph-name="twosuperior" unicode="&#xb2;" horiz-adv-x="363" 
d="M177 784q66 0 99.5 -26.5t33.5 -72.5q0 -30 -14.5 -58.5t-40.5 -54.5l-88 -98h91l14 53h51v-126h-283v67l107 114q23 23 38 42.5t15 42.5q0 14 -7.5 23.5t-27.5 9.5q-22 0 -33.5 -12.5t-16.5 -38.5l-87 19q4 25 14.5 46t28.5 36.5t44 24.5t62 9z" />
    <glyph glyph-name="threesuperior" unicode="&#xb3;" horiz-adv-x="349" 
d="M166 784q63 0 95 -24.5t32 -66.5q0 -32 -17.5 -57t-52.5 -36q48 -8 67.5 -33t19.5 -60q0 -28 -11 -49t-31 -35.5t-47.5 -21.5t-59.5 -7q-41 0 -76.5 11t-64.5 34l32 65q23 -14 46.5 -21.5t49.5 -7.5q25 0 39.5 9t14.5 31q0 21 -14 32.5t-49 11.5q-8 0 -16.5 -0.5
t-13.5 -1.5v59q82 2 82 53q0 13 -8.5 22.5t-26.5 9.5q-20 0 -31 -11t-16 -31l-83 18q8 47 40.5 77t99.5 30z" />
    <glyph glyph-name="acute" unicode="&#xb4;" horiz-adv-x="457" 
d="M341 714l-172 -135l-53 56l150 160z" />
    <glyph glyph-name="mu" unicode="&#xb5;" horiz-adv-x="601" 
d="M522 121q0 -16 8.5 -24.5t22.5 -8.5h13v-88q-15 -3 -31 -5.5t-34 -2.5q-39 0 -63.5 15t-35.5 48q-31 -63 -100 -63q-25 0 -41.5 7t-27.5 20v-219h-147v628l-54 28v73h201v-346q0 -89 70 -89q27 0 46 17.5t27 36.5v280l-54 28v73h200v-408z" />
    <glyph glyph-name="paragraph" unicode="&#xb6;" horiz-adv-x="555" 
d="M513 646l-60 -26v-620h-90v651h-62v-651h-91v341q-86 7 -130.5 56t-44.5 135q0 88 52.5 138t146.5 50h279v-74z" />
    <glyph glyph-name="periodcentered" unicode="&#xb7;" horiz-adv-x="298" 
d="M149 410q38 0 60.5 -21.5t22.5 -58.5q0 -36 -22.5 -58.5t-60.5 -22.5t-60.5 22.5t-22.5 58.5q0 37 23 58.5t60 21.5z" />
    <glyph glyph-name="cedilla" unicode="&#xb8;" horiz-adv-x="457" 
d="M241 -48q34 -3 59.5 -20.5t25.5 -57.5q0 -47 -28 -72.5t-79 -25.5q-27 0 -50.5 5.5t-37.5 11.5l11 60q14 -4 30 -7t32 -3q19 0 29.5 6.5t10.5 23.5q0 18 -14 23.5t-43 5.5h-17l19 104h62z" />
    <glyph glyph-name="onesuperior" unicode="&#xb9;" horiz-adv-x="339" 
d="M237 481l74 -21v-59h-257v59l77 21v176q-20 -5 -39 -7.5t-40 -3.5l-10 71q33 8 63 23t51 37h81v-296z" />
    <glyph glyph-name="ordmasculine" unicode="&#xba;" horiz-adv-x="469" 
d="M236 661q83 0 132.5 -48.5t49.5 -154.5q0 -53 -14 -91.5t-38.5 -63t-58 -36.5t-72.5 -12q-88 0 -135.5 48t-47.5 155q0 53 13.5 91.5t38 63t58.5 36.5t74 12zM235 575q-32 0 -52 -25.5t-20 -91.5t20 -92t52 -26q31 0 51 26t20 92t-20 91.5t-51 25.5z" />
    <glyph glyph-name="guillemotright" unicode="&#xbb;" horiz-adv-x="484" 
d="M456 277v-33l-143 -163l-79 67l93 113l-93 115l80 65zM247 277v-33l-143 -163l-79 67l93 113l-93 115l80 65z" />
    <glyph glyph-name="onequarter" unicode="&#xbc;" horiz-adv-x="901" 
d="M198 431l74 -21v-59h-257v59l77 21v176q-20 -5 -39 -7.5t-40 -3.5l-10 71q33 8 63 23t51 37h81v-296zM243 0h-112l399 720h111zM674 145h45v-75h-45v-69h-101v69h-175v74l139 233h137v-232zM571 292l-86 -147h88v147h-2z" />
    <glyph glyph-name="onehalf" unicode="&#xbd;" horiz-adv-x="848" 
d="M237 431l74 -21v-59h-257v59l77 21v176q-20 -5 -39 -7.5t-40 -3.5l-10 71q33 8 63 23t51 37h81v-296zM271 0h-112l399 720h111zM632 384q66 0 99.5 -26.5t33.5 -72.5q0 -30 -14.5 -58.5t-40.5 -54.5l-88 -98h91l14 53h51v-126h-283v67l107 114q23 23 38 42.5t15 42.5
q0 14 -7.5 23.5t-27.5 9.5q-22 0 -33.5 -12.5t-16.5 -38.5l-87 19q4 25 14.5 46t28.5 36.5t44 24.5t62 9z" />
    <glyph glyph-name="threequarters" unicode="&#xbe;" horiz-adv-x="916" 
d="M153 734q63 0 95 -24.5t32 -66.5q0 -32 -17.5 -57t-52.5 -36q48 -8 67.5 -33t19.5 -60q0 -28 -11 -49t-31 -35.5t-47.5 -21.5t-59.5 -7q-41 0 -76.5 11t-64.5 34l32 65q23 -14 46.5 -21.5t49.5 -7.5q25 0 39.5 9t14.5 31q0 21 -14 32.5t-49 11.5q-8 0 -16.5 -0.5
t-13.5 -1.5v59q82 2 82 53q0 13 -8.5 22.5t-26.5 9.5q-20 0 -31 -11t-16 -31l-83 18q8 47 40.5 77t99.5 30zM244 0h-112l399 720h111zM689 145h45v-75h-45v-69h-101v69h-175v74l139 233h137v-232zM586 292l-86 -147h88v147h-2z" />
    <glyph glyph-name="questiondown" unicode="&#xbf;" horiz-adv-x="521" 
d="M263 382q-37 0 -59.5 21.5t-22.5 57.5q0 35 22 57.5t60 22.5t60.5 -22.5t22.5 -57.5q0 -36 -22.5 -57.5t-60.5 -21.5zM251 -203q-44 0 -81.5 11t-65 33.5t-43.5 57t-16 82.5q0 40 11 70.5t27 55.5t35 46t35 42t27 44t11 53v22h143v-33q0 -54 -21.5 -92t-47.5 -69
t-47.5 -58.5t-21.5 -61.5q0 -36 19 -55.5t54 -19.5q37 0 59.5 23.5t22.5 76.5h136q0 -61 -17 -104.5t-47.5 -71t-74 -40t-97.5 -12.5z" />
    <glyph glyph-name="Agrave" unicode="&#xc0;" horiz-adv-x="687" 
d="M669 74v-74h-283v74l61 26l-24 96h-188l-23 -96l61 -26v-74h-252v74l58 26l151 519l-50 25v76h249l181 -620zM395 310l-30 121q-11 42 -20 80.5t-18 80.5q-9 -41 -18.5 -81.5t-19.5 -78.5l-28 -122h134zM440 816l-39 -61l-182 90l56 90z" />
    <glyph glyph-name="Aacute" unicode="&#xc1;" horiz-adv-x="687" 
d="M669 74v-74h-283v74l61 26l-24 96h-188l-23 -96l61 -26v-74h-252v74l58 26l151 519l-50 25v76h249l181 -620zM395 310l-30 121q-11 42 -20 80.5t-18 80.5q-9 -41 -18.5 -81.5t-19.5 -78.5l-28 -122h134zM437 845l-182 -90l-39 61l165 119z" />
    <glyph glyph-name="Acircumflex" unicode="&#xc2;" horiz-adv-x="687" 
d="M669 74v-74h-283v74l61 26l-24 96h-188l-23 -96l61 -26v-74h-252v74l58 26l151 519l-50 25v76h249l181 -620zM395 310l-30 121q-11 42 -20 80.5t-18 80.5q-9 -41 -18.5 -81.5t-19.5 -78.5l-28 -122h134zM462 799l-54 -42l-80 67l-80 -67l-55 42l93 111h84z" />
    <glyph glyph-name="Atilde" unicode="&#xc3;" horiz-adv-x="687" 
d="M669 74v-74h-283v74l61 26l-24 96h-188l-23 -96l61 -26v-74h-252v74l58 26l151 519l-50 25v76h249l181 -620zM395 310l-30 121q-11 42 -20 80.5t-18 80.5q-9 -41 -18.5 -81.5t-19.5 -78.5l-28 -122h134zM485 878q-10 -50 -32.5 -77t-55.5 -27q-18 0 -35 5t-31.5 10.5
t-26.5 10.5t-22 5q-12 0 -20.5 -7t-17.5 -28l-65 26q11 52 34 81t57 29q19 0 35.5 -5t31 -11.5t26.5 -11.5t23 -5q13 0 21.5 6.5t16.5 25.5z" />
    <glyph glyph-name="Adieresis" unicode="&#xc4;" horiz-adv-x="687" 
d="M669 74v-74h-283v74l61 26l-24 96h-188l-23 -96l61 -26v-74h-252v74l58 26l151 519l-50 25v76h249l181 -620zM395 310l-30 121q-11 42 -20 80.5t-18 80.5q-9 -41 -18.5 -81.5t-19.5 -78.5l-28 -122h134zM225 913q37 0 55.5 -19t18.5 -48q0 -30 -20 -48.5t-54 -18.5
q-35 0 -54.5 17.5t-19.5 49.5q0 29 20 48t54 19zM426 913q37 0 55.5 -19t18.5 -48q0 -30 -20.5 -48.5t-53.5 -18.5q-35 0 -54.5 17.5t-19.5 49.5q0 29 20 48t54 19z" />
    <glyph glyph-name="Aring" unicode="&#xc5;" horiz-adv-x="687" 
d="M669 74v-74h-284v74l62 26l-25 98h-187l-23 -98l61 -26v-74h-252v74l58 26l175 605q-22 22 -22 63q0 54 32 82t81 28q48 0 80 -27t32 -80q0 -20 -6.5 -36.5t-17.5 -27.5l177 -607zM345 816q-20 0 -30 -12t-10 -33q0 -46 40 -46q17 0 28 11.5t11 34.5t-10.5 34t-28.5 11z
M397 308l-29 116l-39 168q-10 -42 -20 -84.5t-20 -82.5l-28 -117h136z" />
    <glyph glyph-name="AE" unicode="&#xc6;" horiz-adv-x="885" 
d="M844 202v-202h-500v74l59 26v107h-157l-41 -107l50 -26v-74h-243v74l57 26l222 520l-52 25v75h597v-200h-89l-19 83h-171v-183h162v-117h-162v-186h178l20 85h89zM403 601h-6l-109 -285h115v285z" />
    <glyph glyph-name="Ccedilla" unicode="&#xc7;" horiz-adv-x="636" 
d="M363 -54q34 -3 59.5 -20.5t25.5 -57.5q0 -47 -28 -72.5t-79 -25.5q-27 0 -50.5 5.5t-37.5 11.5l11 60q14 -4 30 -7t32 -3q19 0 29.5 6.5t10.5 23.5q0 18 -14 23.5t-43 5.5h-17l17 93q-65 6 -113.5 34t-80.5 75.5t-48 113.5t-16 148q0 183 79 277.5t220 94.5
q65 0 119.5 -13.5t112.5 -43.5v-196h-99l-26 109q-45 19 -91 19q-71 0 -112.5 -60.5t-41.5 -184.5q0 -120 39.5 -177.5t108.5 -57.5q51 0 94 18t79 47l61 -101q-47 -45 -103.5 -71t-119.5 -31z" />
    <glyph glyph-name="Egrave" unicode="&#xc8;" horiz-adv-x="588" 
d="M539 520h-89l-19 83h-173v-181h164v-117h-164v-188h180l20 85h89v-202h-504v74l61 26v519l-61 26v75h496v-200zM420 817l-39 -61l-182 90l56 90z" />
    <glyph glyph-name="Eacute" unicode="&#xc9;" horiz-adv-x="588" 
d="M539 520h-89l-19 83h-173v-181h164v-117h-164v-188h180l20 85h89v-202h-504v74l61 26v519l-61 26v75h496v-200zM417 846l-182 -90l-39 61l165 119z" />
    <glyph glyph-name="Ecircumflex" unicode="&#xca;" horiz-adv-x="588" 
d="M539 520h-89l-19 83h-173v-181h164v-117h-164v-188h180l20 85h89v-202h-504v74l61 26v519l-61 26v75h496v-200zM442 800l-54 -42l-80 67l-80 -67l-55 42l93 111h84z" />
    <glyph glyph-name="Edieresis" unicode="&#xcb;" horiz-adv-x="588" 
d="M539 520h-89l-19 83h-173v-181h164v-117h-164v-188h180l20 85h89v-202h-504v74l61 26v519l-61 26v75h496v-200zM205 914q37 0 55.5 -19t18.5 -48q0 -30 -20 -48.5t-54 -18.5q-35 0 -54.5 17.5t-19.5 49.5q0 29 20 48t54 19zM406 914q37 0 55.5 -19t18.5 -48
q0 -30 -20.5 -48.5t-53.5 -18.5q-35 0 -54.5 17.5t-19.5 49.5q0 29 20 48t54 19z" />
    <glyph glyph-name="Igrave" unicode="&#xcc;" horiz-adv-x="361" 
d="M319 646l-61 -26v-520l61 -26v-74h-276v74l61 26v520l-61 26v74h276v-74zM295 816l-39 -61l-182 90l56 90z" />
    <glyph glyph-name="Iacute" unicode="&#xcd;" horiz-adv-x="361" 
d="M319 646l-61 -26v-520l61 -26v-74h-276v74l61 26v520l-61 26v74h276v-74zM292 845l-182 -90l-39 61l165 119z" />
    <glyph glyph-name="Icircumflex" unicode="&#xce;" horiz-adv-x="361" 
d="M319 646l-61 -26v-520l61 -26v-74h-276v74l61 26v520l-61 26v74h276v-74zM317 799l-54 -42l-80 67l-80 -67l-55 42l93 111h84z" />
    <glyph glyph-name="Idieresis" unicode="&#xcf;" horiz-adv-x="361" 
d="M319 646l-61 -26v-520l61 -26v-74h-276v74l61 26v520l-61 26v74h276v-74zM80 913q37 0 55.5 -19t18.5 -48q0 -30 -20 -48.5t-54 -18.5q-35 0 -54.5 17.5t-19.5 49.5q0 29 20 48t54 19zM281 913q37 0 55.5 -19t18.5 -48q0 -30 -20.5 -48.5t-53.5 -18.5q-35 0 -54.5 17.5
t-19.5 49.5q0 29 20 48t54 19z" />
    <glyph glyph-name="Eth" unicode="&#xd0;" horiz-adv-x="697" 
d="M326 720q160 0 240 -95t80 -267q0 -110 -29.5 -180t-79 -109.5t-113.5 -54t-133 -14.5h-245v74l61 26v209h-59v105h59v205l-61 26v75h280zM311 117q37 0 69 12t55 40t36 74.5t13 115.5q0 56 -9.5 101.5t-29 77t-50 48.5t-72.5 17h-63v-189h109v-105h-109v-192h51z" />
    <glyph glyph-name="Ntilde" unicode="&#xd1;" horiz-adv-x="725" 
d="M688 646l-62 -26v-620h-135l-214 355q-14 23 -26.5 47t-22.5 49l-2 -1v-349l60 -27v-74h-243v74l62 27v518l-62 26v75h190l211 -349q16 -28 31 -55.5t29 -56.5h1v361l-61 26v74h244v-74zM517 878q-10 -50 -32.5 -77t-55.5 -27q-18 0 -35 5t-31.5 10.5t-26.5 10.5t-22 5
q-12 0 -20.5 -7t-17.5 -28l-65 26q11 52 34 81t57 29q19 0 35.5 -5t31 -11.5t26.5 -11.5t23 -5q13 0 21.5 6.5t16.5 25.5z" />
    <glyph glyph-name="Ograve" unicode="&#xd2;" horiz-adv-x="714" 
d="M359 732q145 0 224.5 -91t79.5 -278q0 -194 -80 -284.5t-228 -90.5q-149 0 -226.5 91t-77.5 284q0 187 79.5 278t228.5 91zM357 606q-70 0 -107.5 -59t-37.5 -183q0 -130 37.5 -190t107.5 -60t107.5 60t37.5 190q0 124 -38 183t-107 59zM474 816l-39 -61l-182 90l56 90z
" />
    <glyph glyph-name="Oacute" unicode="&#xd3;" horiz-adv-x="714" 
d="M359 732q145 0 224.5 -91t79.5 -278q0 -194 -80 -284.5t-228 -90.5q-149 0 -226.5 91t-77.5 284q0 187 79.5 278t228.5 91zM357 606q-70 0 -107.5 -59t-37.5 -183q0 -130 37.5 -190t107.5 -60t107.5 60t37.5 190q0 124 -38 183t-107 59zM471 845l-182 -90l-39 61l165 119
z" />
    <glyph glyph-name="Ocircumflex" unicode="&#xd4;" horiz-adv-x="714" 
d="M359 732q145 0 224.5 -91t79.5 -278q0 -194 -80 -284.5t-228 -90.5q-149 0 -226.5 91t-77.5 284q0 187 79.5 278t228.5 91zM357 606q-70 0 -107.5 -59t-37.5 -183q0 -130 37.5 -190t107.5 -60t107.5 60t37.5 190q0 124 -38 183t-107 59zM496 799l-54 -42l-80 67l-80 -67
l-55 42l93 111h84z" />
    <glyph glyph-name="Otilde" unicode="&#xd5;" horiz-adv-x="714" 
d="M359 732q145 0 224.5 -91t79.5 -278q0 -194 -80 -284.5t-228 -90.5q-149 0 -226.5 91t-77.5 284q0 187 79.5 278t228.5 91zM357 606q-70 0 -107.5 -59t-37.5 -183q0 -130 37.5 -190t107.5 -60t107.5 60t37.5 190q0 124 -38 183t-107 59zM519 878q-10 -50 -32.5 -77
t-55.5 -27q-18 0 -35 5t-31.5 10.5t-26.5 10.5t-22 5q-12 0 -20.5 -7t-17.5 -28l-65 26q11 52 34 81t57 29q19 0 35.5 -5t31 -11.5t26.5 -11.5t23 -5q13 0 21.5 6.5t16.5 25.5z" />
    <glyph glyph-name="Odieresis" unicode="&#xd6;" horiz-adv-x="714" 
d="M359 732q145 0 224.5 -91t79.5 -278q0 -194 -80 -284.5t-228 -90.5q-149 0 -226.5 91t-77.5 284q0 187 79.5 278t228.5 91zM357 606q-70 0 -107.5 -59t-37.5 -183q0 -130 37.5 -190t107.5 -60t107.5 60t37.5 190q0 124 -38 183t-107 59zM259 913q37 0 55.5 -19t18.5 -48
q0 -30 -20 -48.5t-54 -18.5q-35 0 -54.5 17.5t-19.5 49.5q0 29 20 48t54 19zM460 913q37 0 55.5 -19t18.5 -48q0 -30 -20.5 -48.5t-53.5 -18.5q-35 0 -54.5 17.5t-19.5 49.5q0 29 20 48t54 19z" />
    <glyph glyph-name="multiply" unicode="&#xd7;" 
d="M338 301l131 -132l-64 -64l-132 131l-133 -133l-68 68l133 133l-132 132l65 65l132 -133l133 134l68 -68z" />
    <glyph glyph-name="Oslash" unicode="&#xd8;" horiz-adv-x="714" 
d="M574 652q44 -46 66.5 -117.5t22.5 -171.5q0 -194 -80 -284.5t-228 -90.5q-80 0 -141 26l-32 -58h-100l60 108q-91 93 -91 299q0 187 79.5 278t228.5 91q84 0 143 -29l32 57h100zM357 606q-70 0 -107.5 -59t-37.5 -183q0 -46 5 -82.5t14 -65.5l200 367q-31 23 -74 23z
M357 114q70 0 107.5 60t37.5 190q0 41 -4.5 74t-12.5 60l-199 -363q30 -21 71 -21z" />
    <glyph glyph-name="Ugrave" unicode="&#xd9;" horiz-adv-x="673" 
d="M641 646l-60 -27v-369q0 -137 -63 -199.5t-180 -62.5q-116 0 -180.5 61.5t-64.5 200.5v369l-60 27v74h272v-74l-58 -27v-366q0 -74 28.5 -104t78.5 -30q54 0 80.5 30t26.5 104v366l-59 27v74h239v-74zM466 816l-39 -61l-182 90l56 90z" />
    <glyph glyph-name="Uacute" unicode="&#xda;" horiz-adv-x="673" 
d="M641 646l-60 -27v-369q0 -137 -63 -199.5t-180 -62.5q-116 0 -180.5 61.5t-64.5 200.5v369l-60 27v74h272v-74l-58 -27v-366q0 -74 28.5 -104t78.5 -30q54 0 80.5 30t26.5 104v366l-59 27v74h239v-74zM463 845l-182 -90l-39 61l165 119z" />
    <glyph glyph-name="Ucircumflex" unicode="&#xdb;" horiz-adv-x="673" 
d="M641 646l-60 -27v-369q0 -137 -63 -199.5t-180 -62.5q-116 0 -180.5 61.5t-64.5 200.5v369l-60 27v74h272v-74l-58 -27v-366q0 -74 28.5 -104t78.5 -30q54 0 80.5 30t26.5 104v366l-59 27v74h239v-74zM488 799l-54 -42l-80 67l-80 -67l-55 42l93 111h84z" />
    <glyph glyph-name="Udieresis" unicode="&#xdc;" horiz-adv-x="673" 
d="M641 646l-60 -27v-369q0 -137 -63 -199.5t-180 -62.5q-116 0 -180.5 61.5t-64.5 200.5v369l-60 27v74h272v-74l-58 -27v-366q0 -74 28.5 -104t78.5 -30q54 0 80.5 30t26.5 104v366l-59 27v74h239v-74zM251 913q37 0 55.5 -19t18.5 -48q0 -30 -20 -48.5t-54 -18.5
q-35 0 -54.5 17.5t-19.5 49.5q0 29 20 48t54 19zM452 913q37 0 55.5 -19t18.5 -48q0 -30 -20.5 -48.5t-53.5 -18.5q-35 0 -54.5 17.5t-19.5 49.5q0 29 20 48t54 19z" />
    <glyph glyph-name="Yacute" unicode="&#xdd;" horiz-adv-x="647" 
d="M630 645l-50 -26l-173 -357v-161l68 -26v-75h-290v75l68 26v162l-182 356l-53 26v75h279v-75l-55 -27l98 -218h5l101 219l-57 26v75h241v-75zM451 845l-182 -90l-39 61l165 119z" />
    <glyph glyph-name="Thorn" unicode="&#xde;" horiz-adv-x="610" 
d="M341 646l-86 -27v-40h93q106 0 166.5 -50.5t60.5 -156.5q0 -107 -63.5 -160t-168.5 -53h-88v-58l86 -27v-74h-301v74l61 27v518l-61 27v74h301v-74zM255 464v-196h73q101 0 101 99q0 50 -23 73.5t-73 23.5h-78z" />
    <glyph glyph-name="germandbls" unicode="&#xdf;" horiz-adv-x="631" 
d="M335 730q102 0 160 -45.5t58 -136.5q0 -30 -8 -58t-23.5 -51t-37.5 -39.5t-49 -25.5q77 -14 118 -63.5t41 -123.5q0 -89 -44 -143.5t-129 -54.5q-39 0 -74 7.5t-67 25.5v139h65l18 -67q17 -5 28 -5q32 0 49 29t17 69q0 60 -38.5 89.5t-107.5 35.5v112q46 6 73 36t27 78
q0 42 -21 64.5t-63 22.5q-84 0 -84 -101v-524h-201v70l56 26v324h-58v88l58 18v24q0 89 62 134.5t175 45.5z" />
    <glyph glyph-name="agrave" unicode="&#xe0;" horiz-adv-x="525" 
d="M248 541q101 0 153 -44.5t52 -144.5v-230q0 -17 6 -25.5t25 -8.5h12v-88q-14 -3 -30 -5.5t-34 -2.5q-42 0 -70 16.5t-39 62.5q-26 -45 -63 -64t-84 -19q-66 0 -107.5 37.5t-41.5 116.5q0 33 11 62.5t36.5 52t66 36t100.5 13.5q20 0 35 -1t31 -3v43q0 83 -78 83
q-39 0 -74 -10.5t-70 -30.5l-36 94q43 26 95 43t104 17zM261 228q-95 0 -95 -78q0 -32 16.5 -46.5t45.5 -14.5q32 0 55.5 26t23.5 75v33q-9 2 -20 3.5t-26 1.5zM365 635l-53 -56l-172 135l75 81z" />
    <glyph glyph-name="aacute" unicode="&#xe1;" horiz-adv-x="525" 
d="M248 541q101 0 153 -44.5t52 -144.5v-230q0 -17 6 -25.5t25 -8.5h12v-88q-14 -3 -30 -5.5t-34 -2.5q-42 0 -70 16.5t-39 62.5q-26 -45 -63 -64t-84 -19q-66 0 -107.5 37.5t-41.5 116.5q0 33 11 62.5t36.5 52t66 36t100.5 13.5q20 0 35 -1t31 -3v43q0 83 -78 83
q-39 0 -74 -10.5t-70 -30.5l-36 94q43 26 95 43t104 17zM261 228q-95 0 -95 -78q0 -32 16.5 -46.5t45.5 -14.5q32 0 55.5 26t23.5 75v33q-9 2 -20 3.5t-26 1.5zM376 714l-172 -135l-53 56l150 160z" />
    <glyph glyph-name="acircumflex" unicode="&#xe2;" horiz-adv-x="525" 
d="M248 541q101 0 153 -44.5t52 -144.5v-230q0 -17 6 -25.5t25 -8.5h12v-88q-14 -3 -30 -5.5t-34 -2.5q-42 0 -70 16.5t-39 62.5q-26 -45 -63 -64t-84 -19q-66 0 -107.5 37.5t-41.5 116.5q0 33 11 62.5t36.5 52t66 36t100.5 13.5q20 0 35 -1t31 -3v43q0 83 -78 83
q-39 0 -74 -10.5t-70 -30.5l-36 94q43 26 95 43t104 17zM261 228q-95 0 -95 -78q0 -32 16.5 -46.5t45.5 -14.5q32 0 55.5 26t23.5 75v33q-9 2 -20 3.5t-26 1.5zM256 674l-86 -98l-60 38l105 155h81l106 -155l-60 -38z" />
    <glyph glyph-name="atilde" unicode="&#xe3;" horiz-adv-x="525" 
d="M248 541q101 0 153 -44.5t52 -144.5v-230q0 -17 6 -25.5t25 -8.5h12v-88q-14 -3 -30 -5.5t-34 -2.5q-42 0 -70 16.5t-39 62.5q-26 -45 -63 -64t-84 -19q-66 0 -107.5 37.5t-41.5 116.5q0 33 11 62.5t36.5 52t66 36t100.5 13.5q20 0 35 -1t31 -3v43q0 83 -78 83
q-39 0 -74 -10.5t-70 -30.5l-36 94q43 26 95 43t104 17zM261 228q-95 0 -95 -78q0 -32 16.5 -46.5t45.5 -14.5q32 0 55.5 26t23.5 75v33q-9 2 -20 3.5t-26 1.5zM413 703q-10 -50 -32.5 -77t-55.5 -27q-18 0 -35 5t-31.5 10.5t-26.5 10.5t-22 5q-12 0 -20.5 -7t-17.5 -28
l-65 26q11 52 34 81t57 29q19 0 35.5 -5t31 -11.5t26.5 -11.5t23 -5q13 0 21.5 6.5t16.5 25.5z" />
    <glyph glyph-name="adieresis" unicode="&#xe4;" horiz-adv-x="525" 
d="M248 541q101 0 153 -44.5t52 -144.5v-230q0 -17 6 -25.5t25 -8.5h12v-88q-14 -3 -30 -5.5t-34 -2.5q-42 0 -70 16.5t-39 62.5q-26 -45 -63 -64t-84 -19q-66 0 -107.5 37.5t-41.5 116.5q0 33 11 62.5t36.5 52t66 36t100.5 13.5q20 0 35 -1t31 -3v43q0 83 -78 83
q-39 0 -74 -10.5t-70 -30.5l-36 94q43 26 95 43t104 17zM261 228q-95 0 -95 -78q0 -32 16.5 -46.5t45.5 -14.5q32 0 55.5 26t23.5 75v33q-9 2 -20 3.5t-26 1.5zM158 738q37 0 55.5 -19t18.5 -48q0 -30 -20 -48.5t-54 -18.5q-35 0 -54.5 17.5t-19.5 49.5q0 29 20 48t54 19z
M359 738q37 0 55.5 -19t18.5 -48q0 -30 -20.5 -48.5t-53.5 -18.5q-35 0 -54.5 17.5t-19.5 49.5q0 29 20 48t54 19z" />
    <glyph glyph-name="aring" unicode="&#xe5;" horiz-adv-x="525" 
d="M248 541q101 0 153 -44.5t52 -144.5v-230q0 -17 6 -25.5t25 -8.5h12v-88q-14 -3 -30 -5.5t-34 -2.5q-42 0 -70 16.5t-39 62.5q-26 -45 -63 -64t-84 -19q-66 0 -107.5 37.5t-41.5 116.5q0 33 11 62.5t36.5 52t66 36t100.5 13.5q20 0 35 -1t31 -3v43q0 83 -78 83
q-39 0 -74 -10.5t-70 -30.5l-36 94q43 26 95 43t104 17zM261 228q-95 0 -95 -78q0 -32 16.5 -46.5t45.5 -14.5q32 0 55.5 26t23.5 75v33q-9 2 -20 3.5t-26 1.5zM264 780q46 0 76 -24.5t30 -73.5q0 -48 -30 -73.5t-76 -25.5q-48 0 -77 23.5t-29 71.5q0 50 30 76t76 26z
M264 724q-34 0 -34 -43q0 -42 34 -42t34 43q0 42 -34 42z" />
    <glyph glyph-name="ae" unicode="&#xe6;" horiz-adv-x="796" 
d="M551 541q100 0 152.5 -59.5t52.5 -184.5q0 -15 -0.5 -36t-2.5 -35h-294q1 -57 24 -92.5t80 -35.5q33 0 67.5 10t76.5 30l32 -92q-43 -28 -91 -43t-107 -15q-58 0 -103.5 19.5t-76.5 64.5q-28 -42 -71 -63t-97 -21q-37 0 -67.5 9.5t-52.5 29t-34 49t-12 70.5
q0 34 11.5 64.5t35.5 53t62.5 36t92.5 13.5q43 0 78 -6v39q0 42 -19.5 62.5t-55.5 20.5q-41 0 -78 -11t-71 -31l-35 94q44 26 94 43t101 17q48 0 87 -15.5t63 -51.5q28 33 68.5 50t89.5 17zM544 438q-24 0 -40.5 -10.5t-26.5 -28t-14.5 -39.5t-4.5 -46h159q-1 59 -16 91.5
t-57 32.5zM265 234q-52 0 -74.5 -21t-22.5 -59q0 -33 16 -51t44 -18q33 0 57.5 23t29.5 58q-3 17 -5 32.5t-3 30.5q-22 5 -42 5z" />
    <glyph glyph-name="ccedilla" unicode="&#xe7;" horiz-adv-x="515" 
d="M281 428q-42 0 -67 -38.5t-25 -121.5q0 -85 29 -124.5t82 -39.5q29 0 64.5 9.5t73.5 24.5l31 -96q-40 -22 -83.5 -35.5t-87.5 -17.5l-7 -37q34 -3 59.5 -20.5t25.5 -57.5q0 -47 -28 -72.5t-79 -25.5q-27 0 -50.5 5.5t-37.5 11.5l11 60q14 -4 30 -7t32 -3q19 0 29.5 6.5
t10.5 23.5q0 18 -14 23.5t-43 5.5h-17l16 88q-44 5 -81 23t-63.5 51.5t-41.5 82.5t-15 116q0 134 62 206t179 72q57 0 102 -11.5t91 -36.5v-173h-98l-24 94q-29 14 -66 14z" />
    <glyph glyph-name="egrave" unicode="&#xe8;" horiz-adv-x="527" 
d="M276 541q215 0 215 -245q0 -14 -0.5 -35t-2.5 -35h-298q2 -58 28.5 -92t83.5 -34q32 0 65.5 9.5t74.5 28.5l31 -92q-42 -28 -90.5 -43t-108.5 -15q-56 0 -100.5 16t-75 49.5t-47 85.5t-16.5 123q0 136 64 207.5t177 71.5zM279 438q-25 0 -41.5 -10.5t-26.5 -28t-14 -40
t-4 -45.5h160q-1 58 -15.5 91t-58.5 33zM394 635l-53 -56l-172 135l75 81z" />
    <glyph glyph-name="eacute" unicode="&#xe9;" horiz-adv-x="527" 
d="M276 541q215 0 215 -245q0 -14 -0.5 -35t-2.5 -35h-298q2 -58 28.5 -92t83.5 -34q32 0 65.5 9.5t74.5 28.5l31 -92q-42 -28 -90.5 -43t-108.5 -15q-56 0 -100.5 16t-75 49.5t-47 85.5t-16.5 123q0 136 64 207.5t177 71.5zM279 438q-25 0 -41.5 -10.5t-26.5 -28t-14 -40
t-4 -45.5h160q-1 58 -15.5 91t-58.5 33zM405 714l-172 -135l-53 56l150 160z" />
    <glyph glyph-name="ecircumflex" unicode="&#xea;" horiz-adv-x="527" 
d="M276 541q215 0 215 -245q0 -14 -0.5 -35t-2.5 -35h-298q2 -58 28.5 -92t83.5 -34q32 0 65.5 9.5t74.5 28.5l31 -92q-42 -28 -90.5 -43t-108.5 -15q-56 0 -100.5 16t-75 49.5t-47 85.5t-16.5 123q0 136 64 207.5t177 71.5zM279 438q-25 0 -41.5 -10.5t-26.5 -28t-14 -40
t-4 -45.5h160q-1 58 -15.5 91t-58.5 33zM285 674l-86 -98l-60 38l105 155h81l106 -155l-60 -38z" />
    <glyph glyph-name="edieresis" unicode="&#xeb;" horiz-adv-x="527" 
d="M276 541q215 0 215 -245q0 -14 -0.5 -35t-2.5 -35h-298q2 -58 28.5 -92t83.5 -34q32 0 65.5 9.5t74.5 28.5l31 -92q-42 -28 -90.5 -43t-108.5 -15q-56 0 -100.5 16t-75 49.5t-47 85.5t-16.5 123q0 136 64 207.5t177 71.5zM279 438q-25 0 -41.5 -10.5t-26.5 -28t-14 -40
t-4 -45.5h160q-1 58 -15.5 91t-58.5 33zM187 738q37 0 55.5 -19t18.5 -48q0 -30 -20 -48.5t-54 -18.5q-35 0 -54.5 17.5t-19.5 49.5q0 29 20 48t54 19zM388 738q37 0 55.5 -19t18.5 -48q0 -30 -20.5 -48.5t-53.5 -18.5q-35 0 -54.5 17.5t-19.5 49.5q0 29 20 48t54 19z" />
    <glyph glyph-name="igrave" unicode="&#xec;" horiz-adv-x="334" 
d="M243 97l56 -25v-72h-259v72l56 25v334l-56 25v73h203v-432zM272 635l-53 -56l-172 135l75 81z" />
    <glyph glyph-name="iacute" unicode="&#xed;" horiz-adv-x="334" 
d="M243 97l56 -25v-72h-259v72l56 25v334l-56 25v73h203v-432zM283 714l-172 -135l-53 56l150 160z" />
    <glyph glyph-name="icircumflex" unicode="&#xee;" horiz-adv-x="334" 
d="M243 97l56 -25v-72h-259v72l56 25v334l-56 25v73h203v-432zM163 674l-86 -98l-60 38l105 155h81l106 -155l-60 -38z" />
    <glyph glyph-name="idieresis" unicode="&#xef;" horiz-adv-x="334" 
d="M243 97l56 -25v-72h-259v72l56 25v334l-56 25v73h203v-432zM65 738q37 0 55.5 -19t18.5 -48q0 -30 -20 -48.5t-54 -18.5q-35 0 -54.5 17.5t-19.5 49.5q0 29 20 48t54 19zM266 738q37 0 55.5 -19t18.5 -48q0 -30 -20.5 -48.5t-53.5 -18.5q-35 0 -54.5 17.5t-19.5 49.5
q0 29 20 48t54 19z" />
    <glyph glyph-name="eth" unicode="&#xf0;" horiz-adv-x="521" 
d="M479 303q1 -152 -58.5 -233.5t-171.5 -81.5q-45 0 -85 13t-70 41t-47 72.5t-17 108.5q0 104 47.5 164.5t131.5 60.5q41 0 74 -15.5t59 -42.5q-8 48 -27 83.5t-49.5 62.5t-71 46.5t-89.5 33.5l41 107q96 -18 161 -58l77 66l73 -79l-66 -59q45 -54 66 -126.5t22 -163.5z
M250 105q95 0 90 191q-15 17 -38 32.5t-52 15.5q-37 0 -60.5 -29t-23.5 -92t23.5 -90.5t60.5 -27.5z" />
    <glyph glyph-name="ntilde" unicode="&#xf1;" horiz-adv-x="631" 
d="M388 541q83 0 120.5 -47.5t37.5 -130.5v-268l56 -25v-70h-203v335q0 47 -15 67t-50 20q-15 0 -29 -5t-26 -12.5t-21.5 -15.5t-15.5 -15v-278l56 -26v-70h-258v70l56 26v335l-56 25v73h178l10 -59h2q29 31 68.5 51t89.5 20zM475 703q-10 -50 -32.5 -77t-55.5 -27
q-18 0 -35 5t-31.5 10.5t-26.5 10.5t-22 5q-12 0 -20.5 -7t-17.5 -28l-65 26q11 52 34 81t57 29q19 0 35.5 -5t31 -11.5t26.5 -11.5t23 -5q13 0 21.5 6.5t16.5 25.5z" />
    <glyph glyph-name="ograve" unicode="&#xf2;" horiz-adv-x="575" 
d="M288 541q58 0 104.5 -16t79 -49.5t50 -86t17.5 -125.5q0 -72 -19 -124t-53 -85.5t-81.5 -50t-104.5 -16.5t-102.5 16t-77.5 50t-49 86t-17 124q0 73 18.5 125t52.5 86t80 50t102 16zM288 430q-44 0 -71 -37.5t-27 -128.5q0 -45 7 -76.5t20 -51t31 -28t40 -8.5
q21 0 38.5 8.5t30 28t20 51t7.5 76.5q0 46 -7.5 77.5t-20 51t-30 28.5t-38.5 9zM398 635l-53 -56l-172 135l75 81z" />
    <glyph glyph-name="oacute" unicode="&#xf3;" horiz-adv-x="575" 
d="M288 541q58 0 104.5 -16t79 -49.5t50 -86t17.5 -125.5q0 -72 -19 -124t-53 -85.5t-81.5 -50t-104.5 -16.5t-102.5 16t-77.5 50t-49 86t-17 124q0 73 18.5 125t52.5 86t80 50t102 16zM288 430q-44 0 -71 -37.5t-27 -128.5q0 -45 7 -76.5t20 -51t31 -28t40 -8.5
q21 0 38.5 8.5t30 28t20 51t7.5 76.5q0 46 -7.5 77.5t-20 51t-30 28.5t-38.5 9zM409 714l-172 -135l-53 56l150 160z" />
    <glyph glyph-name="ocircumflex" unicode="&#xf4;" horiz-adv-x="575" 
d="M288 541q58 0 104.5 -16t79 -49.5t50 -86t17.5 -125.5q0 -72 -19 -124t-53 -85.5t-81.5 -50t-104.5 -16.5t-102.5 16t-77.5 50t-49 86t-17 124q0 73 18.5 125t52.5 86t80 50t102 16zM288 430q-44 0 -71 -37.5t-27 -128.5q0 -45 7 -76.5t20 -51t31 -28t40 -8.5
q21 0 38.5 8.5t30 28t20 51t7.5 76.5q0 46 -7.5 77.5t-20 51t-30 28.5t-38.5 9zM289 674l-86 -98l-60 38l105 155h81l106 -155l-60 -38z" />
    <glyph glyph-name="otilde" unicode="&#xf5;" horiz-adv-x="575" 
d="M288 541q58 0 104.5 -16t79 -49.5t50 -86t17.5 -125.5q0 -72 -19 -124t-53 -85.5t-81.5 -50t-104.5 -16.5t-102.5 16t-77.5 50t-49 86t-17 124q0 73 18.5 125t52.5 86t80 50t102 16zM288 430q-44 0 -71 -37.5t-27 -128.5q0 -45 7 -76.5t20 -51t31 -28t40 -8.5
q21 0 38.5 8.5t30 28t20 51t7.5 76.5q0 46 -7.5 77.5t-20 51t-30 28.5t-38.5 9zM446 703q-10 -50 -32.5 -77t-55.5 -27q-18 0 -35 5t-31.5 10.5t-26.5 10.5t-22 5q-12 0 -20.5 -7t-17.5 -28l-65 26q11 52 34 81t57 29q19 0 35.5 -5t31 -11.5t26.5 -11.5t23 -5q13 0 21.5 6.5
t16.5 25.5z" />
    <glyph glyph-name="odieresis" unicode="&#xf6;" horiz-adv-x="575" 
d="M288 541q58 0 104.5 -16t79 -49.5t50 -86t17.5 -125.5q0 -72 -19 -124t-53 -85.5t-81.5 -50t-104.5 -16.5t-102.5 16t-77.5 50t-49 86t-17 124q0 73 18.5 125t52.5 86t80 50t102 16zM288 430q-44 0 -71 -37.5t-27 -128.5q0 -45 7 -76.5t20 -51t31 -28t40 -8.5
q21 0 38.5 8.5t30 28t20 51t7.5 76.5q0 46 -7.5 77.5t-20 51t-30 28.5t-38.5 9zM191 738q37 0 55.5 -19t18.5 -48q0 -30 -20 -48.5t-54 -18.5q-35 0 -54.5 17.5t-19.5 49.5q0 29 20 48t54 19zM392 738q37 0 55.5 -19t18.5 -48q0 -30 -20.5 -48.5t-53.5 -18.5
q-35 0 -54.5 17.5t-19.5 49.5q0 29 20 48t54 19z" />
    <glyph glyph-name="divide" unicode="&#xf7;" 
d="M285 520q24 0 40.5 -16.5t16.5 -42.5q0 -23 -16 -39.5t-41 -16.5q-24 0 -41 16.5t-17 39.5q0 25 17 42t41 17zM518 255h-467v91h467v-91zM284 200q24 0 40.5 -17.5t16.5 -41.5q0 -23 -16 -40t-42 -17q-23 0 -40 17t-17 40q0 25 17 42t41 17z" />
    <glyph glyph-name="oslash" unicode="&#xf8;" horiz-adv-x="575" 
d="M455 490q41 -32 62.5 -88t21.5 -138q0 -72 -19 -124t-53 -85.5t-81.5 -50t-104.5 -16.5q-26 0 -50 3t-45 11l-25 -46h-85l44 81q-41 32 -63 88.5t-22 138.5q0 73 18.5 125t52.5 86t80 50t102 16q55 0 102 -15l26 48h85zM183 264q0 -55 11 -93l139 253q-20 11 -45 11
q-23 0 -42.5 -9t-33.5 -29.5t-21.5 -53t-7.5 -79.5zM288 95q22 0 41 9t32.5 29t21.5 52t8 79q0 53 -11 91l-137 -250q19 -10 45 -10z" />
    <glyph glyph-name="ugrave" unicode="&#xf9;" horiz-adv-x="614" 
d="M522 96l57 -26v-70h-175l-15 61q-24 -30 -62.5 -51.5t-89.5 -21.5q-41 0 -70.5 12.5t-48 35t-27 54.5t-8.5 71v266l-54 29v73h201v-341q0 -40 13.5 -60t47.5 -20q28 0 50 15t36 31l-1 273l-54 29v73h200v-433zM407 635l-53 -56l-172 135l75 81z" />
    <glyph glyph-name="uacute" unicode="&#xfa;" horiz-adv-x="614" 
d="M522 96l57 -26v-70h-175l-15 61q-24 -30 -62.5 -51.5t-89.5 -21.5q-41 0 -70.5 12.5t-48 35t-27 54.5t-8.5 71v266l-54 29v73h201v-341q0 -40 13.5 -60t47.5 -20q28 0 50 15t36 31l-1 273l-54 29v73h200v-433zM418 714l-172 -135l-53 56l150 160z" />
    <glyph glyph-name="ucircumflex" unicode="&#xfb;" horiz-adv-x="614" 
d="M522 96l57 -26v-70h-175l-15 61q-24 -30 -62.5 -51.5t-89.5 -21.5q-41 0 -70.5 12.5t-48 35t-27 54.5t-8.5 71v266l-54 29v73h201v-341q0 -40 13.5 -60t47.5 -20q28 0 50 15t36 31l-1 273l-54 29v73h200v-433zM298 674l-86 -98l-60 38l105 155h81l106 -155l-60 -38z" />
    <glyph glyph-name="udieresis" unicode="&#xfc;" horiz-adv-x="614" 
d="M522 96l57 -26v-70h-175l-15 61q-24 -30 -62.5 -51.5t-89.5 -21.5q-41 0 -70.5 12.5t-48 35t-27 54.5t-8.5 71v266l-54 29v73h201v-341q0 -40 13.5 -60t47.5 -20q28 0 50 15t36 31l-1 273l-54 29v73h200v-433zM200 738q37 0 55.5 -19t18.5 -48q0 -30 -20 -48.5t-54 -18.5
q-35 0 -54.5 17.5t-19.5 49.5q0 29 20 48t54 19zM401 738q37 0 55.5 -19t18.5 -48q0 -30 -20.5 -48.5t-53.5 -18.5q-35 0 -54.5 17.5t-19.5 49.5q0 29 20 48t54 19z" />
    <glyph glyph-name="yacute" unicode="&#xfd;" horiz-adv-x="559" 
d="M544 455l-41 -25l-153 -440q-18 -52 -35 -89t-38.5 -61t-50 -35.5t-68.5 -11.5q-32 0 -58 4.5t-46 9.5l15 107q11 -2 28 -4.5t36 -2.5q21 0 36 13.5t26 50.5l7 25l-146 434l-41 25v74h243v-73l-45 -25l77 -292h2l81 292l-45 25v73h216v-74zM404 714l-172 -135l-53 56
l150 160z" />
    <glyph glyph-name="thorn" unicode="&#xfe;" horiz-adv-x="607" 
d="M239 474q28 29 65.5 48t84.5 19q40 0 73.5 -15t57.5 -48t37.5 -85t13.5 -126q0 -142 -49.5 -210.5t-146.5 -68.5q-51 0 -83.5 19t-49.5 37v-147l82 -26v-71h-284v71l56 26v724l-56 26v73h199v-246zM331 425q-28 0 -50 -14t-39 -37v-227q12 -15 33.5 -29.5t50.5 -14.5
q43 0 67 36.5t24 122.5q0 87 -22 125t-64 38z" />
    <glyph glyph-name="ydieresis" unicode="&#xff;" horiz-adv-x="559" 
d="M544 455l-41 -25l-153 -440q-18 -52 -35 -89t-38.5 -61t-50 -35.5t-68.5 -11.5q-32 0 -58 4.5t-46 9.5l15 107q11 -2 28 -4.5t36 -2.5q21 0 36 13.5t26 50.5l7 25l-146 434l-41 25v74h243v-73l-45 -25l77 -292h2l81 292l-45 25v73h216v-74zM186 738q37 0 55.5 -19
t18.5 -48q0 -30 -20 -48.5t-54 -18.5q-35 0 -54.5 17.5t-19.5 49.5q0 29 20 48t54 19zM387 738q37 0 55.5 -19t18.5 -48q0 -30 -20.5 -48.5t-53.5 -18.5q-35 0 -54.5 17.5t-19.5 49.5q0 29 20 48t54 19z" />
    <glyph glyph-name="quotedbl" unicode="&#x22;" horiz-adv-x="365" 
d="M154 441h-94v290h94v-290zM305 441h-94v290h94v-290z" />
    <glyph glyph-name="exclam" unicode="!" horiz-adv-x="309" 
d="M231 482l-13 -267h-125l-13 267v238h151v-238zM156 151q37 0 59.5 -21.5t22.5 -57.5q0 -35 -22 -57.5t-60 -22.5t-60.5 22.5t-22.5 57.5q0 36 22.5 57.5t60.5 21.5z" />
    <glyph glyph-name="Amacron" unicode="&#x100;" horiz-adv-x="687" 
d="M669 74v-74h-283v74l61 26l-24 96h-188l-23 -96l61 -26v-74h-252v74l58 26l151 519l-50 25v76h249l181 -620zM395 310l-30 121q-11 42 -20 80.5t-18 80.5q-9 -41 -18.5 -81.5t-19.5 -78.5l-28 -122h134zM457 782h-264v88h264v-88z" />
    <glyph glyph-name="Aogonek" unicode="&#x104;" horiz-adv-x="687" 
d="M682 -201q-19 -11 -47.5 -21.5t-60.5 -10.5q-51 0 -73 25t-22 61q0 41 23.5 79.5t65.5 67.5h-182v74l61 26l-24 96h-188l-23 -96l61 -26v-74h-252v74l58 26l151 519l-50 25v76h249l181 -620l59 -26v-74q-42 -26 -63.5 -58.5t-21.5 -59.5q0 -32 29 -32q20 0 47 12z
M395 310l-30 121q-11 42 -20 80.5t-18 80.5q-9 -41 -18.5 -81.5t-19.5 -78.5l-28 -122h134z" />
    <glyph glyph-name="Cacute" unicode="&#x106;" horiz-adv-x="636" 
d="M350 732q65 0 119.5 -13.5t112.5 -43.5v-196h-99l-26 109q-45 19 -91 19q-71 0 -112.5 -60.5t-41.5 -184.5q0 -120 39.5 -177.5t108.5 -57.5q51 0 94 18t79 47l61 -101q-52 -51 -117 -77t-137 -26q-73 0 -127.5 25.5t-90.5 73.5t-53.5 117t-17.5 156q0 183 79 277.5
t220 94.5zM474 845l-182 -90l-39 61l165 119z" />
    <glyph glyph-name="Ccaron" unicode="&#x10c;" horiz-adv-x="636" 
d="M350 732q65 0 119.5 -13.5t112.5 -43.5v-196h-99l-26 109q-45 19 -91 19q-71 0 -112.5 -60.5t-41.5 -184.5q0 -120 39.5 -177.5t108.5 -57.5q51 0 94 18t79 47l61 -101q-52 -51 -117 -77t-137 -26q-73 0 -127.5 25.5t-90.5 73.5t-53.5 117t-17.5 156q0 183 79 277.5
t220 94.5zM321 761l-93 111l55 42l80 -67l80 67l54 -42l-92 -111h-84z" />
    <glyph glyph-name="Ccircumflex" unicode="&#x108;" horiz-adv-x="636" 
d="M350 732q65 0 119.5 -13.5t112.5 -43.5v-196h-99l-26 109q-45 19 -91 19q-71 0 -112.5 -60.5t-41.5 -184.5q0 -120 39.5 -177.5t108.5 -57.5q51 0 94 18t79 47l61 -101q-52 -51 -117 -77t-137 -26q-73 0 -127.5 25.5t-90.5 73.5t-53.5 117t-17.5 156q0 183 79 277.5
t220 94.5zM499 799l-54 -42l-80 67l-80 -67l-55 42l93 111h84z" />
    <glyph glyph-name="Cdotaccent" unicode="&#x10a;" horiz-adv-x="636" 
d="M350 732q65 0 119.5 -13.5t112.5 -43.5v-196h-99l-26 109q-45 19 -91 19q-71 0 -112.5 -60.5t-41.5 -184.5q0 -120 39.5 -177.5t108.5 -57.5q51 0 94 18t79 47l61 -101q-52 -51 -117 -77t-137 -26q-73 0 -127.5 25.5t-90.5 73.5t-53.5 117t-17.5 156q0 183 79 277.5
t220 94.5zM361 911q38 0 63.5 -19.5t25.5 -57.5t-25 -57t-64 -19q-37 0 -63 19t-26 57t25.5 57.5t63.5 19.5z" />
    <glyph glyph-name="Dcaron" unicode="&#x10e;" horiz-adv-x="694" 
d="M323 720q160 0 240 -95t80 -267q0 -110 -29.5 -180t-79 -109.5t-113.5 -54t-133 -14.5h-245v74l61 26v519l-61 26v75h280zM257 117h51q37 0 69 12t55 40t36 74.5t13 115.5q0 56 -9.5 101.5t-29 77t-50 48.5t-72.5 17h-63v-486zM304 761l-93 111l55 42l80 -67l80 67
l54 -42l-92 -111h-84z" />
    <glyph glyph-name="Dcroat" unicode="&#x110;" horiz-adv-x="697" 
d="M326 720q160 0 240 -95t80 -267q0 -110 -29.5 -180t-79 -109.5t-113.5 -54t-133 -14.5h-245v74l61 26v209h-59v105h59v205l-61 26v75h280zM311 117q37 0 69 12t55 40t36 74.5t13 115.5q0 56 -9.5 101.5t-29 77t-50 48.5t-72.5 17h-63v-189h109v-105h-109v-192h51z" />
    <glyph glyph-name="Ebreve" unicode="&#x114;" horiz-adv-x="588" 
d="M539 520h-89l-19 83h-173v-181h164v-117h-164v-188h180l20 85h89v-202h-504v74l61 26v519l-61 26v75h496v-200zM443 900q-5 -71 -37 -106.5t-101 -35.5q-68 0 -100 35.5t-37 106.5l75 12q5 -36 19.5 -52t42.5 -16q29 0 43.5 16t19.5 52z" />
    <glyph glyph-name="Ecaron" unicode="&#x11a;" horiz-adv-x="588" 
d="M539 520h-89l-19 83h-173v-181h164v-117h-164v-188h180l20 85h89v-202h-504v74l61 26v519l-61 26v75h496v-200zM264 762l-93 111l55 42l80 -67l80 67l54 -42l-92 -111h-84z" />
    <glyph glyph-name="Edotaccent" unicode="&#x116;" horiz-adv-x="588" 
d="M539 520h-89l-19 83h-173v-181h164v-117h-164v-188h180l20 85h89v-202h-504v74l61 26v519l-61 26v75h496v-200zM304 912q38 0 63.5 -19.5t25.5 -57.5t-25 -57t-64 -19q-37 0 -63 19t-26 57t25.5 57.5t63.5 19.5z" />
    <glyph glyph-name="Emacron" unicode="&#x112;" horiz-adv-x="588" 
d="M539 520h-89l-19 83h-173v-181h164v-117h-164v-188h180l20 85h89v-202h-504v74l61 26v519l-61 26v75h496v-200zM437 783h-264v88h264v-88z" />
    <glyph glyph-name="Eogonek" unicode="&#x118;" horiz-adv-x="588" 
d="M560 -201q-19 -11 -47.5 -21.5t-60.5 -10.5q-51 0 -73 25t-22 61q0 41 23.5 79.5t65.5 67.5h-403v74l61 26v519l-61 26v75h496v-200h-89l-19 83h-173v-181h164v-117h-164v-188h180l20 85h89v-202q-42 -26 -63.5 -58.5t-21.5 -59.5q0 -32 29 -32q20 0 47 12z" />
    <glyph glyph-name="Gbreve" unicode="&#x11e;" horiz-adv-x="683" 
d="M366 733q66 0 122 -14.5t111 -43.5v-197h-103l-29 111q-47 18 -90 18q-36 0 -66.5 -13.5t-52.5 -43t-34 -76t-12 -111.5q0 -119 39 -184.5t123 -65.5q25 0 51 4.5t50 14.5v130l-92 24v75h271v-74l-42 -25v-209q-55 -32 -118.5 -48.5t-139.5 -16.5q-77 0 -134 25.5
t-94.5 73.5t-56 117t-18.5 156q0 88 19.5 157.5t59 117.5t98.5 73t138 25zM507 899q-5 -71 -37 -106.5t-101 -35.5q-68 0 -100 35.5t-37 106.5l75 12q5 -36 19.5 -52t42.5 -16q29 0 43.5 16t19.5 52z" />
    <glyph glyph-name="Gcircumflex" unicode="&#x11c;" horiz-adv-x="683" 
d="M366 733q66 0 122 -14.5t111 -43.5v-197h-103l-29 111q-47 18 -90 18q-36 0 -66.5 -13.5t-52.5 -43t-34 -76t-12 -111.5q0 -119 39 -184.5t123 -65.5q25 0 51 4.5t50 14.5v130l-92 24v75h271v-74l-42 -25v-209q-55 -32 -118.5 -48.5t-139.5 -16.5q-77 0 -134 25.5
t-94.5 73.5t-56 117t-18.5 156q0 88 19.5 157.5t59 117.5t98.5 73t138 25zM506 799l-54 -42l-80 67l-80 -67l-55 42l93 111h84z" />
    <glyph glyph-name="Gcommaaccent" unicode="&#x122;" horiz-adv-x="683" 
d="M366 733q66 0 122 -14.5t111 -43.5v-197h-103l-29 111q-47 18 -90 18q-36 0 -66.5 -13.5t-52.5 -43t-34 -76t-12 -111.5q0 -119 39 -184.5t123 -65.5q25 0 51 4.5t50 14.5v130l-92 24v75h271v-74l-42 -25v-209q-55 -32 -118.5 -48.5t-139.5 -16.5q-77 0 -134 25.5
t-94.5 73.5t-56 117t-18.5 156q0 88 19.5 157.5t59 117.5t98.5 73t138 25zM428 -76l-69 -172l-82 22l39 178z" />
    <glyph glyph-name="Gdotaccent" unicode="&#x120;" horiz-adv-x="683" 
d="M366 733q66 0 122 -14.5t111 -43.5v-197h-103l-29 111q-47 18 -90 18q-36 0 -66.5 -13.5t-52.5 -43t-34 -76t-12 -111.5q0 -119 39 -184.5t123 -65.5q25 0 51 4.5t50 14.5v130l-92 24v75h271v-74l-42 -25v-209q-55 -32 -118.5 -48.5t-139.5 -16.5q-77 0 -134 25.5
t-94.5 73.5t-56 117t-18.5 156q0 88 19.5 157.5t59 117.5t98.5 73t138 25zM368 911q38 0 63.5 -19.5t25.5 -57.5t-25 -57t-64 -19q-37 0 -63 19t-26 57t25.5 57.5t63.5 19.5z" />
    <glyph glyph-name="Hbar" unicode="&#x126;" horiz-adv-x="738" 
d="M630 619v-52h61v-105h-61v-362l61 -26v-74h-276v74l61 26v183h-213v-183l61 -26v-74h-276v74l61 26v362h-61v105h61v52l-61 26v75h276v-75l-61 -26v-52h213v52l-61 26v75h276v-75zM476 462h-213v-63h213v63z" />
    <glyph glyph-name="Hcircumflex" unicode="&#x124;" horiz-adv-x="728" 
d="M686 645l-61 -26v-519l61 -26v-74h-276v74l61 26v213h-213v-213l61 -26v-74h-276v74l61 26v519l-61 26v75h276v-75l-61 -26v-190h213v190l-61 26v75h276v-75zM498 799l-54 -42l-80 67l-80 -67l-55 42l93 111h84z" />
    <glyph glyph-name="IJ" unicode="&#x132;" horiz-adv-x="870" 
d="M833 645l-61 -26v-432q0 -56 -17 -93.5t-46.5 -61t-69.5 -33.5t-86 -10q-42 0 -83 5.5t-77 13.5v202h85l26 -91q14 -4 26.5 -5t24.5 -1q34 0 48.5 19.5t14.5 66.5v421l-86 24v76h301v-75zM319 646l-61 -26v-520l61 -26v-74h-276v74l61 26v520l-61 26v74h276v-74z" />
    <glyph glyph-name="Ibreve" unicode="&#x12c;" horiz-adv-x="361" 
d="M319 646l-61 -26v-520l61 -26v-74h-276v74l61 26v520l-61 26v74h276v-74zM318 899q-5 -71 -37 -106.5t-101 -35.5q-68 0 -100 35.5t-37 106.5l75 12q5 -36 19.5 -52t42.5 -16q29 0 43.5 16t19.5 52z" />
    <glyph glyph-name="Idotaccent" unicode="&#x130;" horiz-adv-x="361" 
d="M319 646l-61 -26v-520l61 -26v-74h-276v74l61 26v520l-61 26v74h276v-74zM179 911q38 0 63.5 -19.5t25.5 -57.5t-25 -57t-64 -19q-37 0 -63 19t-26 57t25.5 57.5t63.5 19.5z" />
    <glyph glyph-name="Imacron" unicode="&#x12a;" horiz-adv-x="361" 
d="M319 646l-61 -26v-520l61 -26v-74h-276v74l61 26v520l-61 26v74h276v-74zM312 782h-264v88h264v-88z" />
    <glyph glyph-name="Iogonek" unicode="&#x12e;" horiz-adv-x="361" 
d="M332 -201q-19 -11 -47.5 -21.5t-60.5 -10.5q-51 0 -73 25t-22 61q0 41 23.5 79.5t65.5 67.5h-175v74l61 26v520l-61 26v74h276v-74l-61 -26v-520l61 -26v-74q-42 -26 -63.5 -58.5t-21.5 -59.5q0 -32 29 -32q20 0 47 12z" />
    <glyph glyph-name="Itilde" unicode="&#x128;" horiz-adv-x="361" 
d="M319 646l-61 -26v-520l61 -26v-74h-276v74l61 26v520l-61 26v74h276v-74zM340 878q-10 -50 -32.5 -77t-55.5 -27q-18 0 -35 5t-31.5 10.5t-26.5 10.5t-22 5q-12 0 -20.5 -7t-17.5 -28l-65 26q11 52 34 81t57 29q19 0 35.5 -5t31 -11.5t26.5 -11.5t23 -5q13 0 21.5 6.5
t16.5 25.5z" />
    <glyph glyph-name="Jcircumflex" unicode="&#x134;" horiz-adv-x="513" 
d="M476 645l-61 -26v-432q0 -56 -17 -93.5t-46.5 -61t-69.5 -33.5t-86 -10q-42 0 -83 5.5t-77 13.5v202h85l26 -91q14 -4 26.5 -5t24.5 -1q34 0 48.5 19.5t14.5 66.5v421l-86 24v76h301v-75zM454 799l-54 -42l-80 67l-80 -67l-55 42l93 111h84z" />
    <glyph glyph-name="Kcommaaccent" unicode="&#x136;" horiz-adv-x="669" 
d="M627 645l-58 -26l-125 -257l138 -262l65 -26v-74h-181l-142 293h-66v-193l61 -25v-75h-276v75l61 25v519l-61 26v75h275v-74l-60 -27v-197h78l98 197l-48 27v74h241v-75zM418 -76l-69 -172l-82 22l39 178z" />
    <glyph glyph-name="Lacute" unicode="&#x139;" horiz-adv-x="560" 
d="M326 644l-68 -27v-500h163l20 97l89 1v-215h-487v76l61 26v515l-61 27v76h283v-76zM297 845l-182 -90l-39 61l165 119z" />
    <glyph glyph-name="Lcaron" unicode="&#x13d;" horiz-adv-x="575" 
d="M326 644l-68 -27v-500h163l20 97l89 1v-215h-487v76l61 26v515l-61 27v76h283v-76zM450 517h-87l28 203h118z" />
    <glyph glyph-name="Lcommaaccent" unicode="&#x13b;" horiz-adv-x="560" 
d="M326 644l-68 -27v-500h163l20 97l89 1v-215h-487v76l61 26v515l-61 27v76h283v-76zM366 -76l-69 -172l-82 22l39 178z" />
    <glyph glyph-name="Ldot" unicode="&#x13f;" horiz-adv-x="580" 
d="M326 644l-68 -27v-500h163l20 97l89 1v-215h-487v76l61 26v515l-61 27v76h283v-76zM423 464q38 0 60.5 -21.5t22.5 -58.5q0 -36 -22.5 -58.5t-60.5 -22.5t-60.5 22.5t-22.5 58.5q0 37 23 58.5t60 21.5z" />
    <glyph glyph-name="Lslash" unicode="&#x141;" horiz-adv-x="565" 
d="M530 215v-215h-487v76l61 26v164l-60 -21v117l60 21v234l-61 27v76h283v-76l-68 -27v-180l148 57v-117l-148 -57v-203h163l20 97z" />
    <glyph glyph-name="Nacute" unicode="&#x143;" horiz-adv-x="725" 
d="M688 646l-62 -26v-620h-135l-214 355q-14 23 -26.5 47t-22.5 49l-2 -1v-349l60 -27v-74h-243v74l62 27v518l-62 26v75h190l211 -349q16 -28 31 -55.5t29 -56.5h1v361l-61 26v74h244v-74zM469 845l-182 -90l-39 61l165 119z" />
    <glyph glyph-name="Ncaron" unicode="&#x147;" horiz-adv-x="725" 
d="M688 646l-62 -26v-620h-135l-214 355q-14 23 -26.5 47t-22.5 49l-2 -1v-349l60 -27v-74h-243v74l62 27v518l-62 26v75h190l211 -349q16 -28 31 -55.5t29 -56.5h1v361l-61 26v74h244v-74zM316 761l-93 111l55 42l80 -67l80 67l54 -42l-92 -111h-84z" />
    <glyph glyph-name="Ncommaaccent" unicode="&#x145;" horiz-adv-x="725" 
d="M688 646l-62 -26v-620h-135l-214 355q-14 23 -26.5 47t-22.5 49l-2 -1v-349l60 -27v-74h-243v74l62 27v518l-62 26v75h190l211 -349q16 -28 31 -55.5t29 -56.5h1v361l-61 26v74h244v-74zM432 -80l-69 -172l-82 22l39 178z" />
    <glyph glyph-name="Eng" unicode="&#x14a;" horiz-adv-x="725" 
d="M688 720v-74l-62 -27v-660q0 -75 -33.5 -118.5t-112.5 -43.5q-29 0 -57 4.5t-48 11.5l12 102q13 -3 28.5 -5.5t32.5 -2.5q27 0 40.5 12.5t13.5 45.5v36l-209 332q-18 29 -34.5 57.5t-32.5 57.5v-347l60 -27v-74h-243v74l62 27v518l-62 26v75h181l223 -358
q17 -26 31 -50.5t28 -50.5l-1 358l-61 27v74h244z" />
    <glyph glyph-name="Obreve" unicode="&#x14e;" horiz-adv-x="714" 
d="M359 732q145 0 224.5 -91t79.5 -278q0 -194 -80 -284.5t-228 -90.5q-149 0 -226.5 91t-77.5 284q0 187 79.5 278t228.5 91zM357 606q-70 0 -107.5 -59t-37.5 -183q0 -130 37.5 -190t107.5 -60t107.5 60t37.5 190q0 124 -38 183t-107 59zM497 899q-5 -71 -37 -106.5
t-101 -35.5q-68 0 -100 35.5t-37 106.5l75 12q5 -36 19.5 -52t42.5 -16q29 0 43.5 16t19.5 52z" />
    <glyph glyph-name="Ohungarumlaut" unicode="&#x150;" horiz-adv-x="714" 
d="M359 732q145 0 224.5 -91t79.5 -278q0 -194 -80 -284.5t-228 -90.5q-149 0 -226.5 91t-77.5 284q0 187 79.5 278t228.5 91zM357 606q-70 0 -107.5 -59t-37.5 -183q0 -130 37.5 -190t107.5 -60t107.5 60t37.5 190q0 124 -38 183t-107 59zM414 895l-136 -141l-59 42
l110 163zM578 883l-132 -129l-59 43l106 150z" />
    <glyph glyph-name="Omacron" unicode="&#x14c;" horiz-adv-x="714" 
d="M359 732q145 0 224.5 -91t79.5 -278q0 -194 -80 -284.5t-228 -90.5q-149 0 -226.5 91t-77.5 284q0 187 79.5 278t228.5 91zM357 606q-70 0 -107.5 -59t-37.5 -183q0 -130 37.5 -190t107.5 -60t107.5 60t37.5 190q0 124 -38 183t-107 59zM491 782h-264v88h264v-88z" />
    <glyph glyph-name="Racute" unicode="&#x154;" horiz-adv-x="674" 
d="M351 720q121 0 182.5 -60t61.5 -169q0 -75 -25.5 -124t-77.5 -79l82 -188l74 -26v-74h-194l-110 255q-8 -1 -16.5 -1h-16.5h-52v-154l61 -26v-74h-277v74l62 25v520l-61 26v75h307zM258 597v-226h77q105 0 105 115q0 57 -24.5 84t-75.5 27h-82zM440 845l-182 -90l-39 61
l165 119z" />
    <glyph glyph-name="Rcaron" unicode="&#x158;" horiz-adv-x="674" 
d="M351 720q121 0 182.5 -60t61.5 -169q0 -75 -25.5 -124t-77.5 -79l82 -188l74 -26v-74h-194l-110 255q-8 -1 -16.5 -1h-16.5h-52v-154l61 -26v-74h-277v74l62 25v520l-61 26v75h307zM258 597v-226h77q105 0 105 115q0 57 -24.5 84t-75.5 27h-82zM287 761l-93 111l55 42
l80 -67l80 67l54 -42l-92 -111h-84z" />
    <glyph glyph-name="Rcommaaccent" unicode="&#x156;" horiz-adv-x="674" 
d="M351 720q121 0 182.5 -60t61.5 -169q0 -75 -25.5 -124t-77.5 -79l82 -188l74 -26v-74h-194l-110 255q-8 -1 -16.5 -1h-16.5h-52v-154l61 -26v-74h-277v74l62 25v520l-61 26v75h307zM258 597v-226h77q105 0 105 115q0 57 -24.5 84t-75.5 27h-82zM404 -77l-69 -172l-82 22
l39 178z" />
    <glyph glyph-name="Sacute" unicode="&#x15a;" horiz-adv-x="571" 
d="M306 732q60 0 110 -11t96 -29v-181h-89l-23 91q-19 8 -42 12.5t-50 4.5q-43 0 -71.5 -20.5t-28.5 -61.5q0 -26 12 -43t32 -30t46 -22.5t54 -19.5q32 -12 63.5 -26.5t56.5 -37t40.5 -55.5t15.5 -82q0 -52 -18 -95t-51.5 -73.5t-82.5 -47.5t-111 -17q-32 0 -64 3.5t-60.5 9
t-52.5 12.5t-41 15v188h97l23 -89q17 -8 42 -14t55 -6q46 0 76 21t30 69q0 23 -10.5 39.5t-28 28.5t-40.5 21.5t-48 18.5q-33 12 -67 26.5t-61 37.5t-44.5 57.5t-17.5 87.5q0 57 20.5 98t55 68t80.5 39.5t97 12.5zM411 845l-182 -90l-39 61l165 119z" />
    <glyph glyph-name="Scedilla" unicode="&#x15e;" horiz-adv-x="571" 
d="M528 221q0 -47 -14.5 -87t-42.5 -70t-68.5 -48.5t-92.5 -24.5l-7 -40q34 -3 59.5 -20.5t25.5 -57.5q0 -47 -28 -72.5t-79 -25.5q-27 0 -50.5 5.5t-37.5 11.5l11 60q14 -4 30 -7t32 -3q19 0 29.5 6.5t10.5 23.5q0 18 -14 23.5t-43 5.5h-17l16 87q-60 2 -114.5 14t-86.5 26
v188h97l23 -89q17 -8 42 -14t55 -6q46 0 76 21t30 69q0 23 -10.5 39.5t-28 28.5t-40.5 21.5t-48 18.5q-33 12 -67 26.5t-61 37.5t-44.5 57.5t-17.5 87.5q0 57 20.5 98t55 68t80.5 39.5t97 12.5q60 0 110 -11t96 -29v-181h-89l-23 91q-19 8 -42 12.5t-50 4.5
q-43 0 -71.5 -20.5t-28.5 -61.5q0 -26 12 -43t32 -30t46 -22.5t54 -19.5q32 -12 63.5 -26.5t56.5 -37t40.5 -55.5t15.5 -82z" />
    <glyph glyph-name="Scircumflex" unicode="&#x15c;" horiz-adv-x="571" 
d="M306 732q60 0 110 -11t96 -29v-181h-89l-23 91q-19 8 -42 12.5t-50 4.5q-43 0 -71.5 -20.5t-28.5 -61.5q0 -26 12 -43t32 -30t46 -22.5t54 -19.5q32 -12 63.5 -26.5t56.5 -37t40.5 -55.5t15.5 -82q0 -52 -18 -95t-51.5 -73.5t-82.5 -47.5t-111 -17q-32 0 -64 3.5t-60.5 9
t-52.5 12.5t-41 15v188h97l23 -89q17 -8 42 -14t55 -6q46 0 76 21t30 69q0 23 -10.5 39.5t-28 28.5t-40.5 21.5t-48 18.5q-33 12 -67 26.5t-61 37.5t-44.5 57.5t-17.5 87.5q0 57 20.5 98t55 68t80.5 39.5t97 12.5zM436 799l-54 -42l-80 67l-80 -67l-55 42l93 111h84z" />
    <glyph glyph-name="Scommaaccent" unicode="&#x218;" horiz-adv-x="571" 
d="M306 732q60 0 110 -11t96 -29v-181h-89l-23 91q-19 8 -42 12.5t-50 4.5q-43 0 -71.5 -20.5t-28.5 -61.5q0 -26 12 -43t32 -30t46 -22.5t54 -19.5q32 -12 63.5 -26.5t56.5 -37t40.5 -55.5t15.5 -82q0 -52 -18 -95t-51.5 -73.5t-82.5 -47.5t-111 -17q-32 0 -64 3.5t-60.5 9
t-52.5 12.5t-41 15v188h97l23 -89q17 -8 42 -14t55 -6q46 0 76 21t30 69q0 23 -10.5 39.5t-28 28.5t-40.5 21.5t-48 18.5q-33 12 -67 26.5t-61 37.5t-44.5 57.5t-17.5 87.5q0 57 20.5 98t55 68t80.5 39.5t97 12.5zM347 -79l-69 -172l-82 22l39 178z" />
    <glyph glyph-name="Tbar" unicode="&#x166;" horiz-adv-x="634" 
d="M605 720v-211h-89l-23 96h-96v-197h104v-112h-104v-196l62 -26v-74h-278v74l62 26v196h-108v112h108v197h-96l-23 -96h-89v211h570z" />
    <glyph glyph-name="Tcaron" unicode="&#x164;" horiz-adv-x="628" 
d="M602 509h-89l-23 96h-96v-505l62 -26v-74h-278v74l62 26v505h-96l-23 -96h-89v211h570v-211zM272 761l-93 111l55 42l80 -67l80 67l54 -42l-92 -111h-84z" />
    <glyph glyph-name="Ubreve" unicode="&#x16c;" horiz-adv-x="673" 
d="M641 646l-60 -27v-369q0 -137 -63 -199.5t-180 -62.5q-116 0 -180.5 61.5t-64.5 200.5v369l-60 27v74h272v-74l-58 -27v-366q0 -74 28.5 -104t78.5 -30q54 0 80.5 30t26.5 104v366l-59 27v74h239v-74zM489 899q-5 -71 -37 -106.5t-101 -35.5q-68 0 -100 35.5t-37 106.5
l75 12q5 -36 19.5 -52t42.5 -16q29 0 43.5 16t19.5 52z" />
    <glyph glyph-name="Uhungarumlaut" unicode="&#x170;" horiz-adv-x="673" 
d="M641 646l-60 -27v-369q0 -137 -63 -199.5t-180 -62.5q-116 0 -180.5 61.5t-64.5 200.5v369l-60 27v74h272v-74l-58 -27v-366q0 -74 28.5 -104t78.5 -30q54 0 80.5 30t26.5 104v366l-59 27v74h239v-74zM406 895l-136 -141l-59 42l110 163zM570 883l-132 -129l-59 43
l106 150z" />
    <glyph glyph-name="Umacron" unicode="&#x16a;" horiz-adv-x="673" 
d="M641 646l-60 -27v-369q0 -137 -63 -199.5t-180 -62.5q-116 0 -180.5 61.5t-64.5 200.5v369l-60 27v74h272v-74l-58 -27v-366q0 -74 28.5 -104t78.5 -30q54 0 80.5 30t26.5 104v366l-59 27v74h239v-74zM483 782h-264v88h264v-88z" />
    <glyph glyph-name="Uogonek" unicode="&#x172;" horiz-adv-x="670" 
d="M639 646l-60 -27v-369q0 -161 -89 -222q-60 -41 -87.5 -77.5t-27.5 -68.5t29 -32q20 0 47 12l22 -63q-19 -11 -47.5 -21.5t-60.5 -10.5q-51 0 -73 25t-22 61t22 71t57 64h-13q-116 0 -180.5 61.5t-64.5 200.5v369l-60 27v74h272v-74l-58 -27v-366q0 -74 28.5 -104
t78.5 -30q54 0 80.5 30t26.5 104v366l-59 27v74h239v-74z" />
    <glyph glyph-name="Uring" unicode="&#x16e;" horiz-adv-x="673" 
d="M641 646l-60 -27v-369q0 -137 -63 -199.5t-180 -62.5q-116 0 -180.5 61.5t-64.5 200.5v369l-60 27v74h272v-74l-58 -27v-366q0 -74 28.5 -104t78.5 -30q54 0 80.5 30t26.5 104v366l-59 27v74h239v-74zM352 965q46 0 76 -24.5t30 -73.5q0 -48 -30 -73.5t-76 -25.5
q-48 0 -77 23.5t-29 71.5q0 50 30 76t76 26zM352 909q-34 0 -34 -43q0 -42 34 -42t34 43q0 42 -34 42z" />
    <glyph glyph-name="Utilde" unicode="&#x168;" horiz-adv-x="673" 
d="M641 646l-60 -27v-369q0 -137 -63 -199.5t-180 -62.5q-116 0 -180.5 61.5t-64.5 200.5v369l-60 27v74h272v-74l-58 -27v-366q0 -74 28.5 -104t78.5 -30q54 0 80.5 30t26.5 104v366l-59 27v74h239v-74zM511 878q-10 -50 -32.5 -77t-55.5 -27q-18 0 -35 5t-31.5 10.5
t-26.5 10.5t-22 5q-12 0 -20.5 -7t-17.5 -28l-65 26q11 52 34 81t57 29q19 0 35.5 -5t31 -11.5t26.5 -11.5t23 -5q13 0 21.5 6.5t16.5 25.5z" />
    <glyph glyph-name="Wacute" unicode="&#x1e82;" horiz-adv-x="958" 
d="M934 720v-75l-55 -26l-121 -619h-174l-71 331l-33 164q-8 -42 -16 -82.5t-16 -82.5l-67 -330h-176l-126 619l-55 26v75h262v-75l-51 -26l51 -319q5 -35 9.5 -78.5t9.5 -81.5q5 38 10.5 80.5t12.5 81.5l81 418h142l82 -422q6 -30 11 -71.5t10 -79.5q5 38 9.5 79.5
t9.5 71.5l55 321l-51 26v75h257zM593 845l-182 -90l-39 61l165 119z" />
    <glyph glyph-name="Wcircumflex" unicode="&#x174;" horiz-adv-x="958" 
d="M934 720v-75l-55 -26l-121 -619h-174l-71 331l-33 164q-8 -42 -16 -82.5t-16 -82.5l-67 -330h-176l-126 619l-55 26v75h262v-75l-51 -26l51 -319q5 -35 9.5 -78.5t9.5 -81.5q5 38 10.5 80.5t12.5 81.5l81 418h142l82 -422q6 -30 11 -71.5t10 -79.5q5 38 9.5 79.5
t9.5 71.5l55 321l-51 26v75h257zM618 799l-54 -42l-80 67l-80 -67l-55 42l93 111h84z" />
    <glyph glyph-name="Wdieresis" unicode="&#x1e84;" horiz-adv-x="958" 
d="M934 720v-75l-55 -26l-121 -619h-174l-71 331l-33 164q-8 -42 -16 -82.5t-16 -82.5l-67 -330h-176l-126 619l-55 26v75h262v-75l-51 -26l51 -319q5 -35 9.5 -78.5t9.5 -81.5q5 38 10.5 80.5t12.5 81.5l81 418h142l82 -422q6 -30 11 -71.5t10 -79.5q5 38 9.5 79.5
t9.5 71.5l55 321l-51 26v75h257zM381 913q37 0 55.5 -19t18.5 -48q0 -30 -20 -48.5t-54 -18.5q-35 0 -54.5 17.5t-19.5 49.5q0 29 20 48t54 19zM582 913q37 0 55.5 -19t18.5 -48q0 -30 -20.5 -48.5t-53.5 -18.5q-35 0 -54.5 17.5t-19.5 49.5q0 29 20 48t54 19z" />
    <glyph glyph-name="Wgrave" unicode="&#x1e80;" horiz-adv-x="958" 
d="M934 720v-75l-55 -26l-121 -619h-174l-71 331l-33 164q-8 -42 -16 -82.5t-16 -82.5l-67 -330h-176l-126 619l-55 26v75h262v-75l-51 -26l51 -319q5 -35 9.5 -78.5t9.5 -81.5q5 38 10.5 80.5t12.5 81.5l81 418h142l82 -422q6 -30 11 -71.5t10 -79.5q5 38 9.5 79.5
t9.5 71.5l55 321l-51 26v75h257zM596 816l-39 -61l-182 90l56 90z" />
    <glyph glyph-name="Ycircumflex" unicode="&#x176;" horiz-adv-x="647" 
d="M630 645l-50 -26l-173 -357v-161l68 -26v-75h-290v75l68 26v162l-182 356l-53 26v75h279v-75l-55 -27l98 -218h5l101 219l-57 26v75h241v-75zM476 799l-54 -42l-80 67l-80 -67l-55 42l93 111h84z" />
    <glyph glyph-name="Ygrave" unicode="&#x1ef2;" horiz-adv-x="647" 
d="M630 645l-50 -26l-173 -357v-161l68 -26v-75h-290v75l68 26v162l-182 356l-53 26v75h279v-75l-55 -27l98 -218h5l101 219l-57 26v75h241v-75zM454 816l-39 -61l-182 90l56 90z" />
    <glyph glyph-name="Zacute" unicode="&#x179;" horiz-adv-x="578" 
d="M526 645l-293 -528h192l21 85h88v-202h-492v94l284 509h-165l-21 -84h-89v201h475v-75zM412 845l-182 -90l-39 61l165 119z" />
    <glyph glyph-name="Zcaron" unicode="&#x17d;" horiz-adv-x="578" 
d="M526 645l-293 -528h192l21 85h88v-202h-492v94l284 509h-165l-21 -84h-89v201h475v-75zM259 761l-93 111l55 42l80 -67l80 67l54 -42l-92 -111h-84z" />
    <glyph glyph-name="Zdotaccent" unicode="&#x17b;" horiz-adv-x="578" 
d="M526 645l-293 -528h192l21 85h88v-202h-492v94l284 509h-165l-21 -84h-89v201h475v-75zM299 911q38 0 63.5 -19.5t25.5 -57.5t-25 -57t-64 -19q-37 0 -63 19t-26 57t25.5 57.5t63.5 19.5z" />
    <glyph glyph-name="uni0162" unicode="&#x162;" horiz-adv-x="628" 
d="M602 720v-211h-89l-23 96h-96v-505l62 -26v-74h-115l-9 -48q34 -3 59.5 -20.5t25.5 -57.5q0 -47 -28 -72.5t-79 -25.5q-27 0 -50.5 5.5t-37.5 11.5l11 60q14 -4 30 -7t32 -3q19 0 29.5 6.5t10.5 23.5q0 18 -14 23.5t-43 5.5h-17l18 98h-101v74l62 26v505h-96l-23 -96h-89
v211h570z" />
    <glyph glyph-name="uni021A" unicode="&#x21a;" horiz-adv-x="628" 
d="M602 509h-89l-23 96h-96v-505l62 -26v-74h-278v74l62 26v505h-96l-23 -96h-89v211h570v-211zM376 -78l-69 -172l-82 22l39 178z" />
    <glyph glyph-name="abreve" unicode="&#x103;" horiz-adv-x="525" 
d="M248 541q101 0 153 -44.5t52 -144.5v-230q0 -17 6 -25.5t25 -8.5h12v-88q-14 -3 -30 -5.5t-34 -2.5q-42 0 -70 16.5t-39 62.5q-26 -45 -63 -64t-84 -19q-66 0 -107.5 37.5t-41.5 116.5q0 33 11 62.5t36.5 52t66 36t100.5 13.5q20 0 35 -1t31 -3v43q0 83 -78 83
q-39 0 -74 -10.5t-70 -30.5l-36 94q43 26 95 43t104 17zM261 228q-95 0 -95 -78q0 -32 16.5 -46.5t45.5 -14.5q32 0 55.5 26t23.5 75v33q-9 2 -20 3.5t-26 1.5zM400 765q-6 -88 -38.5 -130.5t-104.5 -42.5q-71 0 -103 42.5t-40 130.5l74 11q5 -51 21 -74t48 -23t48.5 23.5
t21.5 73.5z" />
    <glyph glyph-name="amacron" unicode="&#x101;" horiz-adv-x="525" 
d="M248 541q101 0 153 -44.5t52 -144.5v-230q0 -17 6 -25.5t25 -8.5h12v-88q-14 -3 -30 -5.5t-34 -2.5q-42 0 -70 16.5t-39 62.5q-26 -45 -63 -64t-84 -19q-66 0 -107.5 37.5t-41.5 116.5q0 33 11 62.5t36.5 52t66 36t100.5 13.5q20 0 35 -1t31 -3v43q0 83 -78 83
q-39 0 -74 -10.5t-70 -30.5l-36 94q43 26 95 43t104 17zM261 228q-95 0 -95 -78q0 -32 16.5 -46.5t45.5 -14.5q32 0 55.5 26t23.5 75v33q-9 2 -20 3.5t-26 1.5zM391 606h-264v88h264v-88z" />
    <glyph glyph-name="aogonek" unicode="&#x105;" horiz-adv-x="525" 
d="M509 -201q-19 -11 -47.5 -21.5t-60.5 -10.5q-51 0 -73 25t-22 61q0 39 22.5 77t61.5 67q-25 6 -42 23.5t-25 50.5q-26 -45 -63 -64t-84 -19q-66 0 -107.5 37.5t-41.5 116.5q0 33 11 62.5t36.5 52t66 36t100.5 13.5q20 0 35 -1t31 -3v43q0 83 -78 83q-39 0 -74 -10.5
t-70 -30.5l-36 94q43 26 95 43t104 17q101 0 153 -44.5t52 -144.5v-230q0 -17 6 -25.5t25 -8.5h12v-88q-42 -26 -63.5 -58.5t-21.5 -59.5q0 -32 29 -32q20 0 47 12zM307 223q-9 2 -20 3.5t-26 1.5q-95 0 -95 -78q0 -32 16.5 -46.5t45.5 -14.5q32 0 55.5 26t23.5 75v33z" />
    <glyph glyph-name="cacute" unicode="&#x107;" horiz-adv-x="515" 
d="M276 541q57 0 102 -11.5t91 -36.5v-173h-98l-24 94q-29 14 -66 14q-42 0 -67 -38.5t-25 -121.5q0 -85 29 -124.5t82 -39.5q29 0 64.5 9.5t73.5 24.5l31 -96q-47 -26 -98 -40t-101 -14q-51 0 -94 15.5t-74.5 49t-49 85.5t-17.5 125q0 134 62 206t179 72zM411 714
l-172 -135l-53 56l150 160z" />
    <glyph glyph-name="ccaron" unicode="&#x10d;" horiz-adv-x="515" 
d="M276 541q57 0 102 -11.5t91 -36.5v-173h-98l-24 94q-29 14 -66 14q-42 0 -67 -38.5t-25 -121.5q0 -85 29 -124.5t82 -39.5q29 0 64.5 9.5t73.5 24.5l31 -96q-47 -26 -98 -40t-101 -14q-51 0 -94 15.5t-74.5 49t-49 85.5t-17.5 125q0 134 62 206t179 72zM436 740
l-106 -155h-81l-105 155l60 38l86 -98l86 98z" />
    <glyph glyph-name="ccircumflex" unicode="&#x109;" horiz-adv-x="515" 
d="M276 541q57 0 102 -11.5t91 -36.5v-173h-98l-24 94q-29 14 -66 14q-42 0 -67 -38.5t-25 -121.5q0 -85 29 -124.5t82 -39.5q29 0 64.5 9.5t73.5 24.5l31 -96q-47 -26 -98 -40t-101 -14q-51 0 -94 15.5t-74.5 49t-49 85.5t-17.5 125q0 134 62 206t179 72zM291 674l-86 -98
l-60 38l105 155h81l106 -155l-60 -38z" />
    <glyph glyph-name="cdotaccent" unicode="&#x10b;" horiz-adv-x="515" 
d="M276 541q57 0 102 -11.5t91 -36.5v-173h-98l-24 94q-29 14 -66 14q-42 0 -67 -38.5t-25 -121.5q0 -85 29 -124.5t82 -39.5q29 0 64.5 9.5t73.5 24.5l31 -96q-47 -26 -98 -40t-101 -14q-51 0 -94 15.5t-74.5 49t-49 85.5t-17.5 125q0 134 62 206t179 72zM291 742
q38 0 63.5 -19.5t25.5 -57.5t-25 -57t-64 -19q-37 0 -63 19t-26 57t25.5 57.5t63.5 19.5z" />
    <glyph glyph-name="dcaron" unicode="&#x10f;" horiz-adv-x="706" 
d="M519 96l56 -26v-70h-184l-10 61q-9 -13 -22 -26t-31.5 -23.5t-42 -17t-51.5 -6.5q-95 0 -143.5 68.5t-48.5 206.5q0 73 15.5 126t42.5 86.5t63.5 49.5t79.5 16q40 0 72.5 -16t57.5 -40v134l-56 28v73h202v-624zM285 424q-41 0 -64.5 -37.5t-23.5 -121.5q0 -74 19.5 -117
t70.5 -43q29 0 51.5 14.5t35.5 29.5v227q-13 16 -36.5 32t-52.5 16zM659 517h-87l28 203h118z" />
    <glyph glyph-name="dcroat" unicode="&#x111;" horiz-adv-x="625" 
d="M374 565h-97v101h97v54h144v-54h67v-101h-67v-469l57 -26v-70h-184l-10 61q-9 -13 -22.5 -26t-32 -23.5t-42 -17t-51.5 -6.5q-94 0 -142.5 66.5t-48.5 200.5q0 71 15.5 120.5t42.5 80.5t64 45t79 14q40 0 73 -16t58 -40v106zM374 350q-13 16 -36.5 32t-52.5 16
q-41 0 -64.5 -31t-23.5 -110q0 -70 19.5 -111t70.5 -41q15 0 30 3t28 9t21 14t8 18v201z" />
    <glyph glyph-name="ebreve" unicode="&#x115;" horiz-adv-x="527" 
d="M276 541q215 0 215 -245q0 -14 -0.5 -35t-2.5 -35h-298q2 -58 28.5 -92t83.5 -34q32 0 65.5 9.5t74.5 28.5l31 -92q-42 -28 -90.5 -43t-108.5 -15q-56 0 -100.5 16t-75 49.5t-47 85.5t-16.5 123q0 136 64 207.5t177 71.5zM279 438q-25 0 -41.5 -10.5t-26.5 -28t-14 -40
t-4 -45.5h160q-1 58 -15.5 91t-58.5 33zM429 765q-6 -88 -38.5 -130.5t-104.5 -42.5q-71 0 -103 42.5t-40 130.5l74 11q5 -51 21 -74t48 -23t48.5 23.5t21.5 73.5z" />
    <glyph glyph-name="ecaron" unicode="&#x11b;" horiz-adv-x="527" 
d="M276 541q215 0 215 -245q0 -14 -0.5 -35t-2.5 -35h-298q2 -58 28.5 -92t83.5 -34q32 0 65.5 9.5t74.5 28.5l31 -92q-42 -28 -90.5 -43t-108.5 -15q-56 0 -100.5 16t-75 49.5t-47 85.5t-16.5 123q0 136 64 207.5t177 71.5zM279 438q-25 0 -41.5 -10.5t-26.5 -28t-14 -40
t-4 -45.5h160q-1 58 -15.5 91t-58.5 33zM430 740l-106 -155h-81l-105 155l60 38l86 -98l86 98z" />
    <glyph glyph-name="edotaccent" unicode="&#x117;" horiz-adv-x="527" 
d="M276 541q215 0 215 -245q0 -14 -0.5 -35t-2.5 -35h-298q2 -58 28.5 -92t83.5 -34q32 0 65.5 9.5t74.5 28.5l31 -92q-42 -28 -90.5 -43t-108.5 -15q-56 0 -100.5 16t-75 49.5t-47 85.5t-16.5 123q0 136 64 207.5t177 71.5zM279 438q-25 0 -41.5 -10.5t-26.5 -28t-14 -40
t-4 -45.5h160q-1 58 -15.5 91t-58.5 33zM285 743q38 0 63.5 -19.5t25.5 -57.5t-25 -57t-64 -19q-37 0 -63 19t-26 57t25.5 57.5t63.5 19.5z" />
    <glyph glyph-name="emacron" unicode="&#x113;" horiz-adv-x="527" 
d="M276 541q215 0 215 -245q0 -14 -0.5 -35t-2.5 -35h-298q2 -58 28.5 -92t83.5 -34q32 0 65.5 9.5t74.5 28.5l31 -92q-42 -28 -90.5 -43t-108.5 -15q-56 0 -100.5 16t-75 49.5t-47 85.5t-16.5 123q0 136 64 207.5t177 71.5zM279 438q-25 0 -41.5 -10.5t-26.5 -28t-14 -40
t-4 -45.5h160q-1 58 -15.5 91t-58.5 33zM420 606h-264v88h264v-88z" />
    <glyph glyph-name="eogonek" unicode="&#x119;" horiz-adv-x="527" 
d="M491 296q0 -14 -0.5 -35t-2.5 -35h-298q2 -58 28.5 -92t83.5 -34q32 0 65.5 9.5t74.5 28.5l31 -92l-8 -5q-20 -13 -39.5 -31.5t-35.5 -39.5t-25.5 -43.5t-9.5 -44.5q0 -32 29 -32q20 0 47 12l22 -63q-19 -11 -47.5 -21.5t-60.5 -10.5q-51 0 -73 25t-22 61q0 38 22 74.5
t61 64.5q-14 -2 -28.5 -3t-30.5 -1q-56 0 -100.5 16t-75 49.5t-47 85.5t-16.5 123q0 136 64 207.5t177 71.5q215 0 215 -245zM353 314q-1 58 -15.5 91t-58.5 33q-25 0 -41.5 -10.5t-26.5 -28t-14 -40t-4 -45.5h160z" />
    <glyph glyph-name="gbreve" unicode="&#x11f;" horiz-adv-x="567" 
d="M536 418l-81 14q11 -16 18 -36t7 -46q0 -88 -60 -129.5t-162 -41.5q-20 0 -38.5 1.5t-35.5 6.5q-4 -5 -6 -15.5t-2 -22.5q0 -17 12 -29t48 -12h133q82 0 122 -35.5t40 -98.5q0 -39 -14.5 -72t-47.5 -58t-85.5 -39t-127.5 -14q-62 0 -104.5 9t-69.5 25.5t-39 39.5t-12 52
q0 36 17.5 61.5t50.5 50.5q-17 14 -26 33.5t-9 47.5t10 55t33 52q-32 21 -49.5 55.5t-17.5 82.5t17 83t47.5 57.5t72 33.5t90.5 11q73 0 123 -21l146 23v-124zM266 457q-40 0 -60 -25t-20 -71q0 -95 80 -95q35 0 55.5 23.5t20.5 71.5t-20.5 72t-55.5 24zM180 -11
q-11 -8 -17 -21t-6 -25q0 -31 25.5 -45.5t80.5 -14.5q128 0 128 69q0 24 -15.5 30.5t-47.5 6.5h-148zM415 765q-6 -88 -38.5 -130.5t-104.5 -42.5q-71 0 -103 42.5t-40 130.5l74 11q5 -51 21 -74t48 -23t48.5 23.5t21.5 73.5z" />
    <glyph glyph-name="gcircumflex" unicode="&#x11d;" horiz-adv-x="567" 
d="M536 418l-81 14q11 -16 18 -36t7 -46q0 -88 -60 -129.5t-162 -41.5q-20 0 -38.5 1.5t-35.5 6.5q-4 -5 -6 -15.5t-2 -22.5q0 -17 12 -29t48 -12h133q82 0 122 -35.5t40 -98.5q0 -39 -14.5 -72t-47.5 -58t-85.5 -39t-127.5 -14q-62 0 -104.5 9t-69.5 25.5t-39 39.5t-12 52
q0 36 17.5 61.5t50.5 50.5q-17 14 -26 33.5t-9 47.5t10 55t33 52q-32 21 -49.5 55.5t-17.5 82.5t17 83t47.5 57.5t72 33.5t90.5 11q73 0 123 -21l146 23v-124zM266 457q-40 0 -60 -25t-20 -71q0 -95 80 -95q35 0 55.5 23.5t20.5 71.5t-20.5 72t-55.5 24zM180 -11
q-11 -8 -17 -21t-6 -25q0 -31 25.5 -45.5t80.5 -14.5q128 0 128 69q0 24 -15.5 30.5t-47.5 6.5h-148zM271 674l-86 -98l-60 38l105 155h81l106 -155l-60 -38z" />
    <glyph glyph-name="gcommaaccent" unicode="&#x123;" horiz-adv-x="567" 
d="M536 418l-81 14q11 -16 18 -36t7 -46q0 -88 -60 -129.5t-162 -41.5q-20 0 -38.5 1.5t-35.5 6.5q-4 -5 -6 -15.5t-2 -22.5q0 -17 12 -29t48 -12h133q82 0 122 -35.5t40 -98.5q0 -39 -14.5 -72t-47.5 -58t-85.5 -39t-127.5 -14q-62 0 -104.5 9t-69.5 25.5t-39 39.5t-12 52
q0 36 17.5 61.5t50.5 50.5q-17 14 -26 33.5t-9 47.5t10 55t33 52q-32 21 -49.5 55.5t-17.5 82.5t17 83t47.5 57.5t72 33.5t90.5 11q73 0 123 -21l146 23v-124zM266 457q-40 0 -60 -25t-20 -71q0 -95 80 -95q35 0 55.5 23.5t20.5 71.5t-20.5 72t-55.5 24zM180 -11
q-11 -8 -17 -21t-6 -25q0 -31 25.5 -45.5t80.5 -14.5q128 0 128 69q0 24 -15.5 30.5t-47.5 6.5h-148zM202.037 617.99l68.9912 171.979l81.9902 -21.9971l-38.9951 -177.979z" />
    <glyph glyph-name="gdotaccent" unicode="&#x121;" horiz-adv-x="567" 
d="M536 418l-81 14q11 -16 18 -36t7 -46q0 -88 -60 -129.5t-162 -41.5q-20 0 -38.5 1.5t-35.5 6.5q-4 -5 -6 -15.5t-2 -22.5q0 -17 12 -29t48 -12h133q82 0 122 -35.5t40 -98.5q0 -39 -14.5 -72t-47.5 -58t-85.5 -39t-127.5 -14q-62 0 -104.5 9t-69.5 25.5t-39 39.5t-12 52
q0 36 17.5 61.5t50.5 50.5q-17 14 -26 33.5t-9 47.5t10 55t33 52q-32 21 -49.5 55.5t-17.5 82.5t17 83t47.5 57.5t72 33.5t90.5 11q73 0 123 -21l146 23v-124zM266 457q-40 0 -60 -25t-20 -71q0 -95 80 -95q35 0 55.5 23.5t20.5 71.5t-20.5 72t-55.5 24zM180 -11
q-11 -8 -17 -21t-6 -25q0 -31 25.5 -45.5t80.5 -14.5q128 0 128 69q0 24 -15.5 30.5t-47.5 6.5h-148zM271 743q38 0 63.5 -19.5t25.5 -57.5t-25 -57t-64 -19q-37 0 -63 19t-26 57t25.5 57.5t63.5 19.5z" />
    <glyph glyph-name="hbar" unicode="&#x127;" horiz-adv-x="639" 
d="M610 0h-202v314q0 48 -14.5 67.5t-49.5 19.5q-29 0 -53 -16.5t-38 -30.5v-256l54 -26v-72h-256v72l56 26v469h-67v100h67v53h146v-53h97v-100h-98v-112q31 27 65.5 43t80.5 16q82 0 119 -46.5t37 -131.5v-239l56 -25v-72z" />
    <glyph glyph-name="hcircumflex" unicode="&#x125;" horiz-adv-x="629" 
d="M242 482h2q28 26 63 42.5t80 16.5q83 0 120 -47.5t37 -130.5v-268l56 -25v-70h-202v335q0 47 -15 67t-50 20q-15 0 -29 -5t-26 -12.5t-21 -15.5t-15 -15v-278l54 -26v-70h-256v70l56 26v526l-56 25v73h202v-238zM297 799l-54 -42l-80 67l-80 -67l-55 42l93 111h84z" />
    <glyph glyph-name="dotlessi" unicode="&#x131;" horiz-adv-x="334" 
d="M243 97l56 -25v-72h-259v72l56 25v334l-56 25v73h203v-432z" />
    <glyph glyph-name="ibreve" unicode="&#x12d;" horiz-adv-x="334" 
d="M243 97l56 -25v-72h-259v72l56 25v334l-56 25v73h203v-432zM307 765q-6 -88 -38.5 -130.5t-104.5 -42.5q-71 0 -103 42.5t-40 130.5l74 11q5 -51 21 -74t48 -23t48.5 23.5t21.5 73.5z" />
    <glyph glyph-name="i.loclTRK" horiz-adv-x="334" 
d="M162 743q38 0 63.5 -19.5t25.5 -57.5t-25 -57t-64 -19q-37 0 -63 19t-26 57t25.5 57.5t63.5 19.5zM243 97l56 -25v-72h-259v72l56 25v334l-56 25v73h203v-432z" />
    <glyph glyph-name="ij" unicode="&#x133;" horiz-adv-x="640" 
d="M162 743q38 0 63.5 -19.5t25.5 -57.5t-25 -57t-64 -19q-37 0 -63 19t-26 57t25.5 57.5t63.5 19.5zM243 97l56 -25v-72h-259v72l56 25v334l-56 25v73h203v-432zM485 743q38 0 63.5 -19.5t25.5 -57.5t-25 -57t-64 -19q-37 0 -63 19t-26 57t25.5 57.5t63.5 19.5zM565 -51
q0 -77 -33.5 -116.5t-115.5 -39.5q-26 0 -50.5 3t-45.5 10l8 99q12 -2 23 -3.5t22 -1.5q25 0 35.5 10t10.5 41v477l-56 28v73h202v-580z" />
    <glyph glyph-name="imacron" unicode="&#x12b;" horiz-adv-x="334" 
d="M243 97l56 -25v-72h-259v72l56 25v334l-56 25v73h203v-432zM298 606h-264v88h264v-88z" />
    <glyph glyph-name="iogonek" unicode="&#x12f;" horiz-adv-x="334" 
d="M162 590q-37 0 -63 19t-26 57t25.5 57.5t63.5 19.5t63.5 -19.5t25.5 -57.5t-25 -57t-64 -19zM312 -201q-19 -11 -47.5 -21.5t-60.5 -10.5q-51 0 -73 25t-22 61q0 41 23.5 79.5t65.5 67.5h-158v72l56 25v334l-56 25v73h203v-432l56 -25v-72q-42 -26 -63.5 -58.5
t-21.5 -59.5q0 -32 29 -32q20 0 47 12z" />
    <glyph glyph-name="itilde" unicode="&#x129;" horiz-adv-x="334" 
d="M243 97l56 -25v-72h-259v72l56 25v334l-56 25v73h203v-432zM320 703q-10 -50 -32.5 -77t-55.5 -27q-18 0 -35 5t-31.5 10.5t-26.5 10.5t-22 5q-12 0 -20.5 -7t-17.5 -28l-65 26q11 52 34 81t57 29q19 0 35.5 -5t31 -11.5t26.5 -11.5t23 -5q13 0 21.5 6.5t16.5 25.5z" />
    <glyph glyph-name="dotlessj" unicode="&#x237;" horiz-adv-x="310" 
d="M235 -51q0 -77 -33.5 -116.5t-115.5 -39.5q-26 0 -50.5 3t-45.5 10l8 99q12 -2 23 -3.5t22 -1.5q25 0 35.5 10t10.5 41v477l-56 28v73h202v-580z" />
    <glyph glyph-name="jcircumflex" unicode="&#x135;" horiz-adv-x="310" 
d="M235 -51q0 -77 -33.5 -116.5t-115.5 -39.5q-26 0 -50.5 3t-45.5 10l8 99q12 -2 23 -3.5t22 -1.5q25 0 35.5 10t10.5 41v477l-56 28v73h202v-580zM156 674l-86 -98l-60 38l105 155h81l106 -155l-60 -38z" />
    <glyph glyph-name="kcommaaccent" unicode="&#x137;" horiz-adv-x="588" 
d="M567 70v-70h-159l-165 243v-147l53 -26v-70h-256v70l56 26v523l-56 28v73h203v-449l128 160l-52 25v73h231v-73l-50 -25l-119 -147l137 -188zM371 -76l-69 -172l-82 22l39 178z" />
    <glyph glyph-name="kgreenlandic" unicode="&#x138;" horiz-adv-x="579" 
d="M558 72v-72h-161l-154 241v-145l52 -25v-71h-255v70l56 26v332l-56 28v73h203v-256l118 158l-51 25v73h232v-73l-54 -25l-108 -146l125 -188z" />
    <glyph glyph-name="lacute" unicode="&#x13a;" horiz-adv-x="334" 
d="M243 96l56 -26v-70h-259v70l56 26v526l-56 25v73h203v-624zM282 845l-182 -90l-39 61l165 119z" />
    <glyph glyph-name="lcaron" unicode="&#x13e;" horiz-adv-x="425" 
d="M243 96l56 -26v-70h-259v70l56 26v526l-56 25v73h203v-624zM378 517h-87l28 203h118z" />
    <glyph glyph-name="lcommaaccent" unicode="&#x13c;" horiz-adv-x="334" 
d="M243 96l56 -26v-70h-259v70l56 26v526l-56 25v73h203v-624zM243 -76l-69 -172l-82 22l39 178z" />
    <glyph glyph-name="ldot" unicode="&#x140;" horiz-adv-x="535" 
d="M243 96l56 -26v-70h-259v70l56 26v526l-56 25v73h203v-624zM384 436q38 0 60.5 -21.5t22.5 -58.5q0 -36 -22.5 -58.5t-60.5 -22.5t-60.5 22.5t-22.5 58.5q0 37 23 58.5t60 21.5z" />
    <glyph glyph-name="lslash" unicode="&#x142;" horiz-adv-x="359" 
d="M255 349v-253l56 -26v-70h-259v70l56 26v185l-63 -27v113l63 28v227l-56 25v73h203v-258l64 27v-113z" />
    <glyph glyph-name="nacute" unicode="&#x144;" horiz-adv-x="631" 
d="M388 541q83 0 120.5 -47.5t37.5 -130.5v-268l56 -25v-70h-203v335q0 47 -15 67t-50 20q-15 0 -29 -5t-26 -12.5t-21.5 -15.5t-15.5 -15v-278l56 -26v-70h-258v70l56 26v335l-56 25v73h178l10 -59h2q29 31 68.5 51t89.5 20zM438 714l-172 -135l-53 56l150 160z" />
    <glyph glyph-name="napostrophe" unicode="&#x149;" horiz-adv-x="697" 
d="M50 726q36 0 53 -24.5t17 -59.5q0 -49 -26 -84.5t-80 -55.5l-18 44q28 13 40 28.5t16 38.5q-29 -7 -48 7t-19 44q0 27 18 44.5t47 17.5zM454 541q83 0 120.5 -47.5t37.5 -130.5v-268l56 -25v-70h-203v335q0 47 -15 67t-50 20q-15 0 -29 -5t-26 -12.5t-21.5 -15.5
t-15.5 -15v-278l56 -26v-70h-258v70l56 26v335l-56 25v73h178l10 -59h2q29 31 68.5 51t89.5 20z" />
    <glyph glyph-name="ncaron" unicode="&#x148;" horiz-adv-x="631" 
d="M388 541q83 0 120.5 -47.5t37.5 -130.5v-268l56 -25v-70h-203v335q0 47 -15 67t-50 20q-15 0 -29 -5t-26 -12.5t-21.5 -15.5t-15.5 -15v-278l56 -26v-70h-258v70l56 26v335l-56 25v73h178l10 -59h2q29 31 68.5 51t89.5 20zM463 740l-106 -155h-81l-105 155l60 38l86 -98
l86 98z" />
    <glyph glyph-name="ncommaaccent" unicode="&#x146;" horiz-adv-x="631" 
d="M388 541q83 0 120.5 -47.5t37.5 -130.5v-268l56 -25v-70h-203v335q0 47 -15 67t-50 20q-15 0 -29 -5t-26 -12.5t-21.5 -15.5t-15.5 -15v-278l56 -26v-70h-258v70l56 26v335l-56 25v73h178l10 -59h2q29 31 68.5 51t89.5 20zM395 -76l-69 -172l-82 22l39 178z" />
    <glyph glyph-name="eng" unicode="&#x14b;" horiz-adv-x="621" 
d="M388 541q83 0 120.5 -47.5t37.5 -130.5v-412q0 -76 -32.5 -115.5t-111.5 -39.5q-52 0 -92 12l9 100q10 -3 19.5 -4t20.5 -1q21 0 30.5 10t9.5 40v382q0 47 -15 67t-50 20q-15 0 -29 -5t-26 -12.5t-21.5 -15.5t-15.5 -15v-278l56 -25v-71h-258v71l56 25v335l-56 25v73h178
l10 -59h2q29 31 68.5 51t89.5 20z" />
    <glyph glyph-name="obreve" unicode="&#x14f;" horiz-adv-x="575" 
d="M288 541q58 0 104.5 -16t79 -49.5t50 -86t17.5 -125.5q0 -72 -19 -124t-53 -85.5t-81.5 -50t-104.5 -16.5t-102.5 16t-77.5 50t-49 86t-17 124q0 73 18.5 125t52.5 86t80 50t102 16zM288 430q-44 0 -71 -37.5t-27 -128.5q0 -45 7 -76.5t20 -51t31 -28t40 -8.5
q21 0 38.5 8.5t30 28t20 51t7.5 76.5q0 46 -7.5 77.5t-20 51t-30 28.5t-38.5 9zM433 765q-6 -88 -38.5 -130.5t-104.5 -42.5q-71 0 -103 42.5t-40 130.5l74 11q5 -51 21 -74t48 -23t48.5 23.5t21.5 73.5z" />
    <glyph glyph-name="ohungarumlaut" unicode="&#x151;" horiz-adv-x="575" 
d="M288 541q58 0 104.5 -16t79 -49.5t50 -86t17.5 -125.5q0 -72 -19 -124t-53 -85.5t-81.5 -50t-104.5 -16.5t-102.5 16t-77.5 50t-49 86t-17 124q0 73 18.5 125t52.5 86t80 50t102 16zM288 430q-44 0 -71 -37.5t-27 -128.5q0 -45 7 -76.5t20 -51t31 -28t40 -8.5
q21 0 38.5 8.5t30 28t20 51t7.5 76.5q0 46 -7.5 77.5t-20 51t-30 28.5t-38.5 9zM339 735l-117 -162l-68 35l92 176zM494 722l-115 -151l-66 36l92 165z" />
    <glyph glyph-name="omacron" unicode="&#x14d;" horiz-adv-x="575" 
d="M288 541q58 0 104.5 -16t79 -49.5t50 -86t17.5 -125.5q0 -72 -19 -124t-53 -85.5t-81.5 -50t-104.5 -16.5t-102.5 16t-77.5 50t-49 86t-17 124q0 73 18.5 125t52.5 86t80 50t102 16zM288 430q-44 0 -71 -37.5t-27 -128.5q0 -45 7 -76.5t20 -51t31 -28t40 -8.5
q21 0 38.5 8.5t30 28t20 51t7.5 76.5q0 46 -7.5 77.5t-20 51t-30 28.5t-38.5 9zM424 606h-264v88h264v-88z" />
    <glyph glyph-name="racute" unicode="&#x155;" horiz-adv-x="433" 
d="M346 540q29 0 52 -10l-10 -135q-25 5 -47 5q-34 0 -63.5 -13t-49.5 -45v-246l82 -26v-70h-284v70l56 27v334l-56 24v74h170l17 -78h2q22 45 57.5 67t73.5 22zM353 714l-172 -135l-53 56l150 160z" />
    <glyph glyph-name="rcaron" unicode="&#x159;" horiz-adv-x="433" 
d="M346 540q29 0 52 -10l-10 -135q-25 5 -47 5q-34 0 -63.5 -13t-49.5 -45v-246l82 -26v-70h-284v70l56 27v334l-56 24v74h170l17 -78h2q22 45 57.5 67t73.5 22zM379 740l-106 -155h-81l-105 155l60 38l86 -98l86 98z" />
    <glyph glyph-name="rcommaaccent" unicode="&#x157;" horiz-adv-x="433" 
d="M346 540q29 0 52 -10l-10 -135q-25 5 -47 5q-34 0 -63.5 -13t-49.5 -45v-246l82 -26v-70h-284v70l56 27v334l-56 24v74h170l17 -78h2q22 45 57.5 67t73.5 22zM264 -76l-69 -172l-82 22l39 178z" />
    <glyph glyph-name="sacute" unicode="&#x15b;" horiz-adv-x="468" 
d="M242 541q42 0 85.5 -10t81.5 -28v-133h-87l-19 68q-27 11 -54 11q-28 0 -44.5 -13.5t-16.5 -37.5q0 -16 7.5 -27.5t20.5 -20.5t30 -16t36 -14q25 -9 51.5 -20t48.5 -28t35.5 -42.5t13.5 -62.5q0 -43 -15 -76.5t-42.5 -56t-65.5 -34.5t-84 -12q-50 0 -95 8.5t-83 24.5v140
h89l18 -67q15 -6 31.5 -9t31.5 -3q29 0 50.5 13t21.5 44q0 15 -7 26t-19 20t-27.5 16t-33.5 14q-26 10 -53 21.5t-49.5 29t-36.5 44t-14 65.5q0 40 14.5 71t40 52t61 32t78.5 11zM365 714l-172 -135l-53 56l150 160z" />
    <glyph glyph-name="scedilla" unicode="&#x15f;" horiz-adv-x="468" 
d="M431 167q0 -79 -48.5 -124.5t-128.5 -53.5l-6 -34q34 -3 59.5 -20.5t25.5 -57.5q0 -47 -28 -72.5t-79 -25.5q-27 0 -50.5 5.5t-37.5 11.5l11 60q14 -4 30 -7t32 -3q19 0 29.5 6.5t10.5 23.5q0 18 -14 23.5t-43 5.5h-17l15 84q-80 4 -146 32v140h89l18 -67q15 -6 31.5 -9
t31.5 -3q29 0 50.5 13t21.5 44q0 15 -7 26t-19 20t-27.5 16t-33.5 14q-26 10 -53 21.5t-49.5 29t-36.5 44t-14 65.5q0 40 14.5 71t40 52t61 32t78.5 11q42 0 85.5 -10t81.5 -28v-133h-87l-19 68q-27 11 -54 11q-28 0 -44.5 -13.5t-16.5 -37.5q0 -16 7.5 -27.5t20.5 -20.5
t30 -16t36 -14q25 -9 51.5 -20t48.5 -28t35.5 -42.5t13.5 -62.5z" />
    <glyph glyph-name="scircumflex" unicode="&#x15d;" horiz-adv-x="468" 
d="M242 541q42 0 85.5 -10t81.5 -28v-133h-87l-19 68q-27 11 -54 11q-28 0 -44.5 -13.5t-16.5 -37.5q0 -16 7.5 -27.5t20.5 -20.5t30 -16t36 -14q25 -9 51.5 -20t48.5 -28t35.5 -42.5t13.5 -62.5q0 -43 -15 -76.5t-42.5 -56t-65.5 -34.5t-84 -12q-50 0 -95 8.5t-83 24.5v140
h89l18 -67q15 -6 31.5 -9t31.5 -3q29 0 50.5 13t21.5 44q0 15 -7 26t-19 20t-27.5 16t-33.5 14q-26 10 -53 21.5t-49.5 29t-36.5 44t-14 65.5q0 40 14.5 71t40 52t61 32t78.5 11zM245 674l-86 -98l-60 38l105 155h81l106 -155l-60 -38z" />
    <glyph glyph-name="scommaaccent" unicode="&#x219;" horiz-adv-x="468" 
d="M242 541q42 0 85.5 -10t81.5 -28v-133h-87l-19 68q-27 11 -54 11q-28 0 -44.5 -13.5t-16.5 -37.5q0 -16 7.5 -27.5t20.5 -20.5t30 -16t36 -14q25 -9 51.5 -20t48.5 -28t35.5 -42.5t13.5 -62.5q0 -43 -15 -76.5t-42.5 -56t-65.5 -34.5t-84 -12q-50 0 -95 8.5t-83 24.5v140
h89l18 -67q15 -6 31.5 -9t31.5 -3q29 0 50.5 13t21.5 44q0 15 -7 26t-19 20t-27.5 16t-33.5 14q-26 10 -53 21.5t-49.5 29t-36.5 44t-14 65.5q0 40 14.5 71t40 52t61 32t78.5 11zM301 -76l-69 -172l-82 22l39 178z" />
    <glyph glyph-name="longs" unicode="&#x17f;" horiz-adv-x="356" 
d="M251 732q49 0 94 -12l-9 -99q-11 3 -22.5 5t-22.5 2q-21 0 -32.5 -12t-11.5 -40v-479l90 -27v-70h-293v70l57 27v323h-61v89l61 16v49q0 77 35 117.5t115 40.5z" />
    <glyph glyph-name="tbar" unicode="&#x167;" horiz-adv-x="423" 
d="M378 9q-31 -9 -61.5 -15t-62.5 -6q-71 0 -105.5 32t-34.5 93v104h-69v100h69v107h-66v79l68 25l27 149h117v-148h109v-105h-109v-107h104v-100h-104v-79q0 -22 10.5 -30.5t35.5 -8.5q16 0 29.5 2.5t27.5 5.5z" />
    <glyph glyph-name="tcaron" unicode="&#x165;" horiz-adv-x="395" 
d="M242 529h109v-105h-109v-286q0 -22 10.5 -30.5t35.5 -8.5q16 0 29.5 2.5t27.5 5.5l15 -98q-31 -9 -61.5 -15t-62.5 -6q-71 0 -105.5 32t-34.5 93v311h-66v79l68 25l27 149h117v-148zM370 585h-87l28 203h118z" />
    <glyph glyph-name="ubreve" unicode="&#x16d;" horiz-adv-x="614" 
d="M522 96l57 -26v-70h-175l-15 61q-24 -30 -62.5 -51.5t-89.5 -21.5q-41 0 -70.5 12.5t-48 35t-27 54.5t-8.5 71v266l-54 29v73h201v-341q0 -40 13.5 -60t47.5 -20q28 0 50 15t36 31l-1 273l-54 29v73h200v-433zM442 765q-6 -88 -38.5 -130.5t-104.5 -42.5q-71 0 -103 42.5
t-40 130.5l74 11q5 -51 21 -74t48 -23t48.5 23.5t21.5 73.5z" />
    <glyph glyph-name="uhungarumlaut" unicode="&#x171;" horiz-adv-x="614" 
d="M522 96l57 -26v-70h-175l-15 61q-24 -30 -62.5 -51.5t-89.5 -21.5q-41 0 -70.5 12.5t-48 35t-27 54.5t-8.5 71v266l-54 29v73h201v-341q0 -40 13.5 -60t47.5 -20q28 0 50 15t36 31l-1 273l-54 29v73h200v-433zM348 735l-117 -162l-68 35l92 176zM503 722l-115 -151
l-66 36l92 165z" />
    <glyph glyph-name="umacron" unicode="&#x16b;" horiz-adv-x="614" 
d="M522 96l57 -26v-70h-175l-15 61q-24 -30 -62.5 -51.5t-89.5 -21.5q-41 0 -70.5 12.5t-48 35t-27 54.5t-8.5 71v266l-54 29v73h201v-341q0 -40 13.5 -60t47.5 -20q28 0 50 15t36 31l-1 273l-54 29v73h200v-433zM433 606h-264v88h264v-88z" />
    <glyph glyph-name="uni0163" unicode="&#x163;" horiz-adv-x="400" 
d="M238 -47q34 -3 59.5 -20.5t25.5 -57.5q0 -47 -28 -72.5t-79 -25.5q-27 0 -50.5 5.5t-37.5 11.5l11 60q14 -4 30 -7t32 -3q19 0 29.5 6.5t10.5 23.5q0 18 -14 23.5t-43 5.5h-17l17 92q-42 11 -62.5 41t-20.5 77v311h-66v79l68 25l27 149h117v-148h109v-105h-109v-286
q0 -22 10.5 -30.5t35.5 -8.5q16 0 29.5 2.5t27.5 5.5l15 -98q-30 -9 -59.5 -15t-61.5 -6z" />
    <glyph glyph-name="uni021B" unicode="&#x21b;" horiz-adv-x="395" 
d="M242 529h109v-105h-109v-286q0 -22 10.5 -30.5t35.5 -8.5q16 0 29.5 2.5t27.5 5.5l15 -98q-31 -9 -61.5 -15t-62.5 -6q-71 0 -105.5 32t-34.5 93v311h-66v79l68 25l27 149h117v-148zM286 -77l-69 -172l-82 22l39 178z" />
    <glyph glyph-name="uogonek" unicode="&#x173;" horiz-adv-x="614" 
d="M591 -201q-19 -11 -47.5 -21.5t-60.5 -10.5q-51 0 -73 25t-22 61q0 41 23.5 79.5t65.5 67.5h-73l-15 61q-24 -30 -62.5 -51.5t-89.5 -21.5q-41 0 -70.5 12.5t-48 35t-27 54.5t-8.5 71v266l-54 29v73h201v-341q0 -40 13.5 -60t47.5 -20q28 0 50 15t36 31l-1 273l-54 29v73
h200v-433l57 -26v-70h-1q-42 -26 -63.5 -58.5t-21.5 -59.5q0 -32 29 -32q20 0 47 12z" />
    <glyph glyph-name="uring" unicode="&#x16f;" horiz-adv-x="614" 
d="M522 96l57 -26v-70h-175l-15 61q-24 -30 -62.5 -51.5t-89.5 -21.5q-41 0 -70.5 12.5t-48 35t-27 54.5t-8.5 71v266l-54 29v73h201v-341q0 -40 13.5 -60t47.5 -20q28 0 50 15t36 31l-1 273l-54 29v73h200v-433zM306 780q46 0 76 -24.5t30 -73.5q0 -48 -30 -73.5t-76 -25.5
q-48 0 -77 23.5t-29 71.5q0 50 30 76t76 26zM306 724q-34 0 -34 -43q0 -42 34 -42t34 43q0 42 -34 42z" />
    <glyph glyph-name="utilde" unicode="&#x169;" horiz-adv-x="614" 
d="M522 96l57 -26v-70h-175l-15 61q-24 -30 -62.5 -51.5t-89.5 -21.5q-41 0 -70.5 12.5t-48 35t-27 54.5t-8.5 71v266l-54 29v73h201v-341q0 -40 13.5 -60t47.5 -20q28 0 50 15t36 31l-1 273l-54 29v73h200v-433zM455 703q-10 -50 -32.5 -77t-55.5 -27q-18 0 -35 5
t-31.5 10.5t-26.5 10.5t-22 5q-12 0 -20.5 -7t-17.5 -28l-65 26q11 52 34 81t57 29q19 0 35.5 -5t31 -11.5t26.5 -11.5t23 -5q13 0 21.5 6.5t16.5 25.5z" />
    <glyph glyph-name="wacute" unicode="&#x1e83;" horiz-adv-x="824" 
d="M809 529v-73l-47 -25l-103 -431h-167l-78 362h-2l-82 -362h-159l-108 431l-48 25v73h243v-73l-44 -25l53 -290h2l83 386h148l83 -387h2l54 291l-45 25v73h215zM536 714l-172 -135l-53 56l150 160z" />
    <glyph glyph-name="wcircumflex" unicode="&#x175;" horiz-adv-x="824" 
d="M809 529v-73l-47 -25l-103 -431h-167l-78 362h-2l-82 -362h-159l-108 431l-48 25v73h243v-73l-44 -25l53 -290h2l83 386h148l83 -387h2l54 291l-45 25v73h215zM416 674l-86 -98l-60 38l105 155h81l106 -155l-60 -38z" />
    <glyph glyph-name="wdieresis" unicode="&#x1e85;" horiz-adv-x="824" 
d="M809 529v-73l-47 -25l-103 -431h-167l-78 362h-2l-82 -362h-159l-108 431l-48 25v73h243v-73l-44 -25l53 -290h2l83 386h148l83 -387h2l54 291l-45 25v73h215zM318 738q37 0 55.5 -19t18.5 -48q0 -30 -20 -48.5t-54 -18.5q-35 0 -54.5 17.5t-19.5 49.5q0 29 20 48t54 19z
M519 738q37 0 55.5 -19t18.5 -48q0 -30 -20.5 -48.5t-53.5 -18.5q-35 0 -54.5 17.5t-19.5 49.5q0 29 20 48t54 19z" />
    <glyph glyph-name="wgrave" unicode="&#x1e81;" horiz-adv-x="824" 
d="M809 529v-73l-47 -25l-103 -431h-167l-78 362h-2l-82 -362h-159l-108 431l-48 25v73h243v-73l-44 -25l53 -290h2l83 386h148l83 -387h2l54 291l-45 25v73h215zM525 635l-53 -56l-172 135l75 81z" />
    <glyph glyph-name="ycircumflex" unicode="&#x177;" horiz-adv-x="559" 
d="M544 455l-41 -25l-153 -440q-18 -52 -35 -89t-38.5 -61t-50 -35.5t-68.5 -11.5q-32 0 -58 4.5t-46 9.5l15 107q11 -2 28 -4.5t36 -2.5q21 0 36 13.5t26 50.5l7 25l-146 434l-41 25v74h243v-73l-45 -25l77 -292h2l81 292l-45 25v73h216v-74zM284 674l-86 -98l-60 38
l105 155h81l106 -155l-60 -38z" />
    <glyph glyph-name="ygrave" unicode="&#x1ef3;" horiz-adv-x="559" 
d="M544 455l-41 -25l-153 -440q-18 -52 -35 -89t-38.5 -61t-50 -35.5t-68.5 -11.5q-32 0 -58 4.5t-46 9.5l15 107q11 -2 28 -4.5t36 -2.5q21 0 36 13.5t26 50.5l7 25l-146 434l-41 25v74h243v-73l-45 -25l77 -292h2l81 292l-45 25v73h216v-74zM393 635l-53 -56l-172 135
l75 81z" />
    <glyph glyph-name="zacute" unicode="&#x17a;" horiz-adv-x="465" 
d="M427 458l-220 -364h119l25 90h82v-184h-398v76l217 359h-108l-25 -83h-80v177h388v-71zM356 714l-172 -135l-53 56l150 160z" />
    <glyph glyph-name="zcaron" unicode="&#x17e;" horiz-adv-x="465" 
d="M427 458l-220 -364h119l25 90h82v-184h-398v76l217 359h-108l-25 -83h-80v177h388v-71zM381 740l-106 -155h-81l-105 155l60 38l86 -98l86 98z" />
    <glyph glyph-name="zdotaccent" unicode="&#x17c;" horiz-adv-x="465" 
d="M427 458l-220 -364h119l25 90h82v-184h-398v76l217 359h-108l-25 -83h-80v177h388v-71zM236 742q38 0 63.5 -19.5t25.5 -57.5t-25 -57t-64 -19q-37 0 -63 19t-26 57t25.5 57.5t63.5 19.5z" />
    <glyph glyph-name="a.alt" horiz-adv-x="603" 
d="M236 541q49 0 84.5 -21t56.5 -49h2l11 58h178v-73l-56 -25v-335l56 -26v-70h-184l-10 61q-9 -13 -22 -26t-31.5 -23.5t-42 -17t-51.5 -6.5q-95 0 -143.5 68.5t-48.5 206.5q0 73 15.5 126t42.5 86.5t63.5 49.5t79.5 16zM278 424q-41 0 -64.5 -37.5t-23.5 -121.5
q0 -74 19.5 -117t70.5 -43q29 0 51.5 14.5t35.5 29.5v227q-13 16 -36.5 32t-52.5 16z" />
    <glyph glyph-name="aacute.alt" horiz-adv-x="603" 
d="M426 714l-172 -135l-53 56l150 160zM236 541q49 0 84.5 -21t56.5 -49h2l11 58h178v-73l-56 -25v-335l56 -26v-70h-184l-10 61q-9 -13 -22 -26t-31.5 -23.5t-42 -17t-51.5 -6.5q-95 0 -143.5 68.5t-48.5 206.5q0 73 15.5 126t42.5 86.5t63.5 49.5t79.5 16zM278 424
q-41 0 -64.5 -37.5t-23.5 -121.5q0 -74 19.5 -117t70.5 -43q29 0 51.5 14.5t35.5 29.5v227q-13 16 -36.5 32t-52.5 16z" />
    <glyph glyph-name="abreve.alt" horiz-adv-x="603" 
d="M450 765q-6 -88 -38.5 -130.5t-104.5 -42.5q-71 0 -103 42.5t-40 130.5l74 11q5 -51 21 -74t48 -23t48.5 23.5t21.5 73.5zM236 541q49 0 84.5 -21t56.5 -49h2l11 58h178v-73l-56 -25v-335l56 -26v-70h-184l-10 61q-9 -13 -22 -26t-31.5 -23.5t-42 -17t-51.5 -6.5
q-95 0 -143.5 68.5t-48.5 206.5q0 73 15.5 126t42.5 86.5t63.5 49.5t79.5 16zM278 424q-41 0 -64.5 -37.5t-23.5 -121.5q0 -74 19.5 -117t70.5 -43q29 0 51.5 14.5t35.5 29.5v227q-13 16 -36.5 32t-52.5 16z" />
    <glyph glyph-name="acircumflex.alt" horiz-adv-x="603" 
d="M306 674l-86 -98l-60 38l105 155h81l106 -155l-60 -38zM236 541q49 0 84.5 -21t56.5 -49h2l11 58h178v-73l-56 -25v-335l56 -26v-70h-184l-10 61q-9 -13 -22 -26t-31.5 -23.5t-42 -17t-51.5 -6.5q-95 0 -143.5 68.5t-48.5 206.5q0 73 15.5 126t42.5 86.5t63.5 49.5
t79.5 16zM278 424q-41 0 -64.5 -37.5t-23.5 -121.5q0 -74 19.5 -117t70.5 -43q29 0 51.5 14.5t35.5 29.5v227q-13 16 -36.5 32t-52.5 16z" />
    <glyph glyph-name="adieresis.alt" horiz-adv-x="603" 
d="M208 738q37 0 55.5 -19t18.5 -48q0 -30 -20 -48.5t-54 -18.5q-35 0 -54.5 17.5t-19.5 49.5q0 29 20 48t54 19zM409 738q37 0 55.5 -19t18.5 -48q0 -30 -20.5 -48.5t-53.5 -18.5q-35 0 -54.5 17.5t-19.5 49.5q0 29 20 48t54 19zM236 541q49 0 84.5 -21t56.5 -49h2l11 58
h178v-73l-56 -25v-335l56 -26v-70h-184l-10 61q-9 -13 -22 -26t-31.5 -23.5t-42 -17t-51.5 -6.5q-95 0 -143.5 68.5t-48.5 206.5q0 73 15.5 126t42.5 86.5t63.5 49.5t79.5 16zM278 424q-41 0 -64.5 -37.5t-23.5 -121.5q0 -74 19.5 -117t70.5 -43q29 0 51.5 14.5t35.5 29.5
v227q-13 16 -36.5 32t-52.5 16z" />
    <glyph glyph-name="agrave.alt" horiz-adv-x="603" 
d="M415 635l-53 -56l-172 135l75 81zM236 541q49 0 84.5 -21t56.5 -49h2l11 58h178v-73l-56 -25v-335l56 -26v-70h-184l-10 61q-9 -13 -22 -26t-31.5 -23.5t-42 -17t-51.5 -6.5q-95 0 -143.5 68.5t-48.5 206.5q0 73 15.5 126t42.5 86.5t63.5 49.5t79.5 16zM278 424
q-41 0 -64.5 -37.5t-23.5 -121.5q0 -74 19.5 -117t70.5 -43q29 0 51.5 14.5t35.5 29.5v227q-13 16 -36.5 32t-52.5 16z" />
    <glyph glyph-name="amacron.alt" horiz-adv-x="603" 
d="M441 606h-264v88h264v-88zM236 541q49 0 84.5 -21t56.5 -49h2l11 58h178v-73l-56 -25v-335l56 -26v-70h-184l-10 61q-9 -13 -22 -26t-31.5 -23.5t-42 -17t-51.5 -6.5q-95 0 -143.5 68.5t-48.5 206.5q0 73 15.5 126t42.5 86.5t63.5 49.5t79.5 16zM278 424
q-41 0 -64.5 -37.5t-23.5 -121.5q0 -74 19.5 -117t70.5 -43q29 0 51.5 14.5t35.5 29.5v227q-13 16 -36.5 32t-52.5 16z" />
    <glyph glyph-name="aogonek.alt" horiz-adv-x="603" 
d="M581 -201q-19 -11 -47.5 -21.5t-60.5 -10.5q-51 0 -73 25t-22 61q0 41 23.5 79.5t65.5 67.5h-83l-10 61q-9 -13 -22 -26t-31.5 -23.5t-42 -17t-51.5 -6.5q-95 0 -143.5 68.5t-48.5 206.5q0 73 15.5 126t42.5 86.5t63.5 49.5t79.5 16q49 0 84.5 -21t56.5 -49h2l11 58h178
v-73l-56 -25v-335l56 -26v-70q-42 -26 -63.5 -58.5t-21.5 -59.5q0 -32 29 -32q20 0 47 12zM367 376q-13 16 -36.5 32t-52.5 16q-41 0 -64.5 -37.5t-23.5 -121.5q0 -74 19.5 -117t70.5 -43q29 0 51.5 14.5t35.5 29.5v227z" />
    <glyph glyph-name="aring.alt" horiz-adv-x="603" 
d="M314 780q46 0 76 -24.5t30 -73.5q0 -48 -30 -73.5t-76 -25.5q-48 0 -77 23.5t-29 71.5q0 50 30 76t76 26zM314 724q-34 0 -34 -43q0 -42 34 -42t34 43q0 42 -34 42zM236 541q49 0 84.5 -21t56.5 -49h2l11 58h178v-73l-56 -25v-335l56 -26v-70h-184l-10 61q-9 -13 -22 -26
t-31.5 -23.5t-42 -17t-51.5 -6.5q-95 0 -143.5 68.5t-48.5 206.5q0 73 15.5 126t42.5 86.5t63.5 49.5t79.5 16zM278 424q-41 0 -64.5 -37.5t-23.5 -121.5q0 -74 19.5 -117t70.5 -43q29 0 51.5 14.5t35.5 29.5v227q-13 16 -36.5 32t-52.5 16z" />
    <glyph glyph-name="atilde.alt" horiz-adv-x="603" 
d="M463 703q-10 -50 -32.5 -77t-55.5 -27q-18 0 -35 5t-31.5 10.5t-26.5 10.5t-22 5q-12 0 -20.5 -7t-17.5 -28l-65 26q11 52 34 81t57 29q19 0 35.5 -5t31 -11.5t26.5 -11.5t23 -5q13 0 21.5 6.5t16.5 25.5zM236 541q49 0 84.5 -21t56.5 -49h2l11 58h178v-73l-56 -25v-335
l56 -26v-70h-184l-10 61q-9 -13 -22 -26t-31.5 -23.5t-42 -17t-51.5 -6.5q-95 0 -143.5 68.5t-48.5 206.5q0 73 15.5 126t42.5 86.5t63.5 49.5t79.5 16zM278 424q-41 0 -64.5 -37.5t-23.5 -121.5q0 -74 19.5 -117t70.5 -43q29 0 51.5 14.5t35.5 29.5v227q-13 16 -36.5 32
t-52.5 16z" />
    <glyph glyph-name="g.alt" horiz-adv-x="602" 
d="M238 541q48 0 84 -21.5t59 -48.5h2l10 58h174v-74l-56 -29v-404q0 -67 -14 -111.5t-41 -71.5t-68 -38t-95 -11q-60 0 -112 10t-85 23l22 104q32 -10 70 -18t76 -8q30 0 50.5 6t32.5 20.5t17 37.5t5 56v42q-24 -31 -60.5 -48t-79.5 -17q-91 0 -142.5 63.5t-51.5 200.5
q0 139 52 209t151 70zM279 423q-89 0 -89 -156q0 -80 21.5 -116.5t68.5 -36.5q30 0 51 14.5t35 29.5v215q-13 17 -35.5 33.5t-51.5 16.5z" />
    <glyph glyph-name="gbreve.alt" horiz-adv-x="602" 
d="M450 765q-6 -88 -38.5 -130.5t-104.5 -42.5q-71 0 -103 42.5t-40 130.5l74 11q5 -51 21 -74t48 -23t48.5 23.5t21.5 73.5zM238 541q48 0 84 -21.5t59 -48.5h2l10 58h174v-74l-56 -29v-404q0 -67 -14 -111.5t-41 -71.5t-68 -38t-95 -11q-60 0 -112 10t-85 23l22 104
q32 -10 70 -18t76 -8q30 0 50.5 6t32.5 20.5t17 37.5t5 56v42q-24 -31 -60.5 -48t-79.5 -17q-91 0 -142.5 63.5t-51.5 200.5q0 139 52 209t151 70zM279 423q-89 0 -89 -156q0 -80 21.5 -116.5t68.5 -36.5q30 0 51 14.5t35 29.5v215q-13 17 -35.5 33.5t-51.5 16.5z" />
    <glyph glyph-name="gcircumflex.alt" horiz-adv-x="602" 
d="M306 674l-86 -98l-60 38l105 155h81l106 -155l-60 -38zM238 541q48 0 84 -21.5t59 -48.5h2l10 58h174v-74l-56 -29v-404q0 -67 -14 -111.5t-41 -71.5t-68 -38t-95 -11q-60 0 -112 10t-85 23l22 104q32 -10 70 -18t76 -8q30 0 50.5 6t32.5 20.5t17 37.5t5 56v42
q-24 -31 -60.5 -48t-79.5 -17q-91 0 -142.5 63.5t-51.5 200.5q0 139 52 209t151 70zM279 423q-89 0 -89 -156q0 -80 21.5 -116.5t68.5 -36.5q30 0 51 14.5t35 29.5v215q-13 17 -35.5 33.5t-51.5 16.5z" />
    <glyph glyph-name="gcommaaccent.alt" horiz-adv-x="602" 
d="M232 611l69 172l82 -22l-39 -178zM238 541q48 0 84 -21.5t59 -48.5h2l10 58h174v-74l-56 -29v-404q0 -67 -14 -111.5t-41 -71.5t-68 -38t-95 -11q-60 0 -112 10t-85 23l22 104q32 -10 70 -18t76 -8q30 0 50.5 6t32.5 20.5t17 37.5t5 56v42q-24 -31 -60.5 -48t-79.5 -17
q-91 0 -142.5 63.5t-51.5 200.5q0 139 52 209t151 70zM279 423q-89 0 -89 -156q0 -80 21.5 -116.5t68.5 -36.5q30 0 51 14.5t35 29.5v215q-13 17 -35.5 33.5t-51.5 16.5z" />
    <glyph glyph-name="gdotaccent.alt" horiz-adv-x="602" 
d="M306 743q38 0 63.5 -19.5t25.5 -57.5t-25 -57t-64 -19q-37 0 -63 19t-26 57t25.5 57.5t63.5 19.5zM238 541q48 0 84 -21.5t59 -48.5h2l10 58h174v-74l-56 -29v-404q0 -67 -14 -111.5t-41 -71.5t-68 -38t-95 -11q-60 0 -112 10t-85 23l22 104q32 -10 70 -18t76 -8
q30 0 50.5 6t32.5 20.5t17 37.5t5 56v42q-24 -31 -60.5 -48t-79.5 -17q-91 0 -142.5 63.5t-51.5 200.5q0 139 52 209t151 70zM279 423q-89 0 -89 -156q0 -80 21.5 -116.5t68.5 -36.5q30 0 51 14.5t35 29.5v215q-13 17 -35.5 33.5t-51.5 16.5z" />
    <glyph glyph-name="Delta" unicode="&#x2206;" horiz-adv-x="668" 
d="M649 0h-630l228 720h175zM206 113h248l-121 446z" />
    <glyph glyph-name="uni0394" unicode="&#x394;" horiz-adv-x="668" 
d="M649 0h-630l228 720h175zM206 113h248l-121 446z" />
    <glyph glyph-name="Omega" unicode="&#x2126;" horiz-adv-x="742" 
d="M373 733q73 0 131.5 -20t99 -60t62.5 -100t22 -139q0 -53 -11 -96.5t-30.5 -78t-45 -59t-54.5 -39.5v-8h138v-133h-270v133q54 35 84 96.5t30 146.5q0 106 -39.5 161t-116.5 55q-76 0 -116 -56.5t-40 -162.5q0 -84 28.5 -144.5t76.5 -94.5v-134h-270v133h136v8
q-27 16 -50.5 40.5t-41 57.5t-28 74t-10.5 89q0 80 22 142t63 104t99 63.5t131 21.5z" />
    <glyph glyph-name="uni03A9" unicode="&#x3a9;" horiz-adv-x="742" 
d="M373 733q73 0 131.5 -20t99 -60t62.5 -100t22 -139q0 -53 -11 -96.5t-30.5 -78t-45 -59t-54.5 -39.5v-8h138v-133h-270v133q54 35 84 96.5t30 146.5q0 106 -39.5 161t-116.5 55q-76 0 -116 -56.5t-40 -162.5q0 -84 28.5 -144.5t76.5 -94.5v-134h-270v133h136v8
q-27 16 -50.5 40.5t-41 57.5t-28 74t-10.5 89q0 80 22 142t63 104t99 63.5t131 21.5z" />
    <glyph glyph-name="uni03BC" unicode="&#x3bc;" horiz-adv-x="601" 
d="M522 121q0 -16 8.5 -24.5t22.5 -8.5h13v-88q-15 -3 -31 -5.5t-34 -2.5q-39 0 -63.5 15t-35.5 48q-31 -63 -100 -63q-25 0 -41.5 7t-27.5 20v-219h-147v628l-54 28v73h201v-346q0 -89 70 -89q27 0 46 17.5t27 36.5v280l-54 28v73h200v-408z" />
    <glyph glyph-name="pi" unicode="&#x3c0;" horiz-adv-x="644" 
d="M589 424h-54v-328l57 -26v-70h-204v424h-90q0 -133 -17 -237.5t-58 -186.5h-144v59q25 43 40 84t23.5 85t11.5 92t3 104q-30 0 -54.5 -9.5t-40.5 -28.5l-34 33q14 48 52.5 79t105.5 31h418z" />
    <glyph glyph-name="zero.denom" horiz-adv-x="392" 
d="M198 384q79 0 118 -46.5t39 -144.5q0 -103 -41.5 -150.5t-117.5 -47.5t-117 45t-41 151q0 99 41 146t119 47zM198 303q-23 0 -37.5 -24t-14.5 -88q0 -65 13.5 -89.5t37.5 -24.5q51 0 51 113q0 66 -13.5 89.5t-36.5 23.5z" />
    <glyph glyph-name="one.denom" horiz-adv-x="339" 
d="M232 81l74 -21v-59h-257v59l77 21v176q-20 -5 -39 -7.5t-40 -3.5l-10 71q33 8 63 23t51 37h81v-296z" />
    <glyph glyph-name="two.denom" horiz-adv-x="363" 
d="M176 384q66 0 99.5 -26.5t33.5 -72.5q0 -30 -14.5 -58.5t-40.5 -54.5l-88 -98h91l14 53h51v-126h-283v67l107 114q23 23 38 42.5t15 42.5q0 14 -7.5 23.5t-27.5 9.5q-22 0 -33.5 -12.5t-16.5 -38.5l-87 19q4 25 14.5 46t28.5 36.5t44 24.5t62 9z" />
    <glyph glyph-name="three.denom" horiz-adv-x="349" 
d="M166 384q63 0 95 -24.5t32 -66.5q0 -32 -17.5 -57t-52.5 -36q48 -8 67.5 -33t19.5 -60q0 -28 -11 -49t-31 -35.5t-47.5 -21.5t-59.5 -7q-41 0 -76.5 11t-64.5 34l32 65q23 -14 46.5 -21.5t49.5 -7.5q25 0 39.5 9t14.5 31q0 21 -14 32.5t-49 11.5q-8 0 -16.5 -0.5
t-13.5 -1.5v59q82 2 82 53q0 13 -8.5 22.5t-26.5 9.5q-20 0 -31 -11t-16 -31l-83 18q8 47 40.5 77t99.5 30z" />
    <glyph glyph-name="four.denom" horiz-adv-x="388" 
d="M310 145h45v-75h-45v-69h-101v69h-175v74l139 233h137v-232zM207 292l-86 -147h88v147h-2z" />
    <glyph glyph-name="five.denom" horiz-adv-x="359" 
d="M300 292h-147l-6 -73q11 6 29 11.5t41 5.5q52 0 81 -28.5t29 -83.5q0 -32 -11.5 -57t-31.5 -41.5t-47.5 -25t-58.5 -8.5q-43 0 -79 12t-64 31l31 62q22 -11 46.5 -18t44.5 -7q27 0 44.5 13.5t17.5 43.5q0 46 -40 46q-15 0 -26.5 -5.5t-18.5 -11.5l-2 -14h-73l16 233h230z
" />
    <glyph glyph-name="six.denom" horiz-adv-x="371" 
d="M214 384q29 0 57 -7t51 -18l-22 -71q-35 16 -69 16q-77 0 -83 -95q17 12 39 20.5t46 8.5q55 0 80 -31t25 -79q0 -35 -11.5 -60.5t-31 -41.5t-45.5 -23.5t-55 -7.5q-84 0 -118 45.5t-34 131.5q0 46 10 85t31 67.5t53 44t77 15.5zM200 171q-16 0 -29 -6t-22 -13
q1 -49 12 -68.5t34 -19.5q20 0 31 13.5t11 43.5q0 28 -10 39t-27 11z" />
    <glyph glyph-name="seven.denom" horiz-adv-x="337" 
d="M308 319l-123 -319h-116v11l126 292h-90l-17 -68h-58v142h278v-58z" />
    <glyph glyph-name="eight.denom" horiz-adv-x="371" 
d="M191 384q67 0 100 -25t33 -67q0 -32 -16.5 -54.5t-39.5 -35.5q35 -17 52.5 -37t17.5 -57q0 -56 -44.5 -84.5t-113.5 -28.5t-107.5 26t-38.5 77q0 41 22 63t50 36q-26 13 -42.5 33.5t-16.5 49.5q0 49 36.5 76.5t107.5 27.5zM190 322q-20 0 -30.5 -9.5t-10.5 -26.5t13 -28
t35 -21q13 9 23 21.5t10 28.5q0 35 -40 35zM167 160q-14 -10 -26 -22.5t-12 -32.5q0 -43 53 -43q21 0 34 11.5t13 31.5q0 23 -18.5 34t-43.5 21z" />
    <glyph glyph-name="nine.denom" horiz-adv-x="371" 
d="M145 -6q-29 0 -57 7t-51 18l22 71q35 -16 69 -16q77 0 83 95q-17 -12 -39 -20.5t-46 -8.5q-55 0 -80 31t-25 79q0 35 11.5 60.5t31 41.5t45.5 23.5t55 7.5q84 0 118 -46t34 -131q0 -47 -10 -85.5t-31 -67t-53 -44t-77 -15.5zM159 207q16 0 29 6t22 13q-1 49 -12 68.5
t-34 19.5q-20 0 -31 -13.5t-11 -43.5q0 -28 10 -39t27 -11z" />
    <glyph glyph-name="zero.num" horiz-adv-x="392" 
d="M198 734q79 0 118 -46.5t39 -144.5q0 -103 -41.5 -150.5t-117.5 -47.5t-117 45t-41 151q0 99 41 146t119 47zM198 653q-23 0 -37.5 -24t-14.5 -88q0 -65 13.5 -89.5t37.5 -24.5q51 0 51 113q0 66 -13.5 89.5t-36.5 23.5z" />
    <glyph glyph-name="one.num" horiz-adv-x="339" 
d="M233 431l74 -21v-59h-257v59l77 21v176q-20 -5 -39 -7.5t-40 -3.5l-10 71q33 8 63 23t51 37h81v-296z" />
    <glyph glyph-name="two.num" horiz-adv-x="363" 
d="M176 734q66 0 99.5 -26.5t33.5 -72.5q0 -30 -14.5 -58.5t-40.5 -54.5l-88 -98h91l14 53h51v-126h-283v67l107 114q23 23 38 42.5t15 42.5q0 14 -7.5 23.5t-27.5 9.5q-22 0 -33.5 -12.5t-16.5 -38.5l-87 19q4 25 14.5 46t28.5 36.5t44 24.5t62 9z" />
    <glyph glyph-name="three.num" horiz-adv-x="349" 
d="M166 734q63 0 95 -24.5t32 -66.5q0 -32 -17.5 -57t-52.5 -36q48 -8 67.5 -33t19.5 -60q0 -28 -11 -49t-31 -35.5t-47.5 -21.5t-59.5 -7q-41 0 -76.5 11t-64.5 34l32 65q23 -14 46.5 -21.5t49.5 -7.5q25 0 39.5 9t14.5 31q0 21 -14 32.5t-49 11.5q-8 0 -16.5 -0.5
t-13.5 -1.5v59q82 2 82 53q0 13 -8.5 22.5t-26.5 9.5q-20 0 -31 -11t-16 -31l-83 18q8 47 40.5 77t99.5 30z" />
    <glyph glyph-name="four.num" horiz-adv-x="388" 
d="M310 495h45v-75h-45v-69h-101v69h-175v74l139 233h137v-232zM207 642l-86 -147h88v147h-2z" />
    <glyph glyph-name="five.num" horiz-adv-x="359" 
d="M300 642h-147l-6 -73q11 6 29 11.5t41 5.5q52 0 81 -28.5t29 -83.5q0 -32 -11.5 -57t-31.5 -41.5t-47.5 -25t-58.5 -8.5q-43 0 -79 12t-64 31l31 62q22 -11 46.5 -18t44.5 -7q27 0 44.5 13.5t17.5 43.5q0 46 -40 46q-15 0 -26.5 -5.5t-18.5 -11.5l-2 -14h-73l16 233h230z
" />
    <glyph glyph-name="six.num" horiz-adv-x="371" 
d="M214 734q29 0 57 -7t51 -18l-22 -71q-35 16 -69 16q-77 0 -83 -95q17 12 39 20.5t46 8.5q55 0 80 -31t25 -79q0 -35 -11.5 -60.5t-31 -41.5t-45.5 -23.5t-55 -7.5q-84 0 -118 45.5t-34 131.5q0 46 10 85t31 67.5t53 44t77 15.5zM200 521q-16 0 -29 -6t-22 -13
q1 -49 12 -68.5t34 -19.5q20 0 31 13.5t11 43.5q0 28 -10 39t-27 11z" />
    <glyph glyph-name="seven.num" horiz-adv-x="337" 
d="M308 669l-123 -319h-116v11l126 292h-90l-17 -68h-58v142h278v-58z" />
    <glyph glyph-name="eight.num" horiz-adv-x="371" 
d="M191 734q67 0 100 -25t33 -67q0 -32 -16.5 -54.5t-39.5 -35.5q35 -17 52.5 -37t17.5 -57q0 -56 -44.5 -84.5t-113.5 -28.5t-107.5 26t-38.5 77q0 41 22 63t50 36q-26 13 -42.5 33.5t-16.5 49.5q0 49 36.5 76.5t107.5 27.5zM190 672q-20 0 -30.5 -9.5t-10.5 -26.5t13 -28
t35 -21q13 9 23 21.5t10 28.5q0 35 -40 35zM167 510q-14 -10 -26 -22.5t-12 -32.5q0 -43 53 -43q21 0 34 11.5t13 31.5q0 23 -18.5 34t-43.5 21z" />
    <glyph glyph-name="nine.num" horiz-adv-x="371" 
d="M145 344q-29 0 -57 7t-51 18l22 71q35 -16 69 -16q77 0 83 95q-17 -12 -39 -20.5t-46 -8.5q-55 0 -80 31t-25 79q0 35 11.5 60.5t31 41.5t45.5 23.5t55 7.5q84 0 118 -46t34 -131q0 -47 -10 -85.5t-31 -67t-53 -44t-77 -15.5zM159 557q16 0 29 6t22 13q-1 49 -12 68.5
t-34 19.5q-20 0 -31 -13.5t-11 -43.5q0 -28 10 -39t27 -11z" />
    <glyph glyph-name="zero.osf" horiz-adv-x="594" 
d="M298 612q124 0 187 -72.5t63 -233.5q0 -164 -64 -241t-187 -77q-125 0 -188 76t-63 239q0 158 66.5 233.5t185.5 75.5zM298 488q-53 0 -79.5 -42.5t-26.5 -141.5q0 -105 26 -148.5t79 -43.5t79.5 43.5t26.5 150.5q0 52 -6.5 87t-20 56t-33 30t-45.5 9z" />
    <glyph glyph-name="one.osf" horiz-adv-x="473" 
d="M332 102l114 -26v-76h-389v76l131 26v318q-32 -18 -60 -27t-66 -14l-18 102q51 17 94.5 47t79.5 73h114v-499z" />
    <glyph glyph-name="two.osf" horiz-adv-x="541" 
d="M255 612q99 0 152 -44t53 -119q0 -56 -24.5 -99.5t-71.5 -90.5l-134 -148h155l21 88h88v-199h-446v88l192 209q33 34 53.5 66t20.5 68q0 27 -15.5 46.5t-53.5 19.5q-40 0 -59 -25.5t-28 -72.5l-118 24q6 40 20.5 75t40 60t63.5 39.5t91 14.5z" />
    <glyph glyph-name="three.osf" horiz-adv-x="520" 
d="M245 612q101 0 153.5 -43t52.5 -119q0 -61 -33 -101t-89 -58q76 -11 113 -55t37 -110q0 -50 -18 -86.5t-49.5 -61.5t-73.5 -37t-90 -12q-61 0 -119.5 21.5t-103.5 64.5l53 95q37 -27 75.5 -42t82.5 -15t71.5 21t27.5 64q0 39 -26.5 58.5t-86.5 19.5q-14 0 -31 -1t-28 -2
l-3 112q32 1 59 7t47 17.5t31.5 29t11.5 40.5q0 32 -16 54.5t-55 22.5q-41 0 -60.5 -25t-27.5 -73l-118 25q6 40 20.5 75t40 60t63 39.5t89.5 14.5z" />
    <glyph glyph-name="four.osf" horiz-adv-x="578" 
d="M469 201h66v-112h-66v-149h-136v149h-294v107l254 405h176v-400zM331 477l-167 -276h169v276h-2z" />
    <glyph glyph-name="five.osf" horiz-adv-x="515" 
d="M430 473h-235l-10 -141q20 14 47.5 24.5t66.5 10.5q81 0 129.5 -50t48.5 -150q0 -59 -18.5 -103.5t-50 -74.5t-74.5 -45t-91 -15q-54 0 -108.5 17t-99.5 52l44 98q41 -22 75.5 -32.5t70.5 -10.5q45 0 77.5 26.5t32.5 87.5q0 46 -19.5 70.5t-57.5 24.5q-23 0 -46 -9
t-37 -23l-3 -37h-116l28 408h355z" />
    <glyph glyph-name="six.osf" horiz-adv-x="547" 
d="M306 708q44 0 87.5 -13.5t82.5 -39.5l-39 -99q-26 16 -54 23t-57 7q-36 0 -61 -14t-41 -39.5t-24.5 -62t-11.5 -82.5q25 22 62 38t79 16q86 0 132 -52.5t46 -158.5q0 -65 -17.5 -111t-47.5 -75.5t-71 -43t-88 -13.5q-125 0 -178.5 83t-53.5 247q0 192 65 291t190 99z
M287 333q-30 0 -55.5 -14.5t-39.5 -27.5q1 -97 22.5 -140.5t70.5 -43.5q38 0 60.5 26t22.5 90q0 60 -22.5 85t-58.5 25z" />
    <glyph glyph-name="seven.osf" horiz-adv-x="496" 
d="M461 509l-215 -569h-158v15l217 534h-162l-22 -90h-87v202h427v-92z" />
    <glyph glyph-name="eight.osf" horiz-adv-x="536" 
d="M271 707q97 0 151.5 -45t54.5 -123q0 -60 -29 -100.5t-65 -62.5q54 -31 86 -72.5t32 -109.5q0 -50 -17.5 -88t-49 -64.5t-75.5 -40t-98 -13.5q-109 0 -167.5 48.5t-58.5 139.5q0 36 9.5 64.5t25.5 51.5t37.5 40t44.5 30q-42 26 -69.5 63.5t-27.5 94.5q0 43 15.5 77.5
t43.5 59t68 37.5t89 13zM273 605q-33 0 -53 -19t-20 -54q0 -33 24 -55.5t64 -42.5q23 20 41 45t18 57t-19.5 50.5t-54.5 18.5zM237 304q-31 -20 -51.5 -47.5t-20.5 -69.5q0 -39 23.5 -63.5t69.5 -24.5q44 0 66.5 25t22.5 63q0 22 -9 39.5t-24.5 31.5t-35.5 25t-41 21z" />
    <glyph glyph-name="nine.osf" horiz-adv-x="547" 
d="M267 613q61 0 105 -22t71.5 -64t40.5 -101.5t13 -134.5q0 -189 -63 -276t-181 -87q-51 0 -97 12t-86 38l39 98q23 -13 55.5 -23.5t70.5 -10.5q60 0 87 40.5t35 127.5q-26 -22 -60.5 -37t-76.5 -15q-86 0 -132.5 54t-46.5 156q0 63 17.5 109.5t48 76.5t71.5 44.5t89 14.5z
M262 494q-37 0 -60 -26.5t-23 -91.5q0 -57 21.5 -83t59.5 -26q29 0 55 15.5t40 29.5q-1 95 -23 138.5t-70 43.5z" />
    <glyph glyph-name="zero.tf" 
d="M288 731q116 0 177.5 -87t61.5 -277q0 -103 -16 -175t-47 -117.5t-76.5 -66t-104.5 -20.5t-104 20.5t-75.5 65.5t-46 115.5t-15.5 170.5q0 98 16 168t47.5 115t77.5 66.5t105 21.5zM285 606q-52 0 -75 -57t-23 -188q0 -135 23 -192t74 -57q25 0 43.5 13.5t30.5 43.5
t18 78t6 116q0 130 -22.5 186.5t-74.5 56.5z" />
    <glyph glyph-name="one.tf" 
d="M385 101l115 -26v-75h-384v75l125 26v439q-32 -17 -61 -26.5t-67 -14.5l-18 102q106 36 176 119h114v-619z" />
    <glyph glyph-name="two.tf" 
d="M291 730q100 0 152.5 -47.5t52.5 -132.5q0 -63 -26 -116.5t-71 -113.5l-151 -209h161l22 90h87v-201h-441v91l222 306q53 74 53 137q0 33 -15.5 56.5t-53.5 23.5q-39 0 -58 -25t-27 -72l-117 25q6 40 20 74.5t39 59.5t62 39.5t89 14.5z" />
    <glyph glyph-name="three.tf" 
d="M264 730q100 0 152.5 -45t52.5 -130q0 -63 -35 -109.5t-92 -64.5q78 -12 119.5 -59t41.5 -122q0 -54 -18.5 -93.5t-51 -66t-75.5 -39.5t-92 -13q-61 0 -117.5 20t-107.5 67l54 95q35 -24 75 -41.5t82 -17.5q46 0 76.5 25.5t30.5 73.5q0 45 -28.5 69.5t-88.5 24.5
q-14 0 -30.5 -1t-28.5 -3l-4 112q67 1 107 35t40 86q0 34 -15.5 57.5t-53.5 23.5q-39 0 -59 -25.5t-29 -70.5l-114 24q6 40 20 74.5t39 59.5t62 39.5t88 14.5z" />
    <glyph glyph-name="four.tf" 
d="M449 272h74v-101h-74v-70l74 -26v-75h-313v75l103 26v70h-277v96l231 453h182v-448zM311 592l-152 -320h154v320h-2z" />
    <glyph glyph-name="five.tf" 
d="M462 575h-241l-12 -160q17 14 46 25t69 11q91 0 137.5 -56.5t46.5 -156.5q0 -63 -18.5 -110t-50 -78t-74.5 -46.5t-91 -15.5q-54 0 -110.5 18t-101.5 51l43 100q81 -44 153 -44q45 0 76.5 28.5t31.5 94.5q0 51 -19 80t-61 29q-28 0 -49 -10t-37 -24l-3 -42h-115l30 437
h358z" />
    <glyph glyph-name="six.tf" 
d="M315 731q44 0 87.5 -13.5t82.5 -40.5l-40 -99q-26 16 -53.5 23.5t-56.5 7.5q-36 0 -61 -14.5t-41.5 -41.5t-25 -66t-11.5 -87q25 23 62 39.5t79 16.5q86 0 132 -54.5t46 -163.5q0 -67 -17.5 -114.5t-47.5 -77.5t-71 -44t-88 -14q-62 0 -106 21.5t-72 64t-40.5 106.5
t-12.5 149q0 197 65 299.5t190 102.5zM296 347q-30 0 -55.5 -15t-39.5 -29q1 -103 22.5 -149.5t70.5 -46.5q37 0 60 28t23 96q0 63 -22.5 89.5t-58.5 26.5z" />
    <glyph glyph-name="seven.tf" 
d="M510 627l-216 -627h-158v15l227 590h-185l-21 -123h-92v238h445v-93z" />
    <glyph glyph-name="eight.tf" 
d="M287 731q97 0 151.5 -46.5t54.5 -127.5q0 -31 -8 -56.5t-21 -46t-30 -37t-35 -28.5q54 -32 86 -74.5t32 -113.5q0 -52 -17.5 -91.5t-49 -66.5t-75.5 -41t-98 -14q-109 0 -167.5 50t-58.5 144q0 37 9.5 66.5t26 53t37.5 41.5t45 31q-43 27 -70 66t-27 99q0 44 15 79.5
t43 60.5t67.5 38.5t89.5 13.5zM289 628q-33 0 -53 -19t-20 -57q0 -35 24 -58.5t64 -44.5q23 23 40.5 48t17.5 58q0 34 -19 53.5t-54 19.5zM253 314q-31 -21 -51.5 -49.5t-20.5 -73.5q0 -42 24 -67t69 -25q42 0 65.5 25t23.5 67q0 24 -9 42t-24.5 33t-35.5 26.5t-41 21.5z
" />
    <glyph glyph-name="nine.tf" 
d="M254 -12q-44 0 -87.5 13.5t-82.5 40.5l40 99q26 -16 53.5 -23.5t56.5 -7.5q36 0 61 14.5t41.5 41.5t25 66t11.5 87q-25 -23 -62 -39.5t-79 -16.5q-86 0 -132 54.5t-46 163.5q0 67 17.5 114.5t47.5 77.5t71 44t88 14q124 0 177.5 -85.5t53.5 -255.5q0 -197 -65 -299.5
t-190 -102.5zM273 372q30 0 55.5 15t39.5 29q-1 103 -22.5 149.5t-70.5 46.5q-38 0 -60.5 -28t-22.5 -96q0 -63 22.5 -89.5t58.5 -26.5z" />
    <glyph glyph-name="zero.tosf" 
d="M284 612q121 0 179 -72.5t58 -233.5q0 -164 -58.5 -241t-178.5 -77q-121 0 -179.5 76t-58.5 239q0 159 61.5 234t176.5 75zM286 488q-49 0 -72 -42t-23 -141q0 -53 5.5 -89.5t16.5 -59.5t29 -33t43 -10q49 0 71 43.5t22 150.5q0 51 -5.5 86t-17 56t-28.5 30t-41 9z" />
    <glyph glyph-name="one.tosf" 
d="M504 86v-86h-387v86l127 15v319q-32 -18 -67 -28t-73 -13l-18 101q52 14 103 46t86 75h113v-500z" />
    <glyph glyph-name="two.tosf" 
d="M283 612q99 0 152 -44t53 -119q0 -56 -24.5 -99.5t-71.5 -90.5l-134 -148h155l21 88h88v-199h-446v88l192 209q33 34 53.5 66t20.5 68q0 27 -15.5 46.5t-53.5 19.5q-40 0 -59 -25.5t-28 -72.5l-118 24q6 40 20.5 75t40 60t63.5 39.5t91 14.5z" />
    <glyph glyph-name="three.tosf" 
d="M265 612q101 0 153.5 -43t52.5 -119q0 -61 -33 -101t-89 -58q76 -11 113 -55t37 -110q0 -50 -18 -86.5t-49.5 -61.5t-73.5 -37t-90 -12q-61 0 -119.5 21.5t-103.5 64.5l53 95q37 -27 75.5 -42t82.5 -15t71.5 21t27.5 64q0 39 -26.5 58.5t-86.5 19.5q-14 0 -31 -1t-28 -2
l-3 112q32 1 59 7t47 17.5t31.5 29t11.5 40.5q0 32 -16 54.5t-55 22.5q-41 0 -60.5 -25t-27.5 -73l-118 25q6 40 20.5 75t40 60t63 39.5t89.5 14.5z" />
    <glyph glyph-name="four.tosf" 
d="M462 201h66v-112h-66v-149h-142v149h-275v107l234 405h183v-400zM317 467l-150 -266h152v266h-2z" />
    <glyph glyph-name="five.tosf" 
d="M460 473h-235l-10 -141q20 14 47.5 24.5t66.5 10.5q81 0 129.5 -50t48.5 -150q0 -59 -18.5 -103.5t-50 -74.5t-74.5 -45t-91 -15q-54 0 -108.5 17t-99.5 52l44 98q41 -22 75.5 -32.5t70.5 -10.5q45 0 77.5 26.5t32.5 87.5q0 46 -19.5 70.5t-57.5 24.5q-23 0 -46 -9
t-37 -23l-3 -37h-116l28 408h355z" />
    <glyph glyph-name="six.tosf" 
d="M312 708q44 0 87.5 -13.5t82.5 -39.5l-39 -99q-26 16 -54 23t-57 7q-36 0 -61 -14t-41 -39.5t-24.5 -62t-11.5 -82.5q25 22 62 38t79 16q86 0 132 -52.5t46 -158.5q0 -65 -17.5 -111t-47.5 -75.5t-71 -43t-88 -13.5q-125 0 -178.5 83t-53.5 247q0 192 65 291t190 99z
M293 333q-30 0 -55.5 -14.5t-39.5 -27.5q1 -97 22.5 -140.5t70.5 -43.5q38 0 60.5 26t22.5 90q0 60 -22.5 85t-58.5 25z" />
    <glyph glyph-name="seven.tosf" 
d="M498 509l-215 -569h-158v15l217 534h-162l-22 -90h-87v202h427v-92z" />
    <glyph glyph-name="eight.tosf" 
d="M289 707q97 0 151.5 -45t54.5 -123q0 -60 -29 -100.5t-65 -62.5q54 -31 86 -72.5t32 -109.5q0 -50 -17.5 -88t-49 -64.5t-75.5 -40t-98 -13.5q-109 0 -167.5 48.5t-58.5 139.5q0 36 9.5 64.5t25.5 51.5t37.5 40t44.5 30q-42 26 -69.5 63.5t-27.5 94.5q0 43 15.5 77.5
t43.5 59t68 37.5t89 13zM291 605q-33 0 -53 -19t-20 -54q0 -33 24 -55.5t64 -42.5q23 20 41 45t18 57t-19.5 50.5t-54.5 18.5zM255 304q-31 -20 -51.5 -47.5t-20.5 -69.5q0 -39 23.5 -63.5t69.5 -24.5q44 0 66.5 25t22.5 63q0 22 -9 39.5t-24.5 31.5t-35.5 25t-41 21z" />
    <glyph glyph-name="nine.tosf" 
d="M280 613q61 0 105 -22t71.5 -64t40.5 -101.5t13 -134.5q0 -189 -63 -276t-181 -87q-51 0 -97 12t-86 38l39 98q23 -13 55.5 -23.5t70.5 -10.5q60 0 87 40.5t35 127.5q-26 -22 -60.5 -37t-76.5 -15q-86 0 -132.5 54t-46.5 156q0 63 17.5 109.5t48 76.5t71.5 44.5t89 14.5z
M275 494q-37 0 -60 -26.5t-23 -91.5q0 -57 21.5 -83t59.5 -26q29 0 55 15.5t40 29.5q-1 95 -23 138.5t-70 43.5z" />
    <glyph glyph-name="fraction" unicode="&#x2044;" horiz-adv-x="145" 
d="M-73 0h-112l399 720h111z" />
    <glyph glyph-name="uni2153" unicode="&#x2153;" horiz-adv-x="873" 
d="M198 431l74 -21v-59h-257v59l77 21v176q-20 -5 -39 -7.5t-40 -3.5l-10 71q33 8 63 23t51 37h81v-296zM235 0h-112l399 720h111zM587 384q63 0 95 -24.5t32 -66.5q0 -32 -17.5 -57t-52.5 -36q48 -8 67.5 -33t19.5 -60q0 -28 -11 -49t-31 -35.5t-47.5 -21.5t-59.5 -7
q-41 0 -76.5 11t-64.5 34l32 65q23 -14 46.5 -21.5t49.5 -7.5q25 0 39.5 9t14.5 31q0 21 -14 32.5t-49 11.5q-8 0 -16.5 -0.5t-13.5 -1.5v59q82 2 82 53q0 13 -8.5 22.5t-26.5 9.5q-20 0 -31 -11t-16 -31l-83 18q8 47 40.5 77t99.5 30z" />
    <glyph glyph-name="uni2154" unicode="&#x2154;" horiz-adv-x="917" 
d="M155 734q66 0 99.5 -26.5t33.5 -72.5q0 -30 -14.5 -58.5t-40.5 -54.5l-88 -98h91l14 53h51v-126h-283v67l107 114q23 23 38 42.5t15 42.5q0 14 -7.5 23.5t-27.5 9.5q-22 0 -33.5 -12.5t-16.5 -38.5l-87 19q4 25 14.5 46t28.5 36.5t44 24.5t62 9zM271 0h-112l399 720h111z
M631 384q63 0 95 -24.5t32 -66.5q0 -32 -17.5 -57t-52.5 -36q48 -8 67.5 -33t19.5 -60q0 -28 -11 -49t-31 -35.5t-47.5 -21.5t-59.5 -7q-41 0 -76.5 11t-64.5 34l32 65q23 -14 46.5 -21.5t49.5 -7.5q25 0 39.5 9t14.5 31q0 21 -14 32.5t-49 11.5q-8 0 -16.5 -0.5t-13.5 -1.5
v59q82 2 82 53q0 13 -8.5 22.5t-26.5 9.5q-20 0 -31 -11t-16 -31l-83 18q8 47 40.5 77t99.5 30z" />
    <glyph glyph-name="uni2155" unicode="&#x2155;" horiz-adv-x="887" 
d="M198 431l74 -21v-59h-257v59l77 21v176q-20 -5 -39 -7.5t-40 -3.5l-10 71q33 8 63 23t51 37h81v-296zM232 0h-112l399 720h111zM712 292h-147l-6 -73q11 6 29 11.5t41 5.5q52 0 81 -28.5t29 -83.5q0 -32 -11.5 -57t-31.5 -41.5t-47.5 -25t-58.5 -8.5q-43 0 -79 12t-64 31
l31 62q22 -11 46.5 -18t44.5 -7q27 0 44.5 13.5t17.5 43.5q0 46 -40 46q-15 0 -26.5 -5.5t-18.5 -11.5l-2 -14h-73l16 233h230z" />
    <glyph glyph-name="uni2156" unicode="&#x2156;" horiz-adv-x="935" 
d="M155 734q66 0 99.5 -26.5t33.5 -72.5q0 -30 -14.5 -58.5t-40.5 -54.5l-88 -98h91l14 53h51v-126h-283v67l107 114q23 23 38 42.5t15 42.5q0 14 -7.5 23.5t-27.5 9.5q-22 0 -33.5 -12.5t-16.5 -38.5l-87 19q4 25 14.5 46t28.5 36.5t44 24.5t62 9zM271 0h-112l399 720h111z
M760 292h-147l-6 -73q11 6 29 11.5t41 5.5q52 0 81 -28.5t29 -83.5q0 -32 -11.5 -57t-31.5 -41.5t-47.5 -25t-58.5 -8.5q-43 0 -79 12t-64 31l31 62q22 -11 46.5 -18t44.5 -7q27 0 44.5 13.5t17.5 43.5q0 46 -40 46q-15 0 -26.5 -5.5t-18.5 -11.5l-2 -14h-73l16 233h230z
" />
    <glyph glyph-name="uni2157" unicode="&#x2157;" horiz-adv-x="896" 
d="M153 734q63 0 95 -24.5t32 -66.5q0 -32 -17.5 -57t-52.5 -36q48 -8 67.5 -33t19.5 -60q0 -28 -11 -49t-31 -35.5t-47.5 -21.5t-59.5 -7q-41 0 -76.5 11t-64.5 34l32 65q23 -14 46.5 -21.5t49.5 -7.5q25 0 39.5 9t14.5 31q0 21 -14 32.5t-49 11.5q-8 0 -16.5 -0.5
t-13.5 -1.5v59q82 2 82 53q0 13 -8.5 22.5t-26.5 9.5q-20 0 -31 -11t-16 -31l-83 18q8 47 40.5 77t99.5 30zM231 0h-112l399 720h111zM721 292h-147l-6 -73q11 6 29 11.5t41 5.5q52 0 81 -28.5t29 -83.5q0 -32 -11.5 -57t-31.5 -41.5t-47.5 -25t-58.5 -8.5q-43 0 -79 12
t-64 31l31 62q22 -11 46.5 -18t44.5 -7q27 0 44.5 13.5t17.5 43.5q0 46 -40 46q-15 0 -26.5 -5.5t-18.5 -11.5l-2 -14h-73l16 233h230z" />
    <glyph glyph-name="uni2158" unicode="&#x2158;" horiz-adv-x="929" 
d="M282 495h45v-75h-45v-69h-101v69h-175v74l139 233h137v-232zM262 0h-112l399 720h111zM179 642l-86 -147h88v147h-2zM754 292h-147l-6 -73q11 6 29 11.5t41 5.5q52 0 81 -28.5t29 -83.5q0 -32 -11.5 -57t-31.5 -41.5t-47.5 -25t-58.5 -8.5q-43 0 -79 12t-64 31l31 62
q22 -11 46.5 -18t44.5 -7q27 0 44.5 13.5t17.5 43.5q0 46 -40 46q-15 0 -26.5 -5.5t-18.5 -11.5l-2 -14h-73l16 233h230z" />
    <glyph glyph-name="uni2159" unicode="&#x2159;" horiz-adv-x="883" 
d="M198 431l74 -21v-59h-257v59l77 21v176q-20 -5 -39 -7.5t-40 -3.5l-10 71q33 8 63 23t51 37h81v-296zM226 0h-112l399 720h111zM595 384q29 0 57 -7t51 -18l-22 -71q-35 16 -69 16q-77 0 -83 -95q17 12 39 20.5t46 8.5q55 0 80 -31t25 -79q0 -35 -11.5 -60.5t-31 -41.5
t-45.5 -23.5t-55 -7.5q-84 0 -118 45.5t-34 131.5q0 46 10 85t31 67.5t53 44t77 15.5zM581 171q-16 0 -29 -6t-22 -13q1 -49 12 -68.5t34 -19.5q20 0 31 13.5t11 43.5q0 28 -10 39t-27 11z" />
    <glyph glyph-name="uni215A" unicode="&#x215a;" horiz-adv-x="896" 
d="M276 642h-147l-6 -73q11 6 29 11.5t41 5.5q52 0 81 -28.5t29 -83.5q0 -32 -11.5 -57t-31.5 -41.5t-47.5 -25t-58.5 -8.5q-43 0 -79 12t-64 31l31 62q22 -11 46.5 -18t44.5 -7q27 0 44.5 13.5t17.5 43.5q0 46 -40 46q-15 0 -26.5 -5.5t-18.5 -11.5l-2 -14h-73l16 233h230z
M236 0h-112l399 720h111zM608 384q29 0 57 -7t51 -18l-22 -71q-35 16 -69 16q-77 0 -83 -95q17 12 39 20.5t46 8.5q55 0 80 -31t25 -79q0 -35 -11.5 -60.5t-31 -41.5t-45.5 -23.5t-55 -7.5q-84 0 -118 45.5t-34 131.5q0 46 10 85t31 67.5t53 44t77 15.5zM594 171
q-16 0 -29 -6t-22 -13q1 -49 12 -68.5t34 -19.5q20 0 31 13.5t11 43.5q0 28 -10 39t-27 11z" />
    <glyph glyph-name="uni2150" unicode="&#x2150;" horiz-adv-x="880" 
d="M198 432l74 -21v-59h-257v59l77 21v176q-20 -5 -39 -7.5t-40 -3.5l-10 71q33 8 63 23t51 37h81v-296zM228 0h-112l399 720h111zM750 319l-123 -319h-116v11l126 292h-90l-17 -68h-58v142h278v-58z" />
    <glyph glyph-name="uniF507" unicode="&#xf507;" horiz-adv-x="927" 
d="M155 734q66 0 99.5 -26.5t33.5 -72.5q0 -30 -14.5 -58.5t-40.5 -54.5l-88 -98h91l14 53h51v-126h-283v67l107 114q23 23 38 42.5t15 42.5q0 14 -7.5 23.5t-27.5 9.5q-22 0 -33.5 -12.5t-16.5 -38.5l-87 19q4 25 14.5 46t28.5 36.5t44 24.5t62 9zM268 0h-112l399 720h111z
M797 319l-123 -319h-116v11l126 292h-90l-17 -68h-58v142h278v-58z" />
    <glyph glyph-name="uniF508" unicode="&#xf508;" horiz-adv-x="893" 
d="M153 734q63 0 95 -24.5t32 -66.5q0 -32 -17.5 -57t-52.5 -36q48 -8 67.5 -33t19.5 -60q0 -28 -11 -49t-31 -35.5t-47.5 -21.5t-59.5 -7q-41 0 -76.5 11t-64.5 34l32 65q23 -14 46.5 -21.5t49.5 -7.5q25 0 39.5 9t14.5 31q0 21 -14 32.5t-49 11.5q-8 0 -16.5 -0.5
t-13.5 -1.5v59q82 2 82 53q0 13 -8.5 22.5t-26.5 9.5q-20 0 -31 -11t-16 -31l-83 18q8 47 40.5 77t99.5 30zM227 0h-112l399 720h111zM763 319l-123 -319h-116v11l126 292h-90l-17 -68h-58v142h278v-58z" />
    <glyph glyph-name="uniF509" unicode="&#xf509;" horiz-adv-x="924" 
d="M282 495h45v-75h-45v-69h-101v69h-175v74l139 233h137v-232zM262 0h-112l399 720h111zM179 642l-86 -147h88v147h-2zM794 319l-123 -319h-116v11l126 292h-90l-17 -68h-58v142h278v-58z" />
    <glyph glyph-name="uniF50A" unicode="&#xf50a;" horiz-adv-x="896" 
d="M276 642h-147l-6 -73q11 6 29 11.5t41 5.5q52 0 81 -28.5t29 -83.5q0 -32 -11.5 -57t-31.5 -41.5t-47.5 -25t-58.5 -8.5q-43 0 -79 12t-64 31l31 62q22 -11 46.5 -18t44.5 -7q27 0 44.5 13.5t17.5 43.5q0 46 -40 46q-15 0 -26.5 -5.5t-18.5 -11.5l-2 -14h-73l16 233h230z
M232 0h-112l399 720h111zM766 319l-123 -319h-116v11l126 292h-90l-17 -68h-58v142h278v-58z" />
    <glyph glyph-name="uniF50B" unicode="&#xf50b;" horiz-adv-x="904" 
d="M178 734q29 0 57 -7t51 -18l-22 -71q-35 16 -69 16q-77 0 -83 -95q17 12 39 20.5t46 8.5q55 0 80 -31t25 -79q0 -35 -11.5 -60.5t-31 -41.5t-45.5 -23.5t-55 -7.5q-84 0 -118 45.5t-34 131.5q0 46 10 85t31 67.5t53 44t77 15.5zM235 0h-112l399 720h111zM164 521
q-16 0 -29 -6t-22 -13q1 -49 12 -68.5t34 -19.5q20 0 31 13.5t11 43.5q0 28 -10 39t-27 11zM774 319l-123 -319h-116v11l126 292h-90l-17 -68h-58v142h278v-58z" />
    <glyph glyph-name="oneeighth" unicode="&#x215b;" horiz-adv-x="914" 
d="M198 431l74 -21v-59h-257v59l77 21v176q-20 -5 -39 -7.5t-40 -3.5l-10 71q33 8 63 23t51 37h81v-296zM236 0h-112l399 720h111zM603 384q67 0 100 -25t33 -67q0 -32 -16.5 -54.5t-39.5 -35.5q35 -17 52.5 -37t17.5 -57q0 -56 -44.5 -84.5t-113.5 -28.5t-107.5 26
t-38.5 77q0 41 22 63t50 36q-26 13 -42.5 33.5t-16.5 49.5q0 49 36.5 76.5t107.5 27.5zM602 322q-20 0 -30.5 -9.5t-10.5 -26.5t13 -28t35 -21q13 9 23 21.5t10 28.5q0 35 -40 35zM579 160q-14 -10 -26 -22.5t-12 -32.5q0 -43 53 -43q21 0 34 11.5t13 31.5q0 23 -18.5 34
t-43.5 21z" />
    <glyph glyph-name="threeeighths" unicode="&#x215c;" horiz-adv-x="930" 
d="M153 734q63 0 95 -24.5t32 -66.5q0 -32 -17.5 -57t-52.5 -36q48 -8 67.5 -33t19.5 -60q0 -28 -11 -49t-31 -35.5t-47.5 -21.5t-59.5 -7q-41 0 -76.5 11t-64.5 34l32 65q23 -14 46.5 -21.5t49.5 -7.5q25 0 39.5 9t14.5 31q0 21 -14 32.5t-49 11.5q-8 0 -16.5 -0.5
t-13.5 -1.5v59q82 2 82 53q0 13 -8.5 22.5t-26.5 9.5q-20 0 -31 -11t-16 -31l-83 18q8 47 40.5 77t99.5 30zM238 0h-112l399 720h111zM619 384q67 0 100 -25t33 -67q0 -32 -16.5 -54.5t-39.5 -35.5q35 -17 52.5 -37t17.5 -57q0 -56 -44.5 -84.5t-113.5 -28.5t-107.5 26
t-38.5 77q0 41 22 63t50 36q-26 13 -42.5 33.5t-16.5 49.5q0 49 36.5 76.5t107.5 27.5zM618 322q-20 0 -30.5 -9.5t-10.5 -26.5t13 -28t35 -21q13 9 23 21.5t10 28.5q0 35 -40 35zM595 160q-14 -10 -26 -22.5t-12 -32.5q0 -43 53 -43q21 0 34 11.5t13 31.5q0 23 -18.5 34
t-43.5 21z" />
    <glyph glyph-name="fiveeighths" unicode="&#x215d;" horiz-adv-x="917" 
d="M276 642h-147l-6 -73q11 6 29 11.5t41 5.5q52 0 81 -28.5t29 -83.5q0 -32 -11.5 -57t-31.5 -41.5t-47.5 -25t-58.5 -8.5q-43 0 -79 12t-64 31l31 62q22 -11 46.5 -18t44.5 -7q27 0 44.5 13.5t17.5 43.5q0 46 -40 46q-15 0 -26.5 -5.5t-18.5 -11.5l-2 -14h-73l16 233h230z
M236 0h-112l399 720h111zM606 384q67 0 100 -25t33 -67q0 -32 -16.5 -54.5t-39.5 -35.5q35 -17 52.5 -37t17.5 -57q0 -56 -44.5 -84.5t-113.5 -28.5t-107.5 26t-38.5 77q0 41 22 63t50 36q-26 13 -42.5 33.5t-16.5 49.5q0 49 36.5 76.5t107.5 27.5zM605 322
q-20 0 -30.5 -9.5t-10.5 -26.5t13 -28t35 -21q13 9 23 21.5t10 28.5q0 35 -40 35zM582 160q-14 -10 -26 -22.5t-12 -32.5q0 -43 53 -43q21 0 34 11.5t13 31.5q0 23 -18.5 34t-43.5 21z" />
    <glyph glyph-name="seveneighths" unicode="&#x215e;" horiz-adv-x="871" 
d="M285 669l-123 -319h-116v11l126 292h-90l-17 -68h-58v142h278v-58zM174 0h-112l399 720h111zM560 384q67 0 100 -25t33 -67q0 -32 -16.5 -54.5t-39.5 -35.5q35 -17 52.5 -37t17.5 -57q0 -56 -44.5 -84.5t-113.5 -28.5t-107.5 26t-38.5 77q0 41 22 63t50 36
q-26 13 -42.5 33.5t-16.5 49.5q0 49 36.5 76.5t107.5 27.5zM559 322q-20 0 -30.5 -9.5t-10.5 -26.5t13 -28t35 -21q13 9 23 21.5t10 28.5q0 35 -40 35zM536 160q-14 -10 -26 -22.5t-12 -32.5q0 -43 53 -43q21 0 34 11.5t13 31.5q0 23 -18.5 34t-43.5 21z" />
    <glyph glyph-name="uni2151" unicode="&#x2151;" horiz-adv-x="892" 
d="M198 431l74 -21v-59h-257v59l77 21v176q-20 -5 -39 -7.5t-40 -3.5l-10 71q33 8 63 23t51 37h81v-296zM227 0h-112l399 720h111zM557 -6q-29 0 -57 7t-51 18l22 71q35 -16 69 -16q77 0 83 95q-17 -12 -39 -20.5t-46 -8.5q-55 0 -80 31t-25 79q0 35 11.5 60.5t31 41.5
t45.5 23.5t55 7.5q84 0 118 -46t34 -131q0 -47 -10 -85.5t-31 -67t-53 -44t-77 -15.5zM571 207q16 0 29 6t22 13q-1 49 -12 68.5t-34 19.5q-20 0 -31 -13.5t-11 -43.5q0 -28 10 -39t27 -11z" />
    <glyph glyph-name="uniF50D" unicode="&#xf50d;" horiz-adv-x="928" 
d="M155 734q66 0 99.5 -26.5t33.5 -72.5q0 -30 -14.5 -58.5t-40.5 -54.5l-88 -98h91l14 53h51v-126h-283v67l107 114q23 23 38 42.5t15 42.5q0 14 -7.5 23.5t-27.5 9.5q-22 0 -33.5 -12.5t-16.5 -38.5l-87 19q4 25 14.5 46t28.5 36.5t44 24.5t62 9zM257 0h-112l399 720h111z
M593 -6q-29 0 -57 7t-51 18l22 71q35 -16 69 -16q77 0 83 95q-17 -12 -39 -20.5t-46 -8.5q-55 0 -80 31t-25 79q0 35 11.5 60.5t31 41.5t45.5 23.5t55 7.5q84 0 118 -46t34 -131q0 -47 -10 -85.5t-31 -67t-53 -44t-77 -15.5zM607 207q16 0 29 6t22 13q-1 49 -12 68.5
t-34 19.5q-20 0 -31 -13.5t-11 -43.5q0 -28 10 -39t27 -11z" />
    <glyph glyph-name="uniF50E" unicode="&#xf50e;" horiz-adv-x="935" 
d="M282 495h45v-75h-45v-69h-101v69h-175v74l139 233h137v-232zM260 0h-112l399 720h111zM179 642l-86 -147h88v147h-2zM600 -6q-29 0 -57 7t-51 18l22 71q35 -16 69 -16q77 0 83 95q-17 -12 -39 -20.5t-46 -8.5q-55 0 -80 31t-25 79q0 35 11.5 60.5t31 41.5t45.5 23.5
t55 7.5q84 0 118 -46t34 -131q0 -47 -10 -85.5t-31 -67t-53 -44t-77 -15.5zM614 207q16 0 29 6t22 13q-1 49 -12 68.5t-34 19.5q-20 0 -31 -13.5t-11 -43.5q0 -28 10 -39t27 -11z" />
    <glyph glyph-name="uniF50F" unicode="&#xf50f;" horiz-adv-x="897" 
d="M276 642h-147l-6 -73q11 6 29 11.5t41 5.5q52 0 81 -28.5t29 -83.5q0 -32 -11.5 -57t-31.5 -41.5t-47.5 -25t-58.5 -8.5q-43 0 -79 12t-64 31l31 62q22 -11 46.5 -18t44.5 -7q27 0 44.5 13.5t17.5 43.5q0 46 -40 46q-15 0 -26.5 -5.5t-18.5 -11.5l-2 -14h-73l16 233h230z
M224 0h-112l399 720h111zM562 -6q-29 0 -57 7t-51 18l22 71q35 -16 69 -16q77 0 83 95q-17 -12 -39 -20.5t-46 -8.5q-55 0 -80 31t-25 79q0 35 11.5 60.5t31 41.5t45.5 23.5t55 7.5q84 0 118 -46t34 -131q0 -47 -10 -85.5t-31 -67t-53 -44t-77 -15.5zM576 207q16 0 29 6
t22 13q-1 49 -12 68.5t-34 19.5q-20 0 -31 -13.5t-11 -43.5q0 -28 10 -39t27 -11z" />
    <glyph glyph-name="uniF510" unicode="&#xf510;" horiz-adv-x="873" 
d="M285 669l-123 -319h-116v11l126 292h-90l-17 -68h-58v142h278v-58zM175 0h-112l399 720h111zM538 -6q-29 0 -57 7t-51 18l22 71q35 -16 69 -16q77 0 83 95q-17 -12 -39 -20.5t-46 -8.5q-55 0 -80 31t-25 79q0 35 11.5 60.5t31 41.5t45.5 23.5t55 7.5q84 0 118 -46
t34 -131q0 -47 -10 -85.5t-31 -67t-53 -44t-77 -15.5zM552 207q16 0 29 6t22 13q-1 49 -12 68.5t-34 19.5q-20 0 -31 -13.5t-11 -43.5q0 -28 10 -39t27 -11z" />
    <glyph glyph-name="uniF511" unicode="&#xf511;" horiz-adv-x="914" 
d="M164 734q67 0 100 -25t33 -67q0 -32 -16.5 -54.5t-39.5 -35.5q35 -17 52.5 -37t17.5 -57q0 -56 -44.5 -84.5t-113.5 -28.5t-107.5 26t-38.5 77q0 41 22 63t50 36q-26 13 -42.5 33.5t-16.5 49.5q0 49 36.5 76.5t107.5 27.5zM240 0h-112l399 720h111zM163 672
q-20 0 -30.5 -9.5t-10.5 -26.5t13 -28t35 -21q13 9 23 21.5t10 28.5q0 35 -40 35zM140 510q-14 -10 -26 -22.5t-12 -32.5q0 -43 53 -43q21 0 34 11.5t13 31.5q0 23 -18.5 34t-43.5 21zM579 -6q-29 0 -57 7t-51 18l22 71q35 -16 69 -16q77 0 83 95q-17 -12 -39 -20.5
t-46 -8.5q-55 0 -80 31t-25 79q0 35 11.5 60.5t31 41.5t45.5 23.5t55 7.5q84 0 118 -46t34 -131q0 -47 -10 -85.5t-31 -67t-53 -44t-77 -15.5zM593 207q16 0 29 6t22 13q-1 49 -12 68.5t-34 19.5q-20 0 -31 -13.5t-11 -43.5q0 -28 10 -39t27 -11z" />
    <glyph glyph-name="zeroinferior" unicode="&#x2080;" horiz-adv-x="392" 
d="M198 288q79 0 118 -46.5t39 -144.5q0 -103 -41.5 -150.5t-117.5 -47.5t-117 45t-41 151q0 99 41 146t119 47zM198 207q-23 0 -37.5 -24t-14.5 -88q0 -65 13.5 -89.5t37.5 -24.5q51 0 51 113q0 66 -13.5 89.5t-36.5 23.5z" />
    <glyph glyph-name="oneinferior" unicode="&#x2081;" horiz-adv-x="339" 
d="M233 -15l74 -21v-59h-257v59l77 21v176q-20 -5 -39 -7.5t-40 -3.5l-10 71q33 8 63 23t51 37h81v-296z" />
    <glyph glyph-name="twoinferior" unicode="&#x2082;" horiz-adv-x="363" 
d="M176 288q66 0 99.5 -26.5t33.5 -72.5q0 -30 -14.5 -58.5t-40.5 -54.5l-88 -98h91l14 53h51v-126h-283v67l107 114q23 23 38 42.5t15 42.5q0 14 -7.5 23.5t-27.5 9.5q-22 0 -33.5 -12.5t-16.5 -38.5l-87 19q4 25 14.5 46t28.5 36.5t44 24.5t62 9z" />
    <glyph glyph-name="threeinferior" unicode="&#x2083;" horiz-adv-x="349" 
d="M166 288q63 0 95 -24.5t32 -66.5q0 -32 -17.5 -57t-52.5 -36q48 -8 67.5 -33t19.5 -60q0 -28 -11 -49t-31 -35.5t-47.5 -21.5t-59.5 -7q-41 0 -76.5 11t-64.5 34l32 65q23 -14 46.5 -21.5t49.5 -7.5q25 0 39.5 9t14.5 31q0 21 -14 32.5t-49 11.5q-8 0 -16.5 -0.5
t-13.5 -1.5v59q82 2 82 53q0 13 -8.5 22.5t-26.5 9.5q-20 0 -31 -11t-16 -31l-83 18q8 47 40.5 77t99.5 30z" />
    <glyph glyph-name="fourinferior" unicode="&#x2084;" horiz-adv-x="388" 
d="M310 49h45v-75h-45v-69h-101v69h-175v74l139 233h137v-232zM207 196l-86 -147h88v147h-2z" />
    <glyph glyph-name="fiveinferior" unicode="&#x2085;" horiz-adv-x="359" 
d="M300 196h-147l-6 -73q11 6 29 11.5t41 5.5q52 0 81 -28.5t29 -83.5q0 -32 -11.5 -57t-31.5 -41.5t-47.5 -25t-58.5 -8.5q-43 0 -79 12t-64 31l31 62q22 -11 46.5 -18t44.5 -7q27 0 44.5 13.5t17.5 43.5q0 46 -40 46q-15 0 -26.5 -5.5t-18.5 -11.5l-2 -14h-73l16 233h230z
" />
    <glyph glyph-name="sixinferior" unicode="&#x2086;" horiz-adv-x="371" 
d="M214 288q29 0 57 -7t51 -18l-22 -71q-35 16 -69 16q-77 0 -83 -95q17 12 39 20.5t46 8.5q55 0 80 -31t25 -79q0 -35 -11.5 -60.5t-31 -41.5t-45.5 -23.5t-55 -7.5q-84 0 -118 45.5t-34 131.5q0 46 10 85t31 67.5t53 44t77 15.5zM200 75q-16 0 -29 -6t-22 -13
q1 -49 12 -68.5t34 -19.5q20 0 31 13.5t11 43.5q0 28 -10 39t-27 11z" />
    <glyph glyph-name="seveninferior" unicode="&#x2087;" horiz-adv-x="337" 
d="M308 223l-123 -319h-116v11l126 292h-90l-17 -68h-58v142h278v-58z" />
    <glyph glyph-name="eightinferior" unicode="&#x2088;" horiz-adv-x="371" 
d="M191 288q67 0 100 -25t33 -67q0 -32 -16.5 -54.5t-39.5 -35.5q35 -17 52.5 -37t17.5 -57q0 -56 -44.5 -84.5t-113.5 -28.5t-107.5 26t-38.5 77q0 41 22 63t50 36q-26 13 -42.5 33.5t-16.5 49.5q0 49 36.5 76.5t107.5 27.5zM190 226q-20 0 -30.5 -9.5t-10.5 -26.5t13 -28
t35 -21q13 9 23 21.5t10 28.5q0 35 -40 35zM167 64q-14 -10 -26 -22.5t-12 -32.5q0 -43 53 -43q21 0 34 11.5t13 31.5q0 23 -18.5 34t-43.5 21z" />
    <glyph glyph-name="nineinferior" unicode="&#x2089;" horiz-adv-x="371" 
d="M145 -102q-29 0 -57 7t-51 18l22 71q35 -16 69 -16q77 0 83 95q-17 -12 -39 -20.5t-46 -8.5q-55 0 -80 31t-25 79q0 35 11.5 60.5t31 41.5t45.5 23.5t55 7.5q84 0 118 -46t34 -131q0 -47 -10 -85.5t-31 -67t-53 -44t-77 -15.5zM159 111q16 0 29 6t22 13q-1 49 -12 68.5
t-34 19.5q-20 0 -31 -13.5t-11 -43.5q0 -28 10 -39t27 -11z" />
    <glyph glyph-name="zerosuperior" unicode="&#x2070;" horiz-adv-x="392" 
d="M198 784q79 0 118 -46.5t39 -144.5q0 -103 -41.5 -150.5t-117.5 -47.5t-117 45t-41 151q0 99 41 146t119 47zM198 703q-23 0 -37.5 -24t-14.5 -88q0 -65 13.5 -89.5t37.5 -24.5q51 0 51 113q0 66 -13.5 89.5t-36.5 23.5z" />
    <glyph glyph-name="foursuperior" unicode="&#x2074;" horiz-adv-x="388" 
d="M311 545h45v-75h-45v-69h-101v69h-175v74l139 233h137v-232zM208 692l-86 -147h88v147h-2z" />
    <glyph glyph-name="fivesuperior" unicode="&#x2075;" horiz-adv-x="359" 
d="M296 692h-147l-6 -73q11 6 29 11.5t41 5.5q52 0 81 -28.5t29 -83.5q0 -32 -11.5 -57t-31.5 -41.5t-47.5 -25t-58.5 -8.5q-43 0 -79 12t-64 31l31 62q22 -11 46.5 -18t44.5 -7q27 0 44.5 13.5t17.5 43.5q0 46 -40 46q-15 0 -26.5 -5.5t-18.5 -11.5l-2 -14h-73l16 233h230z
" />
    <glyph glyph-name="sixsuperior" unicode="&#x2076;" horiz-adv-x="371" 
d="M214 784q29 0 57 -7t51 -18l-22 -71q-35 16 -69 16q-77 0 -83 -95q17 12 39 20.5t46 8.5q55 0 80 -31t25 -79q0 -35 -11.5 -60.5t-31 -41.5t-45.5 -23.5t-55 -7.5q-84 0 -118 45.5t-34 131.5q0 46 10 85t31 67.5t53 44t77 15.5zM200 571q-16 0 -29 -6t-22 -13
q1 -49 12 -68.5t34 -19.5q20 0 31 13.5t11 43.5q0 28 -10 39t-27 11z" />
    <glyph glyph-name="sevensuperior" unicode="&#x2077;" horiz-adv-x="337" 
d="M308 719l-123 -319h-116v11l126 292h-90l-17 -68h-58v142h278v-58z" />
    <glyph glyph-name="eightsuperior" unicode="&#x2078;" horiz-adv-x="371" 
d="M191 784q67 0 100 -25t33 -67q0 -32 -16.5 -54.5t-39.5 -35.5q35 -17 52.5 -37t17.5 -57q0 -56 -44.5 -84.5t-113.5 -28.5t-107.5 26t-38.5 77q0 41 22 63t50 36q-26 13 -42.5 33.5t-16.5 49.5q0 49 36.5 76.5t107.5 27.5zM190 722q-20 0 -30.5 -9.5t-10.5 -26.5t13 -28
t35 -21q13 9 23 21.5t10 28.5q0 35 -40 35zM167 560q-14 -10 -26 -22.5t-12 -32.5q0 -43 53 -43q21 0 34 11.5t13 31.5q0 23 -18.5 34t-43.5 21z" />
    <glyph glyph-name="ninesuperior" unicode="&#x2079;" horiz-adv-x="371" 
d="M145 394q-29 0 -57 7t-51 18l22 71q35 -16 69 -16q77 0 83 95q-17 -12 -39 -20.5t-46 -8.5q-55 0 -80 31t-25 79q0 35 11.5 60.5t31 41.5t45.5 23.5t55 7.5q84 0 118 -46t34 -131q0 -47 -10 -85.5t-31 -67t-53 -44t-77 -15.5zM159 607q16 0 29 6t22 13q-1 49 -12 68.5
t-34 19.5q-20 0 -31 -13.5t-11 -43.5q0 -28 10 -39t27 -11z" />
    <glyph glyph-name="hyphen.case" horiz-adv-x="304" 
d="M270 288h-237v117h237v-117z" />
    <glyph glyph-name="Abreve" unicode="&#x102;" horiz-adv-x="687" 
d="M669 74v-74h-283v74l61 26l-24 96h-188l-23 -96l61 -26v-74h-252v74l58 26l151 519l-50 25v76h249l181 -620zM395 310l-30 121q-11 42 -20 80.5t-18 80.5q-9 -41 -18.5 -81.5t-19.5 -78.5l-28 -122h134zM463 899q-5 -71 -37 -106.5t-101 -35.5q-68 0 -100 35.5t-37 106.5
l75 12q5 -36 19.5 -52t42.5 -16q29 0 43.5 16t19.5 52z" />
    <glyph glyph-name="florin.osf" horiz-adv-x="453" 
d="M434 611h-50q-29 0 -40.5 -19.5t-18.5 -55.5l-17 -97h78v-94h-96l-61 -327q-8 -42 -19.5 -76.5t-31 -59.5t-49 -38.5t-73.5 -13.5h-64v105h35q26 0 39 16t20 51l65 343h-72l-1 94h92l21 113q6 37 16 68t28.5 53t47 34.5t72.5 12.5h79v-109z" />
    <glyph glyph-name="florin.tf" 
d="M488 587h-50q-29 0 -40 -19.5t-19 -54.5l-20 -97h79v-100h-97l-69 -333q-8 -41 -19.5 -74.5t-31 -57.5t-48.5 -37.5t-73 -13.5h-64v106h36q25 0 38 15.5t20 49.5l72 345h-71v100h91l22 113q7 37 17.5 67.5t28.5 52.5t46.5 34.5t72.5 12.5h79v-109z" />
    <glyph glyph-name="florin.tosf" 
d="M498 587h-50q-29 0 -40 -19.5t-19 -54.5l-20 -97h79v-100h-97l-69 -333q-8 -41 -19.5 -74.5t-31 -57.5t-48.5 -37.5t-73 -13.5h-64v106h36q25 0 38 15.5t20 49.5l72 345h-71v100h91l22 113q7 37 17.5 67.5t28.5 52.5t46.5 34.5t72.5 12.5h79v-109z" />
    <glyph glyph-name="cent.osf" horiz-adv-x="515" 
d="M281 433q-42 0 -67 -38.5t-25 -121.5q0 -85 29 -124.5t82 -39.5q29 0 64.5 9.5t73.5 24.5l31 -96q-64 -36 -137 -48v-95h-114v93q-41 7 -74.5 26.5t-57.5 52.5t-37.5 81t-13.5 111q0 117 47 186.5t137 86.5v100h114v-98q37 -5 69.5 -16t66.5 -29v-173h-98l-24 94
q-29 14 -66 14z" />
    <glyph glyph-name="dollar.osf" horiz-adv-x="559" 
d="M516 204q0 -84 -47.5 -137.5t-126.5 -70.5v-86h-119v80q-49 3 -89 14t-80 27v180h94l23 -89q16 -8 38.5 -13t46.5 -5q46 0 77 19.5t31 63.5q0 37 -29 64.5t-102 62.5q-40 19 -73 39.5t-57 46t-37 58t-13 74.5q0 44 13.5 77.5t37 57t55.5 38.5t70 21v91h118v-89
q43 -4 81.5 -14.5t72.5 -24.5l-1 -178h-88l-23 92q-17 8 -41 13t-50 5q-44 0 -72.5 -18t-28.5 -59q0 -21 10.5 -37t28.5 -30t43 -27t54 -28q37 -19 70 -38t58 -44t40 -57.5t15 -78.5z" />
    <glyph glyph-name="Euro.osf" horiz-adv-x="602" 
d="M367 731q52 0 96 -9.5t89 -31.5v-166h-94l-26 85q-28 11 -60 11q-51 0 -85 -44.5t-46 -126.5h231l-7 -73h-231q-1 -5 -1 -11v-11q0 -11 0.5 -20.5t1.5 -18.5h224l-6 -72h-208q14 -66 47.5 -98.5t84.5 -32.5q39 0 73 14t64 37l53 -91q-54 -48 -105 -66t-113 -18
q-109 0 -169.5 67.5t-79.5 187.5h-70l6 72h57q-1 11 -1.5 20.5t-0.5 20.5v10t1 10h-51l7 73h50q18 135 88.5 208.5t180.5 73.5z" />
    <glyph glyph-name="sterling.osf" horiz-adv-x="542" 
d="M280 730q52 0 90 -14.5t63.5 -39.5t40 -60t21.5 -75l-118 -23q-11 46 -31 70.5t-61 24.5q-38 0 -55.5 -25t-17.5 -60q0 -30 11.5 -62.5t30.5 -63.5h139v-97h-113q5 -15 9 -32.5t4 -32.5q0 -35 -16.5 -66t-39.5 -59h168l20 86h86v-201h-471v78l59 26q24 31 41 63.5
t17 68.5q0 17 -4.5 35.5t-10.5 33.5h-103v97h69q-21 34 -32 73.5t-11 74.5q0 86 57 133t158 47z" />
    <glyph glyph-name="yen.osf" horiz-adv-x="571" 
d="M553 642l-46 -21l-111 -241h114v-75h-148v-54h148v-76h-148v-74l67 -26v-75h-272v75l68 26v74h-148v76h148v54h-148v75h117l-118 241l-47 21v78h238v-78l-44 -21l72 -204h4l72 204l-44 21v78h226v-78z" />
    <glyph glyph-name="cent.tf" 
d="M310 512q-42 0 -67 -38.5t-25 -121.5q0 -85 29 -124.5t82 -39.5q29 0 64.5 9.5t73.5 24.5l31 -96q-64 -36 -137 -48v-95h-114v93q-41 7 -74.5 26.5t-57.5 52.5t-37.5 81t-13.5 111q0 117 47 186.5t137 86.5v100h114v-98q37 -5 69.5 -16t66.5 -29v-173h-98l-24 94
q-29 14 -66 14z" />
    <glyph glyph-name="dollar.tf" 
d="M518 204q0 -84 -47.5 -137.5t-126.5 -70.5v-86h-119v80q-49 3 -89 14t-80 27v180h94l23 -89q16 -8 38.5 -13t46.5 -5q46 0 77 19.5t31 63.5q0 37 -29 64.5t-102 62.5q-40 19 -73 39.5t-57 46t-37 58t-13 74.5q0 44 13.5 77.5t37 57t55.5 38.5t70 21v91h118v-89
q43 -4 81.5 -14.5t72.5 -24.5l-1 -178h-88l-23 92q-17 8 -41 13t-50 5q-44 0 -72.5 -18t-28.5 -59q0 -21 10.5 -37t28.5 -30t43 -27t54 -28q37 -19 70 -38t58 -44t40 -57.5t15 -78.5z" />
    <glyph glyph-name="Euro.tf" 
d="M345 731q51 0 95.5 -9.5t87.5 -30.5v-167h-94l-25 86q-29 10 -58 10q-51 0 -84 -44.5t-46 -126.5h231l-7 -73h-231v-22v-20.5t1 -18.5h224l-6 -72h-207q14 -66 47 -98.5t84 -32.5q39 0 72 13.5t62 37.5l53 -92q-53 -48 -104 -65.5t-112 -17.5q-108 0 -168.5 68t-78.5 187
h-70l6 72h56q-1 11 -1 20.5v20.5v20h-50l7 73h49q18 135 88 208.5t179 73.5z" />
    <glyph glyph-name="sterling.tf" 
d="M293 730q52 0 90 -14.5t63.5 -39.5t40 -60t21.5 -75l-118 -23q-11 46 -31 70.5t-61 24.5q-38 0 -55.5 -25t-17.5 -60q0 -30 11.5 -62.5t30.5 -63.5h139v-97h-113q5 -15 9 -32.5t4 -32.5q0 -35 -16.5 -66t-39.5 -59h168l20 86h86v-201h-471v78l59 26q24 31 41 63.5
t17 68.5q0 17 -4.5 35.5t-10.5 33.5h-103v97h69q-21 34 -32 73.5t-11 74.5q0 86 57 133t158 47z" />
    <glyph glyph-name="yen.tf" horiz-adv-x="579" 
d="M552 642l-46 -21l-111 -241h114v-75h-148v-54h148v-76h-148v-74l67 -26v-75h-272v75l68 26v74h-148v76h148v54h-148v75h117l-118 241l-47 21v78h238v-78l-44 -21l72 -204h4l72 204l-44 21v78h226v-78z" />
    <glyph glyph-name="cent.tosf" 
d="M305 432q-42 0 -67 -38.5t-25 -121.5q0 -85 29 -124.5t82 -39.5q29 0 64.5 9.5t73.5 24.5l31 -96q-64 -36 -137 -48v-95h-114v93q-41 7 -74.5 26.5t-57.5 52.5t-37.5 81t-13.5 111q0 117 47 186.5t137 86.5v100h114v-98q37 -5 69.5 -16t66.5 -29v-173h-98l-24 94
q-29 14 -66 14z" />
    <glyph glyph-name="dollar.tosf" 
d="M514 204q0 -84 -47.5 -137.5t-126.5 -70.5v-86h-119v80q-49 3 -89 14t-80 27v180h94l23 -89q16 -8 38.5 -13t46.5 -5q46 0 77 19.5t31 63.5q0 37 -29 64.5t-102 62.5q-40 19 -73 39.5t-57 46t-37 58t-13 74.5q0 44 13.5 77.5t37 57t55.5 38.5t70 21v91h118v-89
q43 -4 81.5 -14.5t72.5 -24.5l-1 -178h-88l-23 92q-17 8 -41 13t-50 5q-44 0 -72.5 -18t-28.5 -59q0 -21 10.5 -37t28.5 -30t43 -27t54 -28q37 -19 70 -38t58 -44t40 -57.5t15 -78.5z" />
    <glyph glyph-name="Euro.tosf" 
d="M345 731q51 0 95.5 -9.5t87.5 -30.5v-167h-94l-25 86q-29 10 -58 10q-51 0 -84 -44.5t-46 -126.5h231l-7 -73h-231v-22v-20.5t1 -18.5h224l-6 -72h-207q14 -66 47 -98.5t84 -32.5q39 0 72 13.5t62 37.5l53 -92q-53 -48 -104 -65.5t-112 -17.5q-108 0 -168.5 68t-78.5 187
h-70l6 72h56q-1 11 -1 20.5v20.5v20h-50l7 73h49q18 135 88 208.5t179 73.5z" />
    <glyph glyph-name="sterling.tosf" 
d="M290 730q52 0 90 -14.5t63.5 -39.5t40 -60t21.5 -75l-118 -23q-11 46 -31 70.5t-61 24.5q-38 0 -55.5 -25t-17.5 -60q0 -30 11.5 -62.5t30.5 -63.5h139v-97h-113q5 -15 9 -32.5t4 -32.5q0 -35 -16.5 -66t-39.5 -59h168l20 86h86v-201h-471v78l59 26q24 31 41 63.5
t17 68.5q0 17 -4.5 35.5t-10.5 33.5h-103v97h69q-21 34 -32 73.5t-11 74.5q0 86 57 133t158 47z" />
    <glyph glyph-name="yen.tosf" 
d="M553 642l-46 -21l-111 -241h114v-75h-148v-54h148v-76h-148v-74l67 -26v-75h-272v75l68 26v74h-148v76h148v54h-148v75h117l-118 241l-47 21v78h238v-78l-44 -21l72 -204h4l72 204l-44 21v78h226v-78z" />
    <glyph glyph-name="approxequal" unicode="&#x2248;" horiz-adv-x="676" 
d="M629 366q-38 -29 -79 -45.5t-90 -16.5q-30 0 -61 8t-61 17.5t-58 17.5t-52 8q-32 0 -64.5 -13.5t-68.5 -36.5l-38 82q38 28 79.5 44.5t92.5 16.5q30 0 59.5 -8t58 -17t56.5 -17t55 -8q35 0 66 13t68 36zM629 175q-38 -29 -79 -45.5t-90 -16.5q-30 0 -61 8t-61 17.5
t-58 17.5t-52 8q-32 0 -64.5 -13.5t-68.5 -36.5l-38 82q38 28 79.5 44.5t92.5 16.5q30 0 59.5 -8t58 -17t56.5 -17t55 -8q35 0 66 13t68 36z" />
    <glyph glyph-name="greaterequal" unicode="&#x2265;" 
d="M517 416v-69l-429 -187l-38 94l302 128l-302 128l39 94zM517 133v-94h-467v94h467z" />
    <glyph glyph-name="infinity" unicode="&#x221e;" horiz-adv-x="729" 
d="M539 455q36 0 62 -11.5t43.5 -31t26 -45.5t8.5 -54q0 -37 -11 -66t-30.5 -49t-46 -30.5t-57.5 -10.5q-30 0 -54 8t-44 20.5t-37 28.5t-32 31q-38 -39 -78 -63.5t-91 -24.5q-66 0 -107 37.5t-41 107.5q0 67 41.5 110t114.5 43q53 0 90 -26t72 -68q40 42 78.5 68t92.5 26z
M210 372q-32 0 -47 -20t-15 -48q0 -26 16.5 -44.5t48.5 -18.5q24 0 49 16.5t50 45.5q-27 34 -50 51.5t-52 17.5zM524 372q-26 0 -50 -17t-53 -50q10 -11 22 -22t26 -21t28.5 -16t28.5 -6q29 0 43 20t14 46q0 30 -14.5 48t-44.5 18z" />
    <glyph glyph-name="integral" unicode="&#x222b;" horiz-adv-x="338" 
d="M336 685h-45q-32 0 -45 -19.5t-13 -65.5v-630q0 -79 -39 -124.5t-134 -45.5h-68v105h50q30 0 46 16.5t16 59.5v643q0 78 39 122t124 44h69v-105z" />
    <glyph glyph-name="lessequal" unicode="&#x2264;" 
d="M517 510l-302 -128l302 -128l-38 -94l-429 187v69l428 188zM517 39h-467v94h467v-94z" />
    <glyph glyph-name="minus" unicode="&#x2212;" 
d="M518 255h-467v91h467v-91z" />
    <glyph glyph-name="notequal" unicode="&#x2260;" 
d="M361 317l-45 -75h206v-92h-261l-71 -119h-111l72 119h-95v92h150l45 75h-195v92h250l58 96h109l-57 -96h106v-92h-161z" />
    <glyph glyph-name="partialdiff" unicode="&#x2202;" horiz-adv-x="571" 
d="M305 701q105 0 157.5 -69t52.5 -199q0 -85 -15 -165t-49 -142.5t-88 -100t-132 -37.5q-41 0 -75.5 13t-60 39t-39.5 63.5t-14 87.5q0 56 14.5 104t42 83t66.5 55t89 20q41 0 75 -18.5t50 -56.5q3 33 3 60q0 151 -110 151q-29 0 -62 -8t-61 -23l-24 96q44 24 91 35.5
t89 11.5zM279 349q-24 0 -42.5 -12.5t-31 -33t-19 -47t-6.5 -55.5q0 -45 19.5 -70t51.5 -25q26 0 45.5 14.5t33 37t21 50.5t7.5 54q-2 39 -23 63t-56 24z" />
    <glyph glyph-name="product" unicode="&#x220f;" horiz-adv-x="719" 
d="M677 645l-61 -26v-637l60 -26v-74h-270v74l60 26v608h-212v-608l60 -26v-74h-270v74l60 26v637l-61 26v75h634v-75z" />
    <glyph glyph-name="radical" unicode="&#x221a;" horiz-adv-x="709" 
d="M429 -166h-138l-131 397h-118v104h216l101 -331l243 820h129z" />
    <glyph glyph-name="summation" unicode="&#x2211;" horiz-adv-x="592" 
d="M528 521h-88l-19 82h-187l152 -293l-153 -313h209l21 85h88v-201h-516v57l186 372l-186 353v57h493v-199z" />
    <glyph glyph-name="uni2215" unicode="&#x2215;" horiz-adv-x="145" 
d="M-73 0h-112l399 720h111z" />
    <glyph glyph-name="uni2219" unicode="&#x2219;" horiz-adv-x="315" 
d="M159 424q38 0 60.5 -21.5t22.5 -58.5q0 -36 -22.5 -58.5t-60.5 -22.5t-60.5 22.5t-22.5 58.5q0 37 23 58.5t60 21.5z" />
    <glyph glyph-name="arroewup" unicode="&#x2191;" horiz-adv-x="511" 
d="M458 337l-59 -63l-94 93v-364h-95v365l-98 -96l-59 65l204 193z" />
    <glyph glyph-name="uni21B6" unicode="&#x21b6;" horiz-adv-x="759" 
d="M463 537q112 0 171.5 -60t59.5 -177h-93q-1 69 -33.5 110t-108.5 41q-75 0 -108.5 -41t-33.5 -107v-133l99 96l59 -63l-205 -194l-202 192l58 64l96 -94v126q0 61 17 106t48.5 75t76 44.5t99.5 14.5z" />
    <glyph glyph-name="uni21B7" unicode="&#x21b7;" horiz-adv-x="759" 
d="M295 537q55 0 99.5 -14.5t76 -44.5t48.5 -75t17 -106v-126l96 94l58 -64l-202 -192l-205 194l59 63l99 -96v133q0 66 -33.5 107t-108.5 41q-76 0 -108.5 -41t-33.5 -110h-93q0 117 59.5 177t171.5 60z" />
    <glyph glyph-name="uni21CA" unicode="&#x21ca;" horiz-adv-x="759" 
d="M501 216l57 55l59 -65l-230 -218l-232 221l60 64l56 -56v409h84v-483l30 -28l32 31v480h84v-410z" />
    <glyph glyph-name="uni21C7" unicode="&#x21c7;" horiz-adv-x="762" 
d="M288 152l55 -57l-65 -59l-218 230l221 232l64 -60l-56 -56h409v-84h-483l-28 -30l31 -32h480v-84h-410z" />
    <glyph glyph-name="uni21C9" unicode="&#x21c9;" horiz-adv-x="762" 
d="M71 236h480l31 32l-28 30h-483v84h409l-56 56l64 60l221 -232l-218 -230l-65 59l55 57h-410v84z" />
    <glyph glyph-name="uni21C8" unicode="&#x21c8;" horiz-adv-x="759" 
d="M417 -1v480l-32 31l-30 -28v-483h-84v409l-56 -56l-60 64l232 221l230 -218l-59 -65l-57 55v-410h-84z" />
    <glyph glyph-name="arrowLeftRight" unicode="&#x2194;" horiz-adv-x="1015" 
d="M201 460l64 -59l-93 -95h671l-97 97l66 59l193 -203l-192 -203l-66 59l96 96h-671l92 -94l-63 -60l-193 203z" />
    <glyph glyph-name="arrowNE" unicode="&#x2197;" horiz-adv-x="507" 
d="M439 439v-283h-89v130l-240 -241l-67 66l242 242h-128l1 86h281z" />
    <glyph glyph-name="arrowNW" unicode="&#x2196;" horiz-adv-x="507" 
d="M351 353h-128l242 -242l-67 -66l-240 241v-130h-89v283h281z" />
    <glyph glyph-name="arrowSE" unicode="&#x2198;" horiz-adv-x="507" 
d="M156 137h128l-242 242l67 66l240 -241v130h89v-283h-281z" />
    <glyph glyph-name="arrowSW" unicode="&#x2199;" horiz-adv-x="507" 
d="M69 51v283h89v-130l240 241l67 -66l-242 -242h128l-1 -86h-281z" />
    <glyph glyph-name="arrowupdn" unicode="&#x2195;" horiz-adv-x="759" 
d="M580 526l-59 -64l-95 93v-671l97 97l59 -66l-203 -193l-203 192l59 66l96 -96v671l-94 -92l-60 63l203 193z" />
    <glyph glyph-name="arrowdown" unicode="&#x2193;" horiz-adv-x="511" 
d="M53 185l59 65l98 -96v365h95v-364l94 93l59 -63l-201 -193z" />
    <glyph glyph-name="arrowleft" unicode="&#x2190;" horiz-adv-x="559" 
d="M218 472l65 -59l-96 -98h365v-95h-364l93 -94l-63 -59l-193 201z" />
    <glyph glyph-name="arrowright" unicode="&#x2192;" horiz-adv-x="559" 
d="M341 67l-63 59l93 94h-364v95h365l-96 98l65 59l193 -204z" />
    <glyph glyph-name="arrowdown.750" unicode="&#x2965;" horiz-adv-x="759" 
d="M176 74l59 64l98 -95v586h95v-585l94 92l59 -63l-201 -193z" />
    <glyph glyph-name="arrowleft.750" unicode="&#x27f5;" horiz-adv-x="764" 
d="M201 468l63 -59l-92 -94h585v-95h-586l95 -98l-64 -59l-194 204z" />
    <glyph glyph-name="arrowright.750" unicode="&#x27f6;" horiz-adv-x="764" 
d="M561 64l-64 59l95 98h-586v95h585l-92 94l63 59l193 -201z" />
    <glyph glyph-name="arrowup.750" unicode="&#x2963;" horiz-adv-x="759" 
d="M581 449l-59 -63l-94 92v-585h-95v586l-98 -95l-59 64l204 194z" />
    <glyph glyph-name="blackcircle" unicode="&#x25cf;" horiz-adv-x="563" 
d="M282 509q38 0 71.5 -14.5t58.5 -39.5t39.5 -59t14.5 -72t-14.5 -71.5t-39.5 -58.5t-58.5 -39.5t-71.5 -14.5t-72 14.5t-59 39.5t-39.5 58.5t-14.5 71.5t14.5 72t39.5 59t59 39.5t72 14.5z" />
    <glyph glyph-name="lozenge" unicode="&#x25ca;" horiz-adv-x="577" 
d="M517 354l-183 -320h-96l-176 318l176 314h96zM182 351l105 -195l108 195l-108 191z" />
    <glyph glyph-name="whiteuppointingtriangle" unicode="&#x25b3;" horiz-adv-x="401" 
d="M315 320l-174 -110v217z" />
    <glyph glyph-name="apple" horiz-adv-x="2421" 
d="M1333 844q83 0 148 -37t99 -97q40 13 82.5 18t85.5 5q26 0 67.5 -5.5t83 -18.5t76.5 -35t47 -56q12 7 26 11t28 4q29 0 53 -10t39.5 -27t22 -40t0.5 -48q-4 -19 -8 -28.5t-12 -20.5q41 -25 62 -73.5t6 -115.5q-13 -48 -34 -80q25 -17 40.5 -40.5t22.5 -49.5t7 -53.5
t-6 -52.5q-8 -37 -29.5 -61t-50.5 -38t-62 -19.5t-64 -5.5q-32 0 -66 8q-14 -18 -48 -32t-79 -14q-22 0 -45 5.5t-43 16.5t-36 27.5t-24 38.5l-28 -12q5 -31 22.5 -54t43 -38.5t57 -23t64.5 -7.5q41 0 76.5 8.5t82.5 31.5l1 -2q-35 -19 -74.5 -30.5t-84.5 -11.5
q-35 0 -67.5 6.5t-59 21t-45.5 37.5t-26 57l-17 -8q4 -8 6.5 -17t2.5 -20q0 -23 -16.5 -43.5t-48 -35.5t-76.5 -24t-101 -9q-60 0 -108.5 15t-81.5 42q-37 -19 -77 -31t-82 -12q-45 0 -84 11t-64 32q-16 -23 -42.5 -39t-59.5 -26.5t-71 -15t-77 -4.5q-38 0 -81 10.5t-79 32
t-59.5 53.5t-21.5 76q-20 11 -35 26t-20 30q-24 -10 -53 -16t-65 -6q-42 0 -72.5 17t-48 45.5t-22 65.5t4.5 77q6 29 21.5 56.5t38.5 52t51.5 45t60.5 35.5q-17 25 -22 57.5t3 64.5q9 40 26.5 71t39 51t45 30.5t45.5 10.5q8 0 12 -1q15 15 38 25.5t48.5 17.5t51.5 10t49 3
q38 0 79 -6t76 -20q37 51 97.5 81t129.5 30q5 0 9.5 -0.5t9.5 -1.5q18 25 47 44t66.5 32t82 20t93.5 7zM1333 839q-45 0 -86.5 -6.5t-77.5 -19t-65 -31.5t-47 -44q11 -3 22 -9.5t18.5 -15.5t10 -20.5t-1.5 -25.5q-8 -31 -47 -31q-18 0 -29.5 17.5t-5.5 44.5q3 11 7.5 21.5
t10.5 20.5q-4 1 -8 1h-9q-69 0 -125 -31t-93 -82q35 -15 58.5 -39.5t30.5 -59.5q2 -7 1.5 -17t-5.5 -18l-2 2q3 7 4 16.5t-1 16.5q-7 34 -30.5 57.5t-57.5 38.5q-18 -23 -30 -53q13 -4 30.5 -11.5t32.5 -19t23.5 -27.5t4.5 -37q-2 -9 -13 -18.5t-25.5 -18t-31 -16
t-29.5 -13.5q-37 -15 -67 -35.5t-45 -51.5q-6 -12 -8.5 -26.5t-1 -28t8 -25t19.5 -17.5q3 32 15.5 56.5t30 40.5t36 24t33.5 8q35 0 48.5 -23.5t-2.5 -50.5q-17 -27 -42 -40t-56 -19q-2 -32 8 -53.5t27 -21.5q14 0 26 7t20 18q-5 8 -8.5 13.5t-1.5 13.5q3 12 19 12
q8 0 10 -7q1 -8 -3 -16q-2 -4 -4 -7.5t-5 -6.5q8 -11 17 -24t5 -33q-5 -23 -32 -39t-66 -16q-16 0 -40.5 6.5t-53.5 17t-59.5 23.5t-58.5 26q-14 -8 -32 -13t-38 -5q-13 0 -26 4t-23.5 12t-17 19.5t-6.5 26.5q0 14 8 21.5t13 7.5q10 0 26.5 -12t44.5 -27q3 8 6.5 14.5
t5.5 11.5l88 224q10 25 24 41t30 26t31.5 14t28.5 4q26 0 50 -7q3 36 17 74q-21 6 -44.5 9.5t-49.5 3.5q-35 0 -72 -6.5t-77 -22.5q9 -17 9 -39q0 -28 -8 -50t-20.5 -37.5t-28 -23.5t-31.5 -8q-23 0 -34 18.5t-5 44.5q3 16 13.5 29.5t24.5 24.5q-7 10 -9.5 23t1.5 27
q5 21 19 35q-3 1 -10 1q-21 0 -43 -10t-41.5 -30t-35.5 -50.5t-25 -70.5q-8 -29 -5 -61.5t18 -58.5q29 12 57.5 19.5t57.5 7.5q23 0 39 -13t12 -30q-3 -17 -20 -26t-54 -9q-32 0 -56 12t-39 32q-58 -30 -98 -80t-52 -101q-10 -44 -7.5 -81.5t16.5 -65.5t40.5 -43.5
t64.5 -15.5q35 0 64 6t53 16q-16 37 -3 83q7 29 27.5 45.5t39.5 16.5t24 -17.5t2 -33.5q-4 -25 -25 -50.5t-59 -43.5q10 -32 51 -53q0 10 3 19q11 49 49.5 82t87.5 39l1 -1q-46 -6 -79 -39t-44 -81q-2 -7 -2.5 -13t-1.5 -13q20 -8 43 -9.5t47 5.5v-1q-24 -8 -47 -7.5
t-43 7.5q0 -39 20.5 -69.5t53.5 -51t73 -31.5t79 -11q38 0 76 4.5t71.5 14.5t60 26t41.5 39q-17 16 -24.5 35.5t-1.5 44.5q3 17 16 34q-10 10 -26 18q-24 -19 -50 -36.5t-51.5 -30.5t-50.5 -20.5t-48 -7.5q-18 0 -34.5 4.5t-28.5 13.5t-18 23t-1 34q4 16 18.5 26t34 15.5
t42 7.5t42.5 2q28 0 60.5 -4t61.5 -15q30 22 60.5 45.5t62.5 42.5t66.5 31.5t72.5 14.5q-5 14 -9.5 29t-6.5 30q-29 -23 -62 -23q-13 0 -21 6.5t-11.5 17t-4 23t1.5 24.5l35 158h-80q-11 -54 -22.5 -112t-20.5 -101q-6 -32 -22 -56t-36.5 -40t-43.5 -24t-44 -8
q-26 0 -53.5 9.5t-48.5 34.5l2 2q16 -14 30.5 -22t37.5 -8q25 0 43.5 12t30.5 29.5t19 37t11 35.5q11 41 24.5 99.5t25.5 111.5h-45q0 5 1 8h46l17 68q13 60 53 93.5t87 33.5q12 0 29.5 -2t34.5 -8.5t31.5 -19.5t20.5 -34q14 7 42.5 16.5t56.5 9.5q15 0 25.5 -2.5t17 -9.5
t7.5 -20t-3 -34q-4 -18 -9.5 -41t-11.5 -48q60 9 94.5 43t48.5 77q-23 5 -42 23.5t-19 47.5q0 23 11.5 45t31.5 42q-22 28 -52 43.5t-59 15.5q-42 0 -64 -20.5t-22 -48.5q0 -14 6.5 -28t20.5 -22l-3 -2q-14 8 -25.5 23t-11.5 29q0 32 26 52.5t73 20.5q29 0 60 -16t53 -44
q25 23 60 41.5t77 30.5q-32 57 -95 93t-150 36zM1055 736q-7 -10 -12 -20t-8 -22q-3 -14 -2 -24.5t5 -17t10 -9.5t11 -3q35 0 43 28q9 26 -7.5 43.5t-39.5 24.5zM1748 731q-44 0 -85.5 -6t-79.5 -18q15 -29 20 -62t-3 -68q-6 -21 -19 -40t-30.5 -32.5t-38 -21.5t-40.5 -8
h-5.5t-5.5 1q-14 -45 -50 -81.5t-98 -45.5l-12 -50t-11.5 -47l-10 -40t-6.5 -28q-7 -35 -0.5 -57t35.5 -22q7 0 12.5 0.5t10.5 2t11 5t16 8.5l3 -3q-28 -19 -56.5 -26.5t-52.5 -7.5q-32 0 -48 22t-5 67q8 36 21.5 82.5t25.5 91.5h-118l-36 -160q-2 -12 1 -25t14 -13
q7 0 14 5q0 7 -0.5 13.5t-0.5 13.5q0 34 10 49.5t24 15.5q13 0 15 -10t-1 -24q-5 -24 -14 -35t-20 -25q2 -18 6 -35.5t9 -34.5q54 -1 51 -26q-2 -13 -13 -14q7 1 9 14q3 22 -46 24q5 -15 13.5 -26t19.5 -12q-16 1 -26.5 11t-16.5 27q-33 -2 -61.5 -16t-56.5 -34.5t-57 -45
t-63 -47.5q8 -4 14.5 -8t11.5 -9q12 13 28.5 23t36 16.5t41 9.5t41.5 3q28 0 53.5 -6t51.5 -16q2 7 3 14t3 14q5 24 22 43t38 32.5t41.5 21t33.5 7.5q10 0 9.5 -10t6.5 -19q14 -17 30 -24t39 -7q25 0 43.5 12t31 29.5t20 37t11.5 35.5l48 211h-25q-14 0 -24.5 -4t-18.5 -9
q6 -11 6 -20q0 -8 -5 -13t-13 -5t-12 5t-4 11q0 9 4.5 15t11.5 11q-4 4 -8.5 6t-12.5 2q-38 0 -61 -97q-5 -21 -4.5 -39.5t5 -32t12.5 -21.5t17 -8q30 0 48.5 24.5t29.5 67.5q6 26 3.5 43t-9.5 34l2 1q10 -20 12.5 -39.5t-2.5 -42.5q-11 -50 -37.5 -76t-78.5 -26
q-18 0 -31.5 10.5t-21.5 28.5t-10 40.5t4 46.5q6 25 18.5 43t28 30t31.5 17.5t30 5.5q30 0 41 -15q22 14 49 14h27l15 68q13 60 53 93.5t87 33.5q15 0 33 -2.5t39 -11.5l10 -6q10 7 20.5 11t21.5 7q-4 10 -2 26q2 17 11.5 28.5t22.5 22.5l3 -1q-11 -13 -16.5 -25.5
t-7.5 -24.5q-2 -6 -1.5 -12.5t1.5 -11.5q7 1 13.5 1.5t12.5 0.5q29 0 50.5 -14.5t33.5 -37.5q25 8 38.5 25.5t18.5 35.5q6 27 0 48q-19 -14 -30 -29q-6 -8 -11 -15q0 11 11 25t28 25q-11 33 -44.5 55.5t-74.5 36t-82 19t-68 5.5zM1580 706q-41 -14 -74.5 -33.5t-56.5 -44.5
q11 -17 17.5 -36.5t6.5 -42.5q0 -35 -11 -71q3 -1 9 -1q19 0 39 7.5t37.5 21t30.5 32t18 39.5q8 35 3 67.5t-19 61.5zM647 655q-24 0 -49.5 -3.5t-49.5 -10t-44.5 -17t-34.5 -24.5q37 -10 53 -41q38 14 77 20.5t73 6.5q53 0 95 -12q10 28 29 55q-35 14 -74 20t-75 6z
M2076 632q-14 0 -27.5 -5.5t-24.5 -13.5q7 -23 1 -53q-5 -19 -19.5 -36.5t-41.5 -26.5q17 -34 8 -71q-6 -23 -19 -38t-30.5 -24t-38.5 -13t-42 -4h-72q-11 -41 -19.5 -80.5t-18.5 -79.5q-2 -12 1.5 -25t15.5 -13q5 0 11 4t11 9q-11 30 -2 63q4 21 14.5 33t18.5 12
q7 0 9.5 -4.5t3 -10.5t-0.5 -12.5t-2 -10.5q-12 -45 -31 -71q11 -43 47 -61q6 34 24.5 46.5t38.5 12.5q14 0 24.5 -10t5.5 -25q-2 -16 -16.5 -25.5t-34.5 -9.5q-14 0 -27 3q0 -29 16.5 -47.5t43.5 -26.5q11 23 35.5 37.5t54.5 14.5q7 0 14 -1t14 -4l-1 -2q-13 5 -27 5
q-28 0 -50.5 -14.5t-32.5 -37.5q13 -3 29 -3q53 0 92 25t61 73q-11 -3 -25.5 -4.5t-25.5 -1.5q-29 0 -48 9.5t-30 24.5t-14.5 33.5t0.5 35.5q10 41 39 61.5t62 20.5q19 0 34.5 -8.5t26 -25t14 -40t-1.5 -53.5q-3 -15 -5.5 -23.5t-9.5 -19.5q51 19 81 75q-8 5 -16 8.5
t-17 7.5l3 1q9 -3 16.5 -6.5t15.5 -7.5q17 31 28 78q14 62 -1 107.5t-49 71.5q-11 -17 -23 -26.5t-23.5 -14.5t-20.5 -6.5t-13 -1.5q-14 0 -30 8.5t-16 25.5t15 29.5t35 12.5q38 0 68 -17q12 21 19 50q6 25 0 46t-20.5 37t-36 25t-47.5 9zM1446 625q-15 -17 -23.5 -36.5
t-8.5 -40.5q0 -27 12.5 -45.5t31.5 -23.5q11 36 11 70q0 22 -6 41t-17 35zM468 598q-13 -13 -18 -33q-7 -26 -1 -45q15 11 31.5 19.5t30.5 14.5l8 3q-8 17 -21.5 27t-29.5 14zM774 569q-16 -36 -20 -71l8 -3q7 -3 13 -10.5t3 -15.5q-5 -11 -18 -10q-5 1 -8.5 8.5t-2.5 15.5
v10q-5 2 -11 3t-11 1q-13 0 -24.5 -7t-21.5 -18.5t-17.5 -26t-12.5 -29.5l-70 -220q-10 -32 -39 -55q27 -13 54.5 -26t54.5 -23.5t51 -16.5t44 -6q28 0 46.5 9t29 21.5t13.5 26t0 24.5q-1 5 -5 10t-9 10q-12 -17 -33 -26.5t-49 -9.5q-15 0 -27 7t-21 19.5t-14 29t-4 35.5
q-14 4 -23 15.5t-12.5 26t-2 30t7.5 28.5q16 31 50.5 53t71.5 35q13 4 27.5 11.5t27.5 16.5t22 18.5t11 18.5q5 20 -1 35t-18.5 26t-28.5 18t-31 12zM513 552q-15 -7 -31.5 -16t-30.5 -21q10 -19 36 -18q1 -1 1 -2q-14 -2 -24 3t-18 13q-11 -11 -19.5 -23t-11.5 -27
q-5 -26 2 -43.5t27 -17.5q14 0 29 8.5t27 24t20 37t8 47.5q0 20 -8 38zM1878 549q-6 0 -12.5 -0.5t-12.5 -1.5q6 -23 26 -38t46 -15q14 0 26 3q-9 22 -27 37t-46 15zM1842 544q-20 -5 -36 -19q8 -5 11.5 -12.5t3.5 -13.5q0 -19 -22 -19q-12 0 -17.5 5.5t-5.5 12.5q0 9 6 15
q2 5 6 7.5t7 5.5q-25 13 -39.5 14t-23.5 1q-27 0 -50.5 -26.5t-32.5 -68.5l-20 -91h17q23 0 45.5 7t41 18t30.5 24.5t14 26.5q-1 6 0.5 14t8.5 8q5 0 8 -5t1 -10q-2 -7 -3.5 -14t-4.5 -14q-5 -14 -9.5 -27.5t-6.5 -27.5h67q16 0 34 3t34.5 11.5t30 22.5t19.5 35
q5 16 3.5 33.5t-7.5 33.5q-6 -1 -12.5 -1.5t-14.5 -0.5q-27 0 -51 14.5t-32 37.5zM1090 541q-28 0 -53 -26.5t-35 -68.5l-19 -91h19q21 0 43 5.5t42 16.5t36 28.5t25 40.5h2l-21 -91h119q7 23 12.5 43.5t9.5 35.5q8 31 -6.5 46t-35.5 15q-11 0 -19 -3.5t-15 -8.5l-4 -1
q2 -6 2 -11q0 -8 -2.5 -14t-11.5 -6q-5 0 -9 4.5t-1 12.5q4 10 18 16q-5 17 -18 29t-27 18q-23 8 -33 9t-18 1zM1802 522q-5 -5 -9 -10.5t-4 -13.5q0 -6 2.5 -11t7.5 -5q18 0 18 17t-15 23zM753 483q-1 -8 1 -15t7 -8q8 0 12 9q4 8 -2 13t-12 9q-3 0 -6 1v-9zM1187 480
q-6 -2 -9.5 -6t-5.5 -7q-2 -6 0 -10t6 -4q7 0 8 5t1 13v9zM2093 480q-18 0 -31.5 -11.5t-13.5 -28.5t14.5 -24.5t26.5 -7.5q8 0 29 11t40 43q-27 18 -65 18zM1627 347l-46 -212q-7 -32 -22.5 -56.5t-36 -40.5t-43 -24t-43.5 -8q-26 0 -54 9t-48 35q-4 6 -5 11t-1 9.5t-1.5 7
t-5.5 2.5q-14 0 -35 -9.5t-40.5 -27t-34 -43t-15.5 -57.5q32 -14 63.5 -31t63.5 -31q23 14 50 27t54 22.5t53.5 15.5t47.5 6q40 0 76 -11.5t56 -36.5q12 7 23 11q-5 48 14.5 84.5t54.5 68.5l2 -2q-32 -32 -49.5 -65t-12.5 -83l28 9q-10 35 1 69t45 60l3 -3
q-36 -26 -44.5 -61.5t-0.5 -61.5q36 12 77 20.5t77 8.5h21q-4 17 -1 40q1 4 1.5 8t2.5 8q-33 8 -54.5 29t-19.5 53q-19 8 -32.5 22t-21.5 33q-17 -19 -35 -26.5t-38 -7.5q-13 0 -20.5 6.5t-11.5 17t-4 23t2 24.5q8 40 16.5 79t17.5 79h-74zM802 346q-31 0 -54 -68
q-3 -11 -6 -23.5t-5 -23.5q30 7 54.5 19.5t37.5 38.5q6 10 6 21q0 14 -8.5 25t-24.5 11zM427 345q-30 0 -58 -7.5t-55 -20.5q13 -20 35.5 -33.5t54.5 -13.5q35 0 50.5 8.5t19.5 25.5q3 17 -11 29t-36 12zM1487 332q-5 -2 -9 -8t-4 -13q0 -11 8 -11q6 0 8.5 4.5t2.5 9.5
q0 10 -6 18zM2050 288q-37 0 -58 -29t-22 -66q-2 -23 6 -46.5t33 -34.5q15 -5 32 -5q13 0 27 1.5t26 5.5q5 11 8 20t5 26q7 33 4.5 57t-11.5 39.5t-22.5 23.5t-27.5 8zM1802 269q-6 0 -12.5 -12t-11.5 -32q-6 -28 0 -55q5 7 8 14q10 17 15 33t5 15q1 2 2.5 8t1.5 12.5
t-1.5 11.5t-6.5 5zM1154 244q-8 0 -15 -15t-7 -48v-8.5t1 -8.5q11 11 18 21.5t10 26.5q2 11 2.5 21.5t-9.5 10.5zM826 211q-4 0 -7 -5t-4 -8q-1 -10 6 -19l9 12q2 6 2 9q2 11 -6 11zM410 198q-2 0 -6.5 -4.5t-4.5 -16.5q0 -7 2.5 -15.5t7.5 -15.5t12 -12t16 -5
q14 0 24.5 10.5t18.5 23.5l-54 29q-10 6 -16 6zM2202 186q-36 -53 -96 -71q-24 -51 -67.5 -77.5t-99.5 -26.5q-8 0 -15.5 0.5t-14.5 1.5q-2 -4 -4 -14q-3 -24 1 -41q47 -4 73 -19t26 -40q0 -9 -8 -20q34 -8 66 -8q27 0 56.5 6t56 21t47 40t29.5 62q5 23 6.5 48.5t-3 50
t-17.5 47t-36 40.5zM1891 156q-21 0 -33 -16.5t-15 -45.5q12 -3 27 -3q16 0 27 7t16 26q2 8 -3 20t-19 12zM454 91q-14 0 -32.5 -16t-25.5 -46q-4 -21 -5 -40t4 -37q36 18 55.5 42.5t24.5 47.5q1 6 1 14t-1.5 16t-6.5 13.5t-14 5.5zM1075 -30q-42 0 -79 -15t-56 -46
q17 -20 17 -48v-9.5t-2 -10.5q-4 -16 -14 -32q2 -2 4.5 -5t5.5 -5q24 -20 61.5 -28t72.5 -8q44 0 78 14.5t66 36.5q-26 27 -38.5 61t-10.5 73q-26 10 -52 16t-53 6zM755 -35q-18 0 -38.5 -2.5t-38.5 -8.5t-31.5 -15.5t-17.5 -24.5q-5 -17 -0.5 -30t14.5 -22t25 -14t32 -5
q20 0 40.5 9t42.5 23.5t45 33t47 38.5q-29 10 -60.5 14t-59.5 4zM1878 -42q-41 0 -79 -11t-73 -26q7 -22 22.5 -38.5t35.5 -27.5t42.5 -16.5t43.5 -5.5q42 0 71.5 15t40.5 34q-30 9 -52.5 27.5t-29.5 48.5h-22zM1907 -43q7 -28 27.5 -45.5t48.5 -27.5q4 7 4 15
q0 24 -21 38.5t-59 19.5zM1528 -50q-20 0 -38 -5t-37 -13q-26 -12 -51 -28.5t-51 -33.5q29 -12 58 -20.5t61 -8.5q45 0 81 14.5t74 32.5l25 12q-16 26 -49 38t-73 12zM1196 -59q-3 -34 7.5 -65t32.5 -56q21 13 41.5 30t43.5 29l-54 27q-19 10 -36 18.5t-35 16.5zM938 -94
q-7 -11 -10 -27q-6 -21 -2.5 -38t14.5 -30q13 23 13 50q0 14 -4 24.5t-11 20.5zM1656 -109q-44 -20 -90.5 -35.5t-95.5 -15.5q-33 0 -62.5 8t-58.5 20q-22 -15 -47 -31t-53 -31q32 -27 78.5 -42.5t106.5 -15.5q55 0 97.5 8.5t72 23.5t44.5 35t15 43q0 9 -2 17t-5 16z" />
    <glyph glyph-name="ampersand.alt" horiz-adv-x="716" 
d="M316 731q49 0 84 -12.5t57.5 -35.5t33 -55.5t10.5 -72.5v-20h-132v17q0 69 -53 69q-25 0 -38 -16.5t-13 -39.5q0 -20 8.5 -38t28.5 -43l176 -213q7 24 9.5 50.5t3.5 54.5v36h172v-72l-57 -24q-9 -81 -38 -143l58 -75l58 -25v-73h-158l-53 68q-36 -39 -83.5 -59.5
t-102.5 -20.5q-57 0 -103 15t-78.5 42.5t-49.5 67.5t-17 91q0 66 34 120.5t105 92.5l-5 6q-26 33 -41 67.5t-15 70.5t12 67t36.5 54t62 36t88.5 13zM254 330q-35 -18 -55 -48t-20 -67q0 -51 31 -79.5t73 -28.5q32 0 58 14t46 35z" />
    <glyph glyph-name="breve" unicode="&#x2d8;" horiz-adv-x="457" 
d="M371 765q-6 -88 -38.5 -130.5t-104.5 -42.5q-71 0 -103 42.5t-40 130.5l74 11q5 -51 21 -74t48 -23t48.5 23.5t21.5 73.5z" />
    <glyph glyph-name="caron" unicode="&#x2c7;" horiz-adv-x="457" 
d="M374 740l-106 -155h-81l-105 155l60 38l86 -98l86 98z" />
    <glyph glyph-name="dotaccent" unicode="&#x2d9;" horiz-adv-x="457" 
d="M228 742q38 0 63.5 -19.5t25.5 -57.5t-25 -57t-64 -19q-37 0 -63 19t-26 57t25.5 57.5t63.5 19.5z" />
    <glyph glyph-name="hungarumlaut" unicode="&#x2dd;" horiz-adv-x="457" 
d="M243 735l-117 -162l-68 35l92 176zM398 722l-115 -151l-66 36l92 165z" />
    <glyph glyph-name="ogonek" unicode="&#x2db;" horiz-adv-x="457" 
d="M317 10v-10q-42 -26 -63.5 -58.5t-21.5 -59.5q0 -32 29 -32q20 0 47 12l22 -63q-19 -11 -47.5 -21.5t-60.5 -10.5q-51 0 -73 25t-22 61q0 46 30.5 89.5t81.5 72.5z" />
    <glyph glyph-name="ring" unicode="&#x2da;" horiz-adv-x="457" 
d="M228 780q46 0 76 -24.5t30 -73.5q0 -48 -30 -73.5t-76 -25.5q-48 0 -77 23.5t-29 71.5q0 50 30 76t76 26zM228 724q-34 0 -34 -43q0 -42 34 -42t34 43q0 42 -34 42z" />
    <glyph glyph-name="acute.cap" horiz-adv-x="457" 
d="M339 845l-182 -90l-39 61l165 119z" />
    <glyph glyph-name="breve.cap" horiz-adv-x="457" 
d="M365 899q-5 -71 -37 -106.5t-101 -35.5q-68 0 -100 35.5t-37 106.5l75 12q5 -36 19.5 -52t42.5 -16q29 0 43.5 16t19.5 52z" />
    <glyph glyph-name="caron.cap" horiz-adv-x="457" 
d="M186 761l-93 111l55 42l80 -67l80 67l54 -42l-92 -111h-84z" />
    <glyph glyph-name="cedilla.cap" horiz-adv-x="457" 
d="M239 -48q34 -3 59.5 -20.5t25.5 -57.5q0 -47 -28 -72.5t-79 -25.5q-27 0 -50.5 5.5t-37.5 11.5l11 60q14 -4 30 -7t32 -3q19 0 29.5 6.5t10.5 23.5q0 18 -14 23.5t-43 5.5h-17l19 104h62z" />
    <glyph glyph-name="circumflex.cap" horiz-adv-x="457" 
d="M363 799l-54 -42l-80 67l-80 -67l-55 42l93 111h84z" />
    <glyph glyph-name="dieresis.cap" horiz-adv-x="457" 
d="M128 913q37 0 55.5 -19t18.5 -48q0 -30 -20 -48.5t-54 -18.5q-35 0 -54.5 17.5t-19.5 49.5q0 29 20 48t54 19zM329 913q37 0 55.5 -19t18.5 -48q0 -30 -20.5 -48.5t-53.5 -18.5q-35 0 -54.5 17.5t-19.5 49.5q0 29 20 48t54 19z" />
    <glyph glyph-name="dotaccent.cap" horiz-adv-x="457" 
d="M227 911q38 0 63.5 -19.5t25.5 -57.5t-25 -57t-64 -19q-37 0 -63 19t-26 57t25.5 57.5t63.5 19.5z" />
    <glyph glyph-name="grave.cap" horiz-adv-x="457" 
d="M341 816l-39 -61l-182 90l56 90z" />
    <glyph glyph-name="hungarumlaut.cap" horiz-adv-x="457" 
d="M244 895l-136 -141l-59 42l110 163zM408 883l-132 -129l-59 43l106 150z" />
    <glyph glyph-name="macron.cap" horiz-adv-x="457" 
d="M360 782h-264v88h264v-88z" />
    <glyph glyph-name="ogonek.cap" horiz-adv-x="457" 
d="M316 10v-10q-42 -26 -63.5 -58.5t-21.5 -59.5q0 -32 29 -32q20 0 47 12l22 -63q-19 -11 -47.5 -21.5t-60.5 -10.5q-51 0 -73 25t-22 61q0 46 30.5 89.5t81.5 72.5z" />
    <glyph glyph-name="ring.cap" horiz-adv-x="457" 
d="M228 965q46 0 76 -24.5t30 -73.5q0 -48 -30 -73.5t-76 -25.5q-48 0 -77 23.5t-29 71.5q0 50 30 76t76 26zM228 909q-34 0 -34 -43q0 -42 34 -42t34 43q0 42 -34 42z" />
    <glyph glyph-name="tilde.cap" horiz-adv-x="457" 
d="M382 878q-10 -50 -32.5 -77t-55.5 -27q-18 0 -35 5t-31.5 10.5t-26.5 10.5t-22 5q-12 0 -20.5 -7t-17.5 -28l-65 26q11 52 34 81t57 29q19 0 35.5 -5t31 -11.5t26.5 -11.5t23 -5q13 0 21.5 6.5t16.5 25.5z" />
    <glyph glyph-name="caron.alt" horiz-adv-x="457" 
d="M242 517h-87l28 203h118z" />
    <glyph glyph-name="uni0326" unicode="&#x326;" horiz-adv-x="14" 
d="M304 -76l-69 -172l-82 22l39 178z" />
    <glyph glyph-name="uni0326.cap" horiz-adv-x="14" 
d="M303 -76l-69 -172l-82 22l39 178z" />
    <glyph glyph-name="uni02BC" unicode="&#x2bc;" horiz-adv-x="408" 
d="M200 731q36 0 53 -24.5t17 -59.5q0 -49 -26 -84.5t-80 -55.5l-18 44q28 13 40 28.5t16 38.5q-29 -7 -48 7t-19 44q0 27 18 44.5t47 17.5z" />
    <glyph glyph-name="uni02C9" unicode="&#x2c9;" horiz-adv-x="457" 
d="M359 606h-264v88h264v-88z" />
    <glyph glyph-name="raute" unicode="&#x25c6;" horiz-adv-x="562" 
d="M475 325l-195 -193l-193 194l194 193z" />
    <glyph glyph-name="revcommaaccent" horiz-adv-x="314" 
d="M93 611l69 172l82 -22l-39 -178z" />
    <glyph glyph-name="square" unicode="&#x25a0;" horiz-adv-x="565" 
d="M444 164h-323v323h323v-323z" />
    <glyph glyph-name="blackleftpointingtriangle" unicode="&#x25c0;" horiz-adv-x="566" 
d="M502 40l-449 219l449 214v-433z" />
    <glyph glyph-name="blackrightpointingtriangle" unicode="&#x25b6;" horiz-adv-x="566" 
d="M513 259l-449 -219v433z" />
    <glyph glyph-name="whiteleftpointingtriangle" unicode="&#x25c1;" horiz-adv-x="572" 
d="M506 40l-455 219v2l455 214v-435zM202 260l235 -115v224z" />
    <glyph glyph-name="whiterightpointingtriangle" unicode="&#x25b7;" horiz-adv-x="572" 
d="M519 261v-2l-455 -219v435zM133 145l235 115l-235 109v-224z" />
    <glyph glyph-name="uni21D7" unicode="&#x21d7;" horiz-adv-x="759" 
d="M656 523v-285h-90v131l-406 -408l-68 67l410 409h-128v87z" />
    <glyph glyph-name="uni21D6" unicode="&#x21d6;" horiz-adv-x="759" 
d="M385 437h-128l410 -409l-68 -67l-406 408v-131h-90v285l282 1v-87z" />
    <glyph glyph-name="uni21D8" unicode="&#x21d8;" horiz-adv-x="759" 
d="M374 86h128l-410 409l68 67l406 -408v131h90v-285l-282 -1v87z" />
    <glyph glyph-name="uni21D9" unicode="&#x21d9;" horiz-adv-x="759" 
d="M103 0v285h90v-131l406 408l68 -67l-410 -409h128v-87z" />
    <glyph glyph-name="whitecircle" unicode="&#x25cb;" horiz-adv-x="566" 
d="M283 514q39 0 73.5 -15t60 -40.5t40.5 -60.5t15 -74t-15 -73.5t-40.5 -60.5t-60 -41t-73.5 -15t-74 15t-60.5 41t-40.5 60.5t-15 73.5t15 74t40.5 60.5t60.5 40.5t74 15zM283 448q-26 0 -48 -10t-38 -27t-25 -39.5t-9 -47.5q0 -26 9 -48.5t25 -39.5t38 -27t48 -10
q25 0 47 10.5t38 27.5t25.5 40t9.5 49q0 25 -9.5 47.5t-25.5 39t-38 26t-47 9.5z" />
    <glyph glyph-name="square.open" unicode="&#x25a1;" horiz-adv-x="565" 
d="M444 164h-323v323h323v-323zM186 422v-193h194v193h-194z" />
    <glyph glyph-name="uni25C2" unicode="&#x25c2;" horiz-adv-x="401" 
d="M260 210l-174 110l174 107v-217z" />
    <glyph glyph-name="Oslash.alt" horiz-adv-x="714" 
d="M574 652q44 -46 66.5 -117.5t22.5 -171.5q0 -194 -80 -284.5t-228 -90.5q-80 0 -141 26l-32 -58h-100l60 108q-91 93 -91 299q0 187 79.5 278t228.5 91q84 0 143 -29l32 57h100zM357 114q70 0 107.5 60t37.5 190q0 124 -38 183t-107 59q-70 0 -107.5 -59t-37.5 -183
q0 -130 37.5 -190t107.5 -60z" />
    <glyph glyph-name="oslash.alt" horiz-adv-x="575" 
d="M455 491q41 -33 62.5 -89t21.5 -138q0 -72 -19 -124t-53 -85.5t-81.5 -50t-104.5 -16.5q-54 0 -95 14l-25 -46h-85l44 81q-41 33 -63 89t-22 138q0 73 18.5 125t52.5 86t80 50t102 16t101 -15l27 48h85zM288 100q21 0 38.5 8.5t30 28t20 51t7.5 76.5q0 46 -7.5 77.5
t-20 51t-30 28.5t-38.5 9q-44 0 -71 -37.5t-27 -128.5q0 -45 7 -76.5t20 -51t31 -28t40 -8.5z" />
    <glyph glyph-name="five.alt" horiz-adv-x="523" 
d="M197 577l-11 -157q17 12 46 24t69 12q92 0 138 -59t46 -159q0 -63 -18.5 -110t-50 -78t-74.5 -46.5t-91 -15.5q-54 0 -110.5 18t-101.5 51l43 100q81 -44 153 -44q45 0 76.5 28.5t31.5 94.5q0 51 -19.5 83t-61.5 32q-27 0 -48 -10.5t-37 -24.5l-3 -42h-115l28 420h258
l20 71h87l-4 -188h-251z" />
    <glyph glyph-name="five.osf.alt" horiz-adv-x="515" 
d="M193 472l-9 -140q20 14 48 24.5t67 10.5q81 0 129.5 -50t48.5 -150q0 -59 -18.5 -103.5t-50 -74.5t-74.5 -45t-91 -15q-54 0 -108.5 17t-99.5 52l44 98q41 -22 75.5 -32.5t70.5 -10.5q45 0 77.5 27t32.5 87q0 46 -19.5 70.5t-57.5 24.5q-23 0 -46 -9t-37 -23l-3 -37h-116
l27 396h258l19 69h88l-4 -186h-251z" />
    <glyph glyph-name="five.tf.alt" 
d="M220 577l-11 -157q17 12 46 24t69 12q92 0 138 -59t46 -159q0 -63 -18.5 -110t-50 -78t-74.5 -46.5t-91 -15.5q-54 0 -110.5 18t-101.5 51l43 100q81 -44 153 -44q45 0 76.5 28.5t31.5 94.5q0 51 -19.5 83t-61.5 32q-27 0 -48 -10.5t-37 -24.5l-3 -42h-115l28 420h258
l20 71h87l-4 -188h-251z" />
    <glyph glyph-name="five.tosf.alt" 
d="M223 472l-9 -140q20 14 48 24.5t67 10.5q81 0 129.5 -50t48.5 -150q0 -59 -18.5 -103.5t-50 -74.5t-74.5 -45t-91 -15q-54 0 -108.5 17t-99.5 52l44 98q41 -22 75.5 -32.5t70.5 -10.5q45 0 77.5 27t32.5 87q0 46 -19.5 70.5t-57.5 24.5q-23 0 -46 -9t-37 -23l-3 -37h-116
l27 396h258l19 69h88l-4 -186h-251z" />
    </font>
</defs>
</svg>
